<svg width="1920" height="400" viewBox="0 0 1920 400" fill="none" xmlns="http://www.w3.org/2000/svg">
<g clip-path="url(#clip0_236_1331)">
<rect width="1920" height="400" fill="#712732"/>
<g opacity="0.1">
<path d="M963.988 776.048C810.11 776.048 665.444 716.133 556.668 607.357C447.892 498.508 387.977 353.841 387.977 200.037C387.977 46.2322 447.892 -98.5076 556.668 -207.357C665.518 -316.133 810.184 -376.049 963.988 -376.049C1117.79 -376.049 1262.53 -316.133 1371.31 -207.357C1480.08 -98.5813 1540 46.0849 1540 199.963C1540 353.841 1480.08 498.508 1371.31 607.284C1262.53 716.059 1117.87 775.975 963.988 775.975V776.048ZM963.988 -358.288C656.158 -358.288 405.664 -107.867 405.664 200.037C405.664 507.941 656.158 758.361 963.988 758.361C1271.82 758.361 1522.31 507.941 1522.31 200.037C1522.31 -107.867 1271.89 -358.288 963.988 -358.288Z" fill="#F5F5F5"/>
<path d="M963.989 746.865C817.923 746.865 680.626 689.971 577.304 586.723C474.055 483.4 417.161 346.03 417.161 200.037C417.161 54.0443 474.055 -83.3259 577.304 -186.648C680.626 -289.971 817.996 -346.865 963.989 -346.865C1109.98 -346.865 1247.43 -289.971 1350.67 -186.722C1453.92 -83.3996 1510.82 53.897 1510.82 199.963C1510.82 346.03 1453.92 483.326 1350.67 586.649C1247.43 689.898 1110.06 746.791 963.989 746.791V746.865ZM963.989 -340.158C666.182 -340.158 423.868 -97.8441 423.868 200.037C423.868 497.918 666.182 740.232 964.063 740.232C1261.94 740.232 1504.26 497.918 1504.26 200.037C1504.26 -97.8441 1261.87 -340.158 963.989 -340.158Z" fill="#F5F5F5"/>
<path d="M963.988 596.008C745.626 596.008 567.943 418.326 567.943 199.963C567.943 -18.3995 745.626 -196.082 963.988 -196.082C1182.35 -196.082 1360.03 -18.3995 1360.03 199.963C1360.03 418.326 1182.35 596.008 963.988 596.008ZM963.988 -189.375C749.31 -189.375 574.576 -14.7147 574.576 200.037C574.576 414.788 749.237 589.449 963.988 589.449C1178.74 589.449 1353.4 414.788 1353.4 200.037C1353.4 -14.7147 1178.74 -189.375 963.988 -189.375Z" fill="#F5F5F5"/>
<path d="M963.988 578.615C755.206 578.615 585.409 408.745 585.409 199.963C585.409 -8.81927 755.28 -178.69 963.988 -178.69C1172.7 -178.69 1342.64 -8.81927 1342.64 199.963C1342.64 408.745 1172.77 578.615 963.988 578.615ZM963.988 -167.562C761.323 -167.562 596.464 -2.70247 596.464 199.963C596.464 402.628 761.323 567.487 963.988 567.487C1166.65 567.487 1331.51 402.628 1331.51 199.963C1331.51 -2.70247 1166.65 -167.562 963.988 -167.562Z" fill="#F5F5F5"/>
<path d="M586.367 6.36345L583.64 12.2592L546.276 -4.9121V-4.69102C548.634 -2.11164 550.772 0.394037 552.835 2.67863L575.534 30.02L572.144 37.3897L546.866 5.70018L494.025 3.0471L497.268 -3.95404L542.223 -1.52207L535.738 -9.77607L506.185 -23.3362L508.912 -29.2319L586.441 6.36345H586.367Z" fill="#F5F5F5"/>
<path d="M486.803 22.1349L571.849 36.6532L569.712 43.1385L526.82 35.3266C516.282 33.4105 505.743 31.4207 497.636 29.652V29.7994C505.375 33.1894 514.513 37.906 524.462 42.9174L563.226 62.7417L561.089 69.1533L518.05 61.4889C508.028 59.6465 497.931 57.8041 489.161 55.6669V55.8142C497.71 59.7201 506.259 64.0682 515.84 68.8585L554.604 88.6092L552.54 94.9471L475.97 54.7825L478.107 48.2972L522.251 56.109C533.084 58.0251 541.339 59.6465 549.74 61.71V61.5626C542.002 58.0988 534.411 54.414 524.536 49.1816L484.592 28.4728L486.729 21.9875L486.803 22.1349Z" fill="#F5F5F5"/>
<path d="M494.763 89.7142L469.632 78.9545L471.033 72.3955L550.846 106.959L549.225 114.624L462.263 113.518L463.737 106.738L491.078 107.107L494.837 89.6405L494.763 89.7142ZM499.701 107.622L524.757 107.991C530.432 107.991 535.517 108.359 540.528 108.654V108.507C535.738 106.738 530.874 104.822 526.01 102.758L502.943 92.7358L499.774 107.549L499.701 107.622Z" fill="#F5F5F5"/>
<path d="M460.273 126.415L545.023 135.627L544.286 142.702L499.626 154.051C489.309 156.704 480.023 158.621 471.106 160.021L471.253 160.168C482.603 160.831 492.994 161.789 506.185 163.19L541.633 167.022L540.97 173.139L456.146 163.927L456.882 157.368L501.616 146.166C511.418 143.734 521.441 141.449 530.947 139.902V139.681C520.114 138.87 509.944 137.912 495.794 136.364L459.536 132.385L460.199 126.268L460.273 126.415Z" fill="#F5F5F5"/>
<path d="M459.02 219.494C457.251 216.619 454.377 210.871 454.377 204.017C454.377 196.427 457.693 190.162 465.653 185.225C472.727 180.877 484.15 178.224 497.416 178.224C522.841 178.224 541.412 188.615 541.412 205.491C541.412 211.313 539.275 215.883 537.507 218.02L528.516 216.472C530.579 213.745 532.2 210.429 532.2 205.344C532.2 193.11 519.304 185.151 497.932 185.151C476.56 185.151 463.515 192.816 463.515 204.533C463.515 208.808 464.547 211.682 465.8 213.229H491.225V202.986H500.069V219.567H459.094L459.02 219.494Z" fill="#F5F5F5"/>
<path d="M456.956 244.404L539.938 221.042L540.822 227.896L498.741 239.245C488.35 242.045 478.033 244.698 469.926 246.614V246.762C478.475 246.467 488.719 246.762 499.847 247.13L543.402 248.383L544.286 255.09L502.131 266.586C492.256 269.239 482.381 271.892 473.537 273.735V273.882C482.97 273.735 492.551 273.956 503.311 274.177L546.865 275.356L547.676 281.989L461.23 278.525L460.419 271.819L503.679 259.954C514.291 257.006 522.472 254.942 530.873 253.173V253.026C522.324 253.173 513.923 253.1 502.721 252.658L457.766 251.11L456.882 244.404H456.956Z" fill="#F5F5F5"/>
<path d="M519.23 336.303C490.783 343.673 473.096 337.408 469.853 325.027C466.537 312.131 481.055 298.718 506.038 292.233C532.274 285.379 551.878 290.537 555.268 303.582C558.731 316.847 543.697 329.965 519.156 336.377L519.23 336.303ZM508.028 298.865C490.415 303.434 476.044 313.162 478.623 323.111C481.203 333.06 498.227 334.682 517.019 329.818C533.453 325.543 549.298 316.036 546.571 305.572C543.845 295.18 526.231 294.222 508.102 298.939L508.028 298.865Z" fill="#F5F5F5"/>
<path d="M537.728 385.605C510.313 396.07 492.036 391.869 487.393 379.857C482.676 367.476 495.647 352.515 519.746 343.229C545.024 333.575 565.143 336.449 569.933 349.051C574.871 361.875 561.384 376.54 537.728 385.605ZM522.473 349.641C505.449 356.126 492.331 367.402 495.942 376.982C499.627 386.637 516.724 386.268 534.78 379.414C550.625 373.371 565.29 362.169 561.458 351.999C557.626 341.977 539.939 342.935 522.473 349.641Z" fill="#F5F5F5"/>
<path d="M502.648 413.315L578.997 375.361L582.166 381.699L550.698 415.305C543.402 423.116 536.622 429.749 529.916 435.719H530.063C540.012 430.191 549.224 425.475 561.163 419.505L593.073 403.661L595.8 409.114L519.451 447.068L516.503 441.172L548.119 407.64C555.046 400.27 562.268 392.901 569.417 386.563L569.196 386.416C559.763 391.574 550.624 396.217 537.949 402.555L505.301 418.768L502.574 413.315H502.648Z" fill="#F5F5F5"/>
<path d="M1393.64 392.015L1383.98 410.513L1411.25 424.737L1422.01 404.102L1430.19 408.376L1416.26 435.201L1340.65 395.847L1354.06 370.127L1362.24 374.402L1352.07 394.005L1375.95 406.46L1385.61 387.962L1393.71 392.163L1393.64 392.015Z" fill="#F5F5F5"/>
<path d="M1411.99 335.713C1439.62 345.588 1450.53 361.359 1445.96 374.33C1441.17 387.669 1421.42 391.206 1397.1 382.584C1371.6 373.519 1358.49 357.6 1363.28 344.04C1368.21 330.259 1388.18 327.237 1411.99 335.786V335.713ZM1399.31 375.509C1416.48 381.625 1433.95 381.257 1437.64 370.939C1441.32 360.548 1428.28 349.346 1410.07 342.861C1394.08 337.187 1375.51 336.523 1371.68 347.357C1367.84 358.19 1381.77 369.244 1399.39 375.509H1399.31Z" fill="#F5F5F5"/>
<path d="M1375.29 309.624L1424.52 320.899C1443.16 325.174 1452.23 321.784 1453.85 314.782C1455.62 307.044 1448.62 300.191 1430.27 295.99L1381.04 284.714L1382.58 277.861L1431.08 288.915C1456.58 294.737 1465.12 305.644 1462.54 316.993C1460.11 327.753 1448.47 333.575 1422.68 327.679L1373.67 316.478L1375.21 309.624H1375.29Z" fill="#F5F5F5"/>
<path d="M1383.91 268.648L1384.87 261.795L1460.19 272.112L1463.28 249.414L1472.42 250.666L1468.37 280.292L1383.84 268.722L1383.91 268.648Z" fill="#F5F5F5"/>
<path d="M1390.1 202.321L1389.95 195.394L1431.08 194.73V194.509C1427.76 193.109 1424.66 191.709 1421.86 190.456L1389.58 174.611L1389.44 165.989L1425.99 184.781L1474.7 162.967L1474.85 171.148L1433.29 189.572L1442.72 194.509L1475.22 193.993L1475.37 200.921L1390.1 202.395V202.321Z" fill="#F5F5F5"/>
<path d="M1425.18 113.002C1454.29 109.391 1471.17 118.676 1472.79 132.237C1474.56 146.313 1458.42 158.325 1432.77 161.494C1405.87 164.81 1387.01 156.483 1385.24 142.186C1383.47 127.594 1399.98 116.023 1425.11 112.928L1425.18 113.002ZM1431.67 154.198C1449.72 151.987 1465.2 143.807 1463.87 132.974C1462.54 122.067 1445.82 117.866 1426.58 120.224C1409.78 122.288 1392.83 130.026 1394.3 141.522C1395.7 152.945 1413.09 156.556 1431.74 154.272L1431.67 154.198Z" fill="#F5F5F5"/>
<path d="M1383.39 112.485C1381.48 109.317 1379.71 104.6 1378.53 99.957C1376.84 92.7348 1377.79 87.5761 1381.63 83.228C1384.72 79.6905 1389.95 76.8901 1396.37 75.3424C1407.35 72.6894 1415.6 75.3424 1419.87 80.059H1420.24C1421.5 75.4161 1426.8 71.5839 1435.13 68.2676C1446.26 63.7721 1454 60.6032 1456.94 58.7607L1458.64 65.7619C1456.5 67.1621 1449.65 70.0363 1439.7 74.0159C1428.64 78.2903 1425.03 82.1225 1426.14 88.3867L1427.69 94.7246L1463.58 86.0284L1465.2 92.8085L1383.39 112.559V112.485ZM1419.51 96.6407L1417.81 89.7133C1416.04 82.491 1408.67 79.4694 1399.24 81.754C1388.55 84.3334 1385.02 90.3765 1386.64 97.5251C1387.45 100.768 1388.48 102.979 1389.22 103.937L1419.51 96.6407Z" fill="#F5F5F5"/>
<path d="M1406.09 33.0405L1412.95 52.7912L1441.98 42.6948L1434.32 20.7332L1443.09 17.7117L1453.04 46.2322L1372.49 74.2369L1362.98 46.8218L1371.68 43.8002L1378.9 64.6563L1404.32 55.8127L1397.47 36.0621L1406.09 33.0405Z" fill="#F5F5F5"/>
<path d="M1409.63 7.54161L1436.31 1.20371L1439.33 7.68901L1354.36 27.4397L1350.82 19.8489L1420.17 -32.9915L1423.34 -26.2851L1401.52 -9.70337L1409.63 7.54161ZM1394.3 -4.76569L1374.33 10.4158C1369.83 13.8795 1365.56 16.7537 1361.43 19.5541V19.7015C1366.44 18.2276 1371.53 16.8274 1376.61 15.5745L1401.16 9.82621L1394.3 -4.8394V-4.76569Z" fill="#F5F5F5"/>
<path d="M1226.13 31.9346C1224.8 27.3654 1220.97 24.1228 1216.25 23.6069C1215.51 23.6069 1214.78 23.6069 1214.04 23.6806L1166.73 33.1138V7.32C1166.73 -0.270741 1160.39 -6.38755 1152.65 -6.38755H1003.49C1001.06 -6.38755 999.141 -8.22996 999.141 -10.5882L999.067 -47.9524C999.067 -55.5431 992.73 -61.6599 984.991 -61.6599H943.574C935.836 -61.6599 929.498 -55.4694 929.498 -47.9524V-10.7356L929.424 -10.6619C929.424 -8.30365 927.434 -6.46124 925.076 -6.46124H775.915C768.176 -6.46124 761.839 -0.344452 761.839 7.24628V33.0401L714.525 23.6069C713.788 23.4595 713.051 23.4595 712.314 23.5332C707.598 24.0491 703.766 27.2917 702.439 31.8609C702.218 32.7453 702.144 33.6296 702.218 34.514L744.004 407.271L745.478 420.757C747.541 431.959 754.543 441.982 765.007 448.32L948.733 547.22C953.67 549.21 958.903 550.242 964.135 550.242C969.368 550.242 974.6 549.21 979.612 547.22L1163.34 448.32C1173.8 441.982 1180.88 431.959 1182.87 420.757L1184.34 407.271L1226.13 34.514C1226.2 33.6296 1226.13 32.6716 1225.91 31.8609L1226.13 31.9346ZM776.209 7.46739H929.424C937.384 7.46739 943.795 1.1295 943.795 -6.60863V-38.7403C943.795 -43.6043 947.701 -47.5839 952.712 -47.805H975.779C980.791 -47.5839 984.697 -43.678 984.697 -38.7403V-6.60863C984.697 1.1295 991.108 7.46739 999.067 7.46739H1152.28V35.9142L1129.81 40.4097V30.387C1129.81 22.5752 1123.32 16.2373 1115.29 16.2373H1057.44C1049.48 16.2373 1042.92 22.5752 1042.92 30.387V57.6547L1021.69 61.8554V30.387C1021.69 23.0174 1015.5 16.9742 1007.91 16.9742H920.433C912.843 16.9742 906.652 23.0174 906.652 30.387V61.8554L885.428 57.6547V30.387C885.428 22.5752 878.942 16.2373 870.909 16.2373H813.058C805.025 16.2373 798.539 22.5752 798.539 30.387V40.4097L776.136 35.9142V7.46739H776.209ZM1114.77 43.3576L1058.32 54.5594V30.9766H1114.77V43.3576ZM1008.13 64.5085L975.706 70.9201C974.232 71.2885 966.862 72.3203 964.356 72.3203C961.851 72.3203 954.555 71.3622 953.007 70.9201L920.507 64.5085V30.3133H1008.06V64.5822L1008.13 64.5085ZM870.32 54.5594L813.868 43.3576V30.9766H870.32V54.5594ZM1168.57 418.325C1167.46 425.032 1162.53 432.254 1155.67 436.16L973.495 534.25C970.989 535.208 967.746 535.724 964.356 535.724C960.966 535.724 957.724 535.208 955.218 534.25L773.04 436.16C766.187 432.254 761.249 425.032 760.144 418.325L718.431 45.9369C718.431 43.3576 719.389 39.3043 726.98 40.9256L949.617 85.0698C951.165 85.512 952.786 85.8067 954.407 86.0278C957.65 86.5437 960.966 86.7648 964.283 86.7648C967.599 86.7648 970.915 86.5437 974.158 86.0278C975.779 85.8067 977.401 85.512 978.948 85.0698L1201.66 40.9256C1209.25 39.3043 1210.28 43.3576 1210.21 45.9369L1168.5 418.325H1168.57Z" fill="#F5F5F5"/>
<path d="M1064.51 159.061C1090.3 159.061 1110.06 146.606 1110.06 126.34C1110.06 106.073 1090.3 93.6187 1064.51 93.6187C1038.72 93.6187 1018.89 106.073 1018.89 126.34C1018.89 146.606 1038.64 159.061 1064.51 159.061ZM1064.51 107.621C1076.38 107.621 1086.03 114.843 1086.03 126.266C1086.03 137.689 1076.38 144.911 1064.51 144.911C1052.65 144.911 1042.99 137.689 1042.99 126.266C1042.99 114.843 1052.65 107.621 1064.51 107.621Z" fill="#F5F5F5"/>
<path d="M995.973 162.598V177.19H1052.13V199.152H1074.9V177.19H1132.97V162.598H995.973Z" fill="#F5F5F5"/>
<path d="M1028.77 184.192H1006.14V214.628C1006.14 220.671 1009.68 226.936 1019.04 226.936H1125.02V212.491H1028.77V184.118V184.192Z" fill="#F5F5F5"/>
<path d="M893.608 168.125V153.902H885.944V113.958C885.944 108.726 881.596 104.378 876.363 104.378H802.446V119.559H864.351V153.902H838.926V131.056H818.512V153.902H796.182V168.494H849.464C834.43 173.873 824.186 184.559 824.186 197.677C824.186 216.544 845.632 230.62 872.015 230.62C898.399 230.62 919.918 216.544 919.918 197.677C919.918 184.338 909.232 173.431 893.682 168.199L893.608 168.125ZM871.942 216.249C858.971 216.249 848.432 208.437 848.432 197.53C848.432 186.623 858.971 178.811 871.942 178.811C884.912 178.811 895.451 186.623 895.451 197.53C895.451 208.437 884.912 216.249 871.942 216.249Z" fill="#F5F5F5"/>
<path d="M943.796 126.118H923.603V100.177H900.757V167.314H923.603V141.373H943.796V126.118Z" fill="#F5F5F5"/>
<path d="M1172.55 238.138L1141.67 244.919C1139.61 245.508 1136.22 245.95 1134.08 245.95H1064.66C1027.66 245.95 987.056 268.354 987.056 342.861V433.139C987.056 439.772 980.497 439.772 978.36 439.772C976.222 439.772 969.663 440.067 969.663 433.139V342.861C969.663 298.864 937.532 245.95 884.102 245.95H773.115C770.978 245.95 769.209 247.719 769.209 249.856V335.492C769.209 337.629 770.462 340.577 771.936 342.124L794.634 364.823C796.108 366.297 797.361 369.318 797.361 371.455L797.508 404.471C797.508 430.413 833.03 430.413 836.273 430.413C839.515 430.413 875.774 430.634 875.774 404.471C875.774 404.471 875.332 361.727 875.332 350.747C875.332 339.766 867.299 331.88 862.804 331.88C858.308 331.88 858.161 336.302 858.161 339.766V404.471C858.161 421.79 839.073 421.422 836.199 421.422C833.325 421.422 814.238 421.569 814.238 404.471V372.192C814.238 370.055 812.985 367.107 811.511 365.56L793.75 347.799C792.202 346.325 791.023 343.303 791.023 341.166V262.606C791.023 260.468 792.792 258.7 794.929 258.7H884.028C913.138 258.7 932.815 307.339 932.815 326.869V445.889C932.815 448.026 934.584 449.795 936.721 449.795H1000.32C1021.03 449.795 1021.18 429.307 1021.18 429.307V326.943C1021.18 297.317 1045.13 258.773 1064.58 258.773H1129.44C1131.57 258.773 1132.75 260.395 1132.09 262.458C1132.09 262.458 1117.87 314.93 1115.95 318.836C1114.03 322.742 1109.83 324.069 1107.7 324.069H1083.75C1081.61 324.069 1076.67 324.29 1079.84 327.827C1083.01 331.365 1091.19 331.586 1093.33 331.586H1107.7C1109.83 331.586 1111.46 333.281 1110.64 335.27C1110.64 335.27 1105.41 357.674 1101.29 366.297C1097.16 374.993 1093.4 374.993 1091.26 374.993H1068.64C1065.25 374.993 1061.34 376.614 1064.73 380.225C1068.2 383.91 1073.87 383.173 1077.48 383.173H1093.03C1095.17 383.173 1096.13 385.384 1095.09 387.3C1095.09 387.3 1091.63 398.281 1088.9 406.019C1086.18 413.757 1073.43 414.936 1071.36 414.936H1054.05C1051.91 414.936 1048.59 415.6 1050.14 418.695C1051.76 421.79 1060.09 422.453 1062.23 422.453H1083.23C1093.03 422.453 1102.1 414.642 1108.43 402.85C1114.77 391.059 1114.4 387.595 1115.14 384.721C1115.8 381.847 1115.29 381.625 1114.11 381.994C1109.98 383.173 1103.79 383.026 1103.79 383.026C1103.79 383.026 1118.6 377.351 1126.42 358.853C1131.35 347.136 1134.45 336.376 1135.04 334.165C1135.63 331.954 1135.04 331.659 1134.15 331.88C1129.58 333.502 1125.24 333.06 1125.24 333.06C1125.24 333.06 1138.21 327.606 1150.37 299.012C1162.45 270.491 1174.69 240.718 1174.69 240.718C1175.5 238.802 1174.54 237.623 1172.48 238.212L1172.55 238.138Z" fill="#F5F5F5"/>
<path d="M831.556 297.833C829.419 297.833 826.987 299.454 826.177 301.444L818.217 320.752C817.407 322.742 818.512 324.363 820.649 324.363H832.072C834.21 324.363 836.642 322.742 837.452 320.752L845.411 301.444C846.222 299.454 845.117 297.833 843.053 297.833H831.63H831.556Z" fill="#F5F5F5"/>
</g>
<g opacity="0.1">
<path d="M-215.988 776.048C-369.867 776.048 -514.533 716.133 -623.309 607.357C-732.085 498.508 -792 353.841 -792 200.037C-792 46.2322 -732.085 -98.5076 -623.309 -207.357C-514.459 -316.133 -369.793 -376.049 -215.988 -376.049C-62.1837 -376.049 82.5561 -316.133 191.332 -207.357C300.108 -98.5813 360.023 46.0849 360.023 199.963C360.023 353.841 300.108 498.508 191.332 607.284C82.5561 716.059 -62.11 775.975 -215.988 775.975V776.048ZM-215.988 -358.288C-523.818 -358.288 -774.313 -107.867 -774.313 200.037C-774.313 507.941 -523.818 758.361 -215.988 758.361C91.8419 758.361 342.336 507.941 342.336 200.037C342.336 -107.867 91.9156 -358.288 -215.988 -358.288Z" fill="#F5F5F5"/>
<path d="M-215.988 746.865C-362.054 746.865 -499.351 689.971 -602.673 586.723C-705.922 483.4 -762.816 346.03 -762.816 200.037C-762.816 54.0443 -705.922 -83.3259 -602.673 -186.648C-499.351 -289.971 -361.981 -346.865 -215.988 -346.865C-69.9952 -346.865 67.4487 -289.971 170.698 -186.722C273.946 -83.3996 330.84 53.897 330.84 199.963C330.84 346.03 273.946 483.326 170.698 586.649C67.4487 689.898 -69.9215 746.791 -215.988 746.791V746.865ZM-215.988 -340.158C-513.795 -340.158 -756.11 -97.8441 -756.11 200.037C-756.11 497.918 -513.795 740.232 -215.914 740.232C81.9669 740.232 324.281 497.918 324.281 200.037C324.281 -97.8441 81.8932 -340.158 -215.988 -340.158Z" fill="#F5F5F5"/>
<path d="M-215.988 596.008C-434.351 596.008 -612.033 418.326 -612.033 199.963C-612.033 -18.3995 -434.351 -196.082 -215.988 -196.082C2.37445 -196.082 180.057 -18.3995 180.057 199.963C180.057 418.326 2.37445 596.008 -215.988 596.008ZM-215.988 -189.375C-430.666 -189.375 -605.401 -14.7147 -605.401 200.037C-605.401 414.788 -430.74 589.449 -215.988 589.449C-1.23669 589.449 173.424 414.788 173.424 200.037C173.424 -14.7147 -1.23669 -189.375 -215.988 -189.375Z" fill="#F5F5F5"/>
<path d="M-215.989 578.615C-424.771 578.615 -594.567 408.745 -594.567 199.963C-594.567 -8.81927 -424.697 -178.69 -215.989 -178.69C-7.28009 -178.69 162.664 -8.81927 162.664 199.963C162.664 408.745 -7.20642 578.615 -215.989 578.615ZM-215.989 -167.562C-418.654 -167.562 -583.513 -2.70247 -583.513 199.963C-583.513 402.628 -418.654 567.487 -215.989 567.487C-13.3232 567.487 151.536 402.628 151.536 199.963C151.536 -2.70247 -13.3232 -167.562 -215.989 -167.562Z" fill="#F5F5F5"/>
<path d="M213.663 392.015L204.008 410.513L231.276 424.737L242.036 404.102L250.216 408.376L236.287 435.201L160.675 395.847L174.088 370.127L182.268 374.402L172.098 394.005L195.975 406.46L205.63 387.962L213.736 392.163L213.663 392.015Z" fill="#F5F5F5"/>
<path d="M232.012 335.713C259.648 345.588 270.556 361.359 265.986 374.33C261.196 387.669 241.445 391.206 217.126 382.584C191.627 373.519 178.509 357.6 183.299 344.04C188.237 330.259 208.208 327.237 232.012 335.786V335.713ZM219.336 375.509C236.508 381.625 253.974 381.257 257.659 370.939C261.343 360.548 248.299 349.346 230.096 342.861C214.104 337.187 195.532 336.523 191.7 347.357C187.868 358.19 201.797 369.244 219.41 375.509H219.336Z" fill="#F5F5F5"/>
<path d="M195.312 309.624L244.541 320.899C263.186 325.174 272.251 321.784 273.872 314.782C275.641 307.044 268.64 300.191 250.289 295.99L201.06 284.714L202.608 277.861L251.1 288.915C276.599 294.737 285.148 305.644 282.568 316.993C280.136 327.753 268.492 333.575 242.699 327.679L193.69 316.478L195.238 309.624H195.312Z" fill="#F5F5F5"/>
<path d="M203.934 268.648L204.892 261.795L280.209 272.112L283.305 249.414L292.443 250.666L288.39 280.292L203.86 268.722L203.934 268.648Z" fill="#F5F5F5"/>
<path d="M210.124 202.321L209.977 195.394L251.099 194.73V194.509C247.783 193.109 244.688 191.709 241.887 190.456L209.608 174.611L209.461 165.989L246.014 184.781L294.728 162.967L294.875 171.148L253.31 189.572L262.743 194.509L295.244 193.993L295.391 200.921L210.124 202.395V202.321Z" fill="#F5F5F5"/>
<path d="M245.204 113.002C274.314 109.391 291.191 118.676 292.812 132.237C294.581 146.313 278.441 158.325 252.795 161.494C225.896 164.81 207.03 156.483 205.261 142.186C203.492 127.594 220 116.023 245.131 112.928L245.204 113.002ZM251.69 154.198C269.745 151.987 285.222 143.807 283.895 132.974C282.568 122.067 265.839 117.866 246.604 120.224C229.802 122.288 212.852 130.026 214.325 141.522C215.726 152.945 233.118 156.556 251.763 154.272L251.69 154.198Z" fill="#F5F5F5"/>
<path d="M203.418 112.485C201.502 109.317 199.733 104.6 198.554 99.957C196.859 92.7348 197.817 87.5761 201.649 83.228C204.745 79.6905 209.977 76.8901 216.389 75.3424C227.369 72.6894 235.623 75.3424 239.898 80.059H240.266C241.519 75.4161 246.825 71.5839 255.153 68.2676C266.281 63.7721 274.019 60.6032 276.967 58.7607L278.662 65.7619C276.525 67.1621 269.671 70.0363 259.722 74.0159C248.668 78.2903 245.057 82.1225 246.162 88.3867L247.71 94.7246L283.6 86.0284L285.221 92.8085L203.418 112.559V112.485ZM239.529 96.6407L237.834 89.7133C236.066 82.491 228.696 79.4694 219.263 81.754C208.577 84.3334 205.039 90.3765 206.661 97.5251C207.471 100.768 208.503 102.979 209.24 103.937L239.529 96.6407Z" fill="#F5F5F5"/>
<path d="M226.117 33.0405L232.971 52.7912L262.007 42.6948L254.343 20.7332L263.112 17.7117L273.062 46.2322L192.511 74.2369L183.004 46.8218L191.701 43.8002L198.923 64.6563L224.348 55.8127L217.494 36.0621L226.117 33.0405Z" fill="#F5F5F5"/>
<path d="M229.654 7.54161L256.332 1.20371L259.354 7.68901L174.382 27.4397L170.844 19.8489L240.193 -32.9915L243.362 -26.2851L221.547 -9.70337L229.654 7.54161ZM214.325 -4.76569L194.353 10.4158C189.858 13.8795 185.584 16.7537 181.457 19.5541V19.7015C186.468 18.2276 191.553 16.8274 196.638 15.5745L221.179 9.82621L214.325 -4.8394V-4.76569Z" fill="#F5F5F5"/>
<path d="M46.1503 31.9346C44.8238 27.3654 40.9915 24.1228 36.275 23.6069C35.538 23.6069 34.801 23.6069 34.0641 23.6806L-13.2491 33.1138V7.32C-13.2491 -0.270741 -19.587 -6.38755 -27.3251 -6.38755H-176.487C-178.919 -6.38755 -180.835 -8.22996 -180.835 -10.5882L-180.909 -47.9524C-180.909 -55.5431 -187.246 -61.6599 -194.985 -61.6599H-236.402C-244.14 -61.6599 -250.478 -55.4694 -250.478 -47.9524V-10.7356L-250.552 -10.6619C-250.552 -8.30365 -252.542 -6.46124 -254.9 -6.46124H-404.062C-411.8 -6.46124 -418.138 -0.344452 -418.138 7.24628V33.0401L-465.451 23.6069C-466.188 23.4595 -466.925 23.4595 -467.662 23.5332C-472.378 24.0491 -476.21 27.2917 -477.537 31.8609C-477.758 32.7453 -477.832 33.6296 -477.758 34.514L-435.972 407.271L-434.498 420.757C-432.435 431.959 -425.434 441.982 -414.969 448.32L-231.243 547.22C-226.306 549.21 -221.073 550.242 -215.841 550.242C-210.608 550.242 -205.376 549.21 -200.364 547.22L-16.6391 448.32C-6.17422 441.982 0.900665 431.959 2.89047 420.757L4.36438 407.271L46.1503 34.514C46.224 33.6296 46.1503 32.6716 45.9292 31.8609L46.1503 31.9346ZM-403.767 7.46739H-250.552C-242.593 7.46739 -236.181 1.1295 -236.181 -6.60863V-38.7403C-236.181 -43.6043 -232.275 -47.5839 -227.264 -47.805H-204.197C-199.185 -47.5839 -195.279 -43.678 -195.279 -38.7403V-6.60863C-195.279 1.1295 -188.868 7.46739 -180.909 7.46739H-27.6936V35.9142L-50.171 40.4097V30.387C-50.171 22.5752 -56.6563 16.2373 -64.6892 16.2373H-122.541C-130.5 16.2373 -137.059 22.5752 -137.059 30.387V57.6547L-158.284 61.8554V30.387C-158.284 23.0174 -164.474 16.9742 -172.065 16.9742H-259.543C-267.133 16.9742 -273.324 23.0174 -273.324 30.387V61.8554L-294.549 57.6547V30.387C-294.549 22.5752 -301.034 16.2373 -309.067 16.2373H-366.918C-374.951 16.2373 -381.437 22.5752 -381.437 30.387V40.4097L-403.84 35.9142V7.46739H-403.767ZM-65.2051 43.3576L-121.657 54.5594V30.9766H-65.2051V43.3576ZM-171.844 64.5085L-204.27 70.9201C-205.744 71.2885 -213.114 72.3203 -215.62 72.3203C-218.125 72.3203 -225.421 71.3622 -226.969 70.9201L-259.469 64.5085V30.3133H-171.918V64.5822L-171.844 64.5085ZM-309.656 54.5594L-366.108 43.3576V30.9766H-309.656V54.5594ZM-11.4067 418.325C-12.5121 425.032 -17.4498 432.254 -24.3036 436.16L-206.481 534.25C-208.987 535.208 -212.23 535.724 -215.62 535.724C-219.01 535.724 -222.252 535.208 -224.758 534.25L-406.936 436.16C-413.789 432.254 -418.727 425.032 -419.833 418.325L-461.545 45.9369C-461.545 43.3576 -460.587 39.3043 -452.996 40.9256L-230.359 85.0698C-228.811 85.512 -227.19 85.8067 -225.569 86.0278C-222.326 86.5437 -219.01 86.7648 -215.693 86.7648C-212.377 86.7648 -209.061 86.5437 -205.818 86.0278C-204.197 85.8067 -202.575 85.512 -201.028 85.0698L21.6831 40.9256C29.2738 39.3043 30.3055 43.3576 30.2318 45.9369L-11.4803 418.325H-11.4067Z" fill="#F5F5F5"/>
</g>
<g opacity="0.1">
<path d="M2136.01 776.048C1982.13 776.048 1837.47 716.133 1728.69 607.357C1619.92 498.508 1560 353.841 1560 200.037C1560 46.2322 1619.92 -98.5076 1728.69 -207.357C1837.54 -316.133 1982.21 -376.049 2136.01 -376.049C2289.82 -376.049 2434.56 -316.133 2543.33 -207.357C2652.11 -98.5813 2712.02 46.0849 2712.02 199.963C2712.02 353.841 2652.11 498.508 2543.33 607.284C2434.56 716.059 2289.89 775.975 2136.01 775.975V776.048ZM2136.01 -358.288C1828.18 -358.288 1577.69 -107.867 1577.69 200.037C1577.69 507.941 1828.18 758.361 2136.01 758.361C2443.84 758.361 2694.34 507.941 2694.34 200.037C2694.34 -107.867 2443.92 -358.288 2136.01 -358.288Z" fill="#F5F5F5"/>
<path d="M2136.01 746.865C1989.95 746.865 1852.65 689.971 1749.33 586.723C1646.08 483.4 1589.18 346.03 1589.18 200.037C1589.18 54.0443 1646.08 -83.3259 1749.33 -186.648C1852.65 -289.971 1990.02 -346.865 2136.01 -346.865C2282.01 -346.865 2419.45 -289.971 2522.7 -186.722C2625.95 -83.3996 2682.84 53.897 2682.84 199.963C2682.84 346.03 2625.95 483.326 2522.7 586.649C2419.45 689.898 2282.08 746.791 2136.01 746.791V746.865ZM2136.01 -340.158C1838.21 -340.158 1595.89 -97.8441 1595.89 200.037C1595.89 497.918 1838.21 740.232 2136.09 740.232C2433.97 740.232 2676.28 497.918 2676.28 200.037C2676.28 -97.8441 2433.89 -340.158 2136.01 -340.158Z" fill="#F5F5F5"/>
<path d="M2136.01 596.008C1917.65 596.008 1739.97 418.326 1739.97 199.963C1739.97 -18.3995 1917.65 -196.082 2136.01 -196.082C2354.37 -196.082 2532.06 -18.3995 2532.06 199.963C2532.06 418.326 2354.37 596.008 2136.01 596.008ZM2136.01 -189.375C1921.33 -189.375 1746.6 -14.7147 1746.6 200.037C1746.6 414.788 1921.26 589.449 2136.01 589.449C2350.76 589.449 2525.42 414.788 2525.42 200.037C2525.42 -14.7147 2350.76 -189.375 2136.01 -189.375Z" fill="#F5F5F5"/>
<path d="M2136.01 578.615C1927.23 578.615 1757.43 408.745 1757.43 199.963C1757.43 -8.81927 1927.3 -178.69 2136.01 -178.69C2344.72 -178.69 2514.66 -8.81927 2514.66 199.963C2514.66 408.745 2344.79 578.615 2136.01 578.615ZM2136.01 -167.562C1933.35 -167.562 1768.49 -2.70247 1768.49 199.963C1768.49 402.628 1933.35 567.487 2136.01 567.487C2338.68 567.487 2503.54 402.628 2503.54 199.963C2503.54 -2.70247 2338.68 -167.562 2136.01 -167.562Z" fill="#F5F5F5"/>
<path d="M1758.39 6.36345L1755.66 12.2592L1718.3 -4.9121V-4.69102C1720.66 -2.11164 1722.8 0.394037 1724.86 2.67863L1747.56 30.02L1744.17 37.3897L1718.89 5.70018L1666.05 3.0471L1669.29 -3.95404L1714.25 -1.52207L1707.76 -9.77607L1678.21 -23.3362L1680.94 -29.2319L1758.46 6.36345H1758.39Z" fill="#F5F5F5"/>
<path d="M1658.83 22.1349L1743.87 36.6532L1741.74 43.1385L1698.84 35.3266C1688.31 33.4105 1677.77 31.4207 1669.66 29.652V29.7994C1677.4 33.1894 1686.54 37.906 1696.49 42.9174L1735.25 62.7417L1733.11 69.1533L1690.07 61.4889C1680.05 59.6465 1669.95 57.8041 1661.18 55.6669V55.8142C1669.73 59.7201 1678.28 64.0682 1687.86 68.8585L1726.63 88.6092L1724.56 94.9471L1647.99 54.7825L1650.13 48.2972L1694.27 56.109C1705.11 58.0251 1713.36 59.6465 1721.76 61.71V61.5626C1714.03 58.0988 1706.43 54.414 1696.56 49.1816L1656.62 28.4728L1658.75 21.9875L1658.83 22.1349Z" fill="#F5F5F5"/>
<path d="M1666.79 89.7142L1641.66 78.9545L1643.06 72.3955L1722.87 106.959L1721.25 114.624L1634.29 113.518L1635.76 106.738L1663.1 107.107L1666.86 89.6405L1666.79 89.7142ZM1671.72 107.622L1696.78 107.991C1702.46 107.991 1707.54 108.359 1712.55 108.654V108.507C1707.76 106.738 1702.9 104.822 1698.03 102.758L1674.97 92.7358L1671.8 107.549L1671.72 107.622Z" fill="#F5F5F5"/>
<path d="M1632.3 126.415L1717.05 135.627L1716.31 142.702L1671.65 154.051C1661.33 156.704 1652.05 158.621 1643.13 160.021L1643.28 160.168C1654.63 160.831 1665.02 161.789 1678.21 163.19L1713.66 167.022L1712.99 173.139L1628.17 163.927L1628.91 157.368L1673.64 146.166C1683.44 143.734 1693.46 141.449 1702.97 139.902V139.681C1692.14 138.87 1681.97 137.912 1667.82 136.364L1631.56 132.385L1632.22 126.268L1632.3 126.415Z" fill="#F5F5F5"/>
<path d="M1631.04 219.494C1629.27 216.619 1626.4 210.871 1626.4 204.017C1626.4 196.427 1629.72 190.162 1637.68 185.225C1644.75 180.877 1656.17 178.224 1669.44 178.224C1694.86 178.224 1713.44 188.615 1713.44 205.491C1713.44 211.313 1711.3 215.883 1709.53 218.02L1700.54 216.472C1702.6 213.745 1704.22 210.429 1704.22 205.344C1704.22 193.11 1691.33 185.151 1669.96 185.151C1648.58 185.151 1635.54 192.816 1635.54 204.533C1635.54 208.808 1636.57 211.682 1637.82 213.229H1663.25V202.986H1672.09V219.567H1631.12L1631.04 219.494Z" fill="#F5F5F5"/>
<path d="M1628.98 244.404L1711.96 221.042L1712.85 227.896L1670.76 239.245C1660.37 242.045 1650.06 244.698 1641.95 246.614V246.762C1650.5 246.467 1660.74 246.762 1671.87 247.13L1715.42 248.383L1716.31 255.09L1674.15 266.586C1664.28 269.239 1654.4 271.892 1645.56 273.735V273.882C1654.99 273.735 1664.57 273.956 1675.33 274.177L1718.89 275.356L1719.7 281.989L1633.25 278.525L1632.44 271.819L1675.7 259.954C1686.31 257.006 1694.5 254.942 1702.9 253.173V253.026C1694.35 253.173 1685.95 253.1 1674.74 252.658L1629.79 251.11L1628.91 244.404H1628.98Z" fill="#F5F5F5"/>
<path d="M1691.25 336.303C1662.81 343.673 1645.12 337.408 1641.88 325.027C1638.56 312.131 1653.08 298.718 1678.06 292.233C1704.3 285.379 1723.9 290.537 1727.29 303.582C1730.75 316.847 1715.72 329.965 1691.18 336.377L1691.25 336.303ZM1680.05 298.865C1662.44 303.434 1648.07 313.162 1650.65 323.111C1653.23 333.06 1670.25 334.682 1689.04 329.818C1705.48 325.543 1721.32 316.036 1718.59 305.572C1715.87 295.18 1698.25 294.222 1680.13 298.939L1680.05 298.865Z" fill="#F5F5F5"/>
<path d="M1709.75 385.605C1682.34 396.07 1664.06 391.869 1659.42 379.857C1654.7 367.476 1667.67 352.515 1691.77 343.229C1717.05 333.575 1737.17 336.449 1741.96 349.051C1746.89 361.875 1733.41 376.54 1709.75 385.605ZM1694.5 349.641C1677.47 356.126 1664.35 367.402 1667.97 376.982C1671.65 386.637 1688.75 386.268 1706.8 379.414C1722.65 373.371 1737.31 362.169 1733.48 351.999C1729.65 341.977 1711.96 342.935 1694.5 349.641Z" fill="#F5F5F5"/>
<path d="M1674.67 413.315L1751.02 375.361L1754.19 381.699L1722.72 415.305C1715.43 423.116 1708.65 429.749 1701.94 435.719H1702.09C1712.04 430.191 1721.25 425.475 1733.19 419.505L1765.1 403.661L1767.82 409.114L1691.47 447.068L1688.53 441.172L1720.14 407.64C1727.07 400.27 1734.29 392.901 1741.44 386.563L1741.22 386.416C1731.79 391.574 1722.65 396.217 1709.97 402.555L1677.32 418.768L1674.6 413.315H1674.67Z" fill="#F5F5F5"/>
<path d="M2398.15 31.9346C2396.82 27.3654 2392.99 24.1228 2388.27 23.6069C2387.54 23.6069 2386.8 23.6069 2386.06 23.6806L2338.75 33.1138V7.32C2338.75 -0.270741 2332.41 -6.38755 2324.67 -6.38755H2175.51C2173.08 -6.38755 2171.16 -8.22996 2171.16 -10.5882L2171.09 -47.9524C2171.09 -55.5431 2164.75 -61.6599 2157.01 -61.6599H2115.6C2107.86 -61.6599 2101.52 -55.4694 2101.52 -47.9524V-10.7356L2101.45 -10.6619C2101.45 -8.30365 2099.46 -6.46124 2097.1 -6.46124H1947.94C1940.2 -6.46124 1933.86 -0.344452 1933.86 7.24628V33.0401L1886.55 23.6069C1885.81 23.4595 1885.07 23.4595 1884.34 23.5332C1879.62 24.0491 1875.79 27.2917 1874.46 31.8609C1874.24 32.7453 1874.17 33.6296 1874.24 34.514L1916.03 407.271L1917.5 420.757C1919.56 431.959 1926.57 441.982 1937.03 448.32L2120.76 547.22C2125.69 549.21 2130.93 550.242 2136.16 550.242C2141.39 550.242 2146.62 549.21 2151.64 547.22L2335.36 448.32C2345.83 441.982 2352.9 431.959 2354.89 420.757L2356.36 407.271L2398.15 34.514C2398.22 33.6296 2398.15 32.6716 2397.93 31.8609L2398.15 31.9346ZM1948.23 7.46739H2101.45C2109.41 7.46739 2115.82 1.1295 2115.82 -6.60863V-38.7403C2115.82 -43.6043 2119.72 -47.5839 2124.74 -47.805H2147.8C2152.81 -47.5839 2156.72 -43.678 2156.72 -38.7403V-6.60863C2156.72 1.1295 2163.13 7.46739 2171.09 7.46739H2324.31V35.9142L2301.83 40.4097V30.387C2301.83 22.5752 2295.34 16.2373 2287.31 16.2373H2229.46C2221.5 16.2373 2214.94 22.5752 2214.94 30.387V57.6547L2193.72 61.8554V30.387C2193.72 23.0174 2187.53 16.9742 2179.93 16.9742H2092.46C2084.87 16.9742 2078.68 23.0174 2078.68 30.387V61.8554L2057.45 57.6547V30.387C2057.45 22.5752 2050.97 16.2373 2042.93 16.2373H1985.08C1977.05 16.2373 1970.56 22.5752 1970.56 30.387V40.4097L1948.16 35.9142V7.46739H1948.23ZM2286.79 43.3576L2230.34 54.5594V30.9766H2286.79V43.3576ZM2180.16 64.5085L2147.73 70.9201C2146.26 71.2885 2138.89 72.3203 2136.38 72.3203C2133.87 72.3203 2126.58 71.3622 2125.03 70.9201L2092.53 64.5085V30.3133H2180.08V64.5822L2180.16 64.5085ZM2042.34 54.5594L1985.89 43.3576V30.9766H2042.34V54.5594ZM2340.59 418.325C2339.49 425.032 2334.55 432.254 2327.7 436.16L2145.52 534.25C2143.01 535.208 2139.77 535.724 2136.38 535.724C2132.99 535.724 2129.75 535.208 2127.24 534.25L1945.06 436.16C1938.21 432.254 1933.27 425.032 1932.17 418.325L1890.45 45.9369C1890.45 43.3576 1891.41 39.3043 1899 40.9256L2121.64 85.0698C2123.19 85.512 2124.81 85.8067 2126.43 86.0278C2129.67 86.5437 2132.99 86.7648 2136.31 86.7648C2139.62 86.7648 2142.94 86.5437 2146.18 86.0278C2147.8 85.8067 2149.42 85.512 2150.97 85.0698L2373.68 40.9256C2381.27 39.3043 2382.31 43.3576 2382.23 45.9369L2340.52 418.325H2340.59Z" fill="#F5F5F5"/>
</g>
<path d="M894.675 216.589C894.669 219.336 895.427 221.941 897.683 223.134L896.365 224.912C894.979 224.147 894.09 222.86 893.562 221.276C892.99 223.041 892.021 224.52 890.579 225.378L889.18 223.743C891.579 222.314 892.487 219.461 892.493 216.751V213.991H894.675V216.589ZM897.695 227.883V212.86H899.815V218.858H901.195V212.611H903.339V228.622H901.195V220.654H899.815V227.883H897.695ZM919.126 224.999V226.832H904.495V224.999H910.667V222.581H906.18V217.198H915.223V215.458H906.155V213.655H917.442V218.957H908.417V220.76H917.815V222.581H912.886V224.999H919.126ZM922.073 214.041V217.652H924.254V214.041H926.33V224.825H919.959V214.041H922.073ZM922.073 223.028H924.254V219.411H922.073V223.028ZM927.667 227.883V212.86H929.786V218.727H931.228V212.611H933.372V228.622H931.228V220.555H929.786V227.883H927.667ZM941.813 212.835C945.375 212.841 947.625 213.997 947.631 215.943C947.625 217.845 945.375 218.994 941.813 218.988C938.276 218.994 935.983 217.845 935.989 215.943C935.983 213.997 938.276 212.841 941.813 212.835ZM934.529 221.611V219.815H949.122V221.611H942.919V222.985H947.37V228.442H936.219V222.985H940.688V221.611H934.529ZM938.32 215.943C938.308 216.825 939.582 217.285 941.813 217.279C944.026 217.285 945.319 216.825 945.319 215.943C945.319 215.017 944.026 214.544 941.813 214.55C939.582 214.544 938.308 215.017 938.32 215.943ZM938.426 226.646H945.182V224.762H938.426V226.646ZM963.039 212.611V228.66H960.82V220.07H958.011V218.273H960.82V212.611H963.039ZM950.272 225.03V213.96H957.756V215.769H952.516V218.423H957.172V220.182H952.516V223.202C954.735 223.184 956.506 223.103 958.495 222.792L958.719 224.588C956.382 224.943 954.288 225.023 951.547 225.03H950.272ZM981.558 212.636V224.315H979.308V212.636H981.558ZM968.108 220.362C970.799 219.461 971.962 217.235 971.968 215.054V213.512H974.292V215.054C974.28 217.18 975.417 219.249 978.047 220.088L976.903 221.854C975.094 221.251 973.851 220.057 973.143 218.528C972.428 220.175 971.147 221.493 969.277 222.133L968.108 220.362ZM970.837 228.343V223.177H973.105V226.534H981.981V228.343H970.837ZM992.299 214.289V216.055H989.079C989.098 217.695 990.304 219.361 992.877 220.026L991.826 221.754C990.005 221.288 988.731 220.281 987.998 218.982C987.302 220.461 986.021 221.63 984.125 222.171L983.075 220.418C985.636 219.684 986.823 217.869 986.842 216.055H983.622V214.289H986.842V212.555H989.104V214.289H992.299ZM985.704 225.564C985.698 223.644 987.805 222.562 991.199 222.562C994.605 222.562 996.706 223.644 996.712 225.564C996.706 227.497 994.605 228.622 991.199 228.616C987.805 228.622 985.698 227.497 985.704 225.564ZM987.935 225.564C987.929 226.441 989.079 226.907 991.199 226.913C993.362 226.907 994.48 226.441 994.487 225.564C994.48 224.706 993.362 224.271 991.199 224.278C989.079 224.271 987.929 224.706 987.935 225.564ZM991.826 218.709V216.912H994.431V212.611H996.668V222.295H994.431V218.709H991.826ZM1016.44 224.936V226.758H1001.81V224.936H1007.99V221.369H1010.24V224.936H1016.44ZM1002.4 220.306C1005.72 219.771 1007.7 217.77 1007.9 215.651H1003.03V213.836H1015.16V215.651H1010.29C1010.48 217.764 1012.48 219.709 1015.91 220.213L1015.02 221.984C1012.22 221.493 1010.14 220.126 1009.11 218.23C1008.1 220.163 1006.04 221.574 1003.29 222.077L1002.4 220.306ZM1030.27 212.611V228.622H1028.04V212.611H1030.27ZM1016.9 224.104C1018.12 224.097 1019.51 224.091 1020.97 224.06V222.705C1019.22 222.388 1018.08 221.294 1018.08 219.802C1018.08 218.006 1019.71 216.788 1022.06 216.788C1024.44 216.788 1026.09 218.006 1026.09 219.802C1026.09 221.288 1024.95 222.376 1023.2 222.699V223.979C1024.54 223.911 1025.88 223.805 1027.16 223.631L1027.31 225.297C1023.81 225.9 1020.04 225.931 1017.19 225.931L1016.9 224.104ZM1017.21 216.16V214.401H1020.97V212.692H1023.21V214.401H1026.93V216.16H1017.21ZM1020.22 219.802C1020.21 220.642 1020.97 221.095 1022.06 221.095C1023.19 221.095 1023.95 220.642 1023.95 219.802C1023.95 218.97 1023.19 218.497 1022.06 218.497C1020.97 218.497 1020.21 218.97 1020.22 219.802Z" fill="#F5F5F5"/>
<path d="M787.007 239.953V252.135H785.927V239.953H787.007ZM780.541 240.896C782.345 240.91 783.644 242.551 783.644 245.135C783.644 247.719 782.345 249.359 780.541 249.359C778.722 249.359 777.437 247.719 777.437 245.135C777.437 242.551 778.722 240.91 780.541 240.896ZM780.541 241.854C779.324 241.867 778.476 243.152 778.476 245.135C778.476 247.117 779.324 248.402 780.541 248.402C781.757 248.402 782.605 247.117 782.605 245.135C782.605 243.152 781.757 241.867 780.541 241.854ZM799.781 246.229V247.117H788.652V246.229H799.781ZM798.345 240.254V243.125H791.167V244.342H798.605V245.176H790.101V242.318H797.265V241.115H790.06V240.254H798.345ZM798.345 248.225V251.943H790.169V248.225H798.345ZM791.222 249.1V251.068H797.292V249.1H791.222ZM807.085 241.307V241.936C807.072 242.893 807.072 244.506 806.73 246.762L805.65 246.666C805.978 244.629 806.005 243.152 806.005 242.182H800.906V241.307H807.085ZM803.9 244.779V248.471C805.246 248.423 806.627 248.334 807.892 248.184L807.947 248.99C805.39 249.387 802.533 249.441 800.359 249.428L800.222 248.539C801.022 248.532 801.91 248.525 802.847 248.498V244.779H803.9ZM809.724 239.953V245.039H811.693V245.969H809.724V252.107H808.658V239.953H809.724ZM818.741 242.373C818.741 243.713 819.685 245.08 821.243 245.668L820.683 246.488C819.514 246.037 818.673 245.169 818.236 244.123C817.784 245.285 816.916 246.317 815.72 246.83L815.132 245.996C816.732 245.299 817.716 243.727 817.716 242.373V240.719H818.741V242.373ZM825.441 239.967V247.473H824.415V244.123H822.802V247.09H821.79V240.199H822.802V243.234H824.415V239.967H825.441ZM821.421 247.746C823.937 247.746 825.509 248.539 825.509 249.92C825.509 251.287 823.937 252.08 821.421 252.08C818.892 252.08 817.333 251.287 817.347 249.92C817.333 248.539 818.892 247.746 821.421 247.746ZM821.421 248.566C819.562 248.566 818.4 249.072 818.413 249.92C818.4 250.754 819.562 251.246 821.421 251.246C823.267 251.246 824.429 250.754 824.443 249.92C824.429 249.072 823.267 248.566 821.421 248.566ZM836.874 239.967V248.963H835.794V244.752H832.294V243.891H835.794V242.428H832.294V241.566H835.794V239.967H836.874ZM837.202 250.945V251.848H829.04V248.197H830.12V250.945H837.202ZM828.603 240.842V246.242C830.277 246.235 831.891 246.146 833.743 245.805L833.853 246.693C831.87 247.062 830.216 247.145 828.439 247.158H827.523V240.842H828.603ZM848.499 239.967V247.131H847.419V246.461H844.958V245.75H847.419V239.967H848.499ZM838.437 244.547C840.788 244.561 843.796 244.533 846.421 244.246L846.489 244.943C845.3 245.114 844.062 245.217 842.853 245.271V247.172H841.8V245.312C840.651 245.354 839.551 245.36 838.56 245.354L838.437 244.547ZM848.499 247.568V250.084H841.403V251.178H848.896V251.971H840.351V249.332H847.433V248.348H840.296V247.568H848.499ZM842.401 240.199C844.206 240.199 845.409 240.91 845.423 242.031C845.409 243.166 844.206 243.85 842.401 243.85C840.569 243.85 839.38 243.166 839.38 242.031C839.38 240.91 840.569 240.199 842.401 240.199ZM842.401 240.951C841.171 240.951 840.378 241.375 840.392 242.031C840.378 242.674 841.171 243.111 842.401 243.111C843.618 243.111 844.411 242.674 844.411 242.031C844.411 241.375 843.618 240.951 842.401 240.951ZM853.602 240.404C855.421 240.418 856.747 241.512 856.747 243.098C856.747 244.684 855.421 245.777 853.602 245.777C851.757 245.777 850.444 244.684 850.444 243.098C850.444 241.512 851.757 240.418 853.602 240.404ZM853.602 241.307C852.386 241.307 851.483 242.045 851.497 243.098C851.483 244.164 852.386 244.902 853.602 244.902C854.806 244.902 855.708 244.164 855.708 243.098C855.708 242.045 854.806 241.307 853.602 241.307ZM860.192 239.953V246.201H859.126V239.953H860.192ZM860.192 246.789V249.715H853.37V251.082H860.63V251.943H852.317V248.908H859.126V247.65H852.29V246.789H860.192ZM871.274 240.746V245.695H865.573V240.746H871.274ZM866.626 241.621V244.848H870.221V241.621H866.626ZM874.952 239.953V246.939H873.899V239.953H874.952ZM871.657 248.607C871.657 249.797 873.598 250.973 875.69 251.232L875.321 252.066C873.489 251.82 871.821 250.959 871.11 249.824C870.372 250.979 868.663 251.82 866.831 252.066L866.448 251.232C868.54 251 870.55 249.824 870.55 248.607H866.954V247.773H870.563V246.584H871.63V247.773H875.266V248.607H871.657ZM886.977 241.266V242.141H879.731V241.266H882.821V239.898H883.887V241.266H886.977ZM883.354 242.77C885.104 242.783 886.266 243.631 886.28 244.971C886.266 246.297 885.104 247.158 883.354 247.158C881.604 247.158 880.415 246.297 880.428 244.971C880.415 243.631 881.604 242.783 883.354 242.77ZM883.354 243.604C882.206 243.617 881.44 244.15 881.454 244.971C881.44 245.777 882.206 246.297 883.354 246.297C884.489 246.297 885.254 245.777 885.268 244.971C885.254 244.15 884.489 243.617 883.354 243.604ZM889.206 239.953V243.33H891.038V244.232H889.206V247.555H888.139V239.953H889.206ZM889.206 248.225V252.107H888.139V249.1H881.249V248.225H889.206ZM901.46 239.967V248.963H900.379V244.287H897.508V246.885H891.999V240.773H893.065V242.934H896.456V240.773H897.508V243.385H900.379V239.967H901.46ZM901.733 250.945V251.848H893.598V248.074H894.678V250.945H901.733ZM893.065 245.996H896.456V243.781H893.065V245.996ZM908.6 240.172C911.307 240.172 912.893 240.91 912.893 242.264C912.893 243.645 911.307 244.383 908.6 244.396C905.893 244.383 904.293 243.645 904.293 242.264C904.293 240.91 905.893 240.172 908.6 240.172ZM908.6 240.979C906.577 240.979 905.401 241.471 905.414 242.264C905.401 243.111 906.577 243.576 908.6 243.576C910.61 243.576 911.799 243.111 911.799 242.264C911.799 241.471 910.61 240.979 908.6 240.979ZM914.137 245.217V246.092H903.063V245.217H914.137ZM912.715 247.145V249.865H905.497V251.123H913.084V251.971H904.43V249.072H911.663V247.965H904.403V247.145H912.715ZM927.871 239.953V246.475H926.805V239.953H927.871ZM921.063 247.09V248.566H926.805V247.09H927.871V251.943H919.996V247.09H921.063ZM921.063 251.068H926.805V249.428H921.063V251.068ZM921.309 240.555C923.155 240.541 924.494 241.676 924.494 243.344C924.494 244.998 923.155 246.133 921.309 246.133C919.463 246.133 918.123 244.998 918.123 243.344C918.123 241.676 919.463 240.541 921.309 240.555ZM921.309 241.457C920.065 241.443 919.162 242.236 919.176 243.344C919.162 244.451 920.065 245.244 921.309 245.244C922.539 245.244 923.442 244.451 923.442 243.344C923.442 242.236 922.539 241.443 921.309 241.457ZM935.285 240.705V244.109H931.102V245.996C933.385 245.996 934.561 245.962 935.996 245.695L936.106 246.584C934.588 246.83 933.358 246.871 930.897 246.871H930.035V243.289H934.219V241.566H930.008V240.705H935.285ZM939.592 239.967V247.432H938.512V245.176H936.092V244.287H938.512V242.646H936.092V241.771H938.512V239.967H939.592ZM939.592 248.088V252.135H938.512V248.963H931.403V248.088H939.592ZM947.266 242.059V242.934H941.168V242.059H943.697V240.322H944.764V242.059H947.266ZM944.217 243.754C945.748 243.754 946.842 244.902 946.856 246.516C946.842 248.143 945.748 249.305 944.217 249.305C942.699 249.305 941.606 248.143 941.606 246.516C941.606 244.902 942.699 243.754 944.217 243.754ZM944.217 244.656C943.26 244.67 942.563 245.449 942.563 246.516C942.563 247.596 943.26 248.375 944.217 248.361C945.188 248.375 945.899 247.596 945.899 246.516C945.899 245.449 945.188 244.67 944.217 244.656ZM951.545 239.953V252.107H950.52V245.969H948.906V251.506H947.895V240.254H948.906V245.08H950.52V239.953H951.545ZM959.605 243.385C959.605 245.381 960.576 247.445 962.189 248.32L961.547 249.168C960.371 248.491 959.53 247.254 959.1 245.791C958.642 247.384 957.739 248.744 956.529 249.469L955.832 248.676C957.527 247.705 958.566 245.531 958.566 243.453V241.102H959.605V243.385ZM966.387 239.953V252.107H965.348V245.736H963.68V251.492H962.641V240.213H963.68V244.848H965.348V239.953H966.387ZM978.777 249.701V250.604H967.648V249.701H972.652V247.404H969.043V243.658H976.316V241.744H969.016V240.855H977.369V244.533H970.109V246.516H977.656V247.404H973.705V249.701H978.777ZM980.804 241.115V244.082H983.443V241.115H984.441V249.072H979.779V241.115H980.804ZM980.804 248.184H983.443V244.957H980.804V248.184ZM989.746 239.953V252.107H988.707V245.668H987.012V251.492H985.986V240.213H987.012V244.779H988.707V239.953H989.746ZM996.545 240.186C999.183 240.186 1000.84 241.033 1000.84 242.482C1000.84 243.904 999.183 244.738 996.545 244.738C993.906 244.738 992.238 243.904 992.238 242.482C992.238 241.033 993.906 240.186 996.545 240.186ZM996.545 241.033C994.576 241.033 993.332 241.566 993.345 242.482C993.332 243.371 994.576 243.891 996.545 243.891C998.486 243.891 999.744 243.371 999.744 242.482C999.744 241.566 998.486 241.033 996.545 241.033ZM1000.73 247.951V251.943H992.361V247.951H996.011V246.557H991.008V245.668H1002.08V246.557H997.064V247.951H1000.73ZM993.427 248.812V251.068H999.676V248.812H993.427ZM1012.76 239.953V252.135H1011.7V245.436H1009.13V244.547H1011.7V239.953H1012.76ZM1008.92 241.074V241.963H1004.33V244.492H1008.39V245.367H1004.33V248.307C1006.56 248.307 1007.98 248.231 1009.66 247.938L1009.78 248.826C1008.02 249.113 1006.53 249.195 1004.18 249.195H1003.25V241.074H1008.92ZM1027.5 239.967V248.881H1026.43V239.967H1027.5ZM1027.88 250.945V251.848H1019.65V248.061H1020.71V250.945H1027.88ZM1021.77 241.867C1021.75 243.713 1023.02 245.381 1024.83 246.037L1024.27 246.898C1022.86 246.358 1021.77 245.265 1021.23 243.863C1020.69 245.354 1019.59 246.55 1018.17 247.117L1017.58 246.283C1019.43 245.572 1020.67 243.781 1020.67 241.867V240.65H1021.77V241.867ZM1033.28 242.564C1033.28 244.082 1034.6 245.436 1036.39 245.969L1035.87 246.803C1034.46 246.386 1033.33 245.463 1032.79 244.26C1032.26 245.593 1031.15 246.639 1029.7 247.117L1029.18 246.297C1030.97 245.695 1032.23 244.219 1032.23 242.564V242.305H1029.48V241.443H1032.23V239.898H1033.31V241.443H1036.03V242.305H1033.28V242.564ZM1039.22 239.953V247.322H1038.14V244.328H1035.65V243.439H1038.14V239.953H1039.22ZM1035.18 247.65C1037.71 247.65 1039.26 248.443 1039.26 249.865C1039.26 251.273 1037.71 252.08 1035.18 252.08C1032.65 252.08 1031.11 251.273 1031.11 249.865C1031.11 248.443 1032.65 247.65 1035.18 247.65ZM1035.18 248.484C1033.32 248.498 1032.16 249.004 1032.18 249.865C1032.16 250.713 1033.32 251.232 1035.18 251.232C1037.06 251.232 1038.19 250.713 1038.19 249.865C1038.19 249.004 1037.06 248.498 1035.18 248.484ZM1055.04 249.646V250.549H1043.91V249.646H1048.93V246.693H1050.01V249.646H1055.04ZM1050.01 242.264C1050.01 244.205 1052.42 245.873 1054.51 246.215L1054.07 247.062C1052.21 246.7 1050.25 245.518 1049.48 243.822C1048.69 245.524 1046.74 246.734 1044.91 247.117L1044.46 246.256C1046.51 245.9 1048.9 244.205 1048.9 242.264V241.963H1044.83V241.061H1054.09V241.963H1050.01V242.264ZM1065.56 239.953V252.107H1064.49V239.953H1065.56ZM1055.66 248.867C1056.7 248.86 1057.89 248.854 1059.12 248.812V247.486C1057.66 247.329 1056.71 246.502 1056.73 245.285C1056.71 243.918 1057.89 243.029 1059.64 243.029C1061.39 243.029 1062.58 243.918 1062.58 245.285C1062.58 246.488 1061.64 247.315 1060.2 247.473V248.771C1061.38 248.724 1062.57 248.635 1063.69 248.484L1063.77 249.305C1061.06 249.742 1058.08 249.783 1055.83 249.783L1055.66 248.867ZM1063.37 241.457V242.332H1055.92V241.457H1059.12V239.967H1060.2V241.457H1063.37ZM1059.64 243.863C1058.52 243.863 1057.73 244.438 1057.73 245.285C1057.73 246.133 1058.52 246.68 1059.64 246.666C1060.77 246.68 1061.55 246.133 1061.55 245.285C1061.55 244.438 1060.77 243.863 1059.64 243.863ZM1076.68 239.953V244.902H1078.65V245.805H1076.68V252.107H1075.61V239.953H1076.68ZM1073.53 241.266C1073.53 244.711 1071.92 247.842 1067.96 249.797L1067.35 248.949C1070.5 247.384 1072.21 245.046 1072.45 242.168H1067.92V241.266H1073.53ZM1091.45 239.953V244.902H1093.42V245.805H1091.45V252.107H1090.39V239.953H1091.45ZM1088.31 241.266C1088.31 244.711 1086.69 247.842 1082.73 249.797L1082.13 248.949C1085.27 247.384 1086.98 245.046 1087.23 242.168H1082.69V241.266H1088.31ZM1103.54 243.357V244.246H1095.24V240.199H1096.31V243.357H1103.54ZM1104.81 245.668V246.557H1093.73V245.668H1104.81ZM1099.26 247.65C1101.87 247.65 1103.43 248.443 1103.45 249.852C1103.43 251.26 1101.87 252.053 1099.26 252.053C1096.64 252.053 1095.07 251.26 1095.07 249.852C1095.07 248.443 1096.64 247.65 1099.26 247.65ZM1099.26 248.498C1097.31 248.512 1096.15 248.99 1096.16 249.852C1096.15 250.699 1097.31 251.219 1099.26 251.219C1101.19 251.219 1102.37 250.699 1102.37 249.852C1102.37 248.99 1101.19 248.512 1099.26 248.498ZM1114.91 239.953V243.07H1116.74V243.986H1114.91V247.021H1113.84V239.953H1114.91ZM1108.29 247.555V248.854H1113.84V247.555H1114.91V251.943H1107.22V247.555H1108.29ZM1108.29 251.082H1113.84V249.701H1108.29V251.082ZM1112.68 241.211V242.1H1105.43V241.211H1108.52V239.844H1109.59V241.211H1112.68ZM1109.06 242.66C1110.81 242.66 1111.97 243.494 1111.98 244.793C1111.97 246.092 1110.81 246.926 1109.06 246.926C1107.29 246.926 1106.12 246.092 1106.13 244.793C1106.12 243.494 1107.29 242.66 1109.06 242.66ZM1109.06 243.494C1107.91 243.48 1107.14 244.014 1107.16 244.793C1107.14 245.586 1107.91 246.105 1109.06 246.105C1110.19 246.105 1110.96 245.586 1110.97 244.793C1110.96 244.014 1110.19 243.48 1109.06 243.494ZM1127.11 239.953V252.107H1126.04V239.953H1127.11ZM1118.93 241.156V248.047C1120.78 248.04 1122.7 247.89 1124.74 247.459L1124.89 248.375C1122.73 248.826 1120.8 248.977 1118.86 248.977H1117.88V241.156H1118.93ZM1138.17 239.953V244.766H1140.21V245.668H1138.17V252.135H1137.1V239.953H1138.17ZM1134.97 241.143V242.031H1130.36V248.184C1132.57 248.184 1134.12 248.081 1135.93 247.746L1136.07 248.676C1134.16 249.018 1132.57 249.086 1130.25 249.086H1129.3V241.143H1134.97ZM1141.73 251.082C1141.25 251.082 1140.84 250.686 1140.85 250.193C1140.84 249.715 1141.25 249.318 1141.73 249.318C1142.21 249.318 1142.6 249.715 1142.6 250.193C1142.6 250.686 1142.21 251.082 1141.73 251.082ZM739.955 256.967V265.881H738.889V256.967H739.955ZM740.338 267.945V268.848H732.107V265.061H733.174V267.945H740.338ZM734.226 258.867C734.213 260.713 735.484 262.381 737.289 263.037L736.728 263.898C735.32 263.358 734.226 262.265 733.693 260.863C733.153 262.354 732.046 263.55 730.631 264.117L730.043 263.283C731.889 262.572 733.133 260.781 733.133 258.867V257.65H734.226V258.867ZM745.742 259.564C745.742 261.082 747.055 262.436 748.846 262.969L748.326 263.803C746.918 263.386 745.79 262.463 745.25 261.26C744.717 262.593 743.609 263.639 742.16 264.117L741.64 263.297C743.431 262.695 744.689 261.219 744.689 259.564V259.305H741.941V258.443H744.689V256.898H745.769V258.443H748.49V259.305H745.742V259.564ZM751.676 256.953V264.322H750.596V261.328H748.107V260.439H750.596V256.953H751.676ZM747.642 264.65C750.172 264.65 751.717 265.443 751.717 266.865C751.717 268.273 750.172 269.08 747.642 269.08C745.113 269.08 743.568 268.273 743.568 266.865C743.568 265.443 745.113 264.65 747.642 264.65ZM747.642 265.484C745.783 265.498 744.621 266.004 744.635 266.865C744.621 267.713 745.783 268.232 747.642 268.232C749.515 268.232 750.65 267.713 750.65 266.865C750.65 266.004 749.515 265.498 747.642 265.484ZM767.447 263.092V263.967H756.373V263.092H761.363V261.684H757.453V260.795H759.285V258.238H757.412V257.35H766.394V258.238H764.521V260.795H766.353V261.684H762.429V263.092H767.447ZM766.093 265.143V268.943H757.726V265.143H766.093ZM758.793 265.977V268.068H765.041V265.977H758.793ZM760.351 260.795H763.455V258.238H760.351V260.795ZM778.47 256.953V269.107H777.431V256.953H778.47ZM776.023 257.213V268.492H774.998V262.586H773.439C773.323 264.951 772.318 266.428 770.814 266.428C769.228 266.428 768.203 264.787 768.203 262.203C768.203 259.619 769.228 257.979 770.814 257.979C772.291 257.979 773.289 259.407 773.425 261.697H774.998V257.213H776.023ZM770.814 258.99C769.83 258.99 769.201 260.221 769.214 262.203C769.201 264.172 769.83 265.416 770.814 265.402C771.798 265.416 772.427 264.172 772.427 262.203C772.427 260.221 771.798 258.99 770.814 258.99ZM792.874 256.953V269.107H791.794V256.953H792.874ZM789.279 258.279C789.265 261.779 787.638 264.869 783.564 266.824L782.976 265.949C786.264 264.391 787.939 262.06 788.185 259.154H783.537V258.279H789.279ZM804.54 256.953V263.475H803.474V256.953H804.54ZM797.732 264.09V265.566H803.474V264.09H804.54V268.943H796.665V264.09H797.732ZM797.732 268.068H803.474V266.428H797.732V268.068ZM797.978 257.555C799.824 257.541 801.163 258.676 801.163 260.344C801.163 261.998 799.824 263.133 797.978 263.133C796.132 263.133 794.792 261.998 794.792 260.344C794.792 258.676 796.132 257.541 797.978 257.555ZM797.978 258.457C796.734 258.443 795.831 259.236 795.845 260.344C795.831 261.451 796.734 262.244 797.978 262.244C799.208 262.244 800.111 261.451 800.111 260.344C800.111 259.236 799.208 258.443 797.978 258.457ZM815.687 256.967V260.973H817.519V261.875H815.687V266.072H814.62V256.967H815.687ZM813.458 258.457V259.332H806.212V258.457H809.302V256.967H810.368V258.457H813.458ZM809.835 260.002C811.572 260.002 812.747 260.891 812.761 262.271C812.747 263.639 811.572 264.514 809.835 264.514C808.085 264.514 806.896 263.639 806.909 262.271C806.896 260.891 808.085 260.002 809.835 260.002ZM809.835 260.85C808.687 260.85 807.921 261.41 807.935 262.271C807.921 263.133 808.687 263.68 809.835 263.666C810.97 263.68 811.736 263.133 811.749 262.271C811.736 261.41 810.97 260.85 809.835 260.85ZM816.247 267.945V268.848H808.085V265.348H809.138V267.945H816.247ZM830.98 256.953V269.135H829.9V256.953H830.98ZM824.513 257.896C826.318 257.91 827.616 259.551 827.616 262.135C827.616 264.719 826.318 266.359 824.513 266.359C822.694 266.359 821.409 264.719 821.409 262.135C821.409 259.551 822.694 257.91 824.513 257.896ZM824.513 258.854C823.296 258.867 822.448 260.152 822.448 262.135C822.448 264.117 823.296 265.402 824.513 265.402C825.73 265.402 826.577 264.117 826.577 262.135C826.577 260.152 825.73 258.867 824.513 258.854ZM843.753 263.229V264.117H832.624V263.229H843.753ZM842.317 257.254V260.125H835.14V261.342H842.577V262.176H834.073V259.318H841.237V258.115H834.032V257.254H842.317ZM842.317 265.225V268.943H834.142V265.225H842.317ZM835.194 266.1V268.068H841.265V266.1H835.194ZM851.058 258.307V258.936C851.044 259.893 851.044 261.506 850.702 263.762L849.622 263.666C849.95 261.629 849.978 260.152 849.978 259.182H844.878V258.307H851.058ZM847.872 261.779V265.471C849.219 265.423 850.6 265.334 851.864 265.184L851.919 265.99C849.362 266.387 846.505 266.441 844.331 266.428L844.194 265.539C844.994 265.532 845.883 265.525 846.819 265.498V261.779H847.872ZM853.696 256.953V262.039H855.665V262.969H853.696V269.107H852.63V256.953H853.696ZM869.126 256.953V263.475H868.059V256.953H869.126ZM862.317 264.09V265.566H868.059V264.09H869.126V268.943H861.251V264.09H862.317ZM862.317 268.068H868.059V266.428H862.317V268.068ZM862.563 257.555C864.409 257.541 865.749 258.676 865.749 260.344C865.749 261.998 864.409 263.133 862.563 263.133C860.718 263.133 859.378 261.998 859.378 260.344C859.378 258.676 860.718 257.541 862.563 257.555ZM862.563 258.457C861.319 258.443 860.417 259.236 860.43 260.344C860.417 261.451 861.319 262.244 862.563 262.244C863.794 262.244 864.696 261.451 864.696 260.344C864.696 259.236 863.794 258.443 862.563 258.457ZM880.436 257.609V258.512C880.436 259.455 880.436 260.562 880.122 262.08H881.899V262.969H870.77V262.08H879.042C879.37 260.556 879.37 259.455 879.37 258.512V258.498H872.178V257.609H880.436ZM880.491 264.65V268.943H872.137V264.65H880.491ZM873.204 265.498V268.068H879.425V265.498H873.204ZM886.565 260.686C886.551 262.641 887.96 264.787 889.723 265.621L889.108 266.469C887.741 265.806 886.586 264.356 886.046 262.709C885.485 264.5 884.261 266.072 882.901 266.77L882.245 265.922C883.995 265.074 885.499 262.764 885.512 260.686V259.1H882.682V258.211H889.299V259.1H886.565V260.686ZM891.856 256.953V261.875H893.893V262.791H891.856V269.107H890.79V256.953H891.856ZM904.206 256.953V264.158H903.126V262.244H900.282V263.283H894.704V257.883H900.282V258.936H903.126V256.953H904.206ZM895.77 258.758V262.408H899.229V258.758H895.77ZM900.172 264.514C902.702 264.514 904.247 265.348 904.247 266.811C904.247 268.26 902.702 269.08 900.172 269.08C897.643 269.08 896.098 268.26 896.098 266.811C896.098 265.348 897.643 264.514 900.172 264.514ZM900.172 265.348C898.313 265.361 897.151 265.895 897.165 266.811C897.151 267.686 898.313 268.232 900.172 268.232C902.032 268.232 903.18 267.686 903.18 266.811C903.18 265.895 902.032 265.361 900.172 265.348ZM900.282 261.342H903.126V259.824H900.282V261.342ZM916.227 256.953V269.107H915.188V256.953H916.227ZM913.78 257.213V268.492H912.754V262.586H911.196C911.08 264.951 910.075 266.428 908.571 266.428C906.985 266.428 905.959 264.787 905.959 262.203C905.959 259.619 906.985 257.979 908.571 257.979C910.047 257.979 911.045 259.407 911.182 261.697H912.754V257.213H913.78ZM908.571 258.99C907.586 258.99 906.958 260.221 906.971 262.203C906.958 264.172 907.586 265.416 908.571 265.402C909.555 265.416 910.184 264.172 910.184 262.203C910.184 260.221 909.555 258.99 908.571 258.99ZM930.631 256.953V269.107H929.551V256.953H930.631ZM927.035 258.279C927.022 261.779 925.395 264.869 921.321 266.824L920.733 265.949C924.021 264.391 925.696 262.06 925.942 259.154H921.293V258.279H927.035ZM942.297 256.953V263.475H941.231V256.953H942.297ZM935.489 264.09V265.566H941.231V264.09H942.297V268.943H934.422V264.09H935.489ZM935.489 268.068H941.231V266.428H935.489V268.068ZM935.735 257.555C937.58 257.541 938.92 258.676 938.92 260.344C938.92 261.998 937.58 263.133 935.735 263.133C933.889 263.133 932.549 261.998 932.549 260.344C932.549 258.676 933.889 257.541 935.735 257.555ZM935.735 258.457C934.49 258.443 933.588 259.236 933.602 260.344C933.588 261.451 934.49 262.244 935.735 262.244C936.965 262.244 937.867 261.451 937.867 260.344C937.867 259.236 936.965 258.443 935.735 258.457ZM953.444 256.967V260.973H955.276V261.875H953.444V266.072H952.377V256.967H953.444ZM951.215 258.457V259.332H943.969V258.457H947.059V256.967H948.125V258.457H951.215ZM947.592 260.002C949.328 260.002 950.504 260.891 950.518 262.271C950.504 263.639 949.328 264.514 947.592 264.514C945.842 264.514 944.652 263.639 944.666 262.271C944.652 260.891 945.842 260.002 947.592 260.002ZM947.592 260.85C946.444 260.85 945.678 261.41 945.692 262.271C945.678 263.133 946.444 263.68 947.592 263.666C948.727 263.68 949.492 263.133 949.506 262.271C949.492 261.41 948.727 260.85 947.592 260.85ZM954.004 267.945V268.848H945.842V265.348H946.895V267.945H954.004ZM968.736 256.953V269.135H967.656V256.953H968.736ZM962.27 257.896C964.074 257.91 965.373 259.551 965.373 262.135C965.373 264.719 964.074 266.359 962.27 266.359C960.451 266.359 959.166 264.719 959.166 262.135C959.166 259.551 960.451 257.91 962.27 257.896ZM962.27 258.854C961.053 258.867 960.205 260.152 960.205 262.135C960.205 264.117 961.053 265.402 962.27 265.402C963.486 265.402 964.334 264.117 964.334 262.135C964.334 260.152 963.486 258.867 962.27 258.854ZM981.51 263.229V264.117H970.381V263.229H981.51ZM980.074 257.254V260.125H972.896V261.342H980.334V262.176H971.83V259.318H978.994V258.115H971.789V257.254H980.074ZM980.074 265.225V268.943H971.898V265.225H980.074ZM972.951 266.1V268.068H979.021V266.1H972.951ZM992.096 256.953V269.135H991.015V256.953H992.096ZM985.629 257.896C987.433 257.91 988.732 259.551 988.732 262.135C988.732 264.719 987.433 266.359 985.629 266.359C983.81 266.359 982.525 264.719 982.525 262.135C982.525 259.551 983.81 257.91 985.629 257.896ZM985.629 258.854C984.412 258.867 983.564 260.152 983.564 262.135C983.564 264.117 984.412 265.402 985.629 265.402C986.846 265.402 987.693 264.117 987.693 262.135C987.693 260.152 986.846 258.867 985.629 258.854ZM1006.25 256.953V261.766H1008.29V262.668H1006.25V269.135H1005.19V256.953H1006.25ZM1003.05 258.143V259.031H998.447V265.184C1000.65 265.184 1002.21 265.081 1004.01 264.746L1004.15 265.676C1002.25 266.018 1000.65 266.086 998.338 266.086H997.381V258.143H1003.05ZM1019.64 262.6V263.447H1008.51V262.6H1019.64ZM1018.25 264.418V267.002H1010.95V268.164H1018.64V268.943H1009.87V266.264H1017.18V265.225H1009.85V264.418H1018.25ZM1018.21 257.322V259.838H1011.03V260.904H1018.43V261.684H1009.96V259.1H1017.13V258.102H1009.92V257.322H1018.21ZM1033.38 256.967V264.268H1032.3V262.627H1029.07V261.738H1032.3V260.098H1029.19C1028.39 262.053 1026.51 263.468 1023.92 264.24L1023.46 263.393C1026.4 262.518 1028.23 260.877 1028.45 258.771H1024.08V257.869H1029.62C1029.62 258.348 1029.56 258.806 1029.47 259.236H1032.3V256.967H1033.38ZM1029.4 264.391C1031.86 264.391 1033.44 265.266 1033.44 266.715C1033.44 268.178 1031.86 269.053 1029.4 269.053C1026.91 269.053 1025.34 268.178 1025.34 266.715C1025.34 265.266 1026.91 264.391 1029.4 264.391ZM1029.4 265.252C1027.57 265.238 1026.39 265.799 1026.39 266.715C1026.39 267.631 1027.57 268.178 1029.4 268.178C1031.2 268.178 1032.36 267.631 1032.38 266.715C1032.36 265.799 1031.2 265.238 1029.4 265.252ZM1046.1 263.926V264.828H1041.02V269.107H1039.97V264.828H1034.97V263.926H1046.1ZM1040.5 257.445C1043.06 257.445 1044.78 258.471 1044.78 260.125C1044.78 261.738 1043.06 262.764 1040.5 262.764C1037.95 262.764 1036.22 261.738 1036.22 260.125C1036.22 258.471 1037.95 257.445 1040.5 257.445ZM1040.5 258.32C1038.6 258.32 1037.32 259.031 1037.33 260.125C1037.32 261.205 1038.6 261.902 1040.5 261.902C1042.39 261.902 1043.69 261.205 1043.69 260.125C1043.69 259.031 1042.39 258.32 1040.5 258.32ZM1059.24 256.967V260.645H1061.06V261.547H1059.24V265.115H1058.16V256.967H1059.24ZM1049.7 263.871C1050.67 263.871 1051.8 263.871 1052.99 263.83V262.941C1051.58 262.818 1050.67 262.155 1050.67 261.15C1050.67 260.043 1051.8 259.359 1053.51 259.359C1055.24 259.359 1056.36 260.043 1056.37 261.15C1056.36 262.148 1055.47 262.812 1054.06 262.941V263.789C1055.19 263.734 1056.34 263.646 1057.41 263.488L1057.51 264.268C1054.87 264.732 1051.95 264.746 1049.82 264.746L1049.7 263.871ZM1059.24 265.717V269.107H1058.16V266.578H1051.19V265.717H1059.24ZM1057.04 258.074V258.895H1050V258.074H1052.99V256.857H1054.06V258.074H1057.04ZM1053.51 260.125C1052.39 260.111 1051.69 260.508 1051.69 261.15C1051.69 261.779 1052.39 262.217 1053.51 262.203C1054.63 262.217 1055.34 261.779 1055.34 261.15C1055.34 260.508 1054.63 260.111 1053.51 260.125ZM1071.47 256.967V265.854H1070.4V256.967H1071.47ZM1071.85 267.945V268.848H1063.62V264.951H1064.69V267.945H1071.85ZM1064.91 257.814C1066.72 257.814 1068.09 259.045 1068.09 260.795C1068.09 262.572 1066.72 263.789 1064.91 263.789C1063.09 263.789 1061.72 262.572 1061.72 260.795C1061.72 259.045 1063.09 257.814 1064.91 257.814ZM1064.91 258.758C1063.67 258.758 1062.76 259.605 1062.77 260.795C1062.76 262.012 1063.67 262.846 1064.91 262.846C1066.11 262.846 1067.04 262.012 1067.04 260.795C1067.04 259.605 1066.11 258.758 1064.91 258.758ZM1083.13 256.953V269.135H1082.05V256.953H1083.13ZM1076.67 257.896C1078.47 257.91 1079.77 259.551 1079.77 262.135C1079.77 264.719 1078.47 266.359 1076.67 266.359C1074.85 266.359 1073.56 264.719 1073.56 262.135C1073.56 259.551 1074.85 257.91 1076.67 257.896ZM1076.67 258.854C1075.45 258.867 1074.6 260.152 1074.6 262.135C1074.6 264.117 1075.45 265.402 1076.67 265.402C1077.88 265.402 1078.73 264.117 1078.73 262.135C1078.73 260.152 1077.88 258.867 1076.67 258.854ZM1091.15 257.896C1092.81 257.91 1094 259.325 1094.17 261.602H1096.9V256.953H1097.96V269.135H1096.9V262.49H1094.19C1094.06 264.869 1092.85 266.359 1091.15 266.359C1089.36 266.359 1088.1 264.719 1088.1 262.135C1088.1 259.551 1089.36 257.91 1091.15 257.896ZM1091.15 258.854C1089.95 258.867 1089.13 260.152 1089.13 262.135C1089.13 264.117 1089.95 265.402 1091.15 265.402C1092.34 265.402 1093.18 264.117 1093.18 262.135C1093.18 260.152 1092.34 258.867 1091.15 258.854ZM1109.63 256.953V269.135H1108.56V263.953H1106.03V263.051H1108.56V260.631H1106.13V259.729H1108.56V256.953H1109.63ZM1105.33 258.061V262.381H1101.1V265.375C1102.92 265.368 1104.43 265.3 1106.28 265.02L1106.37 265.922C1104.43 266.223 1102.87 266.291 1100.93 266.291H1100.03V261.506H1104.28V258.949H1099.99V258.061H1105.33ZM1116.78 257.104C1119.49 257.104 1121.07 257.855 1121.07 259.209C1121.07 260.576 1119.49 261.314 1116.78 261.328C1114.07 261.314 1112.48 260.576 1112.48 259.209C1112.48 257.855 1114.07 257.104 1116.78 257.104ZM1116.78 257.924C1114.76 257.938 1113.58 258.402 1113.6 259.209C1113.58 260.043 1114.76 260.494 1116.78 260.508C1118.79 260.494 1119.98 260.043 1119.98 259.209C1119.98 258.402 1118.79 257.938 1116.78 257.924ZM1122.32 262.135V262.996H1117.3V264.145H1120.9V266.865H1113.68V268.123H1121.27V268.971H1112.61V266.072H1119.84V264.965H1112.58V264.145H1116.24V262.996H1111.24V262.135H1122.32ZM1132.12 258.088C1132.12 259.797 1134.36 261.287 1136.55 261.588L1136.11 262.463C1134.22 262.148 1132.36 261.103 1131.57 259.605C1130.79 261.109 1128.92 262.148 1127.03 262.463L1126.59 261.588C1128.78 261.287 1131.01 259.824 1131.01 258.088V257.391H1132.12V258.088ZM1137.09 263.803V264.705H1132.06V269.107H1131.01V264.705H1126.02V263.803H1137.09ZM1144.91 265.115C1144.91 266.188 1145.48 267.33 1146.64 267.986C1147.79 267.269 1148.41 266.059 1148.41 265.115V264.445H1149.46V265.115C1149.46 266.359 1150.38 267.617 1151.93 268.15L1151.4 268.943C1150.18 268.513 1149.33 267.665 1148.91 266.646C1148.54 267.631 1147.79 268.561 1146.67 269.039C1145.49 268.588 1144.74 267.692 1144.37 266.674C1143.94 267.658 1143.1 268.506 1141.94 268.943L1141.39 268.15C1142.92 267.576 1143.85 266.277 1143.87 265.115V264.445H1144.91V265.115ZM1150.83 256.967V263.912H1149.76V256.967H1150.83ZM1144.26 257.678C1146.11 257.678 1147.45 258.826 1147.45 260.521C1147.45 262.189 1146.11 263.338 1144.26 263.338C1142.42 263.338 1141.08 262.189 1141.08 260.521C1141.08 258.826 1142.42 257.678 1144.26 257.678ZM1144.26 258.594C1143.02 258.58 1142.12 259.387 1142.13 260.521C1142.12 261.643 1143.02 262.436 1144.26 262.449C1145.49 262.436 1146.4 261.643 1146.4 260.521C1146.4 259.387 1145.49 258.58 1144.26 258.594ZM1154.95 264.254V265.676H1161.02V264.254H1162.1V268.943H1153.88V264.254H1154.95ZM1154.95 268.082H1161.02V266.523H1154.95V268.082ZM1163.55 262.504V263.393H1152.47V262.504H1163.55ZM1158.57 257.664C1158.57 259.168 1160.78 260.508 1162.92 260.781L1162.52 261.643C1160.63 261.362 1158.79 260.398 1158.02 259.031C1157.24 260.405 1155.38 261.362 1153.51 261.643L1153.1 260.781C1155.26 260.494 1157.46 259.209 1157.46 257.664V257.09H1158.57V257.664ZM1174.17 256.953V269.107H1173.11V256.953H1174.17ZM1166 258.156V265.047C1167.85 265.04 1169.77 264.89 1171.81 264.459L1171.96 265.375C1169.8 265.826 1167.87 265.977 1165.93 265.977H1164.94V258.156H1166ZM1185.24 256.953V261.766H1187.27V262.668H1185.24V269.135H1184.17V256.953H1185.24ZM1182.04 258.143V259.031H1177.43V265.184C1179.63 265.184 1181.19 265.081 1182.99 264.746L1183.13 265.676C1181.23 266.018 1179.63 266.086 1177.32 266.086H1176.36V258.143H1182.04ZM1188.79 268.082C1188.32 268.082 1187.91 267.686 1187.92 267.193C1187.91 266.715 1188.32 266.318 1188.79 266.318C1189.27 266.318 1189.67 266.715 1189.67 267.193C1189.67 267.686 1189.27 268.082 1188.79 268.082ZM825.048 280.174V281.062H820.099V283.551H819.033V281.062H813.92V280.174H825.048ZM823.599 274.555V278.779H815.369V274.555H823.599ZM816.422 275.402V277.918H822.533V275.402H816.422ZM823.804 284.945V285.848H815.341V282.348H816.422V284.945H823.804ZM829.591 274.842C831.505 274.842 832.859 276.004 832.859 277.699C832.859 279.395 831.505 280.557 829.591 280.557C827.677 280.557 826.296 279.395 826.31 277.699C826.296 276.004 827.677 274.842 829.591 274.842ZM829.591 275.785C828.293 275.785 827.349 276.564 827.363 277.699C827.349 278.834 828.293 279.613 829.591 279.613C830.877 279.613 831.806 278.834 831.806 277.699C831.806 276.564 830.877 275.785 829.591 275.785ZM835.58 273.953V286.135H834.513V273.953H835.58ZM825.681 282.539C827.923 282.539 831.013 282.525 833.707 282.129L833.789 282.922C831.013 283.441 828.019 283.455 825.832 283.455L825.681 282.539ZM841.367 277.221C841.367 279.367 842.789 281.568 844.511 282.416L843.855 283.277C842.515 282.573 841.394 281.138 840.861 279.449C840.314 281.247 839.166 282.778 837.798 283.51L837.115 282.648C838.892 281.773 840.3 279.436 840.314 277.221V275.006H841.367V277.221ZM846.699 273.953V278.889H848.736V279.818H846.699V286.107H845.632V273.953H846.699ZM858.474 273.953V277.344H860.306V278.26H858.474V281.801H857.408V273.953H858.474ZM854.632 281.883C857.107 281.883 858.611 282.662 858.611 283.988C858.611 285.314 857.107 286.08 854.632 286.08C852.158 286.08 850.64 285.314 850.654 283.988C850.64 282.662 852.158 281.883 854.632 281.883ZM854.632 282.73C852.814 282.73 851.706 283.182 851.72 283.988C851.706 284.781 852.814 285.246 854.632 285.246C856.451 285.246 857.544 284.781 857.544 283.988C857.544 283.182 856.451 282.73 854.632 282.73ZM856.246 275.348V276.195H848.999V275.348H852.089V273.857H853.156V275.348H856.246ZM852.622 276.824C854.372 276.824 855.535 277.672 855.548 278.971C855.535 280.283 854.372 281.117 852.622 281.117C850.859 281.117 849.683 280.283 849.697 278.971C849.683 277.672 850.859 276.824 852.622 276.824ZM852.622 277.631C851.474 277.645 850.708 278.178 850.722 278.971C850.708 279.764 851.474 280.283 852.622 280.283C853.757 280.283 854.523 279.764 854.537 278.971C854.523 278.178 853.757 277.645 852.622 277.631ZM865.031 283.688C864.552 283.688 864.142 283.291 864.156 282.799C864.142 282.32 864.552 281.924 865.031 281.924C865.509 281.924 865.906 282.32 865.906 282.799C865.906 283.291 865.509 283.688 865.031 283.688ZM865.031 278.191C864.552 278.191 864.142 277.795 864.156 277.303C864.142 276.824 864.552 276.428 865.031 276.428C865.509 276.428 865.906 276.824 865.906 277.303C865.906 277.795 865.509 278.191 865.031 278.191ZM871.601 280.543V285H870.425V275.102H871.601V278.738H871.696C872.038 277.973 872.708 277.48 873.884 277.48C875.401 277.48 876.413 278.383 876.413 280.283V285H875.237V280.365C875.237 279.203 874.595 278.533 873.528 278.533C872.421 278.533 871.601 279.258 871.601 280.543ZM881.12 277.576V278.561H879.562V282.867C879.562 283.824 880.026 283.975 880.532 283.975C880.751 283.975 881.052 283.961 881.229 283.947V285.041C881.052 285.068 880.751 285.096 880.409 285.096C879.425 285.096 878.372 284.48 878.372 283.168V278.561H877.251V277.576H878.372V275.799H879.562V277.576H881.12ZM885.458 277.576V278.561H883.899V282.867C883.899 283.824 884.364 283.975 884.87 283.975C885.089 283.975 885.39 283.961 885.567 283.947V285.041C885.39 285.068 885.089 285.096 884.747 285.096C883.763 285.096 882.71 284.48 882.71 283.168V278.561H881.589V277.576H882.71V275.799H883.899V277.576H885.458ZM886.556 287.789V277.576H887.69V278.752H887.827C888.073 278.355 888.538 277.48 889.973 277.48C891.833 277.48 893.132 278.957 893.132 281.309C893.132 283.66 891.833 285.15 889.987 285.15C888.565 285.15 888.073 284.275 887.827 283.865H887.731V287.789H886.556ZM887.704 281.281C887.704 282.949 888.456 284.098 889.823 284.098C891.231 284.098 891.956 282.867 891.956 281.281C891.956 279.736 891.245 278.533 889.823 278.533C888.429 278.533 887.704 279.641 887.704 281.281ZM898.372 279.504C898.208 278.889 897.743 278.479 896.868 278.479C895.952 278.479 895.296 278.971 895.296 279.6C895.296 280.092 895.692 280.434 896.567 280.639L897.675 280.912C899.001 281.227 899.657 281.883 899.657 282.922C899.657 284.207 898.604 285.15 896.745 285.15C895.077 285.15 894.079 284.412 893.887 283.059H895.118C895.255 283.783 895.788 284.125 896.718 284.125C897.77 284.125 898.44 283.688 898.44 282.99C898.44 282.471 898.071 282.115 897.223 281.924L896.102 281.664C894.803 281.363 894.12 280.652 894.12 279.668C894.12 278.396 895.227 277.48 896.868 277.48C898.399 277.48 899.37 278.301 899.52 279.504H898.372ZM901.602 285.082C901.124 285.082 900.714 284.686 900.727 284.193C900.714 283.715 901.124 283.318 901.602 283.318C902.081 283.318 902.477 283.715 902.477 284.193C902.477 284.686 902.081 285.082 901.602 285.082ZM901.602 279.586C901.124 279.586 900.714 279.189 900.727 278.697C900.714 278.219 901.124 277.822 901.602 277.822C902.081 277.822 902.477 278.219 902.477 278.697C902.477 279.189 902.081 279.586 901.602 279.586ZM907.43 274.637L904.231 286.49H903.165L906.35 274.637H907.43ZM911.686 274.637L908.487 286.49H907.42L910.606 274.637H911.686ZM915.45 285.15C913.426 285.15 912.059 283.633 912.059 281.322C912.059 279.012 913.426 277.48 915.45 277.48C917.459 277.48 918.813 279.012 918.813 281.322C918.813 283.633 917.459 285.15 915.45 285.15ZM915.45 284.111C916.94 284.111 917.637 282.799 917.637 281.322C917.637 279.846 916.94 278.52 915.45 278.52C913.932 278.52 913.235 279.846 913.235 281.322C913.235 282.799 913.932 284.111 915.45 284.111ZM919.938 287.789V277.576H921.073V278.752H921.209C921.455 278.355 921.92 277.48 923.356 277.48C925.215 277.48 926.514 278.957 926.514 281.309C926.514 283.66 925.215 285.15 923.369 285.15C921.948 285.15 921.455 284.275 921.209 283.865H921.114V287.789H919.938ZM921.086 281.281C921.086 282.949 921.838 284.098 923.205 284.098C924.614 284.098 925.338 282.867 925.338 281.281C925.338 279.736 924.627 278.533 923.205 278.533C921.811 278.533 921.086 279.641 921.086 281.281ZM930.742 285.15C928.596 285.15 927.27 283.633 927.27 281.35C927.27 279.066 928.61 277.48 930.633 277.48C932.192 277.48 933.832 278.438 933.832 281.186V281.678H928.446C928.5 283.25 929.416 284.111 930.742 284.111C931.631 284.111 932.192 283.729 932.465 283.264H933.723C933.367 284.385 932.274 285.15 930.742 285.15ZM928.459 280.68H932.643C932.643 279.436 931.85 278.52 930.633 278.52C929.348 278.52 928.528 279.531 928.459 280.68ZM936.119 280.543V285H934.944V277.576H936.078V278.738H936.174C936.529 277.986 937.213 277.48 938.348 277.48C939.852 277.48 940.85 278.396 940.85 280.283V285H939.674V280.365C939.674 279.217 939.045 278.533 937.992 278.533C936.912 278.533 936.119 279.258 936.119 280.543ZM943.151 285.082C942.672 285.082 942.262 284.686 942.276 284.193C942.262 283.715 942.672 283.318 943.151 283.318C943.629 283.318 944.026 283.715 944.026 284.193C944.026 284.686 943.629 285.082 943.151 285.082ZM945.451 285V275.102H946.627V280.857H946.764L949.977 277.576H951.426L948.295 280.748L951.658 285H950.168L947.42 281.5L946.627 282.225V285H945.451ZM951.908 282.895C951.908 281.186 953.412 280.803 954.697 280.707C955.169 280.673 956.372 280.611 956.707 280.598V279.996C956.707 279.053 956.146 278.506 955.025 278.506C954.082 278.506 953.521 278.943 953.357 279.504H952.127C952.277 278.314 953.439 277.48 955.08 277.48C956.051 277.48 957.869 277.768 957.869 280.105V285H956.707V283.988H956.652C956.406 284.494 955.723 285.178 954.437 285.178C953.029 285.178 951.908 284.344 951.908 282.895ZM953.084 282.949C953.084 283.729 953.74 284.125 954.643 284.125C955.969 284.125 956.707 283.236 956.707 282.307V281.555L954.834 281.691C953.768 281.76 953.084 282.143 953.084 282.949ZM959.336 285V275.102H960.512V280.857H960.648L963.861 277.576H965.31L962.18 280.748L965.543 285H964.053L961.305 281.5L960.512 282.225V285H959.336ZM965.793 282.895C965.793 281.186 967.297 280.803 968.582 280.707C969.054 280.673 970.257 280.611 970.592 280.598V279.996C970.592 279.053 970.031 278.506 968.91 278.506C967.967 278.506 967.406 278.943 967.242 279.504H966.012C966.162 278.314 967.324 277.48 968.965 277.48C969.935 277.48 971.754 277.768 971.754 280.105V285H970.592V283.988H970.537C970.291 284.494 969.607 285.178 968.322 285.178C966.914 285.178 965.793 284.344 965.793 282.895ZM966.969 282.949C966.969 283.729 967.625 284.125 968.527 284.125C969.853 284.125 970.592 283.236 970.592 282.307V281.555L968.719 281.691C967.652 281.76 966.969 282.143 966.969 282.949ZM976.256 285.15C974.232 285.15 972.865 283.633 972.865 281.322C972.865 279.012 974.232 277.48 976.256 277.48C978.265 277.48 979.619 279.012 979.619 281.322C979.619 283.633 978.265 285.15 976.256 285.15ZM976.256 284.111C977.746 284.111 978.443 282.799 978.443 281.322C978.443 279.846 977.746 278.52 976.256 278.52C974.738 278.52 974.041 279.846 974.041 281.322C974.041 282.799 974.738 284.111 976.256 284.111ZM981.578 285.082C981.099 285.082 980.689 284.686 980.703 284.193C980.689 283.715 981.099 283.318 981.578 283.318C982.056 283.318 982.453 283.715 982.453 284.193C982.453 284.686 982.056 285.082 981.578 285.082ZM986.914 285.15C984.808 285.15 983.523 283.551 983.523 281.322C983.523 279.066 984.863 277.48 986.886 277.48C988.472 277.48 989.648 278.41 989.839 279.818H988.664C988.5 279.135 987.898 278.52 986.914 278.52C985.587 278.52 984.699 279.613 984.699 281.281C984.699 283.004 985.56 284.098 986.914 284.098C987.789 284.098 988.459 283.633 988.664 282.812H989.839C989.648 284.139 988.568 285.15 986.914 285.15ZM993.904 285.15C991.88 285.15 990.513 283.633 990.513 281.322C990.513 279.012 991.88 277.48 993.904 277.48C995.914 277.48 997.267 279.012 997.267 281.322C997.267 283.633 995.914 285.15 993.904 285.15ZM993.904 284.111C995.394 284.111 996.091 282.799 996.091 281.322C996.091 279.846 995.394 278.52 993.904 278.52C992.386 278.52 991.689 279.846 991.689 281.322C991.689 282.799 992.386 284.111 993.904 284.111ZM998.392 285V277.576H999.527V278.738H999.622C999.937 277.945 1000.65 277.48 1001.62 277.48C1002.59 277.48 1003.25 277.945 1003.6 278.738H1003.68C1004.07 277.973 1004.85 277.48 1005.91 277.48C1007.24 277.48 1008.18 278.287 1008.18 280.037V285H1007.01V280.051C1007.01 278.957 1006.31 278.533 1005.5 278.533C1004.46 278.533 1003.87 279.23 1003.87 280.174V285H1002.68V279.928C1002.68 279.094 1002.08 278.533 1001.24 278.533C1000.35 278.533 999.568 279.285 999.568 280.365V285H998.392ZM1013.18 274.637L1009.98 286.49H1008.91L1012.1 274.637H1013.18ZM1013.9 285V277.576H1015.04V278.738H1015.13C1015.45 277.945 1016.16 277.48 1017.13 277.48C1018.1 277.48 1018.76 277.945 1019.11 278.738H1019.19C1019.58 277.973 1020.36 277.48 1021.42 277.48C1022.75 277.48 1023.69 278.287 1023.69 280.037V285H1022.52V280.051C1022.52 278.957 1021.82 278.533 1021.01 278.533C1019.97 278.533 1019.39 279.23 1019.39 280.174V285H1018.2V279.928C1018.2 279.094 1017.59 278.533 1016.75 278.533C1015.86 278.533 1015.08 279.285 1015.08 280.365V285H1013.9ZM1028.28 285.15C1026.13 285.15 1024.8 283.633 1024.8 281.35C1024.8 279.066 1026.14 277.48 1028.17 277.48C1029.73 277.48 1031.37 278.438 1031.37 281.186V281.678H1025.98C1026.03 283.25 1026.95 284.111 1028.28 284.111C1029.17 284.111 1029.73 283.729 1030 283.264H1031.26C1030.9 284.385 1029.81 285.15 1028.28 285.15ZM1025.99 280.68H1030.18C1030.18 279.436 1029.38 278.52 1028.17 278.52C1026.88 278.52 1026.06 279.531 1025.99 280.68ZM1036 274.637L1032.81 286.49H1031.74L1034.92 274.637H1036ZM1036.73 285V275.102H1037.91V280.857H1038.05L1041.26 277.576H1042.71L1039.58 280.748L1042.94 285H1041.45L1038.7 281.5L1037.91 282.225V285H1036.73ZM1045.21 285L1042.96 277.576H1044.2L1045.79 283.236H1045.86L1047.43 277.576H1048.69L1050.23 283.209H1050.31L1051.9 277.576H1053.13L1050.87 285H1049.71L1048.1 279.34H1047.99L1046.39 285H1045.21ZM1058.7 281.951V277.576H1059.86V285H1058.7V283.742H1058.62C1058.26 284.494 1057.54 285.096 1056.41 285.096C1055.01 285.096 1054.01 284.18 1054.01 282.293V277.576H1055.18V282.211C1055.18 283.277 1055.85 283.961 1056.8 283.961C1057.63 283.961 1058.7 283.332 1058.7 281.951ZM1064.44 285.15C1062.3 285.15 1060.97 283.633 1060.97 281.35C1060.97 279.066 1062.31 277.48 1064.33 277.48C1065.89 277.48 1067.53 278.438 1067.53 281.186V281.678H1062.15C1062.2 283.25 1063.12 284.111 1064.44 284.111C1065.33 284.111 1065.89 283.729 1066.17 283.264H1067.42C1067.07 284.385 1065.98 285.15 1064.44 285.15ZM1062.16 280.68H1066.34C1066.34 279.436 1065.55 278.52 1064.33 278.52C1063.05 278.52 1062.23 279.531 1062.16 280.68ZM1071.68 285.15C1069.57 285.15 1068.29 283.551 1068.29 281.322C1068.29 279.066 1069.63 277.48 1071.65 277.48C1073.24 277.48 1074.41 278.41 1074.61 279.818H1073.43C1073.27 279.135 1072.66 278.52 1071.68 278.52C1070.35 278.52 1069.47 279.613 1069.47 281.281C1069.47 283.004 1070.33 284.098 1071.68 284.098C1072.56 284.098 1073.23 283.633 1073.43 282.812H1074.61C1074.41 284.139 1073.33 285.15 1071.68 285.15ZM1075.62 285L1075.61 284.098L1078.98 280.543C1080.16 279.299 1080.72 278.629 1080.72 277.713C1080.72 276.701 1079.86 276.031 1078.75 276.031C1077.58 276.031 1076.82 276.783 1076.82 277.891H1075.66C1075.65 276.141 1077 274.965 1078.79 274.965C1080.58 274.965 1081.87 276.168 1081.87 277.713C1081.87 278.82 1081.35 279.682 1079.6 281.486L1077.33 283.824V283.906H1082.05V285H1075.62ZM1086.66 285.137C1084.46 285.137 1083.2 283.291 1083.2 280.051C1083.2 276.838 1084.48 274.965 1086.66 274.965C1088.83 274.965 1090.12 276.838 1090.12 280.051C1090.12 283.291 1088.85 285.137 1086.66 285.137ZM1086.66 284.043C1088.08 284.043 1088.91 282.607 1088.91 280.051C1088.91 277.494 1088.08 276.031 1086.66 276.031C1085.24 276.031 1084.39 277.494 1084.39 280.051C1084.39 282.607 1085.22 284.043 1086.66 284.043ZM1091.34 285L1091.32 284.098L1094.7 280.543C1095.88 279.299 1096.44 278.629 1096.44 277.713C1096.44 276.701 1095.58 276.031 1094.47 276.031C1093.29 276.031 1092.54 276.783 1092.54 277.891H1091.38C1091.37 276.141 1092.72 274.965 1094.51 274.965C1096.3 274.965 1097.59 276.168 1097.59 277.713C1097.59 278.82 1097.07 279.682 1095.32 281.486L1093.05 283.824V283.906H1097.76V285H1091.34ZM1102.36 285.137C1100.57 285.137 1099.22 284.029 1099.15 282.512H1100.34C1100.43 283.4 1101.3 284.057 1102.36 284.057C1103.65 284.057 1104.58 283.113 1104.58 281.869C1104.58 280.584 1103.61 279.641 1102.28 279.627C1101.45 279.613 1100.8 279.873 1100.43 280.516H1099.24L1099.94 275.102H1105.3V276.195H1100.97L1100.6 279.094H1100.69C1101.13 278.752 1101.8 278.52 1102.5 278.52C1104.39 278.52 1105.78 279.914 1105.78 281.842C1105.78 283.756 1104.33 285.137 1102.36 285.137Z" fill="white"/>
<g filter="url(#filter0_d_236_1331)">
<path d="M543.273 131.238C543.257 138.564 545.279 145.508 551.295 148.691L547.782 153.431C544.085 151.392 541.715 147.961 540.306 143.735C538.782 148.442 536.196 152.387 532.351 154.674L528.621 150.315C535.019 146.503 537.439 138.895 537.456 131.669V124.309H543.273V131.238ZM551.328 161.354V121.293H556.98V137.287H560.66V120.63H566.378V163.326H560.66V142.077H556.98V161.354H551.328ZM606.24 120.63V163.326H600.489V141.978H596.494V161.238H590.892V121.376H596.494V137.138H600.489V120.63H606.24ZM571.168 152.901V125.37H577.168V147.68C580.599 147.58 584.362 147.282 588.472 146.486L589.069 151.641C583.384 152.635 578.494 152.917 574.069 152.901H571.168ZM645.34 120.63V163.326H639.29V120.63H645.34ZM609.638 151.243C620.644 146.022 625.5 139.293 626.461 129.812H611.926V125.122H632.561C632.544 138.05 628.003 148.807 612.754 156L609.638 151.243ZM670.924 123.646C674.753 123.646 677.935 125.751 679.891 129.414H689.239V120.63H695.156V163.425H689.239V147.431H680.322C678.432 151.657 675.051 154.077 670.924 154.077C664.443 154.077 659.819 148.21 659.835 138.829C659.819 129.547 664.443 123.646 670.924 123.646ZM665.57 138.829C665.554 145.21 667.742 148.657 670.924 148.657C674.139 148.657 676.277 145.21 676.294 138.829C676.277 132.514 674.139 129.05 670.924 129.05C667.742 129.05 665.554 132.514 665.57 138.829ZM681.548 134.238C681.813 135.646 681.963 137.188 681.963 138.829C681.963 140.171 681.863 141.448 681.681 142.641H689.239V134.238H681.548ZM735.151 120.63V163.425H729.2V140.917H722.338V136.028H729.2V120.63H735.151ZM700.609 129.05V124.227H719.952V140.204H706.675V148.541C712.543 148.492 717.515 148.276 723.018 147.331L723.499 152.188C717.167 153.249 711.366 153.481 704.222 153.481H700.709V135.448H714.101V129.05H700.609ZM778.228 142.525V147.232H762.184V154.11H756.267V147.232H739.212V142.525H778.228ZM743.786 162.58V150.762H749.72V157.757H773.935V162.58H743.786ZM744.234 139.541V122.006H750.118V126.464H767.256V122.006H773.173V139.541H744.234ZM750.118 134.834H767.256V130.906H750.118V134.834ZM818.289 137.32V142.011H779.306V137.32H818.289ZM783.797 149.022V144.497H813.466V155.652H789.698V158.32H814.576V162.945H783.83V151.392H807.565V149.022H783.797ZM784.162 134.95V121.525H813.317V126.265H790.129V130.243H813.648V134.95H784.162ZM833.14 123.497C839.936 123.497 844.958 127.856 844.991 133.972C844.958 140.105 839.936 144.448 833.14 144.448C826.427 144.448 821.289 140.105 821.306 133.972C821.289 127.856 826.427 123.497 833.14 123.497ZM819.532 149.834C827.14 149.834 837.681 149.735 846.814 148.459L847.262 152.768C837.814 154.608 827.687 154.691 820.212 154.691L819.532 149.834ZM827.24 133.972C827.24 137.354 829.792 139.276 833.14 139.276C836.554 139.276 839.14 137.354 839.157 133.972C839.14 130.641 836.571 128.669 833.14 128.669C829.775 128.669 827.24 130.641 827.24 133.972ZM849.234 163.425V120.63H855.184V163.425H849.234ZM904.719 120.63V143.586H898.719V120.63H904.719ZM869.663 132.547C869.647 126.564 874.669 122.403 881.332 122.42C887.978 122.403 892.984 126.564 892.984 132.547C892.984 138.381 887.978 142.541 881.332 142.541C874.669 142.541 869.647 138.381 869.663 132.547ZM875.514 132.547C875.481 135.729 877.917 137.619 881.332 137.635C884.663 137.619 887.083 135.729 887.083 132.547C887.083 129.348 884.663 127.392 881.332 127.409C877.917 127.392 875.481 129.348 875.514 132.547ZM876.194 162.845V145.459H882.078V149.42H898.752V145.459H904.719V162.845H876.194ZM882.078 158.006H898.752V154.061H882.078V158.006ZM934.371 124.475V129.166H909.045V124.475H918.741V120.431H924.708V124.475H934.371ZM911.133 138.414C911.116 133.724 915.525 130.558 921.724 130.541C927.907 130.558 932.216 133.724 932.216 138.414C932.216 143.105 927.907 146.271 921.724 146.271C915.525 146.271 911.116 143.105 911.133 138.414ZM914.183 153.978V149.204H942.907V163.326H936.907V153.978H914.183ZM916.951 138.414C916.951 140.586 918.857 141.713 921.724 141.713C924.575 141.713 926.531 140.586 926.547 138.414C926.531 136.227 924.575 135.05 921.724 135.033C918.857 135.05 916.951 136.227 916.951 138.414ZM936.907 147.414V120.63H942.907V131.735H948.641V136.608H942.907V147.414H936.907ZM968.531 121.26C978.36 121.26 984.028 123.829 984.045 128.519C984.028 133.293 978.36 135.845 968.531 135.845C958.686 135.845 952.984 133.293 953.001 128.519C952.984 123.829 958.686 121.26 968.531 121.26ZM949.106 142.608V137.867H988.023V142.608H949.106ZM953.597 149.453V145.061H983.266V155.95H959.498V158.519H984.376V163.028H953.63V151.773H977.365V149.453H953.597ZM959.266 128.519C959.233 130.624 962.282 131.436 968.531 131.453C974.863 131.436 977.879 130.624 977.879 128.519C977.879 126.646 974.863 125.619 968.531 125.635C962.282 125.619 959.233 126.646 959.266 128.519ZM1015.38 129.083C1015.38 134.188 1018.56 139.392 1025.57 141.497L1022.52 146.188C1017.73 144.68 1014.39 141.613 1012.46 137.768C1010.52 141.978 1007.04 145.326 1002.02 146.983L998.938 142.293C1006.03 140.022 1009.3 134.486 1009.33 129.083V128.486H1000.51V123.713H1023.97V128.486H1015.38V129.083ZM1005.88 162.58V148.724H1011.93V157.757H1035.6V162.58H1005.88ZM1028.47 151.541V120.696H1034.47V151.541H1028.47ZM1074.52 120.696V144.762H1068.52V120.696H1074.52ZM1038.65 139.309C1045.81 137.138 1048.93 131.702 1048.94 126.365V122.238H1055.14V126.365C1055.11 131.552 1058.28 136.525 1065.15 138.63L1062.25 143.221C1057.36 141.762 1054 138.812 1052.08 134.983C1050.14 139.127 1046.67 142.425 1041.58 144.017L1038.65 139.309ZM1045.93 162.845V146.718H1074.52V162.845H1045.93ZM1051.83 158.055H1068.65V151.459H1051.83V158.055ZM1098.29 122.834C1107.32 122.834 1114.36 127.707 1114.36 135.099C1114.36 142.541 1107.32 147.398 1098.29 147.398C1089.29 147.398 1082.28 142.541 1082.29 135.099C1082.28 127.707 1089.29 122.834 1098.29 122.834ZM1078.86 158.122V153.282H1117.88V158.122H1078.86ZM1088.09 135.099C1088.08 139.74 1092.37 142.492 1098.29 142.492C1104.19 142.492 1108.45 139.74 1108.46 135.099C1108.45 130.525 1104.19 127.641 1098.29 127.674C1092.37 127.641 1088.08 130.525 1088.09 135.099ZM1157.92 153.663V158.552H1118.91V153.663H1135.36V147.215H1123.4V132.862H1147.51V128.221H1123.33V123.414H1153.43V137.552H1129.36V142.359H1154.42V147.215H1141.28V153.663H1157.92ZM1207.49 141.646V146.387H1190.93V150.083H1202.75V163.26H1196.77V154.84H1172.88V150.083H1185V146.387H1168.57V141.646H1207.49ZM1170.21 135.663C1179.46 135.033 1183.79 132.265 1184.52 129.182H1172.3V124.558H1185V120.68H1190.93V124.558H1203.71V129.182H1191.4C1192.09 132.265 1196.42 135.033 1205.73 135.663L1203.89 140.138C1196.05 139.575 1190.63 137.32 1187.96 133.856C1185.28 137.32 1179.84 139.575 1172.02 140.138L1170.21 135.663ZM1242.26 120.63V137.354H1248.56V142.276H1242.26V163.326H1236.35V120.63H1242.26ZM1208.38 131.801V127.011H1218.05V121.309H1224.01V127.011H1233.46V131.801H1208.38ZM1210.11 144.365C1210.09 138.414 1214.73 134.188 1221.03 134.188C1227.25 134.188 1231.9 138.414 1231.92 144.365C1231.9 150.331 1227.25 154.525 1221.03 154.541C1214.73 154.525 1210.09 150.331 1210.11 144.365ZM1215.84 144.365C1215.83 147.68 1218.01 149.652 1221.03 149.635C1224.01 149.652 1226.17 147.68 1226.2 144.365C1226.17 141.099 1224.01 139.077 1221.03 139.044C1218.01 139.077 1215.83 141.099 1215.84 144.365ZM1282.51 120.63V130.939H1288.24V135.912H1282.51V145.641H1276.51V120.63H1282.51ZM1248.64 129.099V124.409H1258.34V120.348H1264.31V124.409H1273.97V129.099H1248.64ZM1250.73 137.851C1250.72 133.309 1255.03 130.326 1261.32 130.309C1267.51 130.326 1271.82 133.309 1271.82 137.851C1271.82 142.409 1267.51 145.409 1261.32 145.392C1255.03 145.409 1250.72 142.409 1250.73 137.851ZM1254.58 162.845V147.265H1260.51V150.53H1276.51V147.265H1282.51V162.845H1254.58ZM1256.55 137.851C1256.55 139.923 1258.46 141.033 1261.32 141.033C1264.18 141.033 1266.13 139.923 1266.15 137.851C1266.13 135.862 1264.18 134.685 1261.32 134.702C1258.46 134.685 1256.55 135.862 1256.55 137.851ZM1260.51 158.138H1276.51V155.122H1260.51V158.138ZM1324.57 120.63V163.326H1318.62V120.63H1324.57ZM1290.99 152.785V124.724H1296.91V147.68C1302.66 147.58 1308.86 147.05 1315.13 145.823L1315.87 150.762C1308.4 152.32 1301.34 152.801 1294.76 152.785H1290.99ZM1362.4 120.63V136.492H1368.69V141.381H1362.4V163.425H1356.41V120.63H1362.4ZM1330.44 153.05V124.608H1350.45V129.431H1336.39V148.127C1342.57 148.077 1347.69 147.746 1353.33 146.768L1353.99 151.773C1347.38 152.901 1341.56 153.066 1334.02 153.05H1330.44ZM1388.13 125.055L1387.5 148.84H1381.5L1380.87 125.055H1388.13ZM1380.57 155.486C1380.54 153.331 1382.35 151.575 1384.52 151.575C1386.6 151.575 1388.43 153.331 1388.44 155.486C1388.43 157.657 1386.6 159.414 1384.52 159.414C1382.35 159.414 1380.54 157.657 1380.57 155.486Z" fill="white"/>
</g>
</g>
<defs>
<filter id="filter0_d_236_1331" x="527.121" y="118.848" width="864.823" height="48.0771" filterUnits="userSpaceOnUse" color-interpolation-filters="sRGB">
<feFlood flood-opacity="0" result="BackgroundImageFix"/>
<feColorMatrix in="SourceAlpha" type="matrix" values="0 0 0 0 0 0 0 0 0 0 0 0 0 0 0 0 0 0 127 0" result="hardAlpha"/>
<feOffset dx="1" dy="1"/>
<feGaussianBlur stdDeviation="1.25"/>
<feComposite in2="hardAlpha" operator="out"/>
<feColorMatrix type="matrix" values="0 0 0 0 0 0 0 0 0 0 0 0 0 0 0 0 0 0 0.25 0"/>
<feBlend mode="normal" in2="BackgroundImageFix" result="effect1_dropShadow_236_1331"/>
<feBlend mode="normal" in="SourceGraphic" in2="effect1_dropShadow_236_1331" result="shape"/>
</filter>
<clipPath id="clip0_236_1331">
<rect width="1920" height="400" fill="white"/>
</clipPath>
</defs>
</svg>
