<svg width="1920" height="400" viewBox="0 0 1920 400" fill="none" xmlns="http://www.w3.org/2000/svg">
<g clip-path="url(#clip0_236_1331)">
<rect width="1920" height="400" fill="#712732"/>
<g opacity="0.1">
<path d="M963.988 776.048C810.11 776.048 665.444 716.133 556.668 607.357C447.892 498.508 387.977 353.841 387.977 200.037C387.977 46.2322 447.892 -98.5076 556.668 -207.357C665.518 -316.133 810.184 -376.049 963.988 -376.049C1117.79 -376.049 1262.53 -316.133 1371.31 -207.357C1480.08 -98.5813 1540 46.0849 1540 199.963C1540 353.841 1480.08 498.508 1371.31 607.284C1262.53 716.059 1117.87 775.975 963.988 775.975V776.048ZM963.988 -358.288C656.158 -358.288 405.664 -107.867 405.664 200.037C405.664 507.941 656.158 758.361 963.988 758.361C1271.82 758.361 1522.31 507.941 1522.31 200.037C1522.31 -107.867 1271.89 -358.288 963.988 -358.288Z" fill="#F5F5F5"/>
<path d="M963.989 746.865C817.923 746.865 680.626 689.971 577.304 586.723C474.055 483.4 417.161 346.03 417.161 200.037C417.161 54.0443 474.055 -83.3259 577.304 -186.648C680.626 -289.971 817.996 -346.865 963.989 -346.865C1109.98 -346.865 1247.43 -289.971 1350.67 -186.722C1453.92 -83.3996 1510.82 53.897 1510.82 199.963C1510.82 346.03 1453.92 483.326 1350.67 586.649C1247.43 689.898 1110.06 746.791 963.989 746.791V746.865ZM963.989 -340.158C666.182 -340.158 423.868 -97.8441 423.868 200.037C423.868 497.918 666.182 740.232 964.063 740.232C1261.94 740.232 1504.26 497.918 1504.26 200.037C1504.26 -97.8441 1261.87 -340.158 963.989 -340.158Z" fill="#F5F5F5"/>
<path d="M963.988 596.008C745.626 596.008 567.943 418.326 567.943 199.963C567.943 -18.3995 745.626 -196.082 963.988 -196.082C1182.35 -196.082 1360.03 -18.3995 1360.03 199.963C1360.03 418.326 1182.35 596.008 963.988 596.008ZM963.988 -189.375C749.31 -189.375 574.576 -14.7147 574.576 200.037C574.576 414.788 749.237 589.449 963.988 589.449C1178.74 589.449 1353.4 414.788 1353.4 200.037C1353.4 -14.7147 1178.74 -189.375 963.988 -189.375Z" fill="#F5F5F5"/>
<path d="M963.988 578.615C755.206 578.615 585.409 408.745 585.409 199.963C585.409 -8.81927 755.28 -178.69 963.988 -178.69C1172.7 -178.69 1342.64 -8.81927 1342.64 199.963C1342.64 408.745 1172.77 578.615 963.988 578.615ZM963.988 -167.562C761.323 -167.562 596.464 -2.70247 596.464 199.963C596.464 402.628 761.323 567.487 963.988 567.487C1166.65 567.487 1331.51 402.628 1331.51 199.963C1331.51 -2.70247 1166.65 -167.562 963.988 -167.562Z" fill="#F5F5F5"/>
<path d="M586.367 6.36345L583.64 12.2592L546.276 -4.9121V-4.69102C548.634 -2.11164 550.772 0.394037 552.835 2.67863L575.534 30.02L572.144 37.3897L546.866 5.70018L494.025 3.0471L497.268 -3.95404L542.223 -1.52207L535.738 -9.77607L506.185 -23.3362L508.912 -29.2319L586.441 6.36345H586.367Z" fill="#F5F5F5"/>
<path d="M486.803 22.1349L571.849 36.6532L569.712 43.1385L526.82 35.3266C516.282 33.4105 505.743 31.4207 497.636 29.652V29.7994C505.375 33.1894 514.513 37.906 524.462 42.9174L563.226 62.7417L561.089 69.1533L518.05 61.4889C508.028 59.6465 497.931 57.8041 489.161 55.6669V55.8142C497.71 59.7201 506.259 64.0682 515.84 68.8585L554.604 88.6092L552.54 94.9471L475.97 54.7825L478.107 48.2972L522.251 56.109C533.084 58.0251 541.339 59.6465 549.74 61.71V61.5626C542.002 58.0988 534.411 54.414 524.536 49.1816L484.592 28.4728L486.729 21.9875L486.803 22.1349Z" fill="#F5F5F5"/>
<path d="M494.763 89.7142L469.632 78.9545L471.033 72.3955L550.846 106.959L549.225 114.624L462.263 113.518L463.737 106.738L491.078 107.107L494.837 89.6405L494.763 89.7142ZM499.701 107.622L524.757 107.991C530.432 107.991 535.517 108.359 540.528 108.654V108.507C535.738 106.738 530.874 104.822 526.01 102.758L502.943 92.7358L499.774 107.549L499.701 107.622Z" fill="#F5F5F5"/>
<path d="M460.273 126.415L545.023 135.627L544.286 142.702L499.626 154.051C489.309 156.704 480.023 158.621 471.106 160.021L471.253 160.168C482.603 160.831 492.994 161.789 506.185 163.19L541.633 167.022L540.97 173.139L456.146 163.927L456.882 157.368L501.616 146.166C511.418 143.734 521.441 141.449 530.947 139.902V139.681C520.114 138.87 509.944 137.912 495.794 136.364L459.536 132.385L460.199 126.268L460.273 126.415Z" fill="#F5F5F5"/>
<path d="M459.02 219.494C457.251 216.619 454.377 210.871 454.377 204.017C454.377 196.427 457.693 190.162 465.653 185.225C472.727 180.877 484.15 178.224 497.416 178.224C522.841 178.224 541.412 188.615 541.412 205.491C541.412 211.313 539.275 215.883 537.507 218.02L528.516 216.472C530.579 213.745 532.2 210.429 532.2 205.344C532.2 193.11 519.304 185.151 497.932 185.151C476.56 185.151 463.515 192.816 463.515 204.533C463.515 208.808 464.547 211.682 465.8 213.229H491.225V202.986H500.069V219.567H459.094L459.02 219.494Z" fill="#F5F5F5"/>
<path d="M456.956 244.404L539.938 221.042L540.822 227.896L498.741 239.245C488.35 242.045 478.033 244.698 469.926 246.614V246.762C478.475 246.467 488.719 246.762 499.847 247.13L543.402 248.383L544.286 255.09L502.131 266.586C492.256 269.239 482.381 271.892 473.537 273.735V273.882C482.97 273.735 492.551 273.956 503.311 274.177L546.865 275.356L547.676 281.989L461.23 278.525L460.419 271.819L503.679 259.954C514.291 257.006 522.472 254.942 530.873 253.173V253.026C522.324 253.173 513.923 253.1 502.721 252.658L457.766 251.11L456.882 244.404H456.956Z" fill="#F5F5F5"/>
<path d="M519.23 336.303C490.783 343.673 473.096 337.408 469.853 325.027C466.537 312.131 481.055 298.718 506.038 292.233C532.274 285.379 551.878 290.537 555.268 303.582C558.731 316.847 543.697 329.965 519.156 336.377L519.23 336.303ZM508.028 298.865C490.415 303.434 476.044 313.162 478.623 323.111C481.203 333.06 498.227 334.682 517.019 329.818C533.453 325.543 549.298 316.036 546.571 305.572C543.845 295.18 526.231 294.222 508.102 298.939L508.028 298.865Z" fill="#F5F5F5"/>
<path d="M537.728 385.605C510.313 396.07 492.036 391.869 487.393 379.857C482.676 367.476 495.647 352.515 519.746 343.229C545.024 333.575 565.143 336.449 569.933 349.051C574.871 361.875 561.384 376.54 537.728 385.605ZM522.473 349.641C505.449 356.126 492.331 367.402 495.942 376.982C499.627 386.637 516.724 386.268 534.78 379.414C550.625 373.371 565.29 362.169 561.458 351.999C557.626 341.977 539.939 342.935 522.473 349.641Z" fill="#F5F5F5"/>
<path d="M502.648 413.315L578.997 375.361L582.166 381.699L550.698 415.305C543.402 423.116 536.622 429.749 529.916 435.719H530.063C540.012 430.191 549.224 425.475 561.163 419.505L593.073 403.661L595.8 409.114L519.451 447.068L516.503 441.172L548.119 407.64C555.046 400.27 562.268 392.901 569.417 386.563L569.196 386.416C559.763 391.574 550.624 396.217 537.949 402.555L505.301 418.768L502.574 413.315H502.648Z" fill="#F5F5F5"/>
<path d="M1393.64 392.015L1383.98 410.513L1411.25 424.737L1422.01 404.102L1430.19 408.376L1416.26 435.201L1340.65 395.847L1354.06 370.127L1362.24 374.402L1352.07 394.005L1375.95 406.46L1385.61 387.962L1393.71 392.163L1393.64 392.015Z" fill="#F5F5F5"/>
<path d="M1411.99 335.713C1439.62 345.588 1450.53 361.359 1445.96 374.33C1441.17 387.669 1421.42 391.206 1397.1 382.584C1371.6 373.519 1358.49 357.6 1363.28 344.04C1368.21 330.259 1388.18 327.237 1411.99 335.786V335.713ZM1399.31 375.509C1416.48 381.625 1433.95 381.257 1437.64 370.939C1441.32 360.548 1428.28 349.346 1410.07 342.861C1394.08 337.187 1375.51 336.523 1371.68 347.357C1367.84 358.19 1381.77 369.244 1399.39 375.509H1399.31Z" fill="#F5F5F5"/>
<path d="M1375.29 309.624L1424.52 320.899C1443.16 325.174 1452.23 321.784 1453.85 314.782C1455.62 307.044 1448.62 300.191 1430.27 295.99L1381.04 284.714L1382.58 277.861L1431.08 288.915C1456.58 294.737 1465.12 305.644 1462.54 316.993C1460.11 327.753 1448.47 333.575 1422.68 327.679L1373.67 316.478L1375.21 309.624H1375.29Z" fill="#F5F5F5"/>
<path d="M1383.91 268.648L1384.87 261.795L1460.19 272.112L1463.28 249.414L1472.42 250.666L1468.37 280.292L1383.84 268.722L1383.91 268.648Z" fill="#F5F5F5"/>
<path d="M1390.1 202.321L1389.95 195.394L1431.08 194.73V194.509C1427.76 193.109 1424.66 191.709 1421.86 190.456L1389.58 174.611L1389.44 165.989L1425.99 184.781L1474.7 162.967L1474.85 171.148L1433.29 189.572L1442.72 194.509L1475.22 193.993L1475.37 200.921L1390.1 202.395V202.321Z" fill="#F5F5F5"/>
<path d="M1425.18 113.002C1454.29 109.391 1471.17 118.676 1472.79 132.237C1474.56 146.313 1458.42 158.325 1432.77 161.494C1405.87 164.81 1387.01 156.483 1385.24 142.186C1383.47 127.594 1399.98 116.023 1425.11 112.928L1425.18 113.002ZM1431.67 154.198C1449.72 151.987 1465.2 143.807 1463.87 132.974C1462.54 122.067 1445.82 117.866 1426.58 120.224C1409.78 122.288 1392.83 130.026 1394.3 141.522C1395.7 152.945 1413.09 156.556 1431.74 154.272L1431.67 154.198Z" fill="#F5F5F5"/>
<path d="M1383.39 112.485C1381.48 109.317 1379.71 104.6 1378.53 99.957C1376.84 92.7348 1377.79 87.5761 1381.63 83.228C1384.72 79.6905 1389.95 76.8901 1396.37 75.3424C1407.35 72.6894 1415.6 75.3424 1419.87 80.059H1420.24C1421.5 75.4161 1426.8 71.5839 1435.13 68.2676C1446.26 63.7721 1454 60.6032 1456.94 58.7607L1458.64 65.7619C1456.5 67.1621 1449.65 70.0363 1439.7 74.0159C1428.64 78.2903 1425.03 82.1225 1426.14 88.3867L1427.69 94.7246L1463.58 86.0284L1465.2 92.8085L1383.39 112.559V112.485ZM1419.51 96.6407L1417.81 89.7133C1416.04 82.491 1408.67 79.4694 1399.24 81.754C1388.55 84.3334 1385.02 90.3765 1386.64 97.5251C1387.45 100.768 1388.48 102.979 1389.22 103.937L1419.51 96.6407Z" fill="#F5F5F5"/>
<path d="M1406.09 33.0405L1412.95 52.7912L1441.98 42.6948L1434.32 20.7332L1443.09 17.7117L1453.04 46.2322L1372.49 74.2369L1362.98 46.8218L1371.68 43.8002L1378.9 64.6563L1404.32 55.8127L1397.47 36.0621L1406.09 33.0405Z" fill="#F5F5F5"/>
<path d="M1409.63 7.54161L1436.31 1.20371L1439.33 7.68901L1354.36 27.4397L1350.82 19.8489L1420.17 -32.9915L1423.34 -26.2851L1401.52 -9.70337L1409.63 7.54161ZM1394.3 -4.76569L1374.33 10.4158C1369.83 13.8795 1365.56 16.7537 1361.43 19.5541V19.7015C1366.44 18.2276 1371.53 16.8274 1376.61 15.5745L1401.16 9.82621L1394.3 -4.8394V-4.76569Z" fill="#F5F5F5"/>
<path d="M1226.13 31.9346C1224.8 27.3654 1220.97 24.1228 1216.25 23.6069C1215.51 23.6069 1214.78 23.6069 1214.04 23.6806L1166.73 33.1138V7.32C1166.73 -0.270741 1160.39 -6.38755 1152.65 -6.38755H1003.49C1001.06 -6.38755 999.141 -8.22996 999.141 -10.5882L999.067 -47.9524C999.067 -55.5431 992.73 -61.6599 984.991 -61.6599H943.574C935.836 -61.6599 929.498 -55.4694 929.498 -47.9524V-10.7356L929.424 -10.6619C929.424 -8.30365 927.434 -6.46124 925.076 -6.46124H775.915C768.176 -6.46124 761.839 -0.344452 761.839 7.24628V33.0401L714.525 23.6069C713.788 23.4595 713.051 23.4595 712.314 23.5332C707.598 24.0491 703.766 27.2917 702.439 31.8609C702.218 32.7453 702.144 33.6296 702.218 34.514L744.004 407.271L745.478 420.757C747.541 431.959 754.543 441.982 765.007 448.32L948.733 547.22C953.67 549.21 958.903 550.242 964.135 550.242C969.368 550.242 974.6 549.21 979.612 547.22L1163.34 448.32C1173.8 441.982 1180.88 431.959 1182.87 420.757L1184.34 407.271L1226.13 34.514C1226.2 33.6296 1226.13 32.6716 1225.91 31.8609L1226.13 31.9346ZM776.209 7.46739H929.424C937.384 7.46739 943.795 1.1295 943.795 -6.60863V-38.7403C943.795 -43.6043 947.701 -47.5839 952.712 -47.805H975.779C980.791 -47.5839 984.697 -43.678 984.697 -38.7403V-6.60863C984.697 1.1295 991.108 7.46739 999.067 7.46739H1152.28V35.9142L1129.81 40.4097V30.387C1129.81 22.5752 1123.32 16.2373 1115.29 16.2373H1057.44C1049.48 16.2373 1042.92 22.5752 1042.92 30.387V57.6547L1021.69 61.8554V30.387C1021.69 23.0174 1015.5 16.9742 1007.91 16.9742H920.433C912.843 16.9742 906.652 23.0174 906.652 30.387V61.8554L885.428 57.6547V30.387C885.428 22.5752 878.942 16.2373 870.909 16.2373H813.058C805.025 16.2373 798.539 22.5752 798.539 30.387V40.4097L776.136 35.9142V7.46739H776.209ZM1114.77 43.3576L1058.32 54.5594V30.9766H1114.77V43.3576ZM1008.13 64.5085L975.706 70.9201C974.232 71.2885 966.862 72.3203 964.356 72.3203C961.851 72.3203 954.555 71.3622 953.007 70.9201L920.507 64.5085V30.3133H1008.06V64.5822L1008.13 64.5085ZM870.32 54.5594L813.868 43.3576V30.9766H870.32V54.5594ZM1168.57 418.325C1167.46 425.032 1162.53 432.254 1155.67 436.16L973.495 534.25C970.989 535.208 967.746 535.724 964.356 535.724C960.966 535.724 957.724 535.208 955.218 534.25L773.04 436.16C766.187 432.254 761.249 425.032 760.144 418.325L718.431 45.9369C718.431 43.3576 719.389 39.3043 726.98 40.9256L949.617 85.0698C951.165 85.512 952.786 85.8067 954.407 86.0278C957.65 86.5437 960.966 86.7648 964.283 86.7648C967.599 86.7648 970.915 86.5437 974.158 86.0278C975.779 85.8067 977.401 85.512 978.948 85.0698L1201.66 40.9256C1209.25 39.3043 1210.28 43.3576 1210.21 45.9369L1168.5 418.325H1168.57Z" fill="#F5F5F5"/>
<path d="M1064.51 159.061C1090.3 159.061 1110.06 146.606 1110.06 126.34C1110.06 106.073 1090.3 93.6187 1064.51 93.6187C1038.72 93.6187 1018.89 106.073 1018.89 126.34C1018.89 146.606 1038.64 159.061 1064.51 159.061ZM1064.51 107.621C1076.38 107.621 1086.03 114.843 1086.03 126.266C1086.03 137.689 1076.38 144.911 1064.51 144.911C1052.65 144.911 1042.99 137.689 1042.99 126.266C1042.99 114.843 1052.65 107.621 1064.51 107.621Z" fill="#F5F5F5"/>
<path d="M995.973 162.598V177.19H1052.13V199.152H1074.9V177.19H1132.97V162.598H995.973Z" fill="#F5F5F5"/>
<path d="M1028.77 184.192H1006.14V214.628C1006.14 220.671 1009.68 226.936 1019.04 226.936H1125.02V212.491H1028.77V184.118V184.192Z" fill="#F5F5F5"/>
<path d="M893.608 168.125V153.902H885.944V113.958C885.944 108.726 881.596 104.378 876.363 104.378H802.446V119.559H864.351V153.902H838.926V131.056H818.512V153.902H796.182V168.494H849.464C834.43 173.873 824.186 184.559 824.186 197.677C824.186 216.544 845.632 230.62 872.015 230.62C898.399 230.62 919.918 216.544 919.918 197.677C919.918 184.338 909.232 173.431 893.682 168.199L893.608 168.125ZM871.942 216.249C858.971 216.249 848.432 208.437 848.432 197.53C848.432 186.623 858.971 178.811 871.942 178.811C884.912 178.811 895.451 186.623 895.451 197.53C895.451 208.437 884.912 216.249 871.942 216.249Z" fill="#F5F5F5"/>
<path d="M943.796 126.118H923.603V100.177H900.757V167.314H923.603V141.373H943.796V126.118Z" fill="#F5F5F5"/>
<path d="M1172.55 238.138L1141.67 244.919C1139.61 245.508 1136.22 245.95 1134.08 245.95H1064.66C1027.66 245.95 987.056 268.354 987.056 342.861V433.139C987.056 439.772 980.497 439.772 978.36 439.772C976.222 439.772 969.663 440.067 969.663 433.139V342.861C969.663 298.864 937.532 245.95 884.102 245.95H773.115C770.978 245.95 769.209 247.719 769.209 249.856V335.492C769.209 337.629 770.462 340.577 771.936 342.124L794.634 364.823C796.108 366.297 797.361 369.318 797.361 371.455L797.508 404.471C797.508 430.413 833.03 430.413 836.273 430.413C839.515 430.413 875.774 430.634 875.774 404.471C875.774 404.471 875.332 361.727 875.332 350.747C875.332 339.766 867.299 331.88 862.804 331.88C858.308 331.88 858.161 336.302 858.161 339.766V404.471C858.161 421.79 839.073 421.422 836.199 421.422C833.325 421.422 814.238 421.569 814.238 404.471V372.192C814.238 370.055 812.985 367.107 811.511 365.56L793.75 347.799C792.202 346.325 791.023 343.303 791.023 341.166V262.606C791.023 260.468 792.792 258.7 794.929 258.7H884.028C913.138 258.7 932.815 307.339 932.815 326.869V445.889C932.815 448.026 934.584 449.795 936.721 449.795H1000.32C1021.03 449.795 1021.18 429.307 1021.18 429.307V326.943C1021.18 297.317 1045.13 258.773 1064.58 258.773H1129.44C1131.57 258.773 1132.75 260.395 1132.09 262.458C1132.09 262.458 1117.87 314.93 1115.95 318.836C1114.03 322.742 1109.83 324.069 1107.7 324.069H1083.75C1081.61 324.069 1076.67 324.29 1079.84 327.827C1083.01 331.365 1091.19 331.586 1093.33 331.586H1107.7C1109.83 331.586 1111.46 333.281 1110.64 335.27C1110.64 335.27 1105.41 357.674 1101.29 366.297C1097.16 374.993 1093.4 374.993 1091.26 374.993H1068.64C1065.25 374.993 1061.34 376.614 1064.73 380.225C1068.2 383.91 1073.87 383.173 1077.48 383.173H1093.03C1095.17 383.173 1096.13 385.384 1095.09 387.3C1095.09 387.3 1091.63 398.281 1088.9 406.019C1086.18 413.757 1073.43 414.936 1071.36 414.936H1054.05C1051.91 414.936 1048.59 415.6 1050.14 418.695C1051.76 421.79 1060.09 422.453 1062.23 422.453H1083.23C1093.03 422.453 1102.1 414.642 1108.43 402.85C1114.77 391.059 1114.4 387.595 1115.14 384.721C1115.8 381.847 1115.29 381.625 1114.11 381.994C1109.98 383.173 1103.79 383.026 1103.79 383.026C1103.79 383.026 1118.6 377.351 1126.42 358.853C1131.35 347.136 1134.45 336.376 1135.04 334.165C1135.63 331.954 1135.04 331.659 1134.15 331.88C1129.58 333.502 1125.24 333.06 1125.24 333.06C1125.24 333.06 1138.21 327.606 1150.37 299.012C1162.45 270.491 1174.69 240.718 1174.69 240.718C1175.5 238.802 1174.54 237.623 1172.48 238.212L1172.55 238.138Z" fill="#F5F5F5"/>
<path d="M831.556 297.833C829.419 297.833 826.987 299.454 826.177 301.444L818.217 320.752C817.407 322.742 818.512 324.363 820.649 324.363H832.072C834.21 324.363 836.642 322.742 837.452 320.752L845.411 301.444C846.222 299.454 845.117 297.833 843.053 297.833H831.63H831.556Z" fill="#F5F5F5"/>
</g>
<g opacity="0.1">
<path d="M-215.988 776.048C-369.867 776.048 -514.533 716.133 -623.309 607.357C-732.085 498.508 -792 353.841 -792 200.037C-792 46.2322 -732.085 -98.5076 -623.309 -207.357C-514.459 -316.133 -369.793 -376.049 -215.988 -376.049C-62.1837 -376.049 82.5561 -316.133 191.332 -207.357C300.108 -98.5813 360.023 46.0849 360.023 199.963C360.023 353.841 300.108 498.508 191.332 607.284C82.5561 716.059 -62.11 775.975 -215.988 775.975V776.048ZM-215.988 -358.288C-523.818 -358.288 -774.313 -107.867 -774.313 200.037C-774.313 507.941 -523.818 758.361 -215.988 758.361C91.8419 758.361 342.336 507.941 342.336 200.037C342.336 -107.867 91.9156 -358.288 -215.988 -358.288Z" fill="#F5F5F5"/>
<path d="M-215.988 746.865C-362.054 746.865 -499.351 689.971 -602.673 586.723C-705.922 483.4 -762.816 346.03 -762.816 200.037C-762.816 54.0443 -705.922 -83.3259 -602.673 -186.648C-499.351 -289.971 -361.981 -346.865 -215.988 -346.865C-69.9952 -346.865 67.4487 -289.971 170.698 -186.722C273.946 -83.3996 330.84 53.897 330.84 199.963C330.84 346.03 273.946 483.326 170.698 586.649C67.4487 689.898 -69.9215 746.791 -215.988 746.791V746.865ZM-215.988 -340.158C-513.795 -340.158 -756.11 -97.8441 -756.11 200.037C-756.11 497.918 -513.795 740.232 -215.914 740.232C81.9669 740.232 324.281 497.918 324.281 200.037C324.281 -97.8441 81.8932 -340.158 -215.988 -340.158Z" fill="#F5F5F5"/>
<path d="M-215.988 596.008C-434.351 596.008 -612.033 418.326 -612.033 199.963C-612.033 -18.3995 -434.351 -196.082 -215.988 -196.082C2.37445 -196.082 180.057 -18.3995 180.057 199.963C180.057 418.326 2.37445 596.008 -215.988 596.008ZM-215.988 -189.375C-430.666 -189.375 -605.401 -14.7147 -605.401 200.037C-605.401 414.788 -430.74 589.449 -215.988 589.449C-1.23669 589.449 173.424 414.788 173.424 200.037C173.424 -14.7147 -1.23669 -189.375 -215.988 -189.375Z" fill="#F5F5F5"/>
<path d="M-215.989 578.615C-424.771 578.615 -594.567 408.745 -594.567 199.963C-594.567 -8.81927 -424.697 -178.69 -215.989 -178.69C-7.28009 -178.69 162.664 -8.81927 162.664 199.963C162.664 408.745 -7.20642 578.615 -215.989 578.615ZM-215.989 -167.562C-418.654 -167.562 -583.513 -2.70247 -583.513 199.963C-583.513 402.628 -418.654 567.487 -215.989 567.487C-13.3232 567.487 151.536 402.628 151.536 199.963C151.536 -2.70247 -13.3232 -167.562 -215.989 -167.562Z" fill="#F5F5F5"/>
<path d="M213.663 392.015L204.008 410.513L231.276 424.737L242.036 404.102L250.216 408.376L236.287 435.201L160.675 395.847L174.088 370.127L182.268 374.402L172.098 394.005L195.975 406.46L205.63 387.962L213.736 392.163L213.663 392.015Z" fill="#F5F5F5"/>
<path d="M232.012 335.713C259.648 345.588 270.556 361.359 265.986 374.33C261.196 387.669 241.445 391.206 217.126 382.584C191.627 373.519 178.509 357.6 183.299 344.04C188.237 330.259 208.208 327.237 232.012 335.786V335.713ZM219.336 375.509C236.508 381.625 253.974 381.257 257.659 370.939C261.343 360.548 248.299 349.346 230.096 342.861C214.104 337.187 195.532 336.523 191.7 347.357C187.868 358.19 201.797 369.244 219.41 375.509H219.336Z" fill="#F5F5F5"/>
<path d="M195.312 309.624L244.541 320.899C263.186 325.174 272.251 321.784 273.872 314.782C275.641 307.044 268.64 300.191 250.289 295.99L201.06 284.714L202.608 277.861L251.1 288.915C276.599 294.737 285.148 305.644 282.568 316.993C280.136 327.753 268.492 333.575 242.699 327.679L193.69 316.478L195.238 309.624H195.312Z" fill="#F5F5F5"/>
<path d="M203.934 268.648L204.892 261.795L280.209 272.112L283.305 249.414L292.443 250.666L288.39 280.292L203.86 268.722L203.934 268.648Z" fill="#F5F5F5"/>
<path d="M210.124 202.321L209.977 195.394L251.099 194.73V194.509C247.783 193.109 244.688 191.709 241.887 190.456L209.608 174.611L209.461 165.989L246.014 184.781L294.728 162.967L294.875 171.148L253.31 189.572L262.743 194.509L295.244 193.993L295.391 200.921L210.124 202.395V202.321Z" fill="#F5F5F5"/>
<path d="M245.204 113.002C274.314 109.391 291.191 118.676 292.812 132.237C294.581 146.313 278.441 158.325 252.795 161.494C225.896 164.81 207.03 156.483 205.261 142.186C203.492 127.594 220 116.023 245.131 112.928L245.204 113.002ZM251.69 154.198C269.745 151.987 285.222 143.807 283.895 132.974C282.568 122.067 265.839 117.866 246.604 120.224C229.802 122.288 212.852 130.026 214.325 141.522C215.726 152.945 233.118 156.556 251.763 154.272L251.69 154.198Z" fill="#F5F5F5"/>
<path d="M203.418 112.485C201.502 109.317 199.733 104.6 198.554 99.957C196.859 92.7348 197.817 87.5761 201.649 83.228C204.745 79.6905 209.977 76.8901 216.389 75.3424C227.369 72.6894 235.623 75.3424 239.898 80.059H240.266C241.519 75.4161 246.825 71.5839 255.153 68.2676C266.281 63.7721 274.019 60.6032 276.967 58.7607L278.662 65.7619C276.525 67.1621 269.671 70.0363 259.722 74.0159C248.668 78.2903 245.057 82.1225 246.162 88.3867L247.71 94.7246L283.6 86.0284L285.221 92.8085L203.418 112.559V112.485ZM239.529 96.6407L237.834 89.7133C236.066 82.491 228.696 79.4694 219.263 81.754C208.577 84.3334 205.039 90.3765 206.661 97.5251C207.471 100.768 208.503 102.979 209.24 103.937L239.529 96.6407Z" fill="#F5F5F5"/>
<path d="M226.117 33.0405L232.971 52.7912L262.007 42.6948L254.343 20.7332L263.112 17.7117L273.062 46.2322L192.511 74.2369L183.004 46.8218L191.701 43.8002L198.923 64.6563L224.348 55.8127L217.494 36.0621L226.117 33.0405Z" fill="#F5F5F5"/>
<path d="M229.654 7.54161L256.332 1.20371L259.354 7.68901L174.382 27.4397L170.844 19.8489L240.193 -32.9915L243.362 -26.2851L221.547 -9.70337L229.654 7.54161ZM214.325 -4.76569L194.353 10.4158C189.858 13.8795 185.584 16.7537 181.457 19.5541V19.7015C186.468 18.2276 191.553 16.8274 196.638 15.5745L221.179 9.82621L214.325 -4.8394V-4.76569Z" fill="#F5F5F5"/>
<path d="M46.1503 31.9346C44.8238 27.3654 40.9915 24.1228 36.275 23.6069C35.538 23.6069 34.801 23.6069 34.0641 23.6806L-13.2491 33.1138V7.32C-13.2491 -0.270741 -19.587 -6.38755 -27.3251 -6.38755H-176.487C-178.919 -6.38755 -180.835 -8.22996 -180.835 -10.5882L-180.909 -47.9524C-180.909 -55.5431 -187.246 -61.6599 -194.985 -61.6599H-236.402C-244.14 -61.6599 -250.478 -55.4694 -250.478 -47.9524V-10.7356L-250.552 -10.6619C-250.552 -8.30365 -252.542 -6.46124 -254.9 -6.46124H-404.062C-411.8 -6.46124 -418.138 -0.344452 -418.138 7.24628V33.0401L-465.451 23.6069C-466.188 23.4595 -466.925 23.4595 -467.662 23.5332C-472.378 24.0491 -476.21 27.2917 -477.537 31.8609C-477.758 32.7453 -477.832 33.6296 -477.758 34.514L-435.972 407.271L-434.498 420.757C-432.435 431.959 -425.434 441.982 -414.969 448.32L-231.243 547.22C-226.306 549.21 -221.073 550.242 -215.841 550.242C-210.608 550.242 -205.376 549.21 -200.364 547.22L-16.6391 448.32C-6.17422 441.982 0.900665 431.959 2.89047 420.757L4.36438 407.271L46.1503 34.514C46.224 33.6296 46.1503 32.6716 45.9292 31.8609L46.1503 31.9346ZM-403.767 7.46739H-250.552C-242.593 7.46739 -236.181 1.1295 -236.181 -6.60863V-38.7403C-236.181 -43.6043 -232.275 -47.5839 -227.264 -47.805H-204.197C-199.185 -47.5839 -195.279 -43.678 -195.279 -38.7403V-6.60863C-195.279 1.1295 -188.868 7.46739 -180.909 7.46739H-27.6936V35.9142L-50.171 40.4097V30.387C-50.171 22.5752 -56.6563 16.2373 -64.6892 16.2373H-122.541C-130.5 16.2373 -137.059 22.5752 -137.059 30.387V57.6547L-158.284 61.8554V30.387C-158.284 23.0174 -164.474 16.9742 -172.065 16.9742H-259.543C-267.133 16.9742 -273.324 23.0174 -273.324 30.387V61.8554L-294.549 57.6547V30.387C-294.549 22.5752 -301.034 16.2373 -309.067 16.2373H-366.918C-374.951 16.2373 -381.437 22.5752 -381.437 30.387V40.4097L-403.84 35.9142V7.46739H-403.767ZM-65.2051 43.3576L-121.657 54.5594V30.9766H-65.2051V43.3576ZM-171.844 64.5085L-204.27 70.9201C-205.744 71.2885 -213.114 72.3203 -215.62 72.3203C-218.125 72.3203 -225.421 71.3622 -226.969 70.9201L-259.469 64.5085V30.3133H-171.918V64.5822L-171.844 64.5085ZM-309.656 54.5594L-366.108 43.3576V30.9766H-309.656V54.5594ZM-11.4067 418.325C-12.5121 425.032 -17.4498 432.254 -24.3036 436.16L-206.481 534.25C-208.987 535.208 -212.23 535.724 -215.62 535.724C-219.01 535.724 -222.252 535.208 -224.758 534.25L-406.936 436.16C-413.789 432.254 -418.727 425.032 -419.833 418.325L-461.545 45.9369C-461.545 43.3576 -460.587 39.3043 -452.996 40.9256L-230.359 85.0698C-228.811 85.512 -227.19 85.8067 -225.569 86.0278C-222.326 86.5437 -219.01 86.7648 -215.693 86.7648C-212.377 86.7648 -209.061 86.5437 -205.818 86.0278C-204.197 85.8067 -202.575 85.512 -201.028 85.0698L21.6831 40.9256C29.2738 39.3043 30.3055 43.3576 30.2318 45.9369L-11.4803 418.325H-11.4067Z" fill="#F5F5F5"/>
</g>
<g opacity="0.1">
<path d="M2136.01 776.048C1982.13 776.048 1837.47 716.133 1728.69 607.357C1619.92 498.508 1560 353.841 1560 200.037C1560 46.2322 1619.92 -98.5076 1728.69 -207.357C1837.54 -316.133 1982.21 -376.049 2136.01 -376.049C2289.82 -376.049 2434.56 -316.133 2543.33 -207.357C2652.11 -98.5813 2712.02 46.0849 2712.02 199.963C2712.02 353.841 2652.11 498.508 2543.33 607.284C2434.56 716.059 2289.89 775.975 2136.01 775.975V776.048ZM2136.01 -358.288C1828.18 -358.288 1577.69 -107.867 1577.69 200.037C1577.69 507.941 1828.18 758.361 2136.01 758.361C2443.84 758.361 2694.34 507.941 2694.34 200.037C2694.34 -107.867 2443.92 -358.288 2136.01 -358.288Z" fill="#F5F5F5"/>
<path d="M2136.01 746.865C1989.95 746.865 1852.65 689.971 1749.33 586.723C1646.08 483.4 1589.18 346.03 1589.18 200.037C1589.18 54.0443 1646.08 -83.3259 1749.33 -186.648C1852.65 -289.971 1990.02 -346.865 2136.01 -346.865C2282.01 -346.865 2419.45 -289.971 2522.7 -186.722C2625.95 -83.3996 2682.84 53.897 2682.84 199.963C2682.84 346.03 2625.95 483.326 2522.7 586.649C2419.45 689.898 2282.08 746.791 2136.01 746.791V746.865ZM2136.01 -340.158C1838.21 -340.158 1595.89 -97.8441 1595.89 200.037C1595.89 497.918 1838.21 740.232 2136.09 740.232C2433.97 740.232 2676.28 497.918 2676.28 200.037C2676.28 -97.8441 2433.89 -340.158 2136.01 -340.158Z" fill="#F5F5F5"/>
<path d="M2136.01 596.008C1917.65 596.008 1739.97 418.326 1739.97 199.963C1739.97 -18.3995 1917.65 -196.082 2136.01 -196.082C2354.37 -196.082 2532.06 -18.3995 2532.06 199.963C2532.06 418.326 2354.37 596.008 2136.01 596.008ZM2136.01 -189.375C1921.33 -189.375 1746.6 -14.7147 1746.6 200.037C1746.6 414.788 1921.26 589.449 2136.01 589.449C2350.76 589.449 2525.42 414.788 2525.42 200.037C2525.42 -14.7147 2350.76 -189.375 2136.01 -189.375Z" fill="#F5F5F5"/>
<path d="M2136.01 578.615C1927.23 578.615 1757.43 408.745 1757.43 199.963C1757.43 -8.81927 1927.3 -178.69 2136.01 -178.69C2344.72 -178.69 2514.66 -8.81927 2514.66 199.963C2514.66 408.745 2344.79 578.615 2136.01 578.615ZM2136.01 -167.562C1933.35 -167.562 1768.49 -2.70247 1768.49 199.963C1768.49 402.628 1933.35 567.487 2136.01 567.487C2338.68 567.487 2503.54 402.628 2503.54 199.963C2503.54 -2.70247 2338.68 -167.562 2136.01 -167.562Z" fill="#F5F5F5"/>
<path d="M1758.39 6.36345L1755.66 12.2592L1718.3 -4.9121V-4.69102C1720.66 -2.11164 1722.8 0.394037 1724.86 2.67863L1747.56 30.02L1744.17 37.3897L1718.89 5.70018L1666.05 3.0471L1669.29 -3.95404L1714.25 -1.52207L1707.76 -9.77607L1678.21 -23.3362L1680.94 -29.2319L1758.46 6.36345H1758.39Z" fill="#F5F5F5"/>
<path d="M1658.83 22.1349L1743.87 36.6532L1741.74 43.1385L1698.84 35.3266C1688.31 33.4105 1677.77 31.4207 1669.66 29.652V29.7994C1677.4 33.1894 1686.54 37.906 1696.49 42.9174L1735.25 62.7417L1733.11 69.1533L1690.07 61.4889C1680.05 59.6465 1669.95 57.8041 1661.18 55.6669V55.8142C1669.73 59.7201 1678.28 64.0682 1687.86 68.8585L1726.63 88.6092L1724.56 94.9471L1647.99 54.7825L1650.13 48.2972L1694.27 56.109C1705.11 58.0251 1713.36 59.6465 1721.76 61.71V61.5626C1714.03 58.0988 1706.43 54.414 1696.56 49.1816L1656.62 28.4728L1658.75 21.9875L1658.83 22.1349Z" fill="#F5F5F5"/>
<path d="M1666.79 89.7142L1641.66 78.9545L1643.06 72.3955L1722.87 106.959L1721.25 114.624L1634.29 113.518L1635.76 106.738L1663.1 107.107L1666.86 89.6405L1666.79 89.7142ZM1671.72 107.622L1696.78 107.991C1702.46 107.991 1707.54 108.359 1712.55 108.654V108.507C1707.76 106.738 1702.9 104.822 1698.03 102.758L1674.97 92.7358L1671.8 107.549L1671.72 107.622Z" fill="#F5F5F5"/>
<path d="M1632.3 126.415L1717.05 135.627L1716.31 142.702L1671.65 154.051C1661.33 156.704 1652.05 158.621 1643.13 160.021L1643.28 160.168C1654.63 160.831 1665.02 161.789 1678.21 163.19L1713.66 167.022L1712.99 173.139L1628.17 163.927L1628.91 157.368L1673.64 146.166C1683.44 143.734 1693.46 141.449 1702.97 139.902V139.681C1692.14 138.87 1681.97 137.912 1667.82 136.364L1631.56 132.385L1632.22 126.268L1632.3 126.415Z" fill="#F5F5F5"/>
<path d="M1631.04 219.494C1629.27 216.619 1626.4 210.871 1626.4 204.017C1626.4 196.427 1629.72 190.162 1637.68 185.225C1644.75 180.877 1656.17 178.224 1669.44 178.224C1694.86 178.224 1713.44 188.615 1713.44 205.491C1713.44 211.313 1711.3 215.883 1709.53 218.02L1700.54 216.472C1702.6 213.745 1704.22 210.429 1704.22 205.344C1704.22 193.11 1691.33 185.151 1669.96 185.151C1648.58 185.151 1635.54 192.816 1635.54 204.533C1635.54 208.808 1636.57 211.682 1637.82 213.229H1663.25V202.986H1672.09V219.567H1631.12L1631.04 219.494Z" fill="#F5F5F5"/>
<path d="M1628.98 244.404L1711.96 221.042L1712.85 227.896L1670.76 239.245C1660.37 242.045 1650.06 244.698 1641.95 246.614V246.762C1650.5 246.467 1660.74 246.762 1671.87 247.13L1715.42 248.383L1716.31 255.09L1674.15 266.586C1664.28 269.239 1654.4 271.892 1645.56 273.735V273.882C1654.99 273.735 1664.57 273.956 1675.33 274.177L1718.89 275.356L1719.7 281.989L1633.25 278.525L1632.44 271.819L1675.7 259.954C1686.31 257.006 1694.5 254.942 1702.9 253.173V253.026C1694.35 253.173 1685.95 253.1 1674.74 252.658L1629.79 251.11L1628.91 244.404H1628.98Z" fill="#F5F5F5"/>
<path d="M1691.25 336.303C1662.81 343.673 1645.12 337.408 1641.88 325.027C1638.56 312.131 1653.08 298.718 1678.06 292.233C1704.3 285.379 1723.9 290.537 1727.29 303.582C1730.75 316.847 1715.72 329.965 1691.18 336.377L1691.25 336.303ZM1680.05 298.865C1662.44 303.434 1648.07 313.162 1650.65 323.111C1653.23 333.06 1670.25 334.682 1689.04 329.818C1705.48 325.543 1721.32 316.036 1718.59 305.572C1715.87 295.18 1698.25 294.222 1680.13 298.939L1680.05 298.865Z" fill="#F5F5F5"/>
<path d="M1709.75 385.605C1682.34 396.07 1664.06 391.869 1659.42 379.857C1654.7 367.476 1667.67 352.515 1691.77 343.229C1717.05 333.575 1737.17 336.449 1741.96 349.051C1746.89 361.875 1733.41 376.54 1709.75 385.605ZM1694.5 349.641C1677.47 356.126 1664.35 367.402 1667.97 376.982C1671.65 386.637 1688.75 386.268 1706.8 379.414C1722.65 373.371 1737.31 362.169 1733.48 351.999C1729.65 341.977 1711.96 342.935 1694.5 349.641Z" fill="#F5F5F5"/>
<path d="M1674.67 413.315L1751.02 375.361L1754.19 381.699L1722.72 415.305C1715.43 423.116 1708.65 429.749 1701.94 435.719H1702.09C1712.04 430.191 1721.25 425.475 1733.19 419.505L1765.1 403.661L1767.82 409.114L1691.47 447.068L1688.53 441.172L1720.14 407.64C1727.07 400.27 1734.29 392.901 1741.44 386.563L1741.22 386.416C1731.79 391.574 1722.65 396.217 1709.97 402.555L1677.32 418.768L1674.6 413.315H1674.67Z" fill="#F5F5F5"/>
<path d="M2398.15 31.9346C2396.82 27.3654 2392.99 24.1228 2388.27 23.6069C2387.54 23.6069 2386.8 23.6069 2386.06 23.6806L2338.75 33.1138V7.32C2338.75 -0.270741 2332.41 -6.38755 2324.67 -6.38755H2175.51C2173.08 -6.38755 2171.16 -8.22996 2171.16 -10.5882L2171.09 -47.9524C2171.09 -55.5431 2164.75 -61.6599 2157.01 -61.6599H2115.6C2107.86 -61.6599 2101.52 -55.4694 2101.52 -47.9524V-10.7356L2101.45 -10.6619C2101.45 -8.30365 2099.46 -6.46124 2097.1 -6.46124H1947.94C1940.2 -6.46124 1933.86 -0.344452 1933.86 7.24628V33.0401L1886.55 23.6069C1885.81 23.4595 1885.07 23.4595 1884.34 23.5332C1879.62 24.0491 1875.79 27.2917 1874.46 31.8609C1874.24 32.7453 1874.17 33.6296 1874.24 34.514L1916.03 407.271L1917.5 420.757C1919.56 431.959 1926.57 441.982 1937.03 448.32L2120.76 547.22C2125.69 549.21 2130.93 550.242 2136.16 550.242C2141.39 550.242 2146.62 549.21 2151.64 547.22L2335.36 448.32C2345.83 441.982 2352.9 431.959 2354.89 420.757L2356.36 407.271L2398.15 34.514C2398.22 33.6296 2398.15 32.6716 2397.93 31.8609L2398.15 31.9346ZM1948.23 7.46739H2101.45C2109.41 7.46739 2115.82 1.1295 2115.82 -6.60863V-38.7403C2115.82 -43.6043 2119.72 -47.5839 2124.74 -47.805H2147.8C2152.81 -47.5839 2156.72 -43.678 2156.72 -38.7403V-6.60863C2156.72 1.1295 2163.13 7.46739 2171.09 7.46739H2324.31V35.9142L2301.83 40.4097V30.387C2301.83 22.5752 2295.34 16.2373 2287.31 16.2373H2229.46C2221.5 16.2373 2214.94 22.5752 2214.94 30.387V57.6547L2193.72 61.8554V30.387C2193.72 23.0174 2187.53 16.9742 2179.93 16.9742H2092.46C2084.87 16.9742 2078.68 23.0174 2078.68 30.387V61.8554L2057.45 57.6547V30.387C2057.45 22.5752 2050.97 16.2373 2042.93 16.2373H1985.08C1977.05 16.2373 1970.56 22.5752 1970.56 30.387V40.4097L1948.16 35.9142V7.46739H1948.23ZM2286.79 43.3576L2230.34 54.5594V30.9766H2286.79V43.3576ZM2180.16 64.5085L2147.73 70.9201C2146.26 71.2885 2138.89 72.3203 2136.38 72.3203C2133.87 72.3203 2126.58 71.3622 2125.03 70.9201L2092.53 64.5085V30.3133H2180.08V64.5822L2180.16 64.5085ZM2042.34 54.5594L1985.89 43.3576V30.9766H2042.34V54.5594ZM2340.59 418.325C2339.49 425.032 2334.55 432.254 2327.7 436.16L2145.52 534.25C2143.01 535.208 2139.77 535.724 2136.38 535.724C2132.99 535.724 2129.75 535.208 2127.24 534.25L1945.06 436.16C1938.21 432.254 1933.27 425.032 1932.17 418.325L1890.45 45.9369C1890.45 43.3576 1891.41 39.3043 1899 40.9256L2121.64 85.0698C2123.19 85.512 2124.81 85.8067 2126.43 86.0278C2129.67 86.5437 2132.99 86.7648 2136.31 86.7648C2139.62 86.7648 2142.94 86.5437 2146.18 86.0278C2147.8 85.8067 2149.42 85.512 2150.97 85.0698L2373.68 40.9256C2381.27 39.3043 2382.31 43.3576 2382.23 45.9369L2340.52 418.325H2340.59Z" fill="#F5F5F5"/>
</g>
<path d="M894.678 274.594C894.678 276.094 894.912 277.418 895.381 278.566C895.855 279.715 896.623 280.57 897.684 281.133L896.365 282.908C895.059 282.199 894.121 280.986 893.553 279.27C893.254 280.189 892.858 281.001 892.366 281.704C891.874 282.401 891.279 282.961 890.582 283.383L889.176 281.748C890.307 281.068 891.139 280.104 891.672 278.856C892.211 277.603 892.486 276.234 892.498 274.752V271.992H894.678V274.594ZM903.344 286.617H901.199V278.654H899.811V285.879H897.701V270.85H899.811V276.861H901.199V270.621H903.344V286.617ZM919.134 284.842H904.491V282.996H910.661V280.588H906.179V275.209H915.231V273.451H906.161V271.658H917.446V276.967H908.429V278.76H917.815V280.588H912.894V282.996H919.134V284.842ZM922.074 275.648H924.254V272.045H926.328V282.82H919.965V272.045H922.074V275.648ZM924.254 281.027V277.406H922.074V281.027H924.254ZM933.377 286.617H931.233V278.549H929.791V285.879H927.664V270.85H929.791V276.721H931.233V270.621H933.377V286.617ZM941.819 270.832C943.003 270.838 944.028 270.967 944.896 271.219C945.769 271.465 946.443 271.819 946.917 272.282C947.392 272.745 947.632 273.299 947.638 273.943C947.632 274.57 947.392 275.112 946.917 275.569C946.443 276.026 945.769 276.378 944.896 276.624C944.023 276.864 942.997 276.984 941.819 276.984C940.648 276.984 939.622 276.864 938.743 276.624C937.864 276.378 937.185 276.026 936.704 275.569C936.224 275.112 935.984 274.57 935.984 273.943C935.984 273.305 936.221 272.754 936.695 272.291C937.176 271.822 937.856 271.465 938.734 271.219C939.613 270.967 940.642 270.838 941.819 270.832ZM941.819 272.555C940.689 272.555 939.821 272.672 939.218 272.906C938.614 273.141 938.316 273.486 938.321 273.943C938.316 274.377 938.614 274.708 939.218 274.937C939.827 275.165 940.694 275.279 941.819 275.279C942.939 275.279 943.8 275.165 944.403 274.937C945.013 274.708 945.318 274.377 945.318 273.943C945.318 273.486 945.016 273.141 944.412 272.906C943.809 272.672 942.944 272.555 941.819 272.555ZM947.374 286.441H936.212V280.992H940.694V279.604H934.525V277.811H949.114V279.604H942.927V280.992H947.374V286.441ZM938.427 284.648H945.177V282.768H938.427V284.648ZM963.041 286.652H960.826V278.074H958.014V276.264H960.826V270.621H963.041V286.652ZM957.75 273.768H952.512V276.422H957.17V278.18H952.512V281.203C953.719 281.191 954.782 281.159 955.702 281.106C956.622 281.048 957.551 280.945 958.488 280.799L958.717 282.592C957.604 282.762 956.496 282.879 955.395 282.943C954.293 283.002 953.01 283.031 951.545 283.031H950.279V271.957H957.75V273.768ZM981.561 282.311H979.311V270.639H981.561V282.311ZM981.983 286.336H970.838V281.186H973.106V284.543H981.983V286.336ZM974.301 273.064C974.295 273.791 974.424 274.485 974.688 275.147C974.957 275.81 975.37 276.398 975.927 276.914C976.489 277.43 977.196 277.822 978.045 278.092L976.903 279.85C976.024 279.557 975.268 279.126 974.635 278.558C974.002 277.989 973.504 277.315 973.141 276.536C972.772 277.38 972.262 278.112 971.612 278.733C970.961 279.354 970.182 279.82 969.274 280.131L968.114 278.355C968.975 278.068 969.693 277.649 970.267 277.099C970.847 276.548 971.275 275.927 971.55 275.235C971.825 274.538 971.963 273.814 971.963 273.064V271.518H974.301V273.064ZM992.306 274.049H989.072C989.077 274.611 989.221 275.156 989.502 275.684C989.783 276.211 990.208 276.68 990.777 277.09C991.345 277.5 992.042 277.811 992.868 278.021L991.831 279.744C990.941 279.521 990.173 279.173 989.529 278.698C988.884 278.218 988.374 277.644 987.999 276.976C987.642 277.743 987.138 278.402 986.488 278.953C985.837 279.498 985.052 279.902 984.132 280.166L983.077 278.426C983.904 278.191 984.595 277.849 985.152 277.397C985.714 276.946 986.133 276.434 986.408 275.859C986.69 275.279 986.833 274.676 986.839 274.049H983.622V272.291H986.839V270.551H989.107V272.291H992.306V274.049ZM996.665 280.289H994.433V276.703H991.831V274.91H994.433V270.621H996.665V280.289ZM991.199 280.553C992.335 280.559 993.317 280.679 994.143 280.913C994.969 281.147 995.602 281.49 996.041 281.941C996.487 282.387 996.712 282.926 996.718 283.559C996.712 284.197 996.487 284.745 996.041 285.202C995.596 285.665 994.96 286.017 994.134 286.257C993.308 286.497 992.329 286.617 991.199 286.617C990.074 286.617 989.098 286.497 988.272 286.257C987.446 286.017 986.81 285.665 986.365 285.202C985.919 284.745 985.697 284.197 985.697 283.559C985.697 282.926 985.916 282.387 986.356 281.941C986.801 281.49 987.437 281.147 988.263 280.913C989.089 280.679 990.068 280.559 991.199 280.553ZM991.199 282.275C990.126 282.275 989.312 282.384 988.755 282.601C988.204 282.812 987.929 283.131 987.929 283.559C987.929 283.998 988.207 284.335 988.764 284.569C989.326 284.798 990.138 284.912 991.199 284.912C992.277 284.912 993.094 284.798 993.651 284.569C994.207 284.335 994.486 283.998 994.486 283.559C994.486 282.703 993.39 282.275 991.199 282.275ZM1016.45 284.754H1001.81V282.943H1008V279.375H1010.25V282.943H1016.45V284.754ZM1015.17 273.645H1010.3C1010.36 274.359 1010.62 275.036 1011.08 275.675C1011.54 276.308 1012.18 276.85 1013 277.301C1013.82 277.746 1014.79 278.051 1015.91 278.215L1015.03 279.99C1013.64 279.744 1012.43 279.296 1011.41 278.646C1010.4 277.995 1009.63 277.192 1009.11 276.237C1008.6 277.21 1007.84 278.03 1006.84 278.698C1005.83 279.366 1004.65 279.826 1003.28 280.078L1002.41 278.303C1003.48 278.127 1004.42 277.808 1005.23 277.345C1006.04 276.882 1006.67 276.328 1007.13 275.684C1007.58 275.039 1007.84 274.359 1007.91 273.645H1003.02V271.834H1015.17V273.645ZM1030.27 286.617H1028.04V270.621H1030.27V286.617ZM1017.72 282.1L1020.97 282.056V280.702C1020.39 280.597 1019.87 280.409 1019.43 280.14C1019 279.87 1018.67 279.536 1018.43 279.138C1018.2 278.733 1018.08 278.285 1018.09 277.793C1018.08 277.201 1018.25 276.68 1018.58 276.229C1018.92 275.771 1019.39 275.417 1019.99 275.165C1020.59 274.913 1021.28 274.787 1022.06 274.787C1022.85 274.787 1023.55 274.913 1024.15 275.165C1024.76 275.417 1025.24 275.771 1025.58 276.229C1025.92 276.68 1026.09 277.201 1026.09 277.793C1026.09 278.285 1025.97 278.733 1025.73 279.138C1025.49 279.536 1025.16 279.87 1024.72 280.14C1024.28 280.409 1023.77 280.597 1023.19 280.702V281.985C1024.69 281.909 1026.01 281.795 1027.16 281.643L1027.32 283.295C1025.77 283.559 1024.17 283.731 1022.54 283.813C1020.91 283.89 1019.13 283.928 1017.19 283.928L1016.89 282.1H1017.72ZM1026.93 274.154H1017.21V272.396H1020.97V270.691H1023.21V272.396H1026.93V274.154ZM1022.06 276.492C1021.51 276.492 1021.06 276.609 1020.72 276.844C1020.38 277.072 1020.21 277.389 1020.22 277.793C1020.21 278.203 1020.38 278.522 1020.71 278.751C1021.05 278.979 1021.5 279.094 1022.06 279.094C1022.64 279.094 1023.09 278.982 1023.43 278.76C1023.77 278.531 1023.94 278.209 1023.94 277.793C1023.94 277.383 1023.77 277.063 1023.43 276.835C1023.09 276.606 1022.63 276.492 1022.06 276.492Z" fill="#F5F5F5"/>
<path d="M786.514 311.135H785.434V298.953H786.514V311.135ZM780.047 299.896C780.648 299.901 781.184 300.079 781.653 300.43C782.123 300.776 782.49 301.268 782.754 301.906C783.018 302.544 783.15 303.287 783.15 304.135C783.15 304.982 783.018 305.725 782.754 306.363C782.49 307.001 782.123 307.493 781.653 307.84C781.184 308.186 780.648 308.359 780.047 308.359C779.445 308.359 778.908 308.186 778.434 307.84C777.964 307.493 777.597 307.001 777.333 306.363C777.073 305.725 776.943 304.982 776.943 304.135C776.943 303.287 777.073 302.544 777.333 301.906C777.597 301.268 777.964 300.776 778.434 300.43C778.903 300.079 779.441 299.901 780.047 299.896ZM780.047 300.854C779.641 300.858 779.281 300.997 778.967 301.271C778.657 301.539 778.415 301.922 778.242 302.419C778.069 302.911 777.982 303.483 777.982 304.135C777.982 304.786 778.069 305.361 778.242 305.857C778.415 306.35 778.659 306.73 778.974 306.999C779.288 307.268 779.646 307.402 780.047 307.402C780.448 307.402 780.806 307.268 781.12 306.999C781.435 306.73 781.678 306.35 781.852 305.857C782.025 305.361 782.111 304.786 782.111 304.135C782.111 303.483 782.025 302.911 781.852 302.419C781.678 301.922 781.435 301.539 781.12 301.271C780.81 300.997 780.452 300.858 780.047 300.854ZM799.287 306.117H788.158V305.229H799.287V306.117ZM797.851 302.125H790.674V303.342H798.111V304.176H789.607V301.318H796.771V300.115H789.566V299.254H797.851V302.125ZM797.851 310.943H789.676V307.225H797.851V310.943ZM790.728 310.068H796.799V308.1H790.728V310.068ZM806.592 300.936V301.127C806.583 301.852 806.555 302.574 806.51 303.294C806.464 304.009 806.373 304.832 806.236 305.762L805.156 305.666C805.302 304.764 805.398 303.957 805.443 303.246C805.489 302.531 805.512 301.842 805.512 301.182H800.412V300.307H806.592V300.936ZM803.406 307.471C804.905 307.416 806.236 307.32 807.398 307.184L807.453 307.99C806.391 308.159 805.272 308.275 804.097 308.339C802.921 308.398 801.702 308.428 800.439 308.428H799.865L799.728 307.539C800.89 307.53 801.765 307.519 802.353 307.505V303.779H803.406V307.471ZM809.23 304.039H811.199V304.969H809.23V311.107H808.164V298.953H809.23V304.039ZM818.248 301.373C818.248 301.82 818.348 302.259 818.549 302.692C818.754 303.125 819.045 303.515 819.424 303.861C819.802 304.208 820.244 304.477 820.75 304.668L820.189 305.488C819.615 305.265 819.118 304.948 818.699 304.538C818.284 304.128 817.965 303.656 817.742 303.123C817.509 303.725 817.177 304.265 816.744 304.743C816.311 305.217 815.805 305.579 815.226 305.83L814.638 304.996C815.158 304.768 815.611 304.458 815.999 304.066C816.391 303.67 816.691 303.237 816.901 302.768C817.115 302.294 817.222 301.829 817.222 301.373V299.719H818.248V301.373ZM824.947 306.473H823.922V303.123H822.308V306.09H821.297V299.199H822.308V302.234H823.922V298.967H824.947V306.473ZM820.927 306.746C821.766 306.746 822.491 306.833 823.101 307.006C823.716 307.174 824.188 307.423 824.516 307.751C824.849 308.075 825.015 308.464 825.015 308.92C825.015 309.371 824.849 309.758 824.516 310.082C824.188 310.406 823.716 310.652 823.101 310.82C822.491 310.993 821.766 311.08 820.927 311.08C820.089 311.08 819.362 310.993 818.747 310.82C818.132 310.652 817.66 310.406 817.332 310.082C817.008 309.758 816.849 309.371 816.853 308.92C816.849 308.464 817.008 308.075 817.332 307.751C817.66 307.423 818.129 307.174 818.74 307.006C819.355 306.833 820.084 306.746 820.927 306.746ZM820.927 307.566C820.312 307.566 819.777 307.621 819.321 307.73C818.865 307.835 818.517 307.99 818.275 308.195C818.034 308.4 817.915 308.642 817.92 308.92C817.915 309.193 818.034 309.43 818.275 309.631C818.517 309.831 818.863 309.984 819.314 310.089C819.77 310.194 820.308 310.246 820.927 310.246C821.543 310.246 822.076 310.194 822.527 310.089C822.978 309.984 823.327 309.831 823.573 309.631C823.819 309.43 823.944 309.193 823.949 308.92C823.944 308.642 823.819 308.4 823.573 308.195C823.327 307.99 822.976 307.835 822.52 307.73C822.069 307.621 821.538 307.566 820.927 307.566ZM836.38 307.963H835.3V303.752H831.8V302.891H835.3V301.428H831.8V300.566H835.3V298.967H836.38V307.963ZM836.709 310.848H828.546V307.197H829.627V309.945H836.709V310.848ZM828.109 305.242C829.03 305.238 829.898 305.203 830.713 305.14C831.534 305.076 832.379 304.964 833.25 304.805L833.359 305.693C832.438 305.867 831.554 305.985 830.707 306.049C829.864 306.113 828.943 306.149 827.945 306.158H827.029V299.842H828.109V305.242ZM848.005 306.131H846.925V305.461H844.464V304.75H846.925V298.967H848.005V306.131ZM838.859 303.547C841.698 303.547 844.054 303.447 845.927 303.246L845.996 303.943C844.92 304.098 843.708 304.21 842.359 304.278V306.172H841.306V304.319C840.317 304.342 839.465 304.354 838.75 304.354H838.066L837.943 303.547H838.859ZM848.005 309.084H840.91V310.178H848.402V310.971H839.857V308.332H846.939V307.348H839.802V306.568H848.005V309.084ZM841.908 299.199C842.505 299.199 843.031 299.274 843.487 299.425C843.943 299.575 844.296 299.789 844.546 300.067C844.797 300.341 844.925 300.662 844.929 301.031C844.925 301.405 844.797 301.729 844.546 302.002C844.296 302.275 843.943 302.485 843.487 302.631C843.036 302.777 842.509 302.85 841.908 302.85C841.297 302.85 840.764 302.777 840.308 302.631C839.857 302.485 839.506 302.275 839.255 302.002C839.009 301.729 838.886 301.405 838.886 301.031C838.886 300.662 839.009 300.341 839.255 300.067C839.506 299.789 839.859 299.575 840.315 299.425C840.771 299.274 841.302 299.199 841.908 299.199ZM841.908 299.951C841.502 299.951 841.147 299.997 840.841 300.088C840.536 300.174 840.301 300.3 840.137 300.464C839.973 300.623 839.893 300.812 839.898 301.031C839.893 301.245 839.973 301.435 840.137 301.599C840.301 301.758 840.536 301.883 840.841 301.975C841.147 302.066 841.502 302.111 841.908 302.111C842.309 302.111 842.66 302.066 842.96 301.975C843.266 301.883 843.501 301.758 843.665 301.599C843.833 301.435 843.917 301.245 843.917 301.031C843.917 300.812 843.833 300.623 843.665 300.464C843.501 300.3 843.266 300.174 842.96 300.088C842.66 299.997 842.309 299.951 841.908 299.951ZM853.109 299.404C853.71 299.409 854.248 299.525 854.722 299.753C855.201 299.981 855.574 300.3 855.843 300.71C856.117 301.116 856.253 301.578 856.253 302.098C856.253 302.617 856.117 303.082 855.843 303.492C855.574 303.898 855.201 304.215 854.722 304.442C854.248 304.666 853.71 304.777 853.109 304.777C852.498 304.777 851.954 304.666 851.475 304.442C850.997 304.215 850.623 303.898 850.354 303.492C850.085 303.082 849.951 302.617 849.951 302.098C849.951 301.578 850.085 301.116 850.354 300.71C850.623 300.3 850.997 299.981 851.475 299.753C851.954 299.525 852.498 299.409 853.109 299.404ZM853.109 300.307C852.708 300.307 852.345 300.384 852.022 300.539C851.703 300.689 851.452 300.901 851.27 301.175C851.088 301.444 850.999 301.751 851.003 302.098C850.999 302.449 851.088 302.761 851.27 303.034C851.452 303.308 851.703 303.522 852.022 303.677C852.345 303.827 852.708 303.902 853.109 303.902C853.505 303.902 853.863 303.827 854.182 303.677C854.506 303.522 854.759 303.308 854.941 303.034C855.123 302.761 855.214 302.449 855.214 302.098C855.214 301.751 855.123 301.444 854.941 301.175C854.759 300.901 854.506 300.689 854.182 300.539C853.863 300.384 853.505 300.307 853.109 300.307ZM859.699 305.201H858.632V298.953H859.699V305.201ZM859.699 308.715H852.876V310.082H860.136V310.943H851.824V307.908H858.632V306.65H851.796V305.789H859.699V308.715ZM870.781 304.695H865.079V299.746H870.781V304.695ZM866.132 303.848H869.728V300.621H866.132V303.848ZM874.458 305.939H873.406V298.953H874.458V305.939ZM871.163 307.607C871.163 307.995 871.352 308.375 871.731 308.749C872.109 309.118 872.608 309.437 873.228 309.706C873.848 309.97 874.504 310.146 875.197 310.232L874.827 311.066C874.221 310.984 873.64 310.839 873.084 310.629C872.528 310.419 872.036 310.16 871.608 309.85C871.179 309.54 870.847 309.2 870.61 308.831C870.368 309.205 870.029 309.547 869.591 309.856C869.158 310.166 868.659 310.424 868.094 310.629C867.533 310.839 866.948 310.984 866.337 311.066L865.954 310.232C866.647 310.155 867.31 309.984 867.944 309.72C868.577 309.455 869.088 309.136 869.475 308.763C869.862 308.384 870.056 307.999 870.056 307.607H866.46V306.773H870.07V305.584H871.136V306.773H874.773V307.607H871.163ZM886.484 301.141H879.237V300.266H882.327V298.898H883.394V300.266H886.484V301.141ZM882.86 301.77C883.439 301.774 883.947 301.868 884.385 302.05C884.827 302.228 885.169 302.483 885.41 302.815C885.656 303.144 885.782 303.529 885.786 303.971C885.782 304.408 885.656 304.793 885.41 305.126C885.169 305.454 884.827 305.709 884.385 305.892C883.947 306.069 883.439 306.158 882.86 306.158C882.282 306.158 881.769 306.069 881.322 305.892C880.88 305.709 880.536 305.454 880.29 305.126C880.049 304.793 879.93 304.408 879.935 303.971C879.93 303.529 880.049 303.144 880.29 302.815C880.536 302.483 880.88 302.228 881.322 302.05C881.769 301.868 882.282 301.774 882.86 301.77ZM882.86 302.604C882.482 302.608 882.147 302.667 881.856 302.781C881.568 302.895 881.345 303.055 881.186 303.26C881.031 303.465 880.956 303.702 880.96 303.971C880.956 304.235 881.031 304.467 881.186 304.668C881.345 304.868 881.568 305.023 881.856 305.133C882.147 305.242 882.482 305.297 882.86 305.297C883.234 305.297 883.565 305.242 883.852 305.133C884.143 305.023 884.369 304.868 884.528 304.668C884.688 304.467 884.77 304.235 884.775 303.971C884.77 303.702 884.688 303.465 884.528 303.26C884.369 303.055 884.143 302.895 883.852 302.781C883.565 302.667 883.234 302.608 882.86 302.604ZM888.712 302.33H890.544V303.232H888.712V306.555H887.646V298.953H888.712V302.33ZM888.712 311.107H887.646V308.1H880.755V307.225H888.712V311.107ZM900.966 307.963H899.886V303.287H897.015V305.885H891.505V299.773H892.571V301.934H895.962V299.773H897.015V302.385H899.886V298.967H900.966V307.963ZM901.239 310.848H893.105V307.074H894.185V309.945H901.239V310.848ZM895.962 304.996V302.781H892.571V304.996H895.962ZM908.106 299.172C909.009 299.172 909.781 299.254 910.424 299.418C911.066 299.577 911.556 299.814 911.894 300.129C912.231 300.439 912.399 300.817 912.399 301.264C912.399 301.947 912.026 302.471 911.278 302.836C910.531 303.201 909.474 303.387 908.106 303.396C907.204 303.392 906.429 303.308 905.782 303.144C905.14 302.979 904.647 302.74 904.306 302.426C903.968 302.107 903.8 301.719 903.8 301.264C903.8 300.817 903.968 300.439 904.306 300.129C904.647 299.814 905.14 299.577 905.782 299.418C906.429 299.254 907.204 299.172 908.106 299.172ZM908.106 299.979C907.436 299.979 906.862 300.031 906.384 300.136C905.905 300.236 905.541 300.384 905.29 300.58C905.039 300.771 904.916 300.999 904.921 301.264C904.916 301.683 905.192 302.007 905.748 302.234C906.304 302.462 907.09 302.576 908.106 302.576C909.118 302.576 909.904 302.462 910.465 302.234C911.025 302.007 911.306 301.683 911.306 301.264C911.306 300.999 911.178 300.771 910.923 300.58C910.668 300.389 910.301 300.241 909.822 300.136C909.344 300.031 908.772 299.979 908.106 299.979ZM913.644 305.092H902.569V304.217H913.644V305.092ZM912.222 308.865H905.003V310.123H912.591V310.971H903.936V308.072H911.169V306.965H903.909V306.145H912.222V308.865ZM927.378 305.475H926.311V298.953H927.378V305.475ZM920.569 307.566H926.311V306.09H927.378V310.943H919.503V306.09H920.569V307.566ZM926.311 310.068V308.428H920.569V310.068H926.311ZM920.815 299.555C921.426 299.55 921.973 299.664 922.456 299.896C922.939 300.129 923.317 300.459 923.591 300.888C923.864 301.312 924.001 301.797 924.001 302.344C924.001 302.886 923.864 303.369 923.591 303.793C923.317 304.217 922.939 304.547 922.456 304.784C921.973 305.017 921.426 305.133 920.815 305.133C920.205 305.133 919.658 305.017 919.175 304.784C918.692 304.547 918.313 304.217 918.04 303.793C917.766 303.369 917.63 302.886 917.63 302.344C917.63 301.797 917.766 301.312 918.04 300.888C918.313 300.459 918.692 300.129 919.175 299.896C919.658 299.664 920.205 299.55 920.815 299.555ZM920.815 300.457C920.405 300.452 920.036 300.532 919.708 300.696C919.384 300.856 919.131 301.079 918.949 301.366C918.767 301.653 918.678 301.979 918.682 302.344C918.678 302.708 918.767 303.036 918.949 303.328C919.131 303.615 919.384 303.841 919.708 304.005C920.036 304.164 920.405 304.244 920.815 304.244C921.221 304.244 921.585 304.164 921.909 304.005C922.233 303.841 922.485 303.615 922.668 303.328C922.855 303.036 922.948 302.708 922.948 302.344C922.948 301.979 922.855 301.653 922.668 301.366C922.485 301.079 922.233 300.856 921.909 300.696C921.585 300.532 921.221 300.452 920.815 300.457ZM934.792 303.109H930.608V304.996C931.843 304.996 932.798 304.978 933.472 304.941C934.147 304.905 934.824 304.823 935.503 304.695L935.612 305.584C934.887 305.702 934.163 305.78 933.438 305.816C932.718 305.853 931.706 305.871 930.403 305.871H929.542V302.289H933.725V300.566H929.514V299.705H934.792V303.109ZM939.098 306.432H938.018V304.176H935.598V303.287H938.018V301.646H935.598V300.771H938.018V298.967H939.098V306.432ZM939.098 311.135H938.018V307.963H930.909V307.088H939.098V311.135ZM946.772 301.934H940.674V301.059H943.204V299.322H944.27V301.059H946.772V301.934ZM943.723 302.754C944.229 302.754 944.68 302.872 945.077 303.109C945.478 303.342 945.79 303.668 946.013 304.087C946.241 304.506 946.357 304.982 946.362 305.516C946.357 306.053 946.241 306.534 946.013 306.958C945.79 307.377 945.478 307.708 945.077 307.949C944.68 308.186 944.229 308.305 943.723 308.305C943.222 308.305 942.773 308.186 942.377 307.949C941.98 307.708 941.67 307.375 941.447 306.951C941.224 306.527 941.112 306.049 941.112 305.516C941.112 304.987 941.224 304.513 941.447 304.094C941.67 303.67 941.98 303.342 942.377 303.109C942.773 302.872 943.222 302.754 943.723 302.754ZM943.723 303.656C943.409 303.661 943.124 303.745 942.869 303.909C942.618 304.069 942.422 304.29 942.281 304.572C942.14 304.85 942.069 305.165 942.069 305.516C942.069 305.871 942.14 306.19 942.281 306.473C942.427 306.755 942.625 306.976 942.876 307.136C943.126 307.291 943.409 307.366 943.723 307.361C944.042 307.366 944.329 307.291 944.585 307.136C944.84 306.976 945.04 306.755 945.186 306.473C945.332 306.19 945.405 305.871 945.405 305.516C945.405 305.165 945.332 304.85 945.186 304.572C945.04 304.29 944.84 304.069 944.585 303.909C944.329 303.745 944.042 303.661 943.723 303.656ZM951.051 311.107H950.026V304.969H948.413V310.506H947.401V299.254H948.413V304.08H950.026V298.953H951.051V311.107ZM959.112 302.385C959.112 303.055 959.214 303.715 959.419 304.367C959.629 305.014 959.93 305.598 960.322 306.117C960.714 306.637 961.172 307.038 961.696 307.32L961.053 308.168C960.479 307.835 959.982 307.377 959.563 306.794C959.144 306.206 958.822 305.538 958.599 304.791C958.371 305.602 958.036 306.329 957.594 306.972C957.152 307.614 956.633 308.113 956.036 308.469L955.338 307.676C955.89 307.361 956.373 306.928 956.788 306.377C957.202 305.821 957.519 305.201 957.738 304.518C957.961 303.834 958.073 303.146 958.073 302.453V300.102H959.112V302.385ZM965.893 311.107H964.854V304.736H963.186V310.492H962.147V299.213H963.186V303.848H964.854V298.953H965.893V311.107ZM978.284 309.604H967.155V308.701H972.159V306.404H968.549V302.658H975.823V300.744H968.522V299.855H976.875V303.533H969.616V305.516H977.163V306.404H973.211V308.701H978.284V309.604ZM980.311 303.082H982.95V300.115H983.948V308.072H979.285V300.115H980.311V303.082ZM982.95 307.184V303.957H980.311V307.184H982.95ZM989.252 311.107H988.213V304.668H986.518V310.492H985.492V299.213H986.518V303.779H988.213V298.953H989.252V311.107ZM996.051 299.186C996.926 299.186 997.687 299.277 998.334 299.459C998.981 299.641 999.478 299.906 999.824 300.252C1000.17 300.594 1000.34 301.004 1000.34 301.482C1000.34 301.952 1000.17 302.357 999.824 302.699C999.478 303.036 998.981 303.294 998.334 303.472C997.687 303.649 996.926 303.738 996.051 303.738C995.176 303.738 994.413 303.649 993.761 303.472C993.114 303.294 992.615 303.036 992.264 302.699C991.918 302.357 991.744 301.952 991.744 301.482C991.744 301.004 991.918 300.594 992.264 300.252C992.615 299.906 993.114 299.641 993.761 299.459C994.408 299.277 995.171 299.186 996.051 299.186ZM996.051 300.033C995.395 300.033 994.825 300.09 994.342 300.204C993.864 300.318 993.494 300.484 993.235 300.703C992.975 300.922 992.847 301.182 992.852 301.482C992.847 301.774 992.975 302.027 993.235 302.241C993.494 302.451 993.864 302.613 994.342 302.727C994.825 302.836 995.395 302.891 996.051 302.891C996.698 302.891 997.261 302.836 997.739 302.727C998.223 302.613 998.594 302.451 998.854 302.241C999.118 302.027 999.25 301.774 999.25 301.482C999.25 301.182 999.118 300.922 998.854 300.703C998.594 300.484 998.223 300.318 997.739 300.204C997.261 300.09 996.698 300.033 996.051 300.033ZM1000.23 310.943H991.867V306.951H995.518V305.557H990.514V304.668H1001.59V305.557H996.571V306.951H1000.23V310.943ZM992.934 310.068H999.182V307.812H992.934V310.068ZM1012.27 311.135H1011.2V304.436H1008.63V303.547H1011.2V298.953H1012.27V311.135ZM1008.43 300.963H1003.83V303.492H1007.89V304.367H1003.83V307.307C1005 307.307 1005.97 307.282 1006.76 307.231C1007.55 307.177 1008.35 307.079 1009.17 306.938L1009.29 307.826C1008.43 307.967 1007.58 308.065 1006.75 308.12C1005.91 308.17 1004.89 308.195 1003.68 308.195H1002.75V300.074H1008.43V300.963ZM1027 307.881H1025.94V298.967H1027V307.881ZM1027.38 310.848H1019.15V307.061H1020.22V309.945H1027.38V310.848ZM1021.27 300.867C1021.27 301.473 1021.39 302.054 1021.65 302.61C1021.91 303.166 1022.27 303.656 1022.74 304.08C1023.21 304.499 1023.74 304.818 1024.34 305.037L1023.78 305.898C1023.07 305.63 1022.46 305.233 1021.93 304.709C1021.4 304.18 1021 303.565 1020.73 302.863C1020.46 303.611 1020.06 304.269 1019.53 304.839C1019 305.409 1018.38 305.835 1017.68 306.117L1017.09 305.283C1017.7 305.051 1018.23 304.709 1018.7 304.258C1019.17 303.807 1019.53 303.287 1019.79 302.699C1020.05 302.111 1020.18 301.501 1020.18 300.867V299.65H1021.27V300.867ZM1032.79 301.564C1032.79 302.061 1032.92 302.537 1033.19 302.993C1033.45 303.444 1033.82 303.843 1034.29 304.189C1034.76 304.531 1035.3 304.791 1035.89 304.969L1035.37 305.803C1034.67 305.593 1034.04 305.267 1033.51 304.825C1032.97 304.383 1032.56 303.864 1032.29 303.267C1032.03 303.932 1031.62 304.515 1031.09 305.017C1030.55 305.513 1029.93 305.88 1029.21 306.117L1028.69 305.297C1029.28 305.096 1029.81 304.809 1030.27 304.436C1030.73 304.057 1031.09 303.62 1031.35 303.123C1031.61 302.626 1031.74 302.107 1031.74 301.564V301.305H1028.99V300.443H1031.74V298.898H1032.82V300.443H1035.54V301.305H1032.79V301.564ZM1038.72 306.322H1037.64V303.328H1035.15V302.439H1037.64V298.953H1038.72V306.322ZM1034.69 306.65C1035.53 306.65 1036.26 306.737 1036.87 306.91C1037.48 307.083 1037.95 307.336 1038.27 307.669C1038.6 307.997 1038.76 308.396 1038.76 308.865C1038.76 309.33 1038.6 309.729 1038.27 310.062C1037.95 310.394 1037.48 310.647 1036.87 310.82C1036.26 310.993 1035.53 311.08 1034.69 311.08C1033.85 311.08 1033.12 310.993 1032.51 310.82C1031.9 310.647 1031.43 310.394 1031.1 310.062C1030.78 309.729 1030.62 309.33 1030.62 308.865C1030.62 308.396 1030.78 307.997 1031.1 307.669C1031.43 307.336 1031.9 307.083 1032.51 306.91C1033.12 306.737 1033.85 306.65 1034.69 306.65ZM1034.69 307.484C1034.07 307.489 1033.53 307.546 1033.08 307.655C1032.62 307.765 1032.28 307.924 1032.04 308.134C1031.8 308.339 1031.68 308.583 1031.68 308.865C1031.68 309.143 1031.8 309.387 1032.04 309.597C1032.28 309.802 1032.63 309.959 1033.08 310.068C1033.54 310.178 1034.07 310.232 1034.69 310.232C1035.31 310.232 1035.84 310.178 1036.3 310.068C1036.75 309.959 1037.09 309.802 1037.33 309.597C1037.58 309.392 1037.7 309.148 1037.7 308.865C1037.7 308.583 1037.58 308.339 1037.33 308.134C1037.1 307.924 1036.75 307.765 1036.3 307.655C1035.85 307.546 1035.31 307.489 1034.69 307.484ZM1054.55 309.549H1043.42V308.646H1048.44V305.693H1049.52V308.646H1054.55V309.549ZM1049.52 301.264C1049.52 301.883 1049.74 302.476 1050.19 303.041C1050.63 303.602 1051.21 304.076 1051.9 304.463C1052.6 304.846 1053.3 305.096 1054.02 305.215L1053.58 306.062C1052.94 305.939 1052.32 305.73 1051.71 305.434C1051.11 305.133 1050.56 304.759 1050.08 304.312C1049.59 303.866 1049.23 303.371 1048.98 302.829C1048.73 303.376 1048.36 303.875 1047.88 304.326C1047.4 304.777 1046.86 305.156 1046.25 305.461C1045.65 305.766 1045.04 305.985 1044.42 306.117L1043.97 305.256C1044.66 305.133 1045.36 304.875 1046.04 304.483C1046.73 304.091 1047.3 303.611 1047.74 303.041C1048.19 302.471 1048.41 301.879 1048.41 301.264V300.963H1044.34V300.061H1053.59V300.963H1049.52V301.264ZM1065.07 311.107H1064V298.953H1065.07V311.107ZM1055.17 307.867C1056.69 307.858 1057.84 307.842 1058.63 307.819V306.486C1058.14 306.436 1057.72 306.313 1057.36 306.117C1057 305.921 1056.72 305.668 1056.52 305.358C1056.33 305.044 1056.23 304.686 1056.23 304.285C1056.23 303.834 1056.35 303.44 1056.59 303.103C1056.83 302.761 1057.17 302.496 1057.61 302.31C1058.06 302.123 1058.57 302.029 1059.15 302.029C1059.72 302.029 1060.24 302.123 1060.68 302.31C1061.12 302.496 1061.47 302.761 1061.72 303.103C1061.96 303.44 1062.09 303.834 1062.09 304.285C1062.09 304.682 1061.99 305.037 1061.79 305.352C1061.6 305.661 1061.32 305.914 1060.96 306.11C1060.6 306.302 1060.19 306.425 1059.71 306.479V307.778C1061.03 307.719 1062.19 307.621 1063.19 307.484L1063.28 308.305C1062.07 308.501 1060.81 308.631 1059.51 308.694C1058.21 308.754 1056.81 308.783 1055.33 308.783L1055.17 307.867ZM1062.88 301.332H1055.43V300.457H1058.63V298.967H1059.71V300.457H1062.88V301.332ZM1059.15 302.863C1058.78 302.863 1058.45 302.923 1058.15 303.041C1057.86 303.16 1057.64 303.328 1057.47 303.547C1057.31 303.761 1057.23 304.007 1057.23 304.285C1057.23 304.563 1057.31 304.807 1057.47 305.017C1057.64 305.226 1057.86 305.388 1058.15 305.502C1058.45 305.616 1058.78 305.671 1059.15 305.666C1059.52 305.671 1059.85 305.618 1060.14 305.509C1060.43 305.395 1060.65 305.233 1060.81 305.023C1060.98 304.809 1061.06 304.563 1061.06 304.285C1061.06 304.007 1060.98 303.761 1060.81 303.547C1060.65 303.328 1060.43 303.16 1060.14 303.041C1059.85 302.923 1059.52 302.863 1059.15 302.863ZM1076.19 303.902H1078.15V304.805H1076.19V311.107H1075.12V298.953H1076.19V303.902ZM1073.04 300.266C1073.04 302.075 1072.59 303.715 1071.68 305.188C1070.77 306.655 1069.37 307.858 1067.46 308.797L1066.86 307.949C1068.42 307.17 1069.63 306.208 1070.49 305.064C1071.35 303.916 1071.84 302.617 1071.96 301.168H1067.42V300.266H1073.04ZM1090.96 303.902H1092.93V304.805H1090.96V311.107H1089.89V298.953H1090.96V303.902ZM1087.81 300.266C1087.81 302.075 1087.36 303.715 1086.45 305.188C1085.55 306.655 1084.14 307.858 1082.24 308.797L1081.63 307.949C1083.2 307.17 1084.41 306.208 1085.26 305.064C1086.12 303.916 1086.61 302.617 1086.73 301.168H1082.19V300.266H1087.81ZM1103.05 303.246H1094.75V299.199H1095.82V302.357H1103.05V303.246ZM1104.32 305.557H1093.23V304.668H1104.32V305.557ZM1098.77 306.65C1099.64 306.65 1100.39 306.737 1101.01 306.91C1101.64 307.079 1102.11 307.329 1102.45 307.662C1102.78 307.99 1102.95 308.387 1102.95 308.852C1102.95 309.316 1102.78 309.713 1102.45 310.041C1102.11 310.374 1101.64 310.624 1101.01 310.793C1100.39 310.966 1099.64 311.053 1098.77 311.053C1097.89 311.053 1097.14 310.966 1096.51 310.793C1095.88 310.624 1095.4 310.374 1095.07 310.041C1094.74 309.713 1094.57 309.316 1094.57 308.852C1094.57 308.387 1094.74 307.99 1095.07 307.662C1095.4 307.329 1095.88 307.079 1096.51 306.91C1097.14 306.737 1097.89 306.65 1098.77 306.65ZM1098.77 307.498C1097.78 307.507 1097.02 307.628 1096.47 307.86C1095.93 308.093 1095.66 308.423 1095.67 308.852C1095.66 309.134 1095.78 309.378 1096.03 309.583C1096.27 309.788 1096.63 309.945 1097.09 310.055C1097.56 310.164 1098.12 310.219 1098.77 310.219C1099.41 310.219 1099.96 310.164 1100.42 310.055C1100.89 309.945 1101.25 309.788 1101.5 309.583C1101.75 309.378 1101.87 309.134 1101.87 308.852C1101.87 308.423 1101.6 308.093 1101.05 307.86C1100.51 307.628 1099.74 307.507 1098.77 307.498ZM1114.41 302.07H1116.25V302.986H1114.41V306.021H1113.35V298.953H1114.41V302.07ZM1107.8 307.854H1113.35V306.555H1114.41V310.943H1106.73V306.555H1107.8V307.854ZM1113.35 310.082V308.701H1107.8V310.082H1113.35ZM1112.18 301.1H1104.94V300.211H1108.03V298.844H1109.1V300.211H1112.18V301.1ZM1108.56 301.66C1109.14 301.66 1109.65 301.749 1110.09 301.927C1110.53 302.1 1110.87 302.348 1111.11 302.672C1111.36 302.991 1111.48 303.365 1111.49 303.793C1111.48 304.221 1111.36 304.597 1111.11 304.921C1110.87 305.24 1110.53 305.488 1110.09 305.666C1109.65 305.839 1109.14 305.926 1108.56 305.926C1107.98 305.926 1107.46 305.839 1107.02 305.666C1106.57 305.488 1106.23 305.24 1105.99 304.921C1105.75 304.597 1105.63 304.221 1105.64 303.793C1105.63 303.365 1105.75 302.991 1105.99 302.672C1106.23 302.348 1106.57 302.1 1107.02 301.927C1107.46 301.749 1107.98 301.66 1108.56 301.66ZM1108.56 302.494C1108.18 302.49 1107.85 302.542 1107.56 302.651C1107.27 302.756 1107.05 302.909 1106.89 303.109C1106.73 303.31 1106.66 303.538 1106.66 303.793C1106.66 304.053 1106.73 304.283 1106.89 304.483C1107.05 304.679 1107.27 304.832 1107.56 304.941C1107.85 305.051 1108.18 305.105 1108.56 305.105C1108.94 305.105 1109.27 305.051 1109.55 304.941C1109.84 304.832 1110.07 304.679 1110.23 304.483C1110.39 304.283 1110.47 304.053 1110.48 303.793C1110.47 303.533 1110.39 303.305 1110.22 303.109C1110.06 302.909 1109.84 302.756 1109.55 302.651C1109.27 302.542 1108.94 302.49 1108.56 302.494ZM1126.61 311.107H1125.55V298.953H1126.61V311.107ZM1118.44 307.047C1120.49 307.038 1122.43 306.842 1124.25 306.459L1124.4 307.375C1123.36 307.589 1122.36 307.744 1121.38 307.84C1120.4 307.931 1119.39 307.977 1118.37 307.977H1117.38V300.156H1118.44V307.047ZM1137.68 303.766H1139.71V304.668H1137.68V311.135H1136.61V298.953H1137.68V303.766ZM1134.48 301.031H1129.87V307.184C1131.01 307.184 1132 307.152 1132.84 307.088C1133.69 307.024 1134.56 306.91 1135.43 306.746L1135.57 307.676C1134.67 307.84 1133.79 307.949 1132.93 308.004C1132.06 308.059 1131.01 308.086 1129.76 308.086H1128.8V300.143H1134.48V301.031ZM1141.24 310.082C1141.08 310.082 1140.93 310.043 1140.79 309.966C1140.66 309.884 1140.55 309.774 1140.47 309.638C1140.39 309.501 1140.36 309.353 1140.36 309.193C1140.36 309.038 1140.39 308.895 1140.47 308.763C1140.55 308.626 1140.66 308.519 1140.79 308.441C1140.93 308.359 1141.08 308.318 1141.24 308.318C1141.39 308.318 1141.53 308.359 1141.67 308.441C1141.8 308.519 1141.91 308.626 1141.99 308.763C1142.07 308.895 1142.11 309.038 1142.11 309.193C1142.11 309.353 1142.07 309.501 1141.99 309.638C1141.91 309.774 1141.8 309.884 1141.67 309.966C1141.53 310.043 1141.39 310.082 1141.24 310.082Z" fill="white"/>
<g filter="url(#filter0_d_236_1331)">
<path d="M543.281 144.25C543.281 148.25 543.906 151.781 545.156 154.844C546.422 157.906 548.469 160.188 551.297 161.688L547.781 166.422C544.297 164.531 541.797 161.297 540.281 156.719C539.484 159.172 538.43 161.336 537.117 163.211C535.805 165.07 534.219 166.562 532.359 167.688L528.609 163.328C531.625 161.516 533.844 158.945 535.266 155.617C536.703 152.273 537.438 148.625 537.469 144.672V137.312H543.281V144.25ZM566.391 176.312H560.672V155.078H556.969V174.344H551.344V134.266H556.969V150.297H560.672V133.656H566.391V176.312ZM606.248 176.312H600.482V154.984H596.498V174.25H590.873V134.359H596.498V150.156H600.482V133.656H606.248V176.312ZM577.185 160.68C581.154 160.57 584.919 160.172 588.482 159.484L589.091 164.641C584.185 165.484 579.185 165.906 574.091 165.906H571.185V138.391H577.185V160.68ZM645.354 176.312H639.308V133.656H645.354V176.312ZM632.558 138.109C632.558 142.672 631.94 146.82 630.706 150.555C629.487 154.289 627.425 157.719 624.518 160.844C621.612 163.953 617.698 166.672 612.776 169L609.636 164.219C613.276 162.5 616.276 160.586 618.636 158.477C621.011 156.367 622.823 154.031 624.073 151.469C625.339 148.891 626.136 146 626.464 142.797H611.933V138.109H632.558ZM670.928 136.656C672.834 136.656 674.553 137.156 676.084 138.156C677.631 139.156 678.896 140.578 679.881 142.422H689.256V133.656H695.162V176.406H689.256V160.422H680.326C679.373 162.547 678.076 164.188 676.435 165.344C674.81 166.5 672.974 167.078 670.928 167.078C668.771 167.078 666.849 166.461 665.162 165.227C663.49 163.977 662.185 162.203 661.248 159.906C660.31 157.594 659.849 154.906 659.865 151.844C659.849 148.797 660.31 146.133 661.248 143.852C662.185 141.555 663.49 139.781 665.162 138.531C666.849 137.281 668.771 136.656 670.928 136.656ZM670.928 142.047C669.865 142.047 668.928 142.43 668.115 143.195C667.303 143.945 666.67 145.062 666.217 146.547C665.779 148.016 665.568 149.781 665.584 151.844C665.568 153.922 665.779 155.695 666.217 157.164C666.67 158.633 667.295 159.75 668.092 160.516C668.904 161.266 669.849 161.641 670.928 161.641C672.006 161.641 672.943 161.266 673.74 160.516C674.553 159.766 675.178 158.656 675.615 157.188C676.053 155.719 676.271 153.938 676.271 151.844C676.271 149.766 676.053 147.992 675.615 146.523C675.178 145.055 674.553 143.945 673.74 143.195C672.943 142.43 672.006 142.047 670.928 142.047ZM681.545 147.25C681.842 148.734 681.99 150.266 681.99 151.844C681.99 153.016 681.896 154.281 681.709 155.641H689.256V147.25H681.545ZM735.159 176.406H729.206V153.906H722.316V149.031H729.206V133.656H735.159V176.406ZM719.925 153.203H706.659V161.547C709.956 161.516 712.87 161.422 715.402 161.266C717.933 161.094 720.472 160.781 723.019 160.328L723.488 165.203C720.503 165.688 717.511 166.023 714.511 166.211C711.527 166.383 708.097 166.469 704.222 166.469H700.706V148.469H714.113V142.047H700.613V137.219H719.925V153.203ZM778.251 160.234H762.173V167.125H756.266V160.234H739.204V155.547H778.251V160.234ZM773.938 175.562H743.798V163.75H749.704V170.781H773.938V175.562ZM750.126 139.469H767.235V135.016H773.188V152.547H744.219V135.016H750.126V139.469ZM767.235 147.812V143.922H750.126V147.812H767.235ZM818.295 154.984H779.295V150.297H818.295V154.984ZM813.654 147.953H784.17V134.5H813.326V139.281H790.123V143.266H813.654V147.953ZM813.467 168.672H789.701V171.297H814.592V175.938H783.842V164.406H807.561V162.016H783.795V157.516H813.467V168.672ZM833.168 136.516C835.386 136.5 837.394 136.945 839.191 137.852C841.003 138.742 842.418 139.984 843.433 141.578C844.464 143.172 844.98 144.969 844.98 146.969C844.98 148.984 844.464 150.789 843.433 152.383C842.418 153.977 841.011 155.227 839.214 156.133C837.418 157.023 835.402 157.469 833.168 157.469C830.933 157.469 828.91 157.023 827.097 156.133C825.3 155.227 823.886 153.977 822.855 152.383C821.824 150.789 821.308 148.984 821.308 146.969C821.308 144.969 821.824 143.172 822.855 141.578C823.886 139.984 825.308 138.742 827.121 137.852C828.933 136.945 830.949 136.5 833.168 136.516ZM833.168 141.672C832.043 141.672 831.027 141.883 830.121 142.305C829.214 142.727 828.503 143.344 827.988 144.156C827.488 144.953 827.246 145.891 827.261 146.969C827.246 148.062 827.488 149.008 827.988 149.805C828.503 150.602 829.207 151.211 830.097 151.633C831.003 152.055 832.027 152.266 833.168 152.266C834.308 152.266 835.324 152.055 836.214 151.633C837.121 151.211 837.832 150.602 838.347 149.805C838.878 149.008 839.152 148.062 839.168 146.969C839.152 145.875 838.886 144.93 838.371 144.133C837.855 143.336 837.144 142.727 836.238 142.305C835.332 141.883 834.308 141.672 833.168 141.672ZM855.199 176.406H849.246V133.656H855.199V176.406ZM821.871 162.812C831.886 162.812 840.199 162.359 846.808 161.453L847.277 165.766C843.089 166.578 838.816 167.102 834.457 167.336C830.097 167.57 825.355 167.688 820.23 167.688L819.527 162.812H821.871ZM904.725 156.578H898.725V133.656H904.725V156.578ZM882.084 162.438H898.772V158.453H904.725V175.844H876.178V158.453H882.084V162.438ZM898.772 171.016V167.078H882.084V171.016H898.772ZM881.334 135.438C883.538 135.422 885.522 135.844 887.288 136.703C889.069 137.562 890.467 138.766 891.483 140.312C892.498 141.844 893.006 143.594 893.006 145.562C893.006 147.469 892.498 149.18 891.483 150.695C890.467 152.211 889.069 153.398 887.288 154.258C885.522 155.117 883.538 155.547 881.334 155.547C879.131 155.547 877.139 155.117 875.358 154.258C873.592 153.398 872.202 152.211 871.186 150.695C870.17 149.18 869.663 147.469 869.663 145.562C869.663 143.594 870.17 141.844 871.186 140.312C872.202 138.766 873.592 137.562 875.358 136.703C877.139 135.844 879.131 135.422 881.334 135.438ZM881.334 140.406C880.194 140.406 879.178 140.617 878.288 141.039C877.413 141.445 876.725 142.039 876.225 142.82C875.741 143.586 875.506 144.5 875.522 145.562C875.506 146.609 875.741 147.516 876.225 148.281C876.725 149.031 877.413 149.609 878.288 150.016C879.178 150.422 880.194 150.625 881.334 150.625C882.444 150.625 883.436 150.422 884.311 150.016C885.186 149.609 885.866 149.031 886.35 148.281C886.85 147.516 887.1 146.609 887.1 145.562C887.1 144.5 886.85 143.586 886.35 142.82C885.866 142.039 885.186 141.445 884.311 141.039C883.436 140.617 882.444 140.406 881.334 140.406ZM934.363 142.188H909.051V137.453H918.754V133.422H924.707V137.453H934.363V142.188ZM921.707 143.547C923.754 143.547 925.566 143.883 927.144 144.555C928.738 145.211 929.98 146.133 930.871 147.32C931.762 148.508 932.207 149.875 932.207 151.422C932.207 152.969 931.762 154.336 930.871 155.523C929.98 156.711 928.738 157.641 927.144 158.312C925.566 158.969 923.754 159.297 921.707 159.297C919.66 159.297 917.832 158.969 916.223 158.312C914.613 157.641 913.355 156.711 912.449 155.523C911.558 154.336 911.113 152.969 911.113 151.422C911.113 149.875 911.558 148.508 912.449 147.32C913.355 146.133 914.613 145.211 916.223 144.555C917.832 143.883 919.66 143.547 921.707 143.547ZM921.707 148.047C920.238 148.047 919.074 148.344 918.215 148.938C917.371 149.516 916.957 150.344 916.973 151.422C916.957 152.469 917.371 153.281 918.215 153.859C919.074 154.422 920.238 154.703 921.707 154.703C923.176 154.703 924.348 154.422 925.223 153.859C926.098 153.281 926.535 152.469 926.535 151.422C926.535 150.344 926.098 149.516 925.223 148.938C924.348 148.344 923.176 148.047 921.707 148.047ZM942.894 144.719H948.66V149.594H942.894V160.422H936.894V133.656H942.894V144.719ZM942.894 176.312H936.894V166.984H914.16V162.203H942.894V176.312ZM968.548 134.266C971.814 134.266 974.603 134.547 976.915 135.109C979.228 135.672 980.993 136.5 982.212 137.594C983.431 138.672 984.048 139.984 984.064 141.531C984.048 143.094 983.431 144.422 982.212 145.516C980.993 146.609 979.228 147.438 976.915 148C974.603 148.562 971.814 148.844 968.548 148.844C965.267 148.844 962.462 148.562 960.134 148C957.806 147.438 956.033 146.609 954.814 145.516C953.595 144.422 952.986 143.094 952.986 141.531C952.986 139.984 953.595 138.672 954.814 137.594C956.033 136.5 957.806 135.672 960.134 135.109C962.462 134.547 965.267 134.266 968.548 134.266ZM968.548 138.625C965.439 138.625 963.103 138.875 961.54 139.375C959.993 139.859 959.236 140.578 959.267 141.531C959.251 142.562 959.993 143.305 961.493 143.758C962.993 144.211 965.345 144.438 968.548 144.438C971.767 144.438 974.126 144.211 975.626 143.758C977.126 143.305 977.876 142.562 977.876 141.531C977.876 140.578 977.103 139.859 975.556 139.375C974.009 138.875 971.673 138.625 968.548 138.625ZM988.001 155.594H949.095V150.859H988.001V155.594ZM983.267 168.953H959.501V171.531H984.392V176.031H953.642V164.781H977.361V162.438H953.595V158.078H983.267V168.953ZM1015.4 142.094C1015.4 143.859 1015.77 145.562 1016.5 147.203C1017.25 148.828 1018.39 150.289 1019.9 151.586C1021.43 152.867 1023.32 153.844 1025.57 154.516L1022.53 159.203C1020.2 158.469 1018.18 157.375 1016.48 155.922C1014.78 154.469 1013.43 152.75 1012.45 150.766C1011.45 152.922 1010.07 154.797 1008.32 156.391C1006.57 157.984 1004.48 159.188 1002.04 160L998.949 155.312C1001.23 154.578 1003.14 153.523 1004.69 152.148C1006.24 150.773 1007.39 149.219 1008.16 147.484C1008.93 145.75 1009.31 143.953 1009.31 142.094V141.484H1000.54V136.703H1023.98V141.484H1015.4V142.094ZM1034.48 164.547H1028.48V133.703H1034.48V164.547ZM1035.61 175.562H1005.89V161.734H1011.93V170.781H1035.61V175.562ZM1074.52 157.75H1068.52V133.703H1074.52V157.75ZM1074.52 175.844H1045.93V159.719H1074.52V175.844ZM1051.84 171.062H1068.67V164.453H1051.84V171.062ZM1055.17 139.375C1055.15 141.156 1055.5 142.852 1056.22 144.461C1056.95 146.055 1058.06 147.477 1059.55 148.727C1061.05 149.977 1062.92 150.953 1065.15 151.656L1062.24 156.203C1059.87 155.5 1057.82 154.453 1056.1 153.062C1054.4 151.656 1053.06 149.977 1052.07 148.023C1051.07 150.148 1049.69 151.984 1047.92 153.531C1046.16 155.078 1044.04 156.234 1041.57 157L1038.67 152.312C1040.95 151.625 1042.85 150.617 1044.38 149.289C1045.93 147.945 1047.07 146.422 1047.81 144.719C1048.56 143 1048.93 141.219 1048.93 139.375V135.25H1055.17V139.375ZM1098.3 135.812C1101.3 135.828 1104.02 136.352 1106.46 137.383C1108.9 138.398 1110.82 139.836 1112.23 141.695C1113.65 143.539 1114.37 145.672 1114.38 148.094C1114.37 150.531 1113.65 152.688 1112.23 154.562C1110.82 156.422 1108.9 157.859 1106.46 158.875C1104.02 159.891 1101.3 160.391 1098.3 160.375C1095.3 160.391 1092.58 159.891 1090.12 158.875C1087.69 157.859 1085.76 156.422 1084.36 154.562C1082.97 152.688 1082.27 150.531 1082.27 148.094C1082.27 145.672 1082.97 143.539 1084.36 141.695C1085.76 139.836 1087.69 138.398 1090.12 137.383C1092.56 136.352 1095.29 135.828 1098.3 135.812ZM1098.3 140.688C1096.34 140.672 1094.58 140.969 1093.03 141.578C1091.48 142.172 1090.27 143.031 1089.4 144.156C1088.52 145.281 1088.09 146.594 1088.09 148.094C1088.09 149.609 1088.52 150.93 1089.4 152.055C1090.27 153.164 1091.48 154.016 1093.03 154.609C1094.58 155.203 1096.34 155.5 1098.3 155.5C1100.27 155.5 1102.02 155.203 1103.55 154.609C1105.09 154.016 1106.28 153.164 1107.14 152.055C1108.01 150.93 1108.46 149.609 1108.48 148.094C1108.46 146.594 1108.01 145.281 1107.14 144.156C1106.28 143.031 1105.09 142.172 1103.55 141.578C1102.02 140.969 1100.27 140.672 1098.3 140.688ZM1117.9 171.109H1078.85V166.281H1117.9V171.109ZM1157.94 171.578H1118.9V166.656H1135.35V160.234H1123.4V145.891H1147.54V141.203H1123.35V136.422H1153.44V150.578H1129.4V155.359H1154.43V160.234H1141.3V166.656H1157.94V171.578ZM1207.47 159.391H1190.92V163.094H1202.73V176.266H1196.78V167.828H1172.87V163.094H1185.02V159.391H1168.56V154.656H1207.47V159.391ZM1190.92 137.547H1203.72V142.188H1191.39C1191.62 143.25 1192.29 144.234 1193.38 145.141C1194.49 146.031 1196.08 146.789 1198.14 147.414C1200.22 148.039 1202.75 148.453 1205.73 148.656L1203.91 153.109C1200.03 152.844 1196.74 152.18 1194.04 151.117C1191.35 150.039 1189.33 148.625 1187.97 146.875C1186.61 148.625 1184.58 150.039 1181.87 151.117C1179.17 152.18 1175.89 152.844 1172.03 153.109L1170.2 148.656C1173.17 148.453 1175.69 148.039 1177.75 147.414C1179.81 146.789 1181.39 146.031 1182.48 145.141C1183.59 144.234 1184.27 143.25 1184.52 142.188H1172.31V137.547H1185.02V133.703H1190.92V137.547ZM1242.26 150.344H1248.54V155.266H1242.26V176.312H1236.36V133.656H1242.26V150.344ZM1233.45 144.812H1208.37V140.031H1218.03V134.312H1224.03V140.031H1233.45V144.812ZM1221.03 147.203C1223.09 147.203 1224.94 147.641 1226.58 148.516C1228.24 149.375 1229.54 150.578 1230.47 152.125C1231.43 153.672 1231.9 155.422 1231.9 157.375C1231.9 159.328 1231.43 161.078 1230.47 162.625C1229.54 164.172 1228.24 165.383 1226.58 166.258C1224.94 167.117 1223.09 167.547 1221.03 167.547C1218.95 167.547 1217.08 167.117 1215.43 166.258C1213.77 165.383 1212.47 164.172 1211.51 162.625C1210.58 161.078 1210.11 159.328 1210.11 157.375C1210.11 155.422 1210.58 153.672 1211.51 152.125C1212.47 150.578 1213.77 149.375 1215.43 148.516C1217.08 147.641 1218.95 147.203 1221.03 147.203ZM1221.03 152.031C1220.03 152.047 1219.13 152.273 1218.33 152.711C1217.55 153.148 1216.93 153.766 1216.48 154.562C1216.04 155.359 1215.83 156.297 1215.83 157.375C1215.83 158.469 1216.04 159.414 1216.48 160.211C1216.93 161.008 1217.55 161.617 1218.33 162.039C1219.13 162.445 1220.03 162.641 1221.03 162.625C1222.03 162.641 1222.92 162.445 1223.7 162.039C1224.48 161.617 1225.09 161.008 1225.53 160.211C1225.97 159.414 1226.18 158.469 1226.18 157.375C1226.18 156.297 1225.97 155.359 1225.53 154.562C1225.09 153.766 1224.48 153.148 1223.7 152.711C1222.92 152.273 1222.03 152.047 1221.03 152.031ZM1282.49 143.922H1288.26V148.891H1282.49V158.641H1276.49V133.656H1282.49V143.922ZM1260.51 163.516H1276.49V160.281H1282.49V175.844H1254.56V160.281H1260.51V163.516ZM1276.49 171.156V168.109H1260.51V171.156H1276.49ZM1273.96 142.094H1248.65V137.406H1258.35V133.375H1264.31V137.406H1273.96V142.094ZM1261.31 143.312C1263.35 143.312 1265.17 143.625 1266.77 144.25C1268.36 144.875 1269.6 145.758 1270.47 146.898C1271.36 148.039 1271.81 149.359 1271.81 150.859C1271.81 152.359 1271.36 153.68 1270.47 154.82C1269.6 155.961 1268.36 156.844 1266.77 157.469C1265.17 158.094 1263.35 158.406 1261.31 158.406C1259.23 158.406 1257.39 158.094 1255.78 157.469C1254.18 156.844 1252.94 155.961 1252.05 154.82C1251.16 153.68 1250.71 152.359 1250.71 150.859C1250.71 149.359 1251.16 148.039 1252.05 146.898C1252.94 145.758 1254.18 144.875 1255.78 144.25C1257.39 143.625 1259.23 143.312 1261.31 143.312ZM1261.31 147.719C1259.85 147.688 1258.7 147.953 1257.84 148.516C1256.98 149.078 1256.56 149.859 1256.57 150.859C1256.56 151.875 1256.98 152.664 1257.84 153.227C1258.7 153.773 1259.85 154.047 1261.31 154.047C1262.78 154.047 1263.95 153.773 1264.82 153.227C1265.7 152.664 1266.14 151.875 1266.14 150.859C1266.14 149.859 1265.69 149.078 1264.8 148.516C1263.92 147.953 1262.76 147.688 1261.31 147.719ZM1324.55 176.312H1318.6V133.656H1324.55V176.312ZM1296.9 160.68C1303.23 160.57 1309.3 159.953 1315.13 158.828L1315.88 163.75C1309.46 165.094 1302.68 165.766 1295.54 165.766H1294.74H1290.99V137.734H1296.9V160.68ZM1362.4 149.5H1368.68V154.375H1362.4V176.406H1356.4V133.656H1362.4V149.5ZM1350.44 142.422H1336.38V161.125C1339.74 161.094 1342.74 160.977 1345.38 160.773C1348.02 160.57 1350.68 160.234 1353.35 159.766L1354.01 164.781C1351.15 165.266 1348.33 165.602 1345.54 165.789C1342.78 165.961 1339.6 166.047 1336.01 166.047H1334.04H1330.43V137.594H1350.44V142.422ZM1387.5 161.828H1381.5L1380.89 138.062H1388.11L1387.5 161.828ZM1384.55 172.422C1383.83 172.422 1383.16 172.242 1382.55 171.883C1381.95 171.523 1381.46 171.047 1381.1 170.453C1380.76 169.844 1380.59 169.188 1380.61 168.484C1380.59 167.781 1380.76 167.133 1381.1 166.539C1381.46 165.945 1381.95 165.477 1382.55 165.133C1383.16 164.773 1383.83 164.594 1384.55 164.594C1385.22 164.594 1385.85 164.773 1386.45 165.133C1387.05 165.477 1387.54 165.945 1387.9 166.539C1388.26 167.133 1388.44 167.781 1388.44 168.484C1388.44 169.188 1388.26 169.844 1387.9 170.453C1387.54 171.047 1387.05 171.523 1386.45 171.883C1385.85 172.242 1385.22 172.422 1384.55 172.422Z" fill="white"/>
</g>
</g>
<defs>
<filter id="filter0_d_236_1331" x="527.109" y="131.875" width="864.828" height="48.0312" filterUnits="userSpaceOnUse" color-interpolation-filters="sRGB">
<feFlood flood-opacity="0" result="BackgroundImageFix"/>
<feColorMatrix in="SourceAlpha" type="matrix" values="0 0 0 0 0 0 0 0 0 0 0 0 0 0 0 0 0 0 127 0" result="hardAlpha"/>
<feOffset dx="1" dy="1"/>
<feGaussianBlur stdDeviation="1.25"/>
<feComposite in2="hardAlpha" operator="out"/>
<feColorMatrix type="matrix" values="0 0 0 0 0 0 0 0 0 0 0 0 0 0 0 0 0 0 0.25 0"/>
<feBlend mode="normal" in2="BackgroundImageFix" result="effect1_dropShadow_236_1331"/>
<feBlend mode="normal" in="SourceGraphic" in2="effect1_dropShadow_236_1331" result="shape"/>
</filter>
<clipPath id="clip0_236_1331">
<rect width="1920" height="400" fill="white"/>
</clipPath>
</defs>
</svg>
