<svg width="375" height="120" viewBox="0 0 375 120" fill="none" xmlns="http://www.w3.org/2000/svg">
<g clip-path="url(#clip0_244_5478)">
<rect width="375" height="120" fill="#712732"/>
<g opacity="0.1">
<path d="M151.036 13.7304L143.403 8.36712L144.4 7.61539L148.115 10.2898C149.127 11.0271 150.038 11.6921 150.848 12.386H150.877C150.457 11.4029 150.081 10.2898 149.72 9.11885L148.303 4.70967L149.286 3.9724L152.047 12.9787L151.036 13.7304Z" fill="#F5F5F5"/>
<path d="M157.208 4.78187L154.245 6.50217L155.849 9.26332L159.174 7.32618L159.651 8.16465L155.329 10.68L150.876 3.0182L155.025 0.603996L155.502 1.42801L152.351 3.26395L153.753 5.67816L156.717 3.95786L157.194 4.78187H157.208Z" fill="#F5F5F5"/>
<path d="M157.382 -0.451291C157.873 -0.783786 158.611 -1.18856 159.319 -1.5066C160.447 -1.99812 161.271 -2.09931 161.964 -1.86801C162.514 -1.68008 163.005 -1.23193 163.28 -0.595852C163.743 0.459458 163.381 1.4714 162.658 2.13639V2.1653C163.381 2.10748 164.017 2.52671 164.581 3.29289C165.347 4.30483 165.882 4.99874 166.186 5.2445L165.102 5.72155C164.87 5.53362 164.379 4.92646 163.728 4.01571C162.991 3.00377 162.369 2.77247 161.401 3.16279L160.418 3.59648L161.964 7.10936L160.924 7.57197L157.411 -0.436832L157.382 -0.451291ZM160.042 2.78692L161.112 2.30986C162.239 1.81835 162.673 0.893147 162.268 -0.0320569C161.805 -1.07291 160.851 -1.20302 159.738 -0.725959C159.232 -0.509115 158.9 -0.306728 158.741 -0.191077L160.042 2.77247V2.78692Z" fill="#F5F5F5"/>
<path d="M165.636 -3.89197L168.484 4.50714L167.385 4.88301L164.538 -3.51611L165.636 -3.89197Z" fill="#F5F5F5"/>
<path d="M170.06 -4.18107L167.443 -3.53054L167.212 -4.4702L173.573 -6.07485L173.804 -5.13519L171.173 -4.4702L173.096 3.17719L171.968 3.46632L170.046 -4.18107H170.06Z" fill="#F5F5F5"/>
<path d="M176.681 -0.393439L176.161 2.49782L174.99 2.6713L176.739 -6.53737L178.098 -6.7253L182.333 1.63045L181.119 1.80392L179.789 -0.827127L176.681 -0.378979V-0.393439ZM179.442 -1.6945L178.213 -4.09425C177.939 -4.64359 177.736 -5.14956 177.534 -5.62662H177.505C177.447 -5.09174 177.389 -4.52794 177.288 -3.96415L176.782 -1.30419L179.442 -1.68005V-1.6945Z" fill="#F5F5F5"/>
<path d="M183.36 0.213713C183.88 0.531752 184.617 0.763051 185.413 0.748595C186.584 0.719683 187.249 0.0980616 187.234 -0.79823C187.22 -1.60778 186.728 -2.08484 185.528 -2.51853C184.068 -3.01005 183.157 -3.76177 183.128 -4.99056C183.1 -6.36391 184.227 -7.41922 185.947 -7.46259C186.844 -7.47705 187.523 -7.28911 187.899 -7.07227L187.61 -6.13261C187.335 -6.29163 186.728 -6.53738 185.933 -6.52293C184.719 -6.49401 184.285 -5.75675 184.299 -5.14958C184.314 -4.32557 184.863 -3.9208 186.092 -3.47265C187.61 -2.92331 188.362 -2.21495 188.391 -0.913883C188.419 0.459467 187.451 1.6738 185.355 1.71716C184.502 1.73162 183.562 1.48587 183.085 1.18228L183.36 0.213713Z" fill="#F5F5F5"/>
<path d="M193.754 -1.08746C193.566 0.473823 194.462 1.24001 195.619 1.39903C196.443 1.51468 196.963 1.42794 197.411 1.31229L197.513 2.16521C197.079 2.29532 196.342 2.42543 195.344 2.29532C193.407 2.0351 192.409 0.589473 192.67 -1.31876C192.93 -3.22699 194.245 -4.55697 196.081 -4.31122C198.163 -4.03655 198.452 -2.15722 198.293 -1.00072C198.264 -0.769418 198.221 -0.595944 198.178 -0.465837L193.739 -1.05855L193.754 -1.08746ZM197.223 -1.46332C197.339 -2.17168 197.18 -3.3571 195.879 -3.53057C194.708 -3.68959 194.072 -2.70657 193.87 -1.91147L197.223 -1.46332Z" fill="#F5F5F5"/>
<path d="M202.283 -4.61465L201.936 -3.12566L203.555 -2.74979L203.353 -1.89687L201.734 -2.27273L200.968 1.08113C200.794 1.84731 200.91 2.33883 201.531 2.48339C201.835 2.55567 202.023 2.57013 202.211 2.55567L202.066 3.42305C201.835 3.45196 201.474 3.45196 201.025 3.35077C200.505 3.23512 200.115 2.94599 199.912 2.59904C199.681 2.17981 199.681 1.60156 199.854 0.878742L200.635 -2.50403L199.681 -2.72088L199.869 -3.5738L200.823 -3.35696L201.083 -4.51346L202.269 -4.6002L202.283 -4.61465Z" fill="#F5F5F5"/>
<path d="M209.222 -3.67508L210.306 -3.2703L207.502 4.11687L211.044 5.4613L210.697 6.3576L206.071 4.60838L209.208 -3.68954L209.222 -3.67508Z" fill="#F5F5F5"/>
<path d="M216.436 -0.711564L214.022 3.95783C213.111 5.70704 213.516 6.86355 214.571 7.41288C215.727 8.00559 216.884 7.62973 217.78 5.89497L220.194 1.22558L221.221 1.76047L218.85 6.37203C217.607 8.78623 215.814 9.11873 214.108 8.23689C212.489 7.39843 211.752 5.86606 213.024 3.40849L215.424 -1.23199L216.45 -0.697105L216.436 -0.711564Z" fill="#F5F5F5"/>
<path d="M222.695 13.3979L222.883 11.1283C222.941 10.2465 222.985 9.69711 223.057 9.11886H223.042C222.536 9.37907 222.059 9.61038 221.25 10.0007L219.269 10.9837L218.185 10.232L222.97 8.10692L223.346 3.0183L224.43 3.78448L224.199 6.15531C224.141 6.8203 224.083 7.32628 224.011 7.8467L224.04 7.87562C224.546 7.58649 224.965 7.3841 225.558 7.10943L227.726 6.09749L228.81 6.86367L224.127 8.85865L223.78 14.1786L222.695 13.4124V13.3979Z" fill="#F5F5F5"/>
<path d="M186.988 172.995C156.804 172.995 128.426 161.243 107.088 139.905C85.7508 118.553 73.9978 90.1753 73.9978 60.005C73.9978 29.8346 85.7508 1.44246 107.088 -19.9095C128.44 -41.247 156.818 -53 186.988 -53C217.159 -53 245.551 -41.247 266.888 -19.9095C288.226 1.428 299.979 29.8057 299.979 59.9905C299.979 90.1753 288.226 118.553 266.888 139.891C245.551 161.228 217.173 172.981 186.988 172.981V172.995ZM186.988 -49.516C126.604 -49.516 77.4673 -0.393494 77.4673 60.005C77.4673 120.403 126.604 169.526 186.988 169.526C247.372 169.526 296.509 120.403 296.509 60.005C296.509 -0.393494 247.387 -49.516 186.988 -49.516Z" fill="#F5F5F5"/>
<path d="M186.988 167.271C158.336 167.271 131.404 156.111 111.136 135.857C90.8828 115.59 79.7225 88.643 79.7225 60.005C79.7225 31.3671 90.8828 4.42051 111.136 -15.8472C131.404 -36.115 158.35 -47.2753 186.988 -47.2753C215.626 -47.2753 242.587 -36.115 262.841 -15.8617C283.094 4.40605 294.254 31.3382 294.254 59.9906C294.254 88.643 283.094 115.575 262.841 135.843C242.587 156.096 215.641 167.256 186.988 167.256V167.271ZM186.988 -45.9597C128.57 -45.9597 81.0381 1.57262 81.0381 60.005C81.0381 118.437 128.57 165.97 187.003 165.97C245.435 165.97 292.968 118.437 292.968 60.005C292.968 1.57262 245.421 -45.9597 186.988 -45.9597Z" fill="#F5F5F5"/>
<path d="M186.988 137.679C144.154 137.679 109.3 102.825 109.3 59.9905C109.3 17.1564 144.154 -17.6977 186.988 -17.6977C229.822 -17.6977 264.677 17.1564 264.677 59.9905C264.677 102.825 229.822 137.679 186.988 137.679ZM186.988 -16.3822C144.877 -16.3822 110.601 17.8792 110.601 60.0049C110.601 102.131 144.863 136.392 186.988 136.392C229.114 136.392 263.376 102.131 263.376 60.0049C263.376 17.8792 229.114 -16.3822 186.988 -16.3822Z" fill="#F5F5F5"/>
<path d="M186.988 134.267C146.034 134.267 112.726 100.945 112.726 59.9904C112.726 19.0357 146.048 -14.2861 186.988 -14.2861C227.929 -14.2861 261.265 19.0357 261.265 59.9904C261.265 100.945 227.943 134.267 186.988 134.267ZM186.988 -12.1032C147.233 -12.1032 114.895 20.2356 114.895 59.9904C114.895 99.7453 147.233 132.084 186.988 132.084C226.743 132.084 259.082 99.7453 259.082 59.9904C259.082 20.2356 226.743 -12.1032 186.988 -12.1032Z" fill="#F5F5F5"/>
<path d="M117.237 5.72148C117.237 7.02255 116.181 8.07786 114.88 8.07786C113.579 8.07786 112.524 7.02255 112.524 5.72148C112.524 4.42041 113.579 3.3651 114.88 3.3651C116.181 3.3651 117.237 4.42041 117.237 5.72148Z" fill="#F5F5F5"/>
<path d="M263.173 5.72148C263.173 7.02255 262.118 8.07786 260.817 8.07786C259.516 8.07786 258.46 7.02255 258.46 5.72148C258.46 4.42041 259.516 3.3651 260.817 3.3651C262.118 3.3651 263.173 4.42041 263.173 5.72148Z" fill="#F5F5F5"/>
<path d="M112.914 22.0139L112.379 23.1704L105.05 19.8021V19.8455C105.513 20.3515 105.932 20.843 106.337 21.2911L110.789 26.6544L110.124 28.1L105.166 21.8838L94.8005 21.3634L95.4366 19.9901L104.255 20.4671L102.983 18.848L97.1858 16.188L97.7207 15.0315L112.929 22.0139H112.914Z" fill="#F5F5F5"/>
<path d="M93.3837 25.1076L110.066 27.9555L109.647 29.2277L101.234 27.6953C99.1663 27.3194 97.099 26.9291 95.5088 26.5822V26.6111C97.0267 27.2761 98.8193 28.2013 100.771 29.1843L108.375 33.073L107.956 34.3307L99.5132 32.8273C97.5472 32.4659 95.5666 32.1045 93.8463 31.6852V31.7142C95.5233 32.4803 97.2002 33.3333 99.0795 34.2729L106.684 38.1472L106.279 39.3905L91.2587 31.5118L91.6779 30.2396L100.337 31.772C102.462 32.1478 104.081 32.4659 105.729 32.8707V32.8417C104.212 32.1623 102.723 31.4395 100.785 30.4131L92.9501 26.3509L93.3693 25.0787L93.3837 25.1076Z" fill="#F5F5F5"/>
<path d="M94.9451 38.364L90.0155 36.2534L90.2901 34.9668L105.946 41.7468L105.628 43.2502L88.5698 43.0334L88.859 41.7034L94.2222 41.7757L94.9595 38.3496L94.9451 38.364ZM95.9136 41.8769L100.829 41.9492C101.942 41.9492 102.939 42.0214 103.922 42.0793V42.0504C102.983 41.7034 102.029 41.3276 101.075 40.9228L96.5497 38.9567L95.9281 41.8624L95.9136 41.8769Z" fill="#F5F5F5"/>
<path d="M88.1794 45.5633L104.804 47.3703L104.66 48.7581L95.8991 50.9844C93.8752 51.5048 92.0537 51.8807 90.3045 52.1554L90.3334 52.1843C92.5597 52.3144 94.598 52.5023 97.1857 52.777L104.139 53.5287L104.009 54.7286L87.3699 52.9215L87.5144 51.6349L96.2894 49.4376C98.2121 48.9605 100.178 48.5124 102.043 48.2088V48.1654C99.9179 48.0064 97.923 47.8185 95.1474 47.5149L88.0349 46.7342L88.165 45.5344L88.1794 45.5633Z" fill="#F5F5F5"/>
<path d="M87.9337 63.8215C87.5867 63.2577 87.0229 62.1302 87.0229 60.7857C87.0229 59.2967 87.6735 58.0679 89.2348 57.0994C90.6226 56.2464 92.8633 55.726 95.4654 55.726C100.453 55.726 104.096 57.7644 104.096 61.0748C104.096 62.2169 103.677 63.1132 103.33 63.5324L101.566 63.2288C101.971 62.694 102.289 62.0434 102.289 61.0459C102.289 58.6462 99.759 57.0849 95.5666 57.0849C91.3743 57.0849 88.8155 58.5884 88.8155 60.8869C88.8155 61.7254 89.0179 62.2892 89.2637 62.5928H94.2511V60.5833H95.9859V63.836H87.9482L87.9337 63.8215Z" fill="#F5F5F5"/>
<path d="M87.5289 68.7079L103.807 64.1253L103.98 65.4697L95.7256 67.696C93.6872 68.2453 91.6634 68.7657 90.0732 69.1416V69.1705C91.7501 69.1127 93.7595 69.1705 95.9424 69.2428L104.486 69.4886L104.66 70.8041L96.3906 73.0593C94.4534 73.5797 92.5163 74.1001 90.7815 74.4615V74.4904C92.6319 74.4615 94.5113 74.5049 96.6219 74.5483L105.166 74.7796L105.325 76.0806L88.3673 75.4012L88.2083 74.0857L96.6942 71.7582C98.7759 71.18 100.381 70.7752 102.029 70.4282V70.3993C100.352 70.4282 98.7036 70.4138 96.5062 70.327L87.6879 70.0234L87.5144 68.7079H87.5289Z" fill="#F5F5F5"/>
<path d="M99.7444 86.7349C94.1643 88.1806 90.6948 86.9518 90.0587 84.5231C89.4082 81.9933 92.2561 79.3622 97.1568 78.0901C102.303 76.7456 106.149 77.7576 106.814 80.3163C107.493 82.9185 104.544 85.4917 99.73 86.7494L99.7444 86.7349ZM97.5471 79.3911C94.092 80.2874 91.273 82.1957 91.779 84.1473C92.285 86.0989 95.6244 86.4169 99.3108 85.4628C102.535 84.6243 105.643 82.7594 105.108 80.7066C104.573 78.6683 101.118 78.4804 97.5615 79.4056L97.5471 79.3911Z" fill="#F5F5F5"/>
<path d="M103.373 96.4059C97.9954 98.4587 94.4102 97.6347 93.4995 95.2783C92.5743 92.8497 95.1186 89.915 99.8458 88.0936C104.804 86.1998 108.751 86.7636 109.691 89.2356C110.659 91.751 108.014 94.6278 103.373 96.4059ZM100.381 89.3513C97.0413 90.6234 94.4681 92.8352 95.1764 94.7145C95.8992 96.6083 99.2531 96.536 102.795 95.1916C105.903 94.0062 108.78 91.8088 108.028 89.8139C107.276 87.8478 103.807 88.0357 100.381 89.3513Z" fill="#F5F5F5"/>
<path d="M96.4919 101.841L111.469 94.3965L112.09 95.6397L105.917 102.232C104.486 103.764 103.156 105.065 101.841 106.236H101.87C103.821 105.152 105.628 104.227 107.97 103.056L114.23 99.9477L114.765 101.017L99.7879 108.462L99.2097 107.306L105.411 100.728C106.77 99.2827 108.187 97.8371 109.589 96.5939L109.546 96.5649C107.696 97.5769 105.903 98.4876 103.416 99.7309L97.0123 102.911L96.4774 101.841H96.4919Z" fill="#F5F5F5"/>
<path d="M119.521 108.173L111.656 114.202C108.678 116.486 108.013 118.221 108.823 119.276C109.719 120.432 111.584 120.187 114.519 117.931L122.383 111.903L123.164 112.93L115.415 118.857C111.338 121.979 108.693 121.994 107.392 120.302C106.163 118.698 106.799 116.298 110.919 113.146L118.74 107.147L119.521 108.173Z" fill="#F5F5F5"/>
<path d="M112.004 125.608L124.19 114.144L125.144 115.156L121.14 123.266C120.215 125.145 119.318 126.764 118.393 128.282H118.437C119.983 126.663 121.444 125.261 123.337 123.468L128.44 118.669L129.264 119.551L117.078 131.014L116.196 130.075L120.229 121.979C121.111 120.201 122.051 118.409 123.034 116.804H122.99C121.501 118.293 120.056 119.681 118.032 121.589L112.828 126.49L112.004 125.608Z" fill="#F5F5F5"/>
<path d="M253.401 131.072C253.964 131.072 255.034 130.884 255.714 130.205C256.971 128.962 256.104 127.299 255.135 126.359C253.531 124.769 251.941 124.986 251.001 125.926L250.452 126.461L249.295 125.304L249.844 124.769C250.553 124.061 250.871 122.586 249.526 121.227C248.616 120.317 247.445 119.869 246.548 120.765C245.97 121.343 245.811 122.297 245.854 122.948L244.481 122.08C244.423 121.271 244.712 120.1 245.493 119.319C246.91 117.902 248.89 118.611 250.264 119.999C251.435 121.184 251.984 122.615 251.608 124.017L251.637 124.046C252.808 123.439 254.572 123.786 256.162 125.391C257.983 127.227 258.677 129.713 256.942 131.434C256.133 132.243 255.02 132.532 254.297 132.518L253.372 131.058L253.401 131.072Z" fill="#F5F5F5"/>
<path d="M263.968 123.425L260.614 120.591L257.564 124.205L256.465 123.28L251.521 113.175L252.475 112.033L260.137 118.495L261.048 117.411L262.364 118.51L261.453 119.594L264.807 122.427L263.968 123.425ZM259.299 119.493L255.179 116.023C254.528 115.474 253.892 114.924 253.271 114.361L253.242 114.39C253.762 115.242 254.123 115.879 254.514 116.572L257.101 122.008L257.145 122.037L259.284 119.493H259.299Z" fill="#F5F5F5"/>
<path d="M269.013 112.192C269.837 111.99 270.734 111.484 271.225 110.689C271.948 109.503 271.384 108.202 269.953 107.32C268.623 106.496 267.568 106.511 266.079 107.262C264.359 108.217 262.595 108.376 260.585 107.147C258.359 105.773 257.434 103.605 258.504 101.856C259.068 100.945 259.819 100.482 260.426 100.309L261.727 101.552C261.294 101.682 260.499 102.029 259.993 102.839C259.241 104.068 260.108 105.253 261.091 105.846C262.421 106.67 263.419 106.525 264.937 105.759C266.802 104.819 268.435 104.762 270.531 106.048C272.729 107.407 274.001 109.604 272.7 111.715C272.165 112.582 271.182 113.276 270.387 113.45L269.028 112.207L269.013 112.192Z" fill="#F5F5F5"/>
<path d="M271.269 97.6635L269.375 101.292L274.724 104.082L276.834 100.034L278.439 100.873L275.707 106.135L260.875 98.4153L263.506 93.37L265.11 94.2085L263.115 98.0539L267.799 100.497L269.693 96.8684L271.283 97.6925L271.269 97.6635Z" fill="#F5F5F5"/>
<path d="M274.868 86.6191C280.289 88.5563 282.429 91.6499 281.533 94.1942C280.593 96.8108 276.719 97.5047 271.948 95.8133C266.946 94.0352 264.373 90.9126 265.313 88.2527C266.281 85.5494 270.199 84.9566 274.868 86.6336V86.6191ZM272.382 94.4255C275.75 95.6254 279.176 95.5531 279.899 93.5292C280.622 91.4909 278.063 89.2935 274.492 88.0214C271.355 86.9083 267.712 86.7781 266.961 88.9032C266.209 91.0283 268.941 93.1967 272.396 94.4255H272.382Z" fill="#F5F5F5"/>
<path d="M267.669 81.5015L277.326 83.7133C280.983 84.5518 282.762 83.8868 283.08 82.5135C283.426 80.9955 282.053 79.6511 278.454 78.8271L268.797 76.6153L269.1 75.2709L278.613 77.4393C283.614 78.5814 285.291 80.7209 284.785 82.9472C284.308 85.0578 282.024 86.1998 276.965 85.0433L267.351 82.846L267.655 81.5015H267.669Z" fill="#F5F5F5"/>
<path d="M269.36 73.4638L269.548 72.1193L284.323 74.1432L284.93 69.6907L286.722 69.9364L285.927 75.7479L269.346 73.4782L269.36 73.4638Z" fill="#F5F5F5"/>
<path d="M270.575 60.453L270.546 59.0941L278.612 58.964V58.9206C277.962 58.646 277.355 58.3713 276.805 58.1255L270.473 55.0174L270.445 53.3261L277.615 57.0124L287.171 52.7333L287.199 54.338L279.046 57.9521L280.896 58.9206L287.272 58.8194L287.301 60.1783L270.575 60.4675V60.453Z" fill="#F5F5F5"/>
<path d="M277.456 42.9322C283.166 42.2238 286.477 44.0453 286.795 46.7053C287.142 49.4665 283.976 51.8228 278.945 52.4445C273.668 53.095 269.968 51.4614 269.621 48.6569C269.274 45.7945 272.512 43.5249 277.441 42.9177L277.456 42.9322ZM278.728 51.0133C282.27 50.5796 285.306 48.9749 285.045 46.8499C284.785 44.7103 281.504 43.8863 277.731 44.3489C274.435 44.7537 271.11 46.2716 271.399 48.5268C271.673 50.7675 275.085 51.4759 278.743 51.0277L278.728 51.0133Z" fill="#F5F5F5"/>
<path d="M269.259 42.8309C268.883 42.2092 268.536 41.284 268.305 40.3733C267.973 38.9566 268.16 37.9446 268.912 37.0917C269.519 36.3978 270.546 35.8485 271.803 35.5449C273.957 35.0244 275.577 35.5449 276.415 36.4701H276.487C276.733 35.5593 277.774 34.8076 279.407 34.1571C281.59 33.2752 283.108 32.6536 283.687 32.2922L284.019 33.6656C283.6 33.9402 282.255 34.504 280.304 35.2847C278.135 36.1231 277.427 36.8749 277.644 38.1036L277.947 39.3469L284.988 37.641L285.306 38.971L269.259 42.8453V42.8309ZM276.343 39.7227L276.01 38.3639C275.663 36.9471 274.218 36.3544 272.367 36.8026C270.271 37.3085 269.577 38.494 269.895 39.8962C270.054 40.5323 270.257 40.966 270.401 41.1539L276.343 39.7227Z" fill="#F5F5F5"/>
<path d="M273.712 27.2469L275.056 31.1212L280.752 29.1407L279.249 24.8327L280.969 24.24L282.92 29.8346L267.12 35.328L265.255 29.9503L266.961 29.3576L268.377 33.4487L273.365 31.7139L272.02 27.8396L273.712 27.2469Z" fill="#F5F5F5"/>
<path d="M274.406 22.2451L279.639 21.0018L280.232 22.274L263.563 26.1483L262.87 24.6593L276.473 14.2941L277.095 15.6096L272.815 18.8623L274.406 22.2451ZM271.399 19.8309L267.481 22.8088C266.599 23.4883 265.761 24.0521 264.951 24.6014V24.6303C265.934 24.3412 266.932 24.0665 267.929 23.8208L272.743 22.6932L271.399 19.8164V19.8309Z" fill="#F5F5F5"/>
<path d="M249.454 -1.13073L248.471 -1.98365L255.742 -10.3249C256.22 -10.8598 256.162 -11.6983 255.612 -12.1754L244.611 -21.7599L243.252 -20.1986L252.779 -11.8718L246.013 -4.10873L243.758 -6.07479L248.182 -11.149L245.883 -13.1584L241.445 -8.08422L239.71 -9.60213L244.134 -14.6763L241.836 -16.6713L237.412 -11.5971L235.287 -13.462L233.913 -11.8862L248.081 0.473919L249.454 -1.10182V-1.13073Z" fill="#F5F5F5"/>
<path d="M238.41 27.03C238.149 26.1337 237.398 25.4976 236.472 25.3964C236.328 25.3964 236.183 25.3964 236.039 25.4109L226.758 27.2613V22.2016C226.758 20.7126 225.514 19.5127 223.997 19.5127H194.737C194.26 19.5127 193.884 19.1513 193.884 18.6887L193.87 11.3594C193.87 9.87036 192.626 8.67049 191.108 8.67049H182.984C181.466 8.67049 180.223 9.88482 180.223 11.3594V18.6598L180.208 18.6743C180.208 19.1369 179.818 19.4983 179.355 19.4983H150.096C148.578 19.4983 147.335 20.6981 147.335 22.1871V27.2468L138.054 25.3964C137.909 25.3675 137.765 25.3675 137.62 25.382C136.695 25.4832 135.943 26.1192 135.683 27.0155C135.64 27.189 135.625 27.3625 135.64 27.536L143.836 100.656L144.125 103.301C144.53 105.499 145.904 107.465 147.956 108.708L183.996 128.109C184.965 128.499 185.991 128.701 187.017 128.701C188.044 128.701 189.07 128.499 190.053 128.109L226.093 108.708C228.146 107.465 229.533 105.499 229.924 103.301L230.213 100.656L238.41 27.536C238.424 27.3625 238.409 27.1746 238.366 27.0155L238.41 27.03ZM150.154 22.2305H180.208C181.77 22.2305 183.027 20.9873 183.027 19.4694V13.1664C183.027 12.2123 183.794 11.4316 184.777 11.3883H189.301C190.284 11.4316 191.051 12.1978 191.051 13.1664V19.4694C191.051 20.9873 192.308 22.2305 193.87 22.2305H223.924V27.8106L219.515 28.6925V26.7264C219.515 25.194 218.243 23.9508 216.667 23.9508H205.319C203.758 23.9508 202.471 25.194 202.471 26.7264V32.0752L198.308 32.8993V26.7264C198.308 25.2808 197.093 24.0954 195.604 24.0954H178.445C176.956 24.0954 175.741 25.2808 175.741 26.7264V32.8993L171.578 32.0752V26.7264C171.578 25.194 170.306 23.9508 168.73 23.9508H157.382C155.806 23.9508 154.534 25.194 154.534 26.7264V28.6925L150.139 27.8106V22.2305H150.154ZM216.566 29.2707L205.492 31.4681V26.8421H216.566V29.2707ZM195.648 33.4197L189.287 34.6774C188.998 34.7497 187.552 34.9521 187.061 34.9521C186.569 34.9521 185.138 34.7641 184.834 34.6774L178.459 33.4197V26.712H195.633V33.4341L195.648 33.4197ZM168.614 31.4681L157.541 29.2707V26.8421H168.614V31.4681ZM227.119 102.824C226.902 104.14 225.934 105.557 224.589 106.323L188.853 125.564C188.362 125.752 187.726 125.853 187.061 125.853C186.396 125.853 185.76 125.752 185.268 125.564L149.532 106.323C148.188 105.557 147.219 104.14 147.002 102.824L138.82 29.7767C138.82 29.2707 139.008 28.4756 140.497 28.7937L184.169 37.453C184.473 37.5397 184.791 37.5976 185.109 37.6409C185.745 37.7421 186.396 37.7855 187.046 37.7855C187.697 37.7855 188.347 37.7421 188.983 37.6409C189.301 37.5976 189.619 37.5397 189.923 37.453L233.61 28.7937C235.099 28.4756 235.301 29.2707 235.287 29.7767L227.105 102.824H227.119Z" fill="#F5F5F5"/>
<path d="M206.707 51.9671C211.767 51.9671 215.641 49.524 215.641 45.5485C215.641 41.573 211.767 39.1299 206.707 39.1299C201.647 39.1299 197.758 41.573 197.758 45.5485C197.758 49.524 201.633 51.9671 206.707 51.9671ZM206.707 41.8766C209.034 41.8766 210.928 43.2933 210.928 45.5341C210.928 47.7748 209.034 49.1915 206.707 49.1915C204.379 49.1915 202.486 47.7748 202.486 45.5341C202.486 43.2933 204.379 41.8766 206.707 41.8766Z" fill="#F5F5F5"/>
<path d="M193.262 52.661V55.5233H204.278V59.8313H208.745V55.5233H220.137V52.661H193.262Z" fill="#F5F5F5"/>
<path d="M199.696 56.8967H195.257V62.8672C195.257 64.0526 195.951 65.2814 197.787 65.2814H218.575V62.4479H199.696V56.8823V56.8967Z" fill="#F5F5F5"/>
<path d="M173.183 53.745V50.955H171.679V43.1197C171.679 42.0933 170.826 41.2403 169.8 41.2403H155.3V44.2183H167.443V50.955H162.456V46.4735H158.452V50.955H154.071V53.8173H164.523C161.574 54.8726 159.565 56.9688 159.565 59.542C159.565 63.2428 163.772 66.004 168.947 66.004C174.122 66.004 178.344 63.2428 178.344 59.542C178.344 56.9254 176.247 54.7859 173.197 53.7595L173.183 53.745ZM168.932 63.185C166.388 63.185 164.321 61.6527 164.321 59.5131C164.321 57.3736 166.388 55.8412 168.932 55.8412C171.477 55.8412 173.544 57.3736 173.544 59.5131C173.544 61.6527 171.477 63.185 168.932 63.185Z" fill="#F5F5F5"/>
<path d="M183.027 45.505H179.066V40.4164H174.585V53.5861H179.066V48.4974H183.027V45.505Z" fill="#F5F5F5"/>
<path d="M227.9 67.479L221.842 68.809C221.438 68.9246 220.773 69.0114 220.353 69.0114H206.736C199.479 69.0114 191.513 73.4061 191.513 88.0214V105.73C191.513 107.031 190.227 107.031 189.807 107.031C189.388 107.031 188.101 107.089 188.101 105.73V88.0214C188.101 79.391 181.798 69.0114 171.318 69.0114H149.546C149.127 69.0114 148.78 69.3583 148.78 69.7776V86.5758C148.78 86.995 149.026 87.5733 149.315 87.8769L153.768 92.3294C154.057 92.6185 154.303 93.2112 154.303 93.6305L154.331 100.107C154.331 105.196 161.299 105.196 161.936 105.196C162.572 105.196 169.684 105.239 169.684 100.107C169.684 100.107 169.597 91.7222 169.597 89.5683C169.597 87.4143 168.022 85.8674 167.14 85.8674C166.258 85.8674 166.229 86.7348 166.229 87.4143V100.107C166.229 103.504 162.485 103.432 161.921 103.432C161.357 103.432 157.613 103.461 157.613 100.107V93.775C157.613 93.3558 157.367 92.7775 157.078 92.474L153.594 88.99C153.291 88.7009 153.059 88.1082 153.059 87.6889V72.2785C153.059 71.8593 153.406 71.5123 153.826 71.5123H171.303C177.013 71.5123 180.873 81.0535 180.873 84.8844V108.231C180.873 108.651 181.22 108.998 181.639 108.998H194.115C198.177 108.998 198.206 104.979 198.206 104.979V84.8989C198.206 79.0874 202.905 71.5268 206.721 71.5268H219.443C219.862 71.5268 220.093 71.8448 219.963 72.2496C219.963 72.2496 217.173 82.5425 216.797 83.3087C216.421 84.0749 215.597 84.3351 215.178 84.3351H210.48C210.061 84.3351 209.092 84.3784 209.714 85.0723C210.335 85.7662 211.94 85.8096 212.359 85.8096H215.178C215.597 85.8096 215.915 86.1421 215.756 86.5324C215.756 86.5324 214.73 90.9271 213.92 92.6185C213.111 94.3244 212.374 94.3244 211.954 94.3244H207.516C206.851 94.3244 206.085 94.6424 206.75 95.3508C207.43 96.0736 208.543 95.929 209.251 95.929H212.301C212.721 95.929 212.908 96.3627 212.706 96.7386C212.706 96.7386 212.027 98.8926 211.492 100.41C210.957 101.928 208.456 102.16 208.051 102.16H204.654C204.235 102.16 203.584 102.29 203.888 102.897C204.206 103.504 205.839 103.634 206.259 103.634H210.379C212.301 103.634 214.079 102.102 215.323 99.7889C216.566 97.4759 216.494 96.7964 216.638 96.2326C216.768 95.6688 216.667 95.6254 216.436 95.6977C215.626 95.929 214.412 95.9001 214.412 95.9001C214.412 95.9001 217.318 94.787 218.85 91.1584C219.819 88.8599 220.426 86.7493 220.541 86.3156C220.657 85.8819 220.541 85.8241 220.368 85.8674C219.472 86.1855 218.619 86.0987 218.619 86.0987C218.619 86.0987 221.163 85.029 223.548 79.4199C225.919 73.8253 228.319 67.985 228.319 67.985C228.478 67.6091 228.29 67.3778 227.885 67.4935L227.9 67.479Z" fill="#F5F5F5"/>
<path d="M161.01 79.1887C160.591 79.1887 160.114 79.5067 159.955 79.897L158.394 83.6846C158.235 84.0749 158.451 84.3929 158.871 84.3929H161.111C161.531 84.3929 162.008 84.0749 162.167 83.6846L163.728 79.897C163.887 79.5067 163.67 79.1887 163.265 79.1887H161.025H161.01Z" fill="#F5F5F5"/>
</g>
<g opacity="0.1">
<path d="M422.991 172.995C392.806 172.995 364.428 161.243 343.09 139.905C321.753 118.553 310 90.1753 310 60.005C310 29.8346 321.753 1.44246 343.09 -19.9095C364.442 -41.247 392.82 -53 422.991 -53C453.161 -53 481.553 -41.247 502.891 -19.9095C524.228 1.428 535.981 29.8057 535.981 59.9905C535.981 90.1753 524.228 118.553 502.891 139.891C481.553 161.228 453.175 172.981 422.991 172.981V172.995ZM422.991 -49.516C362.607 -49.516 313.47 -0.393494 313.47 60.005C313.47 120.403 362.607 169.526 422.991 169.526C483.375 169.526 532.512 120.403 532.512 60.005C532.512 -0.393494 483.389 -49.516 422.991 -49.516Z" fill="#F5F5F5"/>
<path d="M422.991 167.271C394.338 167.271 367.406 156.111 347.138 135.857C326.885 115.59 315.725 88.643 315.725 60.005C315.725 31.3671 326.885 4.42051 347.138 -15.8472C367.406 -36.115 394.353 -47.2753 422.991 -47.2753C451.629 -47.2753 478.59 -36.115 498.843 -15.8617C519.096 4.40605 530.256 31.3382 530.256 59.9906C530.256 88.643 519.096 115.575 498.843 135.843C478.59 156.096 451.643 167.256 422.991 167.256V167.271ZM422.991 -45.9597C364.573 -45.9597 317.04 1.57262 317.04 60.005C317.04 118.437 364.573 165.97 423.005 165.97C481.437 165.97 528.97 118.437 528.97 60.005C528.97 1.57262 481.423 -45.9597 422.991 -45.9597Z" fill="#F5F5F5"/>
<path d="M422.991 137.679C380.157 137.679 345.302 102.825 345.302 59.9905C345.302 17.1564 380.157 -17.6977 422.991 -17.6977C465.825 -17.6977 500.679 17.1564 500.679 59.9905C500.679 102.825 465.825 137.679 422.991 137.679ZM422.991 -16.3822C380.879 -16.3822 346.603 17.8792 346.603 60.0049C346.603 102.131 380.865 136.392 422.991 136.392C465.116 136.392 499.378 102.131 499.378 60.0049C499.378 17.8792 465.116 -16.3822 422.991 -16.3822Z" fill="#F5F5F5"/>
<path d="M422.99 134.267C382.036 134.267 348.728 100.945 348.728 59.9904C348.728 19.0357 382.05 -14.2861 422.99 -14.2861C463.931 -14.2861 497.267 19.0357 497.267 59.9904C497.267 100.945 463.945 134.267 422.99 134.267ZM422.99 -12.1032C383.236 -12.1032 350.897 20.2356 350.897 59.9904C350.897 99.7453 383.236 132.084 422.99 132.084C462.745 132.084 495.084 99.7453 495.084 59.9904C495.084 20.2356 462.745 -12.1032 422.99 -12.1032Z" fill="#F5F5F5"/>
<path d="M353.239 5.72148C353.239 7.02255 352.184 8.07786 350.883 8.07786C349.581 8.07786 348.526 7.02255 348.526 5.72148C348.526 4.42041 349.581 3.3651 350.883 3.3651C352.184 3.3651 353.239 4.42041 353.239 5.72148Z" fill="#F5F5F5"/>
<path d="M348.916 22.0139L348.382 23.1704L341.052 19.8021V19.8455C341.515 20.3515 341.934 20.843 342.339 21.2911L346.791 26.6544L346.126 28.1L341.168 21.8838L330.803 21.3634L331.439 19.9901L340.257 20.4671L338.985 18.848L333.188 16.188L333.723 15.0315L348.931 22.0139H348.916Z" fill="#F5F5F5"/>
<path d="M329.386 25.1076L346.069 27.9555L345.649 29.2277L337.236 27.6953C335.168 27.3194 333.101 26.9291 331.511 26.5822V26.6111C333.029 27.2761 334.822 28.2013 336.773 29.1843L344.377 33.073L343.958 34.3307L335.515 32.8273C333.549 32.4659 331.569 32.1045 329.849 31.6852V31.7142C331.525 32.4803 333.202 33.3333 335.082 34.2729L342.686 38.1472L342.281 39.3905L327.261 31.5118L327.68 30.2396L336.339 31.772C338.465 32.1478 340.084 32.4659 341.732 32.8707V32.8417C340.214 32.1623 338.725 31.4395 336.788 30.4131L328.952 26.3509L329.371 25.0787L329.386 25.1076Z" fill="#F5F5F5"/>
<path d="M330.947 38.364L326.018 36.2534L326.292 34.9668L341.949 41.7468L341.63 43.2502L324.572 43.0334L324.861 41.7034L330.224 41.7757L330.962 38.3496L330.947 38.364ZM331.916 41.8769L336.831 41.9492C337.944 41.9492 338.942 42.0214 339.925 42.0793V42.0504C338.985 41.7034 338.031 41.3276 337.077 40.9228L332.552 38.9567L331.93 41.8624L331.916 41.8769Z" fill="#F5F5F5"/>
<path d="M324.182 45.5633L340.806 47.3703L340.662 48.7581L331.901 50.9844C329.877 51.5048 328.056 51.8807 326.307 52.1554L326.336 52.1843C328.562 52.3144 330.6 52.5023 333.188 52.777L340.141 53.5287L340.011 54.7286L323.372 52.9215L323.517 51.6349L332.292 49.4376C334.214 48.9605 336.18 48.5124 338.045 48.2088V48.1654C335.92 48.0064 333.925 47.8185 331.15 47.5149L324.037 46.7342L324.167 45.5344L324.182 45.5633Z" fill="#F5F5F5"/>
<path d="M323.936 63.8215C323.589 63.2577 323.025 62.1302 323.025 60.7857C323.025 59.2967 323.676 58.0679 325.237 57.0994C326.625 56.2464 328.865 55.726 331.468 55.726C336.455 55.726 340.098 57.7644 340.098 61.0748C340.098 62.2169 339.679 63.1132 339.332 63.5324L337.568 63.2288C337.973 62.694 338.291 62.0434 338.291 61.0459C338.291 58.6462 335.761 57.0849 331.569 57.0849C327.376 57.0849 324.818 58.5884 324.818 60.8869C324.818 61.7254 325.02 62.2892 325.266 62.5928H330.253V60.5833H331.988V63.836H323.95L323.936 63.8215Z" fill="#F5F5F5"/>
<path d="M323.531 68.7079L339.809 64.1253L339.982 65.4697L331.728 67.696C329.689 68.2453 327.666 68.7657 326.075 69.1416V69.1705C327.752 69.1127 329.762 69.1705 331.945 69.2428L340.488 69.4886L340.662 70.8041L332.393 73.0593C330.456 73.5797 328.518 74.1001 326.784 74.4615V74.4904C328.634 74.4615 330.513 74.5049 332.624 74.5483L341.168 74.7796L341.327 76.0806L324.37 75.4012L324.211 74.0857L332.696 71.7582C334.778 71.18 336.383 70.7752 338.031 70.4282V70.3993C336.354 70.4282 334.706 70.4138 332.508 70.327L323.69 70.0234L323.517 68.7079H323.531Z" fill="#F5F5F5"/>
<path d="M335.747 86.7349C330.167 88.1806 326.697 86.9518 326.061 84.5231C325.41 81.9933 328.258 79.3622 333.159 78.0901C338.305 76.7456 342.151 77.7576 342.816 80.3163C343.495 82.9185 340.546 85.4917 335.732 86.7494L335.747 86.7349ZM333.549 79.3911C330.094 80.2874 327.275 82.1957 327.781 84.1473C328.287 86.0989 331.627 86.4169 335.313 85.4628C338.537 84.6243 341.645 82.7594 341.11 80.7066C340.575 78.6683 337.12 78.4804 333.564 79.4056L333.549 79.3911Z" fill="#F5F5F5"/>
<path d="M339.375 96.4059C333.998 98.4587 330.412 97.6347 329.502 95.2783C328.576 92.8497 331.121 89.915 335.848 88.0936C340.807 86.1998 344.753 86.7636 345.693 89.2356C346.661 91.751 344.016 94.6278 339.375 96.4059ZM336.383 89.3513C333.043 90.6234 330.47 92.8352 331.179 94.7145C331.901 96.6083 335.255 96.536 338.797 95.1916C341.905 94.0062 344.782 91.8088 344.03 89.8139C343.279 87.8478 339.809 88.0357 336.383 89.3513Z" fill="#F5F5F5"/>
<path d="M332.494 101.841L347.471 94.3965L348.092 95.6397L341.92 102.232C340.488 103.764 339.158 105.065 337.843 106.236H337.872C339.823 105.152 341.63 104.227 343.972 103.056L350.232 99.9477L350.767 101.017L335.79 108.462L335.212 107.306L341.414 100.728C342.773 99.2827 344.189 97.8371 345.591 96.5939L345.548 96.5649C343.698 97.5769 341.905 98.4876 339.419 99.7309L333.014 102.911L332.48 101.841H332.494Z" fill="#F5F5F5"/>
<path d="M355.523 108.173L347.659 114.202C344.681 116.486 344.016 118.221 344.825 119.276C345.722 120.432 347.586 120.187 350.521 117.931L358.385 111.903L359.166 112.93L351.417 118.857C347.341 121.979 344.695 121.994 343.394 120.302C342.165 118.698 342.801 116.298 346.921 113.146L354.742 107.147L355.523 108.173Z" fill="#F5F5F5"/>
<path d="M348.006 125.608L360.192 114.144L361.147 115.156L357.142 123.266C356.217 125.145 355.321 126.764 354.395 128.282H354.439C355.986 126.663 357.446 125.261 359.339 123.468L364.443 118.669L365.267 119.551L353.08 131.014L352.198 130.075L356.231 121.979C357.113 120.201 358.053 118.409 359.036 116.804H358.993C357.504 118.293 356.058 119.681 354.034 121.589L348.83 126.49L348.006 125.608Z" fill="#F5F5F5"/>
<path d="M474.412 27.03C474.151 26.1337 473.4 25.4976 472.475 25.3964C472.33 25.3964 472.185 25.3964 472.041 25.4109L462.76 27.2613V22.2016C462.76 20.7126 461.517 19.5127 459.999 19.5127H430.739C430.262 19.5127 429.886 19.1513 429.886 18.6887L429.872 11.3594C429.872 9.87036 428.629 8.67049 427.111 8.67049H418.986C417.468 8.67049 416.225 9.88482 416.225 11.3594V18.6598L416.211 18.6743C416.211 19.1369 415.82 19.4983 415.358 19.4983H386.098C384.58 19.4983 383.337 20.6981 383.337 22.1871V27.2468L374.056 25.3964C373.911 25.3675 373.767 25.3675 373.622 25.382C372.697 25.4832 371.945 26.1192 371.685 27.0155C371.642 27.189 371.627 27.3625 371.642 27.536L379.839 100.656L380.128 103.301C380.532 105.499 381.906 107.465 383.959 108.708L419.998 128.109C420.967 128.499 421.993 128.701 423.02 128.701C424.046 128.701 425.072 128.499 426.055 128.109L462.095 108.708C464.148 107.465 465.536 105.499 465.926 103.301L466.215 100.656L474.412 27.536C474.426 27.3625 474.412 27.1746 474.368 27.0155L474.412 27.03ZM386.156 22.2305H416.211C417.772 22.2305 419.03 20.9873 419.03 19.4694V13.1664C419.03 12.2123 419.796 11.4316 420.779 11.3883H425.304C426.287 11.4316 427.053 12.1978 427.053 13.1664V19.4694C427.053 20.9873 428.311 22.2305 429.872 22.2305H459.926V27.8106L455.517 28.6925V26.7264C455.517 25.194 454.245 23.9508 452.669 23.9508H441.321C439.76 23.9508 438.473 25.194 438.473 26.7264V32.0752L434.31 32.8993V26.7264C434.31 25.2808 433.096 24.0954 431.607 24.0954H414.447C412.958 24.0954 411.744 25.2808 411.744 26.7264V32.8993L407.58 32.0752V26.7264C407.58 25.194 406.308 23.9508 404.732 23.9508H393.384C391.808 23.9508 390.536 25.194 390.536 26.7264V28.6925L386.141 27.8106V22.2305H386.156ZM452.568 29.2707L441.495 31.4681V26.8421H452.568V29.2707ZM431.65 33.4197L425.289 34.6774C425 34.7497 423.554 34.9521 423.063 34.9521C422.571 34.9521 421.14 34.7641 420.837 34.6774L414.461 33.4197V26.712H431.635V33.4341L431.65 33.4197ZM404.617 31.4681L393.543 29.2707V26.8421H404.617V31.4681ZM463.121 102.824C462.904 104.14 461.936 105.557 460.591 106.323L424.855 125.564C424.364 125.752 423.728 125.853 423.063 125.853C422.398 125.853 421.762 125.752 421.27 125.564L385.534 106.323C384.19 105.557 383.221 104.14 383.004 102.824L374.822 29.7767C374.822 29.2707 375.01 28.4756 376.499 28.7937L420.172 37.453C420.475 37.5397 420.793 37.5976 421.111 37.6409C421.747 37.7421 422.398 37.7855 423.048 37.7855C423.699 37.7855 424.349 37.7421 424.986 37.6409C425.304 37.5976 425.622 37.5397 425.925 37.453L469.612 28.7937C471.101 28.4756 471.304 29.2707 471.289 29.7767L463.107 102.824H463.121Z" fill="#F5F5F5"/>
</g>
<g opacity="0.1">
<path d="M-49.0095 172.995C-79.1943 172.995 -107.572 161.243 -128.91 139.905C-150.247 118.553 -162 90.1753 -162 60.005C-162 29.8346 -150.247 1.44246 -128.91 -19.9095C-107.558 -41.247 -79.1798 -53 -49.0095 -53C-18.8392 -53 9.55301 -41.247 30.8905 -19.9095C52.228 1.428 63.981 29.8057 63.981 59.9905C63.981 90.1753 52.228 118.553 30.8905 139.891C9.55301 161.228 -18.8247 172.981 -49.0095 172.981V172.995ZM-49.0095 -49.516C-109.393 -49.516 -158.53 -0.393494 -158.53 60.005C-158.53 120.403 -109.393 169.526 -49.0095 169.526C11.3745 169.526 60.5115 120.403 60.5115 60.005C60.5115 -0.393494 11.389 -49.516 -49.0095 -49.516Z" fill="#F5F5F5"/>
<path d="M-49.0094 167.271C-77.6618 167.271 -104.594 156.111 -124.862 135.857C-145.115 115.59 -156.275 88.643 -156.275 60.005C-156.275 31.3671 -145.115 4.42051 -124.862 -15.8472C-104.594 -36.115 -77.6474 -47.2753 -49.0094 -47.2753C-20.3715 -47.2753 6.58954 -36.115 26.8428 -15.8617C47.0961 4.40605 58.2564 31.3382 58.2564 59.9906C58.2564 88.643 47.0961 115.575 26.8428 135.843C6.58954 156.096 -20.357 167.256 -49.0094 167.256V167.271ZM-49.0094 -45.9597C-107.427 -45.9597 -154.96 1.57262 -154.96 60.005C-154.96 118.437 -107.427 165.97 -48.995 165.97C9.43741 165.97 56.9698 118.437 56.9698 60.005C56.9698 1.57262 9.42296 -45.9597 -49.0094 -45.9597Z" fill="#F5F5F5"/>
<path d="M-49.0095 137.679C-91.8435 137.679 -126.698 102.825 -126.698 59.9905C-126.698 17.1564 -91.8435 -17.6977 -49.0095 -17.6977C-6.17544 -17.6977 28.6787 17.1564 28.6787 59.9905C28.6787 102.825 -6.17544 137.679 -49.0095 137.679ZM-49.0095 -16.3822C-91.1207 -16.3822 -125.397 17.8792 -125.397 60.0049C-125.397 102.131 -91.1352 136.392 -49.0095 136.392C-6.8838 136.392 27.3777 102.131 27.3777 60.0049C27.3777 17.8792 -6.8838 -16.3822 -49.0095 -16.3822Z" fill="#F5F5F5"/>
<path d="M-49.0095 134.267C-89.9642 134.267 -123.272 100.945 -123.272 59.9904C-123.272 19.0357 -89.9497 -14.2861 -49.0095 -14.2861C-8.06921 -14.2861 25.267 19.0357 25.267 59.9904C25.267 100.945 -8.05476 134.267 -49.0095 134.267ZM-49.0095 -12.1032C-88.7643 -12.1032 -121.103 20.2356 -121.103 59.9904C-121.103 99.7453 -88.7643 132.084 -49.0095 132.084C-9.25463 132.084 23.0841 99.7453 23.0841 59.9904C23.0841 20.2356 -9.25463 -12.1032 -49.0095 -12.1032Z" fill="#F5F5F5"/>
<path d="M27.1753 5.72148C27.1753 7.02255 26.12 8.07786 24.8189 8.07786C23.5178 8.07786 22.4625 7.02255 22.4625 5.72148C22.4625 4.42041 23.5178 3.3651 24.8189 3.3651C26.12 3.3651 27.1753 4.42041 27.1753 5.72148Z" fill="#F5F5F5"/>
<path d="M17.4029 131.072C17.9667 131.072 19.0364 130.884 19.7159 130.205C20.9736 128.962 20.1062 127.299 19.1376 126.359C17.533 124.769 15.9428 124.986 15.0031 125.926L14.4538 126.461L13.2973 125.304L13.8466 124.769C14.555 124.061 14.873 122.586 13.5286 121.227C12.6178 120.317 11.4469 119.869 10.5506 120.765C9.97234 121.343 9.81332 122.297 9.85669 122.948L8.48334 122.08C8.42552 121.271 8.71464 120.1 9.49528 119.319C10.912 117.902 12.8925 118.611 14.2659 119.999C15.4368 121.184 15.9862 122.615 15.6103 124.017L15.6392 124.046C16.8102 123.439 18.5738 123.786 20.164 125.391C21.9855 127.227 22.6794 129.713 20.9447 131.434C20.1351 132.243 19.022 132.532 18.2992 132.518L17.374 131.058L17.4029 131.072Z" fill="#F5F5F5"/>
<path d="M27.9704 123.425L24.6166 120.591L21.5663 124.205L20.4676 123.28L15.5236 113.175L16.4777 112.033L24.1395 118.495L25.0503 117.411L26.3658 118.51L25.455 119.594L28.8089 122.427L27.9704 123.425ZM23.301 119.493L19.181 116.023C18.5305 115.474 17.8944 114.924 17.2728 114.361L17.2439 114.39C17.7643 115.242 18.1257 115.879 18.516 116.572L21.1037 122.008L21.1471 122.037L23.2866 119.493H23.301Z" fill="#F5F5F5"/>
<path d="M33.0156 112.192C33.8397 111.99 34.7359 111.484 35.2275 110.689C35.9503 109.503 35.3865 108.202 33.9553 107.32C32.6253 106.496 31.57 106.511 30.081 107.262C28.3607 108.217 26.5971 108.376 24.5876 107.147C22.3614 105.773 21.4361 103.605 22.5059 101.856C23.0697 100.945 23.8215 100.482 24.4286 100.309L25.7297 101.552C25.296 101.682 24.5009 102.029 23.9949 102.839C23.2432 104.068 24.1106 105.253 25.0936 105.846C26.4236 106.67 27.4211 106.525 28.939 105.759C30.8038 104.819 32.4374 104.762 34.5336 106.048C36.7309 107.407 38.0031 109.604 36.702 111.715C36.1671 112.582 35.1841 113.276 34.389 113.45L33.0301 112.207L33.0156 112.192Z" fill="#F5F5F5"/>
<path d="M35.2709 97.6635L33.3771 101.292L38.726 104.082L40.8366 100.034L42.4412 100.873L39.709 106.135L24.8768 98.4153L27.5079 93.37L29.1125 94.2085L27.1176 98.0539L31.8014 100.497L33.6952 96.8684L35.2854 97.6925L35.2709 97.6635Z" fill="#F5F5F5"/>
<path d="M38.8705 86.6191C44.2916 88.5563 46.4311 91.6499 45.5348 94.1942C44.5952 96.8108 40.7209 97.5047 35.9503 95.8133C30.9484 94.0352 28.3752 90.9126 29.3148 88.2527C30.2834 85.5494 34.2011 84.9566 38.8705 86.6336V86.6191ZM36.384 94.4255C39.7523 95.6254 43.1784 95.5531 43.9013 93.5292C44.6241 91.4909 42.0653 89.2935 38.4946 88.0214C35.3576 86.9083 31.7146 86.7781 30.9629 88.9032C30.2111 91.0283 32.9434 93.1967 36.3985 94.4255H36.384Z" fill="#F5F5F5"/>
<path d="M31.6713 81.5015L41.3281 83.7133C44.9856 84.5518 46.7637 83.8868 47.0817 82.5135C47.4287 80.9955 46.0553 79.6511 42.4557 78.8271L32.7989 76.6153L33.1025 75.2709L42.6147 77.4393C47.6166 78.5814 49.2935 80.7209 48.7876 82.9472C48.3105 85.0578 46.0264 86.1998 40.9667 85.0433L31.3533 82.846L31.6569 81.5015H31.6713Z" fill="#F5F5F5"/>
<path d="M33.3626 73.4638L33.5505 72.1193L48.3249 74.1432L48.932 69.6907L50.7246 69.9364L49.9295 75.7479L33.3481 73.4782L33.3626 73.4638Z" fill="#F5F5F5"/>
<path d="M34.5769 60.453L34.548 59.0941L42.6146 58.964V58.9206C41.964 58.646 41.3569 58.3713 40.8075 58.1255L34.4757 55.0174L34.4468 53.3261L41.6171 57.0124L51.1727 52.7333L51.2016 54.338L43.0483 57.9521L44.8987 58.9206L51.2739 58.8194L51.3028 60.1783L34.5769 60.4675V60.453Z" fill="#F5F5F5"/>
<path d="M41.4581 42.9322C47.1684 42.2238 50.4789 44.0453 50.7969 46.7053C51.1438 49.4665 47.9779 51.8228 42.9471 52.4445C37.6706 53.095 33.9698 51.4614 33.6228 48.6569C33.2759 45.7945 36.5141 43.5249 41.4437 42.9177L41.4581 42.9322ZM42.7303 51.0133C46.2721 50.5796 49.3079 48.9749 49.0477 46.8499C48.7875 44.7103 45.5059 43.8863 41.7328 44.3489C38.4367 44.7537 35.1118 46.2716 35.4009 48.5268C35.6756 50.7675 39.0873 51.4759 42.7447 51.0277L42.7303 51.0133Z" fill="#F5F5F5"/>
<path d="M33.2613 42.8309C32.8855 42.2092 32.5385 41.284 32.3072 40.3733C31.9747 38.9566 32.1627 37.9446 32.9144 37.0917C33.5216 36.3978 34.548 35.8485 35.8057 35.5449C37.9596 35.0244 39.5788 35.5449 40.4172 36.4701H40.4895C40.7353 35.5593 41.7761 34.8076 43.4097 34.1571C45.5926 33.2752 47.1105 32.6536 47.6887 32.2922L48.0212 33.6656C47.602 33.9402 46.2576 34.504 44.306 35.2847C42.1375 36.1231 41.4291 36.8749 41.646 38.1036L41.9496 39.3469L48.9898 37.641L49.3078 38.971L33.2613 42.8453V42.8309ZM40.3449 39.7227L40.0124 38.3639C39.6655 36.9471 38.2199 36.3544 36.3694 36.8026C34.2733 37.3085 33.5794 38.494 33.8974 39.8962C34.0564 40.5323 34.2588 40.966 34.4034 41.1539L40.3449 39.7227Z" fill="#F5F5F5"/>
<path d="M37.714 27.2469L39.0585 31.1212L44.7542 29.1407L43.2508 24.8327L44.9711 24.24L46.9227 29.8346L31.1219 35.328L29.2571 29.9503L30.9629 29.3576L32.3796 33.4487L37.3671 31.7139L36.0226 27.8396L37.714 27.2469Z" fill="#F5F5F5"/>
<path d="M38.4079 22.2451L43.641 21.0018L44.2337 22.274L27.5656 26.1483L26.8717 24.6593L40.4751 14.2941L41.0967 15.6096L36.8177 18.8623L38.4079 22.2451ZM35.4009 19.8309L31.4833 22.8088C30.6014 23.4883 29.763 24.0521 28.9534 24.6014V24.6303C29.9364 24.3412 30.9339 24.0665 31.9314 23.8208L36.7454 22.6932L35.4009 19.8164V19.8309Z" fill="#F5F5F5"/>
<path d="M13.4562 -1.13073L12.4732 -1.98365L19.7447 -10.3249C20.2217 -10.8598 20.1639 -11.6983 19.6146 -12.1754L8.61331 -21.7599L7.25442 -20.1986L16.7811 -11.8718L10.0156 -4.10873L7.76039 -6.07479L12.184 -11.149L9.88547 -13.1584L5.44739 -8.08422L3.71262 -9.60213L8.13626 -14.6763L5.8377 -16.6713L1.41407 -11.5971L-0.711006 -13.462L-2.08435 -11.8862L12.0828 0.473919L13.4562 -1.10182V-1.13073Z" fill="#F5F5F5"/>
<path d="M2.41164 27.03C2.15142 26.1337 1.39969 25.4976 0.47448 25.3964C0.329918 25.3964 0.185349 25.3964 0.0407867 25.4109L-9.24017 27.2613V22.2016C-9.24017 20.7126 -10.4834 19.5127 -12.0013 19.5127H-41.2609C-41.738 19.5127 -42.1138 19.1513 -42.1138 18.6887L-42.1283 11.3594C-42.1283 9.87036 -43.3715 8.67049 -44.8894 8.67049H-53.0139C-54.5318 8.67049 -55.775 9.88482 -55.775 11.3594V18.6598L-55.7895 18.6743C-55.7895 19.1369 -56.1798 19.4983 -56.6424 19.4983H-85.902C-87.4199 19.4983 -88.6631 20.6981 -88.6631 22.1871V27.2468L-97.9441 25.3964C-98.0886 25.3675 -98.2332 25.3675 -98.3778 25.382C-99.303 25.4832 -100.055 26.1192 -100.315 27.0155C-100.358 27.189 -100.373 27.3625 -100.358 27.536L-92.1616 100.656L-91.8724 103.301C-91.4677 105.499 -90.0943 107.465 -88.0415 108.708L-52.0019 128.109C-51.0334 128.499 -50.007 128.701 -48.9806 128.701C-47.9542 128.701 -46.9278 128.499 -45.9447 128.109L-9.90515 108.708C-7.85236 107.465 -6.46455 105.499 -6.07423 103.301L-5.7851 100.656L2.41164 27.536C2.42609 27.3625 2.41162 27.1746 2.36826 27.0155L2.41164 27.03ZM-85.8442 22.2305H-55.7895C-54.2282 22.2305 -52.9705 20.9873 -52.9705 19.4694V13.1664C-52.9705 12.2123 -52.2043 11.4316 -51.2213 11.3883H-46.6965C-45.7134 11.4316 -44.9472 12.1978 -44.9472 13.1664V19.4694C-44.9472 20.9873 -43.6896 22.2305 -42.1283 22.2305H-12.0736V27.8106L-16.4828 28.6925V26.7264C-16.4828 25.194 -17.7549 23.9508 -19.3307 23.9508H-30.6789C-32.2402 23.9508 -33.5268 25.194 -33.5268 26.7264V32.0752L-37.6902 32.8993V26.7264C-37.6902 25.2808 -38.9045 24.0954 -40.3935 24.0954H-57.5532C-59.0422 24.0954 -60.2565 25.2808 -60.2565 26.7264V32.8993L-64.4199 32.0752V26.7264C-64.4199 25.194 -65.6921 23.9508 -67.2678 23.9508H-78.616C-80.1917 23.9508 -81.4639 25.194 -81.4639 26.7264V28.6925L-85.8586 27.8106V22.2305H-85.8442ZM-19.4319 29.2707L-30.5054 31.4681V26.8421H-19.4319V29.2707ZM-40.3501 33.4197L-46.7109 34.6774C-47 34.7497 -48.4457 34.9521 -48.9372 34.9521C-49.4287 34.9521 -50.8599 34.7641 -51.1635 34.6774L-57.5387 33.4197V26.712H-40.3646V33.4341L-40.3501 33.4197ZM-67.3834 31.4681L-78.457 29.2707V26.8421H-67.3834V31.4681ZM-8.87876 102.824C-9.0956 104.14 -10.0642 105.557 -11.4086 106.323L-47.1446 125.564C-47.6361 125.752 -48.2722 125.853 -48.9372 125.853C-49.6022 125.853 -50.2383 125.752 -50.7298 125.564L-86.4658 106.323C-87.8102 105.557 -88.7788 104.14 -88.9956 102.824L-97.1779 29.7767C-97.1779 29.2707 -96.99 28.4756 -95.501 28.7937L-51.8285 37.453C-51.5249 37.5397 -51.2068 37.5976 -50.8888 37.6409C-50.2527 37.7421 -49.6022 37.7855 -48.9517 37.7855C-48.3011 37.7855 -47.6506 37.7421 -47.0145 37.6409C-46.6965 37.5976 -46.3784 37.5397 -46.0748 37.453L-2.38786 28.7937C-0.898865 28.4756 -0.69648 29.2707 -0.710938 29.7767L-8.8932 102.824H-8.87876Z" fill="#F5F5F5"/>
</g>
<g filter="url(#filter0_d_244_5478)">
<path d="M28.9263 56.5938C28.9263 58.0938 29.1606 59.418 29.6294 60.5664C30.104 61.7148 30.8716 62.5703 31.9321 63.1328L30.6138 64.9082C29.3071 64.1992 28.3696 62.9863 27.8013 61.2695C27.5024 62.1895 27.1069 63.001 26.6147 63.7041C26.1225 64.4014 25.5278 64.9609 24.8306 65.3828L23.4243 63.748C24.5552 63.0684 25.3872 62.1045 25.9204 60.8564C26.4595 59.6025 26.7348 58.2344 26.7466 56.752V53.9922H28.9263V56.5938ZM37.5923 68.6172H35.4477V60.6543H34.0591V67.8789H31.9497V52.8496H34.0591V58.8613H35.4477V52.6211H37.5923V68.6172ZM52.5386 68.6172H50.3765V60.6191H48.8823V67.8438H46.773V52.8848H48.8823V58.8086H50.3765V52.6211H52.5386V68.6172ZM41.6402 62.7549C43.1284 62.7139 44.5406 62.5645 45.8765 62.3066L46.105 64.2402C44.2652 64.5566 42.3902 64.7148 40.48 64.7148H39.3902V54.3965H41.6402V62.7549ZM67.2037 68.6172H64.9361V52.6211H67.2037V68.6172ZM62.4048 54.291C62.4048 56.002 62.1734 57.5576 61.7105 58.958C61.2535 60.3584 60.48 61.6445 59.3902 62.8164C58.3004 63.9824 56.8326 65.002 54.9869 65.875L53.8091 64.082C55.1744 63.4375 56.2994 62.7197 57.1841 61.9287C58.0748 61.1377 58.7545 60.2617 59.2232 59.3008C59.6978 58.334 59.9966 57.25 60.1197 56.0488H54.6705V54.291H62.4048ZM76.7936 53.7461C77.5084 53.7461 78.153 53.9336 78.7272 54.3086C79.3073 54.6836 79.7819 55.2168 80.151 55.9082H83.6666V52.6211H85.8815V68.6523H83.6666V62.6582H80.318C79.9606 63.4551 79.4743 64.0703 78.859 64.5039C78.2497 64.9375 77.5612 65.1543 76.7936 65.1543C75.985 65.1543 75.2643 64.9229 74.6315 64.46C74.0045 63.9912 73.5153 63.3262 73.1637 62.4648C72.8122 61.5977 72.6393 60.5898 72.6452 59.4414C72.6393 58.2988 72.8122 57.2998 73.1637 56.4443C73.5153 55.583 74.0045 54.918 74.6315 54.4492C75.2643 53.9805 75.985 53.7461 76.7936 53.7461ZM76.7936 55.7676C76.3952 55.7676 76.0436 55.9111 75.7389 56.1982C75.4342 56.4795 75.1969 56.8984 75.027 57.4551C74.8629 58.0059 74.7838 58.668 74.7897 59.4414C74.7838 60.2207 74.8629 60.8857 75.027 61.4365C75.1969 61.9873 75.4313 62.4062 75.7301 62.6934C76.0348 62.9746 76.3893 63.1152 76.7936 63.1152C77.1979 63.1152 77.5495 62.9746 77.8483 62.6934C78.153 62.4121 78.3873 61.9961 78.5514 61.4453C78.7155 60.8945 78.7975 60.2266 78.7975 59.4414C78.7975 58.6621 78.7155 57.9971 78.5514 57.4463C78.3873 56.8955 78.153 56.4795 77.8483 56.1982C77.5495 55.9111 77.1979 55.7676 76.7936 55.7676ZM80.775 57.7188C80.8864 58.2754 80.942 58.8496 80.942 59.4414C80.942 59.8809 80.9069 60.3555 80.8366 60.8652H83.6666V57.7188H80.775ZM100.881 68.6523H98.6481V60.2148H96.0641V58.3867H98.6481V52.6211H100.881V68.6523ZM95.1677 59.9512H90.1931V63.0801C91.4294 63.0684 92.5222 63.0332 93.4714 62.9746C94.4206 62.9102 95.3727 62.793 96.3278 62.623L96.5036 64.4512C95.3845 64.6328 94.2624 64.7588 93.1374 64.8291C92.0182 64.8936 90.7321 64.9258 89.279 64.9258H87.9606V58.1758H92.988V55.7676H87.9255V53.957H95.1677V59.9512ZM117.04 62.5879H111.01V65.1719H108.796V62.5879H102.397V60.8301H117.04V62.5879ZM115.423 68.3359H104.12V63.9062H106.335V66.543H115.423V68.3359ZM106.493 54.8008H112.909V53.1309H115.141V59.7051H104.278V53.1309H106.493V54.8008ZM112.909 57.9297V56.4707H106.493V57.9297H112.909ZM132.056 60.6191H117.431V58.8613H132.056V60.6191ZM130.316 57.9824H119.26V52.9375H130.193V54.7305H121.492V56.2246H130.316V57.9824ZM130.246 65.752H121.334V66.7363H130.668V68.4766H119.136V64.1523H128.031V63.2559H119.119V61.5684H130.246V65.752ZM137.634 53.6934C138.466 53.6875 139.219 53.8545 139.892 54.1943C140.572 54.5283 141.102 54.9941 141.483 55.5918C141.87 56.1895 142.063 56.8633 142.063 57.6133C142.063 58.3691 141.87 59.0459 141.483 59.6436C141.102 60.2412 140.575 60.71 139.901 61.0498C139.227 61.3838 138.471 61.5508 137.634 61.5508C136.796 61.5508 136.037 61.3838 135.357 61.0498C134.683 60.71 134.153 60.2412 133.766 59.6436C133.38 59.0459 133.186 58.3691 133.186 57.6133C133.186 56.8633 133.38 56.1895 133.766 55.5918C134.153 54.9941 134.686 54.5283 135.366 54.1943C136.046 53.8545 136.802 53.6875 137.634 53.6934ZM137.634 55.627C137.212 55.627 136.831 55.7061 136.491 55.8643C136.151 56.0225 135.885 56.2539 135.691 56.5586C135.504 56.8574 135.413 57.209 135.419 57.6133C135.413 58.0234 135.504 58.3779 135.691 58.6768C135.885 58.9756 136.148 59.2041 136.482 59.3623C136.822 59.5205 137.206 59.5996 137.634 59.5996C138.061 59.5996 138.442 59.5205 138.776 59.3623C139.116 59.2041 139.383 58.9756 139.576 58.6768C139.775 58.3779 139.878 58.0234 139.884 57.6133C139.878 57.2031 139.778 56.8486 139.585 56.5498C139.391 56.251 139.125 56.0225 138.785 55.8643C138.445 55.7061 138.061 55.627 137.634 55.627ZM145.895 68.6523H143.663V52.6211H145.895V68.6523ZM133.397 63.5547C137.153 63.5547 140.27 63.3848 142.749 63.0449L142.925 64.6621C141.354 64.9668 139.752 65.1631 138.117 65.251C136.482 65.3389 134.704 65.3828 132.782 65.3828L132.518 63.5547H133.397ZM164.468 61.2168H162.218V52.6211H164.468V61.2168ZM155.977 63.4141H162.235V61.9199H164.468V68.4414H153.763V61.9199H155.977V63.4141ZM162.235 66.6309V65.1543H155.977V66.6309H162.235ZM155.696 53.2891C156.522 53.2832 157.266 53.4414 157.929 53.7637C158.597 54.0859 159.121 54.5371 159.502 55.1172C159.883 55.6914 160.073 56.3477 160.073 57.0859C160.073 57.8008 159.883 58.4424 159.502 59.0107C159.121 59.5791 158.597 60.0244 157.929 60.3467C157.266 60.6689 156.522 60.8301 155.696 60.8301C154.87 60.8301 154.123 60.6689 153.455 60.3467C152.793 60.0244 152.271 59.5791 151.891 59.0107C151.51 58.4424 151.319 57.8008 151.319 57.0859C151.319 56.3477 151.51 55.6914 151.891 55.1172C152.271 54.5371 152.793 54.0859 153.455 53.7637C154.123 53.4414 154.87 53.2832 155.696 53.2891ZM155.696 55.1523C155.268 55.1523 154.888 55.2314 154.554 55.3896C154.225 55.542 153.968 55.7646 153.78 56.0576C153.599 56.3447 153.511 56.6875 153.516 57.0859C153.511 57.4785 153.599 57.8184 153.78 58.1055C153.968 58.3867 154.225 58.6035 154.554 58.7559C154.888 58.9082 155.268 58.9844 155.696 58.9844C156.112 58.9844 156.484 58.9082 156.812 58.7559C157.141 58.6035 157.395 58.3867 157.577 58.1055C157.765 57.8184 157.858 57.4785 157.858 57.0859C157.858 56.6875 157.765 56.3447 157.577 56.0576C157.395 55.7646 157.141 55.542 156.812 55.3896C156.484 55.2314 156.112 55.1523 155.696 55.1523ZM175.582 55.8203H166.09V54.0449H169.728V52.5332H171.961V54.0449H175.582V55.8203ZM170.836 56.3301C171.603 56.3301 172.283 56.4561 172.875 56.708C173.473 56.9541 173.938 57.2998 174.272 57.7451C174.606 58.1904 174.773 58.7031 174.773 59.2832C174.773 59.8633 174.606 60.376 174.272 60.8213C173.938 61.2666 173.473 61.6152 172.875 61.8672C172.283 62.1133 171.603 62.2363 170.836 62.2363C170.068 62.2363 169.383 62.1133 168.779 61.8672C168.176 61.6152 167.704 61.2666 167.364 60.8213C167.03 60.376 166.863 59.8633 166.863 59.2832C166.863 58.7031 167.03 58.1904 167.364 57.7451C167.704 57.2998 168.176 56.9541 168.779 56.708C169.383 56.4561 170.068 56.3301 170.836 56.3301ZM170.836 58.0176C170.285 58.0176 169.849 58.1289 169.526 58.3516C169.21 58.5684 169.055 58.8789 169.06 59.2832C169.055 59.6758 169.21 59.9805 169.526 60.1973C169.849 60.4082 170.285 60.5137 170.836 60.5137C171.387 60.5137 171.826 60.4082 172.154 60.1973C172.482 59.9805 172.646 59.6758 172.646 59.2832C172.646 58.8789 172.482 58.5684 172.154 58.3516C171.826 58.1289 171.387 58.0176 170.836 58.0176ZM178.781 56.7695H180.943V58.5977H178.781V62.6582H176.531V52.6211H178.781V56.7695ZM178.781 68.6172H176.531V65.1191H168.006V63.3262H178.781V68.6172ZM188.401 52.8496C189.626 52.8496 190.672 52.9551 191.539 53.166C192.406 53.377 193.068 53.6875 193.525 54.0977C193.982 54.502 194.214 54.9941 194.22 55.5742C194.214 56.1602 193.982 56.6582 193.525 57.0684C193.068 57.4785 192.406 57.7891 191.539 58C190.672 58.2109 189.626 58.3164 188.401 58.3164C187.171 58.3164 186.119 58.2109 185.246 58C184.373 57.7891 183.708 57.4785 183.251 57.0684C182.794 56.6582 182.565 56.1602 182.565 55.5742C182.565 54.9941 182.794 54.502 183.251 54.0977C183.708 53.6875 184.373 53.377 185.246 53.166C186.119 52.9551 187.171 52.8496 188.401 52.8496ZM188.401 54.4844C187.235 54.4844 186.359 54.5781 185.773 54.7656C185.193 54.9473 184.909 55.2168 184.921 55.5742C184.915 55.9609 185.193 56.2393 185.756 56.4092C186.318 56.5791 187.2 56.6641 188.401 56.6641C189.608 56.6641 190.493 56.5791 191.056 56.4092C191.618 56.2393 191.899 55.9609 191.899 55.5742C191.899 55.2168 191.609 54.9473 191.029 54.7656C190.449 54.5781 189.573 54.4844 188.401 54.4844ZM195.696 60.8477H181.106V59.0723H195.696V60.8477ZM193.921 65.8574H185.009V66.8242H194.343V68.5117H182.811V64.293H191.706V63.4141H182.794V61.7793H193.921V65.8574ZM209.58 55.7852C209.58 56.4473 209.718 57.0859 209.993 57.7012C210.274 58.3105 210.699 58.8584 211.268 59.3447C211.842 59.8252 212.551 60.1914 213.395 60.4434L212.252 62.2012C211.379 61.9258 210.623 61.5156 209.984 60.9707C209.346 60.4258 208.842 59.7812 208.473 59.0371C208.098 59.8457 207.582 60.5488 206.926 61.1465C206.27 61.7441 205.484 62.1953 204.57 62.5L203.41 60.7422C204.266 60.4668 204.983 60.0713 205.564 59.5557C206.144 59.04 206.577 58.457 206.864 57.8066C207.151 57.1562 207.295 56.4824 207.295 55.7852V55.5566H204.008V53.7637H212.797V55.5566H209.58V55.7852ZM216.734 64.2051H214.484V52.6387H216.734V64.2051ZM217.156 68.3359H206.012V63.1504H208.279V66.543H217.156V68.3359ZM231.751 61.6562H229.501V52.6387H231.751V61.6562ZM231.751 68.4414H221.028V62.3945H231.751V68.4414ZM223.243 66.6484H229.554V64.1699H223.243V66.6484ZM224.491 54.7656C224.485 55.4336 224.617 56.0693 224.887 56.6729C225.162 57.2705 225.578 57.8037 226.135 58.2725C226.697 58.7412 227.398 59.1074 228.235 59.3711L227.146 61.0762C226.255 60.8125 225.487 60.4199 224.843 59.8984C224.204 59.3711 223.7 58.7412 223.331 58.0088C222.956 58.8057 222.438 59.4941 221.776 60.0742C221.113 60.6543 220.319 61.0879 219.394 61.375L218.304 59.6172C219.159 59.3594 219.874 58.9814 220.448 58.4834C221.028 57.9795 221.456 57.4082 221.732 56.7695C222.013 56.125 222.153 55.457 222.153 54.7656V53.2188H224.491V54.7656ZM240.668 53.4297C241.793 53.4355 242.813 53.6318 243.727 54.0186C244.641 54.3994 245.361 54.9385 245.889 55.6357C246.422 56.3271 246.692 57.127 246.697 58.0352C246.692 58.9492 246.422 59.7578 245.889 60.4609C245.361 61.1582 244.641 61.6973 243.727 62.0781C242.813 62.459 241.793 62.6465 240.668 62.6406C239.543 62.6465 238.521 62.459 237.601 62.0781C236.687 61.6973 235.966 61.1582 235.439 60.4609C234.917 59.7578 234.656 58.9492 234.656 58.0352C234.656 57.127 234.917 56.3271 235.439 55.6357C235.966 54.9385 236.687 54.3994 237.601 54.0186C238.515 53.6318 239.537 53.4355 240.668 53.4297ZM240.668 55.2578C239.93 55.252 239.271 55.3633 238.691 55.5918C238.111 55.8145 237.656 56.1367 237.328 56.5586C237 56.9805 236.836 57.4727 236.836 58.0352C236.836 58.6035 237 59.0986 237.328 59.5205C237.656 59.9365 238.111 60.2559 238.691 60.4785C239.271 60.7012 239.93 60.8125 240.668 60.8125C241.406 60.8125 242.063 60.7012 242.637 60.4785C243.211 60.2559 243.659 59.9365 243.982 59.5205C244.31 59.0986 244.477 58.6035 244.483 58.0352C244.477 57.4727 244.31 56.9805 243.982 56.5586C243.659 56.1367 243.211 55.8145 242.637 55.5918C242.063 55.3633 241.406 55.252 240.668 55.2578ZM248.016 66.666H233.373V64.8555H248.016V66.666ZM263.032 66.8418H248.39V64.9961H254.56V62.5879H250.077V57.209H259.13V55.4512H250.06V53.6582H261.345V58.9668H252.327V60.7598H261.714V62.5879H256.792V64.9961H263.032V66.8418ZM281.605 62.2715H275.4V63.6602H279.829V68.5996H277.597V65.4355H268.632V63.6602H273.185V62.2715H267.015V60.4961H281.605V62.2715ZM275.4 54.0801H280.199V55.8203H275.575C275.663 56.2188 275.912 56.5879 276.323 56.9277C276.739 57.2617 277.333 57.5459 278.107 57.7803C278.886 58.0146 279.835 58.1699 280.954 58.2461L280.269 59.916C278.816 59.8164 277.582 59.5674 276.569 59.1689C275.561 58.7646 274.802 58.2344 274.292 57.5781C273.783 58.2344 273.021 58.7646 272.007 59.1689C270.993 59.5674 269.763 59.8164 268.316 59.916L267.63 58.2461C268.743 58.1699 269.687 58.0146 270.46 57.7803C271.234 57.5459 271.825 57.2617 272.236 56.9277C272.652 56.5879 272.907 56.2188 273 55.8203H268.421V54.0801H273.185V52.6387H275.4V54.0801ZM294.653 58.8789H297.008V60.7246H294.653V68.6172H292.438V52.6211H294.653V58.8789ZM291.348 56.8047H281.944V55.0117H285.565V52.8672H287.815V55.0117H291.348V56.8047ZM286.69 57.7012C287.463 57.7012 288.158 57.8652 288.773 58.1934C289.394 58.5156 289.88 58.9668 290.232 59.5469C290.589 60.127 290.768 60.7832 290.768 61.5156C290.768 62.248 290.589 62.9043 290.232 63.4844C289.88 64.0645 289.394 64.5186 288.773 64.8467C288.158 65.1689 287.463 65.3301 286.69 65.3301C285.91 65.3301 285.21 65.1689 284.589 64.8467C283.968 64.5186 283.479 64.0645 283.121 63.4844C282.77 62.9043 282.594 62.248 282.594 61.5156C282.594 60.7832 282.77 60.127 283.121 59.5469C283.479 58.9668 283.968 58.5156 284.589 58.1934C285.21 57.8652 285.91 57.7012 286.69 57.7012ZM286.69 59.5117C286.315 59.5176 285.978 59.6025 285.679 59.7666C285.386 59.9307 285.155 60.1621 284.985 60.4609C284.821 60.7598 284.739 61.1113 284.739 61.5156C284.739 61.9258 284.821 62.2803 284.985 62.5791C285.155 62.8779 285.386 63.1064 285.679 63.2646C285.978 63.417 286.315 63.4902 286.69 63.4844C287.065 63.4902 287.399 63.417 287.692 63.2646C287.985 63.1064 288.213 62.8779 288.377 62.5791C288.541 62.2803 288.623 61.9258 288.623 61.5156C288.623 61.1113 288.541 60.7598 288.377 60.4609C288.213 60.1621 287.985 59.9307 287.692 59.7666C287.399 59.6025 287.065 59.5176 286.69 59.5117ZM309.74 56.4707H311.902V58.334H309.74V61.9902H307.49V52.6211H309.74V56.4707ZM301.495 63.8184H307.49V62.6055H309.74V68.4414H299.263V62.6055H301.495V63.8184ZM307.49 66.6836V65.541H301.495V66.6836H307.49ZM306.54 55.7852H297.048V54.0273H300.687V52.5156H302.919V54.0273H306.54V55.7852ZM301.794 56.2422C302.562 56.2422 303.245 56.3594 303.842 56.5938C304.44 56.8281 304.903 57.1592 305.231 57.5869C305.565 58.0146 305.732 58.5098 305.732 59.0723C305.732 59.6348 305.565 60.1299 305.231 60.5576C304.903 60.9854 304.44 61.3164 303.842 61.5508C303.245 61.7852 302.562 61.9023 301.794 61.9023C301.015 61.9023 300.324 61.7852 299.72 61.5508C299.122 61.3164 298.657 60.9854 298.323 60.5576C297.989 60.1299 297.822 59.6348 297.822 59.0723C297.822 58.5098 297.989 58.0146 298.323 57.5869C298.657 57.1592 299.122 56.8281 299.72 56.5938C300.324 56.3594 301.015 56.2422 301.794 56.2422ZM301.794 57.8945C301.249 57.8828 300.816 57.9824 300.494 58.1934C300.171 58.4043 300.013 58.6973 300.019 59.0723C300.013 59.4531 300.171 59.749 300.494 59.96C300.816 60.165 301.249 60.2676 301.794 60.2676C302.345 60.2676 302.785 60.165 303.113 59.96C303.441 59.749 303.605 59.4531 303.605 59.0723C303.605 58.6973 303.438 58.4043 303.104 58.1934C302.776 57.9824 302.339 57.8828 301.794 57.8945ZM325.512 68.6172H323.28V52.6211H325.512V68.6172ZM315.141 62.7549C317.514 62.7139 319.793 62.4824 321.979 62.0605L322.26 63.9062C319.852 64.4102 317.309 64.6621 314.631 64.6621H314.332H312.926V54.1504H315.141V62.7549ZM339.703 58.5625H342.058V60.3906H339.703V68.6523H337.453V52.6211H339.703V58.5625ZM335.22 55.9082H329.947V62.9219C331.206 62.9102 332.331 62.8662 333.322 62.79C334.312 62.7139 335.308 62.5879 336.31 62.4121L336.556 64.293C335.484 64.4746 334.426 64.6006 333.383 64.6709C332.346 64.7354 331.154 64.7676 329.806 64.7676H329.068H327.714V54.0977H335.22V55.9082ZM349.117 63.1855H346.867L346.638 54.2734H349.345L349.117 63.1855ZM348.009 67.1582C347.74 67.1582 347.491 67.0908 347.262 66.9561C347.034 66.8213 346.852 66.6426 346.717 66.4199C346.588 66.1914 346.527 65.9453 346.533 65.6816C346.527 65.418 346.588 65.1748 346.717 64.9521C346.852 64.7295 347.034 64.5537 347.262 64.4248C347.491 64.29 347.74 64.2227 348.009 64.2227C348.261 64.2227 348.499 64.29 348.721 64.4248C348.95 64.5537 349.131 64.7295 349.266 64.9521C349.401 65.1748 349.468 65.418 349.468 65.6816C349.468 65.9453 349.401 66.1914 349.266 66.4199C349.131 66.6426 348.95 66.8213 348.721 66.9561C348.499 67.0908 348.261 67.1582 348.009 67.1582Z" fill="white"/>
</g>
</g>
<defs>
<filter id="filter0_d_244_5478" x="19.4243" y="52.5156" width="334.044" height="24.1367" filterUnits="userSpaceOnUse" color-interpolation-filters="sRGB">
<feFlood flood-opacity="0" result="BackgroundImageFix"/>
<feColorMatrix in="SourceAlpha" type="matrix" values="0 0 0 0 0 0 0 0 0 0 0 0 0 0 0 0 0 0 127 0" result="hardAlpha"/>
<feOffset dy="4"/>
<feGaussianBlur stdDeviation="2"/>
<feComposite in2="hardAlpha" operator="out"/>
<feColorMatrix type="matrix" values="0 0 0 0 0 0 0 0 0 0 0 0 0 0 0 0 0 0 0.25 0"/>
<feBlend mode="normal" in2="BackgroundImageFix" result="effect1_dropShadow_244_5478"/>
<feBlend mode="normal" in="SourceGraphic" in2="effect1_dropShadow_244_5478" result="shape"/>
</filter>
<clipPath id="clip0_244_5478">
<rect width="375" height="120" fill="white"/>
</clipPath>
</defs>
</svg>
