<svg width="53" height="52" viewBox="0 0 53 52" fill="none" xmlns="http://www.w3.org/2000/svg">
<path d="M26.0554 52C40.4148 52 52.0554 40.3594 52.0554 26C52.0554 11.6406 40.4148 0 26.0554 0C11.696 0 0.0554199 11.6406 0.0554199 26C0.0554199 40.3594 11.696 52 26.0554 52Z" fill="#5317AB"/>
<path d="M20.3902 19.0197H20.0743C18.4527 19.0197 16.8309 19.0141 15.2093 19.0255C14.9596 19.0272 14.8809 18.9605 14.8488 18.7123C14.5515 16.4075 14.2381 14.1045 13.9284 11.8013C13.924 11.7676 13.9082 11.7356 13.8895 11.6771H10.6919V10.8169H21.6029V11.6536C21.5331 11.6677 21.4596 11.6825 21.3759 11.6992C21.0485 14.1317 20.722 16.5557 20.3904 19.0195L20.3902 19.0197ZM18.0774 13.6533C18.4291 13.9978 18.7947 14.3561 19.1197 14.6744C19.478 14.326 19.8488 13.9655 20.1861 13.6378C19.8441 13.3001 19.4804 12.941 19.1471 12.6121C18.7982 12.9517 18.431 13.3093 18.0774 13.6535V13.6533ZM17.6355 14.0863C17.2879 14.4264 16.9217 14.7845 16.5664 15.1322C16.919 15.4776 17.2851 15.8362 17.6212 16.1654C17.9745 15.8192 18.3444 15.4567 18.6869 15.1212C18.3437 14.7835 17.9792 14.425 17.6353 14.0866L17.6355 14.0863ZM16.0973 17.6949C16.4815 17.3165 16.8467 16.9569 17.1882 16.6205C16.8385 16.2786 16.4677 15.9165 16.0731 15.531C15.7909 15.817 15.4891 16.1302 15.1777 16.4339C15.0541 16.5545 15.0563 16.6569 15.172 16.7721C15.4859 17.0845 15.7993 17.3975 16.0973 17.6949ZM15.0842 13.6254C15.4378 13.9757 15.8049 14.3398 16.1306 14.6627C16.4766 14.3258 16.8425 13.9694 17.1857 13.6351C16.84 13.2964 16.4746 12.9384 16.1304 12.6009C15.782 12.9423 15.4156 13.3008 15.0842 13.6254ZM19.1634 17.7201C19.4903 17.3943 19.8106 17.0872 20.1123 16.7636C20.1656 16.7063 20.1898 16.5377 20.1479 16.4929C19.8293 16.1532 19.4908 15.8318 19.193 15.5387C18.7974 15.9257 18.4318 16.2835 18.072 16.6355C18.4145 16.9759 18.7735 17.3325 19.1636 17.7201H19.1634ZM18.7321 12.1774C18.3955 11.4816 17.7616 11.7341 17.221 11.6876C16.8516 11.6558 16.7566 11.9889 16.5649 12.1179C16.9451 12.4947 17.312 12.8581 17.6693 13.212C18.0108 12.8797 18.3721 12.5279 18.7321 12.1774ZM16.5612 18.1061C16.9316 18.8089 17.6099 18.5302 18.1789 18.5338C18.3782 18.535 18.5791 18.2737 18.7594 18.1464C18.3523 17.7468 17.9879 17.389 17.6372 17.0448C17.2906 17.3866 16.9269 17.7456 16.5612 18.1061ZM19.6016 12.1058C19.9749 12.4731 20.3287 12.8214 20.6663 13.1538C20.7245 12.7089 20.7889 12.2162 20.8545 11.7157C20.3199 11.6407 19.8399 11.6228 19.6016 12.1056V12.1058ZM15.7077 12.1548C15.443 11.616 14.9559 11.6463 14.4283 11.713C14.4964 12.2133 14.5641 12.7086 14.6354 13.2319C15.0139 12.8515 15.3568 12.507 15.7077 12.1546V12.1548ZM20.5232 14.211C20.1819 14.5521 19.8779 14.8558 19.6137 15.1198C19.8298 15.3345 20.065 15.5681 20.3083 15.8097C20.3773 15.2954 20.4482 14.7685 20.5232 14.211ZM14.7688 14.2557C14.8369 14.7513 14.911 15.2889 14.9796 15.7889C15.234 15.563 15.4817 15.3432 15.6907 15.1579C15.3721 14.8461 15.0605 14.5412 14.7688 14.2557ZM15.2236 17.6309C15.2628 17.9108 15.3003 18.1791 15.3351 18.4278C15.4698 18.3065 15.5962 18.193 15.6885 18.11C15.5394 17.9564 15.3901 17.8024 15.2238 17.6309H15.2236ZM19.9492 18.4562C19.9882 18.168 20.0245 17.9009 20.0632 17.6149C19.873 17.7881 19.7064 17.9397 19.5818 18.0532C19.7082 18.1917 19.8185 18.3128 19.9492 18.4562Z" fill="white"/>
<path d="M29.7351 30.7888C29.7351 32.3489 29.7305 33.9047 29.744 35.4602C29.7453 35.5858 29.8526 35.7285 29.9459 35.8325C31.2931 37.332 32.6492 38.8237 33.9962 40.3234C34.3887 40.7606 34.4729 41.2659 34.2113 41.794C33.9562 42.3086 33.5145 42.5599 32.9322 42.5441C32.5574 42.534 32.2389 42.3785 31.9894 42.1026C30.4549 40.4074 28.9229 38.7102 27.3889 37.0145C27.1078 36.7039 27.0355 36.3354 27.039 35.9325C27.0723 31.9404 27.1007 27.9483 27.1305 23.9564C27.1312 23.847 27.1305 23.7378 27.1305 23.6175C26.2713 23.4811 25.4393 23.3327 24.6021 23.2203C23.629 23.0901 22.6827 22.8693 21.7512 22.5615C20.5568 22.1668 19.3465 21.8189 18.1493 21.4324C17.4174 21.1961 17.1546 20.3825 17.5951 19.7891C17.8732 19.4145 18.3361 19.2697 18.831 19.4213C20.3574 19.889 21.8729 20.3936 23.4106 20.8218C24.1846 21.0372 24.9957 21.1294 25.7932 21.2582C27.6228 21.5535 29.4539 21.839 31.2857 22.1204C31.4165 22.1406 31.5704 22.1277 31.6913 22.078C32.794 21.6265 33.8891 21.1568 34.9938 20.7097C35.2052 20.6241 35.2442 20.5217 35.2072 20.3172C34.9456 18.8689 34.6883 17.4197 34.445 15.9685C34.4077 15.7463 34.404 15.5 34.4623 15.2851C34.5879 14.8215 35.0638 14.5195 35.5378 14.5505C36.058 14.5847 36.4577 14.9389 36.5552 15.4736C36.6965 16.2477 36.8263 17.0235 36.961 17.7989C37.1419 18.8384 37.3196 19.8786 37.5051 20.9174C37.6238 21.5814 37.3965 22.0093 36.7706 22.2716C35.5936 22.7645 34.4186 23.2618 33.2384 23.747C33.0746 23.8145 33.0122 23.8926 33.0089 24.0689C32.9685 26.3287 32.9181 28.588 32.8779 30.8477C32.8757 30.969 32.9167 31.1046 32.9779 31.2114C33.3475 31.8562 33.721 32.4991 34.1124 33.1315C34.1921 33.2601 34.3349 33.3838 34.4771 33.4372C36.2072 34.0885 37.9443 34.722 39.676 35.3694C40.4848 35.6719 40.8265 36.4992 40.4599 37.2245C40.1411 37.8553 39.4258 38.1127 38.6984 37.8461C37.2441 37.3133 35.7922 36.7743 34.3394 36.2379C33.8728 36.0657 33.4092 35.8845 32.9389 35.7227C32.534 35.5832 32.2522 35.326 32.0501 34.9573C31.3316 33.6458 30.6039 32.3394 29.8792 31.0314C29.8311 30.9448 29.7778 30.8608 29.7349 30.789L29.7351 30.7888Z" fill="white"/>
<path d="M32.7947 18.8655C32.7925 20.1564 31.8078 21.1479 30.5346 21.1411C29.2458 21.1343 28.25 20.1615 28.2551 18.9145C28.2603 17.6412 29.2406 16.6555 30.5025 16.6548C31.7952 16.6541 32.797 17.6203 32.7947 18.8655Z" fill="white"/>
<path d="M31.3494 12.6428C31.3632 12.5365 31.3755 12.4303 31.3916 12.3245C31.3992 12.2735 31.4125 12.2233 31.4271 12.1741C31.4313 12.16 31.4476 12.1459 31.4619 12.1384C31.64 12.0445 31.8322 11.9902 32.0287 11.9502C32.2288 11.9094 32.4301 11.8745 32.6297 11.832C32.9039 11.7738 33.1489 11.651 33.3769 11.4934C33.3971 11.4793 33.4171 11.465 33.4413 11.448C33.5279 11.5179 33.614 11.5872 33.7026 11.6588C33.6053 11.7294 33.5111 11.7959 33.4191 11.8648C33.0371 12.1501 32.6825 12.465 32.3706 12.8237C32.1481 13.0797 31.9499 13.3521 31.8187 13.666C31.792 13.7298 31.7713 13.7963 31.7481 13.8616C31.7427 13.8766 31.7385 13.8919 31.7306 13.9164C31.696 13.8623 31.665 13.8164 31.6368 13.7691C31.5056 13.5474 31.4202 13.3092 31.378 13.0564C31.3671 12.9921 31.3637 12.9268 31.3565 12.8621C31.3545 12.8434 31.3518 12.825 31.3494 12.8063C31.3494 12.7519 31.3494 12.6976 31.3494 12.643V12.6428Z" fill="white"/>
<path d="M33.4075 14.8127C33.6357 14.2748 33.7467 13.7043 33.8901 13.1426C33.9365 12.9614 33.9905 12.7817 34.0507 12.6043C34.0895 12.4901 34.1571 12.3899 34.2637 12.3115C34.2891 12.3583 34.3145 12.4027 34.3374 12.4481C34.5057 12.7797 34.6133 13.1308 34.6856 13.4932C34.7387 13.7591 34.7695 14.0271 34.785 14.2974C34.788 14.3479 34.7742 14.377 34.7317 14.407C34.4586 14.6023 34.1561 14.7275 33.824 14.7833C33.7413 14.7971 33.6569 14.803 33.5735 14.8124H33.4075V14.8127Z" fill="white"/>
<path d="M33.8699 11.8047C33.9656 11.9141 34.0589 12.0208 34.1551 12.131C33.9977 12.2411 33.9054 12.3881 33.842 12.5531C33.8025 12.6557 33.7682 12.7607 33.7409 12.8672C33.639 13.2634 33.544 13.661 33.4406 14.0567C33.3784 14.2947 33.3036 14.529 33.2005 14.7539C33.1862 14.7852 33.1701 14.7917 33.1378 14.7862C32.6631 14.7056 32.2589 14.4953 31.9275 14.1518C31.9167 14.1406 31.9108 14.1185 31.9127 14.1028C31.9433 13.8721 32.0396 13.6651 32.1585 13.4679C32.3662 13.1237 32.6349 12.8282 32.9276 12.5526C33.2099 12.287 33.5131 12.0463 33.8344 11.828C33.8433 11.8219 33.8524 11.8161 33.8702 11.8047H33.8699Z" fill="white"/>
<path d="M35.0016 14.1819C34.9367 13.4934 34.799 12.8319 34.4563 12.2176C34.4941 12.2079 34.5291 12.1987 34.5644 12.1902C34.7181 12.1531 34.8689 12.1485 35.0073 12.239C35.0727 12.2817 35.141 12.3237 35.1955 12.3782C35.3278 12.5109 35.4531 12.6507 35.58 12.7887C35.5903 12.8001 35.5963 12.8205 35.5953 12.836C35.5639 13.3401 35.3749 13.7785 35.0263 14.1501C35.0171 14.1598 35.0097 14.1715 35.0016 14.1822V14.1819Z" fill="white"/>
<path d="M33.2651 11.3249C33.1454 11.3911 33.0356 11.4559 32.9221 11.5134C32.7467 11.602 32.5547 11.6364 32.363 11.6713C32.0901 11.7211 31.817 11.7696 31.5559 11.8666C31.5525 11.8678 31.5483 11.8666 31.5315 11.8666C31.5942 11.7604 31.6482 11.657 31.7133 11.561C31.8996 11.2861 32.1412 11.0685 32.4331 10.9045C32.4573 10.8909 32.4758 10.8892 32.5014 10.9006C32.7645 11.0161 33.0137 11.1556 33.2651 11.3252V11.3249Z" fill="white"/>
<path d="M35.5798 12.4516C35.4836 12.3608 35.3931 12.2667 35.2926 12.1842C35.2181 12.1228 35.1342 12.0704 35.0486 12.0244C34.8956 11.9419 34.7308 11.9416 34.5645 11.9783C34.4986 11.9928 34.4332 12.0103 34.3683 12.0285C34.3486 12.0341 34.3367 12.0328 34.3229 12.0156C34.2346 11.906 34.145 11.7975 34.0522 11.6845C34.1475 11.6316 34.2472 11.5739 34.3491 11.5207C34.564 11.4089 34.7991 11.3674 35.0368 11.3366C35.0486 11.3351 35.0661 11.3431 35.0743 11.3524C35.3432 11.6578 35.511 12.0096 35.5734 12.4091C35.5756 12.4237 35.5779 12.4382 35.5798 12.4518V12.4516Z" fill="white"/>
<path d="M34.8599 11.1486C34.4987 11.1932 34.1851 11.3487 33.8895 11.5418C33.7952 11.4637 33.7047 11.3888 33.6062 11.307C33.8214 11.1505 33.9425 10.9521 33.8875 10.676C34.2608 10.7517 34.5801 10.9067 34.8599 11.1486Z" fill="white"/>
<path d="M33.444 11.1785C33.2041 11.0383 32.971 10.9014 32.7385 10.7656C33.0366 10.6571 33.35 10.6154 33.6784 10.646C33.6833 10.7462 33.6981 10.8468 33.6616 10.9432C33.6488 10.9771 33.6187 11.006 33.5923 11.0334C33.5422 11.0853 33.4891 11.1348 33.444 11.1787V11.1785Z" fill="white"/>
</svg>
