<svg width="27" height="27" viewBox="0 0 27 27" fill="none" xmlns="http://www.w3.org/2000/svg">
<path d="M26.1464 0.146447C26.3417 -0.0488155 26.6582 -0.0488155 26.8535 0.146447C27.0487 0.341709 27.0487 0.658216 26.8535 0.853478L14.207 13.5L26.8535 26.1464C27.0487 26.3417 27.0487 26.6582 26.8535 26.8535C26.6582 27.0487 26.3417 27.0487 26.1464 26.8535L13.5 14.207L0.853478 26.8535C0.658216 27.0487 0.341709 27.0487 0.146447 26.8535C-0.0488155 26.6582 -0.0488155 26.3417 0.146447 26.1464L12.7929 13.5L0.146447 0.853478C-0.0488155 0.658216 -0.0488155 0.341709 0.146447 0.146447C0.341709 -0.0488155 0.658216 -0.0488155 0.853478 0.146447L13.5 12.7929L26.1464 0.146447Z" fill="#191516"/>
</svg>
