<svg width="22" height="17" viewBox="0 0 22 17" fill="none" xmlns="http://www.w3.org/2000/svg">
<path fill-rule="evenodd" clip-rule="evenodd" d="M0 1.5C0 0.671573 0.671573 0 1.5 0H20C20.8284 0 21.5 0.671573 21.5 1.5C21.5 2.32843 20.8284 3 20 3H1.5C0.671573 3 0 2.32843 0 1.5ZM0 8.5C0 7.67157 0.671573 7 1.5 7H20C20.8284 7 21.5 7.67157 21.5 8.5C21.5 9.32843 20.8284 10 20 10H1.5C0.671573 10 0 9.32843 0 8.5ZM0 15.5C0 14.6716 0.671573 14 1.5 14H20C20.8284 14 21.5 14.6716 21.5 15.5C21.5 16.3284 20.8284 17 20 17H1.5C0.671573 17 0 16.3284 0 15.5Z" fill="#191516"/>
</svg>
