<svg width="15" height="15" viewBox="0 0 15 15" fill="none" xmlns="http://www.w3.org/2000/svg">
<path d="M7.75 11.327L4.211 7.789L4.919 7.069L7.25 9.4V0.75H8.25V9.4L10.58 7.07L11.289 7.789L7.75 11.327ZM2.366 14.75C1.90533 14.75 1.521 14.596 1.213 14.288C0.905 13.98 0.750667 13.5953 0.75 13.134V10.711H1.75V13.134C1.75 13.288 1.814 13.4293 1.942 13.558C2.07 13.6867 2.211 13.7507 2.365 13.75H13.135C13.2883 13.75 13.4293 13.686 13.558 13.558C13.6867 13.43 13.7507 13.2887 13.75 13.134V10.711H14.75V13.134C14.75 13.5947 14.596 13.979 14.288 14.287C13.98 14.595 13.5953 14.7493 13.134 14.75H2.366Z" fill="#5317AB"/>
</svg>
