<svg width="53" height="52" viewBox="0 0 53 52" fill="none" xmlns="http://www.w3.org/2000/svg">
<path d="M26.2778 52C40.6372 52 52.2778 40.3594 52.2778 26C52.2778 11.6406 40.6372 0 26.2778 0C11.9184 0 0.277832 11.6406 0.277832 26C0.277832 40.3594 11.9184 52 26.2778 52Z" fill="#5317AB"/>
<path d="M23.4007 32.1017C23.2501 32.4976 23.1079 32.8615 22.9732 33.2282C22.7796 33.7542 22.4103 34.0837 21.8605 34.1591C21.6304 34.1907 21.3706 34.1586 21.1499 34.0814C19.3433 33.4503 17.5405 32.8066 15.7408 32.1555C15.0485 31.905 14.7182 31.2331 14.9299 30.5669C15.1429 29.8966 15.7952 29.547 16.5146 29.7527C17.776 30.1133 19.0313 30.4943 20.2892 30.868C20.5631 30.9493 20.742 30.858 20.8259 30.5941C20.9279 30.2748 21.0463 29.9597 21.1254 29.635C21.154 29.517 21.1333 29.3421 21.0617 29.2514C20.4365 28.4597 20.3853 27.5884 20.7247 26.6867C21.3028 25.1504 21.9127 23.6261 22.5095 22.097C22.6287 21.7918 22.6256 21.7782 22.316 21.6656C21.4128 21.3371 20.5142 20.9948 19.6036 20.6891C19.0272 20.4957 18.7096 20.1524 18.6204 19.5308C18.4227 18.1552 18.1726 16.7874 17.9558 15.4144C17.8282 14.6061 18.3081 14.0953 19.1149 14.1545C19.1796 14.1594 19.2448 14.155 19.3348 14.155C19.3044 13.3054 19.5962 12.6089 20.327 12.1458C20.8085 11.8406 21.3368 11.7629 21.892 11.893C23.0468 12.1635 23.7447 13.3165 23.4301 14.4527C23.2335 15.1628 22.7857 15.6526 22.0843 15.8962C21.3926 16.1368 20.7548 15.9898 20.0971 15.5472C20.126 15.7493 20.136 15.8762 20.1634 15.9988C20.3406 16.7917 20.5152 17.5854 20.7085 18.3742C20.7351 18.4824 20.8423 18.6201 20.9423 18.6532C22.4254 19.1446 23.9078 19.64 25.4022 20.0954C27.2843 20.6691 29.2193 20.9979 31.1624 21.2861C32.7732 21.5251 34.3799 21.7915 35.9878 22.0495C36.3936 22.1146 36.711 22.3065 36.8501 22.7201C36.9782 23.1007 36.9153 23.4486 36.6534 23.7536C36.4143 24.032 36.0983 24.1128 35.7472 24.0787C34.8325 23.99 33.918 23.8995 33.0039 23.8069C31.857 23.6907 30.7106 23.5717 29.5637 23.4548C29.0068 23.3981 28.4488 23.3512 27.8934 23.2838C27.729 23.2638 27.6479 23.3132 27.5855 23.4579C26.8866 25.0809 26.1842 26.7024 25.4828 28.3243C25.3863 28.5472 25.303 28.7772 25.1889 28.9906C25.0769 29.2001 25.1184 29.3578 25.2575 29.5378C26.019 30.5251 26.767 31.5229 27.5277 32.511C27.8039 32.8695 27.8821 33.2646 27.7916 33.6955C27.483 35.1628 27.1677 36.6289 26.8547 38.0952C26.7777 38.4555 26.7053 38.8171 26.6204 39.1756C26.4588 39.8592 25.8213 40.2711 25.1403 40.1393C24.478 40.0111 24.0323 39.36 24.139 38.6748C24.3796 37.1277 24.623 35.5811 24.857 34.0332C24.8741 33.9191 24.8632 33.7624 24.7974 33.6801C24.3947 33.1775 23.9728 32.6905 23.5552 32.1999C23.5299 32.1704 23.4874 32.1555 23.401 32.1014L23.4007 32.1017Z" fill="white"/>
<path d="M25.0584 17.3024C25.0666 15.913 26.1649 14.8303 27.5616 14.8352C28.9373 14.8401 30.0415 15.96 30.0344 17.3429C30.0272 18.7141 28.8977 19.8386 27.5335 19.8325C26.1467 19.8263 25.0502 18.7054 25.0584 17.3022V17.3024Z" fill="white"/>
</svg>
