<svg width="53" height="52" viewBox="0 0 53 52" fill="none" xmlns="http://www.w3.org/2000/svg">
<path d="M26.2778 52C40.6372 52 52.2778 40.3594 52.2778 26C52.2778 11.6406 40.6372 0 26.2778 0C11.9184 0 0.277832 11.6406 0.277832 26C0.277832 40.3594 11.9184 52 26.2778 52Z" fill="white"/>
<path d="M23.5343 32.2692C23.3836 32.6651 23.2415 33.029 23.1067 33.3957C22.9131 33.9217 22.5439 34.2512 21.9941 34.3266C21.7639 34.3581 21.5041 34.3261 21.2835 34.2489C19.4768 33.6178 17.674 32.9741 15.8743 32.323C15.1821 32.0725 14.8517 31.4006 15.0634 30.7344C15.2764 30.064 15.9288 29.7145 16.6481 29.9202C17.9095 30.2807 19.1649 30.6618 20.4227 31.0354C20.6967 31.1168 20.8756 31.0255 20.9595 30.7616C21.0615 30.4423 21.1799 30.1271 21.2589 29.8025C21.2875 29.6845 21.2668 29.5096 21.1952 29.4188C20.57 28.6272 20.5189 27.7558 20.8582 26.8542C21.4364 25.3179 22.0463 23.7936 22.6431 22.2644C22.7623 21.9593 22.7592 21.9457 22.4495 21.8331C21.5463 21.5046 20.6477 21.1623 19.7371 20.8566C19.1608 20.6632 18.8432 20.3199 18.7539 19.6982C18.5563 18.3227 18.3062 16.9549 18.0893 15.5819C17.9617 14.7736 18.4417 14.2627 19.2485 14.322C19.3132 14.3269 19.3784 14.3225 19.4684 14.3225C19.438 13.4729 19.7297 12.7764 20.4606 12.3133C20.9421 12.0081 21.4704 11.9304 22.0255 12.0604C23.1804 12.331 23.8782 13.4839 23.5637 14.6202C23.367 15.3303 22.9193 15.8201 22.2178 16.0637C21.5261 16.3043 20.8884 16.1573 20.2307 15.7147C20.2596 15.9168 20.2695 16.0437 20.2969 16.1663C20.4741 16.9592 20.6488 17.7529 20.8421 18.5417C20.8687 18.6499 20.9758 18.7876 21.0758 18.8207C22.559 19.312 24.0413 19.8075 25.5357 20.2629C27.4178 20.8366 29.3528 21.1653 31.296 21.4536C32.9067 21.6926 34.5134 21.959 36.1213 22.217C36.5272 22.2821 36.8445 22.4739 36.9836 22.8876C37.1117 23.2681 37.0488 23.6161 36.787 23.921C36.5479 24.1995 36.2318 24.2803 35.8807 24.2462C34.966 24.1575 34.0516 24.0669 33.1374 23.9744C31.9905 23.8582 30.8441 23.7392 29.6973 23.6223C29.1403 23.5656 28.5823 23.5187 28.0269 23.4512C27.8625 23.4312 27.7814 23.4807 27.719 23.6254C27.0202 25.2484 26.3177 26.8698 25.6163 28.4918C25.5199 28.7147 25.4365 28.9447 25.3225 29.158C25.2105 29.3676 25.2519 29.5253 25.391 29.7053C26.1525 30.6926 26.9005 31.6904 27.6613 32.6784C27.9374 33.037 28.0157 33.4321 27.9252 33.8629C27.6165 35.3303 27.3012 36.7964 26.9882 38.2627C26.9112 38.623 26.8389 38.9846 26.754 39.3431C26.5924 40.0267 25.9549 40.4386 25.2739 40.3068C24.6116 40.1785 24.1659 39.5274 24.2725 38.8422C24.5131 37.2951 24.7566 35.7485 24.9906 34.2007C25.0077 34.0866 24.9967 33.9299 24.931 33.8476C24.5282 33.3449 24.1063 32.858 23.6887 32.3674C23.6634 32.3379 23.6209 32.323 23.5345 32.2689L23.5343 32.2692Z" fill="#C6C6C6"/>
<path d="M25.1919 17.4702C25.2001 16.0808 26.2984 14.9981 27.6951 15.0029C29.0709 15.0078 30.1751 16.1277 30.1679 17.5107C30.1607 18.8819 29.0313 20.0063 27.667 20.0002C26.2803 19.994 25.1838 18.8731 25.1919 17.4699V17.4702Z" fill="#C6C6C6"/>
</svg>
