<svg width="53" height="52" viewBox="0 0 53 52" fill="none" xmlns="http://www.w3.org/2000/svg">
<path d="M26.3887 52C40.7481 52 52.3887 40.3594 52.3887 26C52.3887 11.6406 40.7481 0 26.3887 0C12.0293 0 0.388672 11.6406 0.388672 26C0.388672 40.3594 12.0293 52 26.3887 52Z" fill="white"/>
<path d="M15.3186 22.1533L17.8431 26.4963L20.35 22.1533H15.3186Z" fill="#C6C6C6"/>
<path d="M28.6299 22.1533H22.7887C22.4618 22.1533 22.1356 22.2017 21.8265 22.3083C21.4808 22.4277 21.094 22.6364 20.8622 23.0007C20.368 23.7773 18.3378 27.3083 18.3378 27.3083L19.9089 30.0095L20.8094 28.5853H24.9052L26.5824 25.7194H22.4865L22.9103 24.9249H27.0766L28.6302 22.1533H28.6299Z" fill="#C6C6C6"/>
<path d="M36.9096 22.1531H30.86C30.86 22.1531 29.4711 22.1236 28.8592 23.3948L23.092 33.2634C23.092 33.2634 22.5447 34.3578 23.092 35.6643L26.1155 40.7839L32.3075 30.0855H29.0415L26.1155 35.1523L25.6696 34.4107L31.1778 24.9481H32.0604L29.6417 29.2382H32.7842L36.9093 22.1528L36.9096 22.1531Z" fill="#C6C6C6"/>
<path d="M30.3917 17.8008H29.7511V18.5719H30.3973C30.5155 18.5747 30.5589 18.416 30.5589 18.416V17.9544C30.5013 17.8158 30.3917 17.8008 30.3917 17.8008Z" fill="#C6C6C6"/>
<path d="M26.1885 17.8061C26.1821 17.8024 26.1784 17.8008 26.1784 17.8008H25.463V18.6317H26.1979C26.2207 18.6281 26.2399 18.6178 26.2552 18.605C26.2923 18.5747 26.3109 18.5271 26.3109 18.4792V18.0195C26.3109 17.9316 26.265 17.8492 26.1882 17.8061H26.1885Z" fill="#C6C6C6"/>
<path d="M12.2069 16.5449L14.5711 20.7585H37.6866L40.0404 16.5449H12.2069ZM18.3642 17.4301H20.4588L20.1557 17.9321H18.0873L18.3642 17.4301ZM21.982 19.9832L21.6617 19.4812H20.7702L20.9866 18.962H21.3414L20.9432 18.3476L19.8875 19.9832H17.2564L17.897 18.9361H17.3864L17.6805 18.4948L19.6537 18.5293L19.4114 18.9534H18.416L18.0871 19.4726H19.6276L20.9778 17.4301L22.5703 19.9832H21.9818H21.982ZM24.5702 18.1514H24.1779L24.172 17.909C24.1634 17.8355 24.0985 17.8008 24.0985 17.8008H23.3845C23.2935 17.8094 23.2654 17.9132 23.2654 17.9132V18.3698C23.3325 18.4889 23.3801 18.4845 23.3801 18.4845H24.1806C24.5182 18.6013 24.5702 18.9258 24.5702 18.9258V19.575C24.4492 19.9429 24.1506 19.9832 24.1506 19.9832H23.2159C23.0383 19.9067 22.8856 19.6399 22.8856 19.6399V19.233H23.2648V19.484C23.3225 19.6168 23.4466 19.6399 23.4466 19.6399H24.0393C24.0999 19.614 24.12 19.5013 24.12 19.5013V19.0627C24.0624 18.8896 23.9124 18.878 23.9124 18.878H23.2201C22.9201 18.7511 22.8853 18.497 22.8853 18.497V17.7902C22.8853 17.5333 23.2663 17.4295 23.2663 17.4295H24.1779C24.5357 17.5161 24.5702 17.8161 24.5702 17.8161V18.1508V18.1514ZM26.7249 18.6086C26.6528 18.9865 26.2835 19.0499 26.2835 19.0499H25.4468V19.9832H25.0024V17.4301H26.3353C26.647 17.5122 26.7249 17.8787 26.7249 17.8787V18.6086ZM28.8317 19.5422C28.8317 19.5594 28.8289 19.5764 28.823 19.5928C28.7359 19.8321 28.5089 19.9913 28.2543 19.9913H27.6373C27.5004 19.9913 27.366 19.9423 27.2686 19.8458C27.2608 19.838 27.2528 19.8296 27.245 19.821C27.1543 19.7192 27.1094 19.5842 27.1094 19.4476V17.9296C27.1094 17.7874 27.1648 17.6483 27.2711 17.5537C27.3129 17.5164 27.3643 17.4833 27.4275 17.461C27.4762 17.444 27.5277 17.4379 27.5792 17.4379H28.4596C28.4596 17.4379 28.677 17.4379 28.8041 17.7009C28.8233 17.7407 28.8317 17.7849 28.8317 17.8289V19.5419V19.5422ZM30.6109 19.9871L30.2127 18.989H29.7166V19.9871H29.2953V17.4259H30.5993C30.9571 17.5189 30.9799 17.8984 30.9799 17.8984V18.5908C30.8761 18.8446 30.6165 18.9369 30.6165 18.9369L31.0609 19.9871H30.6109ZM32.9996 17.8319H32.3304V19.9832H31.8687L31.8629 17.8319H31.2454V17.4262H32.9993V17.8319H32.9996ZM35.068 18.1592H34.6757L34.6698 17.9168C34.6612 17.8433 34.5963 17.8086 34.5963 17.8086H33.8823C33.7913 17.8172 33.7632 17.921 33.7632 17.921V18.3776C33.8303 18.4967 33.8779 18.4923 33.8779 18.4923H34.6784C35.016 18.6091 35.068 18.9336 35.068 18.9336V19.5828C34.947 19.9507 34.6484 19.991 34.6484 19.991H33.7137C33.5361 19.9145 33.3834 19.6476 33.3834 19.6476V19.2408H33.7626V19.4918C33.8202 19.6246 33.9443 19.6476 33.9443 19.6476H34.5371C34.5977 19.6218 34.6178 19.5091 34.6178 19.5091V19.0705C34.5602 18.8974 34.4102 18.8857 34.4102 18.8857H33.7178C33.4179 18.7589 33.3831 18.5048 33.3831 18.5048V17.798C33.3831 17.5411 33.7637 17.4373 33.7637 17.4373H34.6754C35.0332 17.5239 35.0677 17.8239 35.0677 17.8239V18.1586L35.068 18.1592ZM35.3427 17.5331H35.2678V17.7356H35.2147V17.5331H35.1395V17.4894H35.3427V17.5331ZM35.6321 17.7359H35.5806V17.6433C35.5806 17.6015 35.5814 17.5542 35.5823 17.5264H35.5806C35.5692 17.5768 35.5444 17.6586 35.5208 17.7359H35.4754C35.457 17.6683 35.4317 17.5751 35.4211 17.5258H35.4195C35.4217 17.5548 35.4228 17.6057 35.4228 17.6477V17.7359H35.3741V17.4897H35.4534C35.4726 17.5539 35.494 17.6349 35.5016 17.6714H35.5018C35.5079 17.6391 35.5347 17.5525 35.5555 17.4897H35.6321V17.7359Z" fill="#C6C6C6"/>
<path d="M28.3064 17.8465C28.2891 17.8365 28.2688 17.832 28.2488 17.832H27.6978C27.6761 17.832 27.6549 17.8379 27.6363 17.849C27.6074 17.8663 27.5701 17.8958 27.5701 17.9322V19.4722C27.5701 19.4722 27.5701 19.4777 27.5704 19.4864C27.5743 19.549 27.6268 19.5977 27.6894 19.5977H28.2527C28.31 19.5977 28.3615 19.5576 28.3701 19.5008C28.3701 19.5 28.3704 19.4989 28.3704 19.498V17.9525C28.3704 17.9253 28.3618 17.898 28.344 17.8774C28.3348 17.8668 28.3225 17.8562 28.3061 17.8465H28.3064Z" fill="#C6C6C6"/>
</svg>
