<svg width="53" height="52" viewBox="0 0 53 52" fill="none" xmlns="http://www.w3.org/2000/svg">
<path d="M26.3887 52C40.7481 52 52.3887 40.3594 52.3887 26C52.3887 11.6406 40.7481 0 26.3887 0C12.0293 0 0.388672 11.6406 0.388672 26C0.388672 40.3594 12.0293 52 26.3887 52Z" fill="#C6C6C6"/>
<path d="M15.3186 22.1533L17.8431 26.4963L20.35 22.1533H15.3186Z" fill="white"/>
<path d="M28.6299 22.1533H22.7887C22.4618 22.1533 22.1356 22.2017 21.8265 22.3083C21.4808 22.4277 21.094 22.6364 20.8622 23.0007C20.368 23.7773 18.3378 27.3083 18.3378 27.3083L19.9089 30.0095L20.8094 28.5853H24.9052L26.5824 25.7194H22.4865L22.9103 24.9249H27.0766L28.6302 22.1533H28.6299Z" fill="white"/>
<path d="M36.9096 22.1534H30.86C30.86 22.1534 29.4711 22.1239 28.8592 23.395L23.092 33.2636C23.092 33.2636 22.5447 34.3581 23.092 35.6645L26.1155 40.7842L32.3075 30.0858H29.0415L26.1155 35.1525L25.6696 34.4109L31.1778 24.9483H32.0604L29.6417 29.2384H32.7842L36.9093 22.1531L36.9096 22.1534Z" fill="white"/>
<path d="M30.3917 17.801H29.7511V18.5721H30.3973C30.5155 18.5749 30.5589 18.4163 30.5589 18.4163V17.9546C30.5013 17.8161 30.3917 17.801 30.3917 17.801Z" fill="white"/>
<path d="M26.1885 17.8063C26.1821 17.8027 26.1784 17.801 26.1784 17.801H25.463V18.6319H26.1979C26.2207 18.6283 26.2399 18.618 26.2552 18.6052C26.2923 18.5749 26.3109 18.5273 26.3109 18.4794V18.0197C26.3109 17.9318 26.265 17.8494 26.1882 17.8063H26.1885Z" fill="white"/>
<path d="M12.2069 16.5452L14.5711 20.7587H37.6866L40.0404 16.5452H12.2069ZM18.3642 17.4303H20.4588L20.1557 17.9324H18.0873L18.3642 17.4303ZM21.982 19.9835L21.6617 19.4815H20.7702L20.9866 18.9622H21.3414L20.9432 18.3478L19.8875 19.9835H17.2564L17.897 18.9364H17.3864L17.6805 18.495L19.6537 18.5295L19.4114 18.9536H18.416L18.0871 19.4729H19.6276L20.9778 17.4303L22.5703 19.9835H21.9818H21.982ZM24.5702 18.1516H24.1779L24.172 17.9093C24.1634 17.8358 24.0985 17.801 24.0985 17.801H23.3845C23.2935 17.8096 23.2654 17.9134 23.2654 17.9134V18.3701C23.3325 18.4892 23.3801 18.4847 23.3801 18.4847H24.1806C24.5182 18.6016 24.5702 18.9261 24.5702 18.9261V19.5753C24.4492 19.9431 24.1506 19.9835 24.1506 19.9835H23.2159C23.0383 19.907 22.8856 19.6401 22.8856 19.6401V19.2333H23.2648V19.4843C23.3225 19.617 23.4466 19.6401 23.4466 19.6401H24.0393C24.0999 19.6142 24.12 19.5015 24.12 19.5015V19.063C24.0624 18.8899 23.9124 18.8782 23.9124 18.8782H23.2201C22.9201 18.7513 22.8853 18.4972 22.8853 18.4972V17.7904C22.8853 17.5336 23.2663 17.4298 23.2663 17.4298H24.1779C24.5357 17.5163 24.5702 17.8163 24.5702 17.8163V18.1511V18.1516ZM26.7249 18.6088C26.6528 18.9867 26.2835 19.0502 26.2835 19.0502H25.4468V19.9835H25.0024V17.4303H26.3353C26.647 17.5124 26.7249 17.8789 26.7249 17.8789V18.6088ZM28.8317 19.5424C28.8317 19.5597 28.8289 19.5767 28.823 19.5931C28.7359 19.8324 28.5089 19.9916 28.2543 19.9916H27.6373C27.5004 19.9916 27.366 19.9426 27.2686 19.846C27.2608 19.8382 27.2528 19.8299 27.245 19.8213C27.1543 19.7194 27.1094 19.5844 27.1094 19.4478V17.9298C27.1094 17.7876 27.1648 17.6485 27.2711 17.5539C27.3129 17.5166 27.3643 17.4835 27.4275 17.4612C27.4762 17.4443 27.5277 17.4381 27.5792 17.4381H28.4596C28.4596 17.4381 28.677 17.4381 28.8041 17.7011C28.8233 17.7409 28.8317 17.7851 28.8317 17.8291V19.5421V19.5424ZM30.6109 19.9874L30.2127 18.9892H29.7166V19.9874H29.2953V17.4262H30.5993C30.9571 17.5191 30.9799 17.8987 30.9799 17.8987V18.591C30.8761 18.8448 30.6165 18.9372 30.6165 18.9372L31.0609 19.9874H30.6109ZM32.9996 17.8322H32.3304V19.9835H31.8687L31.8629 17.8322H31.2454V17.4264H32.9993V17.8322H32.9996ZM35.068 18.1594H34.6757L34.6698 17.917C34.6612 17.8436 34.5963 17.8088 34.5963 17.8088H33.8823C33.7913 17.8174 33.7632 17.9212 33.7632 17.9212V18.3779C33.8303 18.497 33.8779 18.4925 33.8779 18.4925H34.6784C35.016 18.6094 35.068 18.9339 35.068 18.9339V19.5831C34.947 19.9509 34.6484 19.9913 34.6484 19.9913H33.7137C33.5361 19.9148 33.3834 19.6479 33.3834 19.6479V19.2411H33.7626V19.4921C33.8202 19.6248 33.9443 19.6479 33.9443 19.6479H34.5371C34.5977 19.622 34.6178 19.5093 34.6178 19.5093V19.0708C34.5602 18.8977 34.4102 18.886 34.4102 18.886H33.7178C33.4179 18.7591 33.3831 18.505 33.3831 18.505V17.7982C33.3831 17.5414 33.7637 17.4376 33.7637 17.4376H34.6754C35.0332 17.5241 35.0677 17.8241 35.0677 17.8241V18.1589L35.068 18.1594ZM35.3427 17.5333H35.2678V17.7359H35.2147V17.5333H35.1395V17.4896H35.3427V17.5333ZM35.6321 17.7362H35.5806V17.6435C35.5806 17.6018 35.5814 17.5545 35.5823 17.5266H35.5806C35.5692 17.577 35.5444 17.6588 35.5208 17.7362H35.4754C35.457 17.6685 35.4317 17.5753 35.4211 17.5261H35.4195C35.4217 17.555 35.4228 17.6059 35.4228 17.648V17.7362H35.3741V17.4899H35.4534C35.4726 17.5542 35.494 17.6352 35.5016 17.6716H35.5018C35.5079 17.6393 35.5347 17.5528 35.5555 17.4899H35.6321V17.7362Z" fill="white"/>
<path d="M28.3064 17.8465C28.2891 17.8365 28.2688 17.832 28.2488 17.832H27.6978C27.6761 17.832 27.6549 17.8379 27.6363 17.849C27.6074 17.8663 27.5701 17.8958 27.5701 17.9322V19.4722C27.5701 19.4722 27.5701 19.4777 27.5704 19.4864C27.5743 19.549 27.6268 19.5977 27.6894 19.5977H28.2527C28.31 19.5977 28.3615 19.5576 28.3701 19.5008C28.3701 19.5 28.3704 19.4989 28.3704 19.498V17.9525C28.3704 17.9253 28.3618 17.898 28.344 17.8774C28.3348 17.8668 28.3225 17.8562 28.3061 17.8465H28.3064Z" fill="white"/>
</svg>
