<svg width="53" height="52" viewBox="0 0 53 52" fill="none" xmlns="http://www.w3.org/2000/svg">
<path d="M26.8333 52C41.1927 52 52.8333 40.3594 52.8333 26C52.8333 11.6406 41.1927 0 26.8333 0C12.4738 0 0.833252 11.6406 0.833252 26C0.833252 40.3594 12.4738 52 26.8333 52Z" fill="#C6C6C6"/>
<path d="M26.2923 27.4863C25.9717 28.4498 25.6685 29.3793 25.3503 30.3034C25.2884 30.4832 25.3267 30.5668 25.4841 30.6654C26.5201 31.3138 27.5524 31.9688 28.5766 32.6354C28.7155 32.7259 28.8457 32.8756 28.9101 33.0273C29.7892 35.1004 30.6545 37.1794 31.527 39.2555C31.8954 40.1324 32.7724 40.518 33.5976 40.1745C34.4202 39.8322 34.7647 38.9326 34.3992 38.0563C33.4495 35.7792 32.4935 33.5049 31.5441 31.2278C31.3896 30.8577 31.1499 30.5716 30.8092 30.3595C30.2372 30.0032 29.6709 29.6377 29.1022 29.2757C28.1708 28.6825 27.2393 28.0893 26.2923 27.4863ZM30.4881 15.6661C30.4842 14.1151 29.2396 12.8786 27.6856 12.8816C26.1342 12.8846 24.8915 14.1312 24.8963 15.6801C24.9011 17.2279 26.1567 18.4775 27.6994 18.47C29.2507 18.4623 30.4923 17.2141 30.4884 15.6664L30.4881 15.6661ZM27.4099 24.9742C27.4506 24.9667 27.5581 24.9545 27.6616 24.9276C28.2962 24.7627 28.9301 24.5955 29.5638 24.4276C30.5967 24.1541 31.6318 23.8867 32.6617 23.6018C33.3148 23.4211 33.6171 22.7924 33.3522 22.2142C33.1352 21.7408 32.656 21.5437 32.0801 21.6966C30.6913 22.0654 29.3022 22.4334 27.9158 22.8106C27.7293 22.8614 27.6114 22.8363 27.4725 22.6906C26.6045 21.7793 25.7263 20.8776 24.8466 19.9777C24.4075 19.5285 23.7933 19.5052 23.3817 19.909C22.972 20.311 22.9792 20.9057 23.4105 21.3522C24.4724 22.451 25.5392 23.5457 26.6033 24.6427C26.8065 24.8523 27.0463 24.9757 27.4105 24.9739L27.4099 24.9742Z" fill="white"/>
<path d="M12.6514 30.793C12.6693 30.7533 12.6918 30.7147 12.7043 30.6732C12.9848 29.7449 13.8818 29.2868 14.7945 29.6321C16.1557 30.147 17.5095 30.681 18.8666 31.2063C19.6281 31.5011 20.3898 31.7956 21.177 32.1C21.529 31.0424 21.8768 29.9973 22.2282 28.9412C22.1869 28.9123 22.1552 28.8785 22.1166 28.8648C21.6784 28.7095 21.4946 28.3645 21.5204 27.9398C21.5518 27.4228 21.6395 26.9079 21.7251 26.3956C21.9565 25.0098 21.9086 23.6198 21.8071 22.2283C21.7694 21.7095 21.7218 21.1916 21.6757 20.6379C21.0675 20.9389 20.4868 21.2203 19.9142 21.5172C19.8403 21.5557 19.7957 21.668 19.7571 21.7549C19.2926 22.8056 18.8346 23.8593 18.3692 24.9098C18.1339 25.4405 17.6496 25.686 17.148 25.5423C16.5613 25.3742 16.2725 24.7506 16.5278 24.1592C17.0255 23.0054 17.5499 21.863 18.0342 20.7036C18.2195 20.2597 18.5006 19.9709 18.9352 19.7654C20.113 19.2084 21.2743 18.6168 22.4419 18.0391C23.4045 17.563 24.351 17.7019 25.1483 18.4349C25.7667 19.0029 26.0607 19.7329 26.2052 20.5378C26.2301 20.6761 26.2513 20.815 26.2836 21.0091C26.0074 20.7385 25.7715 20.51 25.5393 20.2783C25.3609 20.1003 25.1908 19.9145 25.011 19.7383C24.483 19.2207 23.7024 19.2042 23.1923 19.6965C22.6715 20.1988 22.6628 20.9855 23.1836 21.5321C23.7422 22.1181 24.3106 22.6945 24.8745 23.2751C25.357 23.7721 25.8446 24.264 26.3163 24.7709C26.3929 24.853 26.4429 25.0047 26.4318 25.1167C26.2696 26.7376 25.7443 28.2665 25.2274 29.7978C24.7024 31.3533 24.189 32.913 23.6709 34.4708C23.3159 35.5383 22.465 35.9361 21.4186 35.5296C18.94 34.5667 16.4649 33.5939 13.9776 32.6537C13.3143 32.4031 12.8342 32.0322 12.652 31.3315C12.652 31.1517 12.652 30.9719 12.652 30.7921L12.6514 30.793Z" fill="white"/>
<path d="M26.2922 27.4866C27.2392 28.0896 28.1707 28.6831 29.1022 29.2759C29.6709 29.6379 30.2372 30.0035 30.8092 30.3598C31.1498 30.5718 31.3895 30.858 31.544 31.228C32.4934 33.5051 33.4491 35.7798 34.3991 38.0566C34.7646 38.9329 34.4201 39.8325 33.5976 40.1747C32.7724 40.5182 31.8954 40.1326 31.5269 39.2557C30.6544 37.1797 29.7894 35.1006 28.91 33.0275C28.8457 32.8758 28.7155 32.7259 28.5766 32.6357C27.5523 31.969 26.52 31.314 25.4841 30.6656C25.3263 30.5671 25.2883 30.4834 25.3503 30.3036C25.6681 29.3793 25.9716 28.4501 26.2922 27.4866Z" fill="white"/>
<path d="M30.4881 15.6661C30.4923 17.2138 29.2504 18.4623 27.6991 18.4697C26.1564 18.4772 24.9008 17.2276 24.896 15.6798C24.8915 14.1312 26.1343 12.8846 27.6856 12.8816C29.2397 12.8786 30.4842 14.1151 30.4884 15.6661H30.4881Z" fill="white"/>
<path d="M27.41 24.9745C27.0458 24.9763 26.806 24.8529 26.6028 24.6433C25.5387 23.5462 24.4723 22.4516 23.41 21.3528C22.9787 20.9066 22.9715 20.3119 23.3813 19.9096C23.7931 19.5055 24.4073 19.5291 24.8461 19.9783C25.7258 20.8782 26.604 21.7802 27.472 22.6912C27.6109 22.8369 27.7288 22.8617 27.9153 22.8112C29.3017 22.434 30.6908 22.066 32.0796 21.6972C32.6555 21.5443 33.1347 21.7414 33.3517 22.2148C33.6166 22.793 33.3143 23.4217 32.6612 23.6024C31.6313 23.8873 30.5962 24.1543 29.5633 24.4282C28.9297 24.5961 28.2957 24.7633 27.6612 24.9282C27.5576 24.9551 27.4504 24.9676 27.4094 24.9748L27.41 24.9745Z" fill="white"/>
<path d="M24.6091 18.0052L27.0042 19.0846C27.0683 19.1133 27.109 19.1775 27.1075 19.2474C27.0991 19.7279 27.0449 21.6463 26.6933 23.8556C26.6645 24.0354 26.414 24.0575 26.3535 23.8857L24.3706 18.2232C24.3197 18.0778 24.4681 17.9422 24.6088 18.0055L24.6091 18.0052Z" fill="white"/>
<path d="M26.2856 20.8496L24.3158 18.884L22.8561 19.3004L22.6475 21.2196L26.5212 24.9886C26.7337 23.532 26.2856 20.8496 26.2856 20.8496Z" fill="white"/>
<path d="M38.6054 39.9422H38.3055C38.2893 39.9393 38.2731 39.9357 38.257 39.9333C38.1483 39.9181 38.0379 39.9106 37.9313 39.887C37.2237 39.7308 36.6697 39.3485 36.2839 38.7365C35.9211 38.1607 35.8131 37.5329 35.9546 36.8671C36.0765 36.2949 36.3689 35.8203 36.814 35.4422C37.2543 35.0682 37.7661 34.8636 38.3444 34.8365C38.8032 34.815 39.2393 34.9102 39.6416 35.133C40.3704 35.5368 40.8176 36.1488 40.9753 36.9678C40.9933 37.0604 41.002 37.1547 41.0148 37.2482V37.5475C41.0107 37.5818 41.0065 37.6162 41.0026 37.6505C40.9481 38.1475 40.767 38.5928 40.4503 38.9802C40.043 39.4784 39.5216 39.7887 38.8861 39.9034C38.793 39.9201 38.6991 39.9297 38.6054 39.9425V39.9422ZM38.6054 36.1228C38.6054 36.2324 38.6039 36.3421 38.6069 36.4517C38.6075 36.4726 38.6206 36.4995 38.6371 36.5123C38.8361 36.6655 39.0364 36.8169 39.2378 36.9669C39.254 36.9791 39.2842 36.9839 39.304 36.9782C39.5207 36.914 39.7362 36.8462 39.9529 36.782C39.9825 36.773 39.996 36.7578 40.0053 36.7303C40.0801 36.5141 40.1552 36.2979 40.2318 36.0819C40.2417 36.0538 40.2396 36.0347 40.2202 36.0105C39.9649 35.6922 39.6485 35.4574 39.2686 35.3075C39.2426 35.2973 39.2243 35.2976 39.2013 35.3149C39.0127 35.4544 38.823 35.5921 38.635 35.7322C38.6197 35.7435 38.6075 35.7692 38.6072 35.7886C38.6045 35.9 38.606 36.0111 38.606 36.1225L38.6054 36.1228ZM39.9203 38.658C39.9203 38.6633 39.9203 38.6684 39.9203 38.6738C40.0118 38.6738 40.104 38.6669 40.1947 38.6759C40.2767 38.6839 40.3216 38.655 40.3641 38.5857C40.5572 38.2697 40.6766 37.931 40.7057 37.5612C40.708 37.5299 40.7012 37.5102 40.6742 37.4908C40.4854 37.3549 40.2983 37.216 40.1091 37.0804C40.0924 37.0684 40.0624 37.0634 40.0427 37.0693C39.8245 37.1338 39.6066 37.2007 39.3896 37.2691C39.3701 37.2754 39.3474 37.2963 39.3408 37.3154C39.2636 37.5466 39.1887 37.7787 39.1151 38.0113C39.1094 38.0299 39.1124 38.0582 39.1232 38.0738C39.2522 38.2595 39.3827 38.4438 39.515 38.6272C39.5264 38.6427 39.5515 38.6568 39.5707 38.6571C39.6871 38.6597 39.8035 38.6586 39.9203 38.6586V38.658ZM36.9621 38.6188C36.9621 38.6209 36.9621 38.6227 36.9621 38.6248C37.0804 38.6248 37.1986 38.626 37.3168 38.6236C37.336 38.6233 37.3617 38.6108 37.3731 38.5955C37.5039 38.4235 37.6332 38.2503 37.7607 38.0761C37.7721 38.0606 37.7787 38.0325 37.773 38.0146C37.6952 37.7661 37.6152 37.5182 37.5341 37.2706C37.5284 37.2536 37.5102 37.2342 37.4934 37.2282C37.2878 37.1565 37.0816 37.0869 36.875 37.0186C36.8595 37.0135 36.8352 37.0165 36.8215 37.0257C36.6215 37.1604 36.4225 37.2963 36.2243 37.4337C36.2114 37.4427 36.2007 37.4657 36.2013 37.4815C36.2168 37.8805 36.3384 38.2464 36.5485 38.5848C36.5649 38.6111 36.5829 38.6197 36.6125 38.6194C36.729 38.6179 36.8457 38.6188 36.9621 38.6188ZM38.4416 38.2258C38.315 38.2258 38.1884 38.2243 38.0621 38.2273C38.0415 38.2276 38.0142 38.241 38.0016 38.2571C37.8717 38.428 37.7439 38.6 37.6176 38.7732C37.6057 38.7897 37.6006 38.8198 37.6063 38.8395C37.6727 39.0639 37.7427 39.287 37.8101 39.5113C37.8188 39.5402 37.8328 39.5546 37.8619 39.5623C38.236 39.6627 38.6108 39.6705 38.9873 39.5767C39.019 39.5689 39.0349 39.5561 39.0451 39.5256C39.119 39.3037 39.1941 39.0821 39.271 38.8611C39.2818 38.8303 39.2767 38.8094 39.2585 38.7843C39.1343 38.6117 39.0106 38.4384 38.8888 38.264C38.8679 38.2341 38.8463 38.2246 38.8113 38.2252C38.688 38.2273 38.565 38.2261 38.4416 38.2261V38.2258ZM38.3058 36.1198C38.3058 36.0102 38.3072 35.9003 38.3043 35.7907C38.3037 35.7701 38.2905 35.7426 38.274 35.7304C38.0873 35.5912 37.8987 35.4544 37.711 35.3164C37.6889 35.3003 37.6712 35.2955 37.644 35.3063C37.2905 35.446 36.9891 35.6581 36.7412 35.9463C36.7215 35.9693 36.7167 35.9881 36.726 36.0168C36.7969 36.2399 36.8669 36.463 36.9358 36.6867C36.9445 36.7145 36.9576 36.7303 36.9867 36.7399C37.1839 36.8053 37.3809 36.8719 37.5772 36.9397C37.6072 36.9502 37.629 36.9475 37.6553 36.9295C37.8601 36.7898 38.0654 36.6506 38.2716 36.5132C38.2992 36.495 38.3072 36.4753 38.3067 36.4439C38.3049 36.3358 38.3061 36.2277 38.3061 36.1198H38.3058Z" fill="white"/>
</svg>
