<svg width="549" height="574" viewBox="0 0 549 574" fill="none" xmlns="http://www.w3.org/2000/svg">
<path d="M356 459L321.5 385L337 372L333 364.5L373.5 347L416.5 366.5L422.5 363L424 368.5L418 371L419.5 373H424L440 410.5L437 413.5L440 419.5L415.5 430.5L409.5 415L429.5 406V404L422.5 406L421.5 401.5L429.5 398L428 393L360.5 423.5L362.5 427L394 413.5L406 437.5L356 459Z" fill="#D7D7D7"/>
<path d="M487.5 454L485 445.5L492.5 439L504.5 434.5L514 436L516 444H523L537.5 488.5L524.5 490.5L514 460L499.5 463.5L503.5 486.5L490.5 488.5L485 456.5L487.5 454Z" fill="#D7D7D7"/>
<path d="M472.5 368L480.5 369.5L490 340H500L502.5 329.5L524 337L519.5 350.5L522 352.5L518.5 358L521 360.5L518.5 369.5L520.5 371.5L512.5 379.5L506 397.5L477 391L469.5 377L472.5 368Z" fill="#D7D7D7"/>
<path d="M291 274.5L238.5 370L208 354L261.5 259L291 274.5Z" fill="#D7D7D7"/>
<path d="M271 238.5L283 221L296 228V231.5L369.5 271L371 268L385 276.5L374 295.5L364 291L361 293.5L338 281L336 285.5L300 266.5L302.5 263L278 248L280 245.5L271 238.5Z" fill="#D7D7D7"/>
<path d="M170 456L165 438.5L189 389.5L200.5 396L182.5 426.5L191.5 452.5L203 464.5L197.5 472.5L170 456Z" fill="#712732"/>
<path d="M24 271L3 191.5L51.5 180.5L58 202.5L31 210.5L44.5 265.5L24 271Z" fill="#D7D7D7"/>
<path d="M27.5 357L43.5 315L76 324.5L82.5 321.5L106 328.5L114 324.5L119 333.5H126.5L131.5 346.5L119 365.5L124 376L114 387.5L109 390L27.5 357Z" fill="#D7D7D7"/>
<path d="M307.558 553.38L290.886 533.199L295.914 527.633L300.414 529.812L311.127 524.666L312.959 510.554L341.017 487.252L343.542 492.363L351.706 487.205L354.83 490.161L357.882 487.528L366.763 496.494L307.558 553.38Z" fill="#D7D7D7"/>
<path d="M40.5 274.5C45.1667 271.667 57.4 272 69 296C70.1667 300.5 77.2 310.6 96 315C114.8 319.4 162.167 341.5 183.5 352" stroke="#FEFEFE" stroke-width="5"/>
<path d="M371 329C375.5 333.667 390.6 344.6 407 349C415.664 351.325 423.167 355.346 430 361.933M514.5 497.5C519.5 498 543.5 493.5 546 484.5C548 477.3 537.17 460 535.5 446C529 391.5 469.5 441.5 455.5 405.5C447.417 384.715 439.334 370.93 430 361.933M430 361.933C438 359.577 456.9 356.279 468.5 361.933" stroke="#FEFEFE" stroke-width="5"/>
<path d="M371 315.5C385.333 303.833 408.5 276.6 384.5 267C360.5 257.4 303.833 227.667 278.5 214L257.5 251L338 295.5C343.333 297.667 355.9 305.4 359.5 315" stroke="#FEFEFE" stroke-width="5"/>
<path d="M106 506.5L247 229L293.5 160.5M293.5 160.5L314.5 25M293.5 160.5L471.5 127.5" stroke="#FEFEFE" stroke-width="10"/>
<path d="M210 478.5C220 484 244.8 488.4 264 462C288 429 303.882 406.5 313 391C318 382.5 338.5 332.5 357 327.5" stroke="#FEFEFE" stroke-width="5"/>
<path d="M365 314C369.694 314 373.5 317.806 373.5 322.5C373.5 327.194 369.694 331 365 331C360.306 331 356.5 327.194 356.5 322.5C356.5 317.806 360.306 314 365 314Z" stroke="#FEFEFE" stroke-width="5"/>
<path d="M178.5 475.5L176 511" stroke="#712732" stroke-dasharray="2 2"/>
<path d="M162.693 532.812H143.24V530.398H151.443V528.594H145.724V520.344H148.677V522.289H157.232V520.344H160.208V528.594H154.443V530.398H162.693V532.812ZM160.325 541.156H157.349V536.633H145.396V534.266H160.325V541.156ZM157.232 526.25V524.492H148.677V526.25H157.232ZM171.535 525.641C171.535 526.82 171.734 527.98 172.133 529.121C172.539 530.254 173.145 531.273 173.949 532.18C174.754 533.086 175.73 533.781 176.879 534.266L175.262 536.609C174.035 536.094 172.984 535.336 172.109 534.336C171.234 533.336 170.547 532.168 170.047 530.832C169.555 532.285 168.863 533.562 167.973 534.664C167.082 535.758 166.027 536.586 164.809 537.148L163.098 534.781C164.238 534.273 165.211 533.535 166.016 532.566C166.828 531.598 167.438 530.512 167.844 529.309C168.258 528.098 168.465 526.875 168.465 525.641V524.328H163.941V521.891H175.988V524.328H171.535V525.641ZM181.121 541.156H178.098V519.828H181.121V541.156ZM195.237 522.711C195.237 523.805 195.21 524.832 195.155 525.793C195.1 526.746 194.964 527.805 194.745 528.969L191.815 528.688C192.112 527.055 192.276 525.43 192.307 523.812H184.268V521.375H195.237V522.711ZM189.94 530.387C192.362 530.277 194.464 530.094 196.245 529.836L196.409 531.992C194.448 532.352 192.405 532.59 190.28 532.707C188.155 532.824 185.815 532.891 183.26 532.906L183.003 530.516C184.698 530.516 186.018 530.504 186.964 530.48V526.297H189.94V530.387ZM200.464 526.32H203.042V528.828H200.464V535.789H197.393V519.828H200.464V526.32ZM201.12 540.781H186.143V534.359H189.143V538.391H201.12V540.781ZM150.115 568.234C148.889 568.234 147.787 568.023 146.81 567.602C145.842 567.172 145.076 566.578 144.514 565.82C143.959 565.055 143.67 564.188 143.646 563.219H147.209C147.232 563.633 147.373 564 147.631 564.32C147.889 564.641 148.236 564.891 148.674 565.07C149.111 565.242 149.6 565.328 150.139 565.328C150.693 565.328 151.189 565.23 151.627 565.035C152.072 564.832 152.416 564.555 152.658 564.203C152.908 563.852 153.029 563.453 153.021 563.008C153.029 562.547 152.9 562.137 152.635 561.777C152.377 561.418 152.006 561.141 151.521 560.945C151.037 560.742 150.467 560.641 149.81 560.641H148.24V558.039H149.81C150.357 558.039 150.846 557.945 151.275 557.758C151.705 557.57 152.041 557.305 152.283 556.961C152.525 556.617 152.646 556.227 152.646 555.789C152.646 555.359 152.541 554.98 152.33 554.652C152.127 554.324 151.838 554.07 151.463 553.891C151.088 553.703 150.654 553.609 150.162 553.609C149.662 553.609 149.201 553.699 148.779 553.879C148.365 554.051 148.029 554.301 147.771 554.629C147.521 554.949 147.389 555.32 147.373 555.742H143.998C144.014 554.781 144.291 553.926 144.83 553.176C145.369 552.426 146.103 551.844 147.033 551.43C147.971 551.008 149.014 550.797 150.162 550.797C151.318 550.797 152.342 551.008 153.232 551.43C154.131 551.844 154.826 552.418 155.318 553.152C155.81 553.879 156.053 554.688 156.045 555.578C156.053 556.195 155.92 556.758 155.646 557.266C155.381 557.766 155.002 558.18 154.51 558.508C154.025 558.836 153.467 559.055 152.834 559.164V559.305C153.654 559.406 154.353 559.633 154.932 559.984C155.51 560.336 155.947 560.793 156.244 561.355C156.541 561.91 156.685 562.539 156.678 563.242C156.685 564.195 156.408 565.055 155.846 565.82C155.283 566.578 154.502 567.172 153.502 567.602C152.502 568.023 151.373 568.234 150.115 568.234ZM165.028 568.234C163.614 568.234 162.395 567.895 161.372 567.215C160.356 566.527 159.575 565.531 159.028 564.227C158.481 562.922 158.208 561.352 158.208 559.516C158.208 557.68 158.481 556.109 159.028 554.805C159.575 553.5 160.356 552.508 161.372 551.828C162.395 551.141 163.614 550.797 165.028 550.797C166.434 550.797 167.649 551.141 168.672 551.828C169.696 552.508 170.481 553.504 171.028 554.816C171.575 556.121 171.848 557.688 171.848 559.516C171.848 561.359 171.575 562.934 171.028 564.238C170.481 565.543 169.696 566.535 168.672 567.215C167.657 567.895 166.442 568.234 165.028 568.234ZM165.028 565.328C165.684 565.328 166.251 565.117 166.727 564.695C167.212 564.273 167.583 563.637 167.84 562.785C168.106 561.934 168.239 560.883 168.239 559.633C168.239 557.688 167.958 556.211 167.395 555.203C166.833 554.188 166.044 553.68 165.028 553.68C164.012 553.68 163.223 554.188 162.661 555.203C162.098 556.211 161.817 557.688 161.817 559.633C161.817 560.883 161.946 561.934 162.204 562.785C162.469 563.637 162.84 564.273 163.317 564.695C163.801 565.117 164.372 565.328 165.028 565.328ZM180.878 568H177.339V554.383H177.245L173.355 556.82V553.703L177.55 551.031H180.878V568ZM201.979 553.914H184.236V551.523H191.619V549.039H194.572V551.523H201.979V553.914ZM202.916 567.977H183.393V565.586H191.619V563.137C190.408 563.035 189.365 562.805 188.49 562.445C187.615 562.078 186.947 561.602 186.486 561.016C186.025 560.43 185.799 559.75 185.807 558.977C185.799 558.125 186.088 557.387 186.674 556.762C187.268 556.137 188.111 555.66 189.205 555.332C190.307 555.004 191.604 554.844 193.096 554.852C194.565 554.844 195.846 555.004 196.94 555.332C198.033 555.66 198.877 556.137 199.471 556.762C200.065 557.387 200.361 558.125 200.361 558.977C200.361 559.75 200.127 560.43 199.658 561.016C199.197 561.602 198.533 562.074 197.666 562.434C196.799 562.793 195.768 563.027 194.572 563.137V565.586H202.916V567.977ZM193.096 557.172C191.697 557.172 190.643 557.324 189.932 557.629C189.221 557.926 188.869 558.375 188.877 558.977C188.869 559.602 189.217 560.062 189.92 560.359C190.631 560.656 191.69 560.805 193.096 560.805C195.893 560.805 197.291 560.195 197.291 558.977C197.291 558.375 196.932 557.926 196.213 557.629C195.502 557.324 194.463 557.172 193.096 557.172Z" fill="#712732"/>
<path d="M46.2344 353.234H33.5625V352.25H39.2969V350.625H35.1719V346.031H44.6562V347.016H36.375V349.625H44.75V350.625H40.4844V352.25H46.2344V353.234ZM39.8906 354.25C40.8802 354.25 41.7318 354.349 42.4453 354.547C43.1641 354.74 43.7135 355.023 44.0938 355.398C44.474 355.773 44.6667 356.224 44.6719 356.75C44.6667 357.281 44.474 357.734 44.0938 358.109C43.7135 358.484 43.1667 358.768 42.4531 358.961C41.7396 359.159 40.8854 359.26 39.8906 359.266C38.8906 359.26 38.0312 359.159 37.3125 358.961C36.5938 358.768 36.0443 358.484 35.6641 358.109C35.2839 357.734 35.0938 357.281 35.0938 356.75C35.0938 356.224 35.2839 355.773 35.6641 355.398C36.0443 355.023 36.5938 354.74 37.3125 354.547C38.0312 354.349 38.8906 354.25 39.8906 354.25ZM39.8906 355.219C39.151 355.219 38.513 355.281 37.9766 355.406C37.4453 355.526 37.0391 355.701 36.7578 355.93C36.4766 356.159 36.3385 356.432 36.3438 356.75C36.3385 357.073 36.4766 357.349 36.7578 357.578C37.0391 357.807 37.4453 357.982 37.9766 358.102C38.513 358.221 39.151 358.281 39.8906 358.281C40.625 358.281 41.2578 358.221 41.7891 358.102C42.3203 357.982 42.7266 357.807 43.0078 357.578C43.2943 357.344 43.4375 357.068 43.4375 356.75C43.4375 356.432 43.2943 356.159 43.0078 355.93C42.7266 355.701 42.3177 355.526 41.7812 355.406C41.25 355.281 40.6198 355.219 39.8906 355.219ZM53.8481 348.781H46.8794V347.781H49.77V345.797H50.9888V347.781H53.8481V348.781ZM50.3638 349.719C50.9419 349.719 51.4575 349.854 51.9106 350.125C52.369 350.391 52.7257 350.763 52.9809 351.242C53.2414 351.721 53.3742 352.266 53.3794 352.875C53.3742 353.49 53.2414 354.039 52.9809 354.523C52.7257 355.003 52.369 355.38 51.9106 355.656C51.4575 355.927 50.9419 356.062 50.3638 356.062C49.7908 356.062 49.2778 355.927 48.8247 355.656C48.3716 355.38 48.0174 355 47.7622 354.516C47.507 354.031 47.3794 353.484 47.3794 352.875C47.3794 352.271 47.507 351.729 47.7622 351.25C48.0174 350.766 48.3716 350.391 48.8247 350.125C49.2778 349.854 49.7908 349.719 50.3638 349.719ZM50.3638 350.75C50.0044 350.755 49.6789 350.852 49.3872 351.039C49.1007 351.221 48.8768 351.474 48.7153 351.797C48.5539 352.115 48.4731 352.474 48.4731 352.875C48.4731 353.281 48.5539 353.646 48.7153 353.969C48.882 354.292 49.1085 354.544 49.395 354.727C49.6815 354.904 50.0044 354.99 50.3638 354.984C50.7283 354.99 51.0565 354.904 51.3481 354.727C51.6398 354.544 51.869 354.292 52.0356 353.969C52.2023 353.646 52.2856 353.281 52.2856 352.875C52.2856 352.474 52.2023 352.115 52.0356 351.797C51.869 351.474 51.6398 351.221 51.3481 351.039C51.0565 350.852 50.7283 350.755 50.3638 350.75ZM58.7388 359.266H57.5669V352.25H55.7231V358.578H54.5669V345.719H55.7231V351.234H57.5669V345.375H58.7388V359.266ZM72.9619 353.5H67.3056V356.344H66.0869V353.5H60.2431V352.484H72.9619V353.5ZM71.3056 350.891H61.8994V346.062H71.3056V350.891ZM63.1025 349.906H70.0869V347.031H63.1025V349.906ZM71.54 358.969H61.8681V354.969H63.1025V357.938H71.54V358.969ZM84.3881 351.297H86.6069V352.328H84.3881V359.266H83.1538V345.375H84.3881V351.297ZM73.435 355.562C75.0704 355.562 76.3465 355.547 77.2631 355.516V353.977C76.7267 353.914 76.2553 353.773 75.8491 353.555C75.448 353.331 75.1381 353.042 74.9194 352.688C74.7058 352.328 74.6017 351.922 74.6069 351.469C74.6017 350.953 74.7345 350.503 75.0053 350.117C75.2814 349.727 75.6668 349.424 76.1616 349.211C76.6616 348.997 77.2371 348.891 77.8881 348.891C78.5288 348.891 79.0965 348.997 79.5913 349.211C80.0913 349.424 80.4793 349.727 80.7553 350.117C81.0366 350.503 81.1798 350.953 81.185 351.469C81.1798 351.922 81.0652 352.328 80.8413 352.688C80.6173 353.042 80.3022 353.331 79.8959 353.555C79.4949 353.779 79.0288 353.922 78.4975 353.984V355.469C79.9767 355.396 81.2475 355.281 82.31 355.125L82.3881 356.062C81.0444 356.292 79.6642 356.44 78.2475 356.508C76.8308 356.576 75.2944 356.609 73.6381 356.609L73.435 355.562ZM82.06 348.078H73.685V347.078H77.2631V345.406H78.4975V347.078H82.06V348.078ZM77.8881 349.844C77.4663 349.844 77.0939 349.911 76.7709 350.047C76.448 350.182 76.1954 350.375 76.0131 350.625C75.836 350.87 75.7475 351.151 75.7475 351.469C75.7475 351.786 75.836 352.068 76.0131 352.312C76.1902 352.552 76.4402 352.737 76.7631 352.867C77.0913 352.992 77.4663 353.052 77.8881 353.047C78.3048 353.052 78.6746 352.992 78.9975 352.867C79.3204 352.737 79.5704 352.552 79.7475 352.312C79.9246 352.068 80.0131 351.786 80.0131 351.469C80.0131 351.151 79.9246 350.87 79.7475 350.625C79.5704 350.375 79.3204 350.182 78.9975 350.047C78.6746 349.911 78.3048 349.844 77.8881 349.844ZM98.8613 359.266H97.6738V345.375H98.8613V359.266ZM96.0956 358.562H94.9238V354H92.705C92.4602 354.698 92.1139 355.24 91.6659 355.625C91.218 356.01 90.6998 356.203 90.1113 356.203C89.5123 356.203 88.9863 356.008 88.5331 355.617C88.0852 355.221 87.7389 354.659 87.4941 353.93C87.2493 353.201 87.1269 352.349 87.1269 351.375C87.1269 350.401 87.2493 349.549 87.4941 348.82C87.7389 348.091 88.0852 347.531 88.5331 347.141C88.9863 346.745 89.5123 346.547 90.1113 346.547C90.6998 346.547 91.218 346.74 91.6659 347.125C92.1139 347.51 92.4602 348.052 92.705 348.75H94.9238V345.672H96.0956V358.562ZM90.1113 347.703C89.7363 347.703 89.4081 347.852 89.1269 348.148C88.8508 348.445 88.6373 348.87 88.4863 349.422C88.3404 349.974 88.2675 350.625 88.2675 351.375C88.2675 352.12 88.3404 352.768 88.4863 353.32C88.6373 353.872 88.8508 354.297 89.1269 354.594C89.4081 354.891 89.7363 355.036 90.1113 355.031C90.481 355.036 90.8066 354.891 91.0878 354.594C91.3691 354.297 91.5852 353.872 91.7363 353.32C91.8925 352.768 91.9706 352.12 91.9706 351.375C91.9706 350.63 91.8925 349.982 91.7363 349.43C91.5852 348.872 91.3691 348.445 91.0878 348.148C90.8118 347.852 90.4863 347.703 90.1113 347.703ZM92.9706 349.766C93.0644 350.255 93.1113 350.792 93.1113 351.375C93.1113 351.938 93.067 352.469 92.9784 352.969H94.9238V349.766H92.9706ZM107.272 345.984C107.272 346.536 107.509 347.049 107.983 347.523C108.457 347.997 109.077 348.393 109.842 348.711C110.608 349.029 111.418 349.24 112.272 349.344L111.834 350.281C111.09 350.182 110.373 350.01 109.686 349.766C109.004 349.516 108.394 349.198 107.858 348.812C107.321 348.427 106.912 347.992 106.631 347.508C106.345 347.992 105.931 348.427 105.389 348.812C104.853 349.198 104.241 349.516 103.553 349.766C102.871 350.01 102.162 350.182 101.428 350.281L101.006 349.344C101.855 349.24 102.662 349.029 103.428 348.711C104.194 348.393 104.814 347.997 105.287 347.523C105.767 347.049 106.006 346.536 106.006 345.984V345.453H107.272V345.984ZM112.959 352.188H107.225V353.578H111.334V356.734H103.084V358.141H111.756V359.109H101.866V355.812H110.131V354.547H101.834V353.578H106.006V352.188H100.303V351.188H112.959V352.188ZM121.354 347.188V347.375C121.344 348.068 121.318 348.708 121.276 349.297C121.235 349.885 121.141 350.552 120.995 351.297L119.761 351.203C119.906 350.469 120.003 349.818 120.05 349.25C120.102 348.682 120.133 348.094 120.143 347.484H114.433V346.453H121.354V347.188ZM117.776 352.516C119.568 352.443 121.094 352.318 122.354 352.141L122.433 353.047C121.136 353.271 119.753 353.422 118.284 353.5C116.821 353.573 115.292 353.609 113.698 353.609L113.573 352.594H113.745L116.558 352.555V349.531H117.776V352.516ZM124.542 349.906H126.573V350.953H124.542V355.828H123.292V345.375H124.542V349.906ZM124.995 358.969H115.714V354.891H116.948V357.938H124.995V358.969Z" fill="#191516"/>
<path d="M11.4219 213.969H13.5156V215H11.4219V219.797H10.2031V209.391H11.4219V213.969ZM8.875 212.094H0.59375V211.094H4.125V209.391H5.34375V211.094H8.875V212.094ZM4.73438 212.859C5.39062 212.859 5.96875 212.966 6.46875 213.18C6.97396 213.393 7.36719 213.695 7.64844 214.086C7.92969 214.477 8.07292 214.932 8.07812 215.453C8.07292 215.969 7.92969 216.419 7.64844 216.805C7.36719 217.19 6.97396 217.49 6.46875 217.703C5.96875 217.911 5.39062 218.016 4.73438 218.016C4.07292 218.016 3.48698 217.911 2.97656 217.703C2.47135 217.49 2.07812 217.19 1.79688 216.805C1.52083 216.419 1.38542 215.969 1.39062 215.453C1.38542 214.932 1.52083 214.477 1.79688 214.086C2.07812 213.695 2.47135 213.393 2.97656 213.18C3.48698 212.966 4.07292 212.859 4.73438 212.859ZM4.73438 213.828C4.30208 213.828 3.91927 213.896 3.58594 214.031C3.25781 214.161 3.0026 214.352 2.82031 214.602C2.64323 214.846 2.55729 215.13 2.5625 215.453C2.55729 215.776 2.64323 216.06 2.82031 216.305C3.0026 216.544 3.25781 216.729 3.58594 216.859C3.91927 216.99 4.30208 217.052 4.73438 217.047C5.16146 217.052 5.53906 216.99 5.86719 216.859C6.20052 216.729 6.45833 216.544 6.64062 216.305C6.82292 216.06 6.91667 215.776 6.92188 215.453C6.91667 215.13 6.82292 214.846 6.64062 214.602C6.45833 214.352 6.20052 214.161 5.86719 214.031C5.53906 213.896 5.16146 213.828 4.73438 213.828ZM12.0625 222.969H2.73438V218.969H3.9375V221.938H12.0625V222.969ZM20.2388 209.547C21.27 209.547 22.1528 209.641 22.8872 209.828C23.6216 210.016 24.1815 210.289 24.5669 210.648C24.9523 211.008 25.145 211.443 25.145 211.953C25.145 212.469 24.9523 212.906 24.5669 213.266C24.1815 213.625 23.6216 213.898 22.8872 214.086C22.1528 214.273 21.27 214.37 20.2388 214.375C19.2075 214.37 18.3221 214.273 17.5825 214.086C16.8481 213.898 16.2856 213.625 15.895 213.266C15.5096 212.906 15.3169 212.469 15.3169 211.953C15.3169 211.443 15.5096 211.008 15.895 210.648C16.2856 210.289 16.8481 210.016 17.5825 209.828C18.3221 209.641 19.2075 209.547 20.2388 209.547ZM20.2388 210.484C19.0773 210.495 18.1789 210.628 17.5434 210.883C16.908 211.138 16.5929 211.495 16.5981 211.953C16.5929 212.427 16.9054 212.792 17.5356 213.047C18.171 213.297 19.0721 213.427 20.2388 213.438C21.4002 213.427 22.2986 213.297 22.9341 213.047C23.5747 212.792 23.895 212.427 23.895 211.953C23.895 211.495 23.5721 211.138 22.9263 210.883C22.2856 210.628 21.3898 210.495 20.2388 210.484ZM26.5669 216.281H20.8325V217.594H24.9419V220.703H16.6919V222.141H25.3638V223.109H15.4731V219.797H23.7388V218.531H15.4419V217.594H19.6138V216.281H13.9106V215.297H26.5669V216.281ZM34.9619 211.188V211.375C34.9515 212.068 34.9254 212.708 34.8838 213.297C34.8421 213.885 34.7483 214.552 34.6025 215.297L33.3681 215.203C33.514 214.469 33.6103 213.818 33.6572 213.25C33.7093 212.682 33.7405 212.094 33.7509 211.484H28.04V210.453H34.9619V211.188ZM31.3838 216.516C33.1754 216.443 34.7015 216.318 35.9619 216.141L36.04 217.047C34.7431 217.271 33.3603 217.422 31.8916 217.5C30.428 217.573 28.8994 217.609 27.3056 217.609L27.1806 216.594H27.3525L30.165 216.555V213.531H31.3838V216.516ZM38.1494 213.906H40.1806V214.953H38.1494V219.828H36.8994V209.375H38.1494V213.906ZM38.6025 222.969H29.3213V218.891H30.5556V221.938H38.6025V222.969Z" fill="#191516"/>
<path d="M241.047 321.266H239.812V307.375H241.047V321.266ZM236.938 308.891C236.927 310.99 236.396 312.875 235.344 314.547C234.292 316.214 232.646 317.583 230.406 318.656L229.734 317.656C231.589 316.776 233.008 315.682 233.992 314.375C234.982 313.068 235.547 311.573 235.688 309.891H230.375V308.891H236.938ZM244.989 313.891C246.15 313.885 247.174 313.849 248.059 313.781C248.95 313.714 249.843 313.594 250.739 313.422L250.895 314.438C249.911 314.62 248.95 314.747 248.012 314.82C247.08 314.888 246.004 314.922 244.786 314.922H243.739V308.078H244.989V313.891ZM254.426 315.562H253.192V312.375H249.208V311.422H253.192V309.922H249.208V308.969H253.192V307.375H254.426V315.562ZM254.426 321.078H245.442V316.172H254.426V321.078ZM246.645 320.078H253.208V317.156H246.645V320.078ZM263.962 309.188V309.375C263.951 310.068 263.925 310.708 263.884 311.297C263.842 311.885 263.748 312.552 263.603 313.297L262.368 313.203C262.514 312.469 262.61 311.818 262.657 311.25C262.709 310.682 262.741 310.094 262.751 309.484H257.04V308.453H263.962V309.188ZM260.384 314.516C262.175 314.443 263.701 314.318 264.962 314.141L265.04 315.047C263.743 315.271 262.36 315.422 260.892 315.5C259.428 315.573 257.899 315.609 256.306 315.609L256.181 314.594H256.353L259.165 314.555V311.531H260.384V314.516ZM267.149 311.906H269.181V312.953H267.149V317.828H265.899V307.375H267.149V311.906ZM267.603 320.969H258.321V316.891H259.556V319.938H267.603V320.969Z" fill="#191516"/>
<path d="M316.344 263.297H318.562V264.328H316.344V271.266H315.109V257.375H316.344V263.297ZM305.391 267.562C307.026 267.562 308.302 267.547 309.219 267.516V265.977C308.682 265.914 308.211 265.773 307.805 265.555C307.404 265.331 307.094 265.042 306.875 264.688C306.661 264.328 306.557 263.922 306.562 263.469C306.557 262.953 306.69 262.503 306.961 262.117C307.237 261.727 307.622 261.424 308.117 261.211C308.617 260.997 309.193 260.891 309.844 260.891C310.484 260.891 311.052 260.997 311.547 261.211C312.047 261.424 312.435 261.727 312.711 262.117C312.992 262.503 313.135 262.953 313.141 263.469C313.135 263.922 313.021 264.328 312.797 264.688C312.573 265.042 312.258 265.331 311.852 265.555C311.451 265.779 310.984 265.922 310.453 265.984V267.469C311.932 267.396 313.203 267.281 314.266 267.125L314.344 268.062C313 268.292 311.62 268.44 310.203 268.508C308.786 268.576 307.25 268.609 305.594 268.609L305.391 267.562ZM314.016 260.078H305.641V259.078H309.219V257.406H310.453V259.078H314.016V260.078ZM309.844 261.844C309.422 261.844 309.049 261.911 308.727 262.047C308.404 262.182 308.151 262.375 307.969 262.625C307.792 262.87 307.703 263.151 307.703 263.469C307.703 263.786 307.792 264.068 307.969 264.312C308.146 264.552 308.396 264.737 308.719 264.867C309.047 264.992 309.422 265.052 309.844 265.047C310.26 265.052 310.63 264.992 310.953 264.867C311.276 264.737 311.526 264.552 311.703 264.312C311.88 264.068 311.969 263.786 311.969 263.469C311.969 263.151 311.88 262.87 311.703 262.625C311.526 262.375 311.276 262.182 310.953 262.047C310.63 261.911 310.26 261.844 309.844 261.844ZM330.129 264.891H325.833V268.484H331.629V269.516H318.911V268.484H324.629V264.891H320.536V258.516H329.989V259.516H321.77V263.891H330.129V264.891ZM339.962 259.188V259.375C339.951 260.068 339.925 260.708 339.884 261.297C339.842 261.885 339.748 262.552 339.603 263.297L338.368 263.203C338.514 262.469 338.61 261.818 338.657 261.25C338.709 260.682 338.741 260.094 338.751 259.484H333.04V258.453H339.962V259.188ZM336.384 264.516C338.175 264.443 339.701 264.318 340.962 264.141L341.04 265.047C339.743 265.271 338.36 265.422 336.892 265.5C335.428 265.573 333.899 265.609 332.306 265.609L332.181 264.594H332.353L335.165 264.555V261.531H336.384V264.516ZM343.149 261.906H345.181V262.953H343.149V267.828H341.899V257.375H343.149V261.906ZM343.603 270.969H334.321V266.891H335.556V269.938H343.603V270.969Z" fill="#191516"/>
<path d="M366.016 396.297H364.781V382.375H366.016V396.297ZM356.594 387.234H360.734V383.562H361.938V392.938H355.375V383.562H356.594V387.234ZM360.734 391.906V388.219H356.594V391.906H360.734ZM374.895 392.734H368.489V383.781H374.895V392.734ZM369.676 391.734H373.676V384.766H369.676V391.734ZM378.661 387.922H380.989V388.984H378.661V396.266H377.442V382.375H378.661V387.922ZM388.962 384.188V384.375C388.951 385.068 388.925 385.708 388.884 386.297C388.842 386.885 388.748 387.552 388.603 388.297L387.368 388.203C387.514 387.469 387.61 386.818 387.657 386.25C387.709 385.682 387.741 385.094 387.751 384.484H382.04V383.453H388.962V384.188ZM385.384 389.516C387.175 389.443 388.701 389.318 389.962 389.141L390.04 390.047C388.743 390.271 387.36 390.422 385.892 390.5C384.428 390.573 382.899 390.609 381.306 390.609L381.181 389.594H381.353L384.165 389.555V386.531H385.384V389.516ZM392.149 386.906H394.181V387.953H392.149V392.828H390.899V382.375H392.149V386.906ZM392.603 395.969H383.321V391.891H384.556V394.938H392.603V395.969Z" fill="#191516"/>
<path d="M490.297 449.266C490.297 449.828 490.44 450.365 490.727 450.875C491.018 451.38 491.424 451.826 491.945 452.211C492.471 452.596 493.073 452.891 493.75 453.094L493.172 454.062C492.37 453.812 491.669 453.438 491.07 452.938C490.471 452.438 490.018 451.854 489.711 451.188C489.414 451.922 488.956 452.562 488.336 453.109C487.721 453.651 487 454.057 486.172 454.328L485.562 453.359C486.25 453.151 486.859 452.844 487.391 452.438C487.927 452.026 488.344 451.547 488.641 451C488.943 450.453 489.094 449.875 489.094 449.266V449.016H485.953V448.031H489.094V446.312H490.328V448.031H493.438V449.016H490.297V449.266ZM496.422 449.906H498.516V450.938H496.422V454.609H495.203V446.375H496.422V449.906ZM496.422 460.078H487.656V455.25H496.422V460.078ZM488.859 459.078H495.203V456.219H488.859V459.078ZM510.364 454.453H509.161V446.375H510.364V454.453ZM510.723 456.406H506.598C506.619 456.833 506.848 457.255 507.286 457.672C507.723 458.083 508.291 458.438 508.989 458.734C509.692 459.026 510.431 459.219 511.208 459.312L510.754 460.266C510.062 460.167 509.4 459.997 508.77 459.758C508.14 459.518 507.58 459.224 507.09 458.875C506.606 458.521 506.228 458.133 505.958 457.711C505.687 458.138 505.301 458.529 504.801 458.883C504.306 459.237 503.736 459.531 503.09 459.766C502.45 460.005 501.78 460.172 501.083 460.266L500.645 459.328C501.426 459.245 502.174 459.057 502.887 458.766C503.601 458.469 504.181 458.112 504.629 457.695C505.077 457.279 505.312 456.849 505.333 456.406H501.223V455.438H505.348V454.094H506.567V455.438H510.723V456.406ZM500.864 449.125H504.958V446.969H506.176V453.172H499.645V446.969H500.864V449.125ZM504.958 452.188V450.078H500.864V452.188H504.958ZM519.962 448.188V448.375C519.951 449.068 519.925 449.708 519.884 450.297C519.842 450.885 519.748 451.552 519.603 452.297L518.368 452.203C518.514 451.469 518.61 450.818 518.657 450.25C518.709 449.682 518.741 449.094 518.751 448.484H513.04V447.453H519.962V448.188ZM516.384 453.516C518.175 453.443 519.701 453.318 520.962 453.141L521.04 454.047C519.743 454.271 518.36 454.422 516.892 454.5C515.428 454.573 513.899 454.609 512.306 454.609L512.181 453.594H512.353L515.165 453.555V450.531H516.384V453.516ZM523.149 450.906H525.181V451.953H523.149V456.828H521.899V446.375H523.149V450.906ZM523.603 459.969H514.321V455.891H515.556V458.938H523.603V459.969Z" fill="#191516"/>
<path d="M480.719 368.297C480.719 369.062 480.836 369.818 481.07 370.562C481.31 371.302 481.654 371.969 482.102 372.562C482.549 373.156 483.073 373.615 483.672 373.938L482.938 374.906C482.281 374.526 481.714 374.003 481.234 373.336C480.755 372.664 480.388 371.901 480.133 371.047C479.872 371.974 479.49 372.805 478.984 373.539C478.479 374.273 477.885 374.844 477.203 375.25L476.406 374.344C477.036 373.984 477.589 373.49 478.062 372.859C478.536 372.224 478.898 371.516 479.148 370.734C479.404 369.953 479.531 369.167 479.531 368.375V365.688H480.719V368.297ZM488.469 378.266H487.281V370.984H485.375V377.562H484.188V364.672H485.375V369.969H487.281V364.375H488.469V378.266ZM501.364 372.453H500.161V364.375H501.364V372.453ZM501.723 374.406H497.598C497.619 374.833 497.848 375.255 498.286 375.672C498.723 376.083 499.291 376.438 499.989 376.734C500.692 377.026 501.431 377.219 502.208 377.312L501.754 378.266C501.062 378.167 500.4 377.997 499.77 377.758C499.14 377.518 498.58 377.224 498.09 376.875C497.606 376.521 497.228 376.133 496.958 375.711C496.687 376.138 496.301 376.529 495.801 376.883C495.306 377.237 494.736 377.531 494.09 377.766C493.45 378.005 492.78 378.172 492.083 378.266L491.645 377.328C492.426 377.245 493.174 377.057 493.887 376.766C494.601 376.469 495.181 376.112 495.629 375.695C496.077 375.279 496.312 374.849 496.333 374.406H492.223V373.438H496.348V372.094H497.567V373.438H501.723V374.406ZM491.864 367.125H495.958V364.969H497.176V371.172H490.645V364.969H491.864V367.125ZM495.958 370.188V368.078H491.864V370.188H495.958ZM510.962 366.188V366.375C510.951 367.068 510.925 367.708 510.884 368.297C510.842 368.885 510.748 369.552 510.603 370.297L509.368 370.203C509.514 369.469 509.61 368.818 509.657 368.25C509.709 367.682 509.741 367.094 509.751 366.484H504.04V365.453H510.962V366.188ZM507.384 371.516C509.175 371.443 510.701 371.318 511.962 371.141L512.04 372.047C510.743 372.271 509.36 372.422 507.892 372.5C506.428 372.573 504.899 372.609 503.306 372.609L503.181 371.594H503.353L506.165 371.555V368.531H507.384V371.516ZM514.149 368.906H516.181V369.953H514.149V374.828H512.899V364.375H514.149V368.906ZM514.603 377.969H505.321V373.891H506.556V376.938H514.603V377.969Z" fill="#191516"/>
<path d="M315.891 508.719C316.891 508.714 317.758 508.818 318.492 509.031C319.232 509.24 319.799 509.547 320.195 509.953C320.596 510.359 320.797 510.844 320.797 511.406C320.797 511.922 320.622 512.372 320.273 512.758C319.93 513.143 319.435 513.448 318.789 513.672C318.148 513.891 317.385 514.021 316.5 514.062V515.453H322.219V516.453H309.562V515.453H315.281V514.062C314.396 514.021 313.628 513.891 312.977 513.672C312.331 513.448 311.833 513.143 311.484 512.758C311.141 512.372 310.969 511.922 310.969 511.406C310.969 510.844 311.167 510.359 311.562 509.953C311.964 509.547 312.534 509.24 313.273 509.031C314.018 508.818 314.891 508.714 315.891 508.719ZM315.891 509.703C315.146 509.703 314.497 509.771 313.945 509.906C313.393 510.042 312.969 510.24 312.672 510.5C312.375 510.755 312.229 511.057 312.234 511.406C312.229 511.75 312.375 512.049 312.672 512.305C312.969 512.56 313.393 512.758 313.945 512.898C314.497 513.034 315.146 513.104 315.891 513.109C316.625 513.104 317.268 513.034 317.82 512.898C318.372 512.758 318.797 512.56 319.094 512.305C319.396 512.049 319.547 511.75 319.547 511.406C319.547 511.057 319.396 510.755 319.094 510.5C318.797 510.24 318.372 510.042 317.82 509.906C317.268 509.771 316.625 509.703 315.891 509.703ZM320.656 522.266H319.422V518.781H310.969V517.781H320.656V522.266ZM327.458 509.391C328.181 509.391 328.825 509.529 329.387 509.805C329.955 510.081 330.398 510.466 330.715 510.961C331.033 511.456 331.192 512.021 331.192 512.656C331.192 513.292 331.033 513.857 330.715 514.352C330.398 514.846 329.955 515.232 329.387 515.508C328.825 515.784 328.181 515.922 327.458 515.922C326.734 515.922 326.085 515.784 325.512 515.508C324.944 515.232 324.499 514.846 324.176 514.352C323.859 513.857 323.702 513.292 323.708 512.656C323.702 512.021 323.859 511.456 324.176 510.961C324.499 510.466 324.944 510.081 325.512 509.805C326.085 509.529 326.734 509.391 327.458 509.391ZM327.458 510.469C326.968 510.469 326.528 510.562 326.137 510.75C325.752 510.932 325.45 511.19 325.231 511.523C325.012 511.852 324.905 512.229 324.911 512.656C324.905 513.083 325.012 513.464 325.231 513.797C325.45 514.125 325.752 514.383 326.137 514.57C326.528 514.753 326.968 514.844 327.458 514.844C327.942 514.844 328.377 514.753 328.762 514.57C329.148 514.383 329.447 514.125 329.661 513.797C329.879 513.464 329.989 513.083 329.989 512.656C329.989 512.229 329.879 511.852 329.661 511.523C329.447 511.19 329.148 510.932 328.762 510.75C328.377 510.562 327.942 510.469 327.458 510.469ZM334.301 522.297H333.083V508.375H334.301V522.297ZM322.989 518.188C324.791 518.188 326.429 518.159 327.903 518.102C329.382 518.044 330.801 517.917 332.161 517.719L332.254 518.625C330.859 518.885 329.434 519.052 327.981 519.125C326.533 519.198 324.926 519.234 323.161 519.234L322.989 518.188ZM343.962 510.188V510.375C343.951 511.068 343.925 511.708 343.884 512.297C343.842 512.885 343.748 513.552 343.603 514.297L342.368 514.203C342.514 513.469 342.61 512.818 342.657 512.25C342.709 511.682 342.741 511.094 342.751 510.484H337.04V509.453H343.962V510.188ZM340.384 515.516C342.175 515.443 343.701 515.318 344.962 515.141L345.04 516.047C343.743 516.271 342.36 516.422 340.892 516.5C339.428 516.573 337.899 516.609 336.306 516.609L336.181 515.594H336.353L339.165 515.555V512.531H340.384V515.516ZM347.149 512.906H349.181V513.953H347.149V518.828H345.899V508.375H347.149V512.906ZM347.603 521.969H338.321V517.891H339.556V520.938H347.603V521.969Z" fill="#191516"/>
<path d="M271.062 15H269.641V5.15625H269.578L266.828 6.98438V5.5625L269.641 3.6875H271.062V15ZM285.098 5.45312H273.723V4.4375H278.817V2.60938H280.02V4.4375H285.098V5.45312ZM285.817 14.6406H273.098V13.625H278.817V11.6719C277.994 11.6302 277.286 11.4974 276.692 11.2734C276.098 11.0495 275.642 10.7474 275.325 10.3672C275.012 9.98177 274.859 9.53125 274.864 9.01562C274.859 8.46875 275.038 8 275.403 7.60938C275.773 7.21354 276.301 6.91406 276.989 6.71094C277.676 6.5026 278.489 6.40104 279.426 6.40625C280.353 6.40104 281.161 6.5026 281.848 6.71094C282.536 6.91406 283.064 7.21354 283.434 7.60938C283.804 8 283.989 8.46875 283.989 9.01562C283.989 9.53125 283.827 9.98177 283.504 10.3672C283.187 10.7474 282.731 11.0495 282.137 11.2734C281.543 11.4974 280.838 11.6302 280.02 11.6719V13.625H285.817V14.6406ZM279.426 7.375C278.739 7.375 278.142 7.4401 277.637 7.57031C277.137 7.70052 276.754 7.89062 276.489 8.14062C276.223 8.38542 276.093 8.67708 276.098 9.01562C276.093 9.54167 276.382 9.95052 276.965 10.2422C277.554 10.5286 278.374 10.6771 279.426 10.6875C280.463 10.6771 281.273 10.5286 281.856 10.2422C282.444 9.95052 282.739 9.54167 282.739 9.01562C282.739 8.67708 282.606 8.38542 282.34 8.14062C282.075 7.89062 281.692 7.70052 281.192 7.57031C280.692 7.4401 280.103 7.375 279.426 7.375ZM291.196 5C291.196 5.64062 291.339 6.26042 291.626 6.85938C291.918 7.45312 292.324 7.98177 292.845 8.44531C293.366 8.90365 293.962 9.25521 294.634 9.5L293.946 10.4531C293.186 10.151 292.514 9.71094 291.931 9.13281C291.353 8.54948 290.912 7.88021 290.61 7.125C290.319 7.96354 289.868 8.70312 289.259 9.34375C288.649 9.98438 287.936 10.4688 287.118 10.7969L286.462 9.79688C287.149 9.54167 287.759 9.16927 288.29 8.67969C288.821 8.1901 289.235 7.6224 289.532 6.97656C289.834 6.33073 289.988 5.65625 289.993 4.95312V3.23438H291.196V5ZM297.962 12.7969H296.728V6.6875H293.634V5.65625H296.728V2.39062H297.962V12.7969ZM298.274 15.9688H288.978V11.6094H290.212V14.9375H298.274V15.9688ZM311.033 4V4.15625C311.023 4.80208 310.994 5.39583 310.947 5.9375C310.906 6.47917 310.809 7.08854 310.658 7.76562L309.439 7.65625C309.585 6.99479 309.682 6.39844 309.728 5.86719C309.775 5.33594 309.799 4.80729 309.799 4.28125H304.111V3.25H311.033V4ZM307.455 8.99219C309.169 8.92969 310.695 8.8125 312.033 8.64062L312.111 9.54688C309.851 9.91146 306.939 10.0938 303.377 10.0938L303.252 9.0625C304.299 9.0625 305.294 9.05208 306.236 9.03125V6.26562H307.455V8.99219ZM314.221 6.1875H316.252V7.21875H314.221V11.0625H312.971V2.375H314.221V6.1875ZM309.705 11.2344C310.658 11.2344 311.481 11.3333 312.174 11.5312C312.872 11.724 313.406 12.0078 313.775 12.3828C314.145 12.7526 314.33 13.1927 314.33 13.7031C314.33 14.2344 314.145 14.6875 313.775 15.0625C313.406 15.4427 312.874 15.7292 312.182 15.9219C311.489 16.1198 310.663 16.2188 309.705 16.2188C308.747 16.2188 307.921 16.1198 307.228 15.9219C306.536 15.7292 306.004 15.4427 305.635 15.0625C305.265 14.6875 305.08 14.2344 305.08 13.7031C305.08 13.1927 305.265 12.7526 305.635 12.3828C306.004 12.0078 306.536 11.724 307.228 11.5312C307.926 11.3333 308.752 11.2344 309.705 11.2344ZM309.705 12.1875C309.012 12.1875 308.408 12.25 307.893 12.375C307.382 12.4948 306.989 12.6693 306.713 12.8984C306.442 13.1276 306.309 13.3958 306.314 13.7031C306.309 14.026 306.442 14.3047 306.713 14.5391C306.989 14.7682 307.382 14.9427 307.893 15.0625C308.403 15.1875 309.007 15.25 309.705 15.25C310.403 15.25 311.004 15.1875 311.51 15.0625C312.02 14.9427 312.411 14.7682 312.682 14.5391C312.958 14.3047 313.096 14.026 313.096 13.7031C313.096 13.3906 312.958 13.1224 312.682 12.8984C312.411 12.6693 312.02 12.4948 311.51 12.375C310.999 12.25 310.398 12.1875 309.705 12.1875ZM329.381 10.4531H323.741V13.2969H322.506V10.4531H316.662V9.4375H329.381V10.4531ZM327.959 15.9688H318.303V11.9062H319.537V14.9219H327.959V15.9688ZM323.006 2.73438C323.991 2.73958 324.85 2.85677 325.584 3.08594C326.324 3.3099 326.894 3.63281 327.295 4.05469C327.696 4.47135 327.897 4.96354 327.897 5.53125C327.897 6.09896 327.696 6.59115 327.295 7.00781C326.894 7.42448 326.324 7.74479 325.584 7.96875C324.85 8.1875 323.991 8.29688 323.006 8.29688C322.022 8.29688 321.16 8.1875 320.42 7.96875C319.681 7.74479 319.108 7.42448 318.702 7.00781C318.301 6.59115 318.1 6.09896 318.1 5.53125C318.1 4.96354 318.301 4.47135 318.702 4.05469C319.108 3.63281 319.681 3.3099 320.42 3.08594C321.16 2.85677 322.022 2.73958 323.006 2.73438ZM323.006 3.73438C322.293 3.73438 321.662 3.80729 321.116 3.95312C320.569 4.09896 320.147 4.30729 319.85 4.57812C319.553 4.84896 319.407 5.16667 319.412 5.53125C319.407 5.88542 319.553 6.19531 319.85 6.46094C320.152 6.72656 320.574 6.93229 321.116 7.07812C321.662 7.22396 322.293 7.29688 323.006 7.29688C323.72 7.29688 324.347 7.22656 324.889 7.08594C325.431 6.9401 325.85 6.73438 326.147 6.46875C326.449 6.19792 326.6 5.88542 326.6 5.53125C326.6 5.16667 326.452 4.84896 326.155 4.57812C325.858 4.30729 325.436 4.09896 324.889 3.95312C324.347 3.80729 323.72 3.73438 323.006 3.73438ZM341.901 16.2656H340.729V8.98438H338.682V15.5469H337.557V2.6875H338.682V7.96875H340.729V2.375H341.901V16.2656ZM335.745 5.09375H331.761V11.7812C332.787 11.776 333.656 11.7474 334.37 11.6953C335.089 11.638 335.813 11.5365 336.542 11.3906L336.651 12.4219C335.86 12.5833 335.078 12.6927 334.307 12.75C333.542 12.8021 332.584 12.8281 331.432 12.8281H330.542V4.07812H335.745V5.09375ZM354.89 16.2656H353.656V12.3125H345.546V11.3281H354.89V16.2656ZM354.89 10.5625H353.656V8.5625H350.07C349.747 8.96354 349.335 9.27344 348.835 9.49219C348.335 9.70573 347.781 9.8125 347.171 9.8125C346.489 9.8125 345.874 9.67188 345.327 9.39062C344.786 9.10417 344.361 8.70833 344.054 8.20312C343.747 7.69792 343.593 7.125 343.593 6.48438C343.593 5.84896 343.749 5.28125 344.062 4.78125C344.374 4.27604 344.804 3.88281 345.351 3.60156C345.898 3.3151 346.515 3.17188 347.202 3.17188C347.796 3.17188 348.341 3.28125 348.835 3.5C349.33 3.71875 349.742 4.02604 350.07 4.42188H353.656V2.375H354.89V10.5625ZM347.202 4.21875C346.734 4.21875 346.314 4.31771 345.945 4.51562C345.575 4.70833 345.286 4.97656 345.077 5.32031C344.869 5.66406 344.765 6.05208 344.765 6.48438C344.765 6.93229 344.869 7.33073 345.077 7.67969C345.286 8.02865 345.575 8.29948 345.945 8.49219C346.314 8.6849 346.734 8.78125 347.202 8.78125C347.65 8.78125 348.057 8.6849 348.421 8.49219C348.791 8.29427 349.08 8.02083 349.288 7.67188C349.502 7.32292 349.609 6.92708 349.609 6.48438C349.609 6.05208 349.502 5.66406 349.288 5.32031C349.08 4.97656 348.791 4.70833 348.421 4.51562C348.057 4.31771 347.65 4.21875 347.202 4.21875ZM353.656 7.54688V5.4375H350.624C350.739 5.78125 350.796 6.13021 350.796 6.48438C350.796 6.84896 350.739 7.20312 350.624 7.54688H353.656Z" fill="#191516"/>
</svg>
