<svg width="22" height="19" viewBox="0 0 22 19" fill="none" xmlns="http://www.w3.org/2000/svg">
<path d="M15.4014 10.5781C15.6607 10.5781 15.9095 10.4872 16.0929 10.3252C16.2762 10.1633 16.3793 9.94363 16.3793 9.71461C16.3793 9.48559 16.2762 9.26594 16.0929 9.104C15.9095 8.94205 15.6607 8.85107 15.4014 8.85107C15.142 8.85107 14.8933 8.94205 14.7099 9.104C14.5265 9.26594 14.4235 9.48559 14.4235 9.71461C14.4235 9.94363 14.5265 10.1633 14.7099 10.3252C14.8933 10.4872 15.142 10.5781 15.4014 10.5781ZM15.4014 14.0323C15.6607 14.0323 15.9095 13.9413 16.0929 13.7794C16.2762 13.6174 16.3793 13.3978 16.3793 13.1688C16.3793 12.9397 16.2762 12.7201 16.0929 12.5581C15.9095 12.3962 15.6607 12.3052 15.4014 12.3052C15.142 12.3052 14.8933 12.3962 14.7099 12.5581C14.5265 12.7201 14.4235 12.9397 14.4235 13.1688C14.4235 13.3978 14.5265 13.6174 14.7099 13.7794C14.8933 13.9413 15.142 14.0323 15.4014 14.0323ZM11.4898 9.71461C11.4898 9.94363 11.3868 10.1633 11.2034 10.3252C11.02 10.4872 10.7713 10.5781 10.5119 10.5781C10.2525 10.5781 10.0038 10.4872 9.82042 10.3252C9.63703 10.1633 9.53401 9.94363 9.53401 9.71461C9.53401 9.48559 9.63703 9.26594 9.82042 9.104C10.0038 8.94205 10.2525 8.85107 10.5119 8.85107C10.7713 8.85107 11.02 8.94205 11.2034 9.104C11.3868 9.26594 11.4898 9.48559 11.4898 9.71461ZM11.4898 13.1688C11.4898 13.3978 11.3868 13.6174 11.2034 13.7794C11.02 13.9413 10.7713 14.0323 10.5119 14.0323C10.2525 14.0323 10.0038 13.9413 9.82042 13.7794C9.63703 13.6174 9.53401 13.3978 9.53401 13.1688C9.53401 12.9397 9.63703 12.7201 9.82042 12.5581C10.0038 12.3962 10.2525 12.3052 10.5119 12.3052C10.7713 12.3052 11.02 12.3962 11.2034 12.5581C11.3868 12.7201 11.4898 12.9397 11.4898 13.1688ZM5.62243 10.5781C5.88178 10.5781 6.13051 10.4872 6.3139 10.3252C6.49729 10.1633 6.60032 9.94363 6.60032 9.71461C6.60032 9.48559 6.49729 9.26594 6.3139 9.104C6.13051 8.94205 5.88178 8.85107 5.62243 8.85107C5.36307 8.85107 5.11434 8.94205 4.93095 9.104C4.74756 9.26594 4.64453 9.48559 4.64453 9.71461C4.64453 9.94363 4.74756 10.1633 4.93095 10.3252C5.11434 10.4872 5.36307 10.5781 5.62243 10.5781ZM5.62243 14.0323C5.88178 14.0323 6.13051 13.9413 6.3139 13.7794C6.49729 13.6174 6.60032 13.3978 6.60032 13.1688C6.60032 12.9397 6.49729 12.7201 6.3139 12.5581C6.13051 12.3962 5.88178 12.3052 5.62243 12.3052C5.36307 12.3052 5.11434 12.3962 4.93095 12.5581C4.74756 12.7201 4.64453 12.9397 4.64453 13.1688C4.64453 13.3978 4.74756 13.6174 4.93095 13.7794C5.11434 13.9413 5.36307 14.0323 5.62243 14.0323Z" fill="#C6C6C6"/>
<path fill-rule="evenodd" clip-rule="evenodd" d="M5.62192 0C5.81643 0 6.00298 0.0682346 6.14052 0.189693C6.27807 0.311151 6.35534 0.475884 6.35534 0.647653V1.30653C7.00271 1.29531 7.71559 1.29531 8.49986 1.29531H12.5219C13.3072 1.29531 14.0201 1.29531 14.6674 1.30653V0.647653C14.6674 0.475884 14.7447 0.311151 14.8823 0.189693C15.0198 0.0682346 15.2064 0 15.4009 0C15.5954 0 15.7819 0.0682346 15.9195 0.189693C16.057 0.311151 16.1343 0.475884 16.1343 0.647653V1.3618C16.3885 1.37907 16.6291 1.40066 16.857 1.42743C18.003 1.56387 18.9311 1.85056 19.6635 2.49648C20.395 3.14327 20.7196 3.96277 20.8741 4.97483C21.0238 5.95927 21.0238 7.21571 21.0238 8.80289V10.6267C21.0238 12.2139 21.0238 13.4712 20.8741 14.4547C20.7196 15.4668 20.395 16.2863 19.6635 16.9331C18.9311 17.579 18.003 17.8657 16.857 18.0021C15.7422 18.1343 14.3193 18.1343 12.5219 18.1343H8.50182C6.70445 18.1343 5.28063 18.1343 4.16681 18.0021C3.02072 17.8657 2.09269 17.579 1.36025 16.9331C0.628786 16.2863 0.304125 15.4668 0.149618 14.4547C0 13.4703 0 12.2139 0 10.6267V8.80289C0 7.21571 0 5.9584 0.149618 4.97483C0.304125 3.96277 0.628786 3.14327 1.36025 2.49648C2.09269 1.85056 3.02072 1.56387 4.16681 1.42743C4.39466 1.40066 4.6362 1.37907 4.88947 1.3618V0.647653C4.88947 0.476034 4.96661 0.311432 5.10394 0.189998C5.24127 0.0685645 5.42757 0.000228825 5.62192 0ZM4.36043 2.7115C3.37765 2.82808 2.81047 3.04742 2.39682 3.4127C1.98317 3.77797 1.73479 4.27882 1.60277 5.14754C1.58028 5.29434 1.5617 5.44978 1.54605 5.61299H19.4767C19.4611 5.44892 19.4425 5.29434 19.42 5.14668C19.288 4.27882 19.0396 3.77797 18.626 3.4127C18.2123 3.04742 17.6451 2.82808 16.6614 2.7115C15.6571 2.59234 14.332 2.59061 12.4672 2.59061H8.5556C6.69076 2.59061 5.36669 2.59234 4.36043 2.7115ZM1.46586 8.85125C1.46586 8.11379 1.46586 7.47218 1.47858 6.90829H19.5442C19.5569 7.47218 19.5569 8.11379 19.5569 8.85125V10.5783C19.5569 12.2251 19.555 13.3952 19.42 14.2829C19.288 15.1508 19.0396 15.6516 18.626 16.0169C18.2123 16.3822 17.6451 16.6015 16.6614 16.7181C15.6571 16.8372 14.332 16.839 12.4672 16.839H8.5556C6.69076 16.839 5.36669 16.8372 4.36043 16.7181C3.37765 16.6015 2.81047 16.3822 2.39682 16.0169C1.98317 15.6516 1.73479 15.1508 1.60277 14.282C1.46782 13.3952 1.46586 12.2251 1.46586 10.5783V8.85125Z" fill="#C6C6C6"/>
</svg>
