<svg width="25" height="25" viewBox="0 0 25 25" fill="none" xmlns="http://www.w3.org/2000/svg">
<path d="M19.2708 5.2085H20.5229C21.774 5.2085 22.399 5.2085 22.726 5.6012C23.0521 5.99495 22.9167 6.58454 22.6448 7.76475L22.2385 9.53558C21.625 12.196 19.3854 14.1752 16.6667 14.5835M5.72917 5.2085H4.47709C3.22605 5.2085 2.60001 5.2085 2.27397 5.6012C1.94792 5.99495 2.08334 6.58454 2.35522 7.76475L2.76147 9.53558C3.37501 12.196 5.61459 14.1752 8.33334 14.5835M12.5 17.7085C10.7563 17.7085 9.23959 19.0262 8.45626 20.97C8.08126 21.8991 8.61876 22.9168 9.33126 22.9168H15.6677C16.3813 22.9168 16.9177 21.8991 16.5438 20.97C15.7604 19.0262 14.2438 17.7085 12.5 17.7085Z" stroke="#C6C6C6" stroke-width="1.5" stroke-linecap="round" stroke-linejoin="round"/>
<path d="M12.5 17.7085C15.6458 17.7085 18.2969 12.8522 19.0938 6.23975C19.3136 4.41266 19.424 3.49808 18.8406 2.79079C18.2573 2.0835 17.3146 2.0835 15.4302 2.0835H9.5698C7.68439 2.0835 6.74272 2.0835 6.15939 2.79079C5.57605 3.49808 5.68751 4.41266 5.90626 6.24079C6.70314 12.8522 9.35418 17.7085 12.5 17.7085Z" stroke="#C6C6C6" stroke-width="1.5" stroke-linecap="round" stroke-linejoin="round"/>
</svg>
