<svg width="22" height="22" viewBox="0 0 22 22" fill="none" xmlns="http://www.w3.org/2000/svg">
<path d="M17.25 8.5C19.3211 8.5 21 6.82107 21 4.75C21 2.67893 19.3211 1 17.25 1C15.1789 1 13.5 2.67893 13.5 4.75C13.5 6.82107 15.1789 8.5 17.25 8.5Z" stroke="#C6C6C6" stroke-width="1.5" stroke-linecap="round" stroke-linejoin="round"/>
<path d="M4.75 21C6.82107 21 8.5 19.3211 8.5 17.25C8.5 15.1789 6.82107 13.5 4.75 13.5C2.67893 13.5 1 15.1789 1 17.25C1 19.3211 2.67893 21 4.75 21Z" stroke="#C6C6C6" stroke-width="1.5" stroke-linecap="round" stroke-linejoin="round"/>
<path d="M13.5 13.5H21V19.75C21 20.0815 20.8683 20.3995 20.6339 20.6339C20.3995 20.8683 20.0815 21 19.75 21H14.75C14.4185 21 14.1005 20.8683 13.8661 20.6339C13.6317 20.3995 13.5 20.0815 13.5 19.75V13.5ZM1 1H8.5V7.25C8.5 7.58152 8.3683 7.89946 8.13388 8.13388C7.89946 8.3683 7.58152 8.5 7.25 8.5H2.25C1.91848 8.5 1.60054 8.3683 1.36612 8.13388C1.1317 7.89946 1 7.58152 1 7.25V1Z" stroke="#C6C6C6" stroke-width="1.5" stroke-linecap="round" stroke-linejoin="round"/>
</svg>
