<svg width="23" height="22" viewBox="0 0 23 22" fill="none" xmlns="http://www.w3.org/2000/svg">
<path d="M5.85538 5.39556L4.22211 3.74778M14.565 5.39556L16.1983 3.74778M4.221 15.8367L5.85427 14.1878M10.2096 3.19889V1M3.67658 9.79222H1.5M16.916 16.3733L21.1536 14.7C21.2559 14.6591 21.3435 14.5885 21.4053 14.4973C21.467 14.4061 21.5 14.2985 21.5 14.1883C21.5 14.0782 21.467 13.9706 21.4053 13.8794C21.3435 13.7882 21.2559 13.7176 21.1536 13.6767L10.9707 9.66C10.8716 9.62163 10.7634 9.61301 10.6595 9.63517C10.5555 9.65733 10.4603 9.70933 10.3854 9.78479C10.3105 9.86025 10.2593 9.9559 10.2379 10.06C10.2166 10.1642 10.2261 10.2723 10.2652 10.3711L14.245 20.65C14.425 21.1167 15.0783 21.1167 15.2583 20.65L16.916 16.3733Z" stroke="#C6C6C6" stroke-width="1.5" stroke-linecap="round" stroke-linejoin="round"/>
</svg>
