<svg width="25" height="25" viewBox="0 0 25 25" fill="none" xmlns="http://www.w3.org/2000/svg">
<path d="M2.08333 12.4998C2.08333 8.57171 2.08333 6.60713 3.30416 5.38734C4.52395 4.1665 6.48854 4.1665 10.4167 4.1665H14.5833C18.5115 4.1665 20.476 4.1665 21.6958 5.38734C22.9167 6.60713 22.9167 8.57171 22.9167 12.4998V14.5832C22.9167 18.5113 22.9167 20.4759 21.6958 21.6957C20.476 22.9165 18.5115 22.9165 14.5833 22.9165H10.4167C6.48854 22.9165 4.52395 22.9165 3.30416 21.6957C2.08333 20.4759 2.08333 18.5113 2.08333 14.5832V12.4998Z" stroke="#5317AB" stroke-width="1.5"/>
<path d="M7.29166 4.1665V2.604M17.7083 4.1665V2.604M2.60416 9.37484H22.3958" stroke="#5317AB" stroke-width="1.5" stroke-linecap="round"/>
<path d="M18.75 17.7083C18.75 17.9846 18.6403 18.2496 18.4449 18.4449C18.2496 18.6403 17.9846 18.75 17.7083 18.75C17.4321 18.75 17.1671 18.6403 16.9718 18.4449C16.7764 18.2496 16.6667 17.9846 16.6667 17.7083C16.6667 17.4321 16.7764 17.1671 16.9718 16.9718C17.1671 16.7764 17.4321 16.6667 17.7083 16.6667C17.9846 16.6667 18.2496 16.7764 18.4449 16.9718C18.6403 17.1671 18.75 17.4321 18.75 17.7083ZM18.75 13.5417C18.75 13.8179 18.6403 14.0829 18.4449 14.2782C18.2496 14.4736 17.9846 14.5833 17.7083 14.5833C17.4321 14.5833 17.1671 14.4736 16.9718 14.2782C16.7764 14.0829 16.6667 13.8179 16.6667 13.5417C16.6667 13.2654 16.7764 13.0004 16.9718 12.8051C17.1671 12.6097 17.4321 12.5 17.7083 12.5C17.9846 12.5 18.2496 12.6097 18.4449 12.8051C18.6403 13.0004 18.75 13.2654 18.75 13.5417ZM13.5417 17.7083C13.5417 17.9846 13.4319 18.2496 13.2366 18.4449C13.0412 18.6403 12.7763 18.75 12.5 18.75C12.2237 18.75 11.9588 18.6403 11.7634 18.4449C11.5681 18.2496 11.4583 17.9846 11.4583 17.7083C11.4583 17.4321 11.5681 17.1671 11.7634 16.9718C11.9588 16.7764 12.2237 16.6667 12.5 16.6667C12.7763 16.6667 13.0412 16.7764 13.2366 16.9718C13.4319 17.1671 13.5417 17.4321 13.5417 17.7083ZM13.5417 13.5417C13.5417 13.8179 13.4319 14.0829 13.2366 14.2782C13.0412 14.4736 12.7763 14.5833 12.5 14.5833C12.2237 14.5833 11.9588 14.4736 11.7634 14.2782C11.5681 14.0829 11.4583 13.8179 11.4583 13.5417C11.4583 13.2654 11.5681 13.0004 11.7634 12.8051C11.9588 12.6097 12.2237 12.5 12.5 12.5C12.7763 12.5 13.0412 12.6097 13.2366 12.8051C13.4319 13.0004 13.5417 13.2654 13.5417 13.5417ZM8.33333 17.7083C8.33333 17.9846 8.22359 18.2496 8.02824 18.4449C7.83289 18.6403 7.56793 18.75 7.29167 18.75C7.0154 18.75 6.75045 18.6403 6.5551 18.4449C6.35975 18.2496 6.25 17.9846 6.25 17.7083C6.25 17.4321 6.35975 17.1671 6.5551 16.9718C6.75045 16.7764 7.0154 16.6667 7.29167 16.6667C7.56793 16.6667 7.83289 16.7764 8.02824 16.9718C8.22359 17.1671 8.33333 17.4321 8.33333 17.7083ZM8.33333 13.5417C8.33333 13.8179 8.22359 14.0829 8.02824 14.2782C7.83289 14.4736 7.56793 14.5833 7.29167 14.5833C7.0154 14.5833 6.75045 14.4736 6.5551 14.2782C6.35975 14.0829 6.25 13.8179 6.25 13.5417C6.25 13.2654 6.35975 13.0004 6.5551 12.8051C6.75045 12.6097 7.0154 12.5 7.29167 12.5C7.56793 12.5 7.83289 12.6097 8.02824 12.8051C8.22359 13.0004 8.33333 13.2654 8.33333 13.5417Z" fill="#5317AB"/>
</svg>
