<svg width="24" height="24" viewBox="0 0 24 24" fill="none" xmlns="http://www.w3.org/2000/svg">
<path d="M5.5 21.2393V7.5C5.5 6.39543 6.39543 5.5 7.5 5.5H20C21.1046 5.5 22 6.39543 22 7.5V18.1667C22 19.2712 21.1046 20.1667 20 20.1667H10.1565C9.88362 20.1667 9.61364 20.2225 9.36317 20.3307L6.19833 21.6983C5.86823 21.8409 5.5 21.5989 5.5 21.2393Z" stroke="#989898" stroke-width="1.5"/>
<path d="M9.16602 14.666H14.2077" stroke="#989898" stroke-width="1.5" stroke-linecap="round"/>
<path d="M9.16602 11H16.9577" stroke="#989898" stroke-width="1.5" stroke-linecap="round"/>
<path d="M18.5 5V4C18.5 2.89543 17.6046 2 16.5 2H4C2.89543 2 2 2.89543 2 4V17.7393C2 18.0989 2.36823 18.3409 2.69833 18.1983L5 17.2037" stroke="#989898" stroke-width="1.5"/>
</svg>
