<svg width="53" height="52" viewBox="0 0 53 52" fill="none" xmlns="http://www.w3.org/2000/svg">
<path d="M26.7222 52C41.0816 52 52.7222 40.3594 52.7222 26C52.7222 11.6406 41.0816 0 26.7222 0C12.3628 0 0.722168 11.6406 0.722168 26C0.722168 40.3594 12.3628 52 26.7222 52Z" fill="white"/>
<path d="M25.1466 13C25.2943 13.0438 25.4438 13.0818 25.5892 13.1324C26.7039 13.5203 27.3703 14.6848 27.1519 15.8588C26.9369 17.0162 25.8796 17.8768 24.7436 17.8187C23.5314 17.757 22.565 16.8239 22.4649 15.6194C22.365 14.4164 23.1474 13.3301 24.3097 13.056C24.3658 13.0427 24.4195 13.0188 24.4746 13C24.6986 13 24.9226 13 25.1466 13Z" fill="#C6C6C6"/>
<path d="M26.1308 21.63C26.1308 22.9179 26.1341 24.1626 26.1267 25.407C26.1257 25.5638 26.2083 25.592 26.3195 25.63C27.8514 26.1545 29.3849 26.6741 30.9113 27.2147C31.1806 27.3101 31.4507 27.4581 31.6668 27.6457C33.2203 28.9933 34.7612 30.3557 36.3031 31.7169C36.9383 32.2773 37.0149 33.1658 36.4893 33.7779C35.9724 34.3798 35.106 34.4277 34.477 33.8759C33.0352 32.6114 31.6 31.3388 30.1558 30.0767C30.0168 29.955 29.8458 29.8534 29.6724 29.7929C27.9234 29.184 26.1743 28.5748 24.4163 27.9941C24.0753 27.8815 23.6951 27.8917 23.2773 27.838C23.3405 28.0089 23.3738 28.1061 23.4119 28.2012C24.0353 29.7666 24.6531 31.3344 25.2875 32.8951C25.4756 33.3584 25.4854 33.7959 25.32 34.2701C24.7819 35.812 24.2685 37.3629 23.7409 38.9088C23.5141 39.5737 22.9793 39.958 22.3367 39.9346C21.7284 39.9124 21.1772 39.4882 21.0559 38.8676C21 38.582 21.0216 38.2485 21.1106 37.971C21.5484 36.607 22.0177 35.2534 22.4836 33.899C22.5412 33.7312 22.5423 33.5947 22.4698 33.428C21.7007 31.659 20.9391 29.887 20.1829 28.1126C20.1201 27.9657 20.0838 27.7947 20.0833 27.6347C20.0784 25.5133 20.082 23.3916 20.0833 21.2701C20.0833 21.1657 20.0833 21.0614 20.0833 20.9301C19.9804 20.9575 19.8987 20.9739 19.8203 21.001C19.1693 21.2264 18.5162 21.4468 17.8706 21.6873C17.7607 21.7282 17.6414 21.8413 17.5971 21.9505C17.1371 23.0826 16.6978 24.2235 16.24 25.3567C15.8885 26.227 14.8401 26.4263 14.2664 25.7356C13.9705 25.3794 13.8901 24.9622 14.0585 24.5287C14.6023 23.1289 15.1591 21.7345 15.7147 20.3394C15.8447 20.0132 16.0828 19.7928 16.41 19.6787C17.9394 19.1463 19.4586 18.5799 21.0049 18.1039C21.5758 17.928 22.21 17.9611 22.8162 17.9137C22.8956 17.9074 22.987 17.9817 23.0638 18.033C23.8144 18.5348 24.63 18.7008 25.5046 18.4963C25.7096 18.4483 25.8351 18.4999 25.8911 18.6755C26.0007 19.0184 26.2685 19.1341 26.5642 19.2469C27.2324 19.502 27.8957 19.7701 28.556 20.0453C28.7336 20.1193 28.8611 20.1114 29.0229 19.9895C29.9087 19.3222 30.8056 18.6706 31.698 18.0121C32.0413 17.7589 32.4136 17.67 32.8188 17.8206C33.2405 17.9772 33.5037 18.2844 33.5764 18.7383C33.6542 19.2243 33.4865 19.6198 33.0986 19.9095C32.4463 20.3968 31.7886 20.877 31.133 21.3598C30.6727 21.6988 30.2085 22.0328 29.7526 22.3775C29.3435 22.6868 28.9185 22.7457 28.4421 22.545C27.7588 22.2574 27.0665 21.9924 26.3776 21.7186C26.3072 21.6907 26.2352 21.6672 26.1305 21.63H26.1308Z" fill="#C6C6C6"/>
<path d="M22.8636 17.9209L25.7929 18.4782L25.6441 19.0994L22.7253 18.3805L22.8636 17.9209Z" fill="#C6C6C6"/>
<path d="M39.6697 27.7051C40.1165 27.7074 40.5624 27.723 41.0061 27.7785C41.1052 27.791 41.2032 27.8098 41.3021 27.8249C41.3264 27.8286 41.3361 27.8395 41.3405 27.8661C41.383 28.1269 41.383 28.3872 41.3407 28.648C41.3361 28.6761 41.3264 28.6884 41.2997 28.6918C41.0791 28.7194 40.8594 28.7548 40.638 28.7739C40.1625 28.8145 39.6856 28.8189 39.2089 28.803C38.8185 28.79 38.4293 28.7624 38.044 28.6933C38.0136 28.6879 37.999 28.679 37.9934 28.6436C37.9529 28.3856 37.9524 28.1285 37.9939 27.8708C37.9987 27.8411 38.0085 27.828 38.0374 27.8241C38.2174 27.8004 38.3963 27.7658 38.5771 27.753C38.9406 27.7272 39.3052 27.7129 39.6692 27.6938C39.6692 27.6975 39.6695 27.7014 39.6697 27.7051Z" fill="#C6C6C6"/>
<path d="M38.0293 27.6582C38.0728 27.5248 38.1094 27.396 38.1565 27.2718C38.199 27.1602 38.2538 27.0534 38.3014 26.9437C38.3158 26.9106 38.3391 26.8966 38.3721 26.888C38.6074 26.8257 38.8475 26.7965 39.0889 26.7788C39.4243 26.754 39.7605 26.7517 40.0963 26.7691C40.3882 26.7843 40.6785 26.8127 40.9627 26.8877C40.9957 26.8966 41.017 26.9119 41.0334 26.9437C41.1437 27.1587 41.2287 27.3835 41.2886 27.6183C41.2917 27.63 41.2932 27.6423 41.2958 27.6563C40.21 27.5081 39.1268 27.5078 38.0291 27.6579L38.0293 27.6582Z" fill="#C6C6C6"/>
<path d="M41.3004 28.8579C41.2751 28.9444 41.2569 29.0291 41.2259 29.1086C41.1645 29.2654 41.0956 29.4194 41.0306 29.575C41.018 29.6049 40.9975 29.6208 40.9668 29.6258C40.7641 29.6596 40.5626 29.7032 40.3588 29.7253C39.9866 29.7659 39.6123 29.7641 39.2385 29.7454C38.9466 29.7305 38.6563 29.7013 38.3721 29.6271C38.3389 29.6185 38.3176 29.6034 38.3012 29.5716C38.1901 29.3553 38.1049 29.1289 38.0444 28.8928C38.0419 28.8827 38.0411 28.8717 38.0388 28.8584C39.1241 29.0067 40.207 29.0072 41.3004 28.8579Z" fill="#C6C6C6"/>
<path d="M38.1503 26.687C38.1625 26.73 38.1766 26.7662 38.182 26.804C38.1848 26.8241 38.1759 26.8486 38.1659 26.8676C37.9966 27.1875 37.8861 27.5276 37.8333 27.8869C37.7752 28.2834 37.8141 28.6727 37.9257 29.0555C37.9838 29.2551 38.0578 29.4484 38.1577 29.6303C38.183 29.6764 38.1889 29.717 38.17 29.7644C38.162 29.7842 38.1569 29.8051 38.15 29.8265C37.3136 29.0456 37.2478 27.5607 38.15 26.6875L38.1503 26.687Z" fill="#C6C6C6"/>
<path d="M41.1875 26.688C42.0472 27.5348 42.0582 28.966 41.1864 29.8298C41.1644 29.7594 41.1378 29.7021 41.1793 29.6226C41.4084 29.1833 41.5346 28.7143 41.5267 28.2146C41.5193 27.7542 41.3969 27.3222 41.1926 26.9134C41.1406 26.8094 41.1396 26.8029 41.1877 26.688H41.1875Z" fill="#C6C6C6"/>
<path d="M40.1013 26.0947C40.0676 26.2664 40.035 26.4337 40.0018 26.6035H39.3594C39.3261 26.4352 39.2926 26.264 39.2583 26.09C39.5409 26.0345 39.8192 26.0355 40.1013 26.0947Z" fill="#C6C6C6"/>
<path d="M40.002 29.9131C40.0353 30.0832 40.068 30.2502 40.1018 30.422C39.8205 30.4811 39.5425 30.4819 39.2588 30.4266C39.2923 30.2549 39.3256 30.0853 39.3594 29.9131H40.0022H40.002Z" fill="#C6C6C6"/>
<path d="M38.3282 29.7871C38.4769 29.8132 38.6206 29.8426 38.7655 29.8624C38.9088 29.882 39.0537 29.8919 39.2022 29.9064C39.1707 30.0669 39.1398 30.2261 39.107 30.3929C39.0512 30.3749 38.9982 30.3593 38.9465 30.3408C38.7102 30.2569 38.4959 30.1329 38.3011 29.9734C38.2788 29.9552 38.2721 29.9403 38.2844 29.9119C38.3021 29.8715 38.3141 29.8285 38.3282 29.7874V29.7871Z" fill="#C6C6C6"/>
<path d="M39.1088 26.1327C39.1398 26.2903 39.1708 26.4484 39.2028 26.6126C38.9089 26.6329 38.6175 26.6603 38.3313 26.7356C38.3129 26.6837 38.2944 26.6353 38.2791 26.586C38.2763 26.5774 38.2816 26.5613 38.2886 26.5553C38.5284 26.3539 38.7973 26.2087 39.0988 26.128C39.0999 26.1277 39.1017 26.129 39.1088 26.1327Z" fill="#C6C6C6"/>
<path d="M41.0038 26.735C40.7268 26.6626 40.4447 26.6334 40.1577 26.6141C40.19 26.4505 40.2209 26.2926 40.2524 26.1318C40.4022 26.1733 40.5445 26.2264 40.6749 26.3041C40.7985 26.3778 40.9147 26.464 41.0348 26.5443C41.0578 26.5597 41.0622 26.5753 41.0509 26.6019C41.0333 26.6441 41.0202 26.6881 41.0038 26.735Z" fill="#C6C6C6"/>
<path d="M41.0033 29.7808C41.0218 29.8321 41.0397 29.8793 41.0545 29.9272C41.0576 29.9371 41.0527 29.9556 41.045 29.9621C40.8111 30.1583 40.5486 30.2995 40.2524 30.3845C40.2207 30.2234 40.1897 30.0658 40.1577 29.9022C40.4444 29.8821 40.7266 29.854 41.0033 29.7808Z" fill="#C6C6C6"/>
</svg>
