<svg width="53" height="52" viewBox="0 0 53 52" fill="none" xmlns="http://www.w3.org/2000/svg">
<path d="M26.7222 52C41.0816 52 52.7222 40.3594 52.7222 26C52.7222 11.6406 41.0816 0 26.7222 0C12.3628 0 0.722168 11.6406 0.722168 26C0.722168 40.3594 12.3628 52 26.7222 52Z" fill="#C6C6C6"/>
<path d="M25.1466 12.9995C25.2943 13.0433 25.4438 13.0813 25.5892 13.1319C26.7039 13.5198 27.3703 14.6843 27.1519 15.8583C26.9369 17.0157 25.8796 17.8763 24.7436 17.8182C23.5314 17.7565 22.565 16.8234 22.4649 15.6189C22.365 14.4159 23.1474 13.3296 24.3097 13.0555C24.3658 13.0422 24.4195 13.0183 24.4746 12.9995C24.6986 12.9995 24.9226 12.9995 25.1466 12.9995Z" fill="white"/>
<path d="M26.1308 21.6295C26.1308 22.9174 26.1341 24.1621 26.1267 25.4065C26.1257 25.5634 26.2083 25.5915 26.3195 25.6295C27.8514 26.154 29.3849 26.6736 30.9113 27.2142C31.1806 27.3096 31.4507 27.4576 31.6668 27.6452C33.2203 28.9928 34.7612 30.3553 36.3031 31.7164C36.9383 32.2769 37.0149 33.1653 36.4893 33.7774C35.9724 34.3793 35.106 34.4272 34.477 33.8754C33.0352 32.6109 31.6 31.3383 30.1558 30.0762C30.0168 29.9545 29.8458 29.8529 29.6724 29.7924C27.9234 29.1835 26.1743 28.5743 24.4163 27.9936C24.0753 27.881 23.6951 27.8912 23.2773 27.8375C23.3405 28.0084 23.3738 28.1056 23.4119 28.2007C24.0353 29.7661 24.6531 31.3339 25.2875 32.8946C25.4756 33.3579 25.4854 33.7954 25.32 34.2696C24.7819 35.8116 24.2685 37.3624 23.7409 38.9083C23.5141 39.5732 22.9793 39.9575 22.3367 39.9341C21.7284 39.9119 21.1772 39.4877 21.0559 38.8671C21 38.5815 21.0216 38.248 21.1106 37.9705C21.5484 36.6065 22.0177 35.2529 22.4836 33.8986C22.5412 33.7308 22.5423 33.5942 22.4698 33.4275C21.7007 31.6586 20.9391 29.8865 20.1829 28.1121C20.1201 27.9652 20.0838 27.7942 20.0833 27.6343C20.0784 25.5128 20.082 23.3911 20.0833 21.2697C20.0833 21.1652 20.0833 21.0609 20.0833 20.9296C19.9804 20.957 19.8987 20.9734 19.8203 21.0005C19.1693 21.2259 18.5162 21.4463 17.8706 21.6868C17.7607 21.7277 17.6414 21.8408 17.5971 21.95C17.1371 23.0821 16.6978 24.2231 16.24 25.3562C15.8885 26.2265 14.8401 26.4258 14.2664 25.7351C13.9705 25.3789 13.8901 24.9617 14.0585 24.5282C14.6023 23.1285 15.1591 21.734 15.7147 20.3389C15.8447 20.0127 16.0828 19.7923 16.41 19.6782C17.9394 19.1459 19.4586 18.5794 21.0049 18.1034C21.5758 17.9275 22.21 17.9606 22.8162 17.9132C22.8956 17.9069 22.987 17.9812 23.0638 18.0325C23.8144 18.5343 24.63 18.7003 25.5046 18.4958C25.7096 18.4478 25.8351 18.4994 25.8911 18.675C26.0007 19.0179 26.2685 19.1336 26.5642 19.2464C27.2324 19.5015 27.8957 19.7696 28.556 20.0448C28.7336 20.1188 28.8611 20.111 29.0229 19.989C29.9087 19.3217 30.8056 18.6701 31.698 18.0117C32.0413 17.7584 32.4136 17.6695 32.8188 17.8201C33.2405 17.9767 33.5037 18.2839 33.5764 18.7378C33.6542 19.2238 33.4865 19.6193 33.0986 19.909C32.4463 20.3963 31.7886 20.8765 31.133 21.3593C30.6727 21.6983 30.2085 22.0323 29.7526 22.377C29.3435 22.6863 28.9185 22.7452 28.4421 22.5446C27.7588 22.2569 27.0665 21.9919 26.3776 21.7181C26.3072 21.6902 26.2352 21.6667 26.1305 21.6295H26.1308Z" fill="white"/>
<path d="M22.8636 17.9202L25.7929 18.4775L25.6441 19.0987L22.7253 18.3798L22.8636 17.9202Z" fill="white"/>
<path d="M39.6697 27.7046C40.1165 27.7069 40.5624 27.7225 41.0061 27.778C41.1052 27.7905 41.2032 27.8093 41.3021 27.8244C41.3264 27.8281 41.3361 27.839 41.3405 27.8656C41.383 28.1264 41.383 28.3867 41.3407 28.6475C41.3361 28.6757 41.3264 28.6879 41.2997 28.6913C41.0791 28.7189 40.8594 28.7543 40.638 28.7734C40.1625 28.814 39.6856 28.8184 39.2089 28.8025C38.8185 28.7895 38.4293 28.7619 38.044 28.6929C38.0136 28.6874 37.999 28.6785 37.9934 28.6431C37.9529 28.3851 37.9524 28.128 37.9939 27.8703C37.9987 27.8406 38.0085 27.8275 38.0374 27.8236C38.2174 27.7999 38.3963 27.7653 38.5771 27.7525C38.9406 27.7267 39.3052 27.7124 39.6692 27.6934C39.6692 27.697 39.6695 27.7009 39.6697 27.7046Z" fill="white"/>
<path d="M38.0293 27.6577C38.0728 27.5243 38.1094 27.3956 38.1565 27.2713C38.199 27.1597 38.2538 27.0529 38.3014 26.9432C38.3158 26.9101 38.3391 26.8961 38.3721 26.8875C38.6074 26.8252 38.8475 26.796 39.0889 26.7783C39.4243 26.7535 39.7605 26.7512 40.0963 26.7687C40.3882 26.7838 40.6785 26.8122 40.9627 26.8872C40.9957 26.8961 41.017 26.9114 41.0334 26.9432C41.1437 27.1582 41.2287 27.383 41.2886 27.6178C41.2917 27.6295 41.2932 27.6418 41.2958 27.6558C40.21 27.5076 39.1268 27.5073 38.0291 27.6574L38.0293 27.6577Z" fill="white"/>
<path d="M41.3004 28.8574C41.2751 28.9439 41.2569 29.0286 41.2259 29.1081C41.1645 29.2649 41.0956 29.4189 41.0306 29.5745C41.018 29.6044 40.9975 29.6203 40.9668 29.6253C40.7641 29.6592 40.5626 29.7027 40.3588 29.7248C39.9866 29.7655 39.6123 29.7636 39.2385 29.7449C38.9466 29.73 38.6563 29.7008 38.3721 29.6266C38.3389 29.618 38.3176 29.6029 38.3012 29.5711C38.1901 29.3548 38.1049 29.1284 38.0444 28.8923C38.0419 28.8822 38.0411 28.8712 38.0388 28.8579C39.1241 29.0062 40.207 29.0067 41.3004 28.8574Z" fill="white"/>
<path d="M38.1503 26.686C38.1625 26.729 38.1766 26.7652 38.182 26.803C38.1848 26.8231 38.1759 26.8476 38.1659 26.8666C37.9966 27.1866 37.8861 27.5266 37.8333 27.8859C37.7752 28.2825 37.8141 28.6717 37.9257 29.0545C37.9838 29.2541 38.0578 29.4474 38.1577 29.6293C38.183 29.6754 38.1889 29.716 38.17 29.7635C38.162 29.7833 38.1569 29.8041 38.15 29.8255C37.3136 29.0446 37.2478 27.5597 38.15 26.6866L38.1503 26.686Z" fill="white"/>
<path d="M41.1875 26.6875C42.0472 27.5343 42.0582 28.9655 41.1864 29.8293C41.1644 29.7589 41.1378 29.7016 41.1793 29.6221C41.4084 29.1828 41.5346 28.7138 41.5267 28.2141C41.5193 27.7537 41.3969 27.3217 41.1926 26.9129C41.1406 26.8089 41.1396 26.8024 41.1877 26.6875H41.1875Z" fill="white"/>
<path d="M40.1013 26.0937C40.0676 26.2654 40.035 26.4327 40.0018 26.6026H39.3594C39.3261 26.4343 39.2926 26.2631 39.2583 26.089C39.5409 26.0335 39.8192 26.0346 40.1013 26.0937Z" fill="white"/>
<path d="M40.002 29.9124C40.0353 30.0825 40.068 30.2495 40.1018 30.4212C39.8205 30.4804 39.5425 30.4811 39.2588 30.4259C39.2923 30.2542 39.3256 30.0846 39.3594 29.9124H40.0022H40.002Z" fill="white"/>
<path d="M38.3282 29.7866C38.4769 29.8127 38.6206 29.8421 38.7655 29.8619C38.9088 29.8815 39.0537 29.8914 39.2022 29.906C39.1707 30.0665 39.1398 30.2257 39.107 30.3924C39.0512 30.3744 38.9982 30.3588 38.9465 30.3403C38.7102 30.2564 38.4959 30.1324 38.3011 29.9729C38.2788 29.9547 38.2721 29.9398 38.2844 29.9114C38.3021 29.871 38.3141 29.828 38.3282 29.7869V29.7866Z" fill="white"/>
<path d="M39.1088 26.1319C39.1398 26.2896 39.1708 26.4477 39.2028 26.6119C38.9089 26.6322 38.6175 26.6595 38.3313 26.7348C38.3129 26.683 38.2944 26.6345 38.2791 26.5853C38.2763 26.5767 38.2816 26.5605 38.2886 26.5545C38.5284 26.3531 38.7973 26.208 39.0988 26.1272C39.0999 26.127 39.1017 26.1283 39.1088 26.1319Z" fill="white"/>
<path d="M41.0038 26.7345C40.7268 26.6621 40.4447 26.6329 40.1577 26.6136C40.19 26.45 40.2209 26.2921 40.2524 26.1313C40.4022 26.1728 40.5445 26.2259 40.6749 26.3036C40.7985 26.3773 40.9147 26.4636 41.0348 26.5438C41.0578 26.5592 41.0622 26.5748 41.0509 26.6014C41.0333 26.6436 41.0202 26.6876 41.0038 26.7345Z" fill="white"/>
<path d="M41.0033 29.7798C41.0218 29.8311 41.0397 29.8783 41.0545 29.9262C41.0576 29.9361 41.0527 29.9546 41.045 29.9611C40.8111 30.1573 40.5486 30.2986 40.2524 30.3835C40.2207 30.2225 40.1897 30.0648 40.1577 29.9012C40.4444 29.8811 40.7266 29.853 41.0033 29.7798Z" fill="white"/>
</svg>
