<svg width="60" height="60" viewBox="0 0 60 60" fill="none" xmlns="http://www.w3.org/2000/svg">
<path d="M20.4516 17.7165L18.4259 16.2899L18.6926 16.0909L19.679 16.8C19.9478 16.9969 20.1891 17.1747 20.4071 17.3546L20.4135 17.3504C20.3034 17.0921 20.2018 16.7979 20.1044 16.4867L19.7277 15.3162L19.988 15.1215L20.7204 17.5112L20.4516 17.7123V17.7165Z" fill="#191919"/>
<path d="M22.0921 15.3417L21.3047 15.7989L21.7322 16.5334L22.6128 16.0211L22.7419 16.2413L21.5946 16.908L20.4114 14.8739L21.5142 14.2325L21.6412 14.4527L20.8051 14.9395L21.1798 15.583L21.9672 15.1258L22.0942 15.3438L22.0921 15.3417Z" fill="#191919"/>
<path d="M22.1364 13.9489C22.2655 13.8621 22.4623 13.752 22.6507 13.6695C22.9492 13.5382 23.1693 13.5107 23.3513 13.5721C23.4995 13.6208 23.6265 13.7393 23.7027 13.9108C23.8255 14.1923 23.7302 14.459 23.5397 14.6347L23.544 14.6432C23.7323 14.6283 23.8996 14.7405 24.0477 14.9416C24.2488 15.2104 24.3928 15.3967 24.4732 15.4602L24.1853 15.5872C24.1218 15.5385 23.9927 15.3777 23.8191 15.1342C23.6244 14.8654 23.4572 14.804 23.2011 14.9056L22.9386 15.0199L23.3492 15.9534L23.0719 16.0762L22.1385 13.9489H22.1364ZM22.8454 14.8104L23.1312 14.6855C23.4297 14.5543 23.5461 14.3087 23.4381 14.0632C23.3154 13.7859 23.0613 13.752 22.7671 13.8812C22.6338 13.9404 22.5449 13.9912 22.5025 14.0251L22.8476 14.8125L22.8454 14.8104Z" fill="#191919"/>
<path d="M24.3294 13.0387L25.0872 15.2676L24.7972 15.3671L24.0394 13.1382L24.3294 13.0387Z" fill="#191919"/>
<path d="M25.5022 12.9628L24.8079 13.1363L24.7444 12.8866L26.4335 12.4611L26.497 12.713L25.8006 12.8887L26.3108 14.9207L26.0123 14.9948L25.5022 12.9628Z" fill="#191919"/>
<path d="M27.2611 13.9658L27.1235 14.7321L26.8123 14.7765L27.278 12.3317L27.6379 12.2809L28.7639 14.5014L28.4422 14.5458L28.0887 13.8473L27.2632 13.9637L27.2611 13.9658ZM27.9977 13.6208L27.6696 12.9837C27.5955 12.8376 27.5426 12.7043 27.4876 12.5752H27.4812C27.4643 12.717 27.4516 12.8673 27.4241 13.0154L27.2907 13.7224L27.9977 13.6229V13.6208Z" fill="#191919"/>
<path d="M29.0368 14.1289C29.1744 14.2136 29.3713 14.275 29.5808 14.2708C29.892 14.2644 30.0698 14.0972 30.0655 13.8601C30.0613 13.6442 29.9322 13.5172 29.6126 13.405C29.2252 13.2738 28.9839 13.0748 28.9776 12.7467C28.9712 12.3805 29.2675 12.1011 29.7269 12.0905C29.9639 12.0863 30.1439 12.1371 30.2455 12.1964L30.1671 12.4462C30.0931 12.4038 29.9343 12.3403 29.7205 12.3446C29.3988 12.3509 29.2802 12.5456 29.2845 12.7065C29.2887 12.9266 29.4348 13.0304 29.7607 13.151C30.1629 13.2971 30.364 13.4833 30.3725 13.8305C30.3809 14.1924 30.1206 14.5163 29.566 14.529C29.3395 14.5332 29.0897 14.4697 28.9627 14.3872L29.0368 14.131V14.1289Z" fill="#191919"/>
<path d="M31.7928 13.782C31.7441 14.1948 31.9812 14.4001 32.2902 14.4403C32.5083 14.47 32.648 14.4488 32.7665 14.4149L32.7919 14.6414C32.6776 14.6753 32.4829 14.7092 32.2162 14.6732C31.6997 14.6033 31.4393 14.2202 31.5071 13.7143C31.5748 13.2084 31.9262 12.8549 32.413 12.9205C32.9633 12.9946 33.0417 13.4899 32.9993 13.799C32.9909 13.8604 32.9824 13.9048 32.9697 13.9387L31.7928 13.7799V13.782ZM32.7157 13.6826C32.7453 13.4921 32.703 13.1809 32.3601 13.1343C32.0489 13.092 31.8796 13.3545 31.8267 13.564L32.7157 13.6826Z" fill="#191919"/>
<path d="M34.06 12.846L33.9689 13.2418L34.3965 13.3392L34.3436 13.5678L33.9139 13.4704L33.7107 14.3594C33.6641 14.5626 33.6938 14.6917 33.8631 14.7298C33.9435 14.7489 33.9943 14.7531 34.0409 14.7489L34.0007 14.9796C33.9393 14.986 33.8419 14.986 33.7255 14.9606C33.5858 14.9288 33.4842 14.8547 33.4313 14.7595C33.3699 14.6494 33.3699 14.4949 33.4144 14.3001L33.6197 13.4005L33.3636 13.3413L33.4165 13.1127L33.6705 13.1719L33.7403 12.865L34.0536 12.8439L34.06 12.846Z" fill="#191919"/>
<path d="M35.8992 13.0981L36.1871 13.2082L35.4442 15.1704L36.3861 15.526L36.2951 15.7652L35.0674 15.2995L35.9014 13.0981H35.8992Z" fill="#191919"/>
<path d="M37.817 13.8811L37.1756 15.1215C36.9343 15.5872 37.0423 15.892 37.3195 16.038C37.6265 16.1968 37.9355 16.0952 38.1726 15.6359L38.8139 14.3933L39.087 14.5352L38.4562 15.7586C38.1239 16.4 37.6519 16.4868 37.1989 16.2518C36.7713 16.0317 36.5723 15.621 36.9089 14.9712L37.5439 13.7393L37.817 13.8811Z" fill="#191919"/>
<path d="M39.4787 17.6297L39.5274 17.0285C39.5422 16.7957 39.5549 16.6475 39.574 16.493L39.5697 16.4888C39.4364 16.5629 39.3072 16.6242 39.0913 16.7258L38.5643 16.9883L38.2785 16.7872L39.5507 16.2221L39.6502 14.8716L39.9401 15.0727L39.8788 15.7035C39.8618 15.8792 39.8491 16.0146 39.828 16.1543L39.8364 16.1607C39.9719 16.0845 40.082 16.0294 40.2407 15.9575L40.8186 15.6865L41.1086 15.8876L39.8661 16.4168L39.775 17.8265L39.4851 17.6254L39.4787 17.6297Z" fill="#191919"/>
<path d="M30.0001 59.9999C21.9862 59.9999 14.4529 56.8799 8.78649 51.2135C3.12008 45.5471 6.10352e-05 38.0138 6.10352e-05 29.9999C6.10352e-05 21.9861 3.12008 14.4528 8.78649 8.78635C14.4529 3.11994 21.9862 -7.62939e-05 30.0001 -7.62939e-05C38.0139 -7.62939e-05 45.5472 3.11994 51.2136 8.78635C56.88 14.4528 60.0001 21.9861 60.0001 29.9999C60.0001 38.0138 56.88 45.5471 51.2136 51.2135C45.5472 56.8799 38.0139 59.9999 30.0001 59.9999ZM30.0001 0.922805C13.9682 0.922805 0.922943 13.968 0.922943 29.9999C0.922943 46.0318 13.9682 59.077 30.0001 59.077C46.032 59.077 59.0772 46.0339 59.0772 29.9999C59.0772 13.9659 46.0341 0.922805 30.0001 0.922805Z" fill="#191919"/>
<path d="M30.0001 49.7192C19.1266 49.7192 10.283 40.8736 10.283 30.0001C10.283 19.1266 19.1287 10.283 30.0001 10.283C40.8714 10.283 49.7192 19.1287 49.7192 30.0001C49.7192 40.8714 40.8736 49.7192 30.0001 49.7192ZM30.0001 10.8587C19.4462 10.8587 10.8587 19.4462 10.8587 30.0001C10.8587 40.5539 19.4462 49.1414 30.0001 49.1414C40.5539 49.1414 49.1414 40.5539 49.1414 30.0001C49.1414 19.4462 40.5539 10.8587 30.0001 10.8587Z" fill="#191919"/>
<path d="M7.64564 39.3406C8.47115 39.0252 9.23528 38.441 9.0342 37.914C8.83311 37.3911 7.91446 37.4441 7.00428 37.7912C6.11738 38.1299 5.43157 38.7183 5.62207 39.2157C5.81469 39.7174 6.70371 39.7005 7.64564 39.3406Z" fill="#191919"/>
<path d="M37.6666 51.1943C37.7174 51.4568 37.7682 51.7256 37.8105 51.9986L37.9947 53.3004L38.7863 53.0104L38.0899 51.9034C37.9312 51.6536 37.8021 51.4187 37.6751 51.1922H37.6666V51.1943Z" fill="#191919"/>
<path d="M47.5962 44.4315L47.5878 44.44C47.7254 44.6643 47.8227 44.8337 47.9264 45.0199L48.6144 46.4635L48.625 46.472L49.1943 45.7968L48.1021 44.8739C47.9307 44.73 47.7613 44.5818 47.5962 44.4315Z" fill="#191919"/>
<path d="M21.9418 6.48976C22.3397 6.32466 22.5599 5.94577 22.4011 5.56688C22.2423 5.18376 21.8169 5.07792 21.419 5.24514C21.0231 5.41236 20.8009 5.78913 20.9596 6.17226C21.1184 6.54903 21.5417 6.65486 21.9418 6.48764V6.48976Z" fill="#191919"/>
<path d="M45.6467 48.015C45.1789 47.452 44.6921 47.1281 44.3979 47.3716C44.1587 47.5705 44.2667 48.0468 44.654 48.5125C44.9948 48.9231 45.3906 49.084 45.634 48.8829C45.8224 48.7262 45.8478 48.4574 45.7568 48.1992C45.7399 48.1463 45.7081 48.087 45.6489 48.015H45.6467Z" fill="#191919"/>
<path d="M19.2216 50.6206C19.4989 50.1189 19.4058 49.7803 19.0968 49.6025C18.9549 49.5242 18.8385 49.4903 18.7793 49.4861L17.994 50.9042L18.2966 51.0715C18.6142 51.2471 18.9761 51.063 19.2216 50.6185V50.6206Z" fill="#191919"/>
<path d="M16.5759 12.1876C16.9379 11.8828 17.0437 11.4213 16.7897 11.1165C16.5336 10.816 16.0595 10.8456 15.6996 11.1504C15.3398 11.4552 15.2297 11.9188 15.4837 12.2215C15.7377 12.5242 16.2161 12.4945 16.5738 12.1897L16.5759 12.1876Z" fill="#191919"/>
<path d="M51.4887 20.3984L52.7672 20.0999L52.4094 19.3379L51.368 20.1295C51.1331 20.3095 50.9108 20.4597 50.697 20.6058L50.7013 20.6143C50.9574 20.5402 51.222 20.4661 51.4887 20.4005V20.3984Z" fill="#191919"/>
<path d="M52.6677 23.8447C52.111 23.9802 51.9289 24.2913 52.0115 24.666C52.0538 24.8353 52.1067 24.9496 52.1469 25.0004L53.7218 24.6194L53.635 24.2596C53.544 23.8849 53.1608 23.724 52.6677 23.8426V23.8447Z" fill="#191919"/>
<path d="M52.4075 26.9518C52.4816 27.5445 53.3875 27.735 54.3549 27.6144C55.2968 27.4979 56.1011 27.0725 56.0313 26.5073C55.9614 25.9379 55.0915 25.7199 54.0903 25.8427C53.214 25.9506 52.3334 26.3528 52.4075 26.9497V26.9518Z" fill="#191919"/>
<path d="M50.1383 9.86345C44.7597 4.48491 37.6074 1.52153 30 1.52153C22.3926 1.52153 15.2423 4.48491 9.8638 9.86345C4.48315 15.242 1.52188 22.3922 1.52188 29.9996C1.52188 37.607 4.48315 44.7594 9.8638 50.1379C15.2423 55.5165 22.3947 58.4798 30 58.4798C37.6053 58.4798 44.7597 55.5165 50.1383 50.1379C55.5168 44.7594 58.4802 37.607 58.4802 29.9996C58.4802 22.3922 55.5168 15.242 50.1383 9.86133V9.86345ZM56.6048 28.4968L54.4394 29.4556L54.9326 29.7118L56.626 29.6821L56.6323 30.0441L52.1915 30.1203L52.1851 29.7583L54.3272 29.7223V29.7096C54.1537 29.6377 53.9949 29.5657 53.8488 29.498L52.1682 28.6725L52.1597 28.2237L54.0626 29.2037L56.6006 28.0671L56.609 28.4946L56.6048 28.4968ZM56.499 26.4732C56.59 27.2077 55.7496 27.8342 54.4161 27.9972C53.017 28.1708 52.0327 27.7348 51.9417 26.9939C51.8486 26.2361 52.7101 25.6308 54.0182 25.4699C55.5359 25.2836 56.4122 25.7641 56.499 26.4732ZM55.7623 23.0082C55.6523 23.0822 55.2946 23.2325 54.7738 23.4379C54.1981 23.6622 54.0076 23.8612 54.0648 24.185L54.1452 24.5153L56.0163 24.0644L56.101 24.4158L51.8422 25.4424C51.7427 25.2794 51.6496 25.0317 51.5903 24.7904C51.5014 24.4158 51.5501 24.1469 51.7533 23.9183C51.9121 23.7342 52.1894 23.586 52.5217 23.5056C53.0911 23.368 53.525 23.5035 53.7472 23.7532L53.7663 23.749C53.8319 23.5119 54.1092 23.3109 54.541 23.1394C55.121 22.9044 55.5232 22.7393 55.6756 22.6441L55.7645 23.006L55.7623 23.0082ZM55.466 21.99L51.2707 23.4484L50.7754 22.0218L51.2305 21.863L51.6073 22.9489L52.9323 22.4875L52.5746 21.4609L53.0233 21.3063L53.3811 22.3329L54.8945 21.808L54.4966 20.6629L54.9516 20.5041L55.4681 21.99H55.466ZM53.9208 18.2138L52.7841 19.0796L53.2054 19.977L54.5939 19.6468L54.7527 19.9855L50.3288 21.0142L50.1446 20.6184L53.7578 17.8646L53.9229 18.2138H53.9208ZM50.2801 29.9996C50.2801 41.1822 41.1825 50.2797 30 50.2797C18.8174 50.2797 9.71986 41.1822 9.71986 29.9996C9.71986 18.8171 18.8174 9.71951 30 9.71951C41.1825 9.71951 50.2801 18.8171 50.2801 29.9996ZM49.6006 14.9647C49.9456 14.9647 50.2251 15.2441 50.2251 15.5891C50.2251 15.9341 49.9456 16.2136 49.6006 16.2136C49.2556 16.2136 48.9762 15.9341 48.9762 15.5891C48.9762 15.2441 49.2556 14.9647 49.6006 14.9647ZM42.8229 10.4879L43.386 10.9811L44.5608 9.63485L45.1704 10.1661L43.9956 11.5145L44.457 11.9188L45.6339 10.5704L46.2435 11.1017L45.0688 12.4501L45.6678 12.9729L47.4649 10.9112L44.9333 8.70138L45.2931 8.28862L48.2142 10.835C48.3602 10.962 48.3751 11.1822 48.2481 11.3261L46.3176 13.5402L46.5801 13.7688L46.216 14.1879L42.4525 10.9049L42.8187 10.4858L42.8229 10.4879ZM36.7078 5.50728C36.8158 5.26386 37.0295 5.09664 37.2984 5.0035L36.8644 4.81088L37.0782 4.32193L38.2784 4.8511L38.4308 4.50396L39.1357 4.813L38.9811 5.16226L40.1834 5.69566L39.9675 6.18251L39.5294 5.98989C39.6437 6.25024 39.667 6.52329 39.559 6.7646C39.3071 7.33822 38.4858 7.51391 37.6794 7.16042C36.8623 6.79847 36.4496 6.07879 36.7015 5.50728H36.7078ZM36.3458 6.89795L39.5103 8.29286L40.6406 5.72953L41.4111 6.0682L40.9687 7.07364L41.5826 7.34246L41.3603 7.84623L40.7486 7.57318L40.2109 8.78817L39.5272 10.3376L38.7589 9.9968L39.2944 8.7797L36.1278 7.38479L36.3416 6.90007L36.3458 6.89795ZM27.9214 3.57896H30.2455V4.12931H28.7448V5.90733H30.6308V3.43079H31.3737V4.68388H31.8034V3.43079H32.5506V8.09389H31.8034V5.22999H31.3737V8.09389H30.6308V6.46191H28.3913C28.0526 6.46191 27.9214 6.23542 27.9214 6.01105V3.57896ZM25.1125 8.39022L21.5755 9.87615C21.2622 10.0095 21.0569 9.85075 20.9701 9.64543L20.5426 8.62306L21.2982 8.30767L21.6983 9.25384L24.9114 7.9055L25.1146 8.38599L25.1125 8.39022ZM21.222 4.77702C22.0877 4.41506 22.9238 4.55476 23.2096 5.23422C23.4932 5.90733 23.0064 6.60161 22.1428 6.96568C21.2749 7.32764 20.441 7.18794 20.1573 6.51483C19.8716 5.83537 20.3584 5.14109 21.222 4.7749V4.77702ZM24.4733 6.12535L24.6786 6.61431L22.746 7.42501L23.0551 8.16162L22.2931 8.48336L21.9819 7.74675L20.1044 8.53628L19.8991 8.04944L24.4733 6.12747V6.12535ZM15.2953 7.75945L15.9027 8.47913L16.4637 8.00499L16.8172 8.42198L16.2562 8.89612L16.8658 9.6158L16.2308 10.1513L14.6602 8.29709L15.2953 7.75945ZM14.0803 8.98502C14.2263 8.86013 14.4465 8.87918 14.5713 9.02524L15.5027 10.128L15.7165 9.94812L16.053 10.3482C16.6076 10.1302 17.1558 10.1746 17.4691 10.5493C17.9115 11.0721 17.6469 11.9653 16.9124 12.5855C16.18 13.2057 15.2656 13.3073 14.8232 12.7845C14.5142 12.4183 14.5523 11.8807 14.8465 11.3769L13.3627 12.63L13.0219 12.2257L13.6442 11.7007L13.1108 11.0742L13.6675 10.6043L14.1988 11.233L14.9037 10.636L14.1014 9.68988L12.3954 11.1335L12.0398 10.7144L14.0824 8.98925L14.0803 8.98502ZM10.8544 14.9647C11.1994 14.9647 11.4788 15.2441 11.4788 15.5891C11.4788 15.9341 11.1994 16.2136 10.8544 16.2136C10.5094 16.2136 10.23 15.9341 10.23 15.5891C10.23 15.2441 10.5094 14.9647 10.8544 14.9647ZM4.69482 22.1043L6.99567 22.5129C7.55871 22.6123 7.99052 22.697 8.42656 22.8028V22.7944C8.02439 22.6123 7.62856 22.4218 7.11421 22.1509L5.03349 21.0735L5.14356 20.7369L9.55476 21.4884L8.27204 19.8818L5.52033 19.7442L5.68755 19.3801L8.03074 19.505L7.69206 19.0753L6.15322 18.3684L6.29504 18.0614L10.3316 19.9135L10.1898 20.2205L8.24241 19.3272L8.23817 19.3378C8.36517 19.4733 8.47948 19.6024 8.5832 19.723L9.76432 21.1476L9.58863 21.5286L9.56746 21.5011L9.45951 21.8292L7.22851 21.4228C6.67816 21.3233 6.12994 21.2174 5.70872 21.1285V21.137C6.11301 21.3148 6.58715 21.5582 7.10362 21.8228L9.12295 22.8558L9.01289 23.1923L6.7713 22.7923C6.24636 22.697 5.72565 22.5996 5.26844 22.4917V22.5002C5.71295 22.7034 6.15957 22.9277 6.65911 23.1796L8.68056 24.2083L8.57261 24.5364L4.58475 22.4451L4.69482 22.1086V22.1043ZM3.94127 25.146L5.36581 25.1651L5.56055 24.257L4.25243 23.6982L4.32651 23.3574L8.48371 25.1587L8.39904 25.5588L3.8693 25.5016L3.9455 25.1481L3.94127 25.146ZM3.58778 27.7834L5.91827 27.1992C6.42839 27.0701 6.95334 26.9516 7.44441 26.8733L7.43806 26.8606C6.87925 26.8203 6.34796 26.7695 5.61346 26.6891L3.72748 26.4838L3.76135 26.1663L8.17679 26.6468L8.13657 27.013L5.81243 27.6056C5.27479 27.7432 4.79218 27.8427 4.32651 27.9168L4.33286 27.9253C4.92554 27.9591 5.46318 28.0078 6.15111 28.084L7.99899 28.2851L7.96512 28.6026L3.54968 28.1221L3.58778 27.7813V27.7834ZM4.04287 29.2291C4.41118 29.0027 5.00385 28.863 5.69602 28.863C7.02107 28.8672 7.9884 29.4027 7.9884 30.2811C7.9884 30.5838 7.87622 30.8209 7.78308 30.9352L7.31529 30.8527C7.42113 30.713 7.50579 30.5373 7.50579 30.2727C7.50579 29.6356 6.83268 29.2186 5.7193 29.2186C4.60591 29.2186 3.92645 29.6186 3.92645 30.2282C3.92645 30.4505 3.97937 30.6008 4.04499 30.6791H5.37004V30.1457H5.83148V31.0093H3.69573C3.6026 30.859 3.45231 30.5584 3.45231 30.2049C3.45231 29.8091 3.62376 29.481 4.03864 29.2249L4.04287 29.2291ZM3.77193 33.7398L6.02622 33.1218C6.57868 32.9694 7.00414 32.8614 7.44229 32.7704V32.7619C6.99779 32.7704 6.55751 32.7683 5.97754 32.7429L3.63647 32.6624L3.59201 32.3111L7.91644 31.094L7.96089 31.4496L5.7701 32.0401C5.23034 32.1862 4.69058 32.3259 4.27148 32.4254V32.4338C4.71598 32.4211 5.24939 32.4338 5.82937 32.4529L8.09635 32.5185L8.1408 32.8699L5.94367 33.4689C5.42931 33.6086 4.91495 33.7441 4.45563 33.8414V33.8499C4.9467 33.8414 5.44624 33.8541 6.00717 33.8647L8.27416 33.9261L8.31649 34.269L3.81639 34.0891L3.77193 33.7377V33.7398ZM4.26513 36.5106C4.09156 35.8417 4.84933 35.1411 6.15111 34.8024C7.51638 34.4468 8.53875 34.7156 8.71655 35.393C8.89647 36.0851 8.11329 36.7667 6.83692 37.099C5.35734 37.4843 4.43446 37.1583 4.26724 36.5106H4.26513ZM5.17954 39.366C4.93189 38.7204 5.60711 37.9394 6.86232 37.4589C8.17891 36.9551 9.22667 37.1075 9.47644 37.7616C9.73256 38.4304 9.02982 39.1946 7.7979 39.6666C6.36913 40.2127 5.41661 39.9905 5.17742 39.366H5.17954ZM6.6951 42.5644L8.34401 40.816C8.70596 40.4328 9.08274 40.0497 9.45316 39.7174L9.44258 39.7089C8.94939 39.9756 8.47524 40.2191 7.81483 40.5493L6.11512 41.3938L5.9733 41.1081L9.95058 39.1311L10.1157 39.4613L8.47736 41.2118C8.09847 41.6182 7.7471 41.9611 7.39361 42.2765L7.40208 42.2807C7.91855 41.9886 8.39904 41.741 9.01924 41.434L10.683 40.6064L10.8248 40.8922L6.8475 42.8692L6.6951 42.5622V42.5644ZM8.8626 46.0103C8.53663 45.5849 8.70385 44.9457 9.79818 44.1096L11.8768 42.5178L12.0842 42.7887L9.99715 44.389C9.20762 44.9943 9.02982 45.4579 9.24361 45.7352C9.48068 46.0442 9.97599 45.9765 10.757 45.3796L12.8441 43.7815L13.0516 44.0524L10.9941 45.6272C9.91037 46.457 9.20762 46.4612 8.8626 46.0103ZM11.2016 48.6033L12.2726 46.4527C12.5076 45.9807 12.7573 45.5066 13.0177 45.079L13.005 45.0748C12.6113 45.4727 12.226 45.8452 11.6884 46.349L10.3062 47.6508L10.0882 47.418L13.3225 44.3741L13.5765 44.643L12.516 46.7935C12.2705 47.2931 12.0334 47.7228 11.7879 48.1249H11.7985C12.2091 47.6974 12.5965 47.3206 13.1002 46.8465L14.4528 45.5722L14.6708 45.805L11.4365 48.8488L11.2016 48.5991V48.6033ZM12.0207 49.3886L15.0307 46.1225L15.2783 46.3511L12.2684 49.6172L12.0207 49.3886ZM13.2886 50.502L15.4159 46.5099L15.6995 46.7406L14.6412 48.6986C14.3512 49.2362 14.0887 49.7167 13.8157 50.1654L13.822 50.1697C14.203 49.8162 14.6391 49.45 15.0942 49.0711L16.8193 47.6423L17.1008 47.8688L13.5786 50.7348L13.2886 50.4999V50.502ZM15.9684 52.4494L14.747 51.626L17.2278 47.9408L18.4026 48.7303L18.1337 49.1283L17.2405 48.5271L16.4573 49.6913L17.3019 50.2607L17.0373 50.6544L16.1927 50.085L15.2974 51.4143L16.2393 52.0493L15.9705 52.4494H15.9684ZM18.0491 53.6305L17.7422 53.4611C17.7654 53.332 17.8988 52.9679 18.102 52.4472C18.3306 51.8736 18.32 51.6027 18.0597 51.4376L17.7803 51.2831L16.8489 52.9679L16.5526 52.805L18.6735 48.9695C18.8513 49.0013 19.082 49.0901 19.2874 49.2023C19.6049 49.378 19.753 49.5876 19.7763 49.886C19.7954 50.1231 19.7149 50.4237 19.5477 50.7242C19.2641 51.2386 18.8852 51.4736 18.5677 51.4778L18.5571 51.4947C18.6777 51.6958 18.6291 52.0324 18.4597 52.4663C18.2354 53.0505 18.0808 53.4548 18.047 53.6305H18.0491ZM19.0884 54.1808C18.8577 54.0792 18.6545 53.8527 18.591 53.6495L18.864 53.2452C18.9381 53.4506 19.0884 53.6622 19.3001 53.7554C19.6154 53.8951 19.9266 53.694 20.1086 53.2855C20.2759 52.9066 20.2441 52.6314 20.0155 52.2779C19.7276 51.8694 19.6387 51.4185 19.8927 50.847C20.1721 50.2141 20.6907 49.8818 21.1564 50.0871C21.4019 50.1951 21.5374 50.3708 21.5988 50.521L21.3236 50.9105C21.2771 50.8047 21.1712 50.6121 20.9532 50.5168C20.6251 50.3729 20.3542 50.648 20.2314 50.9253C20.0642 51.3042 20.1256 51.5561 20.3605 51.9202C20.6484 52.3647 20.7077 52.788 20.4431 53.3849C20.1658 54.0115 19.6514 54.4327 19.0863 54.1829L19.0884 54.1808ZM20.5489 54.7142L22.0941 50.5507L22.4116 50.6692L20.8664 54.8328L20.5489 54.7142ZM23.5356 51.5498L22.3883 55.3344L22.0602 55.2349L23.2075 51.4503L22.4455 51.2196L22.5873 50.7518L24.4436 51.3148L24.3018 51.7805L23.5356 51.5476V51.5498ZM25.0808 54.0559L24.6934 55.9059L24.359 55.8361L24.7463 53.9903L24.4606 51.319L24.8373 51.3974L24.9474 52.6716C24.977 53.0209 24.9982 53.3024 25.0151 53.622H25.0236C25.1548 53.3553 25.303 53.0907 25.4702 52.7817L26.0904 51.6598L26.4672 51.7381L25.085 54.0538L25.0808 54.0559ZM30.0741 54.619C29.729 54.619 29.4496 54.3396 29.4496 53.9945C29.4496 53.6495 29.729 53.3701 30.0741 53.3701C30.4191 53.3701 30.6985 53.6495 30.6985 53.9945C30.6985 54.3396 30.4191 54.619 30.0741 54.619ZM36.9936 55.5651L36.4707 53.6855C36.3056 53.0886 36.1088 52.3689 35.9839 51.8313H35.9712C35.9987 52.3626 36.0156 52.9277 36.022 53.5564L36.0432 55.7662L35.7765 55.8297L34.843 53.8781C34.5678 53.3003 34.3265 52.769 34.1254 52.2737H34.117C34.2376 52.8155 34.39 53.5458 34.5212 54.1978L34.8917 56.0668L34.5572 56.1472L33.7127 51.7826L34.1614 51.6746L35.1266 53.6516C35.3679 54.1575 35.5732 54.6084 35.7489 55.0402H35.7616C35.7257 54.5851 35.7087 54.0877 35.7003 53.5141L35.6833 51.3085L36.1321 51.2005L37.3365 55.4784L36.9936 55.5609V55.5651ZM39.7728 54.6126L39.0129 53.404L38.0815 53.7448L38.289 55.1566L37.9376 55.2857L37.3047 50.7877L37.7154 50.6375L40.139 54.4793L39.777 54.6126H39.7728ZM40.992 54.0792L40.1982 52.3689L38.3186 50.4237L38.6912 50.2501L39.5653 51.1963C39.8045 51.4545 39.995 51.6662 40.2046 51.9096L40.2131 51.9054C40.1623 51.609 40.1263 51.3063 40.0839 50.955L39.9315 49.6744L40.3041 49.5008L40.5284 52.208L41.3264 53.9247L40.9941 54.0771L40.992 54.0792ZM44.9206 51.8694L42.8039 48.7832L42.7976 48.7875L42.6388 49.3844L42.3298 49.0605L42.533 48.3133L42.7891 48.1376L45.2106 51.6704L44.9206 51.8694ZM46.6626 50.6205C46.5822 50.7306 46.4954 50.811 46.4256 50.8597L46.1229 50.4935C46.1927 50.4533 46.2541 50.3856 46.3367 50.2903C46.47 50.1189 46.5356 49.886 46.506 49.6109C46.4785 49.2997 46.3388 48.9272 46.053 48.5059L46.0446 48.5144C46.1144 48.834 46.0573 49.1029 45.8498 49.2743C45.4752 49.5833 44.8656 49.3357 44.3999 48.7726C43.8834 48.1482 43.7141 47.365 44.1374 47.0137C44.5629 46.6602 45.2783 46.9925 45.9768 47.8349C46.578 48.561 46.8447 49.196 46.9018 49.6786C46.9484 50.0596 46.8531 50.394 46.6626 50.6205ZM48.5783 48.9674C48.3624 49.1812 48.0681 49.2616 47.8755 49.2574L47.63 48.8679C47.7781 48.8679 48.0639 48.8171 48.2438 48.6393C48.5761 48.3091 48.3454 47.8688 48.0914 47.619C47.666 47.1957 47.2426 47.255 46.9929 47.5026L46.8489 47.6444L46.542 47.3354L46.6859 47.1915C46.8743 47.0052 46.959 46.6136 46.6013 46.2538C46.36 46.0104 46.0488 45.8918 45.8096 46.1289C45.6572 46.2813 45.6149 46.5353 45.6255 46.711L45.2614 46.4781C45.2445 46.2622 45.3228 45.9511 45.5302 45.7458C45.907 45.3711 46.4298 45.5574 46.7981 45.9257C47.1093 46.239 47.2553 46.6221 47.1558 46.9925L47.1643 47.001C47.4733 46.8422 47.9454 46.9332 48.3666 47.3587C48.8492 47.8455 49.0334 48.5081 48.574 48.9632L48.5783 48.9674ZM50.4346 46.8401L49.5435 46.0887L48.7349 47.0475L48.4428 46.802L47.1283 44.118L47.3823 43.8174L49.4186 45.5341L49.662 45.2441L50.0091 45.5383L49.7657 45.8262L50.6569 46.5776L50.4346 46.8401ZM52.7524 43.7285C52.6106 43.9571 52.3502 44.1434 52.1364 44.1879L51.7745 43.8577C51.9946 43.8026 52.2296 43.6714 52.3608 43.4597C52.5534 43.1443 52.4053 42.7993 52.0221 42.5644C51.6686 42.3463 51.3892 42.3485 50.9934 42.5495C50.5341 42.8036 50.0663 42.848 49.535 42.5178C48.9445 42.1558 48.6968 41.578 48.9826 41.1144C49.1328 40.871 49.3318 40.7503 49.4927 40.7017L49.8377 41.0319C49.7213 41.0679 49.5117 41.1589 49.3784 41.3727C49.1773 41.6986 49.4101 42.0119 49.6684 42.1707C50.0219 42.3887 50.2843 42.3506 50.6886 42.1453C51.1839 41.8955 51.6178 41.8807 52.1745 42.2215C52.7587 42.5813 53.0953 43.1655 52.7482 43.7264L52.7524 43.7285ZM53.5504 42.2469L49.6112 40.1958L50.3097 38.8559L50.7373 39.0782L50.206 40.0984L51.4506 40.7461L51.9523 39.7809L52.3735 40.001L51.8718 40.9663L53.2922 41.7071L53.851 40.6318L54.2785 40.8541L53.5525 42.249L53.5504 42.2469ZM55.0977 39.0782C54.85 39.7745 53.8192 39.9587 52.5513 39.5078C51.222 39.0337 50.5383 38.2061 50.7902 37.5012C51.0463 36.7815 52.0878 36.627 53.3281 37.0694C54.7696 37.5816 55.3348 38.4072 55.0956 39.0782H55.0977ZM55.9634 36.0915C55.8364 36.6503 55.2311 36.9551 53.8891 36.6482L51.3384 36.0661L51.421 35.7105L53.9843 36.2968C54.9538 36.5191 55.4279 36.3413 55.5105 35.9772C55.6036 35.5729 55.2374 35.2173 54.2807 34.9972L51.7173 34.4108L51.7978 34.0552L54.323 34.6331C55.6523 34.9379 56.0968 35.503 55.9634 36.0936V36.0915ZM56.2704 34.178L51.8697 33.5747L51.9184 33.217L55.8428 33.7547L56.0058 32.5693L56.482 32.6349L56.2704 34.178Z" fill="#191919"/>
<path d="M6.72067 36.7586C7.57582 36.5363 8.39921 36.041 8.25739 35.4949C8.11558 34.953 7.19693 34.9022 6.25288 35.1499C5.33423 35.3891 4.58704 35.8971 4.7225 36.4114C4.85797 36.93 5.74487 37.0126 6.72067 36.7586Z" fill="#191919"/>
<path d="M37.8827 6.70956C38.2383 6.86407 38.6447 6.74342 38.7866 6.41957C38.9242 6.09995 38.7463 5.71047 38.3907 5.55172C38.0267 5.39297 37.6139 5.5242 37.4721 5.84171C37.3303 6.16345 37.5165 6.54869 37.8827 6.70956Z" fill="#191919"/>
<path d="M53.2266 37.4375C52.3947 37.1412 51.4274 37.1052 51.2263 37.6725C51.0252 38.2355 51.7512 38.8113 52.6699 39.1393C53.5631 39.4569 54.4733 39.4378 54.6638 38.9023C54.8564 38.3625 54.177 37.7762 53.2266 37.4375Z" fill="#191919"/>
<path d="M5.98392 24.418L5.81882 25.1906L7.12271 25.2075C7.41904 25.2118 7.68363 25.2287 7.94398 25.2435V25.235C7.69633 25.1419 7.44021 25.0424 7.18621 24.9366L5.98392 24.4159V24.418Z" fill="#191919"/>
<path d="M43.6485 21.2454C43.5808 21.0084 43.3797 20.839 43.1341 20.8115C43.096 20.8094 43.0579 20.8094 43.0177 20.8179L40.556 21.3068V19.9627C40.556 19.569 40.2258 19.2473 39.8236 19.2473H32.0553C31.9304 19.2473 31.831 19.1499 31.8288 19.0293V19.025L31.8246 17.0861C31.8246 16.6903 31.4965 16.3707 31.0922 16.3707H28.9374C28.5331 16.3707 28.2051 16.6903 28.2051 17.0861L28.2008 19.025V19.0293C28.2008 19.1499 28.0992 19.2473 27.9743 19.2473H20.2082C19.8039 19.2473 19.4758 19.569 19.4758 19.9627V21.3068L17.0119 20.8179C16.9738 20.8094 16.9357 20.8094 16.8976 20.8115C16.6521 20.839 16.451 21.0084 16.3833 21.2454C16.3706 21.2899 16.3663 21.3386 16.3706 21.3851L18.5487 40.7974L18.6227 41.5002C18.7286 42.0844 19.0948 42.6072 19.6409 42.9374L29.2105 48.0894C29.4687 48.1932 29.7397 48.2461 30.0148 48.2461C30.2879 48.2461 30.5588 48.1932 30.8192 48.0894L40.3888 42.9374C40.9349 42.6072 41.3011 42.0844 41.4069 41.5002L41.481 40.7974L43.6591 21.3851C43.6633 21.3386 43.6591 21.2899 43.6464 21.2454H43.6485ZM20.2209 19.9733H28.2008C28.6157 19.9733 28.9501 19.6452 28.9501 19.2409V17.5666C28.9501 17.3126 29.1555 17.1052 29.4137 17.0946H30.6139C30.8742 17.1052 31.0795 17.3126 31.0795 17.5666V19.2409C31.0795 19.6452 31.4161 19.9733 31.8288 19.9733H39.8088V21.455L38.6404 21.6878V21.165C38.6404 20.7586 38.3017 20.4263 37.8847 20.4263H34.8705C34.4536 20.4263 34.1149 20.7586 34.1149 21.165V22.5853L33.01 22.8033V21.165C33.01 20.7798 32.6882 20.4644 32.2924 20.4644H27.7351C27.3393 20.4644 27.0176 20.7777 27.0176 21.165V22.8033L25.9105 22.5853V21.165C25.9105 20.7586 25.5719 20.4263 25.1549 20.4263H22.1428C21.7258 20.4263 21.3872 20.7586 21.3872 21.165V21.6878L20.2187 21.455V19.9733H20.2209ZM37.8487 21.8445L34.9086 22.4266V21.1989H37.8487V21.8424V21.8445ZM32.2966 22.9452L30.6075 23.2796C30.5292 23.3008 30.1461 23.3516 30.0169 23.3516C29.8878 23.3516 29.5047 23.3008 29.4264 23.2796L27.7351 22.9452V21.1629C27.7351 21.1629 27.7351 21.1629 27.7373 21.1629H32.2966V22.9452ZM25.121 22.4266L22.183 21.8445V21.201H25.121V22.4287V22.4266ZM40.6513 41.371C40.5941 41.7203 40.3359 42.0971 39.9781 42.3003L30.4932 47.4058C30.362 47.4566 30.1947 47.4841 30.0169 47.4841C29.8391 47.4841 29.6719 47.4566 29.5407 47.4058L20.0558 42.3003C19.698 42.0971 19.4419 41.7203 19.3826 41.371L17.2109 21.9778C17.2088 21.8424 17.2617 21.6328 17.6575 21.7154L29.2528 24.0141C29.3333 24.0374 29.4179 24.0522 29.5026 24.0649C29.6719 24.0924 29.8434 24.1051 30.0148 24.1051C30.1863 24.1051 30.3599 24.0924 30.5271 24.0649C30.6117 24.0522 30.6964 24.0374 30.7768 24.0141L42.3742 21.7154C42.768 21.6328 42.823 21.8424 42.8209 21.9778L40.6513 41.371Z" fill="#191919"/>
<path d="M35.2325 27.8705C36.5766 27.8705 37.6053 27.2206 37.6053 26.1644C37.6053 25.1082 36.5766 24.4583 35.2325 24.4583C33.8884 24.4583 32.8576 25.1061 32.8576 26.1644C32.8576 27.2228 33.8842 27.8705 35.2325 27.8705ZM35.2325 25.1886C35.8506 25.1886 36.3522 25.5633 36.3522 26.1602C36.3522 26.7571 35.8506 27.1317 35.2325 27.1317C34.6144 27.1317 34.1107 26.7571 34.1107 26.1602C34.1107 25.5633 34.6123 25.1886 35.2325 25.1886Z" fill="#191919"/>
<path d="M31.6658 28.0527V28.8126H34.589V29.9577H35.7765V28.8126H38.7991V28.0527H31.6658Z" fill="#191919"/>
<path d="M33.3717 29.1787H32.1949V30.7641C32.1949 31.0816 32.3811 31.4076 32.868 31.4076H38.3862V30.6562H33.3717V29.1787Z" fill="#191919"/>
<path d="M26.3317 28.3408V27.5999H25.9316V25.5192C25.9316 25.2462 25.7051 25.0197 25.4321 25.0197H21.5797V25.8092H24.8055V27.5978H23.4805V26.4103H22.4179V27.5978H21.2537V28.3556H24.0287C23.2455 28.635 22.7121 29.1938 22.7121 29.8754C22.7121 30.8575 23.8276 31.592 25.2056 31.592C26.5836 31.592 27.6991 30.8596 27.6991 29.8754C27.6991 29.1811 27.1424 28.6138 26.3317 28.3387V28.3408ZM25.2035 30.8469C24.5261 30.8469 23.9779 30.4405 23.9779 29.8733C23.9779 29.306 24.5261 28.8996 25.2035 28.8996C25.8808 28.8996 26.4269 29.306 26.4269 29.8733C26.4269 30.4405 25.8787 30.8469 25.2035 30.8469Z" fill="#191919"/>
<path d="M28.9479 26.1521H27.8959V24.8037H26.7042V28.2984H27.8959V26.9458H28.9479V26.1521Z" fill="#191919"/>
<path d="M40.8608 31.9894L39.2521 32.3429C39.1463 32.3725 38.9664 32.3979 38.8563 32.3979H35.241C33.3148 32.3979 31.1981 33.5621 31.1981 37.4441V42.1474C31.1981 42.4924 30.8573 42.4924 30.7451 42.4924C30.6329 42.4924 30.2942 42.5072 30.2942 42.1474V37.4441C30.2942 35.1517 28.6199 32.3979 25.8386 32.3979H20.0579C19.9457 32.3979 19.8568 32.4889 19.8568 32.599V37.0589C19.8568 37.171 19.9203 37.3256 20.0007 37.4039L21.184 38.5871C21.2623 38.6654 21.3279 38.82 21.3279 38.9321L21.3342 40.653C21.3342 42.0056 23.1821 42.0056 23.3536 42.0056C23.525 42.0056 25.4131 42.0183 25.4131 40.653C25.4131 40.653 25.3898 38.4263 25.3898 37.8569C25.3898 37.2875 24.9707 36.8747 24.7379 36.8747C24.5051 36.8747 24.4966 37.1075 24.4966 37.2853V40.653C24.4966 41.5547 23.5039 41.5357 23.3536 41.5357C23.2033 41.5357 22.2106 41.542 22.2106 40.653V38.9724C22.2106 38.8623 22.1449 38.7057 22.0666 38.6273L21.1416 37.7023C21.0633 37.624 20.9977 37.4674 20.9977 37.3573V33.2657C20.9977 33.1536 21.0887 33.0625 21.1988 33.0625H25.8407C27.3563 33.0625 28.3829 35.5983 28.3829 36.6144V42.8121C28.3829 42.9242 28.4739 43.0153 28.5839 43.0153H31.8945C32.974 43.0153 32.9824 41.9484 32.9824 41.9484V36.6165C32.9824 35.0734 34.2313 33.0646 35.241 33.0646H38.6171C38.7293 33.0646 38.7907 33.1514 38.7568 33.2573C38.7568 33.2573 38.0138 35.9878 37.9165 36.191C37.8191 36.3963 37.599 36.4641 37.4889 36.4641H36.24C36.1279 36.4641 35.8696 36.4768 36.039 36.6609C36.2062 36.8451 36.6295 36.8578 36.7396 36.8578H37.4889C37.6011 36.8578 37.6836 36.9446 37.6434 37.0483C37.6434 37.0483 37.3704 38.2125 37.1566 38.6654C36.9428 39.1163 36.7459 39.1163 36.6338 39.1163H35.4569C35.2791 39.1163 35.0759 39.1988 35.2537 39.3893C35.4315 39.5799 35.7299 39.5439 35.9204 39.5439H36.729C36.8391 39.546 36.8878 39.6603 36.837 39.7598C36.837 39.7598 36.657 40.3292 36.5152 40.7356C36.3734 41.1399 35.7109 41.1991 35.6008 41.1991H34.697C34.5848 41.1991 34.4112 41.2351 34.4938 41.396C34.5763 41.5569 35.0124 41.5928 35.1245 41.5928H36.2189C36.7311 41.5928 37.2031 41.1864 37.5334 40.5705C37.8636 39.9545 37.8445 39.7767 37.8805 39.6243C37.9165 39.4719 37.889 39.4634 37.8276 39.4825C37.6138 39.546 37.2899 39.5354 37.2899 39.5354C37.2899 39.5354 38.0625 39.2391 38.4668 38.276C38.7229 37.6642 38.8838 37.1054 38.9156 36.9911C38.9473 36.8747 38.9134 36.8599 38.8711 36.8726C38.634 36.9551 38.4075 36.9319 38.4075 36.9319C38.4075 36.9319 39.0849 36.6461 39.7157 35.1602C40.3464 33.6743 40.9793 32.1227 40.9793 32.1227C41.0238 32.0211 40.9709 31.9618 40.865 31.9915L40.8608 31.9894Z" fill="#191919"/>
<path d="M23.1017 35.0967C22.9895 35.0967 22.8646 35.1814 22.8223 35.283L22.4053 36.2884C22.363 36.39 22.418 36.4747 22.5302 36.4747H23.125C23.2372 36.4747 23.362 36.39 23.4044 36.2884L23.8193 35.283C23.8616 35.1793 23.8066 35.0967 23.6944 35.0967H23.0996H23.1017Z" fill="#191919"/>
</svg>
