<svg width="122" height="36" viewBox="0 0 122 36" fill="none" xmlns="http://www.w3.org/2000/svg">
<path fill-rule="evenodd" clip-rule="evenodd" d="M80.3955 16.0903C80.3625 16.0826 80.3244 16.0903 80.2888 16.0903C79.857 15.8108 79.4087 15.8312 78.954 16.0229C78.8423 16.0699 78.7305 16.1233 78.6124 16.0483C78.3355 15.8731 78.0371 15.9201 77.7399 15.9671C77.4452 16.0141 77.1557 16.0903 76.8547 16.0991C76.6185 16.1055 76.508 16.0407 76.5219 15.7715C76.5461 15.2457 76.5842 14.7212 76.6591 14.1992C76.7912 13.2772 76.9918 12.3615 76.908 11.4204C76.9283 11.3658 76.9588 11.3112 76.9664 11.2553C77.1189 10.0996 77.0604 10.0742 78.4155 9.89509C78.4282 9.89382 78.4397 9.89509 78.4511 9.89128C78.907 9.80619 79.3833 9.7719 79.7567 9.45185C79.9624 9.27532 80.0412 9.04545 79.9472 8.77366C79.8596 8.51966 79.6729 8.46632 79.4328 8.51585H79.4303C78.968 8.41425 78.5044 8.40536 78.0409 8.51585C77.5418 8.59332 77.0414 8.6238 76.5372 8.57427C75.8907 8.50823 75.2786 8.7 74.6614 8.83335C74.4886 8.87019 74.3299 8.97306 74.1991 9.10006C74.0505 9.24484 73.9146 9.40105 73.9844 9.63347C74.0518 9.85445 74.18 9.99288 74.4264 10.0462C74.8125 10.13 75.3103 10.7447 75.3383 11.1029C75.4285 12.298 75.3205 13.4664 74.8785 14.5916C74.8201 14.7402 74.7833 14.9142 74.8417 15.0501C75.0728 15.5886 74.8912 16.0445 74.6055 16.4928C74.561 16.5602 74.5496 16.6478 74.5217 16.7265C74.3807 16.8827 74.3185 17.0847 74.2867 17.2777C74.2372 17.5876 74.3375 17.867 74.6093 18.0537C74.8798 18.2404 75.1427 18.4169 75.4894 18.1807C75.7625 17.994 76.0851 17.9572 76.4165 17.9953C76.7391 18.0321 77.0706 18.027 77.3703 17.9089C77.7666 17.7514 78.1704 17.6981 78.5895 17.6587C79.1953 17.6028 79.81 17.6562 80.4057 17.4898C80.8438 17.3679 81.2197 17.0453 81.2185 16.7799C81.2159 16.4941 80.8692 16.1995 80.3955 16.0852V16.0903ZM76.795 17.7413C76.8026 17.7413 76.8077 17.7413 76.8153 17.74C76.814 17.7425 76.8115 17.7451 76.8102 17.7476C76.8052 17.7451 76.8001 17.7438 76.7963 17.7413H76.795Z" fill="#5317AB"/>
<path fill-rule="evenodd" clip-rule="evenodd" d="M87.8798 16.8164C87.7592 16.2018 87.7744 15.582 87.7693 14.9609C87.763 14.392 87.9192 13.8255 87.7896 13.2566C87.7363 13.0724 87.683 12.8883 87.6296 12.7041C87.6271 12.633 87.6296 12.5606 87.6233 12.4895C87.5331 11.382 87.3985 10.2746 87.5572 9.16076C87.6029 8.84071 87.6093 8.51432 87.5598 8.193C87.4899 7.73961 87.1064 7.2697 86.7952 7.23541C86.4714 7.19985 85.9964 7.57323 85.8363 7.98853C85.8325 7.99869 85.8351 8.01266 85.8338 8.02409C85.7284 8.13585 85.7182 8.28317 85.6878 8.42161C85.5557 9.01471 85.6395 9.6167 85.6243 10.2136C85.6204 10.3838 85.59 10.5743 85.4185 10.5819C84.9778 10.6048 84.5638 10.8181 84.1142 10.7534C84.0088 10.2555 84.0278 9.75513 84.0748 9.25347C84.1459 8.49146 84.0355 7.80311 83.3611 7.30145C83.1033 7.10968 82.8886 7.2316 82.6575 7.29764C82.4403 7.35987 82.4441 7.53767 82.4251 7.72564C82.3768 8.17903 82.6029 8.60068 82.5902 9.02995C82.5559 10.2149 82.7489 11.3884 82.6816 12.5809C82.6346 13.4229 82.7337 14.2751 82.5787 15.1184C82.4898 15.281 82.4759 15.4512 82.486 15.6353C82.5445 16.7123 82.5457 17.7893 82.4543 18.8663C82.4098 19.3882 82.3298 19.9178 82.4543 20.4398C82.5368 20.7891 82.9293 21.0418 83.3369 21.0304C83.8018 21.0177 84.0367 20.8348 84.1015 20.3928C84.1866 19.8035 84.2399 19.2104 84.2399 18.6148C84.2463 18.517 84.2476 18.4192 84.2387 18.3189C84.3746 17.5797 84.6044 16.8571 84.6095 16.0951C84.6146 15.4588 84.3936 14.8479 84.4317 14.2053C84.4596 13.7176 84.4787 13.2236 84.4177 12.7333C84.4076 12.652 84.3987 12.5657 84.4609 12.4958C84.687 12.2393 85.5798 12.3434 85.6687 12.6609C85.7576 12.9784 85.8973 13.2832 85.9189 13.6223C85.9659 14.3628 86.0218 15.1032 86.0967 15.8398C86.2008 16.8558 86.2669 17.8553 85.891 18.8472C85.7043 19.34 85.8846 19.834 86.1754 20.2696C86.3913 20.6671 86.7965 20.7827 87.18 20.8361C87.7325 20.9135 87.8874 20.7294 87.8519 20.1782C87.8138 19.58 87.8519 18.9844 87.8938 18.3887C87.9319 17.8655 87.9814 17.3359 87.8785 16.8139L87.8798 16.8164ZM87.4391 8.79626C87.4391 8.76959 87.4366 8.74292 87.4353 8.71625C87.4378 8.74292 87.4391 8.76959 87.4391 8.79626Z" fill="#5317AB"/>
<path fill-rule="evenodd" clip-rule="evenodd" d="M62.5075 12.0908C63.6632 12.4515 65.647 12.6941 66.7913 11.212C67.3209 10.5274 67.5495 9.79083 67.2396 8.945C66.6325 7.88326 65.6559 7.43113 64.4951 7.30921C63.8067 7.23682 63.1336 7.30667 62.5494 7.73848C62.0579 7.95692 61.7048 8.30745 61.56 8.83197C61.4381 9.27139 61.4178 9.7286 61.3835 10.182C61.3403 10.77 61.9525 11.9181 62.5062 12.0908H62.5075ZM67.2688 9.47968C67.2688 9.47968 67.2637 9.48984 67.2624 9.49619C67.2599 9.47333 67.2574 9.45047 67.2535 9.42888C67.2688 9.44031 67.2777 9.45555 67.2688 9.48095V9.47968ZM63.0599 9.76289C63.0739 9.53429 63.2365 9.4365 63.4194 9.36029C63.9147 9.15455 64.4468 9.07962 64.9688 9.10121C65.379 9.11645 65.7867 9.28663 65.9315 9.76162C65.9137 10.0664 65.8286 10.3344 65.6051 10.5643C65.3993 10.7764 65.1872 10.9085 64.8824 10.8475C64.8024 10.831 64.7122 10.8208 64.6335 10.8373C63.9477 10.9923 63.474 10.6595 63.0574 10.1744C62.9329 10.0283 62.9698 9.90005 63.0599 9.76289Z" fill="#5317AB"/>
<path fill-rule="evenodd" clip-rule="evenodd" d="M70.6925 13.1462C70.5655 13.0878 70.4474 12.9493 70.2988 13.0243C69.7337 13.31 69.1457 13.1779 68.5729 13.1094C68.1919 13.0624 67.7982 13.1678 67.4375 13.0357C67.172 12.9379 66.9269 12.9214 66.6717 13.0027C66.3478 13.1068 66.0163 13.1208 65.681 13.1259C64.9152 13.1373 64.1557 13.0306 63.3874 13.0586C62.6558 13.0852 61.9218 13.0332 61.189 13.004C60.7407 12.9862 60.2606 12.7766 59.8555 13.0433C59.4338 13.3215 59.0033 13.3824 58.5296 13.338C57.8183 13.1957 57.5466 13.343 57.3078 14.0009C57.2875 14.0568 57.2684 14.1165 57.2329 14.1635C57.0144 14.4569 57.1147 14.7198 57.2849 14.9928C57.464 15.2786 57.732 15.2405 57.9885 15.196C58.2222 15.1566 58.4495 15.0728 58.6781 15.0042C58.8737 14.9445 59.0693 14.881 59.2763 14.9522C59.7361 15.1109 60.2022 15.0665 60.6543 14.9547C61.5598 14.7312 62.4514 14.7274 63.3429 15.0131C63.5576 15.0817 63.6452 15.2036 63.6401 15.4348C63.6312 15.925 63.6071 16.4178 63.682 16.9067C63.7163 17.129 63.7379 17.4008 63.9525 17.5011C64.4809 17.75 64.8492 17.7754 65.2226 17.2128C65.328 17.0553 65.3915 16.8699 65.4715 16.6959C65.6925 16.2146 65.6683 16.0977 65.2848 15.7307C65.2632 15.6824 65.2403 15.6329 65.2188 15.5834C65.3216 15.1084 65.5045 14.9179 65.9376 14.9763C66.5701 15.0614 67.1962 15.0322 67.8274 15.0068C68.3659 14.9852 68.9056 15.0169 69.4454 15.0068C69.9762 14.9966 70.497 14.9103 70.9694 14.6512C71.1739 14.5394 71.4114 14.4276 71.4126 14.1394C71.4126 13.6529 71.1751 13.3316 70.6938 13.1462H70.6925Z" fill="#5317AB"/>
<path fill-rule="evenodd" clip-rule="evenodd" d="M69.73 18.9008C69.4671 18.8779 69.2119 18.8347 68.9604 18.7535C68.7712 18.7293 68.5832 18.695 68.3927 18.6811C67.5316 18.6201 66.6705 18.6176 65.8107 18.6849C64.6982 18.77 63.5844 18.6265 62.4744 18.7077C61.9232 18.7484 61.3784 18.7547 60.8411 18.5998C60.7103 18.488 60.7497 18.3483 60.7649 18.2035C60.8056 17.8009 60.9021 17.406 60.8818 16.9958C60.8627 16.6147 60.624 16.4077 60.3242 16.2731C60.0093 16.1309 59.6867 16.1258 59.3844 16.3671C59.0339 16.6465 58.9564 17.0237 58.9856 17.4263C59.0288 18.0334 58.945 18.5896 58.5056 19.0481C58.4751 19.0811 58.4624 19.1307 58.4408 19.1726C58.2808 19.391 58.2224 19.6501 58.3405 19.8825C58.6453 20.482 59.5978 20.8401 60.2633 20.6534C60.4563 20.5988 60.6621 20.5759 60.864 20.5632C61.4977 20.5264 62.1328 20.5023 62.7665 20.4743C63.4764 20.3435 64.1978 20.4362 64.9128 20.3613C66.3276 20.2114 67.7386 20.0806 69.1458 20.4743C70.0615 20.7309 70.3498 20.4527 70.2799 19.4786C70.252 19.0951 70.1123 18.9363 69.73 18.9021V18.9008Z" fill="#5317AB"/>
<path fill-rule="evenodd" clip-rule="evenodd" d="M54.9557 10.3189C54.576 10.2846 54.2191 10.3646 53.8826 10.5412C53.6768 10.6364 53.5206 10.5678 53.3949 10.3951C53.2539 10.0192 53.2209 9.6293 53.2349 9.22925C53.2463 8.89396 53.2476 8.55741 53.226 8.22339C53.2019 7.84111 52.9491 7.56044 52.6291 7.51726C51.7909 7.4055 51.1584 8.19164 51.4848 8.95492C51.6156 9.26227 51.6473 9.56072 51.6207 9.89474C51.5521 10.7444 51.5724 11.6067 51.7096 12.4386C51.8201 13.1079 51.8086 13.7378 51.6854 14.3868C51.627 14.6916 51.6219 15.004 51.6461 15.3177C51.6651 15.5717 51.8124 15.6759 52.0283 15.7178C52.9021 15.8892 53.5702 15.3507 53.6159 14.4668C53.6502 13.8166 53.5219 13.1752 53.5308 12.5288C53.5371 12.0779 53.5486 12.0601 54.002 12.1211C54.336 12.1655 54.6649 12.229 55.0027 12.1732C55.4511 12.0995 55.6847 11.7248 55.6695 11.1013C55.6581 10.6275 55.4168 10.3596 54.957 10.3189H54.9557ZM54.1683 11.0098C54.1721 11.0162 54.176 11.0238 54.181 11.0301C54.1747 11.0276 54.1696 11.0251 54.1633 11.0225C54.1658 11.0174 54.1671 11.0136 54.1683 11.0098Z" fill="#5317AB"/>
<path fill-rule="evenodd" clip-rule="evenodd" d="M48.3543 14.702C48.8763 14.7934 49.4122 14.561 49.957 14.6016C50.258 14.6245 50.3749 14.4213 50.2872 14.1177C50.239 13.9526 50.2326 13.7888 50.2314 13.6212C50.2314 13.1767 50.1018 13.0217 49.6472 12.9125H49.6408C49.383 12.8122 49.1176 12.8338 48.8509 12.8553C48.781 12.8503 48.7111 12.8452 48.6413 12.8414C48.5257 12.7296 48.3047 12.802 48.2235 12.6052C48.273 12.5645 48.32 12.5277 48.3657 12.4921C49.0922 11.9232 49.5621 11.2589 49.2306 10.2709C49.1633 10.0702 49.1671 9.84667 49.1277 9.63458C49.0477 9.19769 48.9474 8.76715 48.7315 8.37345C48.4813 7.91751 48.2019 7.80067 47.7269 8.03308C47.3941 8.19564 47.0919 8.20326 46.7617 8.08134C46.6156 8.028 46.4658 7.98228 46.3146 7.94926C45.3824 7.74225 44.4502 8.01403 43.5168 7.9518C43.2602 7.91243 43.0176 7.94926 42.7967 8.0915C42.3788 8.22739 41.9584 8.39123 41.867 8.87764C41.7476 9.50122 42.1591 9.95208 42.8437 9.947C43.339 9.94446 43.8355 9.87461 44.3308 9.83397C44.4718 9.85175 44.6268 9.84032 44.7538 9.89366C45.2313 10.0931 45.6656 9.9724 46.1 9.76412C46.3591 9.64093 46.6232 9.52408 46.8912 9.42502C47.3497 9.25484 47.5478 9.36533 47.8018 9.78444C48.0431 10.182 47.9402 10.568 47.8513 10.963C47.7472 11.4304 47.6062 11.8927 47.7586 12.3753C47.8132 12.548 47.704 12.5442 47.5872 12.5518C47.1655 12.5785 46.7515 12.4921 46.3337 12.4743C46.1876 12.4185 46.0936 12.3118 46.0835 12.1581C46.0733 11.9943 46.1025 11.8266 46.0962 11.6628C46.072 11.1307 45.7977 10.7433 45.3494 10.4868C44.9862 10.2785 44.6636 10.4169 44.3728 10.6684C43.6501 11.0773 43.5231 11.2996 43.8254 11.8419C44.0718 12.2826 44.087 12.6928 43.8711 13.1297C43.5752 13.3748 43.1853 13.2097 42.8678 13.357C42.61 13.3608 42.3661 13.4154 42.1502 13.564C41.8378 13.6275 41.6282 13.8409 41.4352 14.0708C41.2168 14.3298 41.2079 14.7718 41.4073 15.0741C41.6295 15.4106 41.8505 15.4868 42.2709 15.3662C42.6493 15.257 43.0316 15.182 43.4266 15.1401C44.2356 15.0538 45.0548 15.1642 45.8574 14.9953C46.6804 14.8226 47.4805 14.547 48.3581 14.7007L48.3543 14.702ZM42.1655 13.9806C42.168 13.9946 42.1705 14.0073 42.1731 14.0212C42.168 14.0073 42.1655 13.9933 42.1655 13.9806Z" fill="#5317AB"/>
<path fill-rule="evenodd" clip-rule="evenodd" d="M51.4467 17.1567C51.0848 16.6741 50.5539 16.3769 50.1284 15.9616C49.7855 15.6263 49.3613 15.5615 48.9029 15.7724C48.4685 15.9718 48.0113 16.1229 47.5858 16.3375C47.154 16.556 46.6956 16.749 46.392 17.1605C46.2663 17.2507 46.2333 17.3967 46.1952 17.5301C46.0707 17.9695 46.0948 18.428 46.0301 18.875C45.9374 19.5151 46.1977 20.0307 46.6079 20.493C47.0004 20.9642 47.53 21.1598 48.118 21.1979C48.6311 21.2322 49.1429 21.1865 49.656 21.1433C50.3583 21.0849 50.86 20.7267 51.3032 20.2352C51.7604 19.7272 52.0563 19.1722 51.8595 18.4534C51.7388 18.0152 51.7998 17.5199 51.448 17.1554L51.4467 17.1567ZM48.0735 17.8742C48.6654 17.6164 49.2483 17.7549 49.7512 18.0597C49.99 18.2045 50.1703 18.5308 50.2846 18.8318C50.3329 18.9588 50.277 19.0897 50.1907 19.1989C49.8681 19.6066 49.4769 19.8656 48.9257 19.792C48.7136 19.759 48.5003 19.7374 48.2907 19.6929C47.7789 19.5824 47.5249 19.2192 47.5096 18.6896C47.4969 18.2591 47.723 18.0279 48.0761 17.8742H48.0735Z" fill="#5317AB"/>
<path fill-rule="evenodd" clip-rule="evenodd" d="M121.797 16.9411C121.375 16.602 120.877 16.682 120.396 16.6947C119.277 16.7226 118.157 16.842 117.039 16.6629C116.494 16.3912 116.54 15.8895 116.519 15.3942C116.482 14.5827 116.406 13.7711 116.102 13.0078C115.909 12.524 115.594 12.3842 115.064 12.496C114.692 12.5748 114.55 12.7932 114.544 13.3177C114.534 14.2055 114.556 15.0919 114.606 15.9771C114.626 16.3353 114.504 16.4902 114.145 16.5194C113.872 16.541 113.594 16.5232 113.318 16.5131C112.942 16.5004 112.665 16.1803 112.785 15.8336C112.993 15.2253 112.832 14.683 112.576 14.1432C112.522 13.8499 112.493 13.5501 112.404 13.2669C112.317 12.9913 112.166 12.7284 111.828 12.6979C111.301 12.6497 110.707 13.3152 110.798 13.8333C110.96 14.749 110.971 15.6685 110.83 16.588C110.781 16.7137 110.697 16.7988 110.555 16.8103C109.751 17.016 108.926 17.1087 108.109 17.2332C107.901 17.2649 107.747 17.345 107.735 17.5824C107.518 18.1578 107.735 18.9617 108.589 18.8474C108.754 18.8258 108.924 18.8334 109.09 18.8423C110.142 18.8969 111.159 18.5604 112.226 18.6531C113.977 18.8067 115.735 18.5591 117.499 18.6709C118.754 18.7496 120.028 18.5388 121.293 18.46C121.45 18.4499 121.557 18.3864 121.652 18.2619C121.896 17.9419 121.964 17.5723 121.99 17.1875C121.999 17.0465 121.945 16.9563 121.797 16.9398V16.9411Z" fill="#5317AB"/>
<path fill-rule="evenodd" clip-rule="evenodd" d="M108.996 10.3673C110.62 10.4054 112.248 10.1768 113.866 10.4612C114.976 10.7089 116.036 10.3444 117.113 10.1895V10.192C117.494 10.211 117.878 10.2301 118.261 10.2491L118.283 10.2669H118.312C118.389 10.385 118.467 10.5057 118.544 10.6263C118.646 10.9692 118.745 11.3096 118.783 11.6703C118.886 12.6647 118.815 13.6465 118.682 14.6345C118.543 15.6505 119.008 16.1065 120.019 16.0214C120.382 15.9909 120.601 15.7496 120.54 15.4016C120.472 15.0193 120.502 14.6383 120.502 14.2561C120.502 13.8979 120.56 13.5322 120.433 13.188C120.281 12.7727 120.274 12.346 120.274 11.9141C120.274 11.3896 120.348 10.8664 120.287 10.338C120.185 9.44522 119.535 8.58161 118.754 8.45461C118.012 8.33269 117.258 8.37587 116.51 8.44572C115.289 8.5143 114.07 8.52319 112.848 8.45207C112.051 8.40508 111.239 8.36698 110.449 8.52954C109.788 8.66543 109.102 8.77338 108.614 9.32457C108.361 9.56588 108.231 9.8783 108.353 10.1933C108.454 10.4562 108.772 10.3622 108.999 10.3685L108.996 10.3673ZM108.486 9.82115C108.486 9.82115 108.477 9.82115 108.472 9.82115C108.476 9.81734 108.48 9.8148 108.482 9.81099C108.482 9.8148 108.483 9.81734 108.485 9.82115H108.486Z" fill="#5317AB"/>
<path d="M103.003 16.8336C102.49 16.69 102.006 16.4564 101.453 16.4348C101.016 16.417 100.565 16.5084 100.138 16.3535C99.5946 16.1566 99.0319 16.0627 98.4579 16.0258C97.7657 15.9179 97.0647 15.9623 96.3471 15.9306C96.3827 15.8963 96.3954 15.8772 96.4119 15.8696C96.511 15.8264 96.6075 15.7756 96.7091 15.7464C97.7035 15.4556 98.3042 14.7787 98.5887 13.8096C98.6827 13.4909 98.8643 13.1137 98.604 12.8216C98.0832 12.2386 97.8521 11.3953 97.0355 11.0702C96.9542 11.0384 96.718 10.9711 96.8716 10.7629C97.4457 10.5127 98.0451 10.4771 98.6586 10.5533C99.0243 10.5978 99.3469 10.4657 99.6327 10.2587C99.9972 9.99576 99.973 9.26169 99.6085 9.0369C99.1666 8.87433 98.7094 8.97594 98.2598 8.95815C97.8178 8.94037 97.372 8.97339 96.9364 8.87179C96.7218 8.82226 96.5541 8.75114 96.5529 8.45142C96.5503 8.18598 96.5706 7.89388 96.4424 7.64495C96.2201 7.21442 95.359 7.20426 95.0758 7.76434C94.9361 8.0412 94.8129 8.32823 94.6834 8.61144C94.5894 8.81718 94.47 8.98737 94.2084 8.97085C94.1805 8.99626 94.1449 8.99499 94.1106 9.00642C94.0852 9.01404 94.0585 9.02039 94.0331 9.02674C94.0903 9.00261 94.1474 8.98102 94.2084 8.97213C93.3372 9.00007 92.4685 9.03944 91.6176 9.26042C91.3737 9.32392 91.2531 9.44457 91.2124 9.68842C91.107 10.326 92.0443 11.1083 92.739 10.9534C93.4362 10.7984 94.1195 10.552 94.851 10.6232C94.9361 10.7222 95.1266 10.6295 95.1838 10.8251C94.4688 11.0029 93.9646 11.4791 93.4693 11.9935C92.819 12.6692 92.7288 13.3981 93.1175 14.2199C93.1771 14.7152 93.4832 15.0276 93.8858 15.2765C94.3138 15.5419 94.7748 15.7312 95.2498 15.895C95.3324 15.9229 95.5216 15.8785 95.4861 16.0804C95.1216 16.1503 94.7545 16.1617 94.3849 16.1668C93.7944 16.1757 93.2 16.1617 92.6209 16.3154C92.0189 16.3624 91.5579 16.6392 91.248 17.1587C90.9622 17.6476 91.1426 18.0286 91.6849 18.0909C92.1903 18.1493 92.673 18.0464 93.1505 17.8978C93.2343 17.8902 93.3194 17.8928 93.4007 17.875C95.0746 17.5156 96.7777 17.5359 98.4744 17.5105C99.399 17.4965 100.311 17.6578 101.209 17.8762C101.441 17.9334 101.705 17.9867 101.754 18.2725C101.829 18.7157 101.953 19.1539 101.912 19.6111C101.816 19.7317 101.831 19.8854 101.807 20.0226C101.611 21.1554 101.924 21.3942 103.053 21.1529C103.363 21.0869 103.487 20.8887 103.488 20.5852C103.488 20.1661 103.5 19.7483 103.506 19.3291C103.655 18.5278 103.44 17.7721 103.205 17.0202C103.173 16.9199 103.093 16.8551 103.003 16.8297V16.8336ZM102.57 17.9944C102.571 18.0058 102.573 18.0172 102.574 18.0286C102.568 18.0172 102.566 18.0058 102.57 17.9944ZM101.399 16.7802C101.346 16.8107 101.305 16.7866 101.274 16.7396C101.314 16.7447 101.356 16.7561 101.399 16.7802ZM95.2892 12.6323C95.5419 12.5549 95.7934 12.4837 96.1236 12.4964C96.6278 12.4507 96.9961 12.7987 97.3581 13.153C97.4609 13.2534 97.447 13.3372 97.3517 13.4591C96.8488 14.0979 95.9991 14.2999 95.2574 13.9493C94.9057 13.783 94.9082 13.4604 94.893 13.1543C94.8803 12.8851 95.0263 12.7123 95.2892 12.6323Z" fill="#5317AB"/>
<path d="M105.38 11.1029C105.239 10.7434 104.981 10.5415 104.596 10.4704C104.223 10.4018 103.87 10.4196 103.53 10.5961C103.353 10.6888 103.223 10.6647 103.149 10.4666C103.071 10.0297 103.064 9.58772 103.061 9.14448C103.059 8.89429 103.09 8.64282 103.022 8.3939C102.904 7.95447 102.645 7.73603 102.244 7.74619C101.863 7.75508 101.563 8.0548 101.477 8.47264C101.376 8.95906 101.523 9.41754 101.599 9.8849C101.592 9.80362 101.601 9.72234 101.618 9.64106C101.609 9.75663 101.604 9.87347 101.614 9.9865C101.509 10.9136 101.416 11.842 101.549 12.7755C101.477 13.3203 101.396 13.8639 101.335 14.41C101.303 14.7034 101.202 15.0069 101.317 15.2977C101.444 15.6229 101.671 15.8311 102.056 15.8032C102.504 15.7714 102.82 15.5657 102.909 15.1695C103.069 14.4582 102.965 13.7242 103.071 13.0053C103.295 12.2637 103.295 12.2687 104.116 12.2573C104.437 12.2535 104.761 12.3094 105.08 12.2116C105.631 12.0427 105.764 11.5537 105.38 11.1016V11.1029ZM102.506 7.99511C102.506 7.99511 102.495 7.99511 102.49 7.99257C102.495 7.98749 102.5 7.98241 102.507 7.97733C102.507 7.98241 102.507 7.98876 102.506 7.99511ZM102.639 14.7669C102.639 14.7669 102.636 14.7669 102.635 14.7669C102.648 14.7249 102.66 14.6856 102.674 14.6475C102.729 14.6767 102.704 14.7415 102.638 14.7656L102.639 14.7669Z" fill="#5317AB"/>
<path d="M43.4201 25.9099V28.5262H44.0906V28.6519H41.4935V28.5262H42.1602V23.2391H41.4935V23.1133H44.0779V23.2391H43.4188V25.6877L45.2997 23.883C45.4242 23.7699 45.5093 23.6798 45.555 23.615C45.6007 23.5502 45.6236 23.4931 45.6236 23.4448C45.6236 23.3711 45.5893 23.3191 45.522 23.2861C45.4546 23.2543 45.3467 23.2378 45.2006 23.2378H45.0889V23.1121H47.1527V23.2378C47.1362 23.2378 47.112 23.2365 47.0803 23.234C47.0485 23.2314 47.0244 23.2302 47.0079 23.2302C46.7424 23.2302 46.4846 23.2937 46.2332 23.4181C45.9817 23.5439 45.7112 23.7458 45.4204 24.0252L44.4805 24.9295L46.8377 28.5262H47.4143V28.6519H44.7511V28.5262H45.3264L43.5699 25.7689L43.4213 25.9112L43.4201 25.9099Z" fill="#5317AB"/>
<path d="M48.514 28.6505H48.2942L46.8363 25.2976H46.36V25.1719H48.4733V25.2976H47.9882L48.9331 27.4706L49.8818 25.2976H50.2297L51.1365 27.4871L51.7576 26.0838C51.7906 26.0088 51.816 25.9364 51.8325 25.8666C51.849 25.798 51.8579 25.737 51.8579 25.6862C51.8579 25.5402 51.8185 25.4398 51.7398 25.3827C51.6611 25.3255 51.5163 25.2976 51.3067 25.2976V25.1719H52.7863L52.7812 25.2976C52.6618 25.3167 52.3685 25.3776 52.2758 25.483C52.1818 25.5872 52.0687 25.7878 51.9354 26.085L50.7301 28.6517H50.5117L49.5338 26.4584L48.5152 28.6517L48.514 28.6505Z" fill="#5317AB"/>
<path d="M58.1245 28.5263H58.5969V28.652H56.5217V28.5263H57.0018V25.2979H56.5217V25.1722H57.1809C57.3802 25.1722 57.5479 25.1645 57.6863 25.148C57.8248 25.1315 57.953 25.1061 58.0711 25.0706V25.8453C58.2261 25.5913 58.414 25.3982 58.6363 25.2674C58.8586 25.1366 59.1087 25.0706 59.3882 25.0706C59.7526 25.0706 60.0384 25.1633 60.2454 25.3487C60.4524 25.5341 60.5566 25.7868 60.5566 26.1094V28.5263H61.0328V28.652H58.9703V28.5263H59.439V25.9354C59.439 25.7056 59.4072 25.5468 59.3437 25.4617C59.2802 25.3754 59.171 25.3322 59.0173 25.3322C58.7608 25.3322 58.5474 25.4325 58.3798 25.6344C58.2108 25.8364 58.127 26.0942 58.127 26.4104V28.5276L58.1245 28.5263Z" fill="#5317AB"/>
<path d="M72.0222 26.8141C72.0222 26.5677 72.0742 26.3315 72.1796 26.1041C72.285 25.8768 72.4362 25.6711 72.6356 25.4844C72.8261 25.3104 73.0293 25.1821 73.2452 25.097C73.4598 25.0119 73.6948 24.9688 73.9488 24.9688C74.2028 24.9688 74.4428 25.0119 74.6613 25.0983C74.8797 25.1847 75.0791 25.3129 75.262 25.4844C75.4601 25.6711 75.6125 25.8781 75.7179 26.1041C75.8233 26.3315 75.8754 26.5677 75.8754 26.8141C75.8754 27.0605 75.8246 27.2954 75.7205 27.5177C75.6163 27.7412 75.4639 27.9469 75.2632 28.1362C75.0778 28.3089 74.8772 28.4384 74.66 28.5235C74.4441 28.6086 74.2066 28.6505 73.95 28.6505C73.4141 28.6505 72.9594 28.4715 72.5848 28.1133C72.2101 27.7552 72.0234 27.3221 72.0234 26.8141H72.0222ZM74.6778 27.2726V26.348C74.6778 25.8476 74.6244 25.5136 74.519 25.3472C74.4123 25.1796 74.2231 25.0958 73.9488 25.0958C73.6745 25.0958 73.4852 25.1796 73.3798 25.3472C73.2731 25.5149 73.2198 25.8489 73.2198 26.348V27.2726C73.2198 27.773 73.2731 28.1057 73.3798 28.2733C73.4865 28.441 73.6757 28.5248 73.9488 28.5248C74.2218 28.5248 74.4123 28.441 74.519 28.2733C74.6244 28.1057 74.6778 27.7717 74.6778 27.2726Z" fill="#5317AB"/>
<path d="M76.2641 26.8141C76.2641 26.5677 76.3161 26.3315 76.4216 26.1041C76.527 25.8768 76.6781 25.6711 76.8775 25.4844C77.068 25.3104 77.2712 25.1821 77.4858 25.097C77.7017 25.0119 77.9354 24.9688 78.1894 24.9688C78.4434 24.9688 78.6835 25.0119 78.9019 25.0983C79.1203 25.1847 79.321 25.3129 79.5026 25.4844C79.7007 25.6711 79.8532 25.8781 79.9586 26.1041C80.064 26.3315 80.116 26.5677 80.116 26.8141C80.116 27.0605 80.064 27.2954 79.9611 27.5177C79.8582 27.7412 79.7046 27.9469 79.5039 28.1362C79.3185 28.3089 79.1178 28.4384 78.9006 28.5235C78.6847 28.6086 78.4472 28.6505 78.1907 28.6505C77.6547 28.6505 77.2001 28.4715 76.8254 28.1133C76.4508 27.7552 76.2641 27.3221 76.2641 26.8141ZM78.9197 27.2726V26.348C78.9197 25.8476 78.8663 25.5136 78.7597 25.3472C78.653 25.1796 78.4637 25.0958 78.1894 25.0958C77.9151 25.0958 77.7259 25.1796 77.6205 25.3472C77.5138 25.5149 77.4604 25.8489 77.4604 26.348V27.2726C77.4604 27.773 77.5138 28.1057 77.6205 28.2733C77.7271 28.441 77.9164 28.5248 78.1894 28.5248C78.4625 28.5248 78.653 28.441 78.7597 28.2733C78.8651 28.1057 78.9197 27.7717 78.9197 27.2726Z" fill="#5317AB"/>
<path d="M82.0171 28.5263H82.4896V28.652H80.4144V28.5263H80.8944V25.2979H80.4144V25.1722H81.0735C81.2716 25.1722 81.4405 25.1645 81.579 25.148C81.7161 25.1315 81.8457 25.1061 81.9638 25.0706V25.8453C82.1187 25.5913 82.3067 25.3982 82.5289 25.2674C82.7512 25.1366 83.0026 25.0706 83.2808 25.0706C83.6453 25.0706 83.931 25.1633 84.138 25.3487C84.3451 25.5341 84.4492 25.7868 84.4492 26.1094V28.5263H84.9255V28.652H82.8629V28.5263H83.3316V25.9354C83.3316 25.7056 83.2998 25.5468 83.2363 25.4617C83.1728 25.3754 83.0636 25.3322 82.9099 25.3322C82.6521 25.3322 82.44 25.4325 82.2711 25.6344C82.1022 25.8364 82.0184 26.0942 82.0184 26.4104V28.5276L82.0171 28.5263Z" fill="#5317AB"/>
<path d="M56.3794 27.8772C56.3463 28.0067 56.3057 28.1045 56.2549 28.1693C56.2054 28.2341 56.1482 28.2671 56.0847 28.2671C55.9933 28.2671 55.9298 28.2264 55.8917 28.1439C55.8536 28.0613 55.8358 27.9089 55.8358 27.688V26.2439C55.8358 25.9595 55.8015 25.7512 55.7342 25.6178C55.6656 25.4845 55.5488 25.3664 55.3799 25.2635C55.2198 25.167 55.037 25.0933 54.8312 25.045C54.6255 24.9955 54.3981 24.9727 54.1505 24.9727C53.7111 24.9727 53.3618 25.0514 53.1002 25.2101C52.8436 25.3664 52.7128 25.5683 52.709 25.8172C52.709 25.8172 52.709 25.8185 52.709 25.8198C52.709 25.8223 52.709 25.8248 52.709 25.8274C52.709 25.849 52.7128 25.8693 52.7166 25.8896C52.7522 26.1385 52.9681 26.329 53.231 26.329C53.5193 26.329 53.753 26.1004 53.753 25.8185C53.753 25.5696 53.5701 25.3613 53.3288 25.3168C53.3516 25.2698 53.4113 25.2254 53.5155 25.1835C53.6463 25.1301 53.8012 25.1047 53.9816 25.1047C54.294 25.1047 54.5023 25.1593 54.609 25.2686C54.7156 25.3778 54.7677 25.6305 54.7677 26.0255V26.5157C53.9524 26.5157 53.3453 26.6084 52.9452 26.7951C52.5439 26.9818 52.3445 27.265 52.3445 27.646C52.3445 27.9674 52.4702 28.215 52.723 28.3903C52.9757 28.5643 53.3377 28.6519 53.8101 28.6519C54.0527 28.6519 54.2584 28.6062 54.4248 28.5147C54.5925 28.4233 54.7169 28.2874 54.7995 28.1096C54.8604 28.2912 54.9595 28.4258 55.0954 28.5135C55.2313 28.6011 55.4103 28.6456 55.6313 28.6456C55.8523 28.6456 56.0517 28.5744 56.213 28.4309C56.3743 28.2874 56.4657 28.1033 56.4886 27.8797H56.3768L56.3794 27.8772ZM54.769 27.4962C54.769 27.8124 54.7118 28.0486 54.5975 28.2049C54.4832 28.3611 54.3105 28.4398 54.0819 28.4398C53.8774 28.4398 53.7301 28.3687 53.6412 28.2252C53.551 28.0817 53.5066 27.8416 53.5066 27.5038C53.5066 27.166 53.5841 26.9285 53.7365 26.8167C53.8901 26.705 54.2089 26.6491 54.6953 26.6491H54.7702V27.4975L54.769 27.4962Z" fill="#5317AB"/>
<path d="M71.1382 23.1133V23.239H71.5776C71.749 23.239 71.8722 23.2682 71.9484 23.3266C72.0246 23.3851 72.0627 23.4803 72.0627 23.6124C72.0627 23.6581 72.05 23.7305 72.0259 23.827C72.0018 23.9248 71.9675 24.0277 71.9269 24.1356L70.8245 27.0999L69.3957 23.2403H69.2573L67.845 27.0516L66.42 23.2403H66.909V23.1146H64.5938V23.2403H65.136L67.224 28.6531H67.3941L68.7861 25.064L70.2199 28.6531H70.3977L72.2202 23.8689C72.3002 23.6556 72.3879 23.5057 72.4831 23.4194C72.5784 23.333 72.7117 23.2568 72.8908 23.2403C72.9098 23.239 72.9645 23.2403 72.9645 23.2403H73.4534V23.1146H71.1382V23.1133Z" fill="#5317AB"/>
<path d="M64.3448 25.5188C64.3613 25.5455 64.3817 25.5721 64.4058 25.5937C64.4375 25.6217 64.4718 25.6369 64.5099 25.6483C64.5112 25.6483 64.5137 25.6483 64.515 25.6496C64.5226 25.6509 64.5277 25.6547 64.5353 25.656C64.5772 25.6699 64.6204 25.6788 64.6674 25.6788C64.8909 25.6788 65.0713 25.5023 65.0713 25.2839C65.0713 25.0845 64.9202 24.9206 64.7233 24.894C64.6661 24.88 64.6052 24.8711 64.5353 24.8711C64.4058 24.8711 64.2877 24.899 64.1835 24.9536C64.0781 25.0095 63.9765 25.101 63.8762 25.228C63.7162 25.1276 63.5523 25.0527 63.386 25.0032C63.2183 24.9536 63.0431 24.9282 62.8576 24.9282C62.4652 24.9282 62.1401 25.04 61.8797 25.2623C61.6206 25.4858 61.4898 25.7614 61.4898 26.0916C61.4898 26.2948 61.5444 26.4739 61.6549 26.6301C61.7654 26.7863 61.9369 26.9285 62.1693 27.0555C61.8823 27.1127 61.6714 27.2105 61.5381 27.3502C61.4035 27.4886 61.3374 27.6766 61.3374 27.9115C61.3374 28.0588 61.3666 28.3662 61.6537 28.4716C61.5165 28.5834 61.4085 28.7027 61.3323 28.831C61.2396 28.986 61.1939 29.1485 61.1939 29.32C61.1939 29.4914 61.2409 29.6553 61.3349 29.8127C61.4289 29.9702 61.5648 30.1137 61.7426 30.2433C61.9051 30.3614 62.0855 30.4503 62.281 30.5113C62.4766 30.5709 62.6887 30.6014 62.9199 30.6014C63.151 30.6014 63.358 30.5722 63.5511 30.5125C63.7441 30.4541 63.9257 30.3639 64.0972 30.2446C64.2013 30.1696 64.2889 30.0883 64.3639 30.0045C64.3639 30.0045 64.3664 30.002 64.3677 30.0007C64.496 29.8712 64.595 29.7277 64.6636 29.5702C64.7309 29.4127 64.7474 29.2476 64.7474 29.0774C64.7474 28.7243 64.6446 28.4246 64.402 28.1757C64.2369 28.0068 63.9283 27.7896 63.5549 27.7896H62.0258C61.9013 27.7896 61.8086 27.7706 61.7464 27.7312C61.6841 27.6918 61.6537 27.6334 61.6537 27.5546C61.6537 27.4594 61.7108 27.3781 61.8251 27.307C61.9394 27.2371 62.1083 27.1813 62.3331 27.1406C62.4131 27.1673 62.4957 27.1889 62.5795 27.2041C62.6633 27.2194 62.751 27.2257 62.8424 27.2257C63.2844 27.2257 63.6387 27.1228 63.9067 26.9158C64.1746 26.7101 64.3093 26.4358 64.3093 26.0954C64.3093 25.9519 64.2839 25.8198 64.2318 25.6979C64.181 25.5772 64.0997 25.4553 63.9892 25.3296C64.0261 25.2673 64.1213 25.1441 64.3093 25.1124C64.2826 25.1657 64.2661 25.2242 64.2661 25.2877C64.2661 25.3753 64.2966 25.4566 64.3461 25.5213L64.3448 25.5188ZM62.1985 28.9453C62.1985 28.6392 62.2556 28.4335 62.3687 28.3319C62.4804 28.229 62.6824 28.1782 62.9732 28.1782C63.264 28.1782 63.4647 28.2303 63.5777 28.3319C63.6908 28.4348 63.7467 28.6392 63.7467 28.9453V29.5117C63.7467 29.8178 63.6895 30.0236 63.5777 30.1264C63.4647 30.2293 63.2628 30.2801 62.9732 30.2801C62.6836 30.2801 62.4804 30.228 62.3687 30.1264C62.2556 30.0236 62.1985 29.8191 62.1985 29.5117V28.9453ZM63.4101 26.4015C63.4101 26.6796 63.3745 26.8663 63.3034 26.959C63.2336 27.0517 63.1015 27.0987 62.9084 27.0987C62.7154 27.0987 62.5782 27.0504 62.5071 26.9565C62.436 26.8625 62.3992 26.6771 62.3992 26.4015V25.7525C62.3992 25.4769 62.436 25.2915 62.5071 25.1975C62.5782 25.1035 62.7129 25.0552 62.9084 25.0552C63.104 25.0552 63.2336 25.1022 63.3034 25.1949C63.3745 25.2877 63.4101 25.4744 63.4101 25.7525V26.4015Z" fill="#5317AB"/>
<path d="M93.1503 28.525H93.6227V28.6507H91.5462V28.525H92.0276V25.2979H91.5462V25.1722H92.2054C92.4035 25.1722 92.5724 25.1645 92.7108 25.148C92.8493 25.1315 92.9775 25.1061 93.0969 25.0706V25.8453C93.2519 25.5913 93.4398 25.3982 93.6621 25.2674C93.8843 25.1366 94.1345 25.0706 94.4139 25.0706C94.7784 25.0706 95.0642 25.1633 95.2712 25.3487C95.4782 25.5341 95.5823 25.7881 95.5823 26.1094V28.525H96.0586V28.6507H93.9948V28.525H94.4635V25.9342C94.4635 25.7043 94.4317 25.5468 94.3682 25.4605C94.3047 25.3741 94.1955 25.3309 94.0405 25.3309C93.784 25.3309 93.5706 25.4312 93.403 25.6332C93.2341 25.8351 93.1503 26.0929 93.1503 26.4092V28.5263V28.525Z" fill="#5317AB"/>
<path d="M96.7912 25.2981H96.2984V25.1723H96.9614C97.1519 25.1723 97.3246 25.1647 97.4808 25.1482C97.637 25.1317 97.7793 25.1063 97.9088 25.0707V28.5252H98.4016V28.6509H96.2972V28.5252H96.7899V25.2981H96.7912ZM96.7379 24.1932C96.7379 24.0204 96.7976 23.8769 96.9157 23.7613C97.035 23.647 97.1824 23.5886 97.3589 23.5886C97.5354 23.5886 97.6802 23.647 97.8021 23.7639C97.9241 23.8795 97.9837 24.023 97.9837 24.1932C97.9837 24.3633 97.9228 24.5145 97.8021 24.6351C97.6802 24.757 97.5329 24.818 97.3589 24.818C97.1849 24.818 97.0312 24.7583 96.9131 24.6389C96.7963 24.5195 96.7379 24.371 96.7379 24.1932Z" fill="#5317AB"/>
<path d="M100.487 28.6507H100.218L98.7726 25.1963H98.2468V25.0706H100.43V25.1963H99.9626L100.869 27.3782L101.49 25.8783C101.518 25.8135 101.539 25.7526 101.553 25.6979C101.567 25.6433 101.574 25.59 101.574 25.5379C101.574 25.416 101.53 25.3296 101.442 25.2763C101.353 25.223 101.206 25.1976 100.999 25.1976V25.0718H102.433V25.1976H102.4C102.237 25.1976 102.101 25.2509 101.992 25.3576C101.883 25.4643 101.756 25.6891 101.609 26.032L100.49 28.6507H100.487Z" fill="#5317AB"/>
<path d="M105.45 26.6399H103.262V27.2279C103.262 27.6635 103.331 27.9785 103.469 28.174C103.608 28.3709 103.83 28.4687 104.136 28.4687C104.442 28.4687 104.695 28.3645 104.917 28.1563C105.139 27.948 105.301 27.6584 105.4 27.2888H105.528C105.443 27.7156 105.261 28.0496 104.983 28.2896C104.705 28.5296 104.363 28.6503 103.957 28.6503C103.411 28.6503 102.961 28.4763 102.608 28.1296C102.256 27.7829 102.08 27.3384 102.08 26.7973C102.08 26.2969 102.254 25.8677 102.602 25.5083C102.95 25.1488 103.366 24.9685 103.853 24.9685C104.3 24.9685 104.674 25.1247 104.975 25.4371C105.276 25.7496 105.434 26.1496 105.448 26.6399H105.45ZM104.282 26.5141V25.9337C104.282 25.601 104.244 25.3787 104.17 25.2644C104.095 25.1514 103.961 25.0942 103.764 25.0942C103.567 25.0942 103.446 25.1565 103.373 25.2822C103.299 25.4079 103.262 25.6492 103.262 26.0061V26.5128H104.282V26.5141Z" fill="#5317AB"/>
<path d="M106.038 25.2979H105.557V25.1722H106.215C106.405 25.1722 106.577 25.1645 106.727 25.148C106.878 25.1315 107.019 25.1061 107.152 25.0706V25.7843C107.251 25.5595 107.385 25.3843 107.552 25.2598C107.72 25.1341 107.903 25.0706 108.101 25.0706C108.319 25.0706 108.49 25.1264 108.613 25.2395C108.736 25.3512 108.797 25.5062 108.797 25.703C108.797 25.8732 108.745 26.0129 108.641 26.1209C108.535 26.2288 108.402 26.2834 108.239 26.2834C108.077 26.2834 107.941 26.2301 107.833 26.1234C107.726 26.0167 107.672 25.8821 107.672 25.7195C107.672 25.6522 107.683 25.5849 107.705 25.5163C107.726 25.449 107.763 25.3779 107.813 25.3055C107.62 25.3512 107.462 25.4732 107.341 25.6687C107.222 25.8643 107.161 26.1005 107.161 26.3761V28.525H107.811V28.6507H105.557V28.525H106.038V25.2979Z" fill="#5317AB"/>
<path d="M109.154 28.643V27.345H109.282C109.467 27.7514 109.669 28.0486 109.89 28.2391C110.111 28.4296 110.363 28.5249 110.645 28.5249C110.868 28.5249 111.047 28.4639 111.181 28.342C111.315 28.2201 111.381 28.0575 111.381 27.8517C111.381 27.5838 111.108 27.4098 110.561 27.3285C110.445 27.312 110.355 27.2993 110.292 27.2879C109.88 27.2167 109.584 27.0986 109.404 26.931C109.225 26.7633 109.135 26.5258 109.135 26.2172C109.135 25.8705 109.254 25.5771 109.491 25.3333C109.729 25.0895 110.02 24.9675 110.365 24.9675C110.537 24.9675 110.721 24.9993 110.92 25.0628C111.12 25.1263 111.228 25.158 111.248 25.158C111.3 25.158 111.344 25.1441 111.381 25.1174C111.418 25.0907 111.45 25.0488 111.475 24.9917H111.612V26.1067H111.475C111.365 25.7689 111.214 25.5174 111.022 25.3511C110.83 25.1847 110.595 25.1022 110.32 25.1022C110.11 25.1022 109.935 25.1606 109.794 25.2761C109.653 25.393 109.582 25.5378 109.582 25.7105C109.582 25.7892 109.603 25.8616 109.644 25.9302C109.685 25.9975 109.744 26.0547 109.822 26.1004C109.899 26.1486 110.064 26.1829 110.318 26.2045C110.572 26.2249 110.769 26.2503 110.908 26.2833C111.25 26.3582 111.496 26.4814 111.647 26.6503C111.798 26.8192 111.873 27.0542 111.873 27.3539C111.873 27.7438 111.752 28.0575 111.508 28.295C111.266 28.5325 110.946 28.6519 110.551 28.6519C110.419 28.6519 110.252 28.6214 110.054 28.5604C109.856 28.4995 109.716 28.469 109.635 28.469C109.541 28.469 109.465 28.4829 109.408 28.5096C109.349 28.5363 109.307 28.5807 109.279 28.643H109.151H109.154Z" fill="#5317AB"/>
<path d="M112.762 25.2981H112.269V25.1723H112.932C113.123 25.1723 113.297 25.1647 113.453 25.1482C113.609 25.1317 113.753 25.1063 113.882 25.0707V28.5252H114.375V28.6509H112.27V28.5252H112.763V25.2981H112.762ZM112.709 24.1932C112.709 24.0204 112.768 23.8769 112.888 23.7613C113.006 23.647 113.154 23.5886 113.331 23.5886C113.507 23.5886 113.653 23.647 113.775 23.7639C113.897 23.8795 113.957 24.023 113.957 24.1932C113.957 24.3633 113.896 24.5145 113.775 24.6351C113.653 24.757 113.506 24.818 113.331 24.818C113.156 24.818 113.003 24.7583 112.886 24.6389C112.768 24.5195 112.71 24.371 112.71 24.1932H112.709Z" fill="#5317AB"/>
<path d="M114.593 25.0716H114.61C114.977 25.0716 115.285 24.9293 115.536 24.6461C115.786 24.3616 115.952 23.9616 116.035 23.4421H116.159V25.0716H116.926V25.1973H116.159V27.8123C116.159 28.0041 116.181 28.1412 116.224 28.2212C116.267 28.3025 116.337 28.3431 116.433 28.3431C116.521 28.3431 116.606 28.3152 116.689 28.2568C116.77 28.1984 116.841 28.1171 116.902 28.0117L117.01 28.0764C116.914 28.2555 116.773 28.3952 116.59 28.4981C116.406 28.601 116.201 28.6518 115.975 28.6518C115.638 28.6518 115.398 28.5641 115.256 28.3889C115.114 28.2136 115.043 27.9025 115.043 27.4567V25.1973H114.596V25.0716H114.593Z" fill="#5317AB"/>
<path d="M91.8586 23.1135H89.4558V23.2316H90.2635C90.5366 23.2367 90.7232 23.285 90.821 23.3739C90.9188 23.464 90.9671 23.6838 90.9671 24.0343V26.2873C90.9671 26.7953 90.9366 27.1573 90.8769 27.3719C90.816 27.5865 90.7144 27.7694 90.5708 27.9193C90.4438 28.0514 90.2851 28.153 90.0959 28.2266C89.9066 28.299 89.706 28.3358 89.4939 28.3358C89.2538 28.3358 89.0354 28.2876 88.8398 28.1936C88.6442 28.0984 88.4842 27.965 88.3635 27.7948C88.2785 27.6742 88.2162 27.5294 88.1807 27.3617C88.1438 27.1941 88.1273 26.9172 88.1273 26.5299V23.2367H88.7979V23.1148H86.1994V23.2367H86.8713V26.5451C86.8713 27.0061 86.9297 27.3592 87.0453 27.6043C87.1608 27.8494 87.3602 28.0653 87.6422 28.2533C87.8403 28.3854 88.0613 28.4844 88.3051 28.5518C88.5477 28.6191 88.8106 28.6521 89.0925 28.6521C89.4354 28.6521 89.7491 28.5987 90.0349 28.4921C90.3207 28.3854 90.5505 28.2355 90.7245 28.0437C90.8795 27.8723 90.9899 27.6742 91.056 27.4481C91.122 27.222 91.1563 26.836 91.1563 26.2886V24.0356C91.1563 23.6927 91.2046 23.4755 91.3036 23.3828C91.4014 23.2901 91.5869 23.2405 91.8612 23.2329H92.1215V23.1148H91.8612L91.8586 23.1135Z" fill="#5317AB"/>
<path d="M119.868 25.0618V25.1875H119.934C120.096 25.1875 120.219 25.2142 120.302 25.2675C120.385 25.3196 120.426 25.3983 120.426 25.4999C120.426 25.538 120.415 25.5952 120.391 25.6701C120.367 25.7463 120.334 25.8339 120.289 25.9343L119.68 27.2881L118.773 25.1875H119.308V25.0618H117.09V25.1875H117.575L119.107 28.7334C119.107 28.7334 118.767 29.7659 118.168 30.1164C118.168 30.1164 118.2 30.0199 118.2 29.9526C118.2 29.7913 118.147 29.6554 118.039 29.55C117.931 29.4433 117.796 29.39 117.632 29.39C117.469 29.39 117.335 29.4446 117.231 29.5526C117.126 29.6605 117.074 29.8002 117.074 29.9704C117.074 30.1672 117.136 30.3222 117.259 30.434C117.381 30.547 117.552 30.6029 117.771 30.6029C117.964 30.6029 118.506 30.5305 119.275 28.7486C120.042 26.9681 120.462 25.9432 120.462 25.9432C120.6 25.6345 120.724 25.4326 120.833 25.3348C120.942 25.237 121.079 25.1888 121.244 25.1888V25.063H119.869L119.868 25.0618Z" fill="#5317AB"/>
<path d="M12.2708 10.63L11.0554 9.77405L11.2154 9.65467L11.8073 10.0801C11.9686 10.1982 12.1133 10.3049 12.2442 10.4129L12.248 10.4103C12.1819 10.2554 12.121 10.0789 12.0625 9.89216L11.8365 9.18984L11.9927 9.073L12.4321 10.5069L12.2708 10.6275V10.63Z" fill="#5317AB"/>
<path d="M13.2551 9.20504L12.7827 9.47937L13.0392 9.92006L13.5676 9.61272L13.645 9.7448L12.9567 10.1449L12.2467 8.92437L12.9084 8.53955L12.9846 8.67163L12.483 8.96374L12.7078 9.34982L13.1802 9.0755L13.2564 9.20631L13.2551 9.20504Z" fill="#5317AB"/>
<path d="M13.2818 8.3693C13.3593 8.31723 13.4774 8.25119 13.5904 8.20165C13.7695 8.12291 13.9016 8.1064 14.0108 8.14323C14.0997 8.17244 14.1759 8.24357 14.2216 8.34644C14.2953 8.51535 14.2382 8.67537 14.1239 8.78078L14.1264 8.78586C14.2394 8.77697 14.3398 8.84428 14.4287 8.96494C14.5493 9.12623 14.6357 9.23799 14.6839 9.27609L14.5112 9.35229C14.4731 9.32308 14.3956 9.22656 14.2915 9.08051C14.1747 8.91922 14.0743 8.88239 13.9207 8.94335L13.7632 9.01193L14.0096 9.57201L13.8432 9.64567L13.2831 8.3693H13.2818ZM13.7073 8.8862L13.8787 8.81126C14.0578 8.73252 14.1277 8.5852 14.0629 8.43788C13.9892 8.27151 13.8368 8.25119 13.6603 8.32866C13.5803 8.36422 13.5269 8.3947 13.5015 8.41502L13.7086 8.88747L13.7073 8.8862Z" fill="#5317AB"/>
<path d="M14.5976 7.82324L15.0523 9.16057L14.8783 9.22026L14.4236 7.88293L14.5976 7.82324Z" fill="#5317AB"/>
<path d="M15.3013 7.77756L14.8847 7.8817L14.8466 7.73184L15.8601 7.47656L15.8982 7.6277L15.4803 7.73311L15.7864 8.95233L15.6073 8.99678L15.3013 7.77756Z" fill="#5317AB"/>
<path d="M16.3567 8.3791L16.2742 8.83885L16.0875 8.86552L16.3669 7.39864L16.5828 7.36816L17.2584 8.70042L17.0654 8.72709L16.8533 8.30798L16.358 8.37783L16.3567 8.3791ZM16.7987 8.17209L16.6018 7.78981C16.5574 7.70218 16.5256 7.62217 16.4926 7.5447H16.4888C16.4786 7.62979 16.471 7.71996 16.4545 7.80886L16.3745 8.23305L16.7987 8.17336V8.17209Z" fill="#5317AB"/>
<path d="M17.422 8.47708C17.5046 8.52789 17.6227 8.56472 17.7484 8.56218C17.9351 8.55837 18.0418 8.45803 18.0392 8.31579C18.0367 8.18625 17.9592 8.11005 17.7675 8.04274C17.535 7.964 17.3903 7.84461 17.3865 7.64776C17.3826 7.42805 17.5604 7.2604 17.836 7.25405C17.9783 7.25151 18.0862 7.28199 18.1472 7.31756L18.1002 7.46742C18.0558 7.44202 17.9605 7.40392 17.8322 7.40646C17.6392 7.41027 17.5681 7.52711 17.5706 7.62363C17.5731 7.75571 17.6608 7.81794 17.8564 7.89034C18.0977 7.97797 18.2183 8.08973 18.2234 8.29801C18.2285 8.51518 18.0723 8.7095 17.7395 8.71712C17.6036 8.71966 17.4538 8.68156 17.3776 8.63203L17.422 8.47835V8.47708Z" fill="#5317AB"/>
<path d="M19.0757 8.26892C19.0465 8.51657 19.1887 8.63976 19.3742 8.66389C19.505 8.68167 19.5888 8.66897 19.6599 8.64865L19.6752 8.78454C19.6066 8.80486 19.4897 8.82518 19.3297 8.80359C19.0198 8.76168 18.8636 8.53181 18.9043 8.22828C18.9449 7.92474 19.1557 7.71265 19.4478 7.75202C19.778 7.79647 19.825 8.09365 19.7996 8.27908C19.7945 8.31591 19.7895 8.34258 19.7818 8.3629L19.0757 8.26765V8.26892ZM19.6294 8.20922C19.6472 8.09492 19.6218 7.90823 19.4161 7.88029C19.2294 7.85489 19.1278 8.01237 19.096 8.1381L19.6294 8.20922Z" fill="#5317AB"/>
<path d="M20.4359 7.70732L20.3813 7.94482L20.6379 8.00324L20.6061 8.1404L20.3483 8.08198L20.2264 8.61539C20.1984 8.73731 20.2162 8.81478 20.3178 8.83764C20.3661 8.84907 20.3966 8.85161 20.4245 8.84907L20.4004 8.98751C20.3635 8.99132 20.3051 8.99132 20.2353 8.97608C20.1514 8.95703 20.0905 8.91257 20.0587 8.85542C20.0219 8.78938 20.0219 8.69667 20.0486 8.57983L20.1718 8.04007L20.0181 8.00451L20.0498 7.86735L20.2023 7.90291L20.2442 7.71875L20.4321 7.70605L20.4359 7.70732Z" fill="#5317AB"/>
<path d="M21.5396 7.85889L21.7123 7.92493L21.2665 9.10224L21.8317 9.3156L21.777 9.45911L21.0404 9.17971L21.5408 7.85889H21.5396Z" fill="#5317AB"/>
<path d="M22.6901 8.3285L22.3053 9.07273C22.1605 9.35214 22.2253 9.53502 22.3917 9.62265C22.5758 9.7179 22.7613 9.65694 22.9035 9.38135L23.2883 8.63584L23.4522 8.72094L23.0737 9.45501C22.8743 9.83982 22.5911 9.89189 22.3193 9.75092C22.0627 9.61884 21.9434 9.37246 22.1453 8.98256L22.5263 8.24341L22.6901 8.3285Z" fill="#5317AB"/>
<path d="M23.6871 10.5777L23.7163 10.217C23.7252 10.0773 23.7328 9.9884 23.7443 9.89569L23.7417 9.89315C23.6617 9.9376 23.5842 9.97443 23.4547 10.0354L23.1385 10.1929L22.967 10.0722L23.7303 9.73312L23.79 8.92285L23.964 9.0435L23.9271 9.42197C23.917 9.52738 23.9094 9.60866 23.8967 9.69248L23.9017 9.69629C23.983 9.65057 24.0491 9.61755 24.1443 9.57437L24.491 9.41181L24.665 9.53246L23.9195 9.84997L23.8649 10.6958L23.6909 10.5751L23.6871 10.5777Z" fill="#5317AB"/>
<path d="M18.0001 36C13.1918 36 8.67176 34.128 5.27192 30.7281C1.87207 27.3283 6.10352e-05 22.8083 6.10352e-05 18C6.10352e-05 13.1917 1.87207 8.6717 5.27192 5.27185C8.67176 1.87201 13.1918 0 18.0001 0C22.8084 0 27.3284 1.87201 30.7282 5.27185C34.1281 8.6717 36.0001 13.1917 36.0001 18C36.0001 22.8083 34.1281 27.3283 30.7282 30.7281C27.3284 34.128 22.8084 36 18.0001 36ZM18.0001 0.553729C8.38093 0.553729 0.55379 8.38087 0.55379 18C0.55379 27.6191 8.38093 35.4463 18.0001 35.4463C27.6192 35.4463 35.4463 27.6204 35.4463 18C35.4463 8.37959 27.6205 0.553729 18.0001 0.553729Z" fill="#5317AB"/>
<path d="M18 29.8317C11.4759 29.8317 6.1698 24.5243 6.1698 18.0002C6.1698 11.4761 11.4772 6.16992 18 6.16992C24.5229 6.16992 29.8316 11.4773 29.8316 18.0002C29.8316 24.523 24.5241 29.8317 18 29.8317ZM18 6.51537C11.6677 6.51537 6.51525 11.6678 6.51525 18.0002C6.51525 24.3325 11.6677 29.485 18 29.485C24.3324 29.485 29.4848 24.3325 29.4848 18.0002C29.4848 11.6678 24.3324 6.51537 18 6.51537Z" fill="#5317AB"/>
<path d="M4.58724 23.6043C5.08255 23.415 5.54103 23.0645 5.42038 22.7483C5.29973 22.4346 4.74854 22.4663 4.20243 22.6746C3.67029 22.8778 3.2588 23.2309 3.3731 23.5293C3.48868 23.8303 4.02209 23.8202 4.58724 23.6043Z" fill="#5317AB"/>
<path d="M22.5999 30.7168C22.6303 30.8743 22.6608 31.0356 22.6862 31.1995L22.7967 31.9805L23.2717 31.8065L22.8539 31.1423C22.7586 30.9924 22.6811 30.8515 22.6049 30.7156H22.5999V30.7168Z" fill="#5317AB"/>
<path d="M28.5576 26.6589L28.5526 26.664C28.6351 26.7986 28.6935 26.9002 28.7558 27.012L29.1685 27.8782L29.1749 27.8832L29.5165 27.4781L28.8612 26.9244C28.7583 26.838 28.6567 26.7491 28.5576 26.6589Z" fill="#5317AB"/>
<path d="M13.1649 3.89361C13.4037 3.79455 13.5358 3.56722 13.4405 3.33988C13.3453 3.11001 13.09 3.04651 12.8512 3.14684C12.6137 3.24717 12.4804 3.47324 12.5756 3.70311C12.6709 3.92917 12.9249 3.99267 13.1649 3.89234V3.89361Z" fill="#5317AB"/>
<path d="M27.3881 28.809C27.1074 28.4712 26.8153 28.2769 26.6387 28.4229C26.4952 28.5423 26.56 28.8281 26.7924 29.1075C26.9969 29.3539 27.2344 29.4504 27.3804 29.3297C27.4935 29.2357 27.5087 29.0745 27.4541 28.9195C27.4439 28.8878 27.4249 28.8522 27.3893 28.809H27.3881Z" fill="#5317AB"/>
<path d="M11.533 30.3721C11.6993 30.0711 11.6435 29.8679 11.458 29.7613C11.3729 29.7143 11.3031 29.6939 11.2675 29.6914L10.7964 30.5423L10.978 30.6427C11.1685 30.7481 11.3856 30.6376 11.533 30.3709V30.3721Z" fill="#5317AB"/>
<path d="M9.94538 7.31251C10.1626 7.12963 10.2261 6.85276 10.0737 6.66988C9.91998 6.48954 9.63549 6.50732 9.41959 6.6902C9.20369 6.87308 9.13765 7.15122 9.29005 7.33283C9.44245 7.51444 9.72948 7.49666 9.94411 7.31378L9.94538 7.31251Z" fill="#5317AB"/>
<path d="M30.8931 12.2391L31.6602 12.06L31.4456 11.6028L30.8207 12.0778C30.6798 12.1857 30.5464 12.2759 30.4182 12.3635L30.4207 12.3686C30.5744 12.3242 30.7331 12.2797 30.8931 12.2403V12.2391Z" fill="#5317AB"/>
<path d="M31.6004 14.3068C31.2664 14.388 31.1572 14.5747 31.2067 14.7995C31.2321 14.9011 31.2639 14.9697 31.288 15.0002L32.2329 14.7716L32.1808 14.5557C32.1262 14.3309 31.8963 14.2344 31.6004 14.3055V14.3068Z" fill="#5317AB"/>
<path d="M31.4444 16.1712C31.4889 16.5268 32.0324 16.6411 32.6128 16.5687C33.178 16.4989 33.6606 16.2436 33.6187 15.9045C33.5768 15.5629 33.0548 15.432 32.4541 15.5057C31.9283 15.5705 31.4 15.8118 31.4444 16.1699V16.1712Z" fill="#5317AB"/>
<path d="M30.0829 5.91824C26.8558 2.69111 22.5644 0.913086 18 0.913086C13.4355 0.913086 9.14539 2.69111 5.91827 5.91824C2.68988 9.14536 0.913116 13.4355 0.913116 17.9999C0.913116 22.5644 2.68988 26.8558 5.91827 30.0829C9.14539 33.31 13.4368 35.0881 18 35.0881C22.5632 35.0881 26.8558 33.31 30.0829 30.0829C33.3101 26.8558 35.0881 22.5644 35.0881 17.9999C35.0881 13.4355 33.3101 9.14536 30.0829 5.91697V5.91824ZM33.9629 17.0982L32.6636 17.6735L32.9595 17.8272L33.9756 17.8094L33.9794 18.0266L31.3149 18.0723L31.3111 17.8552L32.5963 17.8336V17.826C32.4922 17.7828 32.3969 17.7396 32.3093 17.6989L31.3009 17.2036L31.2958 16.9344L32.4376 17.5224L33.9603 16.8404L33.9654 17.097L33.9629 17.0982ZM33.8994 15.8841C33.954 16.3248 33.4498 16.7007 32.6497 16.7985C31.8102 16.9026 31.2196 16.641 31.165 16.1965C31.1091 15.7418 31.626 15.3786 32.4109 15.2821C33.3215 15.1703 33.8473 15.4586 33.8994 15.8841ZM33.4574 13.8051C33.3914 13.8495 33.1767 13.9397 32.8643 14.0629C32.5188 14.1975 32.4045 14.3169 32.4388 14.5112L32.4871 14.7093L33.6098 14.4388L33.6606 14.6496L31.1053 15.2656C31.0456 15.1678 30.9897 15.0192 30.9542 14.8744C30.9008 14.6496 30.9301 14.4883 31.052 14.3512C31.1472 14.2407 31.3136 14.1518 31.513 14.1035C31.8546 14.021 32.115 14.1023 32.2483 14.2521L32.2598 14.2496C32.2991 14.1073 32.4655 13.9867 32.7246 13.8838C33.0726 13.7428 33.3139 13.6438 33.4053 13.5866L33.4587 13.8038L33.4574 13.8051ZM33.2796 13.1942L30.7624 14.0692L30.4652 13.2132L30.7383 13.118L30.9643 13.7695L31.7594 13.4926L31.5447 12.8767L31.814 12.784L32.0286 13.3999L32.9367 13.085L32.6979 12.3979L32.971 12.3026L33.2809 13.1942H33.2796ZM32.3525 10.9285L31.6705 11.4479L31.9232 11.9864L32.7563 11.7883L32.8516 11.9915L30.1973 12.6087L30.0868 12.3712L32.2547 10.7189L32.3537 10.9285H32.3525ZM30.168 17.9999C30.168 24.7095 24.7095 30.168 18 30.168C11.2905 30.168 5.83191 24.7095 5.83191 17.9999C5.83191 11.2904 11.2905 5.83188 18 5.83188C24.7095 5.83188 30.168 11.2904 30.168 17.9999ZM29.7604 8.97899C29.9674 8.97899 30.135 9.14663 30.135 9.35364C30.135 9.56066 29.9674 9.7283 29.7604 9.7283C29.5534 9.7283 29.3857 9.56066 29.3857 9.35364C29.3857 9.14663 29.5534 8.97899 29.7604 8.97899ZM25.6938 6.29289L26.0316 6.58881L26.7364 5.78108L27.1022 6.09985L26.3974 6.90885L26.6742 7.15143L27.3803 6.34242L27.7461 6.6612L27.0413 7.4702L27.4007 7.7839L28.4789 6.5469L26.96 5.221L27.1759 4.97334L28.9285 6.50118C29.0161 6.57738 29.025 6.70946 28.9488 6.79582L27.7906 8.12426L27.948 8.26143L27.7296 8.51289L25.4715 6.54309L25.6912 6.29162L25.6938 6.29289ZM22.0247 3.30453C22.0894 3.15848 22.2177 3.05815 22.379 3.00227L22.1187 2.8867L22.2469 2.59332L22.967 2.91083L23.0585 2.70255L23.4814 2.88797L23.3887 3.09752L24.11 3.41757L23.9805 3.70967L23.7176 3.5941C23.7862 3.75031 23.8002 3.91414 23.7354 4.05893C23.5843 4.4031 23.0915 4.50851 22.6076 4.29642C22.1174 4.07925 21.8697 3.64744 22.0209 3.30453H22.0247ZM21.8075 4.13894L23.7062 4.97588L24.3844 3.43789L24.8467 3.64109L24.5812 4.24435L24.9495 4.40564L24.8162 4.70791L24.4491 4.54407L24.1266 5.27307L23.7163 6.20272L23.2553 5.99825L23.5766 5.26799L21.6767 4.43104L21.805 4.14021L21.8075 4.13894ZM16.7528 2.14755H18.1473V2.47775H17.2469V3.54457H18.3784V2.05864H18.8242V2.8105H19.082V2.05864H19.5303V4.8565H19.082V3.13816H18.8242V4.8565H18.3784V3.87731H17.0348C16.8316 3.87731 16.7528 3.74142 16.7528 3.6068V2.14755ZM15.0675 5.0343L12.9453 5.92586C12.7573 6.00587 12.6341 5.91062 12.5821 5.78743L12.3255 5.17401L12.7789 4.98477L13.019 5.55247L14.9468 4.74347L15.0688 5.03176L15.0675 5.0343ZM12.7332 2.86638C13.2526 2.6492 13.7543 2.73303 13.9257 3.1407C14.0959 3.54457 13.8038 3.96114 13.2857 4.17958C12.7649 4.39675 12.2646 4.31293 12.0944 3.90906C11.9229 3.50139 12.215 3.08482 12.7332 2.86511V2.86638ZM14.6839 3.67538L14.8071 3.96876L13.6476 4.45517L13.833 4.89714L13.3758 5.09018L13.1891 4.64822L12.0626 5.12193L11.9394 4.82983L14.6839 3.67665V3.67538ZM9.17714 4.65584L9.54164 5.08764L9.87819 4.80316L10.0903 5.05335L9.75373 5.33784L10.1195 5.76964L9.73849 6.09096L8.79613 4.97842L9.17714 4.65584ZM8.44815 5.39118C8.53578 5.31625 8.66786 5.32768 8.74279 5.41531L9.3016 6.07699L9.42987 5.96904L9.63181 6.20907C9.96455 6.07826 10.2935 6.10493 10.4815 6.32972C10.7469 6.64342 10.5881 7.17937 10.1474 7.55148C9.70801 7.9236 9.15936 7.98456 8.89393 7.67087C8.7085 7.45115 8.73136 7.12857 8.9079 6.8263L8.01761 7.57815L7.81314 7.33558L8.18652 7.02062L7.86648 6.64469L8.20049 6.36274L8.51927 6.73994L8.94219 6.38179L8.46085 5.8141L7.43721 6.68025L7.22385 6.42879L8.44942 5.39372L8.44815 5.39118ZM6.51264 8.97899C6.71965 8.97899 6.88729 9.14663 6.88729 9.35364C6.88729 9.56066 6.71965 9.7283 6.51264 9.7283C6.30562 9.7283 6.13798 9.56066 6.13798 9.35364C6.13798 9.14663 6.30562 8.97899 6.51264 8.97899ZM2.81688 13.2628L4.19739 13.5079C4.53522 13.5676 4.7943 13.6184 5.05592 13.6819V13.6768C4.81462 13.5676 4.57713 13.4533 4.26851 13.2907L3.02008 12.6443L3.08612 12.4423L5.73284 12.8932L4.96321 11.9292L3.31219 11.8467L3.41252 11.6282L4.81843 11.7032L4.61523 11.4454L3.69192 11.0212L3.77701 10.837L6.19894 11.9483L6.11385 12.1324L4.94543 11.5965L4.94289 11.6028C5.01909 11.6841 5.08767 11.7616 5.14991 11.834L5.85858 12.6887L5.75317 12.9173L5.74047 12.9008L5.67569 13.0977L4.33709 12.8538C4.00689 12.7941 3.67795 12.7306 3.42522 12.6773V12.6824C3.66779 12.789 3.95228 12.9351 4.26216 13.0939L5.47376 13.7136L5.40772 13.9156L4.06277 13.6755C3.7478 13.6184 3.43538 13.56 3.16105 13.4952V13.5003C3.42776 13.6222 3.69573 13.7568 3.99546 13.9079L5.20833 14.5252L5.14356 14.722L2.75084 13.4672L2.81688 13.2653V13.2628ZM2.36475 15.0878L3.21947 15.0992L3.33632 14.5544L2.55144 14.2191L2.59589 14.0146L5.09021 15.0954L5.03941 15.3354L2.32157 15.3011L2.36729 15.0891L2.36475 15.0878ZM2.15266 16.6702L3.55095 16.3197C3.85702 16.2422 4.17199 16.1711 4.46663 16.1241L4.46282 16.1165C4.12754 16.0924 3.80876 16.0619 3.36807 16.0136L2.23648 15.8904L2.2568 15.6999L4.90606 15.9882L4.88193 16.2079L3.48745 16.5635C3.16486 16.6461 2.8753 16.7058 2.59589 16.7502L2.5997 16.7553C2.95531 16.7756 3.27789 16.8049 3.69065 16.8506L4.79938 16.9712L4.77906 17.1617L2.1298 16.8734L2.15266 16.669V16.6702ZM2.42571 17.5377C2.64669 17.4018 3.0023 17.3179 3.4176 17.3179C4.21263 17.3205 4.79303 17.6418 4.79303 18.1689C4.79303 18.3505 4.72572 18.4927 4.66984 18.5613L4.38916 18.5118C4.45266 18.4279 4.50346 18.3225 4.50346 18.1638C4.50346 17.7815 4.0996 17.5313 3.43157 17.5313C2.76354 17.5313 2.35586 17.7713 2.35586 18.1371C2.35586 18.2705 2.38761 18.3606 2.42698 18.4076H3.22201V18.0876H3.49888V18.6057H2.21743C2.16155 18.5156 2.07138 18.3352 2.07138 18.1231C2.07138 17.8856 2.17425 17.6888 2.42317 17.5351L2.42571 17.5377ZM2.26315 20.2441L3.61572 19.8732C3.9472 19.7818 4.20247 19.717 4.46536 19.6624V19.6573C4.19866 19.6624 3.9345 19.6611 3.58651 19.6459L2.18187 19.5976L2.1552 19.3868L4.74985 18.6565L4.77652 18.8699L3.46205 19.2242C3.13819 19.3119 2.81434 19.3957 2.56287 19.4554V19.4605C2.82958 19.4528 3.14962 19.4605 3.49761 19.4719L4.8578 19.5113L4.88447 19.7221L3.56619 20.0815C3.25757 20.1653 2.94896 20.2466 2.67336 20.305V20.3101C2.96801 20.305 3.26773 20.3127 3.60429 20.319L4.96448 20.3558L4.98988 20.5616L2.28982 20.4536L2.26315 20.2428V20.2441ZM2.55906 21.9065C2.45492 21.5052 2.90959 21.0848 3.69065 20.8816C4.50981 20.6683 5.12323 20.8295 5.22992 21.236C5.33787 21.6513 4.86796 22.0602 4.10214 22.2596C3.21439 22.4907 2.66066 22.2952 2.56033 21.9065H2.55906ZM3.10771 23.6198C2.95912 23.2324 3.36426 22.7638 4.11738 22.4755C4.90733 22.1732 5.53599 22.2647 5.68585 22.6571C5.83953 23.0584 5.41788 23.5169 4.67873 23.8001C3.82146 24.1278 3.24995 23.9944 3.10644 23.6198H3.10771ZM4.01705 25.5388L5.00639 24.4897C5.22357 24.2599 5.44963 24.03 5.67188 23.8306L5.66553 23.8255C5.36962 23.9855 5.08513 24.1316 4.68889 24.3297L3.66906 24.8365L3.58397 24.665L5.97034 23.4788L6.0694 23.6769L5.0864 24.7272C4.85907 24.9711 4.64825 25.1768 4.43615 25.3661L4.44123 25.3686C4.75112 25.1933 5.03941 25.0447 5.41153 24.8606L6.40977 24.364L6.49486 24.5355L4.10849 25.7217L4.01705 25.5375V25.5388ZM5.31755 27.6064C5.12196 27.3511 5.2223 26.9676 5.8789 26.4659L7.12606 25.5108L7.25052 25.6734L5.99828 26.6335C5.52456 26.9968 5.41788 27.2749 5.54615 27.4413C5.68839 27.6267 5.98558 27.5861 6.45422 27.2279L7.70646 26.269L7.83092 26.4316L6.59646 27.3765C5.94621 27.8744 5.52456 27.8769 5.31755 27.6064ZM6.72092 29.1622L7.36355 27.8718C7.50452 27.5886 7.65439 27.3041 7.8106 27.0476L7.80298 27.045C7.56675 27.2838 7.33561 27.5073 7.01303 27.8096L6.1837 28.5906L6.05289 28.4509L7.99348 26.6247L8.14588 26.7859L7.5096 28.0763C7.36228 28.376 7.22004 28.6338 7.07272 28.8751H7.07907C7.32545 28.6186 7.55786 28.3925 7.86013 28.108L8.67167 27.3435L8.80248 27.4832L6.86189 29.3095L6.72092 29.1596V29.1622ZM7.21242 29.6333L9.01839 27.6737L9.16698 27.8109L7.36101 29.7705L7.21242 29.6333ZM7.97316 30.3014L9.24953 27.9061L9.41971 28.0445L8.7847 29.2193C8.61071 29.5419 8.45323 29.8302 8.2894 30.0994L8.29321 30.102C8.52181 29.8899 8.78343 29.6702 9.05649 29.4428L10.0916 28.5856L10.2605 28.7215L8.14715 30.4411L7.97316 30.3001V30.3014ZM9.58101 31.4698L8.84821 30.9757L10.3367 28.7646L11.0415 29.2384L10.8802 29.4771L10.3443 29.1164L9.87438 29.8149L10.3811 30.1566L10.2224 30.3928L9.71563 30.0512L9.17841 30.8487L9.74357 31.2297L9.58228 31.4698H9.58101ZM10.8294 32.1785L10.6453 32.0769C10.6593 31.9994 10.7393 31.7809 10.8612 31.4685C10.9983 31.1243 10.992 30.9618 10.8358 30.8627L10.6681 30.77L10.1093 31.7809L9.93153 31.6831L11.2041 29.3819C11.3108 29.4009 11.4492 29.4543 11.5724 29.5216C11.7629 29.627 11.8518 29.7527 11.8658 29.9318C11.8772 30.074 11.8289 30.2544 11.7286 30.4347C11.5584 30.7433 11.3311 30.8843 11.1406 30.8868L11.1342 30.897C11.2066 31.0177 11.1774 31.2196 11.0758 31.4799C10.9412 31.8305 10.8485 32.073 10.8282 32.1785H10.8294ZM11.453 32.5087C11.3146 32.4477 11.1927 32.3118 11.1546 32.1899L11.3184 31.9473C11.3628 32.0705 11.453 32.1975 11.58 32.2534C11.7693 32.3372 11.9559 32.2166 12.0652 31.9714C12.1655 31.7441 12.1464 31.579 12.0093 31.3669C11.8366 31.1218 11.7832 30.8513 11.9356 30.5084C12.1033 30.1286 12.4144 29.9292 12.6938 30.0524C12.8411 30.1172 12.9224 30.2226 12.9593 30.3128L12.7942 30.5465C12.7662 30.483 12.7027 30.3674 12.5719 30.3103C12.3751 30.2239 12.2125 30.389 12.1388 30.5554C12.0385 30.7827 12.0753 30.9338 12.2163 31.1523C12.389 31.419 12.4246 31.673 12.2658 32.0311C12.0995 32.4071 11.7908 32.6598 11.4517 32.5099L11.453 32.5087ZM12.3293 32.8287L13.2564 30.3306L13.4469 30.4017L12.5198 32.8998L12.3293 32.8287ZM14.1213 30.93L13.433 33.2008L13.2361 33.1411L13.9245 30.8703L13.4673 30.7319L13.5524 30.4512L14.6662 30.789L14.5811 31.0685L14.1213 30.9288V30.93ZM15.0484 32.4337L14.816 33.5437L14.6154 33.5018L14.8478 32.3944L14.6763 30.7916L14.9024 30.8386L14.9684 31.6031C14.9862 31.8127 14.9989 31.9816 15.0091 32.1734H15.0142C15.0929 32.0133 15.1818 31.8546 15.2821 31.6692L15.6542 30.9961L15.8803 31.0431L15.051 32.4325L15.0484 32.4337ZM18.0444 32.7716C17.8374 32.7716 17.6698 32.6039 17.6698 32.3969C17.6698 32.1899 17.8374 32.0222 18.0444 32.0222C18.2514 32.0222 18.4191 32.1899 18.4191 32.3969C18.4191 32.6039 18.2514 32.7716 18.0444 32.7716ZM22.1961 33.3393L21.8824 32.2115C21.7834 31.8533 21.6653 31.4215 21.5903 31.0989H21.5827C21.5992 31.4177 21.6094 31.7568 21.6132 32.134L21.6259 33.4599L21.4659 33.498L20.9058 32.327C20.7407 31.9803 20.5959 31.6616 20.4752 31.3644H20.4702C20.5426 31.6895 20.634 32.1277 20.7127 32.5188L20.935 33.6402L20.7343 33.6885L20.2276 31.0697L20.4968 31.005L21.076 32.1912C21.2207 32.4947 21.3439 32.7652 21.4493 33.0243H21.457C21.4354 32.7512 21.4252 32.4528 21.4201 32.1086L21.41 30.7852L21.6792 30.7205L22.4019 33.2872L22.1961 33.3367V33.3393ZM23.8637 32.7677L23.4077 32.0426L22.8489 32.247L22.9734 33.0941L22.7626 33.1716L22.3828 30.4728L22.6292 30.3826L24.0834 32.6877L23.8662 32.7677H23.8637ZM24.5952 32.4477L24.1189 31.4215L22.9912 30.2544L23.2147 30.1502L23.7392 30.7179C23.8827 30.8729 23.997 30.9999 24.1227 31.1459L24.1278 31.1434C24.0973 30.9656 24.0758 30.784 24.0504 30.5731L23.9589 29.8048L24.1824 29.7006L24.3171 31.325L24.7959 32.355L24.5965 32.4464L24.5952 32.4477ZM26.9523 31.1218L25.6823 29.2701L25.6785 29.2726L25.5833 29.6308L25.3978 29.4365L25.5198 28.9882L25.6734 28.8827L27.1263 31.0024L26.9523 31.1218ZM27.9976 30.3725C27.9493 30.4385 27.8972 30.4868 27.8553 30.516L27.6737 30.2963C27.7156 30.2722 27.7525 30.2315 27.802 30.1744C27.882 30.0715 27.9214 29.9318 27.9036 29.7667C27.8871 29.58 27.8033 29.3565 27.6318 29.1037L27.6267 29.1088C27.6686 29.3006 27.6343 29.4619 27.5099 29.5647C27.2851 29.7502 26.9193 29.6016 26.6399 29.2638C26.33 28.8891 26.2284 28.4192 26.4824 28.2084C26.7377 27.9963 27.167 28.1957 27.5861 28.7011C27.9468 29.1368 28.1068 29.5178 28.1411 29.8073C28.169 30.0359 28.1119 30.2366 27.9976 30.3725ZM29.1469 29.3806C29.0174 29.5089 28.8409 29.5571 28.7253 29.5546L28.578 29.3209C28.6669 29.3209 28.8383 29.2904 28.9463 29.1837C29.1457 28.9856 29.0072 28.7215 28.8548 28.5716C28.5996 28.3176 28.3456 28.3532 28.1957 28.5017L28.1093 28.5868L27.9252 28.4014L28.0115 28.3151C28.1246 28.2033 28.1754 27.9683 27.9607 27.7524C27.816 27.6064 27.6293 27.5353 27.4858 27.6775C27.3943 27.7689 27.3689 27.9213 27.3753 28.0268L27.1568 27.8871C27.1467 27.7575 27.1937 27.5708 27.3181 27.4476C27.5442 27.2228 27.8579 27.3346 28.0789 27.5556C28.2655 27.7435 28.3532 27.9734 28.2935 28.1957L28.2986 28.2007C28.484 28.1055 28.7672 28.1601 29.0199 28.4154C29.3095 28.7075 29.42 29.105 29.1444 29.3781L29.1469 29.3806ZM30.2608 28.1042L29.7261 27.6534L29.2409 28.2287L29.0657 28.0814L28.277 26.471L28.4294 26.2906L29.6511 27.3206L29.7972 27.1466L30.0055 27.3232L29.8594 27.4959L30.3941 27.9467L30.2608 28.1042ZM31.6514 26.2373C31.5663 26.3745 31.4101 26.4862 31.2818 26.5129L31.0647 26.3148C31.1968 26.2817 31.3377 26.203 31.4165 26.076C31.532 25.8868 31.4431 25.6798 31.2133 25.5388C31.0012 25.408 30.8335 25.4092 30.596 25.5299C30.3204 25.6823 30.0398 25.709 29.721 25.5108C29.3667 25.2937 29.2181 24.947 29.3895 24.6688C29.4797 24.5228 29.5991 24.4504 29.6956 24.4212L29.9026 24.6193C29.8328 24.6409 29.707 24.6955 29.627 24.8238C29.5064 25.0193 29.6461 25.2073 29.801 25.3026C30.0131 25.4334 30.1706 25.4105 30.4132 25.2873C30.7103 25.1375 30.9707 25.1286 31.3047 25.333C31.6552 25.5489 31.8572 25.8995 31.6489 26.236L31.6514 26.2373ZM32.1302 25.3483L29.7667 24.1176L30.1858 23.3137L30.4424 23.4471L30.1236 24.0592L30.8704 24.4478L31.1714 23.8687L31.4241 24.0008L31.1231 24.5799L31.9753 25.0244L32.3106 24.3793L32.5671 24.5126L32.1315 25.3496L32.1302 25.3483ZM33.0586 23.4471C32.91 23.8649 32.2915 23.9754 31.5308 23.7049C30.7332 23.4204 30.323 22.9238 30.4741 22.5009C30.6278 22.0691 31.2526 21.9764 31.9969 22.2418C32.8618 22.5492 33.2009 23.0445 33.0573 23.4471H33.0586ZM33.578 21.6551C33.5018 21.9903 33.1386 22.1732 32.3334 21.9891L30.8031 21.6398L30.8526 21.4265L32.3906 21.7783C32.9722 21.9116 33.2567 21.8049 33.3063 21.5865C33.3621 21.3439 33.1424 21.1305 32.5684 20.9985L31.0304 20.6467L31.0786 20.4333L32.5938 20.78C33.3914 20.9629 33.6581 21.302 33.578 21.6563V21.6551ZM33.7622 20.507L31.1218 20.145L31.151 19.9304L33.5057 20.253L33.6034 19.5417L33.8892 19.5811L33.7622 20.507Z" fill="#5317AB"/>
<path d="M4.03228 22.0551C4.54537 21.9218 5.03941 21.6246 4.95431 21.2969C4.86922 20.9718 4.31804 20.9413 3.75161 21.0899C3.20042 21.2334 2.7521 21.5383 2.83338 21.8469C2.91466 22.158 3.4468 22.2076 4.03228 22.0551Z" fill="#5317AB"/>
<path d="M22.7296 4.02572C22.943 4.11843 23.1868 4.04604 23.2719 3.85172C23.3544 3.65995 23.2478 3.42627 23.0344 3.33102C22.816 3.23576 22.5683 3.31451 22.4832 3.50501C22.3981 3.69805 22.5099 3.9292 22.7296 4.02572Z" fill="#5317AB"/>
<path d="M31.9359 22.4626C31.4368 22.2848 30.8564 22.2632 30.7358 22.6036C30.6151 22.9414 31.0507 23.2869 31.6019 23.4837C32.1379 23.6742 32.684 23.6628 32.7983 23.3415C32.9139 23.0176 32.5062 22.6658 31.9359 22.4626Z" fill="#5317AB"/>
<path d="M3.59027 14.6509L3.49121 15.1145L4.27354 15.1246C4.45135 15.1272 4.6101 15.1373 4.76631 15.1462V15.1412C4.61772 15.0853 4.46405 15.0256 4.31164 14.9621L3.59027 14.6497V14.6509Z" fill="#5317AB"/>
<path d="M26.1892 12.7471C26.1486 12.6049 26.0279 12.5033 25.8806 12.4868C25.8577 12.4855 25.8349 12.4855 25.8107 12.4906L24.3337 12.784V11.9775C24.3337 11.7413 24.1356 11.5482 23.8943 11.5482H19.2333C19.1584 11.5482 19.0987 11.4898 19.0974 11.4174V11.4149L19.0949 10.2515C19.0949 10.014 18.898 9.82227 18.6554 9.82227H17.3626C17.12 9.82227 16.9231 10.014 16.9231 10.2515L16.9206 11.4149V11.4174C16.9206 11.4898 16.8596 11.5482 16.7847 11.5482H12.125C11.8824 11.5482 11.6856 11.7413 11.6856 11.9775V12.784L10.2073 12.4906C10.1844 12.4855 10.1616 12.4855 10.1387 12.4868C9.99137 12.5033 9.87072 12.6049 9.83008 12.7471C9.82246 12.7738 9.81992 12.803 9.82246 12.8309L11.1293 24.4783L11.1738 24.9C11.2373 25.2505 11.457 25.5642 11.7846 25.7623L17.5264 28.8535C17.6813 28.9158 17.8439 28.9475 18.009 28.9475C18.1728 28.9475 18.3354 28.9158 18.4916 28.8535L24.2334 25.7623C24.561 25.5642 24.7808 25.2505 24.8443 24.9L24.8887 24.4783L26.1956 12.8309C26.1981 12.803 26.1956 12.7738 26.1879 12.7471H26.1892ZM12.1326 11.9838H16.9206C17.1695 11.9838 17.3702 11.787 17.3702 11.5444V10.5398C17.3702 10.3874 17.4934 10.263 17.6483 10.2566H18.3684C18.5246 10.263 18.6478 10.3874 18.6478 10.5398V11.5444C18.6478 11.787 18.8498 11.9838 19.0974 11.9838H23.8854V12.8729L23.1843 13.0126V12.6989C23.1843 12.455 22.9811 12.2556 22.7309 12.2556H20.9224C20.6722 12.2556 20.469 12.455 20.469 12.6989V13.551L19.8061 13.6819V12.6989C19.8061 12.4677 19.613 12.2785 19.3756 12.2785H16.6412C16.4037 12.2785 16.2107 12.4664 16.2107 12.6989V13.6819L15.5464 13.551V12.6989C15.5464 12.455 15.3432 12.2556 15.093 12.2556H13.2858C13.0356 12.2556 12.8324 12.455 12.8324 12.6989V13.0126L12.1314 12.8729V11.9838H12.1326ZM22.7094 13.1065L20.9453 13.4558V12.7192H22.7094V13.1053V13.1065ZM19.3781 13.767L18.3646 13.9676C18.3176 13.9803 18.0877 14.0108 18.0103 14.0108C17.9328 14.0108 17.7029 13.9803 17.6559 13.9676L16.6412 13.767V12.6976C16.6412 12.6976 16.6412 12.6976 16.6425 12.6976H19.3781V13.767ZM15.0727 13.4558L13.3099 13.1065V12.7205H15.0727V13.4571V13.4558ZM24.3909 24.8225C24.3566 25.032 24.2016 25.2581 23.987 25.38L18.296 28.4433C18.2173 28.4738 18.117 28.4903 18.0103 28.4903C17.9036 28.4903 17.8033 28.4738 17.7245 28.4433L12.0336 25.38C11.8189 25.2581 11.6653 25.032 11.6297 24.8225L10.3267 13.1866C10.3254 13.1053 10.3571 12.9795 10.5946 13.0291L17.5518 14.4083C17.6001 14.4223 17.6509 14.4312 17.7017 14.4388C17.8033 14.4553 17.9061 14.4629 18.009 14.4629C18.1119 14.4629 18.216 14.4553 18.3164 14.4388C18.3672 14.4312 18.418 14.4223 18.4662 14.4083L25.4247 13.0291C25.6609 12.9795 25.6939 13.1053 25.6926 13.1866L24.3909 24.8225Z" fill="#5317AB"/>
<path d="M21.1394 16.7223C21.9459 16.7223 22.5631 16.3324 22.5631 15.6987C22.5631 15.0649 21.9459 14.675 21.1394 14.675C20.3329 14.675 19.7144 15.0637 19.7144 15.6987C19.7144 16.3337 20.3304 16.7223 21.1394 16.7223ZM21.1394 15.1132C21.5103 15.1132 21.8113 15.338 21.8113 15.6961C21.8113 16.0543 21.5103 16.2791 21.1394 16.2791C20.7686 16.2791 20.4663 16.0543 20.4663 15.6961C20.4663 15.338 20.7673 15.1132 21.1394 15.1132Z" fill="#5317AB"/>
<path d="M18.9994 16.8315V17.2875H20.7533V17.9746H21.4657V17.2875H23.2793V16.8315H18.9994Z" fill="#5317AB"/>
<path d="M20.0231 17.5071H19.317V18.4583C19.317 18.6488 19.4287 18.8444 19.7208 18.8444H23.0318V18.3936H20.0231V17.5071Z" fill="#5317AB"/>
<path d="M15.7989 17.0044V16.5599H15.5589V15.3114C15.5589 15.1476 15.423 15.0117 15.2592 15.0117H12.9477V15.4854H14.8833V16.5586H14.0882V15.8461H13.4507V16.5586H12.7522V17.0133H14.4172C13.9473 17.1809 13.6272 17.5162 13.6272 17.9251C13.6272 18.5144 14.2965 18.9551 15.1233 18.9551C15.9501 18.9551 16.6194 18.5157 16.6194 17.9251C16.6194 17.5086 16.2854 17.1682 15.7989 17.0031V17.0044ZM15.122 18.5081C14.7156 18.5081 14.3867 18.2642 14.3867 17.9239C14.3867 17.5835 14.7156 17.3397 15.122 17.3397C15.5284 17.3397 15.8561 17.5835 15.8561 17.9239C15.8561 18.2642 15.5272 18.5081 15.122 18.5081Z" fill="#5317AB"/>
<path d="M17.3687 15.6908H16.7375V14.8818H16.0224V16.9786H16.7375V16.1671H17.3687V15.6908Z" fill="#5317AB"/>
<path d="M24.5164 19.1937L23.5512 19.4058C23.4877 19.4236 23.3798 19.4389 23.3137 19.4389H21.1445C19.9888 19.4389 18.7188 20.1374 18.7188 22.4666V25.2886C18.7188 25.4956 18.5143 25.4956 18.447 25.4956C18.3797 25.4956 18.1765 25.5045 18.1765 25.2886V22.4666C18.1765 21.0912 17.1719 19.4389 15.5031 19.4389H12.0347C11.9674 19.4389 11.914 19.4935 11.914 19.5595V22.2354C11.914 22.3028 11.9521 22.3955 12.0004 22.4425L12.7103 23.1524C12.7573 23.1994 12.7967 23.2921 12.7967 23.3594L12.8005 24.3919C12.8005 25.2035 13.9092 25.2035 14.0121 25.2035C14.115 25.2035 15.2478 25.2111 15.2478 24.3919C15.2478 24.3919 15.2339 23.0559 15.2339 22.7142C15.2339 22.3726 14.9824 22.125 14.8427 22.125C14.703 22.125 14.6979 22.2647 14.6979 22.3713V24.3919C14.6979 24.933 14.1023 24.9215 14.0121 24.9215C13.9219 24.9215 13.3263 24.9253 13.3263 24.3919V23.3835C13.3263 23.3175 13.2869 23.2235 13.2399 23.1765L12.6849 22.6215C12.6379 22.5745 12.5986 22.4806 12.5986 22.4145V19.9596C12.5986 19.8923 12.6532 19.8376 12.7192 19.8376H15.5044C16.4137 19.8376 17.0297 21.3591 17.0297 21.9687V25.6874C17.0297 25.7547 17.0843 25.8093 17.1503 25.8093H19.1366C19.7843 25.8093 19.7894 25.1692 19.7894 25.1692V21.97C19.7894 21.0442 20.5387 19.8389 21.1445 19.8389H23.1702C23.2375 19.8389 23.2744 19.891 23.254 19.9545C23.254 19.9545 22.8083 21.5928 22.7498 21.7147C22.6914 21.8379 22.5593 21.8786 22.4933 21.8786H21.744C21.6767 21.8786 21.5217 21.8862 21.6233 21.9967C21.7237 22.1072 21.9777 22.1148 22.0437 22.1148H22.4933C22.5606 22.1148 22.6101 22.1669 22.586 22.2291C22.586 22.2291 22.4222 22.9276 22.2939 23.1994C22.1656 23.4699 22.0475 23.4699 21.9802 23.4699H21.2741C21.1674 23.4699 21.0455 23.5194 21.1522 23.6337C21.2588 23.748 21.4379 23.7264 21.5522 23.7264H22.0374C22.1034 23.7277 22.1326 23.7963 22.1021 23.856C22.1021 23.856 21.9942 24.1976 21.9091 24.4415C21.824 24.684 21.4265 24.7196 21.3604 24.7196H20.8181C20.7508 24.7196 20.6467 24.7412 20.6962 24.8377C20.7458 24.9342 21.0074 24.9558 21.0747 24.9558H21.7313C22.0386 24.9558 22.3219 24.712 22.52 24.3424C22.7181 23.9728 22.7067 23.8661 22.7283 23.7747C22.7498 23.6833 22.7333 23.6782 22.6965 23.6896C22.5682 23.7277 22.3739 23.7214 22.3739 23.7214C22.3739 23.7214 22.8375 23.5436 23.0801 22.9657C23.2337 22.5987 23.3302 22.2634 23.3493 22.1948C23.3683 22.125 23.348 22.1161 23.3226 22.1237C23.1804 22.1732 23.0445 22.1592 23.0445 22.1592C23.0445 22.1592 23.4509 21.9878 23.8294 21.0962C24.2078 20.2047 24.5876 19.2738 24.5876 19.2738C24.6142 19.2128 24.5825 19.1772 24.519 19.195L24.5164 19.1937Z" fill="#5317AB"/>
<path d="M13.8609 21.0581C13.7936 21.0581 13.7187 21.1089 13.6933 21.1699L13.4431 21.7731C13.4177 21.8341 13.4507 21.8849 13.518 21.8849H13.8749C13.9422 21.8849 14.0171 21.8341 14.0425 21.7731L14.2914 21.1699C14.3168 21.1076 14.2838 21.0581 14.2165 21.0581H13.8596H13.8609Z" fill="#5317AB"/>
</svg>
