<svg width="170" height="50" viewBox="0 0 170 50" fill="none" xmlns="http://www.w3.org/2000/svg">
<path fill-rule="evenodd" clip-rule="evenodd" d="M111.661 22.3478C111.615 22.3372 111.562 22.3478 111.512 22.3478C110.913 21.9597 110.29 21.988 109.659 22.2543C109.503 22.3196 109.348 22.3937 109.184 22.2896C108.799 22.0462 108.385 22.1114 107.972 22.1767C107.563 22.242 107.161 22.3478 106.743 22.3602C106.415 22.369 106.261 22.279 106.281 21.9051C106.314 21.1748 106.367 20.4463 106.471 19.7213C106.655 18.4407 106.933 17.1689 106.817 15.8619C106.845 15.786 106.887 15.7102 106.898 15.6326C107.11 14.0274 107.029 13.9921 108.911 13.7434C108.928 13.7416 108.944 13.7434 108.96 13.7381C109.593 13.6199 110.255 13.5723 110.773 13.1278C111.059 12.8826 111.168 12.5634 111.038 12.1859C110.916 11.8331 110.657 11.759 110.324 11.8278H110.32C109.678 11.6867 109.034 11.6743 108.39 11.8278C107.697 11.9354 107.002 11.9777 106.302 11.9089C105.404 11.8172 104.554 12.0836 103.696 12.2688C103.457 12.3199 103.236 12.4628 103.054 12.6392C102.848 12.8403 102.659 13.0572 102.756 13.38C102.85 13.687 103.028 13.8792 103.37 13.9533C103.906 14.0697 104.598 14.9235 104.637 15.4209C104.762 17.0807 104.612 18.7035 103.998 20.2664C103.917 20.4728 103.866 20.7144 103.947 20.9032C104.268 21.6511 104.016 22.2843 103.619 22.907C103.557 23.0005 103.541 23.1222 103.502 23.2315C103.307 23.4485 103.22 23.7289 103.176 23.9971C103.107 24.4275 103.247 24.8155 103.624 25.0748C104 25.3341 104.365 25.5793 104.847 25.2512C105.226 24.9919 105.674 24.9408 106.134 24.9937C106.582 25.0448 107.043 25.0378 107.459 24.8737C108.009 24.655 108.57 24.5809 109.152 24.5262C109.994 24.4486 110.847 24.5227 111.675 24.2916C112.283 24.1223 112.805 23.6743 112.804 23.3056C112.8 22.9087 112.318 22.4995 111.661 22.3407V22.3478ZM106.66 24.6409C106.67 24.6409 106.677 24.6409 106.688 24.6391C106.686 24.6427 106.683 24.6462 106.681 24.6497C106.674 24.6462 106.667 24.6444 106.662 24.6409H106.66Z" fill="#989898"/>
<path fill-rule="evenodd" clip-rule="evenodd" d="M122.055 23.3567C121.888 22.5029 121.909 21.6421 121.902 20.7796C121.893 19.9893 122.11 19.2026 121.93 18.4124C121.856 18.1566 121.782 17.9009 121.708 17.6451C121.704 17.5463 121.708 17.4458 121.699 17.347C121.574 15.8089 121.387 14.2707 121.607 12.7238C121.671 12.2793 121.68 11.8259 121.611 11.3797C121.514 10.7499 120.981 10.0973 120.549 10.0497C120.099 10.0003 119.44 10.5189 119.217 11.0957C119.212 11.1098 119.215 11.1292 119.214 11.1451C119.067 11.3003 119.053 11.5049 119.011 11.6972C118.827 12.5209 118.944 13.357 118.923 14.1861C118.917 14.4224 118.875 14.687 118.637 14.6976C118.025 14.7293 117.45 15.0257 116.825 14.9357C116.679 14.2443 116.705 13.5493 116.771 12.8525C116.869 11.7942 116.716 10.8381 115.779 10.1414C115.421 9.87504 115.123 10.0444 114.802 10.1361C114.501 10.2225 114.506 10.4695 114.479 10.7305C114.412 11.3603 114.726 11.9459 114.709 12.5421C114.661 14.1878 114.929 15.8177 114.836 17.474C114.77 18.6435 114.908 19.8271 114.693 20.9983C114.569 21.2241 114.55 21.4604 114.564 21.7162C114.645 23.212 114.647 24.7078 114.52 26.2036C114.458 26.9286 114.347 27.6641 114.52 28.3891C114.635 28.8742 115.18 29.2252 115.746 29.2093C116.391 29.1917 116.718 28.9377 116.808 28.3239C116.926 27.5054 117 26.6816 117 25.8544C117.009 25.7185 117.011 25.5827 116.998 25.4434C117.187 24.4168 117.506 23.4131 117.513 22.3548C117.52 21.471 117.213 20.6226 117.266 19.73C117.305 19.0527 117.332 18.3665 117.247 17.6857C117.233 17.5728 117.221 17.4528 117.307 17.3558C117.621 16.9995 118.861 17.1441 118.984 17.5851C119.108 18.0261 119.302 18.4494 119.332 18.9204C119.397 19.9488 119.475 20.9771 119.579 22.0002C119.724 23.4113 119.815 24.7995 119.293 26.1772C119.034 26.8616 119.284 27.5477 119.688 28.1528C119.988 28.7049 120.551 28.8654 121.083 28.9395C121.851 29.0471 122.066 28.7913 122.017 28.0258C121.964 27.1949 122.017 26.3677 122.075 25.5404C122.128 24.8137 122.197 24.0781 122.054 23.3531L122.055 23.3567ZM121.443 12.2175C121.443 12.1805 121.44 12.1434 121.438 12.1064C121.442 12.1434 121.443 12.1805 121.443 12.2175Z" fill="#989898"/>
<path fill-rule="evenodd" clip-rule="evenodd" d="M86.8158 16.7933C88.4209 17.2942 91.1762 17.6311 92.7655 15.5726C93.501 14.6219 93.8185 13.5988 93.3881 12.424C92.545 10.9494 91.1885 10.3214 89.5763 10.1521C88.6203 10.0516 87.6854 10.1486 86.874 10.7483C86.1913 11.0517 85.701 11.5385 85.4999 12.267C85.3306 12.8774 85.3023 13.5124 85.2547 14.1421C85.1947 14.9588 86.0449 16.5534 86.814 16.7933H86.8158ZM93.4287 13.1666C93.4287 13.1666 93.4216 13.1807 93.4199 13.1896C93.4164 13.1578 93.4128 13.1261 93.4075 13.0961C93.4287 13.112 93.4411 13.1331 93.4287 13.1684V13.1666ZM87.5831 13.56C87.6025 13.2425 87.8283 13.1067 88.0823 13.0008C88.7702 12.7151 89.5093 12.611 90.2342 12.641C90.804 12.6622 91.3702 12.8985 91.5713 13.5582C91.5466 13.9816 91.4284 14.3538 91.118 14.673C90.8322 14.9676 90.5376 15.151 90.1143 15.0664C90.0032 15.0434 89.8779 15.0293 89.7686 15.0523C88.8161 15.2675 88.1581 14.8053 87.5796 14.1315C87.4067 13.9287 87.4578 13.7505 87.5831 13.56Z" fill="#989898"/>
<path fill-rule="evenodd" clip-rule="evenodd" d="M98.1843 18.2592C98.0079 18.1781 97.8438 17.9858 97.6374 18.0899C96.8525 18.4868 96.0358 18.3033 95.2403 18.2081C94.7111 18.1428 94.1643 18.2892 93.6633 18.1058C93.2947 17.9699 92.9542 17.947 92.5997 18.0599C92.1499 18.2045 91.6895 18.2239 91.2238 18.231C90.1602 18.2469 89.1054 18.0987 88.0382 18.1375C87.0222 18.1745 86.0026 18.1022 84.9849 18.0617C84.3622 18.037 83.6954 17.7459 83.1327 18.1163C82.5471 18.5026 81.9492 18.5873 81.2912 18.5256C80.3034 18.328 79.9259 18.5326 79.5943 19.4463C79.5661 19.5239 79.5397 19.6068 79.4903 19.6721C79.1869 20.0796 79.3262 20.4447 79.5626 20.824C79.8113 21.2208 80.1835 21.1679 80.5398 21.1062C80.8644 21.0515 81.1801 20.9351 81.4976 20.8398C81.7692 20.7569 82.0409 20.6687 82.3284 20.7675C82.9669 20.988 83.6143 20.9263 84.2423 20.771C85.4999 20.4606 86.7382 20.4553 87.9765 20.8522C88.2746 20.9474 88.3963 21.1168 88.3892 21.4378C88.3769 22.1187 88.3434 22.8031 88.4474 23.4822C88.4951 23.7909 88.525 24.1683 88.8231 24.3077C89.5569 24.6534 90.0685 24.6887 90.5871 23.9073C90.7335 23.6886 90.8217 23.431 90.9328 23.1894C91.2397 22.5208 91.2062 22.3586 90.6735 21.8488C90.6435 21.7818 90.6118 21.713 90.5818 21.6442C90.7247 20.9845 90.9787 20.7199 91.5801 20.801C92.4586 20.9192 93.3282 20.8786 94.2049 20.8434C94.9528 20.8134 95.7024 20.8575 96.4521 20.8434C97.1894 20.8292 97.9126 20.7093 98.5688 20.3495C98.8528 20.1942 99.1826 20.039 99.1844 19.6386C99.1844 18.963 98.8545 18.5167 98.186 18.2592H98.1843Z" fill="#989898"/>
<path fill-rule="evenodd" clip-rule="evenodd" d="M96.8472 26.2516C96.482 26.2199 96.1275 26.1599 95.7782 26.047C95.5154 26.0135 95.2543 25.9658 94.9898 25.9464C93.7938 25.8618 92.5979 25.8582 91.4037 25.9517C89.8585 26.0699 88.3116 25.8706 86.7699 25.9835C86.0044 26.0399 85.2476 26.0487 84.5015 25.8336C84.3198 25.6783 84.3745 25.4843 84.3957 25.2832C84.4521 24.724 84.5862 24.1755 84.5579 23.6057C84.5315 23.0766 84.1999 22.789 83.7836 22.6021C83.3461 22.4045 82.8981 22.3974 82.4783 22.7326C81.9914 23.1206 81.8838 23.6445 81.9244 24.2037C81.9844 25.0468 81.868 25.8194 81.2577 26.4562C81.2153 26.5021 81.1977 26.5709 81.1677 26.6291C80.9454 26.9325 80.8643 27.2923 81.0283 27.6151C81.4517 28.4477 82.7746 28.9451 83.6989 28.6858C83.967 28.61 84.2528 28.5782 84.5333 28.5606C85.4134 28.5094 86.2954 28.4759 87.1756 28.4371C88.1616 28.2554 89.1635 28.3842 90.1566 28.2801C92.1216 28.072 94.0813 27.8903 96.0358 28.4371C97.3075 28.7934 97.708 28.4071 97.6109 27.0542C97.5721 26.5215 97.3781 26.301 96.8472 26.2534V26.2516Z" fill="#989898"/>
<path fill-rule="evenodd" clip-rule="evenodd" d="M76.3275 14.3328C75.8001 14.2851 75.3045 14.3963 74.837 14.6415C74.5513 14.7738 74.3343 14.6785 74.1597 14.4386C73.9639 13.9165 73.918 13.375 73.9374 12.8193C73.9533 12.3537 73.9551 11.8862 73.9251 11.4223C73.8916 10.8914 73.5405 10.5015 73.096 10.4416C71.9318 10.2863 71.0534 11.3782 71.5067 12.4383C71.6884 12.8652 71.7325 13.2797 71.6955 13.7436C71.6002 14.9237 71.6285 16.1214 71.819 17.2768C71.9724 18.2063 71.9565 19.0812 71.7854 19.9826C71.7043 20.4059 71.6973 20.8399 71.7308 21.2756C71.7572 21.6283 71.9618 21.773 72.2617 21.8312C73.4753 22.0693 74.4031 21.3214 74.4666 20.0937C74.5142 19.1906 74.3361 18.2998 74.3484 17.402C74.3572 16.7758 74.3731 16.7511 75.0028 16.8358C75.4667 16.8975 75.9236 16.9857 76.3928 16.9081C77.0155 16.8058 77.34 16.2854 77.3189 15.4193C77.303 14.7614 76.9678 14.3892 76.3293 14.3328H76.3275ZM75.2339 15.2923C75.2392 15.3012 75.2445 15.3117 75.2515 15.3206C75.2427 15.317 75.2357 15.3135 75.2268 15.31C75.2304 15.3029 75.2321 15.2976 75.2339 15.2923Z" fill="#989898"/>
<path fill-rule="evenodd" clip-rule="evenodd" d="M67.1588 20.4203C67.8838 20.5473 68.6281 20.2245 69.3849 20.281C69.8029 20.3127 69.9652 20.0305 69.8435 19.6089C69.7764 19.3796 69.7676 19.1521 69.7659 18.9192C69.7659 18.3018 69.5859 18.0866 68.9545 17.9349H68.9456C68.5876 17.7956 68.2189 17.8256 67.8485 17.8556C67.7515 17.8485 67.6545 17.8415 67.5574 17.8362C67.3969 17.6809 67.09 17.7815 66.9771 17.5081C67.0459 17.4516 67.1112 17.4005 67.1747 17.3511C68.1836 16.5609 68.8363 15.6383 68.3759 14.266C68.2824 13.9873 68.2877 13.6769 68.233 13.3823C68.1219 12.7755 67.9825 12.1775 67.6827 11.6307C67.3352 10.9975 66.9471 10.8352 66.2874 11.158C65.8253 11.3838 65.4055 11.3943 64.9468 11.225C64.744 11.1509 64.5358 11.0874 64.3259 11.0416C63.0312 10.754 61.7365 11.1315 60.44 11.0451C60.0837 10.9904 59.7468 11.0416 59.4399 11.2391C58.8596 11.4279 58.2757 11.6554 58.1487 12.331C57.9829 13.1971 58.5544 13.8233 59.5052 13.8162C60.1931 13.8127 60.8828 13.7157 61.5707 13.6592C61.7665 13.6839 61.9817 13.668 62.1581 13.7421C62.8213 14.0191 63.4246 13.8515 64.0278 13.5622C64.3877 13.3911 64.7546 13.2288 65.1268 13.0912C65.7635 12.8549 66.0387 13.0083 66.3915 13.5904C66.7266 14.1425 66.5838 14.6788 66.4603 15.2273C66.3156 15.8765 66.1198 16.5185 66.3315 17.1888C66.4074 17.4287 66.2557 17.4234 66.0934 17.434C65.5078 17.471 64.9327 17.3511 64.3524 17.3264C64.1496 17.2488 64.019 17.1006 64.0049 16.8872C63.9908 16.6596 64.0314 16.4268 64.0225 16.1993C63.989 15.4602 63.608 14.9222 62.9854 14.5659C62.4809 14.2766 62.0328 14.4689 61.6289 14.8181C60.6252 15.3861 60.4489 15.6948 60.8687 16.448C61.2109 17.06 61.232 17.6298 60.9322 18.2366C60.5212 18.577 59.9797 18.3477 59.5387 18.5523C59.1806 18.5576 58.8419 18.6335 58.5421 18.8398C58.1081 18.928 57.8171 19.2244 57.549 19.5436C57.2456 19.9035 57.2332 20.5173 57.5102 20.9371C57.8189 21.4046 58.1258 21.5104 58.7096 21.3428C59.2353 21.1911 59.7662 21.0871 60.3148 21.0289C61.4384 20.9089 62.5761 21.0624 63.6909 20.8278C64.834 20.5879 65.9452 20.2051 67.1641 20.4185L67.1588 20.4203ZM58.5632 19.4184C58.5668 19.4378 58.5703 19.4554 58.5738 19.4748C58.5668 19.4554 58.5632 19.436 58.5632 19.4184Z" fill="#989898"/>
<path fill-rule="evenodd" clip-rule="evenodd" d="M71.4538 23.8298C70.9511 23.1595 70.2138 22.7468 69.6229 22.17C69.1466 21.7043 68.5575 21.6144 67.9207 21.9072C67.3174 22.1841 66.6824 22.394 66.0915 22.6921C65.4918 22.9955 64.855 23.2636 64.4334 23.8351C64.2588 23.9604 64.2129 24.1632 64.16 24.3484C63.9871 24.9587 64.0207 25.5955 63.9307 26.2164C63.8019 27.1054 64.1635 27.8216 64.7333 28.4636C65.2783 29.1181 66.0139 29.3897 66.8306 29.4426C67.5432 29.4902 68.2541 29.4267 68.9667 29.3668C69.9421 29.2856 70.6389 28.7882 71.2545 28.1056C71.8895 27.4 72.3005 26.6292 72.0271 25.6308C71.8595 25.0222 71.9442 24.3343 71.4556 23.8281L71.4538 23.8298ZM66.7688 24.8264C67.5908 24.4684 68.4005 24.6606 69.099 25.084C69.4306 25.2851 69.6811 25.7384 69.8398 26.1564C69.9069 26.3328 69.8292 26.5145 69.7093 26.6662C69.2613 27.2324 68.718 27.5923 67.9524 27.49C67.6579 27.4441 67.3615 27.4141 67.0705 27.3524C66.3596 27.1989 66.0068 26.6944 65.9857 25.9589C65.968 25.3609 66.282 25.0399 66.7724 24.8264H66.7688Z" fill="#989898"/>
<path fill-rule="evenodd" clip-rule="evenodd" d="M169.162 23.5298C168.577 23.0588 167.885 23.1699 167.217 23.1876C165.663 23.2264 164.107 23.3922 162.555 23.1435C161.798 22.766 161.862 22.0693 161.832 21.3813C161.78 20.2542 161.675 19.127 161.253 18.0669C160.985 17.3949 160.548 17.2008 159.812 17.3561C159.295 17.4654 159.098 17.7688 159.089 18.4973C159.075 19.7303 159.106 20.9615 159.175 22.191C159.203 22.6884 159.034 22.9036 158.535 22.9442C158.156 22.9742 157.769 22.9495 157.387 22.9353C156.864 22.9177 156.48 22.4732 156.646 21.9916C156.935 21.1467 156.711 20.3935 156.356 19.6439C156.281 19.2364 156.24 18.8201 156.117 18.4268C155.997 18.044 155.787 17.6789 155.317 17.6365C154.585 17.5695 153.76 18.4938 153.887 19.2135C154.111 20.4853 154.127 21.7623 153.931 23.0394C153.862 23.214 153.746 23.3322 153.548 23.3481C152.432 23.6339 151.287 23.7626 150.151 23.9355C149.863 23.9796 149.648 24.0907 149.632 24.4206C149.331 25.2196 149.632 26.3362 150.818 26.1774C151.047 26.1474 151.283 26.158 151.514 26.1704C152.975 26.2462 154.388 25.7788 155.87 25.9075C158.302 26.121 160.743 25.777 163.193 25.9322C164.936 26.0416 166.705 25.7488 168.462 25.6394C168.681 25.6253 168.829 25.5371 168.961 25.3643C169.3 24.9198 169.395 24.4065 169.431 23.872C169.443 23.6762 169.369 23.551 169.162 23.528V23.5298Z" fill="#989898"/>
<path fill-rule="evenodd" clip-rule="evenodd" d="M151.384 14.3995C153.638 14.4524 155.9 14.1349 158.147 14.5301C159.688 14.874 161.161 14.3678 162.657 14.1526V14.1561C163.186 14.1826 163.719 14.209 164.252 14.2355L164.282 14.2602H164.322C164.43 14.4242 164.537 14.5918 164.645 14.7594C164.786 15.2356 164.924 15.7084 164.977 16.2093C165.12 17.5905 165.021 18.954 164.836 20.3263C164.643 21.7374 165.289 22.3707 166.693 22.2525C167.197 22.2102 167.501 21.875 167.416 21.3917C167.323 20.8608 167.363 20.3316 167.363 19.8006C167.363 19.3032 167.444 18.7952 167.268 18.3172C167.056 17.7404 167.048 17.1477 167.048 16.548C167.048 15.8195 167.15 15.0927 167.065 14.359C166.924 13.1189 166.021 11.9195 164.936 11.7431C163.906 11.5737 162.858 11.6337 161.819 11.7307C160.124 11.826 158.431 11.8383 156.734 11.7395C155.626 11.6743 154.499 11.6214 153.402 11.8471C152.483 12.0359 151.53 12.1858 150.853 12.9514C150.502 13.2865 150.32 13.7204 150.49 14.1579C150.631 14.523 151.072 14.3925 151.387 14.4013L151.384 14.3995ZM150.675 13.641C150.675 13.641 150.662 13.641 150.655 13.641C150.661 13.6358 150.666 13.6322 150.67 13.6269C150.67 13.6322 150.671 13.6358 150.673 13.641H150.675Z" fill="#989898"/>
<path d="M143.06 23.3797C142.348 23.1803 141.675 22.8558 140.906 22.8258C140.3 22.8011 139.673 22.9281 139.081 22.7129C138.326 22.4395 137.544 22.309 136.747 22.2578C135.786 22.1079 134.812 22.1696 133.815 22.1255C133.865 22.0779 133.882 22.0514 133.905 22.0408C134.043 21.9809 134.177 21.9103 134.318 21.8698C135.699 21.4658 136.534 20.5256 136.929 19.1798C137.059 18.737 137.312 18.2131 136.95 17.8074C136.227 16.9978 135.906 15.8266 134.772 15.375C134.659 15.3309 134.331 15.2374 134.544 14.9481C135.341 14.6006 136.174 14.5513 137.026 14.6571C137.534 14.7188 137.982 14.5354 138.379 14.2479C138.885 13.8827 138.851 12.8632 138.345 12.551C137.731 12.3252 137.096 12.4663 136.472 12.4416C135.858 12.4169 135.239 12.4628 134.634 12.3217C134.336 12.2529 134.103 12.1541 134.101 11.7378C134.098 11.3691 134.126 10.9634 133.948 10.6177C133.639 10.0198 132.443 10.0056 132.05 10.7835C131.856 11.1681 131.685 11.5667 131.505 11.9601C131.374 12.2458 131.208 12.4822 130.845 12.4592C130.806 12.4945 130.757 12.4928 130.709 12.5086C130.674 12.5192 130.637 12.528 130.602 12.5369C130.681 12.5033 130.76 12.4734 130.845 12.461C129.635 12.4998 128.428 12.5545 127.247 12.8614C126.908 12.9496 126.74 13.1172 126.684 13.4559C126.538 14.3413 127.839 15.4279 128.804 15.2127C129.773 14.9975 130.722 14.6553 131.738 14.7541C131.856 14.8917 132.12 14.7629 132.2 15.0346C131.207 15.2815 130.506 15.943 129.818 16.6574C128.915 17.5958 128.79 18.6083 129.33 19.7495C129.413 20.4374 129.838 20.8714 130.397 21.2171C130.991 21.5858 131.632 21.8486 132.291 22.0761C132.406 22.1149 132.669 22.0532 132.62 22.3337C132.113 22.4307 131.604 22.4466 131.09 22.4536C130.27 22.466 129.444 22.4466 128.64 22.66C127.804 22.7253 127.164 23.1098 126.733 23.8312C126.336 24.5103 126.587 25.0395 127.34 25.1259C128.042 25.2071 128.712 25.0642 129.376 24.8578C129.492 24.8472 129.61 24.8508 129.723 24.8261C132.048 24.3269 134.413 24.3551 136.77 24.3198C138.054 24.3004 139.321 24.5244 140.568 24.8278C140.891 24.9072 141.257 24.9813 141.324 25.3782C141.429 25.9938 141.601 26.6023 141.545 27.2374C141.411 27.4049 141.432 27.6184 141.399 27.8089C141.127 29.3823 141.561 29.7139 143.129 29.3787C143.559 29.287 143.732 29.0119 143.734 28.5903C143.734 28.0082 143.75 27.4279 143.759 26.8458C143.965 25.7327 143.667 24.6832 143.341 23.639C143.297 23.4996 143.185 23.4096 143.06 23.3744V23.3797ZM142.459 24.9919C142.46 25.0078 142.462 25.0236 142.464 25.0395C142.455 25.0236 142.453 25.0078 142.459 24.9919ZM140.832 23.3056C140.758 23.3479 140.702 23.3144 140.658 23.2491C140.714 23.2562 140.772 23.2721 140.832 23.3056ZM132.346 17.5446C132.697 17.437 133.046 17.3382 133.505 17.3559C134.205 17.2924 134.717 17.7757 135.22 18.2678C135.362 18.4072 135.343 18.5236 135.211 18.6929C134.512 19.5802 133.332 19.8606 132.302 19.3738C131.813 19.1427 131.817 18.6947 131.796 18.2696C131.778 17.8956 131.981 17.6558 132.346 17.5446Z" fill="#989898"/>
<path d="M146.36 15.4208C146.164 14.9216 145.806 14.6412 145.272 14.5424C144.753 14.4471 144.263 14.4718 143.792 14.717C143.545 14.8458 143.365 14.8123 143.263 14.5371C143.153 13.9303 143.145 13.3165 143.139 12.7008C143.138 12.3534 143.18 12.0041 143.086 11.6584C142.922 11.0481 142.563 10.7447 142.005 10.7588C141.476 10.7711 141.06 11.1874 140.94 11.7677C140.8 12.4433 141.003 13.0801 141.109 13.7292C141.1 13.6163 141.113 13.5034 141.135 13.3905C141.123 13.5511 141.116 13.7133 141.13 13.8703C140.984 15.158 140.855 16.4474 141.04 17.7439C140.94 18.5006 140.827 19.2556 140.742 20.014C140.698 20.4215 140.559 20.8431 140.717 21.247C140.894 21.6986 141.21 21.9879 141.744 21.9491C142.367 21.905 142.806 21.6192 142.929 21.0689C143.152 20.0811 143.007 19.0615 143.153 18.0632C143.466 17.033 143.466 17.0401 144.605 17.0242C145.051 17.0189 145.501 17.0965 145.944 16.9607C146.709 16.7261 146.895 16.047 146.36 15.419V15.4208ZM142.368 11.1045C142.368 11.1045 142.354 11.1045 142.347 11.101C142.354 11.0939 142.361 11.0869 142.37 11.0798C142.37 11.0869 142.37 11.0957 142.368 11.1045ZM142.554 20.5097C142.554 20.5097 142.55 20.5097 142.548 20.5097C142.566 20.4515 142.584 20.3968 142.603 20.3439C142.679 20.3845 142.644 20.4744 142.552 20.5079L142.554 20.5097Z" fill="#989898"/>
<path d="M60.3057 35.9865V39.6202H61.237V39.7948H57.6298V39.6202H58.5559V32.277H57.6298V32.1024H61.2194V32.277H60.3039V35.6778L62.9163 33.1713C63.0891 33.0143 63.2073 32.8891 63.2708 32.7991C63.3343 32.7091 63.3661 32.6298 63.3661 32.5627C63.3661 32.4604 63.3185 32.3881 63.225 32.3422C63.1315 32.2981 62.9815 32.2752 62.7787 32.2752H62.6235V32.1006H65.4898V32.2752C65.4669 32.2752 65.4334 32.2735 65.3893 32.2699C65.3452 32.2664 65.3117 32.2646 65.2887 32.2646C64.9201 32.2646 64.562 32.3528 64.2128 32.5257C63.8635 32.7003 63.4878 32.9808 63.0839 33.3688L61.7786 34.6248L65.0524 39.6202H65.8532V39.7948H62.1543V39.6202H62.9533L60.5138 35.7907L60.3074 35.9883L60.3057 35.9865Z" fill="#989898"/>
<path d="M67.3806 39.7933H67.0755L65.0505 35.1365H64.389V34.9619H67.3242V35.1365H66.6504L67.9627 38.1546L69.2804 35.1365H69.7637L71.0231 38.1775L71.8857 36.2284C71.9315 36.1243 71.9668 36.0238 71.9898 35.9268C72.0127 35.8315 72.025 35.7469 72.025 35.6763C72.025 35.4735 71.9704 35.3341 71.861 35.2547C71.7516 35.1753 71.5505 35.1365 71.2595 35.1365V34.9619H73.3145L73.3074 35.1365C73.1416 35.163 72.7341 35.2477 72.6054 35.3941C72.4748 35.5387 72.3178 35.8174 72.1326 36.2302L70.4587 39.795H70.1553L68.7971 36.7488L67.3824 39.795L67.3806 39.7933Z" fill="#989898"/>
<path d="M80.7284 39.6199H81.3846V39.7946H78.5023V39.6199H79.1691V35.1361H78.5023V34.9614H79.4178C79.6947 34.9614 79.9276 34.9508 80.1198 34.9279C80.3121 34.905 80.4903 34.8697 80.6543 34.8203V35.8963C80.8695 35.5435 81.1306 35.2754 81.4392 35.0937C81.7479 34.912 82.0954 34.8203 82.4835 34.8203C82.9897 34.8203 83.3866 34.9491 83.6741 35.2066C83.9616 35.4641 84.1063 35.8152 84.1063 36.2632V39.6199H84.7678V39.7946H81.9032V39.6199H82.554V36.0215C82.554 35.7023 82.5099 35.4818 82.4217 35.3636C82.3335 35.2437 82.1818 35.1837 81.9684 35.1837C81.6121 35.1837 81.3158 35.323 81.0829 35.6035C80.8483 35.884 80.7319 36.242 80.7319 36.6812V39.6217L80.7284 39.6199Z" fill="#989898"/>
<path d="M100.031 37.2422C100.031 36.9 100.103 36.5719 100.25 36.2561C100.396 35.9404 100.606 35.6546 100.883 35.3953C101.147 35.1537 101.43 34.9755 101.73 34.8574C102.028 34.7392 102.354 34.6792 102.707 34.6792C103.06 34.6792 103.393 34.7392 103.696 34.8591C104 34.9791 104.277 35.1572 104.531 35.3953C104.806 35.6546 105.017 35.9422 105.164 36.2561C105.31 36.5719 105.383 36.9 105.383 37.2422C105.383 37.5844 105.312 37.9107 105.167 38.2194C105.023 38.5298 104.811 38.8156 104.532 39.0784C104.275 39.3183 103.996 39.4982 103.695 39.6164C103.395 39.7346 103.065 39.7928 102.709 39.7928C101.964 39.7928 101.333 39.5441 100.812 39.0467C100.292 38.5492 100.033 37.9477 100.033 37.2422H100.031ZM103.719 37.8789V36.5948C103.719 35.8998 103.645 35.4359 103.499 35.2048C103.351 34.972 103.088 34.8556 102.707 34.8556C102.326 34.8556 102.063 34.972 101.917 35.2048C101.768 35.4377 101.694 35.9016 101.694 36.5948V37.8789C101.694 38.5739 101.768 39.0361 101.917 39.2689C102.065 39.5017 102.328 39.6182 102.707 39.6182C103.086 39.6182 103.351 39.5017 103.499 39.2689C103.645 39.0361 103.719 38.5722 103.719 37.8789Z" fill="#989898"/>
<path d="M105.922 37.2422C105.922 36.9 105.995 36.5719 106.141 36.2561C106.288 35.9404 106.497 35.6546 106.774 35.3953C107.039 35.1537 107.321 34.9755 107.619 34.8574C107.919 34.7392 108.244 34.6792 108.597 34.6792C108.949 34.6792 109.283 34.7392 109.586 34.8591C109.889 34.9791 110.168 35.1572 110.42 35.3953C110.696 35.6546 110.907 35.9422 111.054 36.2561C111.2 36.5719 111.272 36.9 111.272 37.2422C111.272 37.5844 111.2 37.9107 111.057 38.2194C110.914 38.5298 110.701 38.8156 110.422 39.0784C110.165 39.3183 109.886 39.4982 109.584 39.6164C109.284 39.7346 108.955 39.7928 108.598 39.7928C107.854 39.7928 107.222 39.5441 106.702 39.0467C106.182 38.5492 105.922 37.9477 105.922 37.2422ZM109.611 37.8789V36.5948C109.611 35.8998 109.537 35.4359 109.389 35.2048C109.24 34.972 108.978 34.8556 108.597 34.8556C108.216 34.8556 107.953 34.972 107.806 35.2048C107.658 35.4377 107.584 35.9016 107.584 36.5948V37.8789C107.584 38.5739 107.658 39.0361 107.806 39.2689C107.954 39.5017 108.217 39.6182 108.597 39.6182C108.976 39.6182 109.24 39.5017 109.389 39.2689C109.535 39.0361 109.611 38.5722 109.611 37.8789Z" fill="#989898"/>
<path d="M113.913 39.6199H114.569V39.7946H111.687V39.6199H112.354V35.1361H111.687V34.9614H112.602C112.877 34.9614 113.112 34.9508 113.304 34.9279C113.495 34.905 113.675 34.8697 113.839 34.8203V35.8963C114.054 35.5435 114.315 35.2754 114.624 35.0937C114.932 34.912 115.282 34.8203 115.668 34.8203C116.174 34.8203 116.571 34.9491 116.859 35.2066C117.146 35.4641 117.291 35.8152 117.291 36.2632V39.6199H117.952V39.7946H115.088V39.6199H115.738V36.0215C115.738 35.7023 115.694 35.4818 115.606 35.3636C115.518 35.2437 115.366 35.1837 115.153 35.1837C114.795 35.1837 114.5 35.323 114.266 35.6035C114.031 35.884 113.915 36.242 113.915 36.6812V39.6217L113.913 39.6199Z" fill="#989898"/>
<path d="M78.3048 38.7186C78.2589 38.8986 78.2025 39.0344 78.1319 39.1244C78.0631 39.2143 77.9837 39.2602 77.8955 39.2602C77.7685 39.2602 77.6803 39.2037 77.6274 39.0891C77.5745 38.9744 77.5498 38.7627 77.5498 38.4558V36.4503C77.5498 36.0551 77.5022 35.7659 77.4087 35.5806C77.3135 35.3954 77.1512 35.2314 76.9166 35.0885C76.6943 34.9544 76.4403 34.8521 76.1546 34.7851C75.8688 34.7163 75.5531 34.6846 75.2091 34.6846C74.5988 34.6846 74.1137 34.7939 73.7503 35.0144C73.394 35.2314 73.2123 35.5118 73.207 35.8576C73.207 35.8576 73.207 35.8593 73.207 35.8611C73.207 35.8646 73.207 35.8682 73.207 35.8717C73.207 35.9017 73.2123 35.9299 73.2176 35.9581C73.267 36.3038 73.5669 36.5684 73.932 36.5684C74.3324 36.5684 74.657 36.2509 74.657 35.8593C74.657 35.5136 74.403 35.2243 74.0678 35.1626C74.0996 35.0973 74.1825 35.0356 74.3271 34.9774C74.5088 34.9033 74.724 34.868 74.9745 34.868C75.4084 34.868 75.6977 34.9439 75.8459 35.0956C75.994 35.2473 76.0664 35.5983 76.0664 36.1469V36.8277C74.9339 36.8277 74.0908 36.9565 73.5351 37.2158C72.9777 37.4751 72.7008 37.8684 72.7008 38.3976C72.7008 38.8439 72.8754 39.1878 73.2264 39.4313C73.5775 39.6729 74.0802 39.7946 74.7364 39.7946C75.0733 39.7946 75.359 39.7311 75.5901 39.6041C75.8229 39.4771 75.9958 39.2884 76.1105 39.0414C76.1951 39.2937 76.3327 39.4807 76.5215 39.6024C76.7102 39.7241 76.9589 39.7858 77.2658 39.7858C77.5727 39.7858 77.8497 39.687 78.0737 39.4877C78.2977 39.2884 78.4247 39.0326 78.4565 38.7222H78.3012L78.3048 38.7186ZM76.0681 38.1895C76.0681 38.6287 75.9887 38.9568 75.83 39.1737C75.6712 39.3907 75.4313 39.5001 75.1138 39.5001C74.8299 39.5001 74.6252 39.4013 74.5018 39.202C74.3765 39.0026 74.3148 38.6693 74.3148 38.2001C74.3148 37.7309 74.4224 37.401 74.6341 37.2458C74.8475 37.0906 75.2902 37.0129 75.9658 37.0129H76.0699V38.1912L76.0681 38.1895Z" fill="#989898"/>
<path d="M98.8031 32.1021V32.2767H99.4134C99.6515 32.2767 99.8226 32.3172 99.9285 32.3984C100.034 32.4795 100.087 32.6118 100.087 32.7953C100.087 32.8588 100.07 32.9593 100.036 33.0934C100.003 33.2292 99.9549 33.3721 99.8985 33.522L98.3674 37.639L96.383 32.2784H96.1907L94.2293 37.572L92.2501 32.2784H92.9292V32.1038H89.7136V32.2784H90.4668L93.3667 39.7963H93.6031L95.5363 34.8114L97.5278 39.7963H97.7747L100.306 33.1516C100.417 32.8552 100.539 32.6471 100.671 32.5272C100.803 32.4072 100.989 32.3014 101.237 32.2784C101.264 32.2767 101.34 32.2784 101.34 32.2784H102.019V32.1038H98.8031V32.1021Z" fill="#989898"/>
<path d="M89.368 35.4431C89.3909 35.4801 89.4191 35.5171 89.4526 35.5471C89.4967 35.5859 89.5444 35.6071 89.5973 35.623C89.599 35.623 89.6026 35.623 89.6043 35.6247C89.6149 35.6265 89.622 35.6318 89.6326 35.6336C89.6908 35.653 89.7507 35.6653 89.816 35.6653C90.1265 35.6653 90.3769 35.4201 90.3769 35.1167C90.3769 34.8398 90.167 34.6122 89.8936 34.5752C89.8143 34.5558 89.7296 34.5435 89.6326 34.5435C89.4526 34.5435 89.2886 34.5823 89.144 34.6581C88.9976 34.7357 88.8564 34.8627 88.7171 35.0391C88.4948 34.8998 88.2673 34.7957 88.0362 34.7269C87.8034 34.6581 87.56 34.6228 87.3024 34.6228C86.7574 34.6228 86.3058 34.7781 85.9442 35.0867C85.5844 35.3972 85.4027 35.78 85.4027 36.2386C85.4027 36.5208 85.4785 36.7695 85.632 36.9865C85.7855 37.2034 86.0236 37.401 86.3464 37.5774C85.9477 37.6568 85.6549 37.7926 85.4697 37.9866C85.2827 38.1789 85.191 38.44 85.191 38.7663C85.191 38.9709 85.2316 39.3978 85.6302 39.5442C85.4397 39.6994 85.2898 39.8652 85.184 40.0434C85.0552 40.2585 84.9917 40.4843 84.9917 40.7225C84.9917 40.9606 85.057 41.1881 85.1875 41.4069C85.318 41.6256 85.5068 41.8249 85.7537 42.0048C85.9795 42.1689 86.23 42.2923 86.5016 42.377C86.7733 42.4599 87.0678 42.5023 87.3889 42.5023C87.7099 42.5023 87.9974 42.4617 88.2655 42.3788C88.5336 42.2976 88.7859 42.1724 89.024 42.0066C89.1687 41.9025 89.2904 41.7896 89.3944 41.6732C89.3944 41.6732 89.398 41.6697 89.3997 41.6679C89.5779 41.488 89.7155 41.2887 89.8107 41.07C89.9042 40.8512 89.9271 40.6219 89.9271 40.3856C89.9271 39.8952 89.7843 39.4789 89.4474 39.1332C89.218 38.8986 88.7894 38.5969 88.2708 38.5969H86.1471C85.9742 38.5969 85.8454 38.5705 85.759 38.5158C85.6726 38.4611 85.6302 38.38 85.6302 38.2706C85.6302 38.1383 85.7096 38.0254 85.8684 37.9266C86.0271 37.8296 86.2617 37.752 86.5739 37.6956C86.6851 37.7326 86.7997 37.7626 86.9161 37.7838C87.0326 37.8049 87.1543 37.8138 87.2813 37.8138C87.8951 37.8138 88.3872 37.6709 88.7594 37.3834C89.1316 37.0976 89.3186 36.7166 89.3186 36.2439C89.3186 36.0446 89.2833 35.8611 89.211 35.6918C89.1404 35.5242 89.0275 35.3549 88.8741 35.1802C88.9252 35.0938 89.0575 34.9227 89.3186 34.8786C89.2815 34.9527 89.2586 35.0338 89.2586 35.122C89.2586 35.2437 89.301 35.3566 89.3697 35.4466L89.368 35.4431ZM86.387 40.2021C86.387 39.777 86.4663 39.4912 86.6233 39.3501C86.7785 39.2073 87.059 39.1367 87.4629 39.1367C87.8669 39.1367 88.1456 39.209 88.3026 39.3501C88.4596 39.493 88.5372 39.777 88.5372 40.2021V40.9888C88.5372 41.4139 88.4578 41.6997 88.3026 41.8425C88.1456 41.9854 87.8651 42.056 87.4629 42.056C87.0608 42.056 86.7785 41.9837 86.6233 41.8425C86.4663 41.6997 86.387 41.4157 86.387 40.9888V40.2021ZM88.0697 36.669C88.0697 37.0553 88.0203 37.3146 87.9216 37.4433C87.8245 37.5721 87.6411 37.6374 87.373 37.6374C87.1049 37.6374 86.9144 37.5703 86.8156 37.4398C86.7168 37.3093 86.6657 37.0517 86.6657 36.669V35.7676C86.6657 35.3848 86.7168 35.1273 86.8156 34.9968C86.9144 34.8663 87.1013 34.7992 87.373 34.7992C87.6446 34.7992 87.8245 34.8645 87.9216 34.9933C88.0203 35.122 88.0697 35.3813 88.0697 35.7676V36.669Z" fill="#989898"/>
<path d="M129.376 39.6187H130.032V39.7933H127.148V39.6187H127.816V35.1365H127.148V34.9619H128.063C128.338 34.9619 128.573 34.9513 128.765 34.9284C128.958 34.9055 129.136 34.8702 129.302 34.8208V35.8968C129.517 35.544 129.778 35.2759 130.086 35.0942C130.395 34.9125 130.743 34.8208 131.131 34.8208C131.637 34.8208 132.034 34.9496 132.321 35.2071C132.609 35.4646 132.754 35.8174 132.754 36.2637V39.6187H133.415V39.7933H130.549V39.6187H131.199V36.0203C131.199 35.701 131.155 35.4823 131.067 35.3623C130.979 35.2424 130.827 35.1824 130.612 35.1824C130.256 35.1824 129.959 35.3218 129.727 35.6022C129.492 35.8827 129.376 36.2408 129.376 36.68V39.6204V39.6187Z" fill="#989898"/>
<path d="M134.432 35.1364H133.748V34.9618H134.669C134.933 34.9618 135.173 34.9512 135.39 34.9283C135.607 34.9054 135.805 34.8701 135.985 34.8207V39.6186H136.669V39.7932H133.746V39.6186H134.431V35.1364H134.432ZM134.358 33.6018C134.358 33.3619 134.441 33.1626 134.605 33.0021C134.771 32.8433 134.976 32.7622 135.221 32.7622C135.466 32.7622 135.667 32.8433 135.837 33.0056C136.006 33.1661 136.089 33.3655 136.089 33.6018C136.089 33.8382 136.004 34.0481 135.837 34.2157C135.667 34.385 135.463 34.4697 135.221 34.4697C134.979 34.4697 134.766 34.3868 134.602 34.221C134.44 34.0552 134.358 33.8488 134.358 33.6018Z" fill="#989898"/>
<path d="M139.566 39.7933H139.192L137.184 34.9954H136.454V34.8208H139.486V34.9954H138.837L140.097 38.0258L140.959 35.9427C140.998 35.8527 141.026 35.768 141.046 35.6922C141.065 35.6163 141.076 35.5422 141.076 35.4699C141.076 35.3006 141.014 35.1806 140.892 35.1066C140.769 35.0325 140.564 34.9972 140.277 34.9972V34.8226H142.268V34.9972H142.222C141.996 34.9972 141.808 35.0713 141.656 35.2194C141.504 35.3676 141.328 35.6798 141.123 36.1561L139.569 39.7933H139.566Z" fill="#989898"/>
<path d="M146.459 37.001H143.42V37.8177C143.42 38.4227 143.515 38.8602 143.707 39.1318C143.9 39.4052 144.208 39.541 144.633 39.541C145.058 39.541 145.409 39.3964 145.718 39.1071C146.027 38.8178 146.251 38.4157 146.388 37.9024H146.567C146.448 38.495 146.196 38.959 145.81 39.2923C145.424 39.6257 144.949 39.7933 144.385 39.7933C143.626 39.7933 143.002 39.5516 142.511 39.0701C142.023 38.5885 141.778 37.9712 141.778 37.2197C141.778 36.5247 142.019 35.9285 142.503 35.4294C142.986 34.9302 143.564 34.6797 144.24 34.6797C144.861 34.6797 145.381 34.8966 145.799 35.3306C146.217 35.7645 146.436 36.3201 146.456 37.001H146.459ZM144.836 36.8264V36.0203C144.836 35.5581 144.783 35.2494 144.681 35.0907C144.577 34.9337 144.39 34.8543 144.117 34.8543C143.843 34.8543 143.676 34.9407 143.573 35.1154C143.471 35.29 143.42 35.6251 143.42 36.1208V36.8246H144.836V36.8264Z" fill="#989898"/>
<path d="M147.276 35.1365H146.607V34.9619H147.521C147.785 34.9619 148.024 34.9513 148.232 34.9284C148.442 34.9055 148.637 34.8702 148.823 34.8208V35.8121C148.96 35.4999 149.145 35.2565 149.378 35.0836C149.611 34.909 149.865 34.8208 150.14 34.8208C150.444 34.8208 150.68 34.8984 150.851 35.0554C151.022 35.2106 151.107 35.4258 151.107 35.6992C151.107 35.9356 151.035 36.1296 150.89 36.2796C150.744 36.4295 150.558 36.5053 150.333 36.5053C150.107 36.5053 149.918 36.4313 149.768 36.2831C149.62 36.1349 149.544 35.9479 149.544 35.7222C149.544 35.6287 149.56 35.5352 149.59 35.4399C149.62 35.3464 149.671 35.2477 149.74 35.1471C149.472 35.2106 149.253 35.38 149.085 35.6516C148.92 35.9233 148.835 36.2513 148.835 36.6341V39.6187H149.738V39.7933H146.607V39.6187H147.276V35.1365Z" fill="#989898"/>
<path d="M151.603 39.7825V37.9798H151.781C152.038 38.5442 152.319 38.957 152.626 39.2216C152.933 39.4862 153.282 39.6185 153.673 39.6185C153.984 39.6185 154.233 39.5338 154.418 39.3645C154.605 39.1951 154.696 38.9693 154.696 38.6836C154.696 38.3114 154.317 38.0697 153.557 37.9569C153.396 37.9339 153.271 37.9163 153.183 37.9004C152.611 37.8016 152.2 37.6376 151.95 37.4048C151.701 37.1719 151.576 36.8421 151.576 36.4134C151.576 35.9319 151.742 35.5244 152.072 35.1857C152.402 34.8471 152.806 34.6777 153.285 34.6777C153.523 34.6777 153.779 34.7218 154.056 34.81C154.333 34.8982 154.483 34.9423 154.511 34.9423C154.584 34.9423 154.645 34.9229 154.696 34.8859C154.748 34.8488 154.792 34.7906 154.827 34.7112H155.017V36.26H154.827C154.673 35.7908 154.464 35.4415 154.197 35.2104C153.931 34.9794 153.605 34.8647 153.222 34.8647C152.931 34.8647 152.687 34.9459 152.492 35.1064C152.296 35.2686 152.197 35.4697 152.197 35.7096C152.197 35.819 152.227 35.9195 152.283 36.0148C152.34 36.1083 152.423 36.1876 152.53 36.2511C152.638 36.3182 152.867 36.3658 153.22 36.3958C153.573 36.424 153.846 36.4593 154.038 36.5052C154.515 36.6092 154.855 36.7803 155.065 37.0149C155.275 37.2495 155.379 37.5759 155.379 37.9921C155.379 38.5337 155.211 38.9693 154.873 39.2992C154.536 39.6291 154.091 39.7949 153.543 39.7949C153.359 39.7949 153.128 39.7525 152.853 39.6679C152.578 39.5832 152.384 39.5409 152.271 39.5409C152.141 39.5409 152.035 39.5603 151.955 39.5973C151.874 39.6343 151.816 39.6961 151.777 39.7825H151.599H151.603Z" fill="#989898"/>
<path d="M156.614 35.1364H155.93V34.9618H156.85C157.115 34.9618 157.357 34.9512 157.574 34.9283C157.79 34.9054 157.99 34.8701 158.17 34.8207V39.6186H158.854V39.7932H155.931V39.6186H156.616V35.1364H156.614ZM156.54 33.6018C156.54 33.3619 156.623 33.1626 156.789 33.0021C156.953 32.8433 157.159 32.7622 157.404 32.7622C157.649 32.7622 157.852 32.8433 158.022 33.0056C158.191 33.1661 158.274 33.3655 158.274 33.6018C158.274 33.8382 158.189 34.0481 158.022 34.2157C157.852 34.385 157.648 34.4697 157.404 34.4697C157.161 34.4697 156.949 34.3868 156.787 34.221C156.623 34.0552 156.542 33.8488 156.542 33.6018H156.54Z" fill="#989898"/>
<path d="M159.157 34.8227H159.18C159.69 34.8227 160.119 34.6251 160.466 34.2318C160.814 33.8366 161.045 33.281 161.16 32.5596H161.332V34.8227H162.398V34.9973H161.332V38.6292C161.332 38.8956 161.362 39.0861 161.422 39.1972C161.482 39.3101 161.579 39.3665 161.713 39.3665C161.835 39.3665 161.953 39.3277 162.068 39.2466C162.181 39.1654 162.28 39.0525 162.364 38.9061L162.514 38.9961C162.38 39.2448 162.184 39.4388 161.93 39.5817C161.675 39.7246 161.391 39.7952 161.077 39.7952C160.609 39.7952 160.276 39.6734 160.078 39.43C159.881 39.1866 159.782 38.7544 159.782 38.1353V34.9973H159.161V34.8227H159.157Z" fill="#989898"/>
<path d="M127.582 32.1025H124.244V32.2666H125.366C125.745 32.2736 126.005 32.3407 126.14 32.4641C126.276 32.5894 126.343 32.8945 126.343 33.3814V36.5106C126.343 37.2161 126.301 37.7189 126.218 38.017C126.133 38.3151 125.992 38.5691 125.793 38.7772C125.617 38.9606 125.396 39.1018 125.133 39.2041C124.87 39.3046 124.592 39.3558 124.297 39.3558C123.964 39.3558 123.66 39.2887 123.389 39.1582C123.117 39.0259 122.895 38.8407 122.727 38.6043C122.609 38.4368 122.523 38.2357 122.473 38.0028C122.422 37.77 122.399 37.3855 122.399 36.8475V32.2736H123.331V32.1043H119.722V32.2736H120.655V36.8686C120.655 37.5089 120.736 37.9993 120.896 38.3398C121.057 38.6802 121.334 38.9801 121.725 39.2411C122.001 39.4246 122.307 39.5621 122.646 39.6556C122.983 39.7491 123.348 39.795 123.74 39.795C124.216 39.795 124.652 39.7209 125.049 39.5727C125.445 39.4246 125.765 39.2164 126.006 38.9501C126.222 38.7119 126.375 38.4368 126.467 38.1228C126.559 37.8088 126.606 37.2726 126.606 36.5123V33.3831C126.606 32.9069 126.673 32.6053 126.811 32.4765C126.947 32.3477 127.204 32.2789 127.585 32.2683H127.947V32.1043H127.585L127.582 32.1025Z" fill="#989898"/>
<path d="M166.483 34.8081V34.9827H166.575C166.801 34.9827 166.972 35.0198 167.086 35.0939C167.201 35.1662 167.259 35.2755 167.259 35.4167C167.259 35.4696 167.243 35.5489 167.21 35.653C167.176 35.7589 167.13 35.8806 167.069 36.0199L166.222 37.9003L164.963 34.9827H165.705V34.8081H162.625V34.9827H163.299L165.426 39.9076C165.426 39.9076 164.954 41.3417 164.123 41.8285C164.123 41.8285 164.167 41.6944 164.167 41.601C164.167 41.3769 164.093 41.1882 163.943 41.0418C163.793 40.8936 163.606 40.8195 163.379 40.8195C163.151 40.8195 162.966 40.8954 162.821 41.0453C162.675 41.1953 162.602 41.3893 162.602 41.6256C162.602 41.8991 162.689 42.1143 162.86 42.2695C163.029 42.4265 163.267 42.5041 163.571 42.5041C163.839 42.5041 164.592 42.4035 165.659 39.9288C166.725 37.4557 167.309 36.0323 167.309 36.0323C167.501 35.6036 167.672 35.3232 167.824 35.1873C167.975 35.0515 168.166 34.9845 168.395 34.9845V34.8099H166.485L166.483 34.8081Z" fill="#989898"/>
<path d="M17.043 14.7636L15.355 13.5748L15.5772 13.4089L16.3992 13.9999C16.6232 14.1639 16.8243 14.3121 17.006 14.462L17.0113 14.4585C16.9196 14.2433 16.8349 13.9981 16.7538 13.7388L16.4398 12.7634L16.6568 12.6011L17.2671 14.5925L17.043 14.7601V14.7636Z" fill="#989898"/>
<path d="M18.4101 12.7846L17.754 13.1657L18.1103 13.7777L18.8441 13.3509L18.9517 13.5343L17.9956 14.0899L17.0096 12.3948L17.9286 11.8604L18.0344 12.0438L17.3377 12.4495L17.6499 12.9857L18.3061 12.6047L18.4119 12.7864L18.4101 12.7846Z" fill="#989898"/>
<path d="M18.4472 11.6242C18.5548 11.5518 18.7188 11.4601 18.8758 11.3913C19.1245 11.282 19.308 11.259 19.4597 11.3102C19.5832 11.3508 19.689 11.4495 19.7525 11.5924C19.8548 11.827 19.7754 12.0493 19.6167 12.1957L19.6202 12.2027C19.7772 12.1904 19.9165 12.2839 20.04 12.4514C20.2076 12.6755 20.3275 12.8307 20.3946 12.8836L20.1547 12.9894C20.1018 12.9489 19.9942 12.8148 19.8495 12.612C19.6872 12.3879 19.5479 12.3368 19.3345 12.4214L19.1157 12.5167L19.4579 13.2946L19.2269 13.3969L18.449 11.6242H18.4472ZM19.0381 12.3421L19.2762 12.238C19.525 12.1286 19.622 11.924 19.532 11.7194C19.4297 11.4883 19.218 11.4601 18.9729 11.5677C18.8617 11.6171 18.7876 11.6594 18.7524 11.6877L19.0399 12.3438L19.0381 12.3421Z" fill="#989898"/>
<path d="M20.2746 10.8652L20.9061 12.7226L20.6644 12.8055L20.033 10.9481L20.2746 10.8652Z" fill="#989898"/>
<path d="M21.2518 10.8023L20.6732 10.947L20.6203 10.7388L22.0279 10.3843L22.0808 10.5942L21.5005 10.7406L21.9256 12.4339L21.6769 12.4957L21.2518 10.8023Z" fill="#989898"/>
<path d="M22.7177 11.638L22.603 12.2765L22.3438 12.3135L22.7318 10.2762L23.0317 10.2339L23.9701 12.0842L23.702 12.1213L23.4074 11.5392L22.7195 11.6362L22.7177 11.638ZM23.3315 11.3504L23.0581 10.8195C22.9964 10.6978 22.9523 10.5867 22.9064 10.4791H22.9011C22.887 10.5973 22.8765 10.7225 22.8535 10.846L22.7424 11.4351L23.3315 11.3522V11.3504Z" fill="#989898"/>
<path d="M24.1974 11.7741C24.312 11.8446 24.4761 11.8958 24.6507 11.8922C24.91 11.8869 25.0581 11.7476 25.0546 11.55C25.0511 11.3701 24.9435 11.2643 24.6771 11.1708C24.3543 11.0614 24.1533 10.8956 24.148 10.6222C24.1427 10.3171 24.3896 10.0842 24.7724 10.0754C24.97 10.0719 25.1199 10.1142 25.2046 10.1636L25.1393 10.3717C25.0776 10.3365 24.9453 10.2835 24.7671 10.2871C24.499 10.2924 24.4002 10.4546 24.4037 10.5887C24.4073 10.7721 24.529 10.8586 24.8006 10.9591C25.1358 11.0808 25.3033 11.2361 25.3104 11.5253C25.3174 11.827 25.1005 12.0969 24.6383 12.1074C24.4496 12.111 24.2415 12.058 24.1356 11.9893L24.1974 11.7758V11.7741Z" fill="#989898"/>
<path d="M26.4942 11.4847C26.4537 11.8287 26.6512 11.9998 26.9088 12.0333C27.0905 12.058 27.2069 12.0403 27.3057 12.0121L27.3268 12.2009C27.2316 12.2291 27.0693 12.2573 26.847 12.2273C26.4166 12.1691 26.1997 11.8498 26.2561 11.4283C26.3126 11.0067 26.6054 10.7121 27.0111 10.7668C27.4697 10.8285 27.535 11.2413 27.4997 11.4988C27.4926 11.55 27.4856 11.587 27.475 11.6152L26.4942 11.4829V11.4847ZM27.2633 11.4018C27.288 11.243 27.2527 10.9837 26.967 10.9449C26.7077 10.9097 26.5666 11.1284 26.5225 11.303L27.2633 11.4018Z" fill="#989898"/>
<path d="M28.3833 10.7049L28.3075 11.0347L28.6638 11.1159L28.6197 11.3064L28.2616 11.2252L28.0923 11.9661C28.0535 12.1354 28.0781 12.243 28.2193 12.2748C28.2863 12.2907 28.3286 12.2942 28.3674 12.2907L28.3339 12.4829C28.2828 12.4882 28.2016 12.4882 28.1046 12.467C27.9882 12.4406 27.9035 12.3788 27.8594 12.2995C27.8083 12.2077 27.8083 12.079 27.8453 11.9167L28.0164 11.167L27.803 11.1176L27.8471 10.9271L28.0587 10.9765L28.117 10.7208L28.378 10.7031L28.3833 10.7049Z" fill="#989898"/>
<path d="M29.9162 10.915L30.1561 11.0068L29.5369 12.6419L30.3219 12.9383L30.246 13.1376L29.223 12.7495L29.9179 10.915H29.9162Z" fill="#989898"/>
<path d="M31.5143 11.5674L30.9798 12.6011C30.7787 12.9891 30.8687 13.2431 31.0997 13.3648C31.3555 13.4971 31.613 13.4125 31.8106 13.0297L32.3451 11.9943L32.5726 12.1125L32.047 13.132C31.77 13.6665 31.3767 13.7388 30.9992 13.543C30.6429 13.3595 30.4771 13.0173 30.7575 12.4758L31.2867 11.4492L31.5143 11.5674Z" fill="#989898"/>
<path d="M32.8989 14.6915L32.9395 14.1905C32.9518 13.9965 32.9624 13.873 32.9783 13.7442L32.9747 13.7407C32.8636 13.8024 32.756 13.8536 32.5761 13.9383L32.1369 14.157L31.8987 13.9894L32.9589 13.5184L33.0418 12.3931L33.2834 12.5606L33.2323 13.0863C33.2182 13.2327 33.2076 13.3456 33.1899 13.462L33.197 13.4673C33.3099 13.4038 33.4016 13.3579 33.5339 13.298L34.0154 13.0722L34.2571 13.2397L33.2217 13.6807L33.1458 14.8555L32.9042 14.6879L32.8989 14.6915Z" fill="#989898"/>
<path d="M25.0001 50C18.3219 50 12.0441 47.4 7.32208 42.678C2.60007 37.956 6.10352e-05 31.6782 6.10352e-05 25C6.10352e-05 18.3218 2.60007 12.044 7.32208 7.32202C12.0441 2.60001 18.3219 0 25.0001 0C31.6783 0 37.956 2.60001 42.678 7.32202C47.4 12.044 50.0001 18.3218 50.0001 25C50.0001 31.6782 47.4 37.956 42.678 42.678C37.956 47.4 31.6783 50 25.0001 50ZM25.0001 0.769068C11.6402 0.769068 0.769129 11.6401 0.769129 25C0.769129 38.3599 11.6402 49.2309 25.0001 49.2309C38.36 49.2309 49.231 38.3617 49.231 25C49.231 11.6383 38.3617 0.769068 25.0001 0.769068Z" fill="#989898"/>
<path d="M25 41.4329C15.9388 41.4329 8.56915 34.0615 8.56915 25.0002C8.56915 15.939 15.9406 8.56934 25 8.56934C34.0595 8.56934 41.4327 15.9407 41.4327 25.0002C41.4327 34.0597 34.0613 41.4329 25 41.4329ZM25 9.04912C16.2051 9.04912 9.04894 16.2053 9.04894 25.0002C9.04894 33.7951 16.2051 40.9513 25 40.9513C33.7949 40.9513 40.9511 33.7951 40.9511 25.0002C40.9511 16.2053 33.7949 9.04912 25 9.04912Z" fill="#989898"/>
<path d="M6.37116 32.7838C7.05909 32.521 7.69587 32.0342 7.52829 31.5949C7.36072 31.1593 6.59518 31.2034 5.8367 31.4926C5.09762 31.7749 4.52611 32.2652 4.68486 32.6798C4.84538 33.0978 5.58622 33.0837 6.37116 32.7838Z" fill="#989898"/>
<path d="M31.3887 42.6619C31.431 42.8806 31.4733 43.1047 31.5086 43.3322L31.6621 44.417L32.3218 44.1754L31.7415 43.2528C31.6092 43.0447 31.5016 42.8489 31.3957 42.6602H31.3887V42.6619Z" fill="#989898"/>
<path d="M39.6634 37.0264L39.6563 37.0334C39.771 37.2204 39.8521 37.3615 39.9385 37.5167L40.5118 38.7197L40.5206 38.7268L40.9951 38.1641L40.0849 37.395C39.9421 37.2751 39.801 37.1516 39.6634 37.0264Z" fill="#989898"/>
<path d="M18.2847 5.40821C18.6163 5.27063 18.7998 4.95489 18.6675 4.63915C18.5352 4.31988 18.1807 4.23168 17.849 4.37103C17.5192 4.51038 17.334 4.82436 17.4663 5.14363C17.5986 5.4576 17.9514 5.5458 18.2847 5.40645V5.40821Z" fill="#989898"/>
<path d="M38.0388 40.0127C37.649 39.5435 37.2433 39.2736 36.9981 39.4765C36.7988 39.6423 36.8888 40.0392 37.2116 40.4272C37.4956 40.7694 37.8254 40.9035 38.0283 40.7359C38.1853 40.6054 38.2064 40.3814 38.1306 40.1662C38.1165 40.1221 38.09 40.0727 38.0406 40.0127H38.0388Z" fill="#989898"/>
<path d="M16.0179 42.1837C16.249 41.7657 16.1714 41.4835 15.9139 41.3353C15.7957 41.27 15.6987 41.2418 15.6493 41.2383L14.9949 42.4201L15.2471 42.5595C15.5117 42.7059 15.8133 42.5524 16.0179 42.182V42.1837Z" fill="#989898"/>
<path d="M13.813 10.1565C14.1146 9.90251 14.2028 9.51797 13.9912 9.26397C13.7777 9.01349 13.3826 9.03819 13.0828 9.29219C12.7829 9.54619 12.6912 9.93249 12.9028 10.1847C13.1145 10.437 13.5131 10.4123 13.8113 10.1583L13.813 10.1565Z" fill="#989898"/>
<path d="M42.9071 16.999L43.9725 16.7502L43.6744 16.1152L42.8066 16.7749C42.6108 16.9249 42.4256 17.0501 42.2474 17.1718L42.251 17.1789C42.4644 17.1171 42.6849 17.0554 42.9071 17.0007V16.999Z" fill="#989898"/>
<path d="M43.8896 19.8707C43.4257 19.9835 43.274 20.2428 43.3428 20.555C43.3781 20.6962 43.4222 20.7914 43.4557 20.8337L44.768 20.5162L44.6957 20.2164C44.6199 19.9042 44.3006 19.7701 43.8896 19.8689V19.8707Z" fill="#989898"/>
<path d="M43.6727 22.4597C43.7344 22.9536 44.4894 23.1123 45.2955 23.0118C46.0805 22.9148 46.7507 22.5602 46.6925 22.0893C46.6343 21.6148 45.9094 21.4331 45.075 21.5354C44.3448 21.6254 43.611 21.9605 43.6727 22.4579V22.4597Z" fill="#989898"/>
<path d="M41.782 8.21966C37.2999 3.73755 31.3396 1.26807 25.0001 1.26807C18.6605 1.26807 12.702 3.73755 8.21991 8.21966C3.73603 12.7018 1.26831 18.6603 1.26831 24.9998C1.26831 31.3393 3.73603 37.2996 8.21991 41.7817C12.702 46.2638 18.6623 48.7333 25.0001 48.7333C31.3378 48.7333 37.2999 46.2638 41.782 41.7817C46.2641 37.2996 48.7336 31.3393 48.7336 24.9998C48.7336 18.6603 46.2641 12.7018 41.782 8.2179V8.21966ZM47.1707 23.7474L45.3662 24.5465L45.7772 24.7599L47.1884 24.7352L47.1937 25.0369L43.493 25.1004L43.4877 24.7987L45.2728 24.7687V24.7582C45.1281 24.6982 44.9958 24.6382 44.8741 24.5818L43.4736 23.8938L43.4665 23.5199L45.0523 24.3366L47.1672 23.3894L47.1743 23.7457L47.1707 23.7474ZM47.0825 22.0611C47.1584 22.6732 46.4581 23.1953 45.3468 23.3311C44.1809 23.4758 43.3607 23.1124 43.2848 22.495C43.2072 21.8636 43.9251 21.3591 45.0152 21.225C46.28 21.0698 47.0102 21.4702 47.0825 22.0611ZM46.4687 19.1736C46.377 19.2353 46.0789 19.3606 45.6449 19.5317C45.1652 19.7186 45.0064 19.8845 45.054 20.1543L45.1211 20.4295L46.6804 20.0538L46.7509 20.3466L43.2019 21.2021C43.119 21.0663 43.0414 20.8599 42.992 20.6588C42.9179 20.3466 42.9585 20.1226 43.1278 19.9321C43.2601 19.7786 43.4912 19.6551 43.7681 19.5881C44.2426 19.4735 44.6042 19.5863 44.7894 19.7945L44.8053 19.791C44.86 19.5934 45.0911 19.4258 45.4509 19.283C45.9342 19.0872 46.2694 18.9496 46.3964 18.8702L46.4705 19.1718L46.4687 19.1736ZM46.2217 18.3251L42.7257 19.5405L42.3129 18.3516L42.6921 18.2193L43.0061 19.1242L44.1103 18.7397L43.8122 17.8842L44.1862 17.7554L44.4843 18.6109L45.7455 18.1735L45.4139 17.2192L45.7931 17.0869L46.2235 18.3251H46.2217ZM44.9341 15.1783L43.9869 15.8998L44.3379 16.6477L45.495 16.3725L45.6273 16.6547L41.9407 17.512L41.7873 17.1821L44.7983 14.8873L44.9358 15.1783H44.9341ZM41.9001 24.9998C41.9001 34.3186 34.3188 41.8999 25.0001 41.8999C15.6813 41.8999 8.09996 34.3186 8.09996 24.9998C8.09996 15.681 15.6813 8.09972 25.0001 8.09972C34.3188 8.09972 41.9001 15.681 41.9001 24.9998ZM41.3339 12.4707C41.6214 12.4707 41.8543 12.7035 41.8543 12.9911C41.8543 13.2786 41.6214 13.5114 41.3339 13.5114C41.0464 13.5114 40.8136 13.2786 40.8136 12.9911C40.8136 12.7035 41.0464 12.4707 41.3339 12.4707ZM35.6859 8.74002L36.1551 9.15101L37.134 8.02916L37.642 8.4719L36.6631 9.59552L37.0476 9.93243L38.0283 8.80881L38.5364 9.25156L37.5574 10.3752L38.0566 10.8109L39.5541 9.0928L37.4445 7.25127L37.7444 6.90731L40.1786 9.0293C40.3003 9.13514 40.3126 9.31859 40.2068 9.43853L38.5981 11.2836L38.8168 11.4741L38.5134 11.8233L35.3772 9.08751L35.6823 8.73826L35.6859 8.74002ZM30.5899 4.58952C30.6799 4.38667 30.858 4.24732 31.082 4.16971L30.7204 4.00919L30.8986 3.60173L31.8987 4.04271L32.0257 3.75343L32.6131 4.01096L32.4844 4.302L33.4863 4.74651L33.3063 5.15221L32.9412 4.9917C33.0365 5.20866 33.0559 5.4362 32.9659 5.63729C32.756 6.11531 32.0716 6.26172 31.3995 5.96714C30.7187 5.66551 30.3747 5.06578 30.5846 4.58952H30.5899ZM30.2883 5.74842L32.9253 6.91084L33.8673 4.77473L34.5093 5.05696L34.1407 5.89482L34.6522 6.11884L34.467 6.53865L33.9572 6.31111L33.5092 7.3236L32.9394 8.61478L32.2991 8.33079L32.7454 7.31654L30.1066 6.15412L30.2848 5.75018L30.2883 5.74842ZM23.2679 2.98259H25.2047V3.44121H23.9541V4.9229H25.5257V2.85912H26.1448V3.90336H26.5029V2.85912H27.1256V6.74503H26.5029V4.35845H26.1448V6.74503H25.5257V5.38505H23.6595C23.3773 5.38505 23.2679 5.19631 23.2679 5.00934V2.98259ZM20.9272 6.99198L17.9797 8.23025C17.7186 8.34138 17.5475 8.20908 17.4752 8.03798L17.1189 7.18601L17.7486 6.92319L18.082 7.71166L20.7596 6.58804L20.9289 6.98845L20.9272 6.99198ZM17.6851 3.98097C18.4065 3.67934 19.1033 3.79576 19.3414 4.36198C19.5778 4.9229 19.1721 5.50147 18.4524 5.80486C17.7292 6.10649 17.0342 5.99007 16.7978 5.42915C16.5597 4.86293 16.9654 4.28436 17.6851 3.97921V3.98097ZM20.3945 5.10459L20.5656 5.51205L18.9551 6.18763L19.2126 6.80148L18.5776 7.06959L18.3183 6.45575L16.7537 7.11369L16.5826 6.70799L20.3945 5.10635V5.10459ZM12.7461 6.46633L13.2524 7.06606L13.7198 6.67095L14.0144 7.01844L13.5469 7.41355L14.0549 8.01329L13.5258 8.45956L12.2169 6.91437L12.7461 6.46633ZM11.7336 7.48764C11.8553 7.38357 12.0388 7.39944 12.1429 7.52115L12.919 8.44015L13.0971 8.29022L13.3776 8.6236C13.8397 8.44192 14.2966 8.47896 14.5577 8.79117C14.9263 9.22686 14.7058 9.97123 14.0938 10.4881C13.4834 11.0049 12.7214 11.0896 12.3528 10.6539C12.0952 10.3487 12.127 9.90068 12.3722 9.48087L11.1357 10.5251L10.8517 10.1882L11.3703 9.75074L10.9258 9.22863L11.3897 8.83704L11.8324 9.36092L12.4198 8.86349L11.7513 8.07502L10.3296 9.27802L10.0332 8.92876L11.7354 7.49117L11.7336 7.48764ZM9.04542 12.4707C9.33294 12.4707 9.56578 12.7035 9.56578 12.9911C9.56578 13.2786 9.33294 13.5114 9.04542 13.5114C8.7579 13.5114 8.52507 13.2786 8.52507 12.9911C8.52507 12.7035 8.7579 12.4707 9.04542 12.4707ZM3.91242 18.4204L5.8298 18.7608C6.299 18.8437 6.65884 18.9143 7.02221 19.0025V18.9954C6.68707 18.8437 6.35721 18.685 5.92858 18.4592L4.19465 17.5614L4.28637 17.2809L7.96238 17.9071L6.89344 16.5683L4.60035 16.4536L4.7397 16.1502L6.69236 16.2543L6.41013 15.8962L5.12776 15.3071L5.24594 15.0513L8.60974 16.5947L8.49155 16.8505L6.86875 16.1061L6.86522 16.115C6.97106 16.2278 7.06631 16.3354 7.15274 16.436L8.13701 17.6231L7.9906 17.9406L7.97296 17.9177L7.883 18.1911L6.02383 17.8524C5.56521 17.7695 5.10836 17.6813 4.75734 17.6072V17.6143C5.09425 17.7625 5.48937 17.9653 5.91976 18.1858L7.60254 19.0466L7.51081 19.3271L5.64283 18.9937C5.20537 18.9143 4.77145 18.8332 4.39044 18.7432V18.7503C4.76087 18.9196 5.13305 19.1066 5.54934 19.3165L7.23388 20.1737L7.14392 20.4471L3.8207 18.7044L3.91242 18.4239V18.4204ZM3.28447 20.9551L4.47158 20.971L4.63386 20.2143L3.54376 19.7486L3.6055 19.4646L7.06984 20.9657L6.99928 21.2991L3.22449 21.2515L3.288 20.9569L3.28447 20.9551ZM2.98989 23.153L4.93197 22.6661C5.35707 22.5585 5.79452 22.4598 6.20375 22.3945L6.19846 22.3839C5.73279 22.3504 5.29004 22.3081 4.67796 22.241L3.10631 22.0699L3.13454 21.8054L6.81407 22.2058L6.78055 22.5109L4.84377 23.0048C4.39574 23.1195 3.99356 23.2024 3.6055 23.2641L3.61079 23.2712C4.10469 23.2994 4.55272 23.34 5.126 23.4035L6.6659 23.571L6.63768 23.8356L2.95814 23.4352L2.98989 23.1512V23.153ZM3.36914 24.3577C3.67606 24.169 4.16995 24.0526 4.74676 24.0526C5.85097 24.0561 6.65708 24.5024 6.65708 25.2344C6.65708 25.4867 6.56359 25.6842 6.48598 25.7795L6.09615 25.7107C6.18435 25.5942 6.2549 25.4478 6.2549 25.2274C6.2549 24.6964 5.69398 24.3489 4.76616 24.3489C3.83834 24.3489 3.27212 24.6823 3.27212 25.1903C3.27212 25.3755 3.31622 25.5008 3.3709 25.566H4.47511V25.1215H4.85965V25.8412H3.07985C3.00224 25.716 2.877 25.4655 2.877 25.1709C2.877 24.8411 3.01988 24.5677 3.36561 24.3542L3.36914 24.3577ZM3.14335 28.1167L5.02193 27.6016C5.48231 27.4746 5.83686 27.3846 6.20199 27.3088V27.3017C5.83156 27.3088 5.46467 27.307 4.98136 27.2858L3.03046 27.2188L2.99342 26.926L6.59711 25.9118L6.63415 26.2081L4.80849 26.7002C4.35869 26.8219 3.90889 26.9384 3.55964 27.0213V27.0283C3.93006 27.0177 4.37457 27.0283 4.85788 27.0442L6.74704 27.0989L6.78408 27.3917L4.95313 27.8909C4.5245 28.0073 4.09587 28.1202 3.7131 28.2013V28.2084C4.12233 28.2013 4.53861 28.2119 5.00605 28.2207L6.89521 28.2719L6.93049 28.5576L3.1804 28.4077L3.14335 28.1149V28.1167ZM3.55435 30.4256C3.40971 29.8682 4.04119 29.2844 5.126 29.0021C6.26372 28.7058 7.1157 28.9298 7.26387 29.4943C7.4138 30.0711 6.76115 30.6391 5.69751 30.916C4.46453 31.237 3.69546 30.9654 3.55611 30.4256H3.55435ZM4.31636 32.8051C4.10998 32.2671 4.67267 31.6163 5.71867 31.2159C6.81583 30.796 7.68897 30.923 7.89711 31.4681C8.11055 32.0255 7.52493 32.6623 6.49833 33.0556C5.30768 33.5107 4.51392 33.3255 4.3146 32.8051H4.31636ZM5.57932 35.4704L6.95342 34.0134C7.25505 33.6942 7.56902 33.3749 7.87771 33.098L7.86889 33.0909C7.4579 33.3132 7.06278 33.516 6.51244 33.7912L5.09601 34.495L4.97783 34.2569L8.29223 32.6093L8.42982 32.8845L7.06454 34.3433C6.7488 34.682 6.45599 34.9677 6.16142 35.2305L6.16847 35.2341C6.59887 34.9906 6.99928 34.7843 7.51611 34.5285L8.90255 33.8388L9.02073 34.0769L5.70633 35.7244L5.57932 35.4687V35.4704ZM7.38558 38.3421C7.11393 37.9875 7.25328 37.4548 8.16523 36.7581L9.89739 35.4316L10.0703 35.6574L8.33104 36.9909C7.67309 37.4954 7.52493 37.8817 7.70308 38.1128C7.90064 38.3703 8.3134 38.3139 8.96428 37.8164L10.7035 36.4847L10.8764 36.7105L9.16184 38.0228C8.25872 38.7143 7.67309 38.7178 7.38558 38.3421ZM9.3347 40.5029L10.2272 38.7107C10.423 38.3174 10.6312 37.9223 10.8481 37.566L10.8376 37.5624C10.5095 37.894 10.1884 38.2045 9.74041 38.6243L8.58857 39.7091L8.40688 39.5151L11.1021 36.9786L11.3138 37.2026L10.4301 38.9947C10.2255 39.411 10.0279 39.7691 9.82331 40.1042H9.83213C10.1743 39.7479 10.4971 39.4339 10.9169 39.0388L12.0441 37.977L12.2258 38.171L9.5305 40.7075L9.3347 40.4994V40.5029ZM10.0173 41.1573L12.5256 38.4356L12.732 38.6261L10.2237 41.3478L10.0173 41.1573ZM11.0739 42.0851L12.8467 38.7584L13.083 38.9506L12.2011 40.5823C11.9594 41.0303 11.7407 41.4307 11.5131 41.8046L11.5184 41.8082C11.8359 41.5136 12.1993 41.2084 12.5785 40.8927L14.0161 39.7021L14.2507 39.8908L11.3156 42.2791L11.0739 42.0834V42.0851ZM13.307 43.7079L12.2893 43.0218L14.3566 39.9508L15.3356 40.6087L15.1115 40.9403L14.3672 40.4394L13.7145 41.4095L14.4183 41.884L14.1978 42.2121L13.494 41.7376L12.7479 42.8454L13.5328 43.3745L13.3088 43.7079H13.307ZM15.041 44.6922L14.7852 44.5511C14.8046 44.4435 14.9157 44.1401 15.0851 43.7062C15.2756 43.2281 15.2668 43.0023 15.0498 42.8648L14.817 42.736L14.0408 44.1401L13.7939 44.0043L15.5613 40.808C15.7095 40.8345 15.9018 40.9086 16.0729 41.0021C16.3375 41.1485 16.4609 41.3231 16.4803 41.5718C16.4962 41.7694 16.4292 42.0198 16.2898 42.2703C16.0535 42.699 15.7377 42.8948 15.4731 42.8983L15.4643 42.9124C15.5649 43.08 15.5243 43.3604 15.3832 43.722C15.1962 44.2089 15.0674 44.5458 15.0392 44.6922H15.041ZM15.9071 45.1508C15.7148 45.0661 15.5455 44.8774 15.4925 44.7081L15.7201 44.3712C15.7818 44.5423 15.9071 44.7186 16.0835 44.7963C16.3463 44.9127 16.6056 44.7451 16.7573 44.4047C16.8966 44.0889 16.8702 43.8596 16.6797 43.565C16.4398 43.2246 16.3657 42.8489 16.5773 42.3726C16.8102 41.8452 17.2423 41.5683 17.6304 41.7394C17.835 41.8293 17.9479 41.9757 17.9991 42.101L17.7698 42.4255C17.731 42.3374 17.6428 42.1768 17.4611 42.0975C17.1877 41.9775 16.9619 42.2068 16.8596 42.4379C16.7202 42.7536 16.7714 42.9635 16.9672 43.2669C17.2071 43.6374 17.2565 43.9901 17.036 44.4876C16.8049 45.0097 16.3763 45.3607 15.9053 45.1526L15.9071 45.1508ZM17.1242 45.5953L18.4118 42.1257L18.6764 42.2245L17.3888 45.6941L17.1242 45.5953ZM19.6131 42.9583L18.657 46.1121L18.3836 46.0292L19.3396 42.8754L18.7046 42.6831L18.8228 42.2933L20.3698 42.7625L20.2516 43.1505L19.6131 42.9565V42.9583ZM20.9007 45.0467L20.5779 46.5884L20.2992 46.5302L20.622 44.9921L20.3839 42.766L20.6979 42.8313L20.7896 43.8931C20.8143 44.1842 20.8319 44.4188 20.846 44.6851H20.8531C20.9624 44.4629 21.0859 44.2424 21.2253 43.9849L21.7421 43.05L22.0561 43.1152L20.9042 45.045L20.9007 45.0467ZM25.0618 45.5159C24.7743 45.5159 24.5414 45.2831 24.5414 44.9956C24.5414 44.7081 24.7743 44.4752 25.0618 44.4752C25.3493 44.4752 25.5821 44.7081 25.5821 44.9956C25.5821 45.2831 25.3493 45.5159 25.0618 45.5159ZM30.828 46.3044L30.3923 44.738C30.2548 44.2406 30.0907 43.6409 29.9866 43.1929H29.9761C29.999 43.6356 30.0131 44.1066 30.0184 44.6304L30.036 46.472L29.8138 46.5249L29.0359 44.8986C28.8066 44.417 28.6055 43.9743 28.4379 43.5615H28.4309C28.5314 44.0131 28.6584 44.6216 28.7678 45.1649L29.0765 46.7225L28.7978 46.7895L28.094 43.1523L28.4679 43.0623L29.2723 44.7098C29.4733 45.1314 29.6444 45.5071 29.7909 45.867H29.8014C29.7715 45.4877 29.7573 45.0732 29.7503 44.5952L29.7362 42.7572L30.1101 42.6672L31.1138 46.2321L30.828 46.3009V46.3044ZM33.1441 45.5106L32.5108 44.5034L31.7347 44.7874L31.9076 45.964L31.6147 46.0716L31.0873 42.3232L31.4295 42.198L33.4492 45.3995L33.1476 45.5106H33.1441ZM34.1601 45.0661L33.4986 43.6409L31.9322 42.0198L32.2427 41.8752L32.9712 42.6637C33.1705 42.8789 33.3293 43.0553 33.5039 43.2581L33.511 43.2546C33.4686 43.0076 33.4386 42.7554 33.4034 42.4626L33.2764 41.3954L33.5868 41.2508L33.7738 43.5068L34.4388 44.9374L34.1618 45.0644L34.1601 45.0661ZM37.4339 43.2246L35.67 40.6528L35.6647 40.6563L35.5324 41.1538L35.2749 40.8839L35.4442 40.2612L35.6576 40.1148L37.6756 43.0588L37.4339 43.2246ZM38.8856 42.1839C38.8186 42.2756 38.7463 42.3426 38.6881 42.3832L38.4358 42.0781C38.494 42.0445 38.5452 41.9881 38.614 41.9087C38.7251 41.7658 38.7798 41.5718 38.7551 41.3425C38.7322 41.0832 38.6157 40.7728 38.3776 40.4217L38.3705 40.4288C38.4288 40.6951 38.3811 40.9192 38.2083 41.062C37.8961 41.3196 37.388 41.1132 37 40.644C36.5696 40.1236 36.4285 39.471 36.7813 39.1782C37.1358 38.8836 37.732 39.1605 38.3141 39.8626C38.8151 40.4676 39.0373 40.9968 39.0849 41.3989C39.1237 41.7165 39.0444 41.9952 38.8856 42.1839ZM40.482 40.8063C40.302 40.9844 40.0569 41.0515 39.8963 41.0479L39.6917 40.7234C39.8152 40.7234 40.0533 40.681 40.2033 40.5329C40.4802 40.2577 40.2879 39.8908 40.0763 39.6827C39.7217 39.3299 39.3689 39.3793 39.1608 39.5856L39.0408 39.7038L38.7851 39.4463L38.905 39.3263C39.062 39.1711 39.1326 38.8448 38.8345 38.5449C38.6334 38.3421 38.3741 38.2433 38.1748 38.4409C38.0478 38.5679 38.0125 38.7795 38.0213 38.9259L37.7179 38.7319C37.7038 38.552 37.7691 38.2927 37.9419 38.1216C38.2559 37.8094 38.6916 37.9646 38.9985 38.2715C39.2578 38.5326 39.3795 38.8519 39.2966 39.1605L39.3037 39.1676C39.5612 39.0353 39.9545 39.1111 40.3056 39.4657C40.7077 39.8714 40.8612 40.4235 40.4784 40.8027L40.482 40.8063ZM42.0289 39.0335L41.2863 38.4073L40.6125 39.2064L40.3691 39.0018L39.2737 36.7651L39.4853 36.5147L41.1822 37.9452L41.3851 37.7035L41.6744 37.9487L41.4715 38.1886L42.2141 38.8148L42.0289 39.0335ZM43.9604 36.4406C43.8422 36.6311 43.6253 36.7863 43.4471 36.8233L43.1455 36.5482C43.3289 36.5023 43.5247 36.393 43.6341 36.2166C43.7946 35.9537 43.6711 35.6662 43.3519 35.4704C43.0573 35.2887 42.8244 35.2905 42.4946 35.4581C42.1118 35.6697 41.722 35.7068 41.2792 35.4316C40.7871 35.13 40.5807 34.6484 40.8189 34.2621C40.9441 34.0593 41.1099 33.9587 41.244 33.9182L41.5315 34.1933C41.4345 34.2233 41.2598 34.2992 41.1487 34.4773C40.9811 34.749 41.1752 35.01 41.3904 35.1423C41.6849 35.324 41.9037 35.2923 42.2406 35.1212C42.6533 34.913 43.0149 34.9007 43.4789 35.1847C43.9657 35.4845 44.2462 35.9714 43.9569 36.4388L43.9604 36.4406ZM44.6254 35.2058L41.3428 33.4966L41.9248 32.38L42.2812 32.5653L41.8384 33.4155L42.8756 33.9552L43.2936 33.1509L43.6447 33.3343L43.2266 34.1387L44.4102 34.756L44.8759 33.86L45.2322 34.0452L44.6272 35.2076L44.6254 35.2058ZM45.9148 32.5653C45.7084 33.1456 44.8494 33.299 43.7928 32.9233C42.6851 32.5282 42.1153 31.8385 42.3252 31.2511C42.5387 30.6514 43.4065 30.5226 44.4402 30.8913C45.6414 31.3182 46.1124 32.0061 45.9131 32.5653H45.9148ZM46.6363 30.0764C46.5304 30.542 46.0259 30.796 44.9076 30.5403L42.7821 30.0552L42.8509 29.7589L44.987 30.2475C45.7949 30.4327 46.19 30.2845 46.2588 29.9811C46.3364 29.6442 46.0312 29.3479 45.234 29.1644L43.0978 28.6758L43.1649 28.3795L45.2692 28.861C46.377 29.115 46.7474 29.586 46.6363 30.0781V30.0764ZM46.892 28.4818L43.2248 27.9791L43.2654 27.681L46.5357 28.129L46.6715 27.1412L47.0684 27.1959L46.892 28.4818Z" fill="#989898"/>
<path d="M5.60035 30.6322C6.31297 30.447 6.99914 30.0343 6.88095 29.5792C6.76277 29.1276 5.99723 29.0853 5.21052 29.2917C4.44498 29.491 3.82232 29.9143 3.93521 30.343C4.0481 30.7751 4.78718 30.8439 5.60035 30.6322Z" fill="#989898"/>
<path d="M31.5688 5.59141C31.8652 5.72018 32.2038 5.61963 32.322 5.34975C32.4367 5.0834 32.2885 4.75884 31.9922 4.62655C31.6888 4.49425 31.3448 4.60362 31.2266 4.8682C31.1084 5.13632 31.2637 5.45735 31.5688 5.59141Z" fill="#989898"/>
<path d="M44.3553 31.1981C43.6621 30.9511 42.856 30.9211 42.6884 31.3939C42.5209 31.8631 43.1259 32.3429 43.8914 32.6163C44.6358 32.8809 45.3943 32.865 45.553 32.4187C45.7136 31.9689 45.1473 31.4803 44.3553 31.1981Z" fill="#989898"/>
<path d="M4.98652 20.3484L4.84894 20.9923L5.93551 21.0064C6.18246 21.0099 6.40295 21.024 6.61991 21.0364V21.0293C6.41353 20.9517 6.2001 20.8688 5.98843 20.7806L4.98652 20.3467V20.3484Z" fill="#989898"/>
<path d="M36.3738 17.7044C36.3174 17.5068 36.1498 17.3657 35.9452 17.3428C35.9134 17.341 35.8817 17.341 35.8481 17.3481L33.7967 17.7555V16.6355C33.7967 16.3074 33.5215 16.0393 33.1864 16.0393H26.7128C26.6087 16.0393 26.5258 15.9581 26.5241 15.8576V15.854L26.5206 14.2383C26.5206 13.9084 26.2471 13.6421 25.9102 13.6421H24.1146C23.7777 13.6421 23.5043 13.9084 23.5043 14.2383L23.5007 15.854V15.8576C23.5007 15.9581 23.4161 16.0393 23.312 16.0393H16.8402C16.5033 16.0393 16.2299 16.3074 16.2299 16.6355V17.7555L14.1767 17.3481C14.1449 17.341 14.1132 17.341 14.0814 17.3428C13.8768 17.3657 13.7092 17.5068 13.6528 17.7044C13.6422 17.7414 13.6387 17.782 13.6422 17.8208L15.4573 33.9977L15.519 34.5833C15.6072 35.0702 15.9124 35.5058 16.3674 35.781L24.3421 40.0744C24.5573 40.1608 24.7831 40.2049 25.0124 40.2049C25.24 40.2049 25.4657 40.1608 25.6827 40.0744L33.6574 35.781C34.1125 35.5058 34.4176 35.0702 34.5058 34.5833L34.5675 33.9977L36.3826 17.8208C36.3861 17.782 36.3826 17.7414 36.372 17.7044H36.3738ZM16.8508 16.6443H23.5007C23.8465 16.6443 24.1252 16.3709 24.1252 16.034V14.6387C24.1252 14.427 24.2963 14.2542 24.5115 14.2454H25.5116C25.7286 14.2542 25.8997 14.427 25.8997 14.6387V16.034C25.8997 16.3709 26.1801 16.6443 26.5241 16.6443H33.1741V17.879L32.2004 18.0731V17.6374C32.2004 17.2987 31.9181 17.0218 31.5706 17.0218H29.0588C28.7113 17.0218 28.4291 17.2987 28.4291 17.6374V18.821L27.5083 19.0026V17.6374C27.5083 17.3163 27.2402 17.0535 26.9104 17.0535H23.1127C22.7828 17.0535 22.5147 17.3146 22.5147 17.6374V19.0026L21.5922 18.821V17.6374C21.5922 17.2987 21.3099 17.0218 20.9624 17.0218H18.4524C18.1049 17.0218 17.8227 17.2987 17.8227 17.6374V18.0731L16.849 17.879V16.6443H16.8508ZM31.5407 18.2036L29.0906 18.6887V17.6656H31.5407V18.2018V18.2036ZM26.9139 19.1208L25.5063 19.3995C25.441 19.4172 25.1218 19.4595 25.0142 19.4595C24.9066 19.4595 24.5873 19.4172 24.522 19.3995L23.1127 19.1208V17.6356C23.1127 17.6356 23.1127 17.6356 23.1144 17.6356H26.9139V19.1208ZM20.9342 18.6887L18.4859 18.2036V17.6674H20.9342V18.6904V18.6887ZM33.8761 34.4757C33.8285 34.7668 33.6133 35.0807 33.3152 35.2501L25.411 39.5047C25.3017 39.547 25.1623 39.5699 25.0142 39.5699C24.866 39.5699 24.7266 39.547 24.6173 39.5047L16.7132 35.2501C16.4151 35.0807 16.2016 34.7668 16.1522 34.4757L14.3425 18.3147C14.3407 18.2018 14.3848 18.0272 14.7147 18.096L24.3774 20.0116C24.4444 20.031 24.515 20.0433 24.5855 20.0539C24.7267 20.0769 24.8695 20.0874 25.0124 20.0874C25.1553 20.0874 25.2999 20.0769 25.4393 20.0539C25.5098 20.0433 25.5804 20.031 25.6474 20.0116L35.3119 18.096C35.64 18.0272 35.6859 18.2018 35.6841 18.3147L33.8761 34.4757Z" fill="#989898"/>
<path d="M29.3604 23.2258C30.4805 23.2258 31.3378 22.6842 31.3378 21.804C31.3378 20.9238 30.4805 20.3823 29.3604 20.3823C28.2403 20.3823 27.3813 20.9221 27.3813 21.804C27.3813 22.686 28.2368 23.2258 29.3604 23.2258ZM29.3604 20.9909C29.8755 20.9909 30.2935 21.3031 30.2935 21.8005C30.2935 22.2979 29.8755 22.6102 29.3604 22.6102C28.8453 22.6102 28.4255 22.2979 28.4255 21.8005C28.4255 21.3031 28.8436 20.9909 29.3604 20.9909Z" fill="#989898"/>
<path d="M26.3882 23.3774V24.0107H28.8242V24.965H29.8137V24.0107H32.3326V23.3774H26.3882Z" fill="#989898"/>
<path d="M27.8098 24.3159H26.829V25.6371C26.829 25.9017 26.9843 26.1733 27.39 26.1733H31.9885V25.5471H27.8098V24.3159Z" fill="#989898"/>
<path d="M21.9429 23.6172V22.9998H21.6096V21.2659C21.6096 21.0383 21.4208 20.8496 21.1933 20.8496H17.9829V21.5076H20.6712V22.9981H19.5669V22.0085H18.6815V22.9981H17.7113V23.6295H20.0238C19.3711 23.8624 18.9266 24.3281 18.9266 24.896C18.9266 25.7145 19.8562 26.3266 21.0045 26.3266C22.1528 26.3266 23.0824 25.7163 23.0824 24.896C23.0824 24.3175 22.6185 23.8447 21.9429 23.6154V23.6172ZM21.0028 25.7057C20.4383 25.7057 19.9815 25.367 19.9815 24.8943C19.9815 24.4215 20.4383 24.0829 21.0028 24.0829C21.5672 24.0829 22.0223 24.4215 22.0223 24.8943C22.0223 25.367 21.5655 25.7057 21.0028 25.7057Z" fill="#989898"/>
<path d="M24.1232 21.7935H23.2465V20.6699H22.2534V23.5821H23.2465V22.455H24.1232V21.7935Z" fill="#989898"/>
<path d="M34.0507 26.6579L32.7101 26.9525C32.6219 26.9772 32.472 26.9984 32.3802 26.9984H29.3675C27.7623 26.9984 25.9984 27.9685 25.9984 31.2035V35.123C25.9984 35.4105 25.7144 35.4105 25.6209 35.4105C25.5274 35.4105 25.2452 35.4228 25.2452 35.123V31.2035C25.2452 29.2932 23.8499 26.9984 21.5321 26.9984H16.7149C16.6214 26.9984 16.5473 27.0742 16.5473 27.1659V30.8825C16.5473 30.976 16.6002 31.1048 16.6672 31.17L17.6533 32.1561C17.7185 32.2213 17.7732 32.3501 17.7732 32.4436L17.7785 33.8776C17.7785 35.0048 19.3184 35.0048 19.4613 35.0048C19.6042 35.0048 21.1776 35.0154 21.1776 33.8776C21.1776 33.8776 21.1582 32.022 21.1582 31.5475C21.1582 31.073 20.8089 30.729 20.6149 30.729C20.4209 30.729 20.4138 30.9231 20.4138 31.0712V33.8776C20.4138 34.6291 19.5865 34.6132 19.4613 34.6132C19.3361 34.6132 18.5088 34.6185 18.5088 33.8776V32.4771C18.5088 32.3854 18.4541 32.2548 18.3888 32.1896L17.618 31.4187C17.5527 31.3535 17.4981 31.2229 17.4981 31.1312V27.7216C17.4981 27.6281 17.5739 27.5522 17.6656 27.5522H21.5339C22.7969 27.5522 23.6524 29.6654 23.6524 30.5121V35.6768C23.6524 35.7703 23.7282 35.8462 23.8199 35.8462H26.5787C27.4783 35.8462 27.4854 34.9572 27.4854 34.9572V30.5138C27.4854 29.228 28.5261 27.554 29.3675 27.554H32.1809C32.2744 27.554 32.3255 27.6263 32.2973 27.7145C32.2973 27.7145 31.6782 29.99 31.597 30.1593C31.5159 30.3304 31.3325 30.3868 31.2407 30.3868H30.2C30.1065 30.3868 29.8913 30.3974 30.0325 30.5509C30.1718 30.7043 30.5246 30.7149 30.6163 30.7149H31.2407C31.3342 30.7149 31.403 30.7873 31.3695 30.8737C31.3695 30.8737 31.142 31.8438 30.9638 32.2213C30.7856 32.597 30.6216 32.597 30.5281 32.597H29.5474C29.3992 32.597 29.2299 32.6658 29.378 32.8246C29.5262 32.9833 29.7749 32.9533 29.9337 32.9533H30.6075C30.6992 32.9551 30.7398 33.0504 30.6974 33.1333C30.6974 33.1333 30.5475 33.6078 30.4293 33.9464C30.3111 34.2833 29.759 34.3327 29.6673 34.3327H28.9141C28.8206 34.3327 28.676 34.3627 28.7448 34.4968C28.8136 34.6308 29.177 34.6608 29.2704 34.6608H30.1824C30.6093 34.6608 31.0026 34.3221 31.2778 33.8088C31.5529 33.2955 31.5371 33.1474 31.5671 33.0204C31.597 32.8934 31.5741 32.8863 31.523 32.9022C31.3448 32.9551 31.0749 32.9463 31.0749 32.9463C31.0749 32.9463 31.7188 32.6993 32.0557 31.8968C32.2691 31.387 32.4032 30.9213 32.4296 30.8261C32.4561 30.729 32.4279 30.7167 32.3926 30.7273C32.195 30.7961 32.0063 30.7767 32.0063 30.7767C32.0063 30.7767 32.5707 30.5385 33.0964 29.3003C33.622 28.062 34.1494 26.769 34.1494 26.769C34.1865 26.6844 34.1424 26.635 34.0542 26.6597L34.0507 26.6579Z" fill="#989898"/>
<path d="M19.2514 29.2476C19.1579 29.2476 19.0538 29.3181 19.0185 29.4028L18.6711 30.2406C18.6358 30.3253 18.6816 30.3959 18.7751 30.3959H19.2708C19.3643 30.3959 19.4683 30.3253 19.5036 30.2406L19.8494 29.4028C19.8846 29.3164 19.8388 29.2476 19.7453 29.2476H19.2496H19.2514Z" fill="#989898"/>
</svg>
