<svg xmlns="http://www.w3.org/2000/svg" width="136" height="41" viewBox="0 0 136 41" fill="none">
  <path fill-rule="evenodd" clip-rule="evenodd" d="M89.1357 18.0791C89.0991 18.0706 89.0569 18.0791 89.0175 18.0791C88.5389 17.7694 88.042 17.7919 87.5381 18.0045C87.4142 18.0566 87.2903 18.1157 87.1594 18.0326C86.8525 17.8384 86.5217 17.8905 86.1923 17.9425C85.8658 17.9946 85.5448 18.0791 85.2112 18.0889C84.9494 18.096 84.8269 18.0242 84.8424 17.7258C84.8692 17.143 84.9114 16.5616 84.9944 15.9831C85.1408 14.9612 85.3632 13.9462 85.2703 12.9032C85.2929 12.8426 85.3266 12.7821 85.3351 12.7202C85.504 11.4392 85.4392 11.4111 86.9412 11.2126C86.9553 11.2112 86.968 11.2126 86.9806 11.2084C87.486 11.1141 88.0138 11.0761 88.4277 10.7213C88.6557 10.5257 88.743 10.2709 88.6388 9.96965C88.5417 9.68812 88.3348 9.629 88.0687 9.6839H88.0659C87.5535 9.57128 87.0397 9.56143 86.526 9.6839C85.9728 9.76976 85.4181 9.80355 84.8593 9.74865C84.1428 9.67545 83.4643 9.888 82.7802 10.0358C82.5888 10.0766 82.4128 10.1906 82.2678 10.3314C82.1031 10.4919 81.9525 10.665 82.0299 10.9226C82.1045 11.1676 82.2467 11.321 82.5198 11.3801C82.9477 11.473 83.4995 12.1543 83.5305 12.5513C83.6304 13.8759 83.5108 15.1709 83.0209 16.4181C82.9562 16.5828 82.9154 16.7756 82.9801 16.9262C83.2363 17.5231 83.035 18.0284 82.7183 18.5253C82.669 18.5999 82.6563 18.697 82.6254 18.7843C82.4691 18.9574 82.4002 19.1813 82.365 19.3952C82.3101 19.7387 82.4213 20.0484 82.7225 20.2553C83.0223 20.4622 83.3137 20.6579 83.698 20.3961C84.0006 20.1891 84.3582 20.1483 84.7256 20.1905C85.0831 20.2314 85.4505 20.2257 85.7827 20.0948C86.2219 19.9203 86.6695 19.8612 87.1341 19.8175C87.8055 19.7556 88.4868 19.8147 89.147 19.6303C89.6326 19.4952 90.0493 19.1376 90.0479 18.8434C90.0451 18.5267 89.6608 18.2001 89.1357 18.0735V18.0791ZM85.1451 19.909C85.1535 19.909 85.1591 19.909 85.1676 19.9076C85.1662 19.9104 85.1634 19.9132 85.1619 19.9161C85.1563 19.9132 85.1507 19.9118 85.1465 19.909H85.1451Z" fill="#F5F5F5"/>
  <path fill-rule="evenodd" clip-rule="evenodd" d="M97.431 18.8842C97.2973 18.2029 97.3142 17.5159 97.3085 16.8276C97.3015 16.197 97.4746 15.5691 97.331 14.9385C97.2719 14.7344 97.2128 14.5303 97.1537 14.3262C97.1509 14.2474 97.1537 14.1671 97.1466 14.0883C97.0467 12.8608 96.8975 11.6334 97.0734 10.3989C97.1241 10.0441 97.1312 9.68238 97.0763 9.32625C96.9988 8.82372 96.5737 8.30289 96.2289 8.26489C95.8699 8.22547 95.3434 8.63932 95.1661 9.09962C95.1619 9.11088 95.1647 9.12636 95.1633 9.13903C95.0464 9.26291 95.0352 9.42619 95.0014 9.57963C94.855 10.237 94.9479 10.9042 94.931 11.5658C94.9268 11.7544 94.893 11.9656 94.703 11.974C94.2145 11.9994 93.7556 12.2358 93.2573 12.1641C93.1405 11.6123 93.1616 11.0577 93.2137 10.5016C93.2925 9.65705 93.17 8.8941 92.4226 8.33808C92.1368 8.12553 91.8989 8.26066 91.6428 8.33386C91.402 8.40284 91.4063 8.59991 91.3852 8.80824C91.3317 9.31077 91.5822 9.7781 91.5681 10.2539C91.5301 11.5672 91.7441 12.8679 91.6695 14.1897C91.6174 15.1229 91.7272 16.0675 91.5555 17.0021C91.4569 17.1823 91.4415 17.3709 91.4527 17.575C91.5175 18.7687 91.5189 19.9624 91.4175 21.1561C91.3683 21.7346 91.2796 22.3216 91.4175 22.9002C91.509 23.2873 91.944 23.5674 92.3958 23.5547C92.911 23.5406 93.1715 23.3379 93.2432 22.8481C93.3376 22.1949 93.3967 21.5376 93.3967 20.8774C93.4037 20.769 93.4051 20.6606 93.3953 20.5494C93.5459 19.7301 93.8007 18.9292 93.8063 18.0846C93.8119 17.3794 93.567 16.7023 93.6092 15.99C93.6402 15.4495 93.6613 14.9019 93.5937 14.3586C93.5825 14.2685 93.5726 14.1728 93.6416 14.0953C93.8922 13.811 94.8817 13.9264 94.9803 14.2783C95.0788 14.6303 95.2337 14.9681 95.2576 15.3439C95.3097 16.1646 95.3716 16.9852 95.4547 17.8017C95.5701 18.9278 95.6433 20.0356 95.2266 21.135C95.0197 21.6811 95.2196 22.2287 95.5419 22.7115C95.7812 23.1521 96.2303 23.2802 96.6554 23.3393C97.2677 23.4252 97.4394 23.2211 97.4 22.6102C97.3578 21.9472 97.4 21.287 97.4465 20.6268C97.4887 20.0469 97.5436 19.4599 97.4296 18.8813L97.431 18.8842ZM96.9425 9.99488C96.9425 9.96532 96.9397 9.93576 96.9383 9.9062C96.9411 9.93576 96.9425 9.96532 96.9425 9.99488Z" fill="#F5F5F5"/>
  <path fill-rule="evenodd" clip-rule="evenodd" d="M69.3089 13.6462C70.5898 14.0459 72.7886 14.3148 74.0569 12.6721C74.6439 11.9134 74.8972 11.0969 74.5538 10.1594C73.8809 8.98264 72.7984 8.48152 71.5119 8.34638C70.7489 8.26615 70.0029 8.34357 69.3553 8.82217C68.8106 9.06428 68.4193 9.45279 68.2588 10.0341C68.1237 10.5212 68.1011 11.0279 68.0631 11.5305C68.0153 12.1822 68.6937 13.4547 69.3075 13.6462H69.3089ZM74.5861 10.752C74.5861 10.752 74.5805 10.7633 74.5791 10.7703C74.5763 10.745 74.5735 10.7197 74.5693 10.6957C74.5861 10.7084 74.596 10.7253 74.5861 10.7535V10.752ZM69.9212 11.066C69.9367 10.8126 70.1169 10.7042 70.3196 10.6197C70.8686 10.3917 71.4584 10.3086 72.0369 10.3326C72.4916 10.3495 72.9434 10.5381 73.1039 11.0645C73.0842 11.4024 72.9899 11.6994 72.7421 11.9542C72.5141 12.1893 72.279 12.3356 71.9412 12.2681C71.8525 12.2498 71.7526 12.2385 71.6653 12.2568C70.9052 12.4285 70.3801 12.0597 69.9184 11.522C69.7804 11.3601 69.8213 11.218 69.9212 11.066Z" fill="#F5F5F5"/>
  <path fill-rule="evenodd" clip-rule="evenodd" d="M78.381 14.8158C78.2402 14.7511 78.1093 14.5976 77.9446 14.6807C77.3182 14.9974 76.6665 14.851 76.0316 14.775C75.6094 14.7229 75.173 14.8398 74.7732 14.6934C74.479 14.585 74.2073 14.5667 73.9244 14.6568C73.5655 14.7722 73.1981 14.7877 72.8264 14.7933C71.9776 14.806 71.1359 14.6877 70.2842 14.7187C69.4734 14.7483 68.6598 14.6905 67.8476 14.6582C67.3507 14.6385 66.8186 14.4062 66.3696 14.7018C65.9022 15.0101 65.4251 15.0776 64.9 15.0284C64.1117 14.8707 63.8105 15.034 63.5459 15.7632C63.5233 15.8251 63.5022 15.8913 63.4628 15.9433C63.2207 16.2685 63.3319 16.5599 63.5205 16.8625C63.719 17.1793 64.016 17.137 64.3003 17.0878C64.5594 17.0441 64.8113 16.9512 65.0647 16.8752C65.2815 16.8091 65.4983 16.7387 65.7277 16.8175C66.2373 16.9935 66.7539 16.9442 67.255 16.8203C68.2586 16.5726 69.2468 16.5683 70.235 16.8851C70.4729 16.9611 70.57 17.0962 70.5644 17.3524C70.5545 17.8958 70.5278 18.4419 70.6108 18.9839C70.6488 19.2302 70.6728 19.5314 70.9106 19.6426C71.4962 19.9185 71.9044 19.9467 72.3183 19.3231C72.4351 19.1486 72.5055 18.943 72.5942 18.7502C72.8391 18.2167 72.8124 18.0872 72.3873 17.6804C72.3633 17.6269 72.338 17.572 72.3141 17.5171C72.4281 16.9906 72.6308 16.7795 73.1108 16.8442C73.8118 16.9386 74.5058 16.9062 75.2054 16.878C75.8022 16.8541 76.4004 16.8893 76.9987 16.878C77.5871 16.8668 78.1642 16.771 78.6879 16.4839C78.9145 16.36 79.1777 16.2361 79.1791 15.9166C79.1791 15.3775 78.9159 15.0213 78.3824 14.8158H78.381Z" fill="#F5F5F5"/>
  <path fill-rule="evenodd" clip-rule="evenodd" d="M77.3137 21.194C77.0223 21.1686 76.7393 21.1208 76.4606 21.0307C76.2509 21.0039 76.0426 20.9659 75.8314 20.9504C74.877 20.8829 73.9226 20.8801 72.9697 20.9547C71.7366 21.049 70.5021 20.8899 69.2718 20.98C68.6609 21.0251 68.057 21.0321 67.4616 20.8604C67.3166 20.7365 67.3602 20.5816 67.3771 20.4212C67.4222 19.975 67.5291 19.5372 67.5066 19.0825C67.4855 18.6602 67.2209 18.4308 66.8887 18.2816C66.5396 18.1239 66.182 18.1183 65.847 18.3857C65.4585 18.6954 65.3726 19.1135 65.405 19.5597C65.4529 20.2326 65.36 20.8491 64.8729 21.3573C64.8391 21.3939 64.8251 21.4488 64.8011 21.4952C64.6238 21.7373 64.559 22.0245 64.6899 22.2821C65.0277 22.9465 66.0835 23.3434 66.8211 23.1365C67.035 23.076 67.2631 23.0507 67.4869 23.0366C68.1893 22.9958 68.8931 22.969 69.5956 22.938C70.3824 22.7931 71.182 22.8958 71.9745 22.8128C73.5426 22.6467 75.1065 22.5017 76.6661 22.938C77.6811 23.2224 78.0006 22.9141 77.9232 21.8344C77.8922 21.4093 77.7374 21.2334 77.3137 21.1954V21.194Z" fill="#F5F5F5"/>
  <path fill-rule="evenodd" clip-rule="evenodd" d="M60.9382 11.6826C60.5173 11.6446 60.1217 11.7333 59.7487 11.9289C59.5207 12.0345 59.3475 11.9585 59.2082 11.767C59.0519 11.3504 59.0153 10.9182 59.0308 10.4748C59.0435 10.1032 59.0449 9.73017 59.021 9.35996C58.9942 8.93626 58.7141 8.62517 58.3594 8.57731C57.4303 8.45344 56.7293 9.32477 57.0911 10.1708C57.2361 10.5114 57.2713 10.8422 57.2417 11.2124C57.1657 12.1541 57.1882 13.1099 57.3402 14.0319C57.4627 14.7738 57.45 15.472 57.3135 16.1913C57.2488 16.5291 57.2431 16.8754 57.2699 17.2231C57.291 17.5046 57.4543 17.62 57.6936 17.6665C58.662 17.8565 59.4024 17.2597 59.4531 16.2799C59.4911 15.5592 59.349 14.8484 59.3588 14.1319C59.3658 13.6322 59.3785 13.6125 59.881 13.68C60.2513 13.7293 60.6158 13.7997 60.9903 13.7377C61.4872 13.6561 61.7462 13.2408 61.7293 12.5497C61.7166 12.0246 61.4492 11.7276 60.9396 11.6826H60.9382ZM60.0654 12.4483C60.0697 12.4554 60.0739 12.4638 60.0795 12.4709C60.0725 12.468 60.0668 12.4652 60.0598 12.4624C60.0626 12.4568 60.064 12.4526 60.0654 12.4483Z" fill="#F5F5F5"/>
  <path fill-rule="evenodd" clip-rule="evenodd" d="M53.6218 16.5403C54.2004 16.6416 54.7944 16.384 55.3983 16.4291C55.7319 16.4544 55.8614 16.2292 55.7643 15.8928C55.7108 15.7098 55.7037 15.5282 55.7023 15.3424C55.7023 14.8497 55.5587 14.678 55.0548 14.5569H55.0478C54.762 14.4457 54.4678 14.4697 54.1722 14.4936C54.0948 14.488 54.0174 14.4823 53.9399 14.4781C53.8119 14.3542 53.5669 14.4345 53.4768 14.2163C53.5317 14.1712 53.5838 14.1304 53.6345 14.091C54.4397 13.4604 54.9605 12.7242 54.5931 11.629C54.5185 11.4066 54.5227 11.1589 54.4791 10.9238C54.3904 10.4396 54.2792 9.96238 54.0399 9.52601C53.7626 9.02067 53.4529 8.89116 52.9264 9.14876C52.5576 9.32894 52.2226 9.33739 51.8566 9.20225C51.6948 9.14313 51.5287 9.09246 51.3611 9.05586C50.3279 8.82641 49.2947 9.12765 48.2601 9.05867C47.9758 9.01504 47.7069 9.05586 47.462 9.21351C46.9989 9.36413 46.5329 9.54572 46.4316 10.0848C46.2993 10.776 46.7553 11.2757 47.5141 11.2701C48.063 11.2673 48.6134 11.1898 49.1624 11.1448C49.3187 11.1645 49.4904 11.1518 49.6311 11.211C50.1604 11.432 50.6418 11.2982 51.1233 11.0674C51.4104 10.9308 51.7032 10.8013 52.0002 10.6915C52.5084 10.5029 52.728 10.6254 53.0095 11.0899C53.2769 11.5305 53.1629 11.9584 53.0644 12.3962C52.949 12.9142 52.7927 13.4266 52.9616 13.9615C53.0222 14.1529 52.9011 14.1487 52.7716 14.1572C52.3043 14.1867 51.8454 14.091 51.3823 14.0713C51.2204 14.0094 51.1162 13.8911 51.105 13.7208C51.0937 13.5392 51.1261 13.3534 51.119 13.1718C51.0923 12.582 50.7882 12.1527 50.2913 11.8683C49.8887 11.6375 49.5312 11.7909 49.2089 12.0696C48.4079 12.5229 48.2671 12.7692 48.6022 13.3703C48.8752 13.8587 48.8921 14.3134 48.6528 14.7976C48.3249 15.0693 47.8927 14.8863 47.5408 15.0496C47.2551 15.0538 46.9848 15.1144 46.7455 15.279C46.3992 15.3494 46.1669 15.5859 45.953 15.8407C45.7109 16.1279 45.701 16.6177 45.922 16.9527C46.1683 17.3258 46.4133 17.4102 46.8792 17.2765C47.2987 17.1554 47.7224 17.0724 48.1602 17.0259C49.0568 16.9302 49.9648 17.0527 50.8544 16.8655C51.7665 16.674 52.6534 16.3686 53.626 16.5389L53.6218 16.5403ZM46.7624 15.7408C46.7652 15.7562 46.768 15.7703 46.7708 15.7858C46.7652 15.7703 46.7624 15.7548 46.7624 15.7408Z" fill="#F5F5F5"/>
  <path fill-rule="evenodd" clip-rule="evenodd" d="M57.0493 19.2614C56.6481 18.7265 56.0597 18.3971 55.5881 17.9368C55.2081 17.5652 54.7379 17.4934 54.2298 17.7271C53.7484 17.9481 53.2416 18.1156 52.77 18.3535C52.2914 18.5956 51.7833 18.8096 51.4469 19.2656C51.3075 19.3656 51.2709 19.5275 51.2287 19.6753C51.0907 20.1623 51.1175 20.6705 51.0457 21.166C50.9429 21.8754 51.2315 22.4469 51.6862 22.9593C52.1211 23.4815 52.7081 23.6983 53.3598 23.7405C53.9285 23.7786 54.4958 23.7279 55.0645 23.68C55.8429 23.6153 56.3989 23.2183 56.8902 22.6736C57.397 22.1105 57.7249 21.4954 57.5068 20.6986C57.373 20.213 57.4406 19.664 57.0507 19.26L57.0493 19.2614ZM53.3106 20.0567C53.9665 19.771 54.6126 19.9244 55.1701 20.2623C55.4347 20.4227 55.6346 20.7845 55.7613 21.1181C55.8148 21.2589 55.7528 21.4039 55.6571 21.5249C55.2996 21.9768 54.866 22.2639 54.2551 22.1823C54.02 22.1457 53.7835 22.1218 53.5513 22.0725C52.984 21.95 52.7025 21.5474 52.6856 20.9605C52.6715 20.4833 52.9221 20.2271 53.3134 20.0567H53.3106Z" fill="#F5F5F5"/>
  <path fill-rule="evenodd" clip-rule="evenodd" d="M135.023 19.0221C134.556 18.6463 134.004 18.7349 133.47 18.749C132.23 18.78 130.989 18.9123 129.75 18.7138C129.146 18.4126 129.197 17.8566 129.173 17.3076C129.132 16.4081 129.047 15.5086 128.711 14.6626C128.497 14.1263 128.148 13.9715 127.561 14.0953C127.149 14.1826 126.991 14.4247 126.984 15.0061C126.973 15.99 126.998 16.9726 127.053 17.9537C127.075 18.3506 126.94 18.5224 126.542 18.5548C126.239 18.5787 125.931 18.559 125.626 18.5477C125.209 18.5336 124.902 18.1789 125.034 17.7946C125.265 17.1204 125.086 16.5193 124.803 15.9211C124.743 15.5959 124.711 15.2637 124.612 14.9498C124.516 14.6443 124.349 14.3529 123.974 14.3192C123.39 14.2657 122.731 15.0033 122.833 15.5776C123.012 16.5925 123.024 17.6116 122.868 18.6308C122.813 18.7701 122.72 18.8644 122.562 18.8771C121.671 19.1051 120.758 19.2079 119.851 19.3459C119.622 19.381 119.45 19.4697 119.438 19.733C119.197 20.3706 119.438 21.2617 120.383 21.135C120.566 21.111 120.755 21.1195 120.939 21.1293C122.105 21.1899 123.233 20.8168 124.415 20.9196C126.356 21.0899 128.304 20.8154 130.259 20.9393C131.65 21.0266 133.062 20.7929 134.464 20.7056C134.639 20.6944 134.757 20.624 134.862 20.486C135.133 20.1313 135.209 19.7217 135.237 19.2952C135.247 19.1389 135.188 19.039 135.023 19.0207V19.0221Z" fill="#F5F5F5"/>
  <path fill-rule="evenodd" clip-rule="evenodd" d="M120.835 11.736C122.634 11.7782 124.438 11.5248 126.232 11.8402C127.462 12.1146 128.637 11.7107 129.831 11.5389V11.5417C130.253 11.5629 130.678 11.584 131.104 11.6051L131.127 11.6248H131.16C131.246 11.7557 131.332 11.8894 131.417 12.0232C131.53 12.4032 131.64 12.7805 131.682 13.1802C131.796 14.2824 131.717 15.3705 131.569 16.4657C131.416 17.5918 131.931 18.0971 133.052 18.0028C133.454 17.969 133.696 17.7016 133.629 17.3159C133.554 16.8922 133.587 16.4699 133.587 16.0462C133.587 15.6492 133.651 15.2438 133.511 14.8624C133.342 14.4021 133.335 13.9291 133.335 13.4505C133.335 12.8691 133.416 12.2892 133.349 11.7036C133.236 10.714 132.515 9.75685 131.65 9.61608C130.828 9.48095 129.991 9.52881 129.162 9.60623C127.81 9.68224 126.458 9.69209 125.104 9.61327C124.22 9.56118 123.321 9.51895 122.445 9.69913C121.712 9.84975 120.952 9.9694 120.411 10.5803C120.131 10.8478 119.986 11.1941 120.121 11.5431C120.234 11.8345 120.586 11.7304 120.838 11.7374L120.835 11.736ZM120.269 11.1307C120.269 11.1307 120.259 11.1307 120.253 11.1307C120.258 11.1265 120.262 11.1237 120.265 11.1194C120.265 11.1237 120.266 11.1265 120.267 11.1307H120.269Z" fill="#F5F5F5"/>
  <path d="M114.193 18.9025C113.625 18.7434 113.088 18.4844 112.475 18.4605C111.99 18.4408 111.491 18.5421 111.018 18.3704C110.415 18.1522 109.792 18.048 109.155 18.0072C108.388 17.8876 107.611 17.9368 106.816 17.9016C106.855 17.8636 106.869 17.8425 106.888 17.8341C106.997 17.7862 107.104 17.7299 107.217 17.6975C108.319 17.3752 108.985 16.6249 109.3 15.5509C109.404 15.1976 109.606 14.7795 109.317 14.4557C108.74 13.8096 108.484 12.8749 107.579 12.5146C107.489 12.4794 107.227 12.4048 107.397 12.1739C108.033 11.8966 108.698 11.8572 109.378 11.9417C109.783 11.9909 110.141 11.8445 110.457 11.6151C110.861 11.3237 110.835 10.5101 110.431 10.2609C109.941 10.0808 109.434 10.1934 108.936 10.1737C108.446 10.154 107.952 10.1906 107.469 10.078C107.231 10.0231 107.045 9.94423 107.044 9.61202C107.041 9.31783 107.064 8.99407 106.921 8.71817C106.675 8.24098 105.721 8.22972 105.407 8.85049C105.252 9.15735 105.115 9.47548 104.972 9.78939C104.868 10.0174 104.735 10.206 104.445 10.1877C104.414 10.2159 104.375 10.2145 104.337 10.2272C104.309 10.2356 104.279 10.2426 104.251 10.2497C104.314 10.2229 104.378 10.199 104.445 10.1892C103.48 10.2201 102.517 10.2638 101.574 10.5087C101.303 10.5791 101.17 10.7128 101.125 10.9831C101.008 11.6897 102.047 12.5568 102.817 12.3851C103.589 12.2133 104.347 11.9403 105.158 12.0191C105.252 12.1289 105.463 12.0261 105.526 12.2429C104.734 12.44 104.175 12.9678 103.626 13.5379C102.905 14.2868 102.805 15.0948 103.236 16.0055C103.302 16.5545 103.642 16.9008 104.088 17.1767C104.562 17.4709 105.073 17.6806 105.6 17.8622C105.691 17.8932 105.901 17.8439 105.861 18.0677C105.457 18.1452 105.051 18.1578 104.641 18.1635C103.986 18.1733 103.328 18.1578 102.686 18.3282C102.019 18.3802 101.508 18.6871 101.164 19.2628C100.847 19.8048 101.047 20.2271 101.648 20.296C102.209 20.3608 102.743 20.2468 103.273 20.0821C103.366 20.0736 103.46 20.0764 103.55 20.0567C105.405 19.6584 107.293 19.6809 109.174 19.6527C110.198 19.6373 111.209 19.816 112.204 20.0581C112.462 20.1215 112.755 20.1806 112.808 20.4973C112.891 20.9886 113.029 21.4742 112.984 21.981C112.877 22.1147 112.894 22.285 112.867 22.4371C112.65 23.6927 112.997 23.9573 114.248 23.6899C114.592 23.6167 114.73 23.3971 114.731 23.0606C114.731 22.5961 114.744 22.133 114.751 21.6685C114.915 20.7803 114.677 19.9427 114.417 19.1094C114.382 18.9982 114.293 18.9264 114.193 18.8982V18.9025ZM113.713 20.1891C113.715 20.2017 113.716 20.2144 113.717 20.2271C113.71 20.2144 113.709 20.2017 113.713 20.1891ZM112.415 18.8433C112.356 18.8771 112.311 18.8504 112.276 18.7983C112.321 18.8039 112.368 18.8166 112.415 18.8433ZM105.643 14.246C105.923 14.1601 106.202 14.0813 106.568 14.0954C107.127 14.0447 107.535 14.4304 107.936 14.8231C108.05 14.9343 108.035 15.0272 107.929 15.1624C107.372 15.8704 106.43 16.0942 105.608 15.7057C105.218 15.5213 105.221 15.1638 105.204 14.8245C105.19 14.5261 105.352 14.3347 105.643 14.246Z" fill="#F5F5F5"/>
  <path d="M116.827 12.5512C116.671 12.1529 116.385 11.929 115.958 11.8502C115.544 11.7742 115.153 11.7939 114.777 11.9896C114.58 12.0923 114.437 12.0656 114.355 11.846C114.268 11.3618 114.261 10.8719 114.256 10.3806C114.255 10.1033 114.289 9.82462 114.214 9.54872C114.083 9.06167 113.796 8.81956 113.351 8.83082C112.929 8.84067 112.597 9.17288 112.501 9.63599C112.39 10.1751 112.552 10.6833 112.636 11.2013C112.629 11.1112 112.639 11.0211 112.657 10.931C112.647 11.0591 112.642 11.1886 112.653 11.3139C112.536 12.3415 112.434 13.3705 112.581 14.4051C112.501 15.009 112.411 15.6114 112.343 16.2167C112.308 16.5419 112.197 16.8783 112.324 17.2007C112.464 17.561 112.716 17.7919 113.143 17.7609C113.64 17.7257 113.99 17.4977 114.089 17.0585C114.266 16.2702 114.151 15.4566 114.268 14.6599C114.517 13.8378 114.517 13.8434 115.426 13.8308C115.782 13.8265 116.141 13.8885 116.495 13.7801C117.105 13.5929 117.253 13.0509 116.827 12.5498V12.5512ZM113.641 9.10672C113.641 9.10672 113.63 9.10672 113.624 9.1039C113.63 9.09827 113.636 9.09264 113.643 9.08701C113.643 9.09264 113.643 9.09968 113.641 9.10672ZM113.789 16.6123C113.789 16.6123 113.786 16.6123 113.785 16.6123C113.799 16.5658 113.813 16.5222 113.828 16.48C113.889 16.5123 113.861 16.5841 113.788 16.6109L113.789 16.6123Z" fill="#F5F5F5"/>
  <path d="M48.1534 28.9626V31.8624H48.8966V32.0017H46.018V31.8624H46.757V26.0023H46.018V25.863H48.8826V26.0023H48.152V28.7163L50.2367 26.716C50.3747 26.5907 50.469 26.4908 50.5196 26.419C50.5703 26.3472 50.5957 26.2839 50.5957 26.2304C50.5957 26.1487 50.5577 26.091 50.4831 26.0544C50.4084 26.0192 50.2888 26.0009 50.1269 26.0009H50.003V25.8616H52.2905V26.0009C52.2722 26.0009 52.2454 25.9995 52.2102 25.9967C52.175 25.9939 52.1483 25.9925 52.13 25.9925C51.8358 25.9925 51.55 26.0629 51.2713 26.2008C50.9926 26.3402 50.6928 26.564 50.3704 26.8737L49.3288 27.8759L51.9414 31.8624H52.5804V32.0017H49.6286V31.8624H50.2663L48.3195 28.8064L48.1548 28.964L48.1534 28.9626Z" fill="#F5F5F5"/>
  <path d="M53.7992 32.0003H53.5556L51.9397 28.2841H51.4118V28.1448H53.7541V28.2841H53.2164L54.2637 30.6926L55.3152 28.2841H55.7009L56.7059 30.7109L57.3943 29.1555C57.4309 29.0724 57.459 28.9922 57.4773 28.9148C57.4956 28.8387 57.5055 28.7712 57.5055 28.7149C57.5055 28.553 57.4619 28.4418 57.3746 28.3784C57.2873 28.3151 57.1268 28.2841 56.8946 28.2841V28.1448H58.5345L58.5288 28.2841C58.3965 28.3052 58.0714 28.3728 57.9686 28.4896C57.8644 28.6051 57.7392 28.8275 57.5914 29.1569L56.2555 32.0017H56.0134L54.9295 29.5707L53.8006 32.0017L53.7992 32.0003Z" fill="#F5F5F5"/>
  <path d="M64.4515 31.8622H64.9751V32.0016H62.675V31.8622H63.2071V28.284H62.675V28.1447H63.4056C63.6266 28.1447 63.8124 28.1362 63.9659 28.1179C64.1193 28.0996 64.2615 28.0715 64.3924 28.032V28.8907C64.5641 28.6092 64.7724 28.3952 65.0188 28.2502C65.2651 28.1052 65.5424 28.032 65.8521 28.032C66.2561 28.032 66.5728 28.1348 66.8023 28.3403C67.0317 28.5458 67.1471 28.826 67.1471 29.1835V31.8622H67.675V32.0016H65.389V31.8622H65.9084V28.9907C65.9084 28.7359 65.8732 28.5599 65.8028 28.4656C65.7325 28.3699 65.6114 28.322 65.4411 28.322C65.1567 28.322 64.9202 28.4332 64.7344 28.657C64.5472 28.8809 64.4543 29.1666 64.4543 29.5171V31.8636L64.4515 31.8622Z" fill="#F5F5F5"/>
  <path d="M79.8553 29.9647C79.8553 29.6916 79.9131 29.4298 80.0299 29.1778C80.1467 28.9258 80.3142 28.6978 80.5352 28.4909C80.7464 28.298 80.9716 28.1559 81.2109 28.0615C81.4488 27.9672 81.7092 27.9194 81.9907 27.9194C82.2723 27.9194 82.5383 27.9672 82.7804 28.063C83.0225 28.1587 83.2435 28.3008 83.4462 28.4909C83.6658 28.6978 83.8348 28.9272 83.9516 29.1778C84.0684 29.4298 84.1261 29.6916 84.1261 29.9647C84.1261 30.2378 84.0698 30.4982 83.9544 30.7445C83.839 30.9923 83.6701 31.2203 83.4476 31.43C83.2421 31.6215 83.0197 31.7651 82.779 31.8594C82.5397 31.9537 82.2765 32.0001 81.9921 32.0001C81.3981 32.0001 80.8942 31.8017 80.4789 31.4047C80.0637 31.0077 79.8568 30.5277 79.8568 29.9647H79.8553ZM82.7987 30.4728V29.4481C82.7987 28.8935 82.7396 28.5233 82.6228 28.3388C82.5045 28.153 82.2948 28.0601 81.9907 28.0601C81.6867 28.0601 81.477 28.153 81.3601 28.3388C81.2419 28.5247 81.1828 28.8949 81.1828 29.4481V30.4728C81.1828 31.0274 81.2419 31.3963 81.3601 31.5821C81.4784 31.7679 81.6881 31.8608 81.9907 31.8608C82.2934 31.8608 82.5045 31.7679 82.6228 31.5821C82.7396 31.3963 82.7987 31.026 82.7987 30.4728Z" fill="#F5F5F5"/>
  <path d="M84.5568 29.9647C84.5568 29.6916 84.6145 29.4298 84.7314 29.1778C84.8482 28.9258 85.0157 28.6978 85.2367 28.4909C85.4479 28.298 85.6731 28.1559 85.911 28.0615C86.1503 27.9672 86.4093 27.9194 86.6908 27.9194C86.9723 27.9194 87.2384 27.9672 87.4805 28.063C87.7226 28.1587 87.945 28.3008 88.1463 28.4909C88.3659 28.6978 88.5348 28.9272 88.6517 29.1778C88.7685 29.4298 88.8262 29.6916 88.8262 29.9647C88.8262 30.2378 88.7685 30.4982 88.6545 30.7445C88.5405 30.9923 88.3701 31.2203 88.1477 31.43C87.9422 31.6215 87.7198 31.7651 87.4791 31.8594C87.2398 31.9537 86.9766 32.0001 86.6922 32.0001C86.0982 32.0001 85.5943 31.8017 85.179 31.4047C84.7638 31.0077 84.5568 30.5277 84.5568 29.9647ZM87.5002 30.4728V29.4481C87.5002 28.8935 87.4411 28.5233 87.3228 28.3388C87.2046 28.153 86.9949 28.0601 86.6908 28.0601C86.3868 28.0601 86.177 28.153 86.0602 28.3388C85.942 28.5247 85.8828 28.8949 85.8828 29.4481V30.4728C85.8828 31.0274 85.942 31.3963 86.0602 31.5821C86.1784 31.7679 86.3882 31.8608 86.6908 31.8608C86.9935 31.8608 87.2046 31.7679 87.3228 31.5821C87.4397 31.3963 87.5002 31.026 87.5002 30.4728Z" fill="#F5F5F5"/>
  <path d="M90.9332 31.8622H91.4569V32.0016H89.1568V31.8622H89.6889V28.284H89.1568V28.1447H89.8874C90.107 28.1447 90.2942 28.1362 90.4476 28.1179C90.5996 28.0996 90.7432 28.0715 90.8741 28.032V28.8907C91.0459 28.6092 91.2542 28.3952 91.5005 28.2502C91.7469 28.1052 92.0256 28.032 92.3338 28.032C92.7378 28.032 93.0546 28.1348 93.284 28.3403C93.5134 28.5458 93.6289 28.826 93.6289 29.1835V31.8622H94.1567V32.0016H91.8707V31.8622H92.3902V28.9907C92.3902 28.7359 92.355 28.5599 92.2846 28.4656C92.2142 28.3699 92.0931 28.322 91.9228 28.322C91.6371 28.322 91.402 28.4332 91.2148 28.657C91.0276 28.8809 90.9346 29.1666 90.9346 29.5171V31.8636L90.9332 31.8622Z" fill="#F5F5F5"/>
  <path d="M62.517 31.1432C62.4804 31.2867 62.4354 31.3951 62.3791 31.4669C62.3242 31.5387 62.2608 31.5753 62.1904 31.5753C62.0891 31.5753 62.0187 31.5303 61.9765 31.4388C61.9342 31.3473 61.9145 31.1784 61.9145 30.9334V29.3329C61.9145 29.0176 61.8765 28.7868 61.8019 28.639C61.7259 28.4912 61.5964 28.3603 61.4092 28.2462C61.2318 28.1393 61.0291 28.0576 60.8011 28.0041C60.573 27.9492 60.3211 27.9239 60.0466 27.9239C59.5595 27.9239 59.1724 28.0112 58.8825 28.1871C58.5981 28.3603 58.4531 28.5841 58.4489 28.86C58.4489 28.86 58.4489 28.8614 58.4489 28.8628C58.4489 28.8656 58.4489 28.8684 58.4489 28.8712C58.4489 28.8952 58.4531 28.9177 58.4574 28.9402C58.4968 29.2161 58.7361 29.4273 59.0275 29.4273C59.347 29.4273 59.606 29.1739 59.606 28.8614C59.606 28.5855 59.4033 28.3546 59.1358 28.3054C59.1612 28.2533 59.2273 28.204 59.3428 28.1576C59.4878 28.0984 59.6595 28.0703 59.8594 28.0703C60.2057 28.0703 60.4365 28.1308 60.5547 28.2519C60.673 28.3729 60.7307 28.653 60.7307 29.0908V29.6342C59.827 29.6342 59.1541 29.7369 58.7107 29.9439C58.2659 30.1508 58.0449 30.4647 58.0449 30.887C58.0449 31.2431 58.1843 31.5176 58.4644 31.7119C58.7445 31.9047 59.1457 32.0018 59.6693 32.0018C59.9382 32.0018 60.1662 31.9512 60.3506 31.8498C60.5365 31.7485 60.6744 31.5978 60.7659 31.4008C60.8335 31.6021 60.9433 31.7513 61.0939 31.8484C61.2445 31.9455 61.443 31.9948 61.6879 31.9948C61.9328 31.9948 62.1538 31.916 62.3326 31.7569C62.5114 31.5978 62.6127 31.3937 62.6381 31.146H62.5142L62.517 31.1432ZM60.7321 30.7209C60.7321 31.0714 60.6688 31.3332 60.5421 31.5063C60.4154 31.6795 60.224 31.7668 59.9706 31.7668C59.7439 31.7668 59.5807 31.6879 59.4821 31.5289C59.3822 31.3698 59.3329 31.1038 59.3329 30.7293C59.3329 30.3549 59.4188 30.0917 59.5877 29.9678C59.758 29.8439 60.1113 29.782 60.6505 29.782H60.7335V30.7223L60.7321 30.7209Z" fill="#F5F5F5"/>
  <path d="M78.8753 25.863V26.0024H79.3623C79.5524 26.0024 79.6889 26.0348 79.7734 26.0995C79.8578 26.1643 79.9001 26.2698 79.9001 26.4162C79.9001 26.4669 79.886 26.5472 79.8592 26.6541C79.8325 26.7625 79.7945 26.8765 79.7494 26.9962L78.5276 30.2816L76.944 26.0038H76.7906L75.2253 30.2281L73.6459 26.0038H74.1878V25.8644H71.6217V26.0038H72.2228L74.5369 32.0032H74.7256L76.2683 28.0252L77.8576 32.0032H78.0546L80.0746 26.7006C80.1633 26.4641 80.2604 26.298 80.366 26.2023C80.4716 26.1066 80.6194 26.0221 80.8178 26.0038C80.839 26.0024 80.8995 26.0038 80.8995 26.0038H81.4414V25.8644H78.8753V25.863Z" fill="#F5F5F5"/>
  <path d="M71.3456 28.5291C71.3639 28.5587 71.3864 28.5882 71.4131 28.6122C71.4483 28.6431 71.4863 28.66 71.5286 28.6727C71.53 28.6727 71.5328 28.6727 71.5342 28.6741C71.5426 28.6755 71.5483 28.6797 71.5567 28.6811C71.6032 28.6966 71.651 28.7065 71.7031 28.7065C71.9509 28.7065 72.1507 28.5108 72.1507 28.2687C72.1507 28.0477 71.9832 27.8661 71.7651 27.8366C71.7017 27.8211 71.6341 27.8112 71.5567 27.8112C71.4131 27.8112 71.2822 27.8422 71.1668 27.9027C71.05 27.9647 70.9374 28.066 70.8262 28.2068C70.6488 28.0956 70.4672 28.0125 70.2828 27.9576C70.097 27.9027 69.9027 27.8746 69.6972 27.8746C69.2623 27.8746 68.9019 27.9984 68.6133 28.2448C68.3262 28.4925 68.1812 28.798 68.1812 29.164C68.1812 29.3892 68.2417 29.5877 68.3642 29.7608C68.4867 29.9339 68.6767 30.0916 68.9343 30.2324C68.6162 30.2957 68.3825 30.4041 68.2347 30.5589C68.0855 30.7124 68.0123 30.9207 68.0123 31.1811C68.0123 31.3444 68.0446 31.6851 68.3628 31.8019C68.2108 31.9258 68.0911 32.0581 68.0066 32.2003C67.9039 32.372 67.8532 32.5522 67.8532 32.7422C67.8532 32.9322 67.9053 33.1138 68.0095 33.2884C68.1136 33.4629 68.2642 33.622 68.4613 33.7656C68.6415 33.8965 68.8414 33.995 69.0582 34.0626C69.2749 34.1287 69.51 34.1625 69.7662 34.1625C70.0224 34.1625 70.2518 34.1301 70.4658 34.064C70.6798 33.9992 70.8811 33.8993 71.0711 33.767C71.1865 33.6839 71.2836 33.5938 71.3667 33.5009C71.3667 33.5009 71.3695 33.4981 71.3709 33.4967C71.5131 33.3531 71.6229 33.194 71.6989 33.0195C71.7735 32.845 71.7918 32.662 71.7918 32.4733C71.7918 32.082 71.6778 31.7498 71.4089 31.4739C71.2259 31.2867 70.8839 31.046 70.47 31.046H68.7752C68.6373 31.046 68.5345 31.0249 68.4655 30.9812C68.3966 30.9376 68.3628 30.8728 68.3628 30.7856C68.3628 30.68 68.4261 30.5899 68.5528 30.5111C68.6795 30.4337 68.8667 30.3717 69.1159 30.3267C69.2045 30.3562 69.296 30.3802 69.389 30.3971C69.4819 30.414 69.579 30.421 69.6803 30.421C70.1702 30.421 70.5629 30.307 70.8599 30.0775C71.1569 29.8495 71.3062 29.5454 71.3062 29.1682C71.3062 29.0091 71.278 28.8627 71.2203 28.7276C71.164 28.5939 71.0739 28.4587 70.9514 28.3194C70.9923 28.2504 71.0978 28.1139 71.3062 28.0787C71.2766 28.1378 71.2583 28.2025 71.2583 28.2729C71.2583 28.3701 71.2921 28.4601 71.347 28.5319L71.3456 28.5291ZM68.9667 32.3269C68.9667 31.9877 69.03 31.7597 69.1553 31.647C69.2792 31.533 69.503 31.4767 69.8253 31.4767C70.1477 31.4767 70.3701 31.5344 70.4954 31.647C70.6206 31.7611 70.6826 31.9877 70.6826 32.3269V32.9547C70.6826 33.294 70.6192 33.522 70.4954 33.636C70.3701 33.7501 70.1463 33.8064 69.8253 33.8064C69.5044 33.8064 69.2792 33.7487 69.1553 33.636C69.03 33.522 68.9667 33.2954 68.9667 32.9547V32.3269ZM70.3096 29.5074C70.3096 29.8157 70.2701 30.0226 70.1913 30.1254C70.1139 30.2281 69.9675 30.2802 69.7535 30.2802C69.5396 30.2802 69.3875 30.2267 69.3087 30.1226C69.2299 30.0184 69.1891 29.8129 69.1891 29.5074V28.7881C69.1891 28.4827 69.2299 28.2771 69.3087 28.173C69.3875 28.0688 69.5368 28.0153 69.7535 28.0153C69.9703 28.0153 70.1139 28.0674 70.1913 28.1702C70.2701 28.2729 70.3096 28.4798 70.3096 28.7881V29.5074Z" fill="#F5F5F5"/>
  <path d="M103.272 31.8608H103.796V32.0002H101.494V31.8608H102.028V28.284H101.494V28.1447H102.225C102.445 28.1447 102.632 28.1362 102.785 28.1179C102.939 28.0996 103.081 28.0715 103.213 28.032V28.8907C103.385 28.6092 103.593 28.3952 103.84 28.2502C104.086 28.1052 104.363 28.032 104.673 28.032C105.077 28.032 105.394 28.1348 105.623 28.3403C105.853 28.5458 105.968 28.8274 105.968 29.1835V31.8608H106.496V32.0002H104.208V31.8608H104.728V28.9892C104.728 28.7345 104.693 28.5599 104.622 28.4642C104.552 28.3685 104.431 28.3206 104.259 28.3206C103.975 28.3206 103.738 28.4318 103.552 28.6556C103.365 28.8794 103.272 29.1652 103.272 29.5157V31.8622V31.8608Z" fill="#F5F5F5"/>
  <path d="M107.309 28.2842H106.763V28.1449H107.497C107.709 28.1449 107.9 28.1364 108.073 28.1181C108.246 28.0998 108.404 28.0717 108.547 28.0322V31.861H109.094V32.0004H106.761V31.861H107.307V28.2842H107.309ZM107.25 27.0596C107.25 26.8681 107.316 26.7091 107.447 26.581C107.579 26.4543 107.742 26.3895 107.938 26.3895C108.134 26.3895 108.294 26.4543 108.429 26.5838C108.564 26.7119 108.631 26.8709 108.631 27.0596C108.631 27.2482 108.563 27.4157 108.429 27.5494C108.294 27.6846 108.131 27.7521 107.938 27.7521C107.745 27.7521 107.575 27.686 107.444 27.5536C107.314 27.4213 107.25 27.2566 107.25 27.0596Z" fill="#F5F5F5"/>
  <path d="M111.404 32.0002H111.106L109.504 28.1714H108.921V28.032H111.341V28.1714H110.823L111.828 30.5897L112.517 28.9273C112.547 28.8555 112.57 28.7879 112.585 28.7274C112.601 28.6669 112.609 28.6078 112.609 28.5501C112.609 28.4149 112.56 28.3192 112.463 28.2601C112.364 28.201 112.201 28.1728 111.972 28.1728V28.0335H113.561V28.1728H113.524C113.344 28.1728 113.194 28.2319 113.073 28.3502C112.951 28.4684 112.811 28.7176 112.647 29.0976L111.407 32.0002H111.404Z" fill="#F5F5F5"/>
  <path d="M116.906 29.7718H114.48V30.4236C114.48 30.9064 114.556 31.2555 114.71 31.4723C114.863 31.6904 115.11 31.7988 115.449 31.7988C115.788 31.7988 116.068 31.6834 116.315 31.4526C116.561 31.2217 116.74 30.9008 116.85 30.4911H116.992C116.897 30.9641 116.696 31.3343 116.388 31.6004C116.08 31.8664 115.701 32.0001 115.25 32.0001C114.645 32.0001 114.147 31.8073 113.756 31.423C113.366 31.0387 113.17 30.546 113.17 29.9464C113.17 29.3918 113.363 28.916 113.748 28.5176C114.134 28.1193 114.596 27.9194 115.135 27.9194C115.63 27.9194 116.046 28.0925 116.379 28.4388C116.713 28.7851 116.888 29.2285 116.903 29.7718H116.906ZM115.611 29.6325V28.9892C115.611 28.6204 115.569 28.374 115.487 28.2474C115.404 28.1221 115.255 28.0587 115.036 28.0587C114.818 28.0587 114.685 28.1277 114.603 28.2671C114.521 28.4064 114.48 28.6739 114.48 29.0694V29.6311H115.611V29.6325Z" fill="#F5F5F5"/>
  <path d="M117.558 28.284H117.024V28.1447H117.753C117.964 28.1447 118.154 28.1362 118.321 28.1179C118.488 28.0996 118.644 28.0715 118.792 28.032V28.8231C118.902 28.574 119.05 28.3797 119.236 28.2418C119.421 28.1024 119.624 28.032 119.844 28.032C120.086 28.032 120.274 28.094 120.411 28.2193C120.547 28.3431 120.615 28.5149 120.615 28.7331C120.615 28.9217 120.557 29.0765 120.442 29.1962C120.325 29.3158 120.177 29.3763 119.997 29.3763C119.817 29.3763 119.666 29.3172 119.547 29.199C119.428 29.0807 119.368 28.9315 119.368 28.7513C119.368 28.6767 119.381 28.6021 119.404 28.5261C119.428 28.4515 119.469 28.3727 119.524 28.2925C119.31 28.3431 119.136 28.4783 119.002 28.695C118.87 28.9118 118.802 29.1736 118.802 29.4791V31.8608H119.523V32.0002H117.024V31.8608H117.558V28.284Z" fill="#F5F5F5"/>
  <path d="M121.01 31.9919V30.5533H121.152C121.358 31.0038 121.582 31.3332 121.827 31.5443C122.071 31.7555 122.35 31.861 122.663 31.861C122.91 31.861 123.109 31.7935 123.257 31.6583C123.406 31.5232 123.479 31.343 123.479 31.115C123.479 30.818 123.176 30.6251 122.57 30.535C122.442 30.5167 122.342 30.5026 122.271 30.49C121.815 30.4112 121.487 30.2802 121.287 30.0944C121.089 29.9086 120.989 29.6454 120.989 29.3033C120.989 28.919 121.121 28.5939 121.385 28.3236C121.648 28.0533 121.97 27.9182 122.353 27.9182C122.543 27.9182 122.747 27.9534 122.968 28.0238C123.189 28.0942 123.309 28.1294 123.331 28.1294C123.389 28.1294 123.438 28.1139 123.479 28.0843C123.52 28.0548 123.555 28.0083 123.583 27.945H123.735V29.1809H123.583C123.461 28.8064 123.293 28.5277 123.081 28.3433C122.868 28.1589 122.608 28.0674 122.302 28.0674C122.07 28.0674 121.876 28.1322 121.72 28.2603C121.563 28.3898 121.485 28.5502 121.485 28.7417C121.485 28.829 121.508 28.9092 121.553 28.9852C121.599 29.0598 121.665 29.1232 121.751 29.1738C121.836 29.2273 122.019 29.2653 122.301 29.2893C122.582 29.3118 122.801 29.3399 122.954 29.3765C123.334 29.4596 123.606 29.5961 123.773 29.7833C123.941 29.9706 124.024 30.231 124.024 30.5632C124.024 30.9953 123.89 31.343 123.62 31.6062C123.351 31.8695 122.996 32.0018 122.559 32.0018C122.412 32.0018 122.228 31.968 122.008 31.9004C121.789 31.8329 121.634 31.7991 121.544 31.7991C121.439 31.7991 121.355 31.8146 121.292 31.8441C121.227 31.8737 121.18 31.923 121.149 31.9919H121.007H121.01Z" fill="#F5F5F5"/>
  <path d="M125.009 28.2842H124.463V28.1449H125.198C125.409 28.1449 125.602 28.1364 125.775 28.1181C125.948 28.0998 126.107 28.0717 126.25 28.0322V31.861H126.797V32.0004H124.464V31.861H125.01V28.2842H125.009ZM124.95 27.0596C124.95 26.8681 125.016 26.7091 125.148 26.581C125.279 26.4543 125.444 26.3895 125.64 26.3895C125.835 26.3895 125.997 26.4543 126.132 26.5838C126.267 26.7119 126.334 26.8709 126.334 27.0596C126.334 27.2482 126.266 27.4157 126.132 27.5494C125.997 27.6846 125.834 27.7521 125.64 27.7521C125.445 27.7521 125.276 27.686 125.147 27.5536C125.016 27.4213 124.951 27.2566 124.951 27.0596H124.95Z" fill="#F5F5F5"/>
  <path d="M127.039 28.0335H127.057C127.464 28.0335 127.806 27.8759 128.083 27.562C128.361 27.2467 128.545 26.8033 128.637 26.2275H128.775V28.0335H129.625V28.1729H128.775V31.0712C128.775 31.2838 128.798 31.4358 128.846 31.5245C128.894 31.6146 128.972 31.6596 129.079 31.6596C129.176 31.6596 129.27 31.6287 129.362 31.5639C129.452 31.4992 129.53 31.4091 129.598 31.2922L129.718 31.364C129.611 31.5625 129.454 31.7173 129.252 31.8314C129.048 31.9454 128.821 32.0017 128.57 32.0017C128.197 32.0017 127.931 31.9046 127.774 31.7103C127.616 31.5161 127.537 31.1712 127.537 30.6771V28.1729H127.042V28.0335H127.039Z" fill="#F5F5F5"/>
  <path d="M101.841 25.863H99.1777V25.9939H100.073C100.376 25.9996 100.583 26.0531 100.691 26.1516C100.799 26.2515 100.853 26.4951 100.853 26.8836V29.3807C100.853 29.9438 100.819 30.345 100.753 30.5829C100.685 30.8208 100.573 31.0235 100.414 31.1896C100.273 31.336 100.097 31.4486 99.8871 31.5302C99.6774 31.6104 99.455 31.6513 99.2199 31.6513C98.9539 31.6513 98.7117 31.5978 98.495 31.4936C98.2782 31.388 98.1008 31.2402 97.9671 31.0516C97.8728 30.9179 97.8038 30.7574 97.7644 30.5716C97.7236 30.3858 97.7053 30.0789 97.7053 29.6496V25.9996H98.4485V25.8644H95.5685V25.9996H96.3131V29.6665C96.3131 30.1775 96.3779 30.5688 96.506 30.8405C96.6341 31.1121 96.8551 31.3514 97.1676 31.5598C97.3872 31.7062 97.6321 31.816 97.9023 31.8906C98.1712 31.9652 98.4626 32.0018 98.7751 32.0018C99.1552 32.0018 99.5028 31.9426 99.8196 31.8244C100.136 31.7062 100.391 31.5401 100.584 31.3275C100.756 31.1375 100.878 30.9179 100.951 30.6673C101.025 30.4168 101.063 29.9888 101.063 29.3821V26.885C101.063 26.5049 101.116 26.2642 101.226 26.1615C101.334 26.0587 101.54 26.0038 101.844 25.9954H102.132V25.8644H101.844L101.841 25.863Z" fill="#F5F5F5"/>
  <path d="M132.885 28.0223V28.1616H132.958C133.138 28.1616 133.275 28.1912 133.366 28.2503C133.458 28.308 133.504 28.3953 133.504 28.5079C133.504 28.5501 133.492 28.6135 133.465 28.6965C133.438 28.781 133.402 28.8781 133.352 28.9893L132.677 30.4899L131.672 28.1616H132.264V28.0223H129.806V28.1616H130.344L132.042 32.0918C132.042 32.0918 131.664 33.2362 131.001 33.6247C131.001 33.6247 131.037 33.5177 131.037 33.4431C131.037 33.2643 130.978 33.1137 130.858 32.9969C130.738 32.8786 130.589 32.8195 130.407 32.8195C130.226 32.8195 130.078 32.8801 129.963 32.9997C129.846 33.1194 129.788 33.2742 129.788 33.4628C129.788 33.681 129.857 33.8527 129.994 33.9766C130.129 34.1019 130.319 34.1638 130.561 34.1638C130.775 34.1638 131.376 34.0836 132.228 32.1087C133.078 30.1352 133.544 28.9992 133.544 28.9992C133.697 28.6571 133.834 28.4333 133.955 28.3249C134.076 28.2165 134.228 28.163 134.411 28.163V28.0237H132.886L132.885 28.0223Z" fill="#F5F5F5"/>
  <path d="M13.6004 12.0275L12.2533 11.0787L12.4307 10.9464L13.0866 11.418C13.2654 11.5489 13.4259 11.6671 13.5709 11.7868L13.5751 11.7839C13.5019 11.6122 13.4343 11.4166 13.3696 11.2096L13.119 10.4312L13.2921 10.3017L13.7792 11.8909L13.6004 12.0247V12.0275Z" fill="#F5F5F5"/>
  <path d="M14.6915 10.4479L14.1678 10.752L14.4522 11.2404L15.0377 10.8998L15.1236 11.0462L14.3607 11.4896L13.5738 10.1368L14.3072 9.71033L14.3916 9.85672L13.8356 10.1805L14.0848 10.6084L14.6084 10.3044L14.6929 10.4493L14.6915 10.4479Z" fill="#F5F5F5"/>
  <path d="M14.7211 9.52186C14.8069 9.46415 14.9378 9.39095 15.0631 9.33605C15.2616 9.24878 15.408 9.23048 15.5291 9.2713C15.6276 9.30368 15.7121 9.3825 15.7627 9.49652C15.8444 9.68374 15.781 9.8611 15.6543 9.97794L15.6572 9.98357C15.7824 9.97371 15.8936 10.0483 15.9922 10.182C16.1259 10.3608 16.2216 10.4847 16.2751 10.5269L16.0837 10.6114C16.0414 10.579 15.9556 10.472 15.8401 10.3101C15.7106 10.1314 15.5994 10.0905 15.4291 10.1581L15.2546 10.2341L15.5276 10.8549L15.3432 10.9365L14.7225 9.52186H14.7211ZM15.1926 10.0948L15.3827 10.0117C15.5811 9.92445 15.6586 9.76116 15.5868 9.59787C15.5051 9.41347 15.3362 9.39095 15.1405 9.47682C15.0519 9.51623 14.9927 9.55001 14.9646 9.57254L15.194 10.0962L15.1926 10.0948Z" fill="#F5F5F5"/>
  <path d="M16.1794 8.9165L16.6833 10.3988L16.4904 10.4649L15.9865 8.98266L16.1794 8.9165Z" fill="#F5F5F5"/>
  <path d="M16.9593 8.86584L16.4976 8.98127L16.4553 8.81516L17.5786 8.53223L17.6209 8.69974L17.1577 8.81657L17.497 10.1679L17.2985 10.2172L16.9593 8.86584Z" fill="#F5F5F5"/>
  <path d="M18.1294 9.53302L18.0379 10.0426L17.8309 10.0721L18.1406 8.44632L18.3799 8.41254L19.1288 9.88915L18.9148 9.91872L18.6797 9.45419L18.1308 9.53161L18.1294 9.53302ZM18.6192 9.30357L18.401 8.87987C18.3518 8.78275 18.3166 8.69407 18.28 8.6082H18.2757C18.2645 8.70251 18.256 8.80245 18.2377 8.90099L18.1491 9.37114L18.6192 9.30498V9.30357Z" fill="#F5F5F5"/>
  <path d="M19.3103 9.64131C19.4018 9.69761 19.5327 9.73844 19.6721 9.73562C19.879 9.7314 19.9972 9.62019 19.9944 9.46254C19.9916 9.31896 19.9057 9.2345 19.6932 9.15989C19.4356 9.07262 19.2751 8.9403 19.2709 8.72212C19.2667 8.4786 19.4637 8.29279 19.7692 8.28575C19.9269 8.28293 20.0465 8.31672 20.1141 8.35613L20.062 8.52223C20.0127 8.49408 19.9072 8.45185 19.765 8.45467C19.551 8.45889 19.4722 8.58839 19.475 8.69537C19.4778 8.84177 19.575 8.91074 19.7917 8.99098C20.0592 9.0881 20.1929 9.21198 20.1985 9.44283C20.2042 9.68354 20.031 9.89891 19.6622 9.90735C19.5116 9.91017 19.3455 9.86794 19.261 9.81304L19.3103 9.64272V9.64131Z" fill="#F5F5F5"/>
  <path d="M21.1427 9.41052C21.1103 9.68501 21.268 9.82155 21.4735 9.8483C21.6185 9.86801 21.7114 9.85393 21.7902 9.83141L21.8071 9.98202C21.7311 10.0045 21.6016 10.0271 21.4242 10.0031C21.0807 9.95669 20.9076 9.7019 20.9526 9.36548C20.9977 9.02905 21.2314 8.79397 21.5551 8.83761C21.9211 8.88688 21.9732 9.21627 21.945 9.42178C21.9394 9.4626 21.9338 9.49216 21.9253 9.51469L21.1427 9.40911V9.41052ZM21.7564 9.34436C21.7761 9.21767 21.748 9.01075 21.5199 8.97978C21.313 8.95163 21.2004 9.12618 21.1652 9.26553L21.7564 9.34436Z" fill="#F5F5F5"/>
  <path d="M22.65 8.78846L22.5895 9.05169L22.8738 9.11644L22.8386 9.26846L22.5529 9.20371L22.4177 9.79492C22.3868 9.93005 22.4065 10.0159 22.5191 10.0413C22.5726 10.0539 22.6064 10.0567 22.6373 10.0539L22.6106 10.2074C22.5698 10.2116 22.505 10.2116 22.4276 10.1947C22.3347 10.1736 22.2671 10.1243 22.2319 10.061C22.1911 9.98777 22.1911 9.88501 22.2207 9.75551L22.3572 9.15726L22.1869 9.11784L22.2221 8.96582L22.391 9.00523L22.4375 8.80112L22.6458 8.78705L22.65 8.78846Z" fill="#F5F5F5"/>
  <path d="M23.8733 8.95593L24.0647 9.02913L23.5706 10.334L24.197 10.5705L24.1365 10.7296L23.3201 10.4199L23.8747 8.95593H23.8733Z" fill="#F5F5F5"/>
  <path d="M25.1489 9.47664L24.7224 10.3015C24.5619 10.6112 24.6337 10.8139 24.8181 10.911C25.0222 11.0166 25.2277 10.949 25.3854 10.6436L25.8119 9.81729L25.9935 9.9116L25.574 10.7252C25.353 11.1517 25.0391 11.2094 24.7379 11.0532C24.4535 10.9068 24.3212 10.6337 24.545 10.2016L24.9673 9.38232L25.1489 9.47664Z" fill="#F5F5F5"/>
  <path d="M26.2539 11.9697L26.2863 11.5699C26.2962 11.415 26.3046 11.3165 26.3173 11.2138L26.3145 11.2109C26.2258 11.2602 26.1399 11.301 25.9963 11.3686L25.6458 11.5431L25.4558 11.4094L26.3018 11.0336L26.368 10.1355L26.5608 10.2692L26.52 10.6887C26.5087 10.8055 26.5003 10.8956 26.4862 10.9885L26.4918 10.9928C26.5819 10.9421 26.6551 10.9055 26.7607 10.8576L27.145 10.6774L27.3378 10.8112L26.5115 11.1631L26.451 12.1006L26.2582 11.9668L26.2539 11.9697Z" fill="#F5F5F5"/>
  <path d="M19.9505 40.1465C14.6212 40.1465 9.61139 38.0717 5.84313 34.3034C2.07487 30.5352 0 25.5254 0 20.196C0 14.8667 2.07487 9.85687 5.84313 6.08861C9.61139 2.32035 14.6212 0.245483 19.9505 0.245483C25.2799 0.245483 30.2897 2.32035 34.0579 6.08861C37.8262 9.85687 39.9011 14.8667 39.9011 20.196C39.9011 25.5254 37.8262 30.5352 34.0579 34.3034C30.2897 38.0717 25.2799 40.1465 19.9505 40.1465ZM19.9505 0.859216C9.28904 0.859216 0.613733 9.53452 0.613733 20.196C0.613733 30.8575 9.28904 39.5328 19.9505 39.5328C30.612 39.5328 39.2873 30.8589 39.2873 20.196C39.2873 9.53312 30.6134 0.859216 19.9505 0.859216Z" fill="#F5F5F5"/>
  <path d="M19.9508 33.3097C12.7197 33.3097 6.83856 27.4271 6.83856 20.1961C6.83856 12.965 12.7211 7.08386 19.9508 7.08386C27.1804 7.08386 33.0644 12.9664 33.0644 20.1961C33.0644 27.4257 27.1818 33.3097 19.9508 33.3097ZM19.9508 7.46674C12.9323 7.46674 7.22144 13.1776 7.22144 20.1961C7.22144 27.2146 12.9323 32.9254 19.9508 32.9254C26.9693 32.9254 32.6801 27.2146 32.6801 20.1961C32.6801 13.1776 26.9693 7.46674 19.9508 7.46674Z" fill="#F5F5F5"/>
  <path d="M5.08426 26.4078C5.63325 26.1981 6.14141 25.8096 6.00768 25.4591C5.87395 25.1114 5.26304 25.1466 4.65775 25.3774C4.06795 25.6026 3.61187 25.994 3.73856 26.3248C3.86665 26.6584 4.45786 26.6471 5.08426 26.4078Z" fill="#F5F5F5"/>
  <path d="M25.0485 34.2909C25.0823 34.4654 25.1161 34.6442 25.1442 34.8258L25.2667 35.6915L25.7932 35.4987L25.3301 34.7625C25.2245 34.5964 25.1386 34.4401 25.0542 34.2895H25.0485V34.2909Z" fill="#F5F5F5"/>
  <path d="M31.6525 29.7933L31.6469 29.799C31.7383 29.9482 31.8031 30.0608 31.8721 30.1847L32.3296 31.1447L32.3366 31.1503L32.7153 30.7013L31.9889 30.0875C31.8749 29.9918 31.7623 29.8933 31.6525 29.7933Z" fill="#F5F5F5"/>
  <path d="M14.5916 4.56125C14.8563 4.45145 15.0027 4.19948 14.8971 3.94751C14.7915 3.69273 14.5086 3.62235 14.2439 3.73355C13.9807 3.84476 13.8329 4.09532 13.9385 4.3501C14.044 4.60066 14.3256 4.67104 14.5916 4.55984V4.56125Z" fill="#F5F5F5"/>
  <path d="M30.3553 32.1765C30.0442 31.8021 29.7205 31.5867 29.5248 31.7486C29.3658 31.8809 29.4375 32.1976 29.6951 32.5073C29.9218 32.7804 30.185 32.8874 30.3469 32.7536C30.4722 32.6495 30.489 32.4707 30.4285 32.299C30.4173 32.2638 30.3961 32.2244 30.3567 32.1765H30.3553Z" fill="#F5F5F5"/>
  <path d="M12.7827 33.9092C12.9671 33.5756 12.9052 33.3504 12.6997 33.2321C12.6054 33.1801 12.528 33.1575 12.4885 33.1547L11.9663 34.0978L12.1676 34.209C12.3787 34.3259 12.6195 34.2034 12.7827 33.9078V33.9092Z" fill="#F5F5F5"/>
  <path d="M11.023 8.35062C11.2637 8.14792 11.3341 7.84105 11.1652 7.63835C10.9949 7.43847 10.6796 7.45817 10.4403 7.66088C10.201 7.86358 10.1278 8.17185 10.2967 8.37314C10.4656 8.57444 10.7837 8.55473 11.0216 8.35203L11.023 8.35062Z" fill="#F5F5F5"/>
  <path d="M34.241 13.8111L35.0912 13.6126L34.8533 13.1059L34.1608 13.6324C34.0045 13.752 33.8567 13.8519 33.7145 13.9491L33.7174 13.9547C33.8877 13.9054 34.0636 13.8562 34.241 13.8125V13.8111Z" fill="#F5F5F5"/>
  <path d="M35.0245 16.1025C34.6542 16.1926 34.5332 16.3995 34.5881 16.6486C34.6162 16.7613 34.6514 16.8373 34.6782 16.8711L35.7255 16.6177L35.6677 16.3784C35.6072 16.1292 35.3524 16.0222 35.0245 16.1011V16.1025Z" fill="#F5F5F5"/>
  <path d="M34.8521 18.169C34.9014 18.5631 35.5038 18.6898 36.1471 18.6096C36.7735 18.5322 37.3084 18.2492 37.262 17.8734C37.2155 17.4947 36.637 17.3497 35.9712 17.4314C35.3884 17.5032 34.8028 17.7706 34.8521 18.1676V18.169Z" fill="#F5F5F5"/>
  <path d="M33.3428 6.80509C29.766 3.22827 25.0095 1.25757 19.9505 1.25757C14.8914 1.25757 10.1364 3.22827 6.55955 6.80509C2.98132 10.3819 1.01202 15.1369 1.01202 20.196C1.01202 25.2551 2.98132 30.0115 6.55955 33.5883C10.1364 37.1651 14.8928 39.1358 19.9505 39.1358C25.0081 39.1358 29.766 37.1651 33.3428 33.5883C36.9196 30.0115 38.8903 25.2551 38.8903 20.196C38.8903 15.1369 36.9196 10.3819 33.3428 6.80368V6.80509ZM37.6431 19.1966L36.2031 19.8342L36.5311 20.0046L37.6572 19.9849L37.6614 20.2256L34.7082 20.2762L34.704 20.0355L36.1285 20.0116V20.0032C36.0131 19.9553 35.9075 19.9074 35.8104 19.8624L34.6927 19.3134L34.6871 19.015L35.9525 19.6667L37.6403 18.9108L37.6459 19.1952L37.6431 19.1966ZM37.5727 17.8509C37.6333 18.3393 37.0744 18.756 36.1876 18.8644C35.2572 18.9798 34.6026 18.6898 34.5421 18.1971C34.4802 17.6932 35.0531 17.2906 35.923 17.1836C36.9323 17.0598 37.515 17.3793 37.5727 17.8509ZM37.0829 15.5466C37.0097 15.5958 36.7718 15.6958 36.4255 15.8323C36.0426 15.9815 35.916 16.1138 35.954 16.3292L36.0074 16.5488L37.2518 16.249L37.3081 16.4826L34.4759 17.1653C34.4098 17.057 34.3478 16.8923 34.3084 16.7318C34.2493 16.4826 34.2817 16.3039 34.4168 16.1518C34.5224 16.0294 34.7068 15.9308 34.9278 15.8774C35.3064 15.7859 35.595 15.8759 35.7428 16.042L35.7555 16.0392C35.7991 15.8816 35.9835 15.7478 36.2707 15.6338C36.6564 15.4776 36.9238 15.3678 37.0252 15.3044L37.0843 15.5451L37.0829 15.5466ZM36.8858 14.8695L34.0959 15.8393L33.7665 14.8906L34.0691 14.785L34.3197 15.5071L35.2009 15.2003L34.963 14.5176L35.2614 14.4148L35.4993 15.0975L36.5058 14.7484L36.2411 13.9869L36.5438 13.8813L36.8872 14.8695H36.8858ZM35.8582 12.3582L35.1023 12.934L35.3825 13.5308L36.3059 13.3112L36.4114 13.5364L33.4695 14.2206L33.347 13.9573L35.7498 12.126L35.8596 12.3582H35.8582ZM33.4371 20.196C33.4371 27.6326 27.387 33.6826 19.9505 33.6826C12.5139 33.6826 6.46383 27.6326 6.46383 20.196C6.46383 12.7594 12.5139 6.70937 19.9505 6.70937C27.387 6.70937 33.4371 12.7594 33.4371 20.196ZM32.9852 10.1975C33.2147 10.1975 33.4005 10.3833 33.4005 10.6128C33.4005 10.8422 33.2147 11.028 32.9852 11.028C32.7558 11.028 32.57 10.8422 32.57 10.6128C32.57 10.3833 32.7558 10.1975 32.9852 10.1975ZM28.478 7.22035L28.8524 7.54833L29.6336 6.65307L30.039 7.00638L29.2578 7.90305L29.5647 8.17191L30.3473 7.27524L30.7527 7.62856L29.9715 8.52523L30.3698 8.87292L31.5649 7.50187L29.8814 6.0323L30.1207 5.7578L32.0632 7.4512C32.1604 7.53566 32.1702 7.68205 32.0858 7.77777L30.802 9.25017L30.9765 9.40219L30.7344 9.68091L28.2316 7.49765L28.4751 7.21894L28.478 7.22035ZM24.4113 3.90816C24.4831 3.74628 24.6252 3.63508 24.804 3.57314L24.5154 3.44505L24.6576 3.11988L25.4558 3.47179L25.5571 3.24094L26.0258 3.44645L25.9231 3.67871L26.7226 4.03344L26.5791 4.3572L26.2877 4.2291C26.3637 4.40224 26.3792 4.58383 26.3074 4.7443C26.1399 5.12577 25.5937 5.24261 25.0574 5.00753C24.514 4.76682 24.2395 4.28822 24.4071 3.90816H24.4113ZM24.1706 4.83298L26.275 5.76062L27.0267 4.05596L27.5391 4.28119L27.2449 4.94982L27.6531 5.12859L27.5053 5.46361L27.0985 5.28202L26.7409 6.09001L26.2863 7.1204L25.7753 6.89377L26.1314 6.08438L24.0256 5.15674L24.1678 4.83439L24.1706 4.83298ZM18.5682 2.6258H20.1137V2.99179H19.1157V4.17421H20.3699V2.52726H20.864V3.36059H21.1498V2.52726H21.6467V5.6283H21.1498V3.72376H20.864V5.6283H20.3699V4.54301H18.8806C18.6554 4.54301 18.5682 4.39239 18.5682 4.24318V2.6258ZM16.7002 5.82537L14.348 6.81354C14.1397 6.90222 14.0032 6.79665 13.9455 6.6601L13.6611 5.98021L14.1636 5.77047L14.4297 6.39969L16.5665 5.50302L16.7016 5.82256L16.7002 5.82537ZM14.113 3.42252C14.6887 3.18182 15.2447 3.27472 15.4347 3.72657C15.6234 4.17421 15.2996 4.63591 14.7253 4.87803C14.1482 5.11873 13.5935 5.02583 13.4049 4.5782C13.2149 4.12635 13.5386 3.66464 14.113 3.42112V3.42252ZM16.2751 4.31919L16.4116 4.64436L15.1265 5.18349L15.332 5.67335L14.8252 5.88731L14.6183 5.39745L13.3697 5.9225L13.2332 5.59874L16.2751 4.3206V4.31919ZM10.1716 5.40589L10.5756 5.88449L10.9486 5.56918L11.1837 5.84649L10.8106 6.1618L11.216 6.6404L10.7937 6.99653L9.74927 5.76344L10.1716 5.40589ZM9.36357 6.22092C9.4607 6.13787 9.60709 6.15054 9.69015 6.24766L10.3095 6.98105L10.4517 6.8614L10.6755 7.12744C11.0443 6.98245 11.4089 7.01201 11.6172 7.26117C11.9114 7.60886 11.7355 8.20288 11.247 8.61532C10.76 9.02776 10.1519 9.09533 9.85766 8.74764C9.65214 8.50412 9.67748 8.14658 9.87314 7.81156L8.88638 8.64488L8.65975 8.37602L9.0736 8.02693L8.71887 7.61026L9.08908 7.29777L9.4424 7.71584L9.91115 7.31888L9.37765 6.68966L8.24309 7.64968L8.0066 7.37096L9.36498 6.22373L9.36357 6.22092ZM7.21832 10.1975C7.44777 10.1975 7.63358 10.3833 7.63358 10.6128C7.63358 10.8422 7.44777 11.028 7.21832 11.028C6.98888 11.028 6.80307 10.8422 6.80307 10.6128C6.80307 10.3833 6.98888 10.1975 7.21832 10.1975ZM3.12208 14.9455L4.65219 15.2172C5.02662 15.2833 5.31378 15.3396 5.60376 15.41V15.4044C5.3363 15.2833 5.07308 15.1566 4.73102 14.9765L3.3473 14.26L3.4205 14.0362L6.35403 14.5359L5.501 13.4675L3.67106 13.376L3.78227 13.1339L5.34053 13.2169L5.1153 12.9312L4.09195 12.461L4.18626 12.2569L6.87064 13.4886L6.77632 13.6927L5.48129 13.0987L5.47848 13.1057C5.56293 13.1958 5.63895 13.2817 5.70792 13.3619L6.49339 14.3092L6.37655 14.5626L6.36248 14.5443L6.29069 14.7625L4.80703 14.4922C4.44104 14.4261 4.07646 14.3557 3.79634 14.2966V14.3022C4.0652 14.4204 4.38051 14.5823 4.72398 14.7583L6.06687 15.4452L5.99367 15.669L4.50298 15.403C4.15388 15.3396 3.8076 15.2749 3.50355 15.2031V15.2087C3.79916 15.3439 4.09617 15.4931 4.42837 15.6606L5.77267 16.3447L5.70088 16.5629L3.04888 15.1721L3.12208 14.9483V14.9455ZM2.62096 16.9683L3.5683 16.9809L3.69781 16.3771L2.82788 16.0054L2.87715 15.7788L5.64176 16.9767L5.58546 17.2428L2.5731 17.2048L2.62378 16.9697L2.62096 16.9683ZM2.38588 18.7222L3.9357 18.3337C4.27494 18.2478 4.62404 18.169 4.95061 18.1169L4.94639 18.1085C4.57477 18.0817 4.22145 18.0479 3.733 17.9944L2.47879 17.8579L2.50131 17.6468L5.43765 17.9663L5.41091 18.2098L3.86532 18.604C3.50778 18.6955 3.18683 18.7616 2.87715 18.8109L2.88137 18.8165C3.27551 18.839 3.63306 18.8714 4.09054 18.9221L5.31941 19.0558L5.29689 19.267L2.36055 18.9474L2.38588 18.7208V18.7222ZM2.68853 19.6836C2.93346 19.533 3.3276 19.4401 3.7879 19.4401C4.66908 19.4429 5.31237 19.799 5.31237 20.3832C5.31237 20.5845 5.23777 20.7422 5.17583 20.8182L4.86474 20.7633C4.93513 20.6704 4.99143 20.5535 4.99143 20.3776C4.99143 19.9539 4.5438 19.6766 3.80338 19.6766C3.06296 19.6766 2.61111 19.9426 2.61111 20.348C2.61111 20.4958 2.6463 20.5958 2.68993 20.6479H3.57112V20.2931H3.87799V20.8674H2.45767C2.39574 20.7675 2.29579 20.5676 2.29579 20.3325C2.29579 20.0693 2.40981 19.8511 2.68571 19.6808L2.68853 19.6836ZM2.50835 22.6833L4.00749 22.2723C4.37488 22.1709 4.65782 22.0991 4.9492 22.0386V22.033C4.6536 22.0386 4.36081 22.0372 3.97511 22.0203L2.41826 21.9668L2.3887 21.7331L5.26451 20.9238L5.29408 21.1602L3.83716 21.553C3.47822 21.6501 3.11927 21.743 2.84055 21.8092V21.8148C3.13616 21.8063 3.49088 21.8148 3.87658 21.8275L5.38416 21.8711L5.41372 22.1048L3.95259 22.5031C3.61053 22.596 3.26848 22.6861 2.96302 22.7509V22.7565C3.28959 22.7509 3.62179 22.7593 3.99482 22.7664L5.50241 22.8072L5.53056 23.0352L2.53791 22.9156L2.50835 22.6819V22.6833ZM2.83633 24.5259C2.7209 24.0811 3.22484 23.6152 4.09054 23.3899C4.99847 23.1535 5.67836 23.3322 5.7966 23.7827C5.91625 24.243 5.39543 24.6962 4.54662 24.9172C3.56267 25.1734 2.94894 24.9567 2.83774 24.5259H2.83633ZM3.44443 26.4248C3.27974 25.9955 3.72878 25.4761 4.56351 25.1565C5.43906 24.8215 6.13585 24.9229 6.30195 25.3578C6.47227 25.8026 6.00494 26.3108 5.18569 26.6247C4.23553 26.9879 3.60209 26.8401 3.44302 26.4248H3.44443ZM4.4523 28.5518L5.54886 27.3891C5.78957 27.1343 6.04013 26.8795 6.28646 26.6585L6.27943 26.6529C5.95145 26.8302 5.63613 26.9921 5.19695 27.2117L4.06661 27.7733L3.9723 27.5833L6.61726 26.2686L6.72706 26.4882L5.63754 27.6523C5.38557 27.9226 5.1519 28.1506 4.91683 28.3603L4.92246 28.3631C5.26592 28.1689 5.58546 28.0042 5.9979 27.8001L7.1043 27.2497L7.19862 27.4397L4.55365 28.7545L4.4523 28.5504V28.5518ZM5.89373 30.8434C5.67695 30.5605 5.78816 30.1354 6.51591 29.5794L7.89822 28.5208L8.03616 28.701L6.64823 29.7652C6.12318 30.1677 6.00494 30.476 6.14711 30.6604C6.30476 30.8659 6.63415 30.8209 7.15357 30.4239L8.54151 29.3612L8.67946 29.5413L7.31123 30.5886C6.59051 31.1404 6.12318 31.1432 5.89373 30.8434ZM7.44918 32.5678L8.16145 31.1376C8.31769 30.8237 8.4838 30.5084 8.65694 30.2241L8.64849 30.2212C8.38667 30.4859 8.13048 30.7336 7.77294 31.0686L6.85374 31.9343L6.70876 31.7795L8.85964 29.7553L9.02855 29.9341L8.32332 31.3642C8.16004 31.6964 8.00238 31.9822 7.83909 32.2497H7.84613C8.11922 31.9653 8.37681 31.7148 8.71183 31.3994L9.61132 30.552L9.7563 30.7069L7.60543 32.7311L7.44918 32.565V32.5678ZM7.99394 33.09L9.9956 30.918L10.1603 31.07L8.15863 33.242L7.99394 33.09ZM8.83711 33.8304L10.2518 31.1756L10.4404 31.3291L9.7366 32.6311C9.54375 32.9887 9.3692 33.3082 9.18762 33.6066L9.19184 33.6094C9.44522 33.3744 9.73519 33.1308 10.0378 32.8789L11.1851 31.9287L11.3723 32.0793L9.02996 33.9853L8.83711 33.829V33.8304ZM10.6192 35.1255L9.80698 34.5779L11.4567 32.1272L12.238 32.6522L12.0592 32.9169L11.4652 32.5171L10.9444 33.2913L11.506 33.67L11.33 33.9318L10.7684 33.5531L10.173 34.4371L10.7994 34.8594L10.6206 35.1255H10.6192ZM12.0029 35.9109L11.7988 35.7983C11.8143 35.7125 11.903 35.4703 12.0381 35.1241C12.1901 34.7426 12.1831 34.5624 12.0099 34.4526L11.8241 34.3499L11.2048 35.4703L11.0077 35.362L12.4182 32.8113C12.5364 32.8324 12.6898 32.8915 12.8264 32.9661C13.0375 33.083 13.1361 33.2223 13.1515 33.4208C13.1642 33.5785 13.1107 33.7784 12.9995 33.9782C12.8109 34.3203 12.5589 34.4765 12.3478 34.4794L12.3407 34.4906C12.421 34.6243 12.3886 34.8482 12.276 35.1367C12.1268 35.5252 12.024 35.7941 12.0015 35.9109H12.0029ZM12.6941 36.2769C12.5406 36.2094 12.4055 36.0587 12.3633 35.9236L12.5448 35.6547C12.5941 35.7913 12.6941 35.932 12.8348 35.994C13.0446 36.0869 13.2515 35.9532 13.3725 35.6815C13.4837 35.4295 13.4626 35.2465 13.3106 35.0114C13.1192 34.7398 13.06 34.4399 13.229 34.0599C13.4148 33.639 13.7596 33.418 14.0693 33.5545C14.2326 33.6263 14.3227 33.7432 14.3635 33.8431L14.1805 34.1021C14.1496 34.0317 14.0792 33.9036 13.9342 33.8403C13.716 33.7446 13.5358 33.9276 13.4542 34.112C13.343 34.3639 13.3838 34.5314 13.5401 34.7736C13.7315 35.0692 13.7709 35.3507 13.5949 35.7476C13.4105 36.1643 13.0685 36.4444 12.6926 36.2783L12.6941 36.2769ZM13.6653 36.6316L14.6929 33.8628L14.9041 33.9416L13.8765 36.7105L13.6653 36.6316ZM15.6515 34.5272L14.8886 37.0441L14.6704 36.9779L15.4333 34.4611L14.9266 34.3076L15.0209 33.9965L16.2554 34.371L16.1611 34.6807L15.6515 34.5258V34.5272ZM16.6791 36.1939L16.4215 37.4241L16.1991 37.3777L16.4567 36.1502L16.2667 34.3738L16.5172 34.4259L16.5904 35.2733C16.6101 35.5055 16.6242 35.6927 16.6355 35.9053H16.6411C16.7284 35.7279 16.8269 35.552 16.9381 35.3465L17.3505 34.6004L17.6011 34.6525L16.6819 36.1925L16.6791 36.1939ZM19.9997 36.5683C19.7703 36.5683 19.5845 36.3825 19.5845 36.153C19.5845 35.9236 19.7703 35.7378 19.9997 35.7378C20.2292 35.7378 20.415 35.9236 20.415 36.153C20.415 36.3825 20.2292 36.5683 19.9997 36.5683ZM24.6013 37.1975L24.2536 35.9475C24.1438 35.5506 24.0129 35.072 23.9299 34.7144H23.9214C23.9397 35.0678 23.951 35.4436 23.9552 35.8617L23.9693 37.3312L23.7919 37.3735L23.1711 36.0756C22.9882 35.6913 22.8277 35.338 22.694 35.0086H22.6883C22.7686 35.369 22.8699 35.8546 22.9572 36.2882L23.2035 37.5311L22.9811 37.5846L22.4195 34.6821L22.7179 34.6103L23.3598 35.925C23.5202 36.2614 23.6568 36.5613 23.7736 36.8484H23.7821C23.7581 36.5458 23.7469 36.215 23.7412 35.8335L23.73 34.3667L24.0284 34.295L24.8293 37.1398L24.6013 37.1947V37.1975ZM26.4495 36.5641L25.9442 35.7603L25.3248 35.9869L25.4628 36.9258L25.2291 37.0117L24.8082 34.0205L25.0813 33.9205L26.6931 36.4754L26.4524 36.5641H26.4495ZM27.2604 36.2094L26.7325 35.072L25.4825 33.7784L25.7302 33.6629L26.3116 34.2921C26.4707 34.4639 26.5974 34.6046 26.7367 34.7665L26.7423 34.7637C26.7086 34.5666 26.6846 34.3653 26.6565 34.1317L26.5551 33.28L26.8029 33.1646L26.9521 34.965L27.4828 36.1066L27.2618 36.2079L27.2604 36.2094ZM29.8729 34.7398L28.4653 32.6874L28.4611 32.6902L28.3555 33.0872L28.15 32.8718L28.2851 32.3749L28.4554 32.2581L30.0658 34.6075L29.8729 34.7398ZM31.0314 33.9093C30.9779 33.9825 30.9202 34.036 30.8738 34.0683L30.6725 33.8248C30.7189 33.7981 30.7598 33.753 30.8146 33.6897C30.9033 33.5757 30.947 33.4208 30.9273 33.2378C30.909 33.0309 30.8161 32.7831 30.626 32.503L30.6204 32.5087C30.6668 32.7212 30.6288 32.9 30.4909 33.014C30.2417 33.2195 29.8363 33.0548 29.5267 32.6804C29.1832 32.2651 29.0706 31.7443 29.3521 31.5106C29.635 31.2756 30.1108 31.4966 30.5754 32.0568C30.9751 32.5396 31.1525 32.9619 31.1905 33.2829C31.2215 33.5362 31.1581 33.7586 31.0314 33.9093ZM32.3053 32.8099C32.1618 32.9521 31.9661 33.0056 31.838 33.0027L31.6747 32.7437C31.7733 32.7437 31.9633 32.71 32.0829 32.5917C32.3039 32.3721 32.1505 32.0793 31.9816 31.9132C31.6987 31.6317 31.4171 31.6711 31.251 31.8358L31.1553 31.9301L30.9512 31.7246L31.0469 31.6289C31.1722 31.505 31.2285 31.2446 30.9906 31.0053C30.8301 30.8434 30.6232 30.7646 30.4641 30.9222C30.3628 31.0236 30.3346 31.1925 30.3417 31.3093L30.0996 31.1545C30.0883 31.0109 30.1404 30.804 30.2783 30.6675C30.5289 30.4183 30.8766 30.5422 31.1215 30.7871C31.3284 30.9954 31.4256 31.2502 31.3594 31.4966L31.365 31.5022C31.5706 31.3966 31.8845 31.4571 32.1646 31.7401C32.4855 32.0638 32.608 32.5044 32.3025 32.8071L32.3053 32.8099ZM33.5398 31.3952L32.9472 30.8955L32.4095 31.5332L32.2153 31.3699L31.3411 29.585L31.51 29.3851L32.8642 30.5267L33.0261 30.3339L33.2569 30.5295L33.095 30.721L33.6877 31.2207L33.5398 31.3952ZM35.0812 29.326C34.9869 29.478 34.8138 29.6019 34.6716 29.6314L34.4309 29.4118C34.5773 29.3752 34.7335 29.288 34.8208 29.1472C34.9489 28.9375 34.8504 28.708 34.5956 28.5518C34.3605 28.4068 34.1747 28.4082 33.9115 28.5419C33.606 28.7108 33.2949 28.7404 32.9416 28.5208C32.5489 28.2801 32.3842 27.8958 32.5742 27.5875C32.6741 27.4257 32.8065 27.3454 32.9134 27.313L33.1429 27.5326C33.0655 27.5566 32.9261 27.6171 32.8374 27.7593C32.7037 27.976 32.8585 28.1844 33.0303 28.29C33.2654 28.4349 33.4399 28.4096 33.7088 28.2731C34.0382 28.107 34.3267 28.0971 34.6969 28.3237C35.0854 28.563 35.3093 28.9515 35.0784 29.3246L35.0812 29.326ZM35.6119 28.3406L32.9923 26.9766L33.4568 26.0856L33.7411 26.2334L33.3878 26.9119L34.2155 27.3426L34.5491 26.7007L34.8292 26.8471L34.4956 27.489L35.4402 27.9817L35.8118 27.2666L36.0961 27.4144L35.6133 28.342L35.6119 28.3406ZM36.6409 26.2334C36.4762 26.6965 35.7907 26.819 34.9475 26.5191C34.0635 26.2038 33.6088 25.6534 33.7763 25.1847C33.9467 24.7061 34.6392 24.6033 35.4641 24.8975C36.4227 25.2382 36.7985 25.7872 36.6395 26.2334H36.6409ZM37.2166 24.2472C37.1322 24.6188 36.7296 24.8215 35.8371 24.6174L34.1409 24.2303L34.1958 23.9938L35.9005 24.3837C36.5452 24.5315 36.8605 24.4133 36.9154 24.1712C36.9773 23.9023 36.7338 23.6658 36.0975 23.5194L34.3929 23.1295L34.4464 22.893L36.1257 23.2773C37.0097 23.48 37.3053 23.8559 37.2166 24.2486V24.2472ZM37.4207 22.9747L34.4942 22.5735L34.5266 22.3356L37.1364 22.6932L37.2448 21.9049L37.5615 21.9485L37.4207 22.9747Z" fill="#F5F5F5"/>
  <path d="M4.46856 24.6906C5.03725 24.5428 5.58482 24.2134 5.49051 23.8502C5.3962 23.4898 4.78528 23.4561 4.15747 23.6207C3.54655 23.7798 3.04966 24.1176 3.13974 24.4597C3.22983 24.8046 3.81964 24.8595 4.46856 24.6906Z" fill="#F5F5F5"/>
  <path d="M25.1922 4.7078C25.4287 4.81056 25.699 4.73032 25.7933 4.51495C25.8848 4.3024 25.7666 4.04339 25.5301 3.93782C25.288 3.83225 25.0135 3.91952 24.9192 4.13067C24.8249 4.34463 24.9487 4.60082 25.1922 4.7078Z" fill="#F5F5F5"/>
  <path d="M35.3967 25.1423C34.8434 24.9453 34.2002 24.9213 34.0664 25.2986C33.9327 25.673 34.4155 26.0559 35.0264 26.2741C35.6205 26.4852 36.2258 26.4726 36.3524 26.1164C36.4805 25.7575 36.0287 25.3676 35.3967 25.1423Z" fill="#F5F5F5"/>
  <path d="M3.97918 16.4843L3.86938 16.998L4.73649 17.0093C4.93356 17.0121 5.10952 17.0234 5.28266 17.0332V17.0276C5.11796 16.9657 4.94764 16.8995 4.77872 16.8291L3.97918 16.4828V16.4843Z" fill="#F5F5F5"/>
  <path d="M29.0271 14.3741C28.9821 14.2164 28.8483 14.1038 28.685 14.0855C28.6597 14.0841 28.6344 14.0841 28.6076 14.0897L26.9705 14.4149V13.521C26.9705 13.2592 26.7509 13.0453 26.4835 13.0453H21.3174C21.2344 13.0453 21.1682 12.9805 21.1668 12.9003V12.8974L21.164 11.608C21.164 11.3448 20.9458 11.1323 20.677 11.1323H19.244C18.9751 11.1323 18.7569 11.3448 18.7569 11.608L18.7541 12.8974V12.9003C18.7541 12.9805 18.6866 13.0453 18.6035 13.0453H13.4389C13.17 13.0453 12.9518 13.2592 12.9518 13.521V14.4149L11.3133 14.0897C11.288 14.0841 11.2626 14.0841 11.2373 14.0855C11.074 14.1038 10.9403 14.2164 10.8952 14.3741C10.8868 14.4036 10.884 14.436 10.8868 14.467L12.3353 27.3765L12.3845 27.8438C12.4549 28.2323 12.6984 28.58 13.0616 28.7996L19.4256 32.2258C19.5973 32.2948 19.7775 32.33 19.9605 32.33C20.1421 32.33 20.3222 32.2948 20.4954 32.2258L26.8593 28.7996C27.2225 28.58 27.466 28.2323 27.5364 27.8438L27.5857 27.3765L29.0341 14.467C29.037 14.436 29.0341 14.4036 29.0257 14.3741H29.0271ZM13.4473 13.5281H18.7541C19.03 13.5281 19.2524 13.3099 19.2524 13.041V11.9276C19.2524 11.7587 19.389 11.6207 19.5607 11.6137H20.3588C20.532 11.6207 20.6685 11.7587 20.6685 11.9276V13.041C20.6685 13.3099 20.8923 13.5281 21.1668 13.5281H26.4736V14.5134L25.6966 14.6683V14.3206C25.6966 14.0503 25.4714 13.8293 25.1941 13.8293H23.1896C22.9123 13.8293 22.6871 14.0503 22.6871 14.3206V15.2651L21.9523 15.4101V14.3206C21.9523 14.0644 21.7383 13.8546 21.4751 13.8546H18.4444C18.1812 13.8546 17.9672 14.063 17.9672 14.3206V15.4101L17.231 15.2651V14.3206C17.231 14.0503 17.0058 13.8293 16.7285 13.8293H14.7254C14.4481 13.8293 14.2229 14.0503 14.2229 14.3206V14.6683L13.4459 14.5134V13.5281H13.4473ZM25.1702 14.7724L23.2149 15.1595V14.3431H25.1702V14.771V14.7724ZM21.4779 15.5044L20.3546 15.7268C20.3025 15.7409 20.0477 15.7747 19.9619 15.7747C19.876 15.7747 19.6212 15.7409 19.5691 15.7268L18.4444 15.5044V14.3192C18.4444 14.3192 18.4444 14.3192 18.4458 14.3192H21.4779V15.5044ZM16.706 15.1595L14.7522 14.7724V14.3445H16.706V15.1609V15.1595ZM27.0339 27.7579C26.9959 27.9902 26.8241 28.2408 26.5862 28.3759L20.2786 31.7711C20.1913 31.8049 20.0801 31.8232 19.9619 31.8232C19.8436 31.8232 19.7324 31.8049 19.6452 31.7711L13.3375 28.3759C13.0996 28.2408 12.9293 27.9902 12.8899 27.7579L11.4456 14.8611C11.4442 14.771 11.4794 14.6317 11.7426 14.6866L19.4537 16.2153C19.5072 16.2307 19.5635 16.2406 19.6198 16.249C19.7324 16.2673 19.8464 16.2758 19.9605 16.2758C20.0745 16.2758 20.1899 16.2673 20.3011 16.249C20.3574 16.2406 20.4137 16.2307 20.4672 16.2153L28.1797 14.6866C28.4415 14.6317 28.4781 14.771 28.4767 14.8611L27.0339 27.7579Z" fill="#F5F5F5"/>
  <path d="M23.4302 18.78C24.3241 18.78 25.0082 18.3478 25.0082 17.6454C25.0082 16.943 24.3241 16.5109 23.4302 16.5109C22.5364 16.5109 21.8508 16.9416 21.8508 17.6454C21.8508 18.3492 22.5335 18.78 23.4302 18.78ZM23.4302 16.9965C23.8412 16.9965 24.1749 17.2457 24.1749 17.6426C24.1749 18.0396 23.8412 18.2887 23.4302 18.2887C23.0192 18.2887 22.6842 18.0396 22.6842 17.6426C22.6842 17.2457 23.0178 16.9965 23.4302 16.9965Z" fill="#F5F5F5"/>
  <path d="M21.0583 18.901V19.4063H23.0023V20.1679H23.792V19.4063H25.8021V18.901H21.0583Z" fill="#F5F5F5"/>
  <path d="M22.1931 19.6499H21.4105V20.7042C21.4105 20.9154 21.5343 21.1322 21.8581 21.1322H25.5278V20.6324H22.1931V19.6499Z" fill="#F5F5F5"/>
  <path d="M17.5123 19.0925V18.5998H17.2462V17.2161C17.2462 17.0345 17.0956 16.8839 16.914 16.8839H14.3521V17.409H16.4973V18.5984H15.6162V17.8087H14.9095V18.5984H14.1353V19.1024H15.9807C15.4599 19.2882 15.1052 19.6598 15.1052 20.113C15.1052 20.7662 15.847 21.2546 16.7634 21.2546C17.6798 21.2546 18.4216 20.7676 18.4216 20.113C18.4216 19.6513 18.0514 19.2741 17.5123 19.0911V19.0925ZM16.762 20.7592C16.3115 20.7592 15.947 20.4889 15.947 20.1116C15.947 19.7344 16.3115 19.4641 16.762 19.4641C17.2124 19.4641 17.5756 19.7344 17.5756 20.1116C17.5756 20.4889 17.211 20.7592 16.762 20.7592Z" fill="#F5F5F5"/>
  <path d="M19.2526 17.637H18.553V16.7403H17.7605V19.0643H18.553V18.1648H19.2526V17.637Z" fill="#F5F5F5"/>
  <path d="M27.1726 21.5191L26.1028 21.7542C26.0324 21.7739 25.9128 21.7908 25.8396 21.7908H23.4353C22.1544 21.7908 20.7467 22.565 20.7467 25.1466V28.2744C20.7467 28.5038 20.5201 28.5038 20.4455 28.5038C20.3709 28.5038 20.1457 28.5137 20.1457 28.2744V25.1466C20.1457 23.6221 19.0322 21.7908 17.1826 21.7908H13.3383C13.2637 21.7908 13.2046 21.8513 13.2046 21.9245V24.8904C13.2046 24.965 13.2468 25.0678 13.3003 25.1199L14.0872 25.9067C14.1393 25.9588 14.1829 26.0616 14.1829 26.1362L14.1871 27.2806C14.1871 28.1801 15.416 28.1801 15.53 28.1801C15.644 28.1801 16.8997 28.1885 16.8997 27.2806C16.8997 27.2806 16.8842 25.7998 16.8842 25.4211C16.8842 25.0424 16.6055 24.768 16.4506 24.768C16.2958 24.768 16.2901 24.9228 16.2901 25.041V27.2806C16.2901 27.8803 15.63 27.8676 15.53 27.8676C15.4301 27.8676 14.7699 27.8718 14.7699 27.2806V26.1629C14.7699 26.0897 14.7263 25.9856 14.6742 25.9335L14.059 25.3183C14.0069 25.2663 13.9633 25.1621 13.9633 25.0889V22.3679C13.9633 22.2933 14.0238 22.2328 14.097 22.2328H17.184C18.1919 22.2328 18.8746 23.9191 18.8746 24.5948V28.7164C18.8746 28.791 18.9351 28.8515 19.0083 28.8515H21.2099C21.9278 28.8515 21.9334 28.1421 21.9334 28.1421V24.5962C21.9334 23.5701 22.7639 22.2342 23.4353 22.2342H25.6805C25.7551 22.2342 25.796 22.2919 25.7734 22.3623C25.7734 22.3623 25.2794 24.1782 25.2146 24.3133C25.1499 24.4498 25.0035 24.4949 24.9303 24.4949H24.0998C24.0251 24.4949 23.8534 24.5033 23.966 24.6258C24.0772 24.7482 24.3588 24.7567 24.432 24.7567H24.9303C25.0049 24.7567 25.0598 24.8144 25.033 24.8834C25.033 24.8834 24.8514 25.6576 24.7093 25.9588C24.5671 26.2587 24.4362 26.2587 24.3616 26.2587H23.5789C23.4607 26.2587 23.3255 26.3135 23.4438 26.4402C23.562 26.5669 23.7605 26.543 23.8872 26.543H24.4249C24.4981 26.5444 24.5305 26.6204 24.4967 26.6866C24.4967 26.6866 24.3771 27.0652 24.2827 27.3355C24.1884 27.6044 23.7478 27.6438 23.6746 27.6438H23.0736C22.999 27.6438 22.8835 27.6677 22.9384 27.7747C22.9933 27.8817 23.2833 27.9056 23.3579 27.9056H24.0857C24.4263 27.9056 24.7402 27.6353 24.9598 27.2257C25.1794 26.8161 25.1667 26.6978 25.1907 26.5965C25.2146 26.4951 25.1963 26.4895 25.1555 26.5022C25.0133 26.5444 24.7979 26.5374 24.7979 26.5374C24.7979 26.5374 25.3117 26.3403 25.5806 25.6998C25.7509 25.293 25.8579 24.9214 25.879 24.8454C25.9001 24.768 25.8776 24.7581 25.8495 24.7665C25.6918 24.8214 25.5412 24.806 25.5412 24.806C25.5412 24.806 25.9916 24.6159 26.4111 23.6278C26.8306 22.6396 27.2515 21.6078 27.2515 21.6078C27.281 21.5402 27.2458 21.5008 27.1755 21.5205L27.1726 21.5191Z" fill="#F5F5F5"/>
  <path d="M15.3624 23.5857C15.2878 23.5857 15.2048 23.642 15.1766 23.7096L14.8993 24.3782C14.8712 24.4458 14.9078 24.5021 14.9824 24.5021H15.3779C15.4525 24.5021 15.5356 24.4458 15.5637 24.3782L15.8396 23.7096C15.8678 23.6406 15.8312 23.5857 15.7566 23.5857H15.361H15.3624Z" fill="#F5F5F5"/>
</svg>