<svg xmlns="http://www.w3.org/2000/svg" width="255" height="75" viewBox="0 0 255 75" fill="none">
  <path fill-rule="evenodd" clip-rule="evenodd" d="M167.754 33.4616C167.685 33.4458 167.606 33.4616 167.532 33.4616C166.634 32.8806 165.702 32.9228 164.756 33.3217C164.524 33.4194 164.291 33.5303 164.046 33.3745C163.47 33.01 162.849 33.1077 162.231 33.2054C161.618 33.3032 161.016 33.4616 160.39 33.4801C159.899 33.4933 159.669 33.3586 159.698 32.7987C159.748 31.7052 159.828 30.6144 159.983 29.5289C160.258 27.6113 160.675 25.707 160.501 23.7499C160.543 23.6363 160.607 23.5227 160.623 23.4065C160.94 21.003 160.818 20.9502 163.636 20.5778C163.663 20.5751 163.686 20.5778 163.71 20.5699C164.658 20.3929 165.649 20.3216 166.425 19.656C166.853 19.2889 167.017 18.8108 166.822 18.2456C166.639 17.7173 166.251 17.6064 165.752 17.7094H165.747C164.785 17.4981 163.821 17.4796 162.857 17.7094C161.819 17.8705 160.778 17.9339 159.73 17.8309C158.386 17.6936 157.112 18.0924 155.829 18.3697C155.47 18.4463 155.139 18.6603 154.867 18.9244C154.558 19.2255 154.276 19.5504 154.421 20.0337C154.561 20.4933 154.828 20.7812 155.34 20.8921C156.143 21.0664 157.178 22.3448 157.237 23.0896C157.424 25.575 157.2 28.0049 156.28 30.345C156.159 30.654 156.082 31.0159 156.204 31.2985C156.685 32.4184 156.307 33.3666 155.713 34.2989C155.62 34.4389 155.596 34.6211 155.538 34.7849C155.245 35.1098 155.116 35.5297 155.05 35.9312C154.947 36.5756 155.155 37.1567 155.721 37.545C156.283 37.9332 156.83 38.3004 157.551 37.8091C158.119 37.4208 158.79 37.3442 159.479 37.4235C160.15 37.5001 160.839 37.4895 161.463 37.2439C162.287 36.9164 163.127 36.8054 163.998 36.7235C165.258 36.6073 166.536 36.7183 167.775 36.3723C168.686 36.1187 169.468 35.4478 169.465 34.8958C169.46 34.3016 168.739 33.6888 167.754 33.4511V33.4616ZM160.266 36.8952C160.282 36.8952 160.292 36.8952 160.308 36.8926C160.306 36.8979 160.3 36.9032 160.298 36.9084C160.287 36.9032 160.277 36.9005 160.269 36.8952H160.266Z" fill="#F5F5F5"/>
  <path fill-rule="evenodd" clip-rule="evenodd" d="M183.319 34.9724C183.068 33.694 183.099 32.4051 183.089 31.1135C183.076 29.9303 183.401 28.7523 183.131 27.569C183.02 27.1861 182.909 26.8031 182.798 26.4201C182.793 26.2722 182.798 26.1216 182.785 25.9737C182.598 23.6706 182.318 21.3675 182.648 19.0511C182.743 18.3855 182.756 17.7067 182.653 17.0385C182.508 16.0956 181.71 15.1183 181.063 15.047C180.39 14.9731 179.402 15.7496 179.069 16.6133C179.061 16.6344 179.066 16.6634 179.064 16.6872C178.844 16.9196 178.823 17.226 178.76 17.5139C178.485 18.7474 178.66 19.9993 178.628 21.2407C178.62 21.5946 178.557 21.9908 178.2 22.0066C177.284 22.0542 176.422 22.4979 175.487 22.3632C175.268 21.3278 175.308 20.2872 175.406 19.2439C175.554 17.6592 175.324 16.2276 173.921 15.1844C173.385 14.7855 172.939 15.0391 172.458 15.1764C172.006 15.3059 172.014 15.6756 171.975 16.0665C171.874 17.0094 172.344 17.8863 172.318 18.7791C172.247 21.2433 172.648 23.6838 172.508 26.1639C172.41 27.915 172.616 29.6873 172.294 31.4411C172.109 31.7791 172.08 32.1331 172.101 32.516C172.223 34.7558 172.226 36.9955 172.035 39.2353C171.943 40.3208 171.777 41.4222 172.035 42.5078C172.207 43.2341 173.023 43.7597 173.871 43.7359C174.838 43.7095 175.326 43.3292 175.461 42.41C175.638 41.1845 175.749 39.9511 175.749 38.7123C175.762 38.509 175.765 38.3056 175.746 38.0969C176.029 36.5597 176.507 35.0569 176.518 33.4722C176.528 32.1489 176.069 30.8785 176.148 29.542C176.206 28.5278 176.246 27.5004 176.119 26.4809C176.098 26.3118 176.079 26.1322 176.209 25.9869C176.679 25.4534 178.535 25.67 178.72 26.3303C178.905 26.9906 179.196 27.6245 179.241 28.3297C179.338 29.8695 179.455 31.4094 179.61 32.9413C179.827 35.0542 179.964 37.1329 179.183 39.1957C178.794 40.2205 179.169 41.2479 179.774 42.1538C180.223 42.9805 181.066 43.2209 181.863 43.3318C183.012 43.4929 183.335 43.11 183.261 41.9637C183.181 40.7197 183.261 39.4809 183.348 38.2422C183.427 37.154 183.53 36.0526 183.316 34.9671L183.319 34.9724ZM182.402 18.2931C182.402 18.2376 182.397 18.1821 182.394 18.1267C182.4 18.1821 182.402 18.2376 182.402 18.2931Z" fill="#F5F5F5"/>
  <path fill-rule="evenodd" clip-rule="evenodd" d="M130.552 25.1442C132.955 25.8943 137.081 26.3988 139.461 23.3165C140.562 21.8928 141.038 20.3609 140.393 18.6019C139.131 16.3938 137.1 15.4535 134.685 15.2C133.254 15.0494 131.854 15.1947 130.639 16.0927C129.617 16.547 128.883 17.276 128.582 18.3668C128.328 19.2807 128.286 20.2315 128.214 21.1744C128.125 22.3973 129.398 24.785 130.549 25.1442H130.552ZM140.454 19.7138C140.454 19.7138 140.443 19.735 140.441 19.7482C140.435 19.7006 140.43 19.6531 140.422 19.6082C140.454 19.632 140.472 19.6636 140.454 19.7165V19.7138ZM131.701 20.3028C131.73 19.8274 132.068 19.624 132.448 19.4656C133.478 19.0377 134.585 18.8818 135.671 18.9267C136.524 18.9584 137.372 19.3124 137.673 20.3002C137.636 20.9341 137.459 21.4914 136.994 21.9694C136.566 22.4105 136.125 22.6852 135.491 22.5584C135.325 22.5241 135.137 22.503 134.973 22.5373C133.547 22.8595 132.562 22.1675 131.696 21.1586C131.437 20.8548 131.513 20.5881 131.701 20.3028Z" fill="#F5F5F5"/>
  <path fill-rule="evenodd" clip-rule="evenodd" d="M147.575 27.3386C147.31 27.2171 147.065 26.9293 146.756 27.0851C145.58 27.6794 144.358 27.4047 143.166 27.262C142.374 27.1643 141.555 27.3835 140.805 27.1089C140.253 26.9055 139.743 26.8711 139.212 27.0402C138.539 27.2568 137.85 27.2858 137.152 27.2964C135.56 27.3201 133.98 27.0983 132.382 27.1564C130.861 27.2119 129.334 27.1036 127.81 27.0428C126.878 27.0058 125.88 26.57 125.037 27.1247C124.16 27.7031 123.265 27.8299 122.28 27.7375C120.8 27.4416 120.235 27.748 119.739 29.1162C119.696 29.2324 119.657 29.3565 119.583 29.4543C119.129 30.0644 119.337 30.6111 119.691 31.179C120.064 31.7732 120.621 31.694 121.154 31.6016C121.64 31.5197 122.113 31.3454 122.589 31.2027C122.995 31.0786 123.402 30.9465 123.833 31.0945C124.789 31.4246 125.758 31.3322 126.698 31.0997C128.582 30.6349 130.436 30.627 132.29 31.2212C132.736 31.3639 132.918 31.6174 132.908 32.0981C132.889 33.1176 132.839 34.1424 132.995 35.1593C133.066 35.6215 133.111 36.1867 133.558 36.3954C134.656 36.9131 135.422 36.9659 136.199 35.7958C136.418 35.4683 136.55 35.0827 136.716 34.7208C137.176 33.7198 137.126 33.4768 136.328 32.7135C136.283 32.6132 136.236 32.5101 136.191 32.4071C136.405 31.4193 136.785 31.0231 137.686 31.1446C139.001 31.3216 140.303 31.2608 141.616 31.208C142.736 31.1631 143.858 31.2292 144.981 31.208C146.085 31.1869 147.168 31.0073 148.15 30.4685C148.576 30.2361 149.069 30.0036 149.072 29.4041C149.072 28.3925 148.578 27.7243 147.577 27.3386H147.575Z" fill="#F5F5F5"/>
  <path fill-rule="evenodd" clip-rule="evenodd" d="M145.572 39.3064C145.025 39.2588 144.494 39.169 143.971 39C143.578 38.9498 143.187 38.8785 142.79 38.8494C141 38.7227 139.209 38.7174 137.421 38.8574C135.107 39.0343 132.791 38.7359 130.482 38.9049C129.336 38.9894 128.203 39.0026 127.086 38.6804C126.814 38.448 126.896 38.1574 126.927 37.8563C127.012 37.0191 127.213 36.1977 127.17 35.3445C127.131 34.5522 126.634 34.1217 126.011 33.8417C125.356 33.5459 124.685 33.5353 124.056 34.0371C123.327 34.6182 123.166 35.4026 123.227 36.2399C123.317 37.5024 123.142 38.6593 122.229 39.6127C122.165 39.6814 122.139 39.7844 122.094 39.8716C121.761 40.3259 121.64 40.8647 121.885 41.348C122.519 42.5947 124.5 43.3395 125.884 42.9512C126.285 42.8377 126.713 42.7901 127.133 42.7637C128.451 42.6871 129.772 42.6369 131.09 42.5788C132.566 42.3068 134.066 42.4996 135.553 42.3438C138.496 42.0321 141.43 41.7601 144.357 42.5788C146.261 43.1124 146.861 42.5339 146.715 40.5081C146.657 39.7105 146.367 39.3803 145.572 39.309V39.3064Z" fill="#F5F5F5"/>
  <path fill-rule="evenodd" clip-rule="evenodd" d="M114.846 21.4595C114.056 21.3882 113.314 21.5546 112.614 21.9218C112.186 22.1199 111.861 21.9772 111.6 21.618C111.306 20.8362 111.238 20.0254 111.267 19.1934C111.291 18.4961 111.293 17.7962 111.248 17.1015C111.198 16.3065 110.673 15.7228 110.007 15.633C108.264 15.4006 106.948 17.0355 107.627 18.6229C107.899 19.2621 107.965 19.8827 107.91 20.5774C107.767 22.3444 107.809 24.1377 108.095 25.8677C108.325 27.2597 108.301 28.5697 108.045 29.9194C107.923 30.5533 107.912 31.203 107.963 31.8554C108.002 32.3836 108.309 32.6002 108.758 32.6874C110.575 33.0439 111.964 31.9241 112.059 30.0858C112.131 28.7335 111.864 27.3996 111.882 26.0553C111.895 25.1176 111.919 25.0807 112.862 25.2074C113.557 25.2999 114.241 25.4319 114.943 25.3157C115.876 25.1625 116.362 24.3834 116.33 23.0865C116.306 22.1014 115.804 21.5441 114.848 21.4595H114.846ZM113.208 22.8964C113.216 22.9096 113.224 22.9254 113.235 22.9386C113.221 22.9333 113.211 22.9281 113.198 22.9228C113.203 22.9122 113.205 22.9043 113.208 22.8964Z" fill="#F5F5F5"/>
  <path fill-rule="evenodd" clip-rule="evenodd" d="M101.118 30.5742C102.203 30.7643 103.318 30.281 104.451 30.3655C105.077 30.413 105.32 29.9904 105.138 29.3592C105.038 29.0158 105.024 28.6751 105.022 28.3265C105.022 27.4021 104.752 27.0798 103.807 26.8527H103.793C103.257 26.644 102.705 26.6889 102.151 26.7338C102.005 26.7233 101.86 26.7127 101.715 26.7048C101.475 26.4723 101.015 26.6229 100.846 26.2135C100.949 26.129 101.047 26.0524 101.142 25.9784C102.652 24.7952 103.63 23.4138 102.94 21.3589C102.8 20.9416 102.808 20.4768 102.726 20.0357C102.56 19.1271 102.351 18.2317 101.902 17.413C101.382 16.4648 100.801 16.2218 99.8132 16.7051C99.1212 17.0432 98.4926 17.059 97.8059 16.8055C97.5021 16.6946 97.1905 16.5995 96.8762 16.5308C94.9375 16.1003 92.9988 16.6655 91.0575 16.5361C90.524 16.4542 90.0195 16.5308 89.56 16.8266C88.691 17.1092 87.8168 17.4499 87.6266 18.4615C87.3783 19.7584 88.2341 20.696 89.6577 20.6854C90.6878 20.6802 91.7205 20.5349 92.7506 20.4504C93.0437 20.4873 93.366 20.4636 93.6301 20.5745C94.6232 20.9892 95.5265 20.7383 96.4298 20.3051C96.9686 20.0489 97.518 19.8059 98.0753 19.5999C99.0287 19.246 99.4408 19.4758 99.969 20.3474C100.471 21.1741 100.257 21.977 100.072 22.7984C99.8554 23.7704 99.5623 24.7318 99.8792 25.7354C99.9928 26.0946 99.7656 26.0867 99.5226 26.1026C98.6458 26.158 97.7847 25.9784 96.9158 25.9415C96.612 25.8252 96.4166 25.6034 96.3954 25.2838C96.3743 24.9431 96.4351 24.5944 96.4219 24.2537C96.3717 23.147 95.8012 22.3415 94.8688 21.808C94.1134 21.3748 93.4426 21.6627 92.8377 22.1856C91.3349 23.0361 91.0708 23.4983 91.6994 24.6261C92.2118 25.5426 92.2435 26.3957 91.7945 27.3043C91.179 27.8141 90.3682 27.4707 89.7079 27.7771C89.1717 27.785 88.6646 27.8986 88.2156 28.2076C87.5659 28.3397 87.1301 28.7834 86.7286 29.2615C86.2743 29.8003 86.2558 30.7194 86.6705 31.348C87.1327 32.048 87.5923 32.2064 88.4665 31.9555C89.2536 31.7284 90.0486 31.5725 90.87 31.4854C92.5525 31.3058 94.2561 31.5356 95.9253 31.1843C97.6368 30.8251 99.3008 30.2519 101.126 30.5715L101.118 30.5742ZM88.2473 29.0739C88.2526 29.103 88.2579 29.1294 88.2631 29.1585C88.2526 29.1294 88.2473 29.1004 88.2473 29.0739Z" fill="#F5F5F5"/>
  <path fill-rule="evenodd" clip-rule="evenodd" d="M107.549 35.6804C106.796 34.6767 105.692 34.0587 104.807 33.195C104.094 32.4977 103.212 32.363 102.259 32.8015C101.355 33.2161 100.404 33.5304 99.5196 33.9768C98.6216 34.4311 97.6681 34.8326 97.0369 35.6883C96.7754 35.8758 96.7067 36.1796 96.6275 36.4569C96.3686 37.3708 96.4188 38.3242 96.2841 39.254C96.0913 40.5851 96.6327 41.6575 97.4859 42.6189C98.302 43.5988 99.4034 44.0055 100.626 44.0847C101.693 44.1561 102.758 44.061 103.825 43.9712C105.285 43.8497 106.329 43.1048 107.25 42.0827C108.201 41.0262 108.817 39.872 108.407 38.3771C108.156 37.4658 108.283 36.4358 107.552 35.6777L107.549 35.6804ZM100.534 37.1727C101.765 36.6365 102.977 36.9244 104.023 37.5583C104.519 37.8594 104.894 38.5382 105.132 39.1642C105.233 39.4283 105.116 39.7003 104.937 39.9275C104.266 40.7753 103.452 41.3141 102.306 41.1609C101.865 41.0922 101.421 41.0473 100.985 40.9549C99.9211 40.7251 99.3928 39.9697 99.3611 38.8683C99.3347 37.973 99.8048 37.4923 100.539 37.1727H100.534Z" fill="#F5F5F5"/>
  <path fill-rule="evenodd" clip-rule="evenodd" d="M253.854 35.2309C252.977 34.5257 251.942 34.6921 250.941 34.7185C248.614 34.7766 246.284 35.0249 243.96 34.6524C242.827 34.0872 242.922 33.0439 242.877 32.0139C242.801 30.3261 242.642 28.6384 242.011 27.051C241.609 26.0447 240.954 25.7542 239.853 25.9866C239.079 26.1504 238.783 26.6047 238.77 27.6955C238.749 29.5417 238.797 31.3853 238.9 33.2262C238.942 33.971 238.688 34.2932 237.941 34.354C237.373 34.3989 236.795 34.3619 236.221 34.3408C235.44 34.3144 234.864 33.6488 235.112 32.9277C235.545 31.6626 235.21 30.5348 234.679 29.4123C234.565 28.8022 234.505 28.1788 234.32 27.5898C234.14 27.0167 233.826 26.47 233.123 26.4066C232.027 26.3062 230.791 27.6902 230.981 28.7678C231.317 30.6721 231.34 32.5844 231.047 34.4966C230.944 34.7581 230.77 34.9351 230.474 34.9588C228.802 35.3867 227.088 35.5795 225.387 35.8384C224.957 35.9044 224.634 36.0708 224.611 36.5647C224.159 37.7612 224.611 39.4331 226.385 39.1953C226.729 39.1504 227.083 39.1663 227.429 39.1848C229.616 39.2984 231.731 38.5984 233.95 38.7912C237.592 39.1108 241.248 38.5958 244.916 38.8282C247.526 38.992 250.175 38.5535 252.806 38.3898C253.133 38.3686 253.355 38.2366 253.553 37.9777C254.06 37.3122 254.203 36.5436 254.256 35.7433C254.274 35.4501 254.163 35.2626 253.854 35.2282V35.2309Z" fill="#F5F5F5"/>
  <path fill-rule="evenodd" clip-rule="evenodd" d="M227.232 21.56C230.608 21.6392 233.994 21.1638 237.359 21.7555C239.667 22.2705 241.873 21.5125 244.112 21.1902V21.1955C244.905 21.2351 245.702 21.2748 246.5 21.3144L246.545 21.3514H246.606C246.767 21.597 246.928 21.8479 247.089 22.0988C247.3 22.8119 247.506 23.5198 247.586 24.2699C247.8 26.338 247.652 28.3796 247.374 30.4345C247.086 32.5475 248.053 33.4957 250.156 33.3187C250.911 33.2553 251.365 32.7535 251.238 32.0298C251.098 31.2348 251.159 30.4424 251.159 29.6474C251.159 28.9026 251.281 28.1419 251.017 27.4262C250.7 26.5625 250.686 25.675 250.686 24.777C250.686 23.6862 250.84 22.598 250.713 21.4993C250.502 19.6425 249.149 17.8465 247.525 17.5823C245.982 17.3288 244.414 17.4186 242.858 17.5638C240.32 17.7065 237.784 17.725 235.243 17.5771C233.585 17.4793 231.897 17.4001 230.254 17.7382C228.878 18.0208 227.452 18.2453 226.437 19.3916C225.912 19.8934 225.64 20.5431 225.893 21.1982C226.105 21.7449 226.765 21.5494 227.238 21.5627L227.232 21.56ZM226.171 20.4243C226.171 20.4243 226.152 20.4243 226.142 20.4243C226.15 20.4164 226.157 20.4111 226.163 20.4032C226.163 20.4111 226.165 20.4164 226.168 20.4243H226.171Z" fill="#F5F5F5"/>
  <path d="M214.77 35.0066C213.703 34.7081 212.697 34.2221 211.545 34.1772C210.637 34.1402 209.699 34.3304 208.812 34.0082C207.681 33.5988 206.511 33.4033 205.317 33.3268C203.878 33.1022 202.42 33.1947 200.928 33.1287C201.002 33.0573 201.028 33.0177 201.062 33.0019C201.268 32.9121 201.469 32.8064 201.681 32.7457C203.749 32.1408 204.998 30.7331 205.59 28.7178C205.785 28.0549 206.163 27.2704 205.621 26.663C204.538 25.4506 204.058 23.6969 202.359 23.0207C202.19 22.9547 201.699 22.8147 202.019 22.3815C203.212 21.8612 204.459 21.7873 205.735 21.9457C206.495 22.0382 207.166 21.7635 207.761 21.333C208.519 20.7862 208.468 19.2596 207.71 18.7921C206.791 18.4541 205.84 18.6654 204.905 18.6284C203.986 18.5914 203.059 18.6601 202.153 18.4488C201.707 18.3458 201.358 18.1979 201.356 17.5745C201.35 17.0225 201.393 16.415 201.126 15.8974C200.664 15.002 198.873 14.9809 198.284 16.1456C197.993 16.7214 197.737 17.3183 197.468 17.9073C197.272 18.3352 197.024 18.6891 196.48 18.6548C196.422 18.7076 196.348 18.705 196.277 18.7287C196.224 18.7446 196.168 18.7578 196.115 18.771C196.234 18.7208 196.353 18.6759 196.48 18.6574C194.668 18.7155 192.861 18.7974 191.092 19.257C190.585 19.389 190.334 19.64 190.249 20.1471C190.03 21.473 191.979 23.1 193.424 22.7777C194.874 22.4555 196.295 21.9431 197.816 22.091C197.993 22.297 198.39 22.1042 198.508 22.511C197.021 22.8807 195.973 23.8712 194.943 24.9409C193.59 26.346 193.403 27.8621 194.211 29.5709C194.335 30.601 194.972 31.2508 195.809 31.7684C196.699 32.3204 197.658 32.714 198.646 33.0547C198.817 33.1128 199.211 33.0204 199.137 33.4403C198.379 33.5856 197.616 33.6094 196.847 33.6199C195.619 33.6384 194.383 33.6094 193.178 33.929C191.927 34.0267 190.968 34.6025 190.323 35.6827C189.729 36.6996 190.104 37.492 191.232 37.6214C192.283 37.7429 193.287 37.5289 194.28 37.2199C194.454 37.2041 194.631 37.2093 194.8 37.1724C198.281 36.4249 201.823 36.4672 205.352 36.4143C207.275 36.3853 209.171 36.7207 211.038 37.175C211.522 37.2939 212.071 37.4048 212.171 37.9991C212.327 38.9209 212.586 39.8321 212.502 40.7829C212.301 41.0338 212.333 41.3534 212.282 41.6387C211.876 43.9946 212.525 44.4912 214.873 43.9893C215.518 43.852 215.777 43.44 215.779 42.8087C215.779 41.9371 215.803 41.0682 215.816 40.1966C216.125 38.53 215.679 36.9584 215.19 35.3948C215.124 35.1862 214.958 35.0515 214.77 34.9986V35.0066ZM213.87 37.4206C213.872 37.4444 213.875 37.4682 213.878 37.492C213.864 37.4682 213.862 37.4444 213.87 37.4206ZM211.435 34.8956C211.324 34.959 211.239 34.9088 211.173 34.8111C211.258 34.8217 211.345 34.8455 211.435 34.8956ZM198.728 26.2694C199.253 26.1083 199.776 25.9604 200.463 25.9868C201.511 25.8917 202.277 26.6154 203.03 27.3523C203.244 27.561 203.215 27.7353 203.017 27.9889C201.971 29.3174 200.204 29.7373 198.662 29.0084C197.93 28.6624 197.935 27.9915 197.904 27.355C197.877 26.795 198.181 26.4358 198.728 26.2694Z" fill="#F5F5F5"/>
  <path d="M219.712 23.0894C219.419 22.3419 218.883 21.9219 218.082 21.774C217.306 21.6314 216.572 21.6684 215.866 22.0355C215.497 22.2283 215.227 22.1781 215.074 21.7661C214.91 20.8575 214.897 19.9384 214.889 19.0166C214.886 18.4963 214.95 17.9733 214.81 17.4556C214.564 16.5418 214.025 16.0875 213.191 16.1086C212.398 16.1271 211.775 16.7504 211.595 17.6194C211.387 18.631 211.691 19.5845 211.849 20.5564C211.836 20.3874 211.854 20.2183 211.889 20.0493C211.87 20.2897 211.86 20.5327 211.881 20.7677C211.662 22.6958 211.469 24.6265 211.746 26.5678C211.595 27.7009 211.426 28.8314 211.3 29.9671C211.234 30.5772 211.025 31.2085 211.263 31.8133C211.527 32.4894 212 32.9226 212.8 32.8645C213.732 32.7985 214.39 32.3706 214.575 31.5465C214.908 30.0675 214.691 28.5408 214.91 27.0459C215.378 25.5034 215.378 25.514 217.084 25.4902C217.752 25.4823 218.426 25.5985 219.089 25.3951C220.235 25.0439 220.512 24.027 219.712 23.0867V23.0894ZM213.735 16.6263C213.735 16.6263 213.714 16.6263 213.703 16.621C213.714 16.6104 213.724 16.5999 213.738 16.5893C213.738 16.5999 213.738 16.6131 213.735 16.6263ZM214.012 30.7093C214.012 30.7093 214.007 30.7093 214.004 30.7093C214.031 30.6221 214.057 30.5402 214.086 30.461C214.2 30.5217 214.147 30.6564 214.01 30.7066L214.012 30.7093Z" fill="#F5F5F5"/>
  <path d="M90.8573 53.8831V59.324H92.2519V59.5854H86.8506V59.324H88.2372V48.3286H86.8506V48.0671H92.2255V48.3286H90.8547V53.4208L94.7663 49.6677C95.0252 49.4326 95.2021 49.2451 95.2972 49.1104C95.3923 48.9757 95.4398 48.8568 95.4398 48.7565C95.4398 48.6033 95.3685 48.495 95.2285 48.4263C95.0885 48.3603 94.864 48.3259 94.5603 48.3259H94.3279V48.0645H98.6199V48.3259C98.5855 48.3259 98.5353 48.3233 98.4693 48.318C98.4033 48.3127 98.3531 48.3101 98.3188 48.3101C97.7667 48.3101 97.2306 48.4421 96.7076 48.701C96.1847 48.9625 95.6221 49.3824 95.0172 49.9635L93.0627 51.844L97.9648 59.324H99.1639V59.5854H93.6253V59.324H94.8218L91.169 53.5899L90.86 53.8857L90.8573 53.8831Z" fill="#F5F5F5"/>
  <path d="M101.451 59.5829H100.994L97.9616 52.6101H96.9712V52.3486H101.366V52.6101H100.357L102.322 57.1292L104.295 52.6101H105.019L106.905 57.1636L108.196 54.245C108.265 54.0892 108.318 53.9386 108.352 53.7934C108.387 53.6508 108.405 53.524 108.405 53.4183C108.405 53.1146 108.323 52.9059 108.159 52.7871C107.996 52.6682 107.695 52.6101 107.259 52.6101V52.3486H110.336L110.325 52.6101C110.077 52.6497 109.467 52.7765 109.274 52.9957C109.079 53.2123 108.843 53.6296 108.566 54.2477L106.06 59.5856H105.605L103.572 55.0242L101.453 59.5856L101.451 59.5829Z" fill="#F5F5F5"/>
  <path d="M121.438 59.324H122.421V59.5854H118.105V59.324H119.103V52.61H118.105V52.3485H119.476C119.89 52.3485 120.239 52.3327 120.527 52.2983C120.815 52.264 121.082 52.2112 121.327 52.1372V53.7484C121.649 53.2201 122.04 52.8186 122.503 52.5466C122.965 52.2746 123.485 52.1372 124.066 52.1372C124.824 52.1372 125.419 52.33 125.849 52.7156C126.28 53.1013 126.496 53.6269 126.496 54.2977V59.324H127.487V59.5854H123.197V59.324H124.172V53.9359C124.172 53.4578 124.106 53.1277 123.974 52.9507C123.842 52.7711 123.615 52.6813 123.295 52.6813C122.761 52.6813 122.318 52.89 121.969 53.3099C121.618 53.7299 121.443 54.266 121.443 54.9237V59.3266L121.438 59.324Z" fill="#F5F5F5"/>
  <path d="M150.341 55.7635C150.341 55.2511 150.449 54.7598 150.668 54.287C150.888 53.8142 151.202 53.3864 151.617 52.9981C152.013 52.6363 152.435 52.3695 152.884 52.1925C153.331 52.0156 153.819 51.9258 154.348 51.9258C154.876 51.9258 155.375 52.0156 155.829 52.1952C156.284 52.3748 156.698 52.6416 157.079 52.9981C157.491 53.3864 157.808 53.8169 158.027 54.287C158.246 54.7598 158.354 55.2511 158.354 55.7635C158.354 56.2759 158.249 56.7645 158.032 57.2267C157.815 57.6916 157.499 58.1194 157.081 58.513C156.696 58.8722 156.278 59.1416 155.827 59.3185C155.378 59.4955 154.884 59.5827 154.35 59.5827C153.236 59.5827 152.29 59.2103 151.511 58.4654C150.732 57.7206 150.343 56.82 150.343 55.7635H150.341ZM155.864 56.7169V54.7941C155.864 53.7535 155.753 53.0589 155.533 52.7129C155.312 52.3642 154.918 52.1899 154.348 52.1899C153.777 52.1899 153.384 52.3642 153.164 52.7129C152.942 53.0615 152.831 53.7561 152.831 54.7941V56.7169C152.831 57.7576 152.942 58.4496 153.164 58.7982C153.386 59.1469 153.78 59.3212 154.348 59.3212C154.915 59.3212 155.312 59.1469 155.533 58.7982C155.753 58.4496 155.864 57.7549 155.864 56.7169Z" fill="#F5F5F5"/>
  <path d="M159.163 55.7635C159.163 55.2511 159.271 54.7598 159.49 54.287C159.709 53.8142 160.024 53.3864 160.438 52.9981C160.834 52.6363 161.257 52.3695 161.703 52.1925C162.152 52.0156 162.638 51.9258 163.167 51.9258C163.695 51.9258 164.194 52.0156 164.648 52.1952C165.103 52.3748 165.52 52.6416 165.898 52.9981C166.31 53.3864 166.627 53.8169 166.846 54.287C167.065 54.7598 167.173 55.2511 167.173 55.7635C167.173 56.2759 167.065 56.7645 166.851 57.2267C166.637 57.6916 166.318 58.1194 165.9 58.513C165.515 58.8722 165.097 59.1416 164.646 59.3185C164.197 59.4955 163.703 59.5827 163.169 59.5827C162.055 59.5827 161.109 59.2103 160.33 58.4654C159.551 57.7206 159.163 56.82 159.163 55.7635ZM164.685 56.7169V54.7941C164.685 53.7535 164.574 53.0589 164.353 52.7129C164.131 52.3642 163.737 52.1899 163.167 52.1899C162.596 52.1899 162.203 52.3642 161.983 52.7129C161.762 53.0615 161.651 53.7561 161.651 54.7941V56.7169C161.651 57.7576 161.762 58.4496 161.983 58.7982C162.205 59.1469 162.599 59.3212 163.167 59.3212C163.735 59.3212 164.131 59.1469 164.353 58.7982C164.572 58.4496 164.685 57.7549 164.685 56.7169Z" fill="#F5F5F5"/>
  <path d="M171.127 59.324H172.109V59.5854H167.793V59.324H168.792V52.61H167.793V52.3485H169.164C169.576 52.3485 169.928 52.3327 170.215 52.2983C170.501 52.264 170.77 52.2112 171.016 52.1372V53.7484C171.338 53.2201 171.729 52.8186 172.191 52.5466C172.653 52.2746 173.176 52.1372 173.755 52.1372C174.513 52.1372 175.107 52.33 175.537 52.7156C175.968 53.1013 176.185 53.6269 176.185 54.2977V59.324H177.175V59.5854H172.886V59.324H173.86V53.9359C173.86 53.4578 173.794 53.1277 173.662 52.9507C173.53 52.7711 173.303 52.6813 172.983 52.6813C172.447 52.6813 172.006 52.89 171.655 53.3099C171.304 53.7299 171.129 54.266 171.129 54.9237V59.3266L171.127 59.324Z" fill="#F5F5F5"/>
  <path d="M117.808 57.9745C117.739 58.2439 117.655 58.4473 117.549 58.582C117.446 58.7167 117.327 58.7854 117.195 58.7854C117.005 58.7854 116.873 58.7009 116.794 58.5292C116.715 58.3575 116.678 58.0406 116.678 57.581V54.5779C116.678 53.9863 116.606 53.5531 116.466 53.2758C116.324 52.9985 116.081 52.7529 115.73 52.5389C115.397 52.3382 115.016 52.185 114.588 52.0846C114.161 51.9816 113.688 51.9341 113.173 51.9341C112.259 51.9341 111.533 52.0978 110.989 52.428C110.455 52.7529 110.183 53.1728 110.175 53.6905C110.175 53.6905 110.175 53.6931 110.175 53.6958C110.175 53.7011 110.175 53.7063 110.175 53.7116C110.175 53.7565 110.183 53.7988 110.191 53.841C110.265 54.3587 110.714 54.7549 111.261 54.7549C111.86 54.7549 112.346 54.2795 112.346 53.6931C112.346 53.1755 111.966 52.7423 111.464 52.6498C111.511 52.5521 111.636 52.4597 111.852 52.3725C112.124 52.2616 112.446 52.2088 112.822 52.2088C113.471 52.2088 113.904 52.3223 114.126 52.5495C114.348 52.7766 114.456 53.3022 114.456 54.1236V55.1432C112.761 55.1432 111.498 55.336 110.666 55.7242C109.832 56.1125 109.417 56.7015 109.417 57.4938C109.417 58.1621 109.678 58.6771 110.204 59.0416C110.73 59.4034 111.482 59.5857 112.465 59.5857C112.969 59.5857 113.397 59.4906 113.743 59.3004C114.092 59.1103 114.351 58.8277 114.522 58.4579C114.649 58.8356 114.855 59.1156 115.138 59.2978C115.42 59.48 115.793 59.5725 116.252 59.5725C116.712 59.5725 117.127 59.4246 117.462 59.1261C117.798 58.8277 117.988 58.4447 118.035 57.9798H117.803L117.808 57.9745ZM114.459 57.1822C114.459 57.8398 114.34 58.3311 114.103 58.656C113.865 58.9809 113.506 59.1446 113.03 59.1446C112.605 59.1446 112.299 58.9967 112.114 58.6982C111.926 58.3998 111.834 57.9006 111.834 57.198C111.834 56.4955 111.995 56.0016 112.312 55.7691C112.631 55.5367 113.294 55.4205 114.306 55.4205H114.462V57.1848L114.459 57.1822Z" fill="#F5F5F5"/>
  <path d="M148.502 48.0669V48.3284H149.416C149.772 48.3284 150.028 48.3891 150.187 48.5106C150.345 48.6321 150.425 48.8302 150.425 49.1049C150.425 49.2 150.398 49.3505 150.348 49.5513C150.298 49.7546 150.227 49.9686 150.142 50.1931L147.849 56.3577L144.878 48.331H144.59L141.653 56.2573L138.69 48.331H139.707V48.0695H134.892V48.331H136.019L140.362 59.5879H140.715L143.61 52.1238L146.592 59.5879H146.962L150.752 49.6384C150.919 49.1947 151.101 48.883 151.299 48.7034C151.497 48.5238 151.774 48.3654 152.147 48.331C152.186 48.3284 152.3 48.331 152.3 48.331H153.317V48.0695H148.502V48.0669Z" fill="#F5F5F5"/>
  <path d="M134.374 53.0697C134.408 53.1251 134.45 53.1806 134.5 53.2255C134.566 53.2836 134.638 53.3153 134.717 53.3391C134.72 53.3391 134.725 53.3391 134.728 53.3417C134.743 53.3444 134.754 53.3523 134.77 53.3549C134.857 53.384 134.947 53.4025 135.045 53.4025C135.509 53.4025 135.884 53.0353 135.884 52.5811C135.884 52.1664 135.57 51.8257 135.161 51.7702C135.042 51.7411 134.915 51.7227 134.77 51.7227C134.5 51.7227 134.255 51.7808 134.038 51.8943C133.819 52.0105 133.608 52.2007 133.399 52.4648C133.066 52.2562 132.726 52.1003 132.38 51.9973C132.031 51.8943 131.666 51.8415 131.281 51.8415C130.465 51.8415 129.789 52.0739 129.247 52.5362C128.708 53.001 128.436 53.5742 128.436 54.2609C128.436 54.6835 128.55 55.0559 128.78 55.3807C129.009 55.7056 129.366 56.0014 129.849 56.2656C129.252 56.3844 128.814 56.5878 128.537 56.8783C128.257 57.1662 128.119 57.5571 128.119 58.0457C128.119 58.3521 128.18 58.9913 128.777 59.2105C128.492 59.4429 128.267 59.6912 128.109 59.958C127.916 60.2802 127.821 60.6183 127.821 60.9748C127.821 61.3314 127.919 61.6721 128.114 61.9996C128.309 62.3271 128.592 62.6256 128.962 62.895C129.3 63.1406 129.675 63.3255 130.082 63.4523C130.488 63.5764 130.93 63.6398 131.41 63.6398C131.891 63.6398 132.321 63.5791 132.723 63.4549C133.124 63.3334 133.502 63.1459 133.859 62.8976C134.075 62.7418 134.257 62.5728 134.413 62.3985C134.413 62.3985 134.419 62.3932 134.421 62.3905C134.688 62.1211 134.894 61.8227 135.037 61.4952C135.177 61.1677 135.211 60.8243 135.211 60.4704C135.211 59.7361 134.997 59.1128 134.493 58.5951C134.149 58.2438 133.507 57.7922 132.731 57.7922H129.551C129.292 57.7922 129.099 57.7526 128.97 57.6707C128.84 57.5888 128.777 57.4673 128.777 57.3036C128.777 57.1055 128.896 56.9364 129.133 56.7885C129.371 56.6432 129.722 56.527 130.19 56.4425C130.356 56.498 130.528 56.5429 130.702 56.5746C130.877 56.6063 131.059 56.6195 131.249 56.6195C132.168 56.6195 132.905 56.4055 133.462 55.975C134.02 55.5471 134.3 54.9766 134.3 54.2688C134.3 53.9703 134.247 53.6956 134.139 53.4421C134.033 53.1912 133.864 52.9376 133.634 52.6761C133.711 52.5467 133.909 52.2905 134.3 52.2245C134.244 52.3354 134.21 52.4569 134.21 52.589C134.21 52.7712 134.273 52.9403 134.376 53.075L134.374 53.0697ZM129.91 60.1957C129.91 59.5591 130.029 59.1313 130.264 58.92C130.496 58.706 130.916 58.6004 131.521 58.6004C132.126 58.6004 132.543 58.7087 132.778 58.92C133.013 59.1339 133.13 59.5591 133.13 60.1957V61.3737C133.13 62.0102 133.011 62.4381 132.778 62.652C132.543 62.866 132.123 62.9716 131.521 62.9716C130.919 62.9716 130.496 62.8633 130.264 62.652C130.029 62.4381 129.91 62.0128 129.91 61.3737V60.1957ZM132.43 54.9053C132.43 55.4838 132.356 55.872 132.208 56.0648C132.063 56.2576 131.788 56.3554 131.386 56.3554C130.985 56.3554 130.7 56.255 130.552 56.0595C130.404 55.8641 130.327 55.4785 130.327 54.9053V53.5557C130.327 52.9825 130.404 52.5969 130.552 52.4014C130.7 52.206 130.98 52.1056 131.386 52.1056C131.793 52.1056 132.063 52.2034 132.208 52.3962C132.356 52.589 132.43 52.9772 132.43 53.5557V54.9053Z" fill="#F5F5F5"/>
  <path d="M194.279 59.3208H195.262V59.5823H190.943V59.3208H191.944V52.6095H190.943V52.348H192.314C192.726 52.348 193.077 52.3322 193.365 52.2978C193.653 52.2635 193.92 52.2107 194.168 52.1367V53.7479C194.491 53.2196 194.881 52.8182 195.344 52.5461C195.806 52.2741 196.326 52.1367 196.907 52.1367C197.665 52.1367 198.26 52.3295 198.69 52.7151C199.121 53.1008 199.337 53.629 199.337 54.2972V59.3208H200.328V59.5823H196.036V59.3208H197.01V53.9327C197.01 53.4547 196.944 53.1272 196.812 52.9476C196.68 52.768 196.453 52.6782 196.131 52.6782C195.597 52.6782 195.153 52.8868 194.805 53.3068C194.454 53.7267 194.279 54.2629 194.279 54.9206V59.3235V59.3208Z" fill="#F5F5F5"/>
  <path d="M201.853 52.6098H200.828V52.3483H202.207C202.603 52.3483 202.962 52.3324 203.287 52.2981C203.612 52.2638 203.908 52.2109 204.177 52.137V59.3211H205.202V59.5826H200.826V59.3211H201.85V52.6098H201.853ZM201.742 50.3119C201.742 49.9527 201.866 49.6542 202.112 49.4139C202.36 49.1762 202.667 49.0547 203.034 49.0547C203.401 49.0547 203.702 49.1762 203.956 49.4192C204.209 49.6595 204.333 49.958 204.333 50.3119C204.333 50.6658 204.206 50.9801 203.956 51.2311C203.702 51.4846 203.396 51.6114 203.034 51.6114C202.672 51.6114 202.352 51.4873 202.107 51.239C201.864 50.9907 201.742 50.6817 201.742 50.3119Z" fill="#F5F5F5"/>
  <path d="M209.538 59.5823H208.978L205.972 52.3982H204.879V52.1367H209.419V52.3982H208.447L210.333 56.9358L211.625 53.8165C211.683 53.6818 211.725 53.5551 211.754 53.4415C211.783 53.3279 211.799 53.217 211.799 53.1087C211.799 52.8551 211.706 52.6755 211.524 52.5646C211.339 52.4537 211.033 52.4008 210.602 52.4008V52.1394H213.584V52.4008H213.516C213.178 52.4008 212.895 52.5118 212.668 52.7336C212.441 52.9555 212.177 53.423 211.87 54.1361L209.543 59.5823H209.538Z" fill="#F5F5F5"/>
  <path d="M219.86 55.4011H215.31V56.624C215.31 57.53 215.452 58.185 215.74 58.5917C216.028 59.0011 216.49 59.2045 217.127 59.2045C217.763 59.2045 218.289 58.9879 218.751 58.5547C219.213 58.1216 219.549 57.5194 219.755 56.7508H220.021C219.845 57.6382 219.467 58.3329 218.888 58.8321C218.31 59.3313 217.6 59.5822 216.754 59.5822C215.619 59.5822 214.684 59.2203 213.949 58.4993C213.218 57.7782 212.851 56.8538 212.851 55.7286C212.851 54.688 213.212 53.7953 213.936 53.0478C214.66 52.3003 215.526 51.9253 216.538 51.9253C217.467 51.9253 218.247 52.2502 218.873 52.8999C219.499 53.5496 219.826 54.3816 219.855 55.4011H219.86ZM217.43 55.1397V53.9326C217.43 53.2406 217.351 52.7784 217.198 52.5407C217.042 52.3056 216.762 52.1868 216.353 52.1868C215.943 52.1868 215.693 52.3162 215.539 52.5777C215.386 52.8392 215.31 53.341 215.31 54.0832V55.137H217.43V55.1397Z" fill="#F5F5F5"/>
  <path d="M221.083 52.6095H220.082V52.348H221.45C221.846 52.348 222.203 52.3322 222.515 52.2978C222.829 52.2635 223.122 52.2107 223.399 52.1367V53.6211C223.605 53.1536 223.883 52.7891 224.231 52.5303C224.58 52.2688 224.96 52.1367 225.372 52.1367C225.827 52.1367 226.181 52.2529 226.437 52.488C226.693 52.7204 226.82 53.0427 226.82 53.452C226.82 53.806 226.711 54.0965 226.495 54.321C226.276 54.5455 225.998 54.6591 225.66 54.6591C225.322 54.6591 225.04 54.5482 224.815 54.3263C224.593 54.1044 224.48 53.8245 224.48 53.4864C224.48 53.3464 224.503 53.2064 224.548 53.0638C224.593 52.9238 224.67 52.7759 224.773 52.6253C224.371 52.7204 224.044 52.974 223.793 53.3807C223.545 53.7875 223.418 54.2787 223.418 54.8519V59.3208H224.77V59.5823H220.082V59.3208H221.083V52.6095Z" fill="#F5F5F5"/>
  <path d="M227.561 59.567V56.8677H227.828C228.213 57.7129 228.633 58.3309 229.093 58.7271C229.553 59.1233 230.076 59.3214 230.662 59.3214C231.127 59.3214 231.499 59.1946 231.776 58.9411C232.056 58.6875 232.194 58.3494 232.194 57.9215C232.194 57.3643 231.626 57.0024 230.488 56.8334C230.247 56.799 230.06 56.7726 229.928 56.7488C229.072 56.6009 228.456 56.3553 228.081 56.0067C227.709 55.658 227.521 55.1641 227.521 54.5223C227.521 53.8012 227.77 53.1911 228.264 52.684C228.758 52.1769 229.362 51.9233 230.081 51.9233C230.437 51.9233 230.82 51.9894 231.235 52.1214C231.65 52.2535 231.874 52.3195 231.916 52.3195C232.025 52.3195 232.117 52.2905 232.194 52.235C232.27 52.1795 232.336 52.0924 232.389 51.9735H232.675V54.2925H232.389C232.159 53.5899 231.845 53.067 231.446 52.721C231.048 52.375 230.559 52.2033 229.986 52.2033C229.55 52.2033 229.185 52.3248 228.892 52.5652C228.599 52.8081 228.451 53.1092 228.451 53.4685C228.451 53.6322 228.496 53.7828 228.581 53.9254C228.665 54.0654 228.789 54.1842 228.95 54.2793C229.112 54.3797 229.455 54.451 229.983 54.4959C230.511 54.5381 230.921 54.591 231.209 54.6596C231.922 54.8155 232.432 55.0717 232.746 55.423C233.06 55.7742 233.216 56.2629 233.216 56.8862C233.216 57.697 232.965 58.3494 232.458 58.8433C231.953 59.3372 231.288 59.5855 230.466 59.5855C230.192 59.5855 229.846 59.5221 229.434 59.3953C229.022 59.2686 228.731 59.2052 228.562 59.2052C228.367 59.2052 228.208 59.2342 228.089 59.2897C227.968 59.3452 227.881 59.4376 227.823 59.567H227.556H227.561Z" fill="#F5F5F5"/>
  <path d="M235.064 52.6098H234.04V52.3483H235.418C235.814 52.3483 236.176 52.3324 236.501 52.2981C236.826 52.2638 237.124 52.2109 237.394 52.137V59.3211H238.419V59.5826H234.042V59.3211H235.067V52.6098H235.064ZM234.953 50.3119C234.953 49.9527 235.078 49.6542 235.326 49.4139C235.571 49.1762 235.88 49.0547 236.248 49.0547C236.615 49.0547 236.918 49.1762 237.172 49.4192C237.426 49.6595 237.55 49.958 237.55 50.3119C237.55 50.6658 237.423 50.9801 237.172 51.2311C236.918 51.4846 236.612 51.6114 236.248 51.6114C235.883 51.6114 235.566 51.4873 235.323 51.239C235.078 50.9907 234.956 50.6817 234.956 50.3119H234.953Z" fill="#F5F5F5"/>
  <path d="M238.874 52.1397H238.908C239.671 52.1397 240.313 51.8438 240.833 51.2548C241.354 50.6632 241.7 49.8312 241.871 48.751H242.13V52.1397H243.725V52.4011H242.13V57.8394C242.13 58.2382 242.175 58.5235 242.265 58.6899C242.355 58.8589 242.5 58.9434 242.701 58.9434C242.883 58.9434 243.06 58.8853 243.232 58.7638C243.401 58.6423 243.548 58.4733 243.675 58.2541L243.9 58.3888C243.699 58.7612 243.406 59.0517 243.026 59.2657C242.643 59.4796 242.217 59.5853 241.747 59.5853C241.047 59.5853 240.548 59.403 240.252 59.0385C239.956 58.674 239.809 58.0269 239.809 57.0999V52.4011H238.879V52.1397H238.874Z" fill="#F5F5F5"/>
  <path d="M191.593 48.0669H186.596V48.3125H188.276C188.844 48.3231 189.232 48.4235 189.436 48.6083C189.639 48.7959 189.739 49.2528 189.739 49.9818V54.6673C189.739 55.7238 189.676 56.4765 189.552 56.9229C189.425 57.3693 189.214 57.7496 188.915 58.0613C188.651 58.3359 188.321 58.5472 187.927 58.7004C187.534 58.851 187.117 58.9276 186.676 58.9276C186.176 58.9276 185.722 58.8272 185.315 58.6318C184.909 58.4337 184.576 58.1563 184.325 57.8024C184.148 57.5515 184.018 57.2504 183.945 56.9018C183.868 56.5531 183.834 55.9773 183.834 55.1718V48.3231H185.228V48.0695H179.824V48.3231H181.221V55.2035C181.221 56.1622 181.343 56.8965 181.583 57.4062C181.824 57.916 182.238 58.365 182.825 58.7559C183.237 59.0306 183.696 59.2366 184.203 59.3766C184.708 59.5166 185.255 59.5852 185.841 59.5852C186.554 59.5852 187.206 59.4743 187.801 59.2524C188.395 59.0306 188.873 58.7189 189.235 58.3201C189.557 57.9635 189.787 57.5515 189.924 57.0814C190.062 56.6112 190.133 55.8083 190.133 54.6699V49.9844C190.133 49.2713 190.233 48.8196 190.439 48.6268C190.643 48.434 191.028 48.331 191.599 48.3152H192.14V48.0695H191.599L191.593 48.0669Z" fill="#F5F5F5"/>
  <path d="M249.842 52.1187V52.3801H249.98C250.318 52.3801 250.574 52.4356 250.746 52.5465C250.917 52.6548 251.005 52.8186 251.005 53.0299C251.005 53.1091 250.981 53.228 250.931 53.3838C250.88 53.5423 250.812 53.7245 250.719 53.9332L249.452 56.7487L247.566 52.3801H248.678V52.1187H244.066V52.3801H245.075L248.26 59.7544C248.26 59.7544 247.552 61.9017 246.308 62.6307C246.308 62.6307 246.374 62.43 246.374 62.29C246.374 61.9545 246.264 61.6719 246.039 61.4527C245.815 61.2309 245.535 61.1199 245.194 61.1199C244.853 61.1199 244.576 61.2335 244.359 61.458C244.14 61.6825 244.032 61.973 244.032 62.327C244.032 62.7363 244.161 63.0586 244.417 63.291C244.671 63.5261 245.027 63.6423 245.482 63.6423C245.883 63.6423 247.011 63.4917 248.609 59.7861C250.204 56.0831 251.079 53.9517 251.079 53.9517C251.366 53.3098 251.623 52.8899 251.85 52.6865C252.077 52.4831 252.362 52.3828 252.706 52.3828V52.1213H249.845L249.842 52.1187Z" fill="#F5F5F5"/>
  <path d="M26.0237 22.1068L23.4961 20.3266L23.8289 20.0783L25.0597 20.9631C25.3951 21.2088 25.6962 21.4306 25.9683 21.6551L25.9762 21.6499C25.8389 21.3276 25.7121 20.9605 25.5906 20.5722L25.1204 19.1116L25.4453 18.8687L26.3592 21.8506L26.0237 22.1015V22.1068Z" fill="#F5F5F5"/>
  <path d="M28.0712 19.1428L27.0887 19.7133L27.6222 20.6298L28.721 19.9906L28.8821 20.2653L27.4506 21.0973L25.9741 18.5591L27.3502 17.7588L27.5087 18.0335L26.4654 18.641L26.9329 19.4439L27.9154 18.8734L28.0739 19.1454L28.0712 19.1428Z" fill="#F5F5F5"/>
  <path d="M28.1265 17.4056C28.2876 17.2973 28.5332 17.1599 28.7683 17.0569C29.1407 16.8932 29.4154 16.8588 29.6425 16.9354C29.8274 16.9962 29.9859 17.1441 30.081 17.358C30.2342 17.7093 30.1153 18.0421 29.8776 18.2613L29.8829 18.2719C30.1179 18.2534 30.3266 18.3934 30.5115 18.6443C30.7624 18.9797 30.942 19.2121 31.0424 19.2914L30.6832 19.4499C30.6039 19.3891 30.4428 19.1884 30.2262 18.8846C29.9832 18.5492 29.7746 18.4726 29.455 18.5994L29.1275 18.742L29.6399 19.9068L29.2939 20.06L28.1291 17.4056H28.1265ZM29.0113 18.4805L29.3678 18.3247C29.7402 18.1609 29.8855 17.8546 29.7508 17.5482C29.5976 17.2022 29.2807 17.1599 28.9135 17.321C28.7471 17.395 28.6362 17.4584 28.5834 17.5006L29.0139 18.4832L29.0113 18.4805Z" fill="#F5F5F5"/>
  <path d="M30.8628 16.2695L31.8084 19.0507L31.4465 19.1749L30.501 16.3937L30.8628 16.2695Z" fill="#F5F5F5"/>
  <path d="M32.3259 16.1743L31.4596 16.3909L31.3804 16.0792L33.4881 15.5483L33.5673 15.8626L32.6983 16.0819L33.3349 18.6174L32.9625 18.7099L32.3259 16.1743Z" fill="#F5F5F5"/>
  <path d="M34.5219 17.4266L34.3502 18.3827L33.9619 18.4382L34.543 15.3876L34.992 15.3242L36.3971 18.0949L35.9957 18.1503L35.5546 17.2787L34.5245 17.424L34.5219 17.4266ZM35.441 16.9961L35.0316 16.2011C34.9392 16.0189 34.8731 15.8525 34.8045 15.6913H34.7965C34.7754 15.8683 34.7596 16.0558 34.7252 16.2407L34.5588 17.1229L35.441 16.9988V16.9961Z" fill="#F5F5F5"/>
  <path d="M36.7375 17.6297C36.9091 17.7354 37.1548 17.812 37.4163 17.8067C37.8045 17.7988 38.0264 17.5901 38.0211 17.2943C38.0158 17.0249 37.8547 16.8664 37.4559 16.7264C36.9725 16.5627 36.6714 16.3144 36.6635 15.905C36.6556 15.4481 37.0254 15.0995 37.5985 15.0862C37.8943 15.081 38.1188 15.1444 38.2456 15.2183L38.1479 15.53C38.0554 15.4771 37.8573 15.3979 37.5906 15.4032C37.1891 15.4111 37.0412 15.6541 37.0465 15.8548C37.0518 16.1295 37.234 16.2589 37.6408 16.4095C38.1426 16.5917 38.3935 16.8242 38.4041 17.2573C38.4146 17.709 38.0898 18.1131 37.3978 18.1289C37.1152 18.1342 36.8035 18.055 36.645 17.952L36.7375 17.6324V17.6297Z" fill="#F5F5F5"/>
  <path d="M40.1759 17.1966C40.1152 17.7116 40.411 17.9678 40.7966 18.018C41.0686 18.055 41.243 18.0286 41.3909 17.9863L41.4226 18.2689C41.2799 18.3112 41.0369 18.3534 40.7041 18.3085C40.0597 18.2214 39.7348 17.7433 39.8193 17.1121C39.9039 16.4808 40.3423 16.0397 40.9498 16.1216C41.6365 16.214 41.7342 16.8321 41.6814 17.2177C41.6708 17.2943 41.6603 17.3498 41.6444 17.392L40.1759 17.1939V17.1966ZM41.3275 17.0724C41.3644 16.8347 41.3116 16.4465 40.8838 16.3884C40.4955 16.3355 40.2842 16.663 40.2182 16.9245L41.3275 17.0724Z" fill="#F5F5F5"/>
  <path d="M43.0037 16.0295L42.8902 16.5234L43.4237 16.6449L43.3577 16.9302L42.8215 16.8087L42.5679 17.918C42.5098 18.1715 42.5468 18.3326 42.7581 18.3802C42.8585 18.4039 42.9219 18.4092 42.98 18.404L42.9298 18.6918C42.8532 18.6998 42.7317 18.6998 42.5864 18.6681C42.4121 18.6285 42.2853 18.536 42.2193 18.4172C42.1427 18.2798 42.1427 18.087 42.1982 17.844L42.4544 16.7215L42.1348 16.6475L42.2008 16.3623L42.5177 16.4362L42.6049 16.0533L42.9958 16.0269L43.0037 16.0295Z" fill="#F5F5F5"/>
  <path d="M45.2992 16.3438L45.6584 16.4811L44.7314 18.9295L45.9067 19.3732L45.7931 19.6717L44.2612 19.0906L45.3019 16.3438H45.2992Z" fill="#F5F5F5"/>
  <path d="M47.6925 17.3205L46.8923 18.8683C46.5912 19.4493 46.7259 19.8297 47.0719 20.0119C47.4548 20.21 47.8404 20.0832 48.1363 19.5101L48.9366 17.9597L49.2773 18.1367L48.4902 19.6633C48.0755 20.4636 47.4865 20.5719 46.9213 20.2787C46.3878 20.004 46.1395 19.4916 46.5595 18.6807L47.3518 17.1436L47.6925 17.3205Z" fill="#F5F5F5"/>
  <path d="M49.7661 21.9986L49.8269 21.2485C49.8454 20.958 49.8612 20.7731 49.885 20.5803L49.8797 20.575C49.7133 20.6675 49.5522 20.7441 49.2828 20.8708L48.6251 21.1983L48.2686 20.9474L49.8559 20.2422L49.9801 18.5571L50.3419 18.808L50.2653 19.5951C50.2442 19.8143 50.2283 19.9834 50.2019 20.1577L50.2125 20.1656C50.3815 20.0705 50.5189 20.0019 50.717 19.9121L51.438 19.574L51.7999 19.8249L50.2495 20.4852L50.1359 22.2443L49.774 21.9934L49.7661 21.9986Z" fill="#F5F5F5"/>
  <path d="M37.9389 74.868C27.9392 74.868 18.5391 70.9748 11.4686 63.9043C4.39804 56.8337 0.504883 47.4336 0.504883 37.434C0.504883 27.4343 4.39804 18.0342 11.4686 10.9637C18.5391 3.89315 27.9392 0 37.9389 0C47.9385 0 57.3386 3.89315 64.4091 10.9637C71.4797 18.0342 75.3728 27.4343 75.3728 37.434C75.3728 47.4336 71.4797 56.8337 64.4091 63.9043C57.3386 70.9748 47.9385 74.868 37.9389 74.868ZM37.9389 1.15157C17.9343 1.15157 1.65645 17.4294 1.65645 37.434C1.65645 57.4386 17.9343 73.7164 37.9389 73.7164C57.9434 73.7164 74.2213 57.4412 74.2213 37.434C74.2213 17.4268 57.9461 1.15157 37.9389 1.15157Z" fill="#F5F5F5"/>
  <path d="M37.9394 62.0396C24.3714 62.0396 13.3364 51.0019 13.3364 37.434C13.3364 23.8661 24.3741 12.8311 37.9394 12.8311C51.5047 12.8311 62.545 23.8687 62.545 37.434C62.545 50.9993 51.5073 62.0396 37.9394 62.0396ZM37.9394 13.5495C24.7703 13.5495 14.0548 24.2649 14.0548 37.434C14.0548 50.6031 24.7703 61.3185 37.9394 61.3185C51.1085 61.3185 61.8239 50.6031 61.8239 37.434C61.8239 24.2649 51.1085 13.5495 37.9394 13.5495Z" fill="#F5F5F5"/>
  <path d="M10.0449 49.0892C11.075 48.6957 12.0285 47.9667 11.7775 47.309C11.5266 46.6567 10.3803 46.7227 9.24461 47.1558C8.13794 47.5784 7.28218 48.3127 7.51989 48.9334C7.76024 49.5594 8.86956 49.5382 10.0449 49.0892Z" fill="#F5F5F5"/>
  <path d="M47.5044 63.8806C47.5678 64.2081 47.6312 64.5435 47.684 64.8842L47.9138 66.5086L48.9016 66.1467L48.0326 64.7654C47.8345 64.4537 47.6734 64.1605 47.515 63.8779H47.5044V63.8806Z" fill="#F5F5F5"/>
  <path d="M59.8958 55.4419L59.8853 55.4525C60.0569 55.7324 60.1784 55.9437 60.3078 56.1762L61.1662 57.9775L61.1794 57.988L61.8899 57.1455L60.5271 55.9939C60.3131 55.8143 60.1018 55.6294 59.8958 55.4419Z" fill="#F5F5F5"/>
  <path d="M27.8837 8.09794C28.3803 7.89192 28.655 7.41915 28.4569 6.94637C28.2588 6.46831 27.7279 6.33625 27.2314 6.5449C26.7375 6.75356 26.4601 7.2237 26.6582 7.70176C26.8563 8.17189 27.3846 8.30395 27.8837 8.0953V8.09794Z" fill="#F5F5F5"/>
  <path d="M57.4618 59.913C56.8781 59.2104 56.2706 58.8063 55.9035 59.11C55.605 59.3583 55.7397 59.9526 56.2231 60.5337C56.6483 61.0461 57.1422 61.2468 57.446 60.9959C57.681 60.8004 57.7127 60.465 57.5991 60.1428C57.578 60.0767 57.5384 60.0028 57.4644 59.913H57.4618Z" fill="#F5F5F5"/>
  <path d="M24.4894 63.1647C24.8354 62.5387 24.7192 62.1162 24.3336 61.8943C24.1566 61.7966 24.0114 61.7543 23.9374 61.749L22.9575 63.5186L23.3352 63.7273C23.7314 63.9465 24.183 63.7167 24.4894 63.1621V63.1647Z" fill="#F5F5F5"/>
  <path d="M21.1877 15.2078C21.6393 14.8274 21.7714 14.2517 21.4544 13.8713C21.1348 13.4963 20.5432 13.5332 20.0942 13.9136C19.6452 14.2939 19.5079 14.8723 19.8248 15.25C20.1417 15.6277 20.7387 15.5907 21.185 15.2104L21.1877 15.2078Z" fill="#F5F5F5"/>
  <path d="M64.7525 25.4536L66.3478 25.0812L65.9014 24.1304L64.6019 25.1182C64.3087 25.3427 64.0314 25.5302 63.7646 25.7125L63.7699 25.723C64.0895 25.6306 64.4197 25.5381 64.7525 25.4563V25.4536Z" fill="#F5F5F5"/>
  <path d="M66.2228 29.7532C65.5281 29.9222 65.301 30.3104 65.404 30.7779C65.4568 30.9892 65.5228 31.1319 65.573 31.1953L67.5381 30.7198L67.4298 30.2708C67.3162 29.8033 66.8382 29.6026 66.2228 29.7505V29.7532Z" fill="#F5F5F5"/>
  <path d="M65.8995 33.6304C65.9919 34.3699 67.1224 34.6076 68.3294 34.4571C69.5048 34.3118 70.5084 33.7809 70.4213 33.0757C70.3341 32.3652 69.2486 32.0932 67.9993 32.2464C66.9058 32.3811 65.8071 32.8829 65.8995 33.6277V33.6304Z" fill="#F5F5F5"/>
  <path d="M63.0673 12.308C56.356 5.59663 47.4313 1.89893 37.9387 1.89893C28.4462 1.89893 19.5242 5.59663 12.8128 12.308C6.09887 19.0193 2.40381 27.9413 2.40381 37.4339C2.40381 46.9264 6.09887 55.8511 12.8128 62.5624C19.5242 69.2737 28.4489 72.9714 37.9387 72.9714C47.4286 72.9714 56.356 69.2737 63.0673 62.5624C69.7786 55.8511 73.4763 46.9264 73.4763 37.4339C73.4763 27.9413 69.7786 19.0193 63.0673 12.3053V12.308ZM71.1362 35.5586L68.4342 36.7551L69.0496 37.0747L71.1626 37.0377L71.1705 37.4893L65.6293 37.5844L65.6213 37.1328L68.2943 37.0879V37.072C68.0777 36.9822 67.8796 36.8924 67.6973 36.8079L65.6002 35.7778L65.5897 35.2179L67.9641 36.4408L71.1309 35.0224L71.1415 35.556L71.1362 35.5586ZM71.0042 33.0336C71.1177 33.9501 70.0692 34.7319 68.4052 34.9353C66.6593 35.1519 65.4312 34.6078 65.3176 33.6833C65.2014 32.7378 66.2764 31.9824 67.9086 31.7817C69.8024 31.5492 70.8959 32.1488 71.0042 33.0336ZM70.085 28.7099C69.9477 28.8024 69.5013 28.9899 68.8516 29.2461C68.1331 29.5261 67.8954 29.7743 67.9667 30.1784L68.0671 30.5905L70.402 30.0279L70.5076 30.4663L65.1935 31.7473C65.0693 31.5439 64.9531 31.2349 64.8792 30.9338C64.7682 30.4663 64.829 30.1309 65.0825 29.8456C65.2806 29.6159 65.6266 29.431 66.0413 29.3306C66.7518 29.1589 67.2932 29.328 67.5706 29.6396L67.5943 29.6343C67.6762 29.3385 68.0222 29.0876 68.561 28.8737C69.2847 28.5805 69.7865 28.3745 69.9767 28.2556L70.0876 28.7073L70.085 28.7099ZM69.7152 27.4395L64.4803 29.2593L63.8623 27.4791L64.4302 27.281L64.9003 28.636L66.5537 28.0602L66.1073 26.7792L66.6673 26.5864L67.1136 27.8674L69.0021 27.2124L68.5056 25.7835L69.0734 25.5854L69.7179 27.4395H69.7152ZM67.7871 22.7276L66.3688 23.8078L66.8944 24.9277L68.6271 24.5157L68.8251 24.9383L63.305 26.2219L63.0752 25.728L67.5838 22.2918L67.7898 22.7276H67.7871ZM63.2442 37.4339C63.2442 51.3874 51.8923 62.7394 37.9387 62.7394C23.9852 62.7394 12.6332 51.3874 12.6332 37.4339C12.6332 23.4803 23.9852 12.1284 37.9387 12.1284C51.8923 12.1284 63.2442 23.4803 63.2442 37.4339ZM62.3964 18.6733C62.8269 18.6733 63.1756 19.0219 63.1756 19.4525C63.1756 19.883 62.8269 20.2316 62.3964 20.2316C61.9659 20.2316 61.6173 19.883 61.6173 19.4525C61.6173 19.0219 61.9659 18.6733 62.3964 18.6733ZM53.9392 13.0871L54.6418 13.7025L56.1077 12.0227L56.8684 12.6857L55.4025 14.3681L55.9783 14.8726L57.4468 13.1901L58.2075 13.8531L56.7416 15.5355L57.489 16.1879L59.7314 13.6154L56.5725 10.8579L57.0215 10.3429L60.6664 13.5203C60.8487 13.6788 60.8672 13.9534 60.7087 14.133L58.2999 16.8958L58.6274 17.181L58.1731 17.704L53.477 13.6074L53.934 13.0845L53.9392 13.0871ZM46.3088 6.87234C46.4435 6.5686 46.7102 6.35994 47.0457 6.24373L46.5042 6.00338L46.771 5.39326L48.2685 6.05356L48.4587 5.6204L49.3382 6.00602L49.1454 6.44182L50.6456 7.10741L50.3762 7.71489L49.8295 7.47454C49.9721 7.79941 50.0012 8.14012 49.8665 8.44122C49.5522 9.15699 48.5274 9.37621 47.5211 8.93513C46.5016 8.48348 45.9865 7.58547 46.3008 6.87234H46.3088ZM45.8571 8.60762L49.8057 10.3482L51.2161 7.14967L52.1776 7.57226L51.6255 8.82684L52.3915 9.16227L52.1142 9.79088L51.3508 9.45017L50.68 10.9662L49.8269 12.8996L48.8681 12.4744L49.5363 10.9557L45.5851 9.2151L45.8518 8.61026L45.8571 8.60762ZM35.3451 4.46619H38.2451V5.15291H36.3725V7.37153H38.7258V4.2813H39.6529V5.8449H40.1891V4.2813H41.1214V10.0999H40.1891V6.52634H39.6529V10.0999H38.7258V8.06353H35.9314C35.5088 8.06353 35.3451 7.78092 35.3451 7.50095V4.46619ZM31.8402 10.4697L27.4267 12.3238C27.0358 12.4902 26.7796 12.2921 26.6713 12.0359L26.1378 10.7602L27.0807 10.3667L27.5799 11.5473L31.5893 9.86484L31.8428 10.4644L31.8402 10.4697ZM26.9856 5.96112C28.0659 5.50947 29.1092 5.68379 29.4657 6.53162C29.8196 7.37153 29.2122 8.23785 28.1345 8.69214C27.0516 9.14378 26.011 8.96946 25.6571 8.12956C25.3005 7.28173 25.908 6.41541 26.9856 5.95848V5.96112ZM31.0425 7.64357L31.2987 8.25369L28.8873 9.26528L29.2729 10.1844L28.3221 10.5859L27.9338 9.66675L25.5911 10.6519L25.3349 10.0444L31.0425 7.64621V7.64357ZM19.5902 9.68259L20.3482 10.5806L21.0482 9.98897L21.4892 10.5093L20.7893 11.1009L21.55 11.9989L20.7576 12.6672L18.7978 10.3535L19.5902 9.68259ZM18.0742 11.2119C18.2564 11.056 18.5311 11.0798 18.6869 11.262L19.849 12.6381L20.1158 12.4136L20.5358 12.9128C21.2278 12.6408 21.9118 12.6962 22.3027 13.1637C22.8548 13.8161 22.5246 14.9307 21.6081 15.7046C20.6942 16.4784 19.5532 16.6052 19.0012 15.9528C18.6156 15.4959 18.6631 14.825 19.0303 14.1964L17.1788 15.76L16.7535 15.2556L17.5301 14.6005L16.8645 13.8187L17.5591 13.2324L18.2221 14.0168L19.1016 13.272L18.1006 12.0914L15.9717 13.8927L15.528 13.3697L18.0768 11.2171L18.0742 11.2119ZM14.0489 18.6733C14.4795 18.6733 14.8281 19.0219 14.8281 19.4525C14.8281 19.883 14.4795 20.2316 14.0489 20.2316C13.6184 20.2316 13.2698 19.883 13.2698 19.4525C13.2698 19.0219 13.6184 18.6733 14.0489 18.6733ZM6.36299 27.5821L9.234 28.0919C9.93656 28.216 10.4754 28.3217 11.0195 28.4537V28.4432C10.5176 28.216 10.0237 27.9783 9.38191 27.6402L6.78559 26.2958L6.92293 25.8759L12.4272 26.8135L10.8267 24.8088L7.39307 24.6372L7.60172 24.1829L10.5256 24.3387L10.103 23.8025L8.18279 22.9204L8.35975 22.5374L13.3966 24.8485L13.2196 25.2314L10.7897 24.1168L10.7844 24.1301C10.9429 24.2991 11.0855 24.4602 11.2149 24.6108L12.6887 26.3883L12.4695 26.8637L12.4431 26.8294L12.3084 27.2388L9.52453 26.7317C8.83781 26.6075 8.15374 26.4755 7.62814 26.3645V26.3751C8.13261 26.5969 8.72424 26.9007 9.3687 27.2308L11.8884 28.5198L11.7511 28.9397L8.95403 28.4405C8.29901 28.3217 7.64927 28.2002 7.07876 28.0655V28.076C7.63342 28.3296 8.19072 28.6096 8.81404 28.9239L11.3364 30.2075L11.2017 30.6169L6.22565 28.0074L6.36299 27.5874V27.5821ZM5.42272 31.3776L7.20026 31.4013L7.44325 30.2682L5.81098 29.571L5.90342 29.1457L11.0908 31.3934L10.9851 31.8926L5.33292 31.8213L5.428 31.3802L5.42272 31.3776ZM4.98164 34.6685L7.88962 33.9395C8.52615 33.7784 9.18117 33.6305 9.79393 33.5328L9.78601 33.5169C9.08873 33.4668 8.42578 33.4034 7.50928 33.303L5.15596 33.0468L5.19822 32.6506L10.7078 33.2502L10.6576 33.7071L7.75756 34.4466C7.08669 34.6183 6.48449 34.7425 5.90342 34.8349L5.91135 34.8455C6.65089 34.8877 7.32175 34.9485 8.18015 35.0436L10.4859 35.2945L10.4437 35.6907L4.93409 35.0911L4.98164 34.6659V34.6685ZM5.5495 36.4725C6.00907 36.1898 6.74861 36.0155 7.61229 36.0155C9.26569 36.0208 10.4727 36.689 10.4727 37.7851C10.4727 38.1628 10.3327 38.4587 10.2165 38.6013L9.63282 38.4983C9.76488 38.324 9.87053 38.1047 9.87053 37.7746C9.87053 36.9796 9.03062 36.4593 7.64134 36.4593C6.25206 36.4593 5.40423 36.9584 5.40423 37.7191C5.40423 37.9964 5.47026 38.184 5.55214 38.2817H7.20554V37.6161H7.78133V38.6937H5.11634C5.00012 38.5062 4.8126 38.1311 4.8126 37.6901C4.8126 37.1962 5.02654 36.7868 5.54422 36.4672L5.5495 36.4725ZM5.21142 42.1009L8.02432 41.3297C8.71368 41.1395 9.24456 41.0048 9.79129 40.8912V40.8807C9.23664 40.8912 8.68726 40.8886 7.96357 40.8569L5.04238 40.7565L4.98692 40.3181L10.3829 38.7994L10.4384 39.2431L7.70473 39.98C7.03122 40.1622 6.35771 40.3366 5.83475 40.4607V40.4713C6.38941 40.4554 7.05499 40.4713 7.77869 40.495L10.6074 40.5769L10.6629 41.0154L7.92131 41.7628C7.2795 41.9371 6.63768 42.1062 6.06454 42.2277V42.2382C6.6773 42.2277 7.30063 42.2435 8.00055 42.2567L10.8293 42.3333L10.8821 42.7612L5.26689 42.5367L5.21142 42.0983V42.1009ZM5.82683 45.5583C5.61025 44.7236 6.5558 43.8494 8.18015 43.4268C9.88374 42.9831 11.1594 43.3185 11.3813 44.1637C11.6058 45.0274 10.6286 45.8778 9.03591 46.2925C7.18969 46.7732 6.03812 46.3665 5.82947 45.5583H5.82683ZM6.96783 49.1213C6.65881 48.3157 7.50136 47.3411 9.0676 46.7415C10.7104 46.1129 12.0178 46.3031 12.3295 47.1192C12.6491 47.9538 11.7722 48.9073 10.235 49.4963C8.4522 50.1777 7.26365 49.9004 6.96519 49.1213H6.96783ZM8.85894 53.1121L10.9165 50.9305C11.3681 50.4524 11.8382 49.9744 12.3005 49.5597L12.2872 49.5491C11.6718 49.8819 11.0802 50.1857 10.2561 50.5977L8.13525 51.6515L7.95829 51.295L12.9211 48.8281L13.1272 49.2401L11.0828 51.4244C10.6101 51.9315 10.1716 52.3594 9.73055 52.7529L9.74111 52.7582C10.3856 52.3937 10.9851 52.0847 11.759 51.7017L13.835 50.669L14.012 51.0256L9.04911 53.4925L8.85894 53.1095V53.1121ZM11.5636 57.412C11.1568 56.8811 11.3655 56.0835 12.731 55.0402L15.3246 53.054L15.5835 53.3921L12.9792 55.3889C11.9941 56.1442 11.7722 56.7227 12.039 57.0687C12.3348 57.4543 12.9528 57.3698 13.9274 56.625L16.5317 54.6308L16.7905 54.9689L14.2233 56.934C12.871 57.9693 11.9941 57.9746 11.5636 57.412ZM14.4821 60.6475L15.8186 57.9641C16.1117 57.3751 16.4234 56.7834 16.7483 56.2499L16.7324 56.2446C16.2411 56.7412 15.7604 57.206 15.0896 57.8346L13.3649 59.459L13.0928 59.1684L17.1286 55.3704L17.4455 55.7058L16.1223 58.3893C15.8159 59.0126 15.5201 59.5488 15.2137 60.0506H15.2269C15.7393 59.5171 16.2227 59.0469 16.8513 58.4553L18.539 56.8653L18.8111 57.1558L14.7753 60.9539L14.4821 60.6422V60.6475ZM15.5042 61.6274L19.2601 57.552L19.5691 57.8373L15.8133 61.9127L15.5042 61.6274ZM17.0863 63.0167L19.7408 58.0354L20.0947 58.3233L18.7741 60.7664C18.4122 61.4372 18.0847 62.0368 17.744 62.5967L17.7519 62.602C18.2273 62.1609 18.7714 61.704 19.3393 61.2312L21.4919 59.4484L21.8432 59.731L17.4482 63.3072L17.0863 63.0141V63.0167ZM20.4301 65.4466L18.9061 64.4192L22.0016 59.8208L23.4675 60.806L23.1321 61.3025L22.0175 60.5524L21.0402 62.0051L22.0941 62.7156L21.7639 63.2069L20.7101 62.4964L19.5928 64.1551L20.7682 64.9474L20.4328 65.4466H20.4301ZM23.0264 66.9204L22.6435 66.7091C22.6725 66.548 22.8389 66.0937 23.0925 65.444C23.3777 64.7282 23.3645 64.3901 23.0396 64.1841L22.691 63.9913L21.5289 66.0937L21.1591 65.8903L23.8056 61.1045C24.0275 61.1441 24.3153 61.255 24.5715 61.395C24.9677 61.6142 25.1526 61.8757 25.1817 62.2481C25.2054 62.5439 25.1051 62.919 24.8964 63.294C24.5425 63.9358 24.0697 64.229 23.6735 64.2343L23.6603 64.2554C23.8109 64.5063 23.7501 64.9263 23.5388 65.4677C23.2589 66.1967 23.0661 66.7012 23.0238 66.9204H23.0264ZM24.3233 67.6071C24.0354 67.4804 23.7818 67.1977 23.7026 66.9442L24.0433 66.4397C24.1357 66.6959 24.3233 66.96 24.5874 67.0762C24.9809 67.2506 25.3692 66.9997 25.5963 66.4899C25.805 66.0171 25.7654 65.6738 25.4801 65.2327C25.1209 64.7229 25.01 64.1603 25.3269 63.4472C25.6756 62.6575 26.3227 62.2428 26.9037 62.499C27.2101 62.6337 27.3792 62.8529 27.4558 63.0405L27.1124 63.5265C27.0543 63.3944 26.9222 63.154 26.6502 63.0352C26.2408 62.8556 25.9027 63.1989 25.7495 63.5449C25.5409 64.0177 25.6175 64.332 25.9106 64.7863C26.2698 65.341 26.3438 65.8692 26.0137 66.614C25.6677 67.3958 25.0258 67.9214 24.3206 67.6098L24.3233 67.6071ZM26.1457 68.2727L28.0738 63.0774L28.47 63.2254L26.5419 68.4206L26.1457 68.2727ZM29.8725 64.3241L28.4409 69.0466L28.0315 68.9225L29.4631 64.2L28.5122 63.9121L28.6892 63.3284L31.0056 64.0309L30.8286 64.612L29.8725 64.3215V64.3241ZM31.8006 67.4513L31.3172 69.7597L30.8999 69.6726L31.3832 67.3694L31.0267 64.0362L31.4968 64.1339L31.6342 65.7239C31.6711 66.1597 31.6975 66.511 31.7187 66.9099H31.7292C31.893 66.5771 32.0779 66.2469 32.2865 65.8613L33.0604 64.4614L33.5306 64.5592L31.8058 67.4487L31.8006 67.4513ZM38.0312 68.1539C37.6007 68.1539 37.252 67.8052 37.252 67.3747C37.252 66.9442 37.6007 66.5955 38.0312 66.5955C38.4617 66.5955 38.8103 66.9442 38.8103 67.3747C38.8103 67.8052 38.4617 68.1539 38.0312 68.1539ZM46.6653 69.3345L46.013 66.9891C45.8069 66.2443 45.5613 65.3462 45.4055 64.6754H45.3896C45.424 65.3383 45.4451 66.0435 45.453 66.828L45.4794 69.5854L45.1466 69.6646L43.9819 67.2294C43.6385 66.5084 43.3374 65.8454 43.0865 65.2274H43.0759C43.2265 65.9035 43.4166 66.8148 43.5804 67.6283L44.0426 69.9605L43.6253 70.0608L42.5714 64.6146L43.1314 64.4799L44.3358 66.9468C44.6369 67.5781 44.8931 68.1407 45.1123 68.6795H45.1281C45.0832 68.1116 45.0621 67.4909 45.0515 66.7752L45.0304 64.023L45.5904 63.8883L47.0932 69.2262L46.6653 69.3292V69.3345ZM50.1332 68.1459L49.1851 66.6378L48.0229 67.063L48.2818 68.8247L47.8433 68.9858L47.0536 63.3733L47.566 63.1857L50.5902 67.9795L50.1385 68.1459H50.1332ZM51.6546 67.4804L50.6641 65.3463L48.3187 62.919L48.7836 62.7024L49.8744 63.883C50.1729 64.2052 50.4106 64.4694 50.6721 64.7731L50.6826 64.7678C50.6192 64.3981 50.5743 64.0204 50.5215 63.5819L50.3313 61.984L50.7962 61.7674L51.0762 65.1455L52.0719 67.2875L51.6572 67.4777L51.6546 67.4804ZM56.5567 64.7229L53.9155 60.872L53.9075 60.8773L53.7095 61.6221L53.3238 61.218L53.5774 60.2857L53.897 60.0665L56.9185 64.4746L56.5567 64.7229ZM58.7304 63.1646C58.63 63.3019 58.5218 63.4023 58.4346 63.4631L58.0569 63.0061C58.1441 62.9559 58.2207 62.8714 58.3237 62.7526C58.4901 62.5386 58.5719 62.2481 58.535 61.9047C58.5006 61.5165 58.3263 61.0516 57.9697 60.526L57.9592 60.5366C58.0463 60.9354 57.975 61.2709 57.7162 61.4848C57.2487 61.8704 56.488 61.5614 55.9069 60.8588C55.2625 60.0797 55.0512 59.1024 55.5794 58.664C56.1103 58.2229 57.0031 58.6376 57.8747 59.6888C58.6248 60.5947 58.9576 61.3871 59.0289 61.9893C59.087 62.4647 58.9681 62.882 58.7304 63.1646ZM61.1207 61.1018C60.8513 61.3686 60.4842 61.4689 60.2438 61.4637L59.9374 60.9777C60.1223 60.9777 60.4789 60.9143 60.7034 60.6924C61.1181 60.2804 60.8302 59.731 60.5132 59.4194C59.9823 58.8911 59.4541 58.9651 59.1424 59.2741L58.9628 59.451L58.5799 59.0654L58.7595 58.8858C58.9945 58.6534 59.1002 58.1648 58.6538 57.7158C58.3527 57.412 57.9645 57.2641 57.666 57.5599C57.4758 57.7501 57.423 58.0671 57.4362 58.2863L56.9819 57.9957C56.9608 57.7263 57.0585 57.3381 57.3174 57.0819C57.7875 56.6144 58.4399 56.8468 58.8994 57.3064C59.2877 57.6973 59.47 58.1753 59.3458 58.6376L59.3564 58.6481C59.742 58.45 60.331 58.5636 60.8566 59.0945C61.4588 59.702 61.6886 60.5287 61.1154 61.0965L61.1207 61.1018ZM63.4371 58.4474L62.3251 57.5098L61.3162 58.7062L60.9517 58.3998L59.3115 55.0508L59.6284 54.6757L62.1693 56.8178L62.473 56.4559L62.9062 56.823L62.6024 57.1822L63.7144 58.1199L63.4371 58.4474ZM66.3292 54.5648C66.1522 54.8501 65.8274 55.0825 65.5606 55.1379L65.109 54.7259C65.3836 54.6572 65.6768 54.4935 65.8406 54.2294C66.0809 53.8358 65.896 53.4053 65.418 53.1121C64.9769 52.8401 64.6283 52.8427 64.1343 53.0936C63.5612 53.4106 62.9775 53.4661 62.3145 53.054C61.5776 52.6024 61.2686 51.8813 61.6252 51.3029C61.8127 50.9992 62.061 50.8486 62.2617 50.7879L62.6922 51.1999C62.547 51.2448 62.2855 51.3584 62.1191 51.6251C61.8682 52.0319 62.1587 52.4228 62.4809 52.6209C62.922 52.8929 63.2495 52.8454 63.754 52.5892C64.3721 52.2775 64.9135 52.259 65.6081 52.6843C66.3371 53.1333 66.7571 53.8622 66.3239 54.5622L66.3292 54.5648ZM67.3249 52.7159L62.4096 50.1566L63.2812 48.4847L63.8148 48.762L63.1518 50.0351L64.7048 50.8433L65.3308 49.6389L65.8564 49.9136L65.2304 51.118L67.0027 52.0424L67.7 50.7007L68.2335 50.978L67.3276 52.7186L67.3249 52.7159ZM69.2557 48.762C68.9466 49.631 67.6604 49.8608 66.0783 49.2982C64.4196 48.7066 63.5665 47.6739 63.8808 46.7943C64.2004 45.8963 65.4999 45.7035 67.0476 46.2555C68.8463 46.8947 69.5515 47.9248 69.253 48.762H69.2557ZM70.3359 45.0353C70.1775 45.7326 69.4221 46.1129 67.7475 45.7299L64.5649 45.0036L64.6679 44.5599L67.8664 45.2915C69.0761 45.5688 69.6677 45.347 69.7707 44.8927C69.8869 44.3882 69.43 43.9445 68.2362 43.6698L65.0376 42.9382L65.138 42.4944L68.289 43.2155C69.9477 43.5958 70.5023 44.301 70.3359 45.0379V45.0353ZM70.7189 42.6476L65.2278 41.8949L65.2886 41.4485L70.1854 42.1194L70.3887 40.6403L70.983 40.7222L70.7189 42.6476Z" fill="#F5F5F5"/>
  <path d="M8.88965 45.8673C9.9567 45.59 10.9841 44.972 10.8072 44.2905C10.6302 43.6144 9.48393 43.551 8.30594 43.86C7.15966 44.1585 6.22731 44.7924 6.39634 45.4342C6.56538 46.0813 7.67205 46.1843 8.88965 45.8673Z" fill="#F5F5F5"/>
  <path d="M47.7739 8.3727C48.2177 8.56551 48.7248 8.41496 48.9017 8.01085C49.0734 7.61203 48.8515 7.12605 48.4078 6.92795C47.9535 6.72986 47.4385 6.89362 47.2615 7.2898C47.0846 7.69127 47.317 8.17197 47.7739 8.3727Z" fill="#F5F5F5"/>
  <path d="M66.9208 46.7146C65.8828 46.3449 64.6758 46.3 64.4249 47.0078C64.174 47.7104 65.0799 48.4288 66.2262 48.8382C67.3408 49.2343 68.4765 49.2106 68.7142 48.5423C68.9546 47.8688 68.1067 47.1372 66.9208 46.7146Z" fill="#F5F5F5"/>
  <path d="M7.97115 30.4694L7.76514 31.4335L9.39213 31.4546C9.7619 31.4599 10.092 31.481 10.4169 31.4995V31.4889C10.1079 31.3727 9.78831 31.2486 9.47136 31.1165L7.97115 30.4668V30.4694Z" fill="#F5F5F5"/>
  <path d="M54.9695 26.51C54.885 26.2142 54.6341 26.0029 54.3277 25.9685C54.2802 25.9659 54.2326 25.9659 54.1824 25.9764L51.1107 26.5866V24.9094C51.1107 24.4181 50.6987 24.0167 50.1968 24.0167H40.5036C40.3477 24.0167 40.2236 23.8952 40.221 23.7446V23.7393L40.2157 21.32C40.2157 20.8261 39.8063 20.4272 39.3018 20.4272H36.6131C36.1086 20.4272 35.6992 20.8261 35.6992 21.32L35.6939 23.7393V23.7446C35.6939 23.8952 35.5671 24.0167 35.4113 24.0167H25.7207C25.2162 24.0167 24.8068 24.4181 24.8068 24.9094V26.5866L21.7324 25.9764C21.6849 25.9659 21.6374 25.9659 21.5898 25.9685C21.2834 26.0029 21.0325 26.2142 20.948 26.51C20.9322 26.5654 20.9269 26.6262 20.9322 26.6843L23.65 50.9069L23.7424 51.7838C23.8745 52.5128 24.3314 53.1651 25.0128 53.5772L36.9538 60.0059C37.276 60.1353 37.6141 60.2013 37.9574 60.2013C38.2982 60.2013 38.6362 60.1353 38.9611 60.0059L50.9021 53.5772C51.5835 53.1651 52.0404 52.5128 52.1725 51.7838L52.2649 50.9069L54.9827 26.6843C54.988 26.6262 54.9827 26.5654 54.9669 26.51H54.9695ZM25.7365 24.9226H35.6939C36.2116 24.9226 36.6289 24.5132 36.6289 24.0087V21.9195C36.6289 21.6026 36.8851 21.3438 37.2073 21.3305H38.7049C39.0298 21.3438 39.286 21.6026 39.286 21.9195V24.0087C39.286 24.5132 39.7059 24.9226 40.221 24.9226H50.1784V26.7715L48.7204 27.062V26.4096C48.7204 25.9025 48.2978 25.4878 47.7775 25.4878H44.0164C43.4961 25.4878 43.0735 25.9025 43.0735 26.4096V28.1819L41.6948 28.4539V26.4096C41.6948 25.9289 41.2933 25.5354 40.7994 25.5354H35.1129C34.6189 25.5354 34.2175 25.9263 34.2175 26.4096V28.4539L32.8361 28.1819V26.4096C32.8361 25.9025 32.4135 25.4878 31.8932 25.4878H28.1348C27.6144 25.4878 27.1918 25.9025 27.1918 26.4096V27.062L25.7339 26.7715V24.9226H25.7365ZM47.7326 27.2574L44.0639 27.9838V26.4519H47.7326V27.2548V27.2574ZM40.8047 28.6309L38.697 29.0482C38.5993 29.0746 38.1212 29.138 37.9601 29.138C37.799 29.138 37.3209 29.0746 37.2232 29.0482L35.1129 28.6309V26.407C35.1129 26.407 35.1129 26.407 35.1155 26.407H40.8047V28.6309ZM31.851 27.9838L28.1849 27.2574V26.4545H31.851V27.9864V27.9838ZM51.2296 51.6227C51.1583 52.0585 50.836 52.5286 50.3897 52.7822L38.5544 59.1528C38.3906 59.2162 38.1819 59.2505 37.9601 59.2505C37.7382 59.2505 37.5296 59.2162 37.3658 59.1528L25.5305 52.7822C25.0842 52.5286 24.7646 52.0585 24.6906 51.6227L21.9807 27.4238C21.9781 27.2548 22.0441 26.9933 22.538 27.0963L37.0066 29.9647C37.107 29.9937 37.2126 30.0122 37.3183 30.0281C37.5296 30.0624 37.7435 30.0783 37.9574 30.0783C38.1714 30.0783 38.388 30.0624 38.5966 30.0281C38.7023 30.0122 38.8079 29.9937 38.9083 29.9647L53.3795 27.0963C53.8708 26.9933 53.9395 27.2548 53.9368 27.4238L51.2296 51.6227Z" fill="#F5F5F5"/>
  <path d="M44.4678 34.7772C46.145 34.7772 47.4286 33.9663 47.4286 32.6484C47.4286 31.3304 46.145 30.5195 44.4678 30.5195C42.7907 30.5195 41.5044 31.3277 41.5044 32.6484C41.5044 33.969 42.7854 34.7772 44.4678 34.7772ZM44.4678 31.4308C45.2391 31.4308 45.865 31.8982 45.865 32.6431C45.865 33.3879 45.2391 33.8554 44.4678 33.8554C43.6966 33.8554 43.068 33.3879 43.068 32.6431C43.068 31.8982 43.694 31.4308 44.4678 31.4308Z" fill="#F5F5F5"/>
  <path d="M40.0176 35.0039V35.9521H43.6651V37.381H45.1468V35.9521H48.9185V35.0039H40.0176Z" fill="#F5F5F5"/>
  <path d="M42.1467 36.4092H40.6782V38.3874C40.6782 38.7836 40.9106 39.1904 41.5181 39.1904H48.4038V38.2527H42.1467V36.4092Z" fill="#F5F5F5"/>
  <path d="M33.3636 35.3633V34.4389H32.8644V31.8426C32.8644 31.5018 32.5818 31.2192 32.2411 31.2192H27.4341V32.2044H31.4593V34.4362H29.8059V32.9545H28.48V34.4362H27.0273V35.3818H30.49C29.5127 35.7304 28.8471 36.4277 28.8471 37.2782C28.8471 38.5037 30.2391 39.4202 31.9585 39.4202C33.6779 39.4202 35.0699 38.5064 35.0699 37.2782C35.0699 36.4119 34.3752 35.704 33.3636 35.3607V35.3633ZM31.9559 38.4905C31.1107 38.4905 30.4266 37.9834 30.4266 37.2756C30.4266 36.5677 31.1107 36.0606 31.9559 36.0606C32.801 36.0606 33.4825 36.5677 33.4825 37.2756C33.4825 37.9834 32.7984 38.4905 31.9559 38.4905Z" fill="#F5F5F5"/>
  <path d="M36.6293 32.6322H35.3166V30.9497H33.8296V35.3104H35.3166V33.6226H36.6293V32.6322Z" fill="#F5F5F5"/>
  <path d="M51.4901 39.9166L49.4827 40.3576C49.3507 40.3946 49.1262 40.4263 48.9888 40.4263H44.4776C42.0741 40.4263 39.4329 41.879 39.4329 46.723V52.5918C39.4329 53.0223 39.0077 53.0223 38.8677 53.0223C38.7277 53.0223 38.3051 53.0408 38.3051 52.5918V46.723C38.3051 43.8625 36.2159 40.4263 32.7453 40.4263H25.5322C25.3922 40.4263 25.2812 40.5399 25.2812 40.6772V46.2423C25.2812 46.3823 25.3605 46.5751 25.4609 46.6728L26.9373 48.1492C27.035 48.247 27.1169 48.4398 27.1169 48.5798L27.1248 50.7271C27.1248 52.4148 29.4306 52.4148 29.6445 52.4148C29.8585 52.4148 32.2144 52.4306 32.2144 50.7271C32.2144 50.7271 32.1854 47.9485 32.1854 47.238C32.1854 46.5275 31.6624 46.0125 31.3719 46.0125C31.0814 46.0125 31.0708 46.303 31.0708 46.5249V50.7271C31.0708 51.8522 29.8321 51.8285 29.6445 51.8285C29.457 51.8285 28.2183 51.8364 28.2183 50.7271V48.6299C28.2183 48.4926 28.1364 48.2971 28.0387 48.1994L26.8845 47.0452C26.7867 46.9475 26.7049 46.752 26.7049 46.6147V41.5092C26.7049 41.3692 26.8184 41.2557 26.9558 41.2557H32.748C34.6391 41.2557 35.9201 44.4198 35.9201 45.6876V53.4211C35.9201 53.5611 36.0336 53.6747 36.171 53.6747H40.3019C41.6489 53.6747 41.6594 52.3435 41.6594 52.3435V45.6903C41.6594 43.7648 43.2178 41.2583 44.4776 41.2583H48.6904C48.8303 41.2583 48.9069 41.3666 48.8647 41.4986C48.8647 41.4986 47.9376 44.9058 47.8161 45.1594C47.6946 45.4156 47.4199 45.5001 47.2826 45.5001H45.7243C45.5843 45.5001 45.2621 45.5159 45.4734 45.7457C45.682 45.9755 46.2103 45.9914 46.3476 45.9914H47.2826C47.4226 45.9914 47.5256 46.0997 47.4754 46.2291C47.4754 46.2291 47.1347 47.6817 46.8679 48.247C46.6012 48.8095 46.3555 48.8095 46.2155 48.8095H44.747C44.5252 48.8095 44.2716 48.9125 44.4935 49.1503C44.7153 49.388 45.0877 49.3431 45.3255 49.3431H46.3344C46.4717 49.3457 46.5325 49.4883 46.4691 49.6125C46.4691 49.6125 46.2446 50.323 46.0676 50.8301C45.8907 51.3345 45.064 51.4085 44.9266 51.4085H43.7988C43.6588 51.4085 43.4423 51.4534 43.5453 51.6541C43.6483 51.8549 44.1924 51.8998 44.3324 51.8998H45.6979C46.337 51.8998 46.926 51.3927 47.3381 50.6241C47.7501 49.8555 47.7263 49.6336 47.7712 49.4434C47.8161 49.2533 47.7818 49.2427 47.7052 49.2665C47.4384 49.3457 47.0343 49.3325 47.0343 49.3325C47.0343 49.3325 47.9984 48.9627 48.5028 47.761C48.8224 46.9977 49.0232 46.3004 49.0628 46.1578C49.1024 46.0125 49.0601 45.994 49.0073 46.0098C48.7115 46.1129 48.4289 46.0838 48.4289 46.0838C48.4289 46.0838 49.2741 45.7272 50.0612 43.8731C50.8482 42.019 51.638 40.083 51.638 40.083C51.6934 39.9562 51.6274 39.8822 51.4953 39.9192L51.4901 39.9166Z" fill="#F5F5F5"/>
  <path d="M29.3301 43.7944C29.1901 43.7944 29.0343 43.9001 28.9815 44.0269L28.4611 45.2814C28.4083 45.4082 28.477 45.5139 28.617 45.5139H29.3592C29.4991 45.5139 29.655 45.4082 29.7078 45.2814L30.2255 44.0269C30.2783 43.8974 30.2096 43.7944 30.0696 43.7944H29.3275H29.3301Z" fill="#F5F5F5"/>
</svg>