<svg width="238" height="70" viewBox="0 0 238 70" fill="none" xmlns="http://www.w3.org/2000/svg">
<path d="M23.8604 20.6696L21.4971 19.0051L21.8082 18.773L22.959 19.6003C23.2726 19.8299 23.5542 20.0374 23.8085 20.2473L23.8159 20.2423C23.6875 19.9411 23.569 19.5978 23.4554 19.2348L23.0158 17.8692L23.3195 17.642L24.174 20.43L23.8604 20.6646V20.6696Z" fill="#712732"/>
<path d="M25.774 17.8987L24.8554 18.4322L25.3542 19.2891L26.3815 18.6915L26.5321 18.9483L25.1937 19.7262L23.8132 17.353L25.0998 16.6047L25.248 16.8616L24.2726 17.4295L24.7097 18.1803L25.6283 17.6469L25.7765 17.9012L25.774 17.8987Z" fill="#712732"/>
<path d="M25.8262 16.2738C25.9768 16.1726 26.2065 16.0442 26.4263 15.9479C26.7745 15.7947 27.0313 15.7626 27.2437 15.8343C27.4165 15.8911 27.5647 16.0293 27.6536 16.2294C27.7968 16.5578 27.6857 16.869 27.4634 17.0739L27.4684 17.0838C27.6882 17.0665 27.8833 17.1974 28.0561 17.432C28.2907 17.7456 28.4586 17.963 28.5525 18.037L28.2166 18.1852C28.1425 18.1284 27.9919 17.9407 27.7894 17.6567C27.5622 17.3431 27.3671 17.2715 27.0683 17.39L26.7621 17.5234L27.2412 18.6124L26.9177 18.7557L25.8286 16.2738H25.8262ZM26.6534 17.2789L26.9868 17.1332C27.335 16.9801 27.4708 16.6936 27.3449 16.4072C27.2017 16.0837 26.9053 16.0442 26.5621 16.1948C26.4065 16.2639 26.3028 16.3232 26.2534 16.3627L26.6559 17.2814L26.6534 17.2789Z" fill="#712732"/>
<path d="M28.3842 15.2119L29.2683 17.8123L28.93 17.9283L28.0459 15.328L28.3842 15.2119Z" fill="#712732"/>
<path d="M29.7525 15.1231L28.9425 15.3256L28.8684 15.0342L30.8391 14.5378L30.9131 14.8317L30.1007 15.0367L30.6958 17.4074L30.3476 17.4938L29.7525 15.1231Z" fill="#712732"/>
<path d="M31.8048 16.2936L31.6443 17.1875L31.2812 17.2394L31.8245 14.3871L32.2444 14.3279L33.5581 16.9184L33.1828 16.9702L32.7703 16.1553L31.8073 16.2911L31.8048 16.2936ZM32.6642 15.8911L32.2814 15.1477C32.195 14.9774 32.1332 14.8218 32.069 14.6711H32.0616C32.0419 14.8366 32.027 15.0119 31.9949 15.1848L31.8394 16.0096L32.6642 15.8935V15.8911Z" fill="#712732"/>
<path d="M33.8765 16.4837C34.037 16.5825 34.2666 16.6541 34.5111 16.6492C34.8741 16.6418 35.0816 16.4467 35.0766 16.1701C35.0717 15.9182 34.9211 15.7701 34.5482 15.6392C34.0963 15.4861 33.8147 15.2539 33.8073 14.8712C33.7999 14.444 34.1456 14.118 34.6815 14.1056C34.9581 14.1007 35.168 14.16 35.2865 14.2291L35.1952 14.5205C35.1087 14.4711 34.9235 14.397 34.6741 14.402C34.2988 14.4094 34.1605 14.6366 34.1654 14.8243C34.1703 15.0811 34.3407 15.2021 34.721 15.3428C35.1902 15.5132 35.4248 15.7306 35.4347 16.1356C35.4446 16.5578 35.1408 16.9357 34.4938 16.9505C34.2296 16.9554 33.9382 16.8813 33.79 16.785L33.8765 16.4862V16.4837Z" fill="#712732"/>
<path d="M37.0916 16.0788C37.0348 16.5603 37.3113 16.7999 37.6719 16.8468C37.9262 16.8814 38.0892 16.8567 38.2275 16.8172L38.2572 17.0814C38.1238 17.1209 37.8966 17.1604 37.5855 17.1185C36.9829 17.037 36.6792 16.59 36.7582 15.9998C36.8372 15.4096 37.2471 14.9972 37.8151 15.0737C38.4572 15.1602 38.5486 15.738 38.4992 16.0986C38.4893 16.1702 38.4794 16.222 38.4646 16.2615L37.0916 16.0763V16.0788ZM38.1683 15.9627C38.2028 15.7405 38.1534 15.3775 37.7534 15.3231C37.3904 15.2737 37.1928 15.58 37.1311 15.8244L38.1683 15.9627Z" fill="#712732"/>
<path d="M39.7365 14.9872L39.6303 15.449L40.1292 15.5626L40.0674 15.8293L39.5661 15.7157L39.3291 16.7529C39.2747 16.99 39.3093 17.1406 39.5069 17.1851C39.6007 17.2073 39.66 17.2122 39.7143 17.2073L39.6674 17.4764C39.5958 17.4839 39.4822 17.4839 39.3464 17.4542C39.1834 17.4172 39.0648 17.3308 39.0031 17.2196C38.9315 17.0912 38.9315 16.9109 38.9833 16.6837L39.2229 15.6342L38.9241 15.5651L38.9858 15.2984L39.2822 15.3675L39.3636 15.0094L39.7291 14.9847L39.7365 14.9872Z" fill="#712732"/>
<path d="M41.8826 15.2811L42.2185 15.4095L41.3517 17.6988L42.4506 18.1136L42.3444 18.3927L40.9121 17.8494L41.8851 15.2811H41.8826Z" fill="#712732"/>
<path d="M44.1197 16.1949L43.3715 17.642C43.09 18.1853 43.2159 18.5409 43.5394 18.7113C43.8975 18.8965 44.258 18.778 44.5346 18.2421L45.2829 16.7925L45.6014 16.9579L44.8655 18.3853C44.4778 19.1336 43.9271 19.2348 43.3987 18.9607C42.8998 18.7039 42.6677 18.2248 43.0603 17.4667L43.8012 16.0294L44.1197 16.1949Z" fill="#712732"/>
<path d="M46.0584 20.5683L46.1152 19.867C46.1325 19.5953 46.1473 19.4225 46.1695 19.2422L46.1646 19.2373C46.009 19.3237 45.8584 19.3953 45.6065 19.5139L44.9916 19.8201L44.6582 19.5855L46.1424 18.9261L46.2584 17.3506L46.5967 17.5852L46.5251 18.3211C46.5054 18.5261 46.4906 18.6841 46.4659 18.8471L46.4757 18.8545C46.6338 18.7656 46.7622 18.7014 46.9474 18.6174L47.6216 18.3013L47.9599 18.5359L46.5103 19.1533L46.4041 20.798L46.0658 20.5634L46.0584 20.5683Z" fill="#712732"/>
<path d="M35 70C25.6505 70 16.8616 66.36 10.2508 59.7492C3.64002 53.1384 0 44.3495 0 35C0 25.6505 3.64002 16.8616 10.2508 10.2508C16.8616 3.64002 25.6505 0 35 0C44.3495 0 53.1384 3.64002 59.7492 10.2508C66.36 16.8616 70 25.6505 70 35C70 44.3495 66.36 53.1384 59.7492 59.7492C53.1384 66.36 44.3495 70 35 70ZM35 1.0767C16.2961 1.0767 1.0767 16.2961 1.0767 35C1.0767 53.7039 16.2961 68.9233 35 68.9233C53.7039 68.9233 68.9233 53.7063 68.9233 35C68.9233 16.2937 53.7063 1.0767 35 1.0767Z" fill="#712732"/>
<path d="M35.0001 58.0057C22.3143 58.0057 11.9968 47.6857 11.9968 34.9999C11.9968 22.3142 22.3168 11.9967 35.0001 11.9967C47.6833 11.9967 58.0058 22.3167 58.0058 34.9999C58.0058 47.6832 47.6858 58.0057 35.0001 58.0057ZM35.0001 12.6684C22.6872 12.6684 12.6685 22.6871 12.6685 34.9999C12.6685 47.3128 22.6872 57.3315 35.0001 57.3315C47.3129 57.3315 57.3316 47.3128 57.3316 34.9999C57.3316 22.6871 47.3129 12.6684 35.0001 12.6684Z" fill="#712732"/>
<path d="M8.91987 45.8978C9.88297 45.5298 10.7745 44.8483 10.5399 44.2334C10.3053 43.6234 9.2335 43.6851 8.17162 44.0901C7.13691 44.4852 6.33679 45.1718 6.55905 45.7521C6.78377 46.3374 7.82095 46.3176 8.91987 45.8978Z" fill="#712732"/>
<path d="M43.9446 59.727C44.0038 60.0332 44.0631 60.3468 44.1125 60.6654L44.3274 62.1841L45.2509 61.8458L44.4385 60.5542C44.2533 60.2628 44.1026 59.9887 43.9545 59.7245H43.9446V59.727Z" fill="#712732"/>
<path d="M55.5289 51.8369L55.519 51.8468C55.6796 52.1086 55.7932 52.3061 55.9142 52.5234L56.7167 54.2076L56.7291 54.2175L57.3934 53.4297L56.1191 52.353C55.9191 52.1851 55.7215 52.0122 55.5289 51.8369Z" fill="#712732"/>
<path d="M25.5987 7.57143C26.063 7.37881 26.3198 6.93677 26.1346 6.49473C25.9494 6.04776 25.453 5.92428 24.9887 6.11937C24.5269 6.31446 24.2676 6.75403 24.4529 7.201C24.6381 7.64057 25.132 7.76405 25.5987 7.56896V7.57143Z" fill="#712732"/>
<path d="M53.2545 56.0177C52.7088 55.3608 52.1408 54.983 51.7975 55.267C51.5185 55.4991 51.6444 56.0547 52.0963 56.598C52.4939 57.0771 52.9557 57.2648 53.2397 57.0302C53.4595 56.8474 53.4891 56.5338 53.3829 56.2325C53.3632 56.1708 53.3261 56.1017 53.257 56.0177H53.2545Z" fill="#712732"/>
<path d="M22.4255 59.0577C22.749 58.4724 22.6403 58.0773 22.2798 57.8698C22.1143 57.7785 21.9785 57.7389 21.9093 57.734L20.9932 59.3886L21.3463 59.5837C21.7167 59.7886 22.139 59.5738 22.4255 59.0552V59.0577Z" fill="#712732"/>
<path d="M19.3386 14.2193C19.7609 13.8637 19.8843 13.3253 19.588 12.9697C19.2892 12.619 18.736 12.6536 18.3162 13.0092C17.8964 13.3648 17.768 13.9056 18.0643 14.2588C18.3607 14.6119 18.9188 14.5773 19.3361 14.2217L19.3386 14.2193Z" fill="#712732"/>
<path d="M60.0701 23.7984L61.5616 23.4502L61.1443 22.5612L59.9293 23.4847C59.6552 23.6947 59.3959 23.87 59.1465 24.0404L59.1514 24.0503C59.4502 23.9638 59.7589 23.8774 60.0701 23.8008V23.7984Z" fill="#712732"/>
<path d="M61.4456 27.8187C60.7961 27.9768 60.5837 28.3398 60.68 28.7769C60.7294 28.9744 60.7912 29.1078 60.8381 29.1671L62.6754 28.7225L62.5741 28.3027C62.4679 27.8656 62.021 27.678 61.4456 27.8162V27.8187Z" fill="#712732"/>
<path d="M61.1421 31.4438C61.2285 32.1353 62.2854 32.3576 63.414 32.2168C64.5129 32.081 65.4513 31.5846 65.3698 30.9253C65.2883 30.261 64.2734 30.0066 63.1053 30.1498C62.0829 30.2758 61.0556 30.745 61.1421 31.4414V31.4438Z" fill="#712732"/>
<path d="M58.4948 11.5078C52.2198 5.23279 43.8754 1.77551 35.0001 1.77551C26.1248 1.77551 17.7828 5.23279 11.5079 11.5078C5.23044 17.7827 1.77563 26.1246 1.77563 35C1.77563 43.8753 5.23044 52.2197 11.5079 58.4946C17.7828 64.7696 26.1272 68.2269 35.0001 68.2269C43.8729 68.2269 52.2198 64.7696 58.4948 58.4946C64.7697 52.2197 68.227 43.8753 68.227 35C68.227 26.1246 64.7697 17.7827 58.4948 11.5053V11.5078ZM66.039 33.2466L63.5127 34.3653L64.0881 34.6641L66.0637 34.6295L66.0711 35.0518L60.8902 35.1407L60.8827 34.7184L63.3819 34.6765V34.6616C63.1794 34.5777 62.9941 34.4937 62.8238 34.4147L60.863 33.4516L60.8531 32.9281L63.0732 34.0714L66.0341 32.7453L66.044 33.2442L66.039 33.2466ZM65.9156 30.8858C66.0217 31.7427 65.0414 32.4737 63.4856 32.6638C61.8532 32.8663 60.7049 32.3576 60.5988 31.4933C60.4901 30.6092 61.4952 29.9029 63.0213 29.7153C64.7919 29.4979 65.8143 30.0585 65.9156 30.8858ZM65.0562 26.8432C64.9278 26.9297 64.5104 27.105 63.9029 27.3446C63.2312 27.6063 63.009 27.8385 63.0756 28.2163L63.1695 28.6015L65.3525 28.0755L65.4513 28.4855L60.4827 29.6832C60.3666 29.493 60.258 29.2041 60.1888 28.9226C60.0851 28.4855 60.1419 28.1718 60.379 27.9051C60.5642 27.6903 60.8877 27.5174 61.2754 27.4236C61.9397 27.2631 62.4459 27.4211 62.7052 27.7125L62.7274 27.7076C62.804 27.431 63.1275 27.1964 63.6313 26.9964C64.3079 26.7222 64.7771 26.5296 64.9549 26.4185L65.0586 26.8408L65.0562 26.8432ZM64.7104 25.6554L59.8159 27.3569L59.2381 25.6925L59.769 25.5073L60.2086 26.7741L61.7545 26.2358L61.3371 25.0381L61.8607 24.8578L62.278 26.0555L64.0437 25.4431L63.5794 24.1071L64.1104 23.9218L64.7129 25.6554H64.7104ZM62.9077 21.2499L61.5816 22.2599L62.073 23.3069L63.693 22.9217L63.8782 23.3168L58.717 24.517L58.5022 24.0552L62.7176 20.8424L62.9102 21.2499H62.9077ZM58.6602 35C58.6602 48.0462 48.0464 58.6601 35.0001 58.6601C21.9538 58.6601 11.3399 48.0462 11.3399 35C11.3399 21.9537 21.9538 11.3398 35.0001 11.3398C48.0464 11.3398 58.6602 21.9537 58.6602 35ZM57.8675 17.4592C58.27 17.4592 58.596 17.7852 58.596 18.1877C58.596 18.5902 58.27 18.9162 57.8675 18.9162C57.465 18.9162 57.139 18.5902 57.139 18.1877C57.139 17.7852 57.465 17.4592 57.8675 17.4592ZM49.9602 12.2362L50.6171 12.8116L51.9877 11.241L52.6989 11.8609L51.3283 13.4339L51.8667 13.9056L53.2397 12.3326L53.9509 12.9524L52.5803 14.5255L53.2792 15.1354L55.3758 12.7301L52.4223 10.152L52.8421 9.67045L56.25 12.6412C56.4204 12.7894 56.4377 13.0462 56.2895 13.2142L54.0373 15.7972L54.3435 16.064L53.9188 16.5529L49.5281 12.7227L49.9553 12.2338L49.9602 12.2362ZM42.8259 6.42555C42.9518 6.14156 43.2012 5.94647 43.5149 5.83781L43.0086 5.61309L43.258 5.04264L44.6582 5.66001L44.836 5.25502L45.6584 5.61556L45.4781 6.02303L46.8808 6.64534L46.6289 7.21332L46.1177 6.98859C46.251 7.29234 46.2782 7.6109 46.1523 7.89243C45.8584 8.56166 44.9002 8.76662 43.9594 8.35422C43.0061 7.93194 42.5246 7.09231 42.8185 6.42555H42.8259ZM42.4036 8.048L46.0955 9.67539L47.4142 6.68485L48.3131 7.07997L47.7969 8.25297L48.5131 8.56659L48.2538 9.15433L47.5401 8.83577L46.9129 10.2533L46.1152 12.0609L45.2188 11.6633L45.8436 10.2434L42.1492 8.61598L42.3987 8.05047L42.4036 8.048ZM32.575 4.17585H35.2865V4.81792H33.5357V6.89228H35.736V4.00299H36.6028V5.46492H37.1041V4.00299H37.9758V9.44326H37.1041V6.10205H36.6028V9.44326H35.736V7.53929H33.1233C32.7282 7.53929 32.575 7.27505 32.575 7.01329V4.17585ZM29.298 9.78899L25.1715 11.5226C24.806 11.6781 24.5665 11.4929 24.4653 11.2534L23.9664 10.0606L24.848 9.69268L25.3148 10.7965L29.0634 9.22348L29.3005 9.78405L29.298 9.78899ZM24.7591 5.57358C25.7691 5.1513 26.7446 5.31428 27.078 6.10699C27.4089 6.89228 26.8409 7.70227 25.8334 8.12703C24.8209 8.54931 23.8479 8.38632 23.517 7.60103C23.1836 6.80832 23.7516 5.99833 24.7591 5.57111V5.57358ZM28.5523 7.14664L28.7918 7.71709L26.5372 8.6629L26.8977 9.52229L26.0087 9.89765L25.6457 9.03827L23.4552 9.95938L23.2157 9.3914L28.5523 7.14911V7.14664ZM17.8446 9.05308L18.5533 9.89271L19.2077 9.33954L19.6201 9.82603L18.9657 10.3792L19.6769 11.2188L18.9361 11.8436L17.1037 9.68033L17.8446 9.05308ZM16.4271 10.4829C16.5975 10.3372 16.8543 10.3594 17 10.5298L18.0866 11.8164L18.336 11.6065L18.7286 12.0733C19.3756 11.8189 20.0152 11.8708 20.3807 12.3079C20.8969 12.9178 20.5882 13.9599 19.7313 14.6835C18.8768 15.4071 17.81 15.5256 17.2939 14.9156C16.9333 14.4884 16.9778 13.8612 17.321 13.2734L15.5899 14.7354L15.1923 14.2637L15.9184 13.6513L15.2961 12.9203L15.9455 12.3721L16.5654 13.1055L17.3877 12.4091L16.4518 11.3053L14.4614 12.9894L14.0465 12.5005L16.4296 10.4879L16.4271 10.4829ZM12.6636 17.4592C13.0661 17.4592 13.3921 17.7852 13.3921 18.1877C13.3921 18.5902 13.0661 18.9162 12.6636 18.9162C12.2611 18.9162 11.9351 18.5902 11.9351 18.1877C11.9351 17.7852 12.2611 17.4592 12.6636 17.4592ZM5.47739 25.7888L8.16172 26.2654C8.8186 26.3815 9.32238 26.4802 9.83109 26.6037V26.5938C9.36189 26.3815 8.9001 26.1592 8.30001 25.8431L5.87251 24.5861L6.00092 24.1935L11.1473 25.0702L9.65082 23.1958L6.44049 23.0353L6.63558 22.6106L9.3693 22.7563L8.97418 22.2549L7.17887 21.4301L7.34432 21.0721L12.0536 23.2329L11.8882 23.5909L9.61625 22.5488L9.61131 22.5612C9.75948 22.7192 9.89283 22.8698 10.0138 23.0106L11.3918 24.6726L11.1868 25.1171L11.1621 25.085L11.0362 25.4677L8.43336 24.9936C7.7913 24.8775 7.1517 24.7541 6.66027 24.6503V24.6602C7.13195 24.8677 7.68511 25.1517 8.28767 25.4603L10.6436 26.6654L10.5151 27.0581L7.89996 26.5914C7.28752 26.4802 6.68003 26.3666 6.14662 26.2407V26.2506C6.66521 26.4876 7.18627 26.7494 7.76907 27.0433L10.1274 28.2434L10.0015 28.6262L5.34898 26.1864L5.47739 25.7937V25.7888ZM4.59826 29.3374L6.26022 29.3597L6.48741 28.3002L4.96127 27.6483L5.0477 27.2507L9.89777 29.3522L9.79899 29.819L4.51429 29.7523L4.60319 29.3399L4.59826 29.3374ZM4.18585 32.4144L6.90475 31.7328C7.4999 31.5822 8.11233 31.4439 8.68525 31.3525L8.67784 31.3377C8.0259 31.2908 7.40606 31.2315 6.54915 31.1377L4.34884 30.8981L4.38835 30.5277L9.53969 31.0883L9.49277 31.5155L6.78128 32.207C6.15403 32.3675 5.59099 32.4835 5.0477 32.57L5.05511 32.5799C5.74657 32.6194 6.37381 32.6762 7.1764 32.7651L9.33226 32.9997L9.29275 33.3701L4.1414 32.8095L4.18585 32.4119V32.4144ZM4.71679 34.1011C5.14648 33.8368 5.83794 33.6738 6.64546 33.6738C8.19136 33.6788 9.31991 34.3036 9.31991 35.3284C9.31991 35.6815 9.18903 35.9581 9.08037 36.0915L8.53461 35.9952C8.65809 35.8322 8.75687 35.6272 8.75687 35.3185C8.75687 34.5752 7.97157 34.0887 6.67262 34.0887C5.37367 34.0887 4.58097 34.5554 4.58097 35.2667C4.58097 35.526 4.64271 35.7013 4.71926 35.7927H6.26516V35.1703H6.8035V36.1779H4.31179C4.20314 36.0026 4.0278 35.6519 4.0278 35.2395C4.0278 34.7777 4.22783 34.3949 4.71185 34.0961L4.71679 34.1011ZM4.4007 39.3635L7.0307 38.6424C7.67523 38.4646 8.1716 38.3387 8.68278 38.2325V38.2226C8.16419 38.2325 7.65054 38.23 6.9739 38.2004L4.24265 38.1066L4.19079 37.6966L9.23595 36.2767L9.28781 36.6916L6.73189 37.3805C6.10217 37.5509 5.47245 37.7139 4.98349 37.83V37.8399C5.50209 37.825 6.1244 37.8399 6.80104 37.8621L9.44585 37.9386L9.49771 38.3486L6.93439 39.0474C6.3343 39.2104 5.73422 39.3685 5.19834 39.4821V39.4919C5.77126 39.4821 6.35406 39.4969 7.00847 39.5092L9.65329 39.5808L9.70268 39.9809L4.45256 39.771L4.4007 39.3611V39.3635ZM4.97609 42.5961C4.77359 41.8157 5.65766 40.9983 7.1764 40.6032C8.76921 40.1883 9.96198 40.502 10.1694 41.2922C10.3793 42.0997 9.46561 42.8949 7.97651 43.2826C6.25034 43.7321 5.17365 43.3518 4.97856 42.5961H4.97609ZM6.0429 45.9274C5.75397 45.1742 6.54174 44.263 8.00614 43.7024C9.54216 43.1147 10.7646 43.2925 11.056 44.0556C11.3548 44.8359 10.5349 45.7274 9.09766 46.2781C7.43075 46.9152 6.31949 46.6559 6.04043 45.9274H6.0429ZM7.81105 49.6588L9.73478 47.619C10.1571 47.172 10.5966 46.7251 11.0288 46.3374L11.0164 46.3275C10.4411 46.6386 9.88789 46.9226 9.11741 47.3079L7.13442 48.2932L6.96896 47.9598L11.6091 45.6533L11.8017 46.0385L9.89036 48.0808C9.44832 48.555 9.03839 48.955 8.62598 49.323L8.63586 49.3279C9.23842 48.9871 9.79899 48.6982 10.5225 48.3401L12.4636 47.3745L12.629 47.7079L7.98886 50.0144L7.81105 49.6563V49.6588ZM10.3398 53.6791C9.95951 53.1828 10.1546 52.437 11.4313 51.4615L13.8564 49.6045L14.0984 49.9206L11.6635 51.7875C10.7423 52.4938 10.5349 53.0346 10.7843 53.3581C11.0609 53.7186 11.6388 53.6396 12.55 52.9432L14.9849 51.0788L15.2269 51.3949L12.8266 53.2322C11.5622 54.2002 10.7423 54.2051 10.3398 53.6791ZM13.0686 56.7043L14.3181 54.1953C14.5923 53.6446 14.8837 53.0914 15.1874 52.5926L15.1726 52.5876C14.7133 53.0519 14.2638 53.4865 13.6366 54.0743L12.024 55.593L11.7696 55.3213L15.543 51.7702L15.8393 52.0838L14.6021 54.5928C14.3157 55.1756 14.0391 55.6769 13.7526 56.1461H13.765C14.2441 55.6473 14.696 55.2077 15.2837 54.6546L16.8617 53.168L17.1161 53.4396L13.3427 56.9907L13.0686 56.6993V56.7043ZM14.0243 57.6204L17.5359 53.81L17.8248 54.0767L14.3132 57.8871L14.0243 57.6204ZM15.5035 58.9194L17.9853 54.2619L18.3162 54.5311L17.0815 56.8154C16.7432 57.4426 16.437 58.0032 16.1184 58.5267L16.1258 58.5317C16.5703 58.1193 17.079 57.692 17.61 57.25L19.6226 55.5831L19.951 55.8473L15.8418 59.191L15.5035 58.9169V58.9194ZM18.6299 61.1913L17.205 60.2307L20.0992 55.9313L21.4698 56.8524L21.1561 57.3167L20.114 56.6153L19.2003 57.9736L20.1856 58.6379L19.877 59.0972L18.8916 58.4329L17.847 59.9837L18.946 60.7246L18.6323 61.1913H18.6299ZM21.0574 62.5693L20.6993 62.3717C20.7265 62.2211 20.882 61.7963 21.1191 61.1888C21.3858 60.5196 21.3735 60.2035 21.0697 60.0109L20.7437 59.8306L19.6572 61.7963L19.3114 61.6062L21.7859 57.1315C21.9933 57.1685 22.2625 57.2722 22.502 57.4031C22.8724 57.6081 23.0453 57.8526 23.0725 58.2008C23.0947 58.4773 23.0009 58.828 22.8058 59.1787C22.4749 59.7788 22.0328 60.0529 21.6624 60.0578L21.65 60.0776C21.7908 60.3122 21.734 60.7048 21.5364 61.2111C21.2747 61.8926 21.0944 62.3643 21.0549 62.5693H21.0574ZM22.2699 63.2113C22.0007 63.0928 21.7636 62.8286 21.6896 62.5915L22.0081 62.1198C22.0946 62.3594 22.2699 62.6063 22.5168 62.715C22.8848 62.878 23.2478 62.6434 23.4602 62.1668C23.6553 61.7247 23.6182 61.4037 23.3515 60.9913C23.0157 60.5147 22.912 59.9887 23.2083 59.3219C23.5343 58.5835 24.1393 58.1958 24.6826 58.4354C24.969 58.5613 25.1271 58.7663 25.1987 58.9416L24.8777 59.396C24.8233 59.2725 24.6999 59.0478 24.4455 58.9367C24.0627 58.7687 23.7466 59.0898 23.6034 59.4133C23.4083 59.8553 23.4799 60.1492 23.754 60.5739C24.0899 61.0925 24.159 61.5864 23.8504 62.2828C23.5269 63.0138 22.9268 63.5052 22.2674 63.2138L22.2699 63.2113ZM23.9738 63.8337L25.7766 58.9762L26.147 59.1145L24.3443 63.9719L23.9738 63.8337ZM27.4583 60.1418L26.1198 64.5572L25.737 64.4412L27.0755 60.0257L26.1865 59.7565L26.3519 59.2108L28.5177 59.8677L28.3522 60.4109L27.4583 60.1393V60.1418ZM29.261 63.0656L28.8091 65.224L28.4189 65.1425L28.8708 62.9891L28.5374 59.8726L28.977 59.964L29.1054 61.4506C29.14 61.8581 29.1647 62.1865 29.1844 62.5594H29.1943C29.3474 62.2482 29.5203 61.9396 29.7154 61.579L30.4389 60.2702L30.8785 60.3616L29.2659 63.0632L29.261 63.0656ZM35.0865 63.7225C34.684 63.7225 34.358 63.3966 34.358 62.994C34.358 62.5915 34.684 62.2655 35.0865 62.2655C35.489 62.2655 35.815 62.5915 35.815 62.994C35.815 63.3966 35.489 63.7225 35.0865 63.7225ZM43.1593 64.8264L42.5493 62.6335C42.3567 61.9371 42.127 61.0975 41.9813 60.4702H41.9665C41.9986 61.0901 42.0183 61.7494 42.0258 62.4828L42.0505 65.061L41.7393 65.1351L40.6503 62.8582C40.3292 62.184 40.0477 61.5642 39.8131 60.9863H39.8032C39.944 61.6185 40.1218 62.4705 40.2749 63.2311L40.7071 65.4117L40.3169 65.5055L39.3316 60.4134L39.8551 60.2875L40.9812 62.594C41.2627 63.1842 41.5022 63.7102 41.7072 64.214H41.722C41.68 63.683 41.6603 63.1027 41.6504 62.4335L41.6306 59.8603L42.1542 59.7343L43.5593 64.7251L43.1593 64.8214V64.8264ZM46.4017 63.7151L45.5151 62.305L44.4286 62.7026L44.6706 64.3498L44.2606 64.5004L43.5223 59.2528L44.0013 59.0774L46.8289 63.5595L46.4066 63.7151H46.4017ZM47.8241 63.0928L46.8981 61.0975L44.7052 58.828L45.1398 58.6255L46.1597 59.7294C46.4387 60.0306 46.661 60.2776 46.9055 60.5616L46.9153 60.5566C46.8561 60.2109 46.8141 59.8578 46.7647 59.4478L46.5869 57.9538L47.0215 57.7513L47.2833 60.9098L48.2143 62.9125L47.8266 63.0903L47.8241 63.0928ZM52.4075 60.5147L49.938 56.9142L49.9306 56.9191L49.7454 57.6155L49.3848 57.2377L49.6219 56.3659L49.9207 56.161L52.7458 60.2825L52.4075 60.5147ZM54.4399 59.0577C54.346 59.1861 54.2448 59.2799 54.1633 59.3367L53.8101 58.9095C53.8916 58.8626 53.9632 58.7836 54.0596 58.6724C54.2151 58.4724 54.2917 58.2008 54.2571 57.8797C54.225 57.5167 54.062 57.0821 53.7286 56.5907L53.7188 56.6005C53.8003 56.9734 53.7336 57.287 53.4916 57.4871C53.0545 57.8476 52.3433 57.5587 51.8 56.9018C51.1974 56.1733 50.9999 55.2596 51.4938 54.8497C51.9901 54.4373 52.8248 54.825 53.6397 55.8078C54.3411 56.6549 54.6522 57.3957 54.7189 57.9588C54.7732 58.4033 54.6621 58.7934 54.4399 59.0577ZM56.6747 57.129C56.4229 57.3784 56.0796 57.4723 55.8549 57.4673L55.5684 57.0129C55.7413 57.0129 56.0747 56.9537 56.2846 56.7462C56.6723 56.361 56.4031 55.8473 56.1068 55.5559C55.6104 55.062 55.1165 55.1312 54.8251 55.4201L54.6572 55.5856L54.2991 55.225L54.467 55.0571C54.6868 54.8398 54.7856 54.3829 54.3682 53.9631C54.0867 53.6791 53.7237 53.5408 53.4447 53.8174C53.2669 53.9952 53.2175 54.2916 53.2298 54.4965L52.8051 54.2249C52.7853 53.973 52.8767 53.61 53.1187 53.3704C53.5583 52.9333 54.1682 53.1507 54.5979 53.5804C54.9609 53.9458 55.1313 54.3928 55.0152 54.825L55.0251 54.8349C55.3857 54.6496 55.9364 54.7558 56.4278 55.2522C56.9908 55.8202 57.2057 56.5931 56.6698 57.1241L56.6747 57.129ZM58.8405 54.6472L57.8008 53.7705L56.8575 54.8892L56.5167 54.6027L54.9831 51.4714L55.2795 51.1207L57.6551 53.1235L57.9391 52.7852L58.3441 53.1284L58.0601 53.4643L59.0998 54.341L58.8405 54.6472ZM61.5446 51.017C61.3791 51.2837 61.0754 51.501 60.8259 51.5529L60.4037 51.1677C60.6605 51.1035 60.9346 50.9504 61.0877 50.7034C61.3124 50.3355 61.1396 49.9329 60.6926 49.6588C60.2802 49.4045 59.9542 49.4069 59.4924 49.6415C58.9565 49.9379 58.4108 49.9897 57.791 49.6045C57.102 49.1822 56.813 48.508 57.1464 47.9672C57.3217 47.6832 57.5539 47.5425 57.7416 47.4857L58.1441 47.8709C58.0083 47.9129 57.7638 48.0191 57.6082 48.2685C57.3736 48.6488 57.6452 49.0143 57.9465 49.1995C58.3589 49.4538 58.6651 49.4094 59.1368 49.1699C59.7147 48.8785 60.2209 48.8612 60.8704 49.2588C61.552 49.6786 61.9446 50.3601 61.5396 51.0146L61.5446 51.017ZM62.4756 49.2884L57.8799 46.8955L58.6948 45.3323L59.1936 45.5916L58.5738 46.7819L60.0258 47.5375L60.6111 46.4114L61.1025 46.6683L60.5173 47.7943L62.1743 48.6587L62.8262 47.4042L63.3251 47.6635L62.478 49.2909L62.4756 49.2884ZM64.2808 45.5916C63.9918 46.404 62.7892 46.6189 61.31 46.0929C59.7591 45.5397 58.9615 44.5741 59.2554 43.7518C59.5542 42.9122 60.7691 42.7319 62.2163 43.248C63.898 43.8456 64.5573 44.8087 64.2783 45.5916H64.2808ZM65.2908 42.1071C65.1426 42.7591 64.4363 43.1147 62.8707 42.7566L59.8949 42.0775L59.9913 41.6626L62.9818 42.3467C64.1128 42.606 64.666 42.3985 64.7623 41.9738C64.871 41.5021 64.4437 41.0872 63.3275 40.8304L60.337 40.1464L60.4308 39.7315L63.3769 40.4057C64.9278 40.7613 65.4464 41.4206 65.2908 42.1096V42.1071ZM65.6488 39.8747L60.5148 39.1709L60.5716 38.7536L65.15 39.3808L65.3402 37.9979L65.8958 38.0745L65.6488 39.8747Z" fill="#712732"/>
<path d="M7.8405 42.8851C8.83817 42.6258 9.7988 42.0479 9.63335 41.4108C9.46789 40.7786 8.39614 40.7193 7.29475 41.0082C6.22299 41.2873 5.35126 41.88 5.50931 42.4801C5.66736 43.0851 6.70207 43.1814 7.8405 42.8851Z" fill="#712732"/>
<path d="M44.1965 7.82822C44.6113 8.00849 45.0855 7.86773 45.2509 7.4899C45.4115 7.11701 45.204 6.66262 44.7891 6.47741C44.3644 6.2922 43.8828 6.44531 43.7174 6.81573C43.5519 7.19109 43.7693 7.64054 44.1965 7.82822Z" fill="#712732"/>
<path d="M62.0976 43.6778C61.1271 43.332 59.9985 43.29 59.7639 43.9519C59.5293 44.6087 60.3764 45.2804 61.4481 45.6632C62.4903 46.0336 63.5521 46.0114 63.7744 45.3866C63.9991 44.7569 63.2064 44.0729 62.0976 43.6778Z" fill="#712732"/>
<path d="M6.98095 28.4879L6.78833 29.3893L8.30953 29.4091C8.65526 29.414 8.96395 29.4338 9.26769 29.451V29.4412C8.97876 29.3325 8.67996 29.2164 8.38362 29.093L6.98095 28.4855V28.4879Z" fill="#712732"/>
<path d="M50.9233 24.7862C50.8442 24.5096 50.6096 24.3121 50.3232 24.28C50.2787 24.2775 50.2343 24.2775 50.1874 24.2874L47.3154 24.8578V23.2897C47.3154 22.8304 46.9301 22.455 46.4609 22.455H37.3979C37.2522 22.455 37.1361 22.3414 37.1337 22.2007V22.1957L37.1287 19.9337C37.1287 19.4719 36.746 19.099 36.2743 19.099H33.7604C33.2887 19.099 32.9059 19.4719 32.9059 19.9337L32.901 22.1957V22.2007C32.901 22.3414 32.7824 22.455 32.6367 22.455H23.5762C23.1045 22.455 22.7218 22.8304 22.7218 23.2897V24.8578L19.8473 24.2874C19.8028 24.2775 19.7584 24.2775 19.7139 24.28C19.4275 24.3121 19.1929 24.5096 19.1138 24.7862C19.099 24.8381 19.0941 24.8949 19.099 24.9492L21.6401 47.5969L21.7266 48.4167C21.85 49.0983 22.2772 49.7083 22.9144 50.0935L34.0789 56.1042C34.3802 56.2252 34.6963 56.287 35.0173 56.287C35.3359 56.287 35.652 56.2252 35.9557 56.1042L47.1203 50.0935C47.7574 49.7083 48.1846 49.0983 48.3081 48.4167L48.3945 47.5969L50.9356 24.9492C50.9405 24.8949 50.9356 24.8381 50.9208 24.7862H50.9233ZM23.591 23.3021H32.901C33.385 23.3021 33.7752 22.9193 33.7752 22.4476V20.4943C33.7752 20.1979 34.0147 19.9559 34.316 19.9436H35.7162C36.0199 19.9559 36.2595 20.1979 36.2595 20.4943V22.4476C36.2595 22.9193 36.6521 23.3021 37.1337 23.3021H46.4436V25.0307L45.0805 25.3023V24.6924C45.0805 24.2182 44.6853 23.8305 44.1989 23.8305H40.6823C40.1958 23.8305 39.8007 24.2182 39.8007 24.6924V26.3494L38.5116 26.6038V24.6924C38.5116 24.2429 38.1363 23.875 37.6745 23.875H32.3577C31.8959 23.875 31.5205 24.2405 31.5205 24.6924V26.6038L30.229 26.3494V24.6924C30.229 24.2182 29.8339 23.8305 29.3474 23.8305H25.8333C25.3468 23.8305 24.9517 24.2182 24.9517 24.6924V25.3023L23.5885 25.0307V23.3021H23.591ZM44.1569 25.4851L40.7268 26.1642V24.7319H44.1569V25.4826V25.4851ZM37.6794 26.7692L35.7088 27.1594C35.6174 27.1841 35.1704 27.2434 35.0198 27.2434C34.8691 27.2434 34.4222 27.1841 34.3308 27.1594L32.3577 26.7692V24.6899C32.3577 24.6899 32.3577 24.6899 32.3602 24.6899H37.6794V26.7692ZM29.3079 26.1642L25.8802 25.4851V24.7344H29.3079V26.1667V26.1642ZM47.4265 48.2661C47.3598 48.6735 47.0585 49.1131 46.6412 49.3502L35.5754 55.3066C35.4223 55.3659 35.2272 55.398 35.0198 55.398C34.8123 55.398 34.6173 55.3659 34.4642 55.3066L23.3984 49.3502C22.9811 49.1131 22.6822 48.6735 22.6131 48.2661L20.0794 25.6407C20.0769 25.4826 20.1387 25.2381 20.6005 25.3344L34.1283 28.0163C34.2221 28.0435 34.3209 28.0608 34.4197 28.0756C34.6173 28.1077 34.8173 28.1225 35.0173 28.1225C35.2173 28.1225 35.4198 28.1077 35.6149 28.0756C35.7137 28.0608 35.8125 28.0435 35.9063 28.0163L49.4366 25.3344C49.896 25.2381 49.9602 25.4826 49.9577 25.6407L47.4265 48.2661Z" fill="#712732"/>
<path d="M41.1047 32.5157C42.6729 32.5157 43.873 31.7576 43.873 30.5253C43.873 29.293 42.6729 28.5349 41.1047 28.5349C39.5366 28.5349 38.334 29.2906 38.334 30.5253C38.334 31.7601 39.5317 32.5157 41.1047 32.5157ZM41.1047 29.3869C41.8258 29.3869 42.4111 29.824 42.4111 30.5204C42.4111 31.2168 41.8258 31.6539 41.1047 31.6539C40.3837 31.6539 39.7959 31.2168 39.7959 30.5204C39.7959 29.824 40.3812 29.3869 41.1047 29.3869Z" fill="#712732"/>
<path d="M36.9438 32.7281V33.6147H40.3542V34.9507H41.7396V33.6147H45.266V32.7281H36.9438Z" fill="#712732"/>
<path d="M38.9341 34.0419H37.561V35.8915C37.561 36.2619 37.7783 36.6422 38.3463 36.6422H44.7843V35.7656H38.9341V34.0419Z" fill="#712732"/>
<path d="M30.7202 33.0638V32.1995H30.2535V29.772C30.2535 29.4534 29.9892 29.1892 29.6707 29.1892H25.1762V30.1103H28.9397V32.197H27.3938V30.8117H26.1541V32.197H24.7959V33.0811H28.0334C27.1197 33.4071 26.4974 34.059 26.4974 34.8542C26.4974 36 27.7988 36.857 29.4064 36.857C31.0141 36.857 32.3155 36.0025 32.3155 34.8542C32.3155 34.0442 31.666 33.3824 30.7202 33.0614V33.0638ZM29.404 35.9877C28.6137 35.9877 27.9741 35.5136 27.9741 34.8517C27.9741 34.1899 28.6137 33.7158 29.404 33.7158C30.1942 33.7158 30.8313 34.1899 30.8313 34.8517C30.8313 35.5136 30.1917 35.9877 29.404 35.9877Z" fill="#712732"/>
<path d="M33.7727 30.5104H32.5453V28.9374H31.155V33.0145H32.5453V31.4365H33.7727V30.5104Z" fill="#712732"/>
<path d="M47.671 37.3213L45.7941 37.7337C45.6707 37.7682 45.4608 37.7979 45.3324 37.7979H41.1145C38.8672 37.7979 36.3978 39.1561 36.3978 43.6851V49.1723C36.3978 49.5748 36.0002 49.5748 35.8693 49.5748C35.7384 49.5748 35.3433 49.5921 35.3433 49.1723V43.6851C35.3433 41.0107 33.3899 37.7979 30.145 37.7979H23.4009C23.27 37.7979 23.1663 37.9041 23.1663 38.0325V43.2357C23.1663 43.3666 23.2403 43.5468 23.3342 43.6382L24.7146 45.0186C24.806 45.11 24.8826 45.2903 24.8826 45.4212L24.89 47.4289C24.89 49.0069 27.0458 49.0069 27.2458 49.0069C27.4459 49.0069 29.6487 49.0217 29.6487 47.4289C29.6487 47.4289 29.6215 44.831 29.6215 44.1667C29.6215 43.5024 29.1325 43.0208 28.8609 43.0208C28.5892 43.0208 28.5794 43.2925 28.5794 43.4999V47.4289C28.5794 48.4809 27.4212 48.4586 27.2458 48.4586C27.0705 48.4586 25.9123 48.466 25.9123 47.4289V45.4681C25.9123 45.3397 25.8358 45.1569 25.7444 45.0656L24.6652 43.9864C24.5739 43.895 24.4973 43.7123 24.4973 43.5839V38.8104C24.4973 38.6795 24.6035 38.5733 24.7319 38.5733H30.1475C31.9156 38.5733 33.1133 41.5317 33.1133 42.7171V49.9477C33.1133 50.0786 33.2195 50.1848 33.3479 50.1848H37.2102C38.4697 50.1848 38.4795 48.9402 38.4795 48.9402V42.7196C38.4795 40.9193 39.9365 38.5758 41.1145 38.5758H45.0533C45.1842 38.5758 45.2558 38.677 45.2163 38.8005C45.2163 38.8005 44.3495 41.9861 44.2359 42.2232C44.1223 42.4627 43.8655 42.5418 43.7371 42.5418H42.2801C42.1492 42.5418 41.8479 42.5566 42.0455 42.7714C42.2406 42.9863 42.7345 43.0011 42.8629 43.0011H43.7371C43.8679 43.0011 43.9643 43.1023 43.9173 43.2233C43.9173 43.2233 43.5988 44.5815 43.3494 45.11C43.0999 45.636 42.8703 45.636 42.7394 45.636H41.3664C41.1589 45.636 40.9219 45.7323 41.1293 45.9546C41.3367 46.1768 41.6849 46.1349 41.9072 46.1349H42.8505C42.9789 46.1373 43.0357 46.2707 42.9765 46.3867C42.9765 46.3867 42.7666 47.051 42.6011 47.5252C42.4356 47.9968 41.6627 48.066 41.5343 48.066H40.4798C40.3489 48.066 40.1464 48.108 40.2427 48.2957C40.3391 48.4833 40.8478 48.5253 40.9787 48.5253H42.2554C42.853 48.5253 43.4037 48.0512 43.7889 47.3326C44.1742 46.6139 44.1519 46.4065 44.1939 46.2287C44.2359 46.0509 44.2038 46.041 44.1322 46.0632C43.8828 46.1373 43.5049 46.125 43.5049 46.125C43.5049 46.125 44.4063 45.7792 44.878 44.6556C45.1768 43.942 45.3645 43.29 45.4015 43.1567C45.4385 43.0208 45.399 43.0035 45.3496 43.0184C45.0731 43.1147 44.8088 43.0875 44.8088 43.0875C44.8088 43.0875 45.5991 42.7541 46.335 41.0206C47.0709 39.287 47.8092 37.4768 47.8092 37.4768C47.8611 37.3583 47.7994 37.2892 47.6759 37.3237L47.671 37.3213Z" fill="#712732"/>
<path d="M26.9519 40.9464C26.821 40.9464 26.6753 41.0452 26.6259 41.1637L26.1394 42.3367C26.09 42.4553 26.1542 42.554 26.2851 42.554H26.9791C27.1099 42.554 27.2556 42.4553 27.305 42.3367L27.789 41.1637C27.8384 41.0427 27.7742 40.9464 27.6433 40.9464H26.9494H26.9519Z" fill="#712732"/>
<path fill-rule="evenodd" clip-rule="evenodd" d="M157.089 29.5353C157.025 29.5205 156.951 29.5353 156.881 29.5353C156.042 28.992 155.17 29.0315 154.286 29.4044C154.069 29.4958 153.851 29.5995 153.622 29.4538C153.083 29.113 152.503 29.2044 151.925 29.2958C151.352 29.3871 150.789 29.5353 150.204 29.5526C149.745 29.5649 149.53 29.439 149.557 28.9155C149.604 27.8931 149.678 26.8732 149.824 25.8582C150.08 24.0654 150.471 22.2849 150.308 20.455C150.347 20.3488 150.406 20.2426 150.421 20.134C150.718 17.8868 150.604 17.8374 153.239 17.4892C153.264 17.4867 153.286 17.4892 153.308 17.4818C154.195 17.3163 155.121 17.2496 155.847 16.6273C156.247 16.2841 156.4 15.8371 156.217 15.3086C156.047 14.8147 155.684 14.711 155.217 14.8073H155.212C154.313 14.6097 153.412 14.5925 152.51 14.8073C151.54 14.9579 150.567 15.0172 149.587 14.9209C148.33 14.7925 147.139 15.1654 145.939 15.4247C145.603 15.4963 145.295 15.6963 145.04 15.9433C144.751 16.2248 144.487 16.5285 144.623 16.9805C144.754 17.4101 145.003 17.6793 145.482 17.783C146.233 17.946 147.201 19.1413 147.255 19.8376C147.431 22.1614 147.221 24.4334 146.361 26.6213C146.248 26.9102 146.176 27.2486 146.29 27.5128C146.739 28.5599 146.386 29.4464 145.83 30.3181C145.744 30.449 145.722 30.6194 145.667 30.7725C145.393 31.0763 145.272 31.4689 145.211 31.8443C145.114 32.4468 145.309 32.9901 145.838 33.3531C146.364 33.7161 146.875 34.0594 147.549 33.6001C148.08 33.2371 148.707 33.1655 149.352 33.2395C149.979 33.3112 150.624 33.3013 151.207 33.0716C151.977 32.7654 152.762 32.6617 153.577 32.5851C154.755 32.4765 155.95 32.5802 157.109 32.2567C157.961 32.0196 158.692 31.3924 158.689 30.8762C158.684 30.3206 158.01 29.7477 157.089 29.5254V29.5353ZM150.088 32.7456C150.103 32.7456 150.113 32.7456 150.127 32.7432C150.125 32.7481 150.12 32.7531 150.117 32.758C150.108 32.7531 150.098 32.7506 150.09 32.7456H150.088Z" fill="#712732"/>
<path fill-rule="evenodd" clip-rule="evenodd" d="M171.641 30.9479C171.407 29.7527 171.437 28.5476 171.427 27.34C171.414 26.2337 171.718 25.1323 171.466 24.0259C171.362 23.6679 171.259 23.3098 171.155 22.9517C171.15 22.8134 171.155 22.6727 171.143 22.5344C170.967 20.381 170.706 18.2276 171.014 16.0619C171.103 15.4395 171.115 14.8049 171.019 14.1801C170.883 13.2985 170.138 12.3848 169.533 12.3181C168.903 12.249 167.979 12.975 167.668 13.7825C167.661 13.8023 167.666 13.8294 167.663 13.8517C167.458 14.069 167.438 14.3554 167.379 14.6246C167.122 15.7779 167.285 16.9484 167.256 18.1091C167.248 18.44 167.189 18.8104 166.856 18.8252C165.999 18.8697 165.194 19.2845 164.319 19.1586C164.114 18.1906 164.152 17.2176 164.243 16.2421C164.381 14.7604 164.166 13.422 162.855 12.4465C162.354 12.0736 161.936 12.3107 161.487 12.4391C161.065 12.5601 161.072 12.9059 161.035 13.2713C160.941 14.1529 161.381 14.9728 161.356 15.8075C161.289 18.1115 161.665 20.3933 161.534 22.7122C161.443 24.3494 161.635 26.0065 161.334 27.6462C161.161 27.9623 161.134 28.2932 161.154 28.6513C161.267 30.7454 161.27 32.8395 161.092 34.9337C161.005 35.9486 160.85 36.9784 161.092 37.9933C161.252 38.6725 162.015 39.1639 162.808 39.1417C163.712 39.117 164.169 38.7614 164.295 37.902C164.46 36.7561 164.564 35.6029 164.564 34.4447C164.576 34.2545 164.579 34.0644 164.561 33.8693C164.826 32.4321 165.273 31.0269 165.283 29.5452C165.292 28.308 164.863 27.1202 164.937 25.8706C164.991 24.9224 165.028 23.9617 164.91 23.0085C164.89 22.8505 164.873 22.6825 164.994 22.5467C165.433 22.0479 167.169 22.2504 167.342 22.8678C167.515 23.4851 167.787 24.0778 167.829 24.7372C167.92 26.1769 168.029 27.6166 168.174 29.0489C168.377 31.0245 168.505 32.9679 167.774 34.8966C167.411 35.8548 167.762 36.8154 168.327 37.6624C168.747 38.4354 169.535 38.6601 170.281 38.7638C171.355 38.9145 171.656 38.5564 171.587 37.4846C171.513 36.3215 171.587 35.1633 171.669 34.0051C171.743 32.9877 171.839 31.9579 171.639 30.943L171.641 30.9479ZM170.785 15.3531C170.785 15.3013 170.78 15.2494 170.777 15.1975C170.782 15.2494 170.785 15.3013 170.785 15.3531Z" fill="#712732"/>
<path fill-rule="evenodd" clip-rule="evenodd" d="M122.306 21.759C124.554 22.4603 128.411 22.932 130.636 20.0501C131.666 18.7191 132.11 17.2868 131.508 15.6421C130.327 13.5776 128.428 12.6985 126.171 12.4614C124.833 12.3206 123.524 12.4565 122.388 13.2961C121.432 13.7208 120.746 14.4024 120.464 15.4223C120.227 16.2768 120.188 17.1658 120.121 18.0474C120.037 19.1908 121.227 21.4232 122.304 21.759H122.306ZM131.564 16.6818C131.564 16.6818 131.555 16.7015 131.552 16.7139C131.547 16.6694 131.542 16.625 131.535 16.583C131.564 16.6052 131.582 16.6348 131.564 16.6842V16.6818ZM123.381 17.2325C123.408 16.7879 123.724 16.5978 124.079 16.4496C125.043 16.0496 126.077 15.9039 127.092 15.9458C127.89 15.9755 128.683 16.3064 128.964 17.23C128.93 17.8227 128.764 18.3437 128.329 18.7907C127.929 19.2031 127.517 19.4599 126.924 19.3414C126.769 19.3093 126.593 19.2895 126.44 19.3216C125.107 19.6229 124.186 18.9759 123.376 18.0326C123.134 17.7486 123.205 17.4992 123.381 17.2325Z" fill="#712732"/>
<path fill-rule="evenodd" clip-rule="evenodd" d="M138.222 23.8112C137.975 23.6976 137.745 23.4284 137.456 23.5741C136.357 24.1298 135.214 23.8729 134.1 23.7396C133.36 23.6482 132.594 23.8532 131.893 23.5963C131.377 23.4062 130.9 23.3741 130.404 23.5321C129.774 23.7346 129.129 23.7618 128.477 23.7717C126.988 23.7939 125.512 23.5865 124.017 23.6408C122.595 23.6927 121.168 23.5914 119.743 23.5346C118.871 23.5 117.938 23.0926 117.15 23.6112C116.33 24.152 115.493 24.2705 114.572 24.1841C113.189 23.9075 112.66 24.194 112.196 25.4732C112.157 25.5818 112.119 25.6979 112.05 25.7893C111.626 26.3597 111.821 26.8709 112.152 27.4018C112.5 27.9575 113.021 27.8834 113.52 27.7969C113.974 27.7204 114.416 27.5574 114.861 27.424C115.241 27.308 115.621 27.1845 116.024 27.3228C116.918 27.6315 117.824 27.5451 118.703 27.3277C120.464 26.8931 122.197 26.8857 123.931 27.4413C124.348 27.5747 124.519 27.8118 124.509 28.2612C124.492 29.2144 124.445 30.1726 124.59 31.1233C124.657 31.5555 124.699 32.084 125.116 32.2791C126.144 32.7631 126.86 32.8125 127.586 31.7185C127.791 31.4123 127.914 31.0517 128.07 30.7134C128.5 29.7775 128.453 29.5503 127.707 28.8366C127.665 28.7428 127.62 28.6464 127.578 28.5501C127.779 27.6265 128.134 27.2561 128.976 27.3697C130.206 27.5352 131.423 27.4784 132.651 27.429C133.698 27.387 134.747 27.4487 135.797 27.429C136.829 27.4092 137.842 27.2413 138.76 26.7375C139.158 26.5202 139.62 26.3029 139.622 25.7423C139.622 24.7965 139.16 24.1717 138.224 23.8112H138.222Z" fill="#712732"/>
<path fill-rule="evenodd" clip-rule="evenodd" d="M136.35 35.0004C135.839 34.956 135.342 34.872 134.853 34.714C134.486 34.6671 134.12 34.6004 133.75 34.5732C132.075 34.4547 130.401 34.4497 128.729 34.5806C126.566 34.7461 124.4 34.467 122.242 34.6251C121.17 34.7041 120.111 34.7164 119.066 34.4152C118.812 34.1979 118.888 33.9262 118.918 33.6447C118.997 32.8619 119.185 32.0939 119.145 31.2962C119.108 30.5554 118.644 30.1528 118.061 29.8911C117.449 29.6145 116.821 29.6046 116.234 30.0738C115.552 30.6171 115.401 31.3505 115.458 32.1334C115.542 33.3138 115.379 34.3954 114.525 35.2869C114.465 35.3511 114.441 35.4474 114.399 35.5289C114.088 35.9537 113.974 36.4574 114.204 36.9093C114.796 38.0749 116.648 38.7713 117.942 38.4083C118.318 38.3021 118.718 38.2577 119.111 38.233C120.343 38.1614 121.578 38.1145 122.81 38.0601C124.19 37.8058 125.593 37.986 126.983 37.8403C129.734 37.5489 132.478 37.2946 135.214 38.0601C136.995 38.559 137.555 38.0181 137.419 36.124C137.365 35.3783 137.093 35.0696 136.35 35.0029V35.0004Z" fill="#712732"/>
<path fill-rule="evenodd" clip-rule="evenodd" d="M107.623 18.314C106.884 18.2473 106.19 18.4029 105.536 18.7462C105.136 18.9314 104.832 18.798 104.588 18.4622C104.314 17.7312 104.249 16.9731 104.277 16.1952C104.299 15.5432 104.301 14.8888 104.259 14.2394C104.212 13.496 103.721 12.9503 103.099 12.8663C101.469 12.649 100.239 14.1776 100.874 15.6618C101.128 16.2594 101.19 16.8397 101.138 17.4892C101.005 19.1413 101.044 20.8181 101.311 22.4356C101.526 23.737 101.503 24.9619 101.264 26.2238C101.15 26.8164 101.14 27.4239 101.187 28.0339C101.224 28.5278 101.511 28.7303 101.931 28.8118C103.63 29.1452 104.929 28.0981 105.017 26.3793C105.084 25.115 104.835 23.8679 104.852 22.6109C104.864 21.7342 104.887 21.6997 105.768 21.8182C106.418 21.9046 107.057 22.0281 107.714 21.9195C108.586 21.7762 109.04 21.0477 109.011 19.8352C108.988 18.9141 108.519 18.393 107.625 18.314H107.623ZM106.092 19.6574C106.099 19.6698 106.107 19.6846 106.116 19.6969C106.104 19.692 106.094 19.687 106.082 19.6821C106.087 19.6722 106.089 19.6648 106.092 19.6574Z" fill="#712732"/>
<path fill-rule="evenodd" clip-rule="evenodd" d="M94.7862 26.8361C95.8011 27.0139 96.8433 26.562 97.9027 26.641C98.4879 26.6855 98.7151 26.2904 98.5447 25.7002C98.4509 25.3791 98.4385 25.0606 98.4361 24.7346C98.4361 23.8703 98.1842 23.569 97.3001 23.3566H97.2878C96.7865 23.1615 96.2703 23.2035 95.7517 23.2455C95.6159 23.2356 95.4801 23.2258 95.3443 23.2183C95.1196 23.001 94.6899 23.1418 94.5318 22.759C94.6281 22.68 94.7195 22.6084 94.8084 22.5392C96.2209 21.4329 97.1347 20.1414 96.4901 18.2201C96.3592 17.8299 96.3666 17.3953 96.2901 16.9829C96.1345 16.1334 95.9394 15.2962 95.5196 14.5307C95.0331 13.6442 94.4898 13.417 93.5663 13.8689C92.9192 14.185 92.3315 14.1998 91.6894 13.9627C91.4055 13.859 91.1141 13.7701 90.8202 13.7059C89.0076 13.3034 87.195 13.8318 85.3799 13.7108C84.8811 13.6343 84.4094 13.7059 83.9797 13.9825C83.1673 14.2467 82.3499 14.5653 82.1721 15.5111C81.9399 16.7236 82.74 17.6003 84.0711 17.5904C85.0342 17.5854 85.9998 17.4496 86.9629 17.3706C87.237 17.4052 87.5382 17.383 87.7852 17.4867C88.7137 17.8744 89.5583 17.6398 90.4028 17.2348C90.9066 16.9952 91.4203 16.768 91.9413 16.5754C92.8328 16.2445 93.2181 16.4594 93.712 17.2743C94.1812 18.0472 93.9811 18.798 93.8083 19.566C93.6058 20.4747 93.3317 21.3736 93.628 22.312C93.7342 22.6479 93.5218 22.6405 93.2946 22.6553C92.4747 22.7072 91.6697 22.5392 90.8572 22.5047C90.5732 22.396 90.3905 22.1886 90.3707 21.8898C90.351 21.5712 90.4078 21.2452 90.3954 20.9267C90.3485 19.8919 89.8151 19.1388 88.9434 18.6399C88.2371 18.2349 87.6099 18.5041 87.0443 18.9931C85.6392 19.7882 85.3923 20.2204 85.98 21.2749C86.4591 22.1318 86.4887 22.9294 86.0689 23.7789C85.4935 24.2555 84.7354 23.9345 84.118 24.221C83.6167 24.2284 83.1426 24.3345 82.7227 24.6235C82.1153 24.747 81.7078 25.1618 81.3324 25.6088C80.9077 26.1126 80.8904 26.972 81.2781 27.5597C81.7103 28.2141 82.14 28.3623 82.9574 28.1277C83.6933 27.9153 84.4366 27.7696 85.2046 27.6881C86.7776 27.5202 88.3705 27.735 89.9312 27.4066C91.5314 27.0707 93.0872 26.5349 94.7936 26.8337L94.7862 26.8361ZM82.7524 25.4335C82.7573 25.4606 82.7623 25.4853 82.7672 25.5125C82.7573 25.4853 82.7524 25.4582 82.7524 25.4335Z" fill="#712732"/>
<path fill-rule="evenodd" clip-rule="evenodd" d="M100.799 31.6097C100.095 30.6713 99.0632 30.0935 98.2359 29.286C97.5692 28.634 96.7444 28.5081 95.8529 28.918C95.0083 29.3057 94.1193 29.5996 93.292 30.0169C92.4524 30.4417 91.5609 30.817 90.9707 31.6171C90.7262 31.7925 90.662 32.0765 90.588 32.3358C90.3459 33.1902 90.3929 34.0817 90.2669 34.9509C90.0866 36.1956 90.5929 37.1982 91.3905 38.0971C92.1536 39.0133 93.1834 39.3936 94.3268 39.4676C95.3244 39.5343 96.3196 39.4454 97.3173 39.3614C98.6829 39.2479 99.6584 38.5515 100.52 37.5958C101.409 36.608 101.985 35.5288 101.602 34.1311C101.367 33.2791 101.486 32.316 100.802 31.6073L100.799 31.6097ZM94.2403 33.005C95.3911 32.5037 96.5246 32.7729 97.5025 33.3655C97.9668 33.6471 98.3174 34.2817 98.5397 34.867C98.6335 35.1139 98.5249 35.3683 98.3569 35.5807C97.7297 36.3734 96.9691 36.8771 95.8973 36.7339C95.4849 36.6697 95.0701 36.6277 94.6626 36.5413C93.6674 36.3265 93.1735 35.6202 93.1439 34.5904C93.1192 33.7533 93.5587 33.3038 94.2453 33.005H94.2403Z" fill="#712732"/>
<path fill-rule="evenodd" clip-rule="evenodd" d="M237.592 31.19C236.772 30.5306 235.804 30.6862 234.868 30.7109C232.692 30.7652 230.514 30.9973 228.341 30.6491C227.281 30.1207 227.37 29.1452 227.328 28.1821C227.257 26.6041 227.109 25.0261 226.518 23.542C226.143 22.6011 225.531 22.3295 224.501 22.5468C223.777 22.6999 223.501 23.1246 223.488 24.1445C223.469 25.8707 223.513 27.5944 223.609 29.3156C223.649 30.012 223.412 30.3133 222.713 30.3701C222.182 30.4121 221.641 30.3775 221.105 30.3577C220.374 30.3331 219.836 29.7107 220.068 29.0366C220.473 27.8537 220.159 26.7992 219.663 25.7497C219.557 25.1792 219.5 24.5964 219.327 24.0457C219.159 23.5099 218.865 22.9987 218.209 22.9394C217.184 22.8456 216.028 24.1396 216.206 25.1471C216.519 26.9276 216.542 28.7155 216.268 30.5034C216.171 30.7479 216.008 30.9134 215.732 30.9356C214.168 31.3357 212.566 31.5159 210.975 31.7579C210.573 31.8197 210.272 31.9753 210.249 32.4371C209.827 33.5557 210.249 35.1189 211.909 34.8967C212.23 34.8547 212.561 34.8695 212.884 34.8868C214.929 34.993 216.907 34.3386 218.981 34.5188C222.387 34.8176 225.805 34.3361 229.235 34.5534C231.675 34.7065 234.152 34.2966 236.611 34.1435C236.917 34.1237 237.125 34.0002 237.31 33.7582C237.784 33.1359 237.917 32.4173 237.967 31.669C237.984 31.3949 237.88 31.2196 237.592 31.1875V31.19Z" fill="#712732"/>
<path fill-rule="evenodd" clip-rule="evenodd" d="M212.702 18.4079C215.858 18.482 219.023 18.0375 222.17 18.5907C224.328 19.0722 226.39 18.3635 228.484 18.0622V18.0671C229.225 18.1042 229.971 18.1412 230.717 18.1783L230.758 18.2128H230.815C230.966 18.4425 231.117 18.6771 231.267 18.9117C231.465 19.5785 231.657 20.2403 231.731 20.9416C231.931 22.8752 231.793 24.7841 231.534 26.7054C231.265 28.681 232.169 29.5675 234.134 29.4021C234.841 29.3428 235.265 28.8736 235.147 28.197C235.016 27.4536 235.073 26.7128 235.073 25.9695C235.073 25.2731 235.186 24.5619 234.939 23.8926C234.643 23.0851 234.631 22.2554 234.631 21.4158C234.631 20.3959 234.774 19.3784 234.655 18.3511C234.458 16.6151 233.193 14.9358 231.675 14.6889C230.232 14.4518 228.766 14.5358 227.311 14.6716C224.938 14.8049 222.567 14.8222 220.192 14.6839C218.641 14.5926 217.063 14.5185 215.527 14.8346C214.24 15.0988 212.907 15.3087 211.958 16.3805C211.467 16.8497 211.213 17.4572 211.45 18.0696C211.647 18.5808 212.265 18.398 212.707 18.4104L212.702 18.4079ZM211.709 17.346C211.709 17.346 211.692 17.346 211.682 17.346C211.689 17.3386 211.697 17.3337 211.701 17.3263C211.701 17.3337 211.704 17.3386 211.706 17.346H211.709Z" fill="#712732"/>
<path d="M201.048 30.9801C200.051 30.701 199.11 30.2466 198.033 30.2046C197.184 30.1701 196.307 30.3479 195.477 30.0466C194.42 29.6638 193.326 29.4811 192.21 29.4095C190.864 29.1996 189.501 29.286 188.106 29.2243C188.175 29.1576 188.2 29.1205 188.232 29.1057C188.424 29.0218 188.612 28.923 188.81 28.8662C190.743 28.3007 191.911 26.9844 192.464 25.1002C192.647 24.4804 193 23.7469 192.494 23.179C191.482 22.0455 191.032 20.4057 189.444 19.7735C189.286 19.7118 188.827 19.5809 189.126 19.1759C190.242 18.6894 191.408 18.6203 192.6 18.7685C193.311 18.8549 193.939 18.5981 194.494 18.1955C195.203 17.6844 195.156 16.257 194.447 15.8199C193.588 15.5038 192.699 15.7014 191.825 15.6668C190.965 15.6322 190.099 15.6964 189.252 15.4989C188.834 15.4026 188.508 15.2643 188.506 14.6815C188.501 14.1653 188.54 13.5974 188.291 13.1133C187.859 12.2762 186.185 12.2564 185.634 13.3455C185.362 13.8838 185.123 14.4419 184.871 14.9926C184.688 15.3927 184.456 15.7236 183.947 15.6915C183.893 15.7409 183.824 15.7384 183.757 15.7606C183.708 15.7754 183.656 15.7878 183.606 15.8001C183.718 15.7532 183.829 15.7112 183.947 15.694C182.253 15.7483 180.564 15.8248 178.909 16.2545C178.435 16.378 178.201 16.6126 178.122 17.0867C177.917 18.3264 179.739 19.8476 181.09 19.5463C182.446 19.2451 183.774 18.766 185.197 18.9043C185.362 19.0969 185.733 18.9166 185.844 19.2969C184.453 19.6427 183.473 20.5687 182.51 21.5689C181.246 22.8826 181.07 24.3001 181.826 25.8979C181.942 26.861 182.537 27.4685 183.32 27.9525C184.152 28.4686 185.049 28.8366 185.972 29.1551C186.133 29.2094 186.501 29.123 186.432 29.5157C185.723 29.6515 185.009 29.6737 184.29 29.6836C183.142 29.7009 181.986 29.6737 180.86 29.9725C179.69 30.0639 178.793 30.6022 178.191 31.6123C177.635 32.563 177.986 33.3039 179.04 33.4249C180.023 33.5385 180.962 33.3384 181.89 33.0495C182.053 33.0347 182.219 33.0396 182.377 33.005C185.631 32.3062 188.943 32.3457 192.242 32.2963C194.04 32.2691 195.813 32.5828 197.559 33.0075C198.011 33.1186 198.525 33.2224 198.618 33.778C198.764 34.6398 199.006 35.4918 198.927 36.3808C198.739 36.6154 198.769 36.9142 198.722 37.1809C198.342 39.3837 198.949 39.848 201.145 39.3788C201.747 39.2504 201.989 38.8651 201.992 38.2749C201.992 37.46 202.014 36.6475 202.026 35.8326C202.315 34.2744 201.898 32.805 201.441 31.3431C201.379 31.148 201.224 31.022 201.048 30.9727V30.9801ZM200.206 33.2372C200.209 33.2594 200.211 33.2816 200.214 33.3039C200.201 33.2816 200.199 33.2594 200.206 33.2372ZM197.929 30.8763C197.826 30.9356 197.747 30.8887 197.685 30.7973C197.764 30.8072 197.845 30.8294 197.929 30.8763ZM186.049 22.811C186.54 22.6604 187.029 22.5221 187.671 22.5468C188.652 22.4579 189.368 23.1345 190.072 23.8235C190.272 24.0186 190.244 24.1816 190.059 24.4186C189.081 25.6608 187.429 26.0534 185.987 25.3719C185.303 25.0484 185.308 24.4211 185.278 23.826C185.254 23.3024 185.538 22.9666 186.049 22.811Z" fill="#712732"/>
<path d="M205.669 19.8378C205.395 19.1389 204.893 18.7463 204.145 18.608C203.419 18.4747 202.733 18.5092 202.073 18.8525C201.727 19.0328 201.476 18.9858 201.332 18.6006C201.179 17.7511 201.167 16.8917 201.16 16.0299C201.157 15.5434 201.216 15.0544 201.085 14.5704C200.856 13.716 200.352 13.2912 199.572 13.311C198.831 13.3282 198.248 13.911 198.08 14.7235C197.885 15.6693 198.169 16.5608 198.317 17.4696C198.305 17.3115 198.322 17.1535 198.354 16.9954C198.337 17.2202 198.327 17.4473 198.347 17.6671C198.142 19.4699 197.962 21.275 198.221 23.0901C198.08 24.1495 197.922 25.2065 197.803 26.2683C197.742 26.8388 197.547 27.429 197.769 27.9945C198.016 28.6267 198.458 29.0317 199.206 28.9774C200.078 28.9156 200.693 28.5156 200.866 27.7451C201.177 26.3622 200.974 24.9348 201.179 23.5371C201.616 22.0949 201.616 22.1048 203.212 22.0826C203.836 22.0752 204.466 22.1838 205.086 21.9937C206.158 21.6652 206.417 20.7145 205.669 19.8353V19.8378ZM200.08 13.795C200.08 13.795 200.061 13.795 200.051 13.79C200.061 13.7802 200.07 13.7703 200.083 13.7604C200.083 13.7703 200.083 13.7826 200.08 13.795ZM200.34 26.9623C200.34 26.9623 200.335 26.9623 200.332 26.9623C200.357 26.8808 200.382 26.8042 200.409 26.7301C200.515 26.7869 200.466 26.9129 200.337 26.9598L200.34 26.9623Z" fill="#712732"/>
<path d="M85.1922 48.6295V53.7166H86.4961V53.9611H81.446V53.7166H82.7425V43.4362H81.446V43.1917H86.4714V43.4362H85.1898V48.1973L88.8471 44.6882C89.0891 44.4684 89.2546 44.2931 89.3435 44.1671C89.4324 44.0412 89.4768 43.9301 89.4768 43.8362C89.4768 43.693 89.4101 43.5917 89.2793 43.5275C89.1484 43.4658 88.9385 43.4337 88.6545 43.4337H88.4372V43.1892H92.4501V43.4337C92.418 43.4337 92.371 43.4312 92.3093 43.4263C92.2476 43.4213 92.2006 43.4189 92.1685 43.4189C91.6524 43.4189 91.1511 43.5423 90.6622 43.7844C90.1732 44.0288 89.6472 44.4215 89.0817 44.9648L87.2543 46.723L91.8376 53.7166H92.9588V53.9611H87.7803V53.7166H88.8989L85.4837 48.3554L85.1947 48.632L85.1922 48.6295Z" fill="#712732"/>
<path d="M95.0972 53.9586H94.67L91.835 47.4392H90.9089V47.1947H95.0182V47.4392H94.0748L95.9121 51.6645L97.7568 47.4392H98.4334L100.197 51.6966L101.404 48.9678C101.468 48.8221 101.518 48.6813 101.55 48.5455C101.582 48.4122 101.599 48.2936 101.599 48.1948C101.599 47.9109 101.523 47.7158 101.37 47.6046C101.217 47.4935 100.935 47.4392 100.528 47.4392V47.1947H103.405L103.395 47.4392C103.163 47.4762 102.592 47.5948 102.412 47.7997C102.229 48.0022 102.009 48.3924 101.75 48.9703L99.4064 53.9611H98.9817L97.0802 49.6963L95.0996 53.9611L95.0972 53.9586Z" fill="#712732"/>
<path d="M113.784 53.7167H114.702V53.9611H110.667V53.7167H111.601V47.4392H110.667V47.1948H111.949C112.337 47.1948 112.663 47.1799 112.932 47.1478C113.201 47.1157 113.45 47.0663 113.68 46.9972V48.5036C113.981 48.0097 114.347 47.6343 114.779 47.38C115.211 47.1256 115.698 46.9972 116.241 46.9972C116.95 46.9972 117.505 47.1775 117.908 47.538C118.31 47.8986 118.513 48.39 118.513 49.0172V53.7167H119.439V53.9611H115.428V53.7167H116.34V48.6789C116.34 48.2319 116.278 47.9232 116.154 47.7578C116.031 47.5899 115.819 47.5059 115.52 47.5059C115.021 47.5059 114.606 47.701 114.28 48.0936C113.952 48.4863 113.789 48.9876 113.789 49.6025V53.7191L113.784 53.7167Z" fill="#712732"/>
<path d="M140.808 50.3877C140.808 49.9086 140.909 49.4493 141.114 49.0073C141.319 48.5652 141.613 48.1652 142 47.8022C142.371 47.4639 142.766 47.2144 143.186 47.049C143.603 46.8835 144.06 46.7996 144.554 46.7996C145.048 46.7996 145.514 46.8835 145.939 47.0514C146.364 47.2194 146.752 47.4688 147.107 47.8022C147.493 48.1652 147.789 48.5677 147.994 49.0073C148.199 49.4493 148.3 49.9086 148.3 50.3877C148.3 50.8668 148.201 51.3237 147.999 51.7558C147.796 52.1904 147.5 52.5905 147.11 52.9585C146.749 53.2943 146.359 53.5462 145.937 53.7116C145.517 53.8771 145.055 53.9586 144.556 53.9586C143.514 53.9586 142.63 53.6104 141.902 52.914C141.173 52.2176 140.81 51.3755 140.81 50.3877H140.808ZM145.971 51.2792V49.4814C145.971 48.5084 145.868 47.859 145.663 47.5355C145.455 47.2095 145.087 47.0465 144.554 47.0465C144.02 47.0465 143.652 47.2095 143.447 47.5355C143.24 47.8614 143.136 48.5109 143.136 49.4814V51.2792C143.136 52.2522 143.24 52.8992 143.447 53.2252C143.655 53.5511 144.023 53.7141 144.554 53.7141C145.085 53.7141 145.455 53.5511 145.663 53.2252C145.868 52.8992 145.971 52.2497 145.971 51.2792Z" fill="#712732"/>
<path d="M149.055 50.3877C149.055 49.9086 149.157 49.4493 149.362 49.0073C149.567 48.5652 149.86 48.1652 150.248 47.8022C150.619 47.4639 151.014 47.2144 151.431 47.049C151.851 46.8835 152.305 46.7996 152.799 46.7996C153.293 46.7996 153.76 46.8835 154.185 47.0514C154.609 47.2194 154.999 47.4688 155.353 47.8022C155.738 48.1652 156.034 48.5677 156.239 49.0073C156.444 49.4493 156.545 49.9086 156.545 50.3877C156.545 50.8668 156.444 51.3237 156.244 51.7558C156.044 52.1904 155.745 52.5905 155.355 52.9585C154.995 53.2943 154.604 53.5462 154.182 53.7116C153.762 53.8771 153.3 53.9586 152.802 53.9586C151.76 53.9586 150.875 53.6104 150.147 52.914C149.418 52.2176 149.055 51.3755 149.055 50.3877ZM154.219 51.2792V49.4814C154.219 48.5084 154.115 47.859 153.908 47.5355C153.701 47.2095 153.333 47.0465 152.799 47.0465C152.266 47.0465 151.898 47.2095 151.693 47.5355C151.485 47.8614 151.382 48.5109 151.382 49.4814V51.2792C151.382 52.2522 151.485 52.8992 151.693 53.2252C151.9 53.5511 152.268 53.7141 152.799 53.7141C153.33 53.7141 153.701 53.5511 153.908 53.2252C154.113 52.8992 154.219 52.2497 154.219 51.2792Z" fill="#712732"/>
<path d="M160.242 53.7167H161.161V53.9611H157.126V53.7167H158.059V47.4392H157.126V47.1948H158.408C158.793 47.1948 159.121 47.1799 159.39 47.1478C159.657 47.1157 159.909 47.0663 160.139 46.9972V48.5036C160.44 48.0097 160.805 47.6343 161.238 47.38C161.67 47.1256 162.159 46.9972 162.7 46.9972C163.408 46.9972 163.964 47.1775 164.366 47.538C164.769 47.8986 164.972 48.39 164.972 49.0172V53.7167H165.898V53.9611H161.887V53.7167H162.798V48.6789C162.798 48.2319 162.737 47.9232 162.613 47.7578C162.49 47.5899 162.277 47.5059 161.979 47.5059C161.477 47.5059 161.065 47.701 160.736 48.0936C160.408 48.4863 160.245 48.9876 160.245 49.6025V53.7191L160.242 53.7167Z" fill="#712732"/>
<path d="M110.391 52.4547C110.327 52.7066 110.247 52.8968 110.149 53.0227C110.052 53.1486 109.941 53.2128 109.818 53.2128C109.64 53.2128 109.517 53.1338 109.442 52.9733C109.368 52.8128 109.334 52.5165 109.334 52.0868V49.279C109.334 48.7258 109.267 48.3208 109.136 48.0615C109.003 47.8022 108.776 47.5725 108.447 47.3725C108.136 47.1848 107.78 47.0416 107.38 46.9478C106.98 46.8515 106.538 46.807 106.057 46.807C105.202 46.807 104.523 46.9601 104.015 47.2688C103.516 47.5725 103.261 47.9652 103.254 48.4492C103.254 48.4492 103.254 48.4517 103.254 48.4542C103.254 48.4591 103.254 48.464 103.254 48.469C103.254 48.5109 103.261 48.5505 103.269 48.59C103.338 49.074 103.758 49.4444 104.269 49.4444C104.829 49.4444 105.284 48.9999 105.284 48.4517C105.284 47.9677 104.928 47.5627 104.459 47.4762C104.503 47.3849 104.62 47.2984 104.822 47.2169C105.076 47.1132 105.378 47.0638 105.728 47.0638C106.336 47.0638 106.741 47.17 106.948 47.3824C107.156 47.5948 107.257 48.0862 107.257 48.8542V49.8074C105.672 49.8074 104.491 49.9877 103.713 50.3507C102.933 50.7137 102.545 51.2644 102.545 52.0053C102.545 52.63 102.79 53.1116 103.281 53.4524C103.772 53.7907 104.476 53.9611 105.395 53.9611C105.867 53.9611 106.267 53.8722 106.59 53.6944C106.916 53.5166 107.158 53.2524 107.319 52.9066C107.437 53.2598 107.63 53.5215 107.894 53.6919C108.158 53.8623 108.507 53.9488 108.936 53.9488C109.366 53.9488 109.754 53.8105 110.067 53.5314C110.381 53.2524 110.559 52.8943 110.603 52.4597H110.386L110.391 52.4547ZM107.259 51.7139C107.259 52.3288 107.148 52.7881 106.926 53.0918C106.704 53.3956 106.368 53.5487 105.923 53.5487C105.526 53.5487 105.239 53.4104 105.067 53.1314C104.891 52.8523 104.805 52.3856 104.805 51.7287C104.805 51.0718 104.955 50.61 105.252 50.3927C105.551 50.1754 106.17 50.0667 107.116 50.0667H107.262V51.7163L107.259 51.7139Z" fill="#712732"/>
<path d="M139.089 43.1917V43.4361H139.943C140.277 43.4361 140.516 43.4929 140.664 43.6065C140.812 43.7201 140.887 43.9053 140.887 44.1622C140.887 44.2511 140.862 44.3918 140.815 44.5795C140.768 44.7696 140.701 44.9697 140.622 45.1796L138.479 50.9434L135.701 43.4386H135.431L132.685 50.8495L129.915 43.4386H130.865V43.1941H126.364V43.4386H127.418L131.478 53.9635H131.809L134.515 46.9848L137.303 53.9635H137.649L141.193 44.661C141.348 44.2461 141.519 43.9547 141.704 43.7868C141.889 43.6189 142.148 43.4707 142.497 43.4386C142.534 43.4361 142.64 43.4386 142.64 43.4386H143.591V43.1941H139.089V43.1917Z" fill="#712732"/>
<path d="M125.879 47.8689C125.912 47.9208 125.951 47.9727 125.998 48.0146C126.06 48.069 126.126 48.0986 126.201 48.1208C126.203 48.1208 126.208 48.1208 126.21 48.1233C126.225 48.1258 126.235 48.1332 126.25 48.1356C126.331 48.1628 126.415 48.1801 126.507 48.1801C126.941 48.1801 127.292 47.8368 127.292 47.4121C127.292 47.0244 126.998 46.7058 126.615 46.6539C126.504 46.6268 126.386 46.6095 126.25 46.6095C125.998 46.6095 125.768 46.6638 125.566 46.77C125.361 46.8787 125.163 47.0565 124.968 47.3034C124.657 47.1083 124.339 46.9626 124.015 46.8663C123.689 46.77 123.348 46.7206 122.988 46.7206C122.225 46.7206 121.592 46.9379 121.086 47.3701C120.582 47.8047 120.328 48.3406 120.328 48.9827C120.328 49.3778 120.434 49.726 120.649 50.0297C120.864 50.3335 121.197 50.6101 121.649 50.857C121.091 50.9681 120.681 51.1583 120.422 51.4299C120.16 51.6991 120.032 52.0646 120.032 52.5214C120.032 52.8079 120.089 53.4055 120.647 53.6105C120.38 53.8278 120.17 54.0599 120.022 54.3093C119.842 54.6106 119.753 54.9267 119.753 55.2601C119.753 55.5935 119.844 55.912 120.027 56.2183C120.21 56.5245 120.474 56.8035 120.82 57.0554C121.136 57.2851 121.486 57.4579 121.867 57.5765C122.247 57.6925 122.659 57.7518 123.109 57.7518C123.558 57.7518 123.961 57.695 124.336 57.5789C124.711 57.4654 125.065 57.29 125.398 57.0579C125.6 56.9122 125.771 56.7541 125.917 56.5912C125.917 56.5912 125.921 56.5862 125.924 56.5837C126.173 56.3319 126.366 56.0528 126.499 55.7466C126.63 55.4404 126.662 55.1193 126.662 54.7884C126.662 54.1019 126.462 53.5191 125.991 53.0351C125.67 52.7067 125.069 52.2844 124.343 52.2844H121.37C121.128 52.2844 120.948 52.2473 120.827 52.1708C120.706 52.0942 120.647 51.9806 120.647 51.8275C120.647 51.6423 120.758 51.4843 120.98 51.346C121.202 51.2101 121.531 51.1015 121.968 51.0225C122.123 51.0743 122.284 51.1163 122.447 51.1459C122.61 51.1756 122.78 51.1879 122.958 51.1879C123.817 51.1879 124.506 50.9879 125.028 50.5854C125.549 50.1853 125.81 49.6519 125.81 48.9901C125.81 48.711 125.761 48.4542 125.66 48.2171C125.561 47.9825 125.403 47.7455 125.188 47.501C125.26 47.38 125.445 47.1404 125.81 47.0787C125.758 47.1824 125.726 47.296 125.726 47.4195C125.726 47.5899 125.786 47.7479 125.882 47.8739L125.879 47.8689ZM121.706 54.5316C121.706 53.9365 121.817 53.5364 122.037 53.3388C122.254 53.1388 122.647 53.04 123.212 53.04C123.778 53.04 124.168 53.1413 124.388 53.3388C124.608 53.5389 124.716 53.9365 124.716 54.5316V55.633C124.716 56.2281 124.605 56.6282 124.388 56.8282C124.168 57.0283 123.775 57.127 123.212 57.127C122.649 57.127 122.254 57.0258 122.037 56.8282C121.817 56.6282 121.706 56.2306 121.706 55.633V54.5316ZM124.062 49.5852C124.062 50.126 123.993 50.4891 123.854 50.6693C123.719 50.8496 123.462 50.941 123.086 50.941C122.711 50.941 122.444 50.8471 122.306 50.6644C122.168 50.4816 122.096 50.1211 122.096 49.5852V48.3233C122.096 47.7874 122.168 47.4269 122.306 47.2442C122.444 47.0614 122.706 46.9676 123.086 46.9676C123.467 46.9676 123.719 47.0589 123.854 47.2392C123.993 47.4195 124.062 47.7825 124.062 48.3233V49.5852Z" fill="#712732"/>
<path d="M181.89 53.7141H182.809V53.9585H178.771V53.7141H179.707V47.4391H178.771V47.1946H180.053C180.438 47.1946 180.766 47.1798 181.036 47.1477C181.305 47.1156 181.554 47.0662 181.786 46.9971V48.5035C182.088 48.0096 182.453 47.6342 182.885 47.3798C183.317 47.1255 183.804 46.9971 184.347 46.9971C185.056 46.9971 185.611 47.1773 186.014 47.5379C186.417 47.8984 186.619 48.3923 186.619 49.0171V53.7141H187.545V53.9585H183.532V53.7141H184.443V48.6763C184.443 48.2293 184.382 47.9231 184.258 47.7552C184.135 47.5873 183.922 47.5033 183.621 47.5033C183.122 47.5033 182.707 47.6984 182.381 48.0911C182.053 48.4837 181.89 48.985 181.89 49.5999V53.7165V53.7141Z" fill="#712732"/>
<path d="M188.97 47.4392H188.012V47.1947H189.301C189.671 47.1947 190.007 47.1799 190.311 47.1478C190.615 47.1157 190.891 47.0663 191.143 46.9971V53.7141H192.101V53.9586H188.01V53.7141H188.968V47.4392H188.97ZM188.866 45.2907C188.866 44.9549 188.982 44.6758 189.212 44.4511C189.444 44.2288 189.731 44.1152 190.074 44.1152C190.417 44.1152 190.699 44.2288 190.936 44.456C191.173 44.6807 191.289 44.9598 191.289 45.2907C191.289 45.6216 191.17 45.9155 190.936 46.1501C190.699 46.3872 190.412 46.5057 190.074 46.5057C189.736 46.5057 189.437 46.3896 189.207 46.1575C188.98 45.9254 188.866 45.6364 188.866 45.2907Z" fill="#712732"/>
<path d="M196.156 53.9585H195.633L192.822 47.2416H191.8V46.9971H196.045V47.2416H195.136L196.9 51.4841L198.107 48.5677C198.161 48.4417 198.201 48.3232 198.228 48.217C198.255 48.1108 198.27 48.0071 198.27 47.9058C198.27 47.6688 198.184 47.5008 198.013 47.3971C197.84 47.2934 197.554 47.244 197.151 47.244V46.9995H199.939V47.244H199.875C199.559 47.244 199.295 47.3477 199.083 47.5552C198.87 47.7626 198.623 48.1997 198.337 48.8665L196.161 53.9585H196.156Z" fill="#712732"/>
<path d="M205.807 50.0494H201.552V51.1928C201.552 52.0398 201.685 52.6522 201.955 53.0325C202.224 53.4153 202.656 53.6055 203.251 53.6055C203.846 53.6055 204.338 53.403 204.77 52.998C205.202 52.593 205.516 52.0299 205.708 51.3113H205.958C205.792 52.1411 205.439 52.7905 204.898 53.2573C204.357 53.724 203.693 53.9586 202.903 53.9586C201.841 53.9586 200.967 53.6203 200.28 52.9461C199.596 52.2719 199.253 51.4076 199.253 50.3556C199.253 49.3826 199.591 48.548 200.268 47.8491C200.945 47.1502 201.755 46.7996 202.7 46.7996C203.57 46.7996 204.298 47.1033 204.883 47.7108C205.469 48.3183 205.775 49.0962 205.802 50.0494H205.807ZM203.535 49.8049V48.6764C203.535 48.0294 203.461 47.5972 203.318 47.3749C203.172 47.1552 202.91 47.044 202.527 47.044C202.145 47.044 201.91 47.165 201.767 47.4095C201.624 47.654 201.552 48.1232 201.552 48.8171V49.8025H203.535V49.8049Z" fill="#712732"/>
<path d="M206.95 47.4391H206.014V47.1946H207.293C207.664 47.1946 207.997 47.1798 208.289 47.1477C208.582 47.1156 208.857 47.0662 209.116 46.9971V48.3849C209.308 47.9478 209.568 47.607 209.894 47.365C210.22 47.1205 210.575 46.9971 210.961 46.9971C211.385 46.9971 211.716 47.1057 211.956 47.3255C212.195 47.5428 212.314 47.8441 212.314 48.2269C212.314 48.5578 212.213 48.8294 212.01 49.0393C211.805 49.2492 211.546 49.3554 211.23 49.3554C210.914 49.3554 210.649 49.2517 210.439 49.0443C210.232 48.8368 210.126 48.5751 210.126 48.259C210.126 48.1281 210.148 47.9972 210.19 47.8639C210.232 47.733 210.304 47.5947 210.4 47.4539C210.025 47.5428 209.718 47.7799 209.484 48.1602C209.252 48.5405 209.133 48.9998 209.133 49.5357V53.7141H210.397V53.9585H206.014V53.7141H206.95V47.4391Z" fill="#712732"/>
<path d="M213.008 53.9438V51.42H213.257C213.618 52.2102 214.011 52.7881 214.44 53.1585C214.87 53.5289 215.359 53.7141 215.907 53.7141C216.342 53.7141 216.69 53.5956 216.949 53.3585C217.211 53.1215 217.339 52.8054 217.339 52.4053C217.339 51.8843 216.809 51.5459 215.744 51.3879C215.519 51.3558 215.344 51.3311 215.221 51.3089C214.421 51.1706 213.845 50.9409 213.494 50.6149C213.146 50.289 212.971 49.8272 212.971 49.2271C212.971 48.5529 213.203 47.9825 213.665 47.5083C214.127 47.0342 214.692 46.7971 215.364 46.7971C215.697 46.7971 216.055 46.8589 216.443 46.9823C216.831 47.1058 217.041 47.1675 217.08 47.1675C217.181 47.1675 217.268 47.1404 217.339 47.0885C217.411 47.0367 217.473 46.9552 217.522 46.844H217.789V49.0122H217.522C217.307 48.3554 217.014 47.8664 216.641 47.5429C216.268 47.2194 215.811 47.0589 215.275 47.0589C214.868 47.0589 214.527 47.1725 214.253 47.3972C213.978 47.6244 213.84 47.9059 213.84 48.2418C213.84 48.3949 213.882 48.5356 213.961 48.669C214.04 48.7999 214.156 48.911 214.307 48.9999C214.458 49.0937 214.779 49.1604 215.273 49.2024C215.766 49.2419 216.149 49.2913 216.418 49.3555C217.085 49.5012 217.562 49.7407 217.856 50.0692C218.149 50.3976 218.295 50.8545 218.295 51.4373C218.295 52.1954 218.061 52.8054 217.586 53.2672C217.115 53.729 216.492 53.9611 215.724 53.9611C215.468 53.9611 215.144 53.9018 214.759 53.7833C214.374 53.6648 214.102 53.6055 213.944 53.6055C213.761 53.6055 213.613 53.6327 213.502 53.6845C213.388 53.7364 213.307 53.8228 213.252 53.9438H213.003H213.008Z" fill="#712732"/>
<path d="M220.024 47.4392H219.065V47.1947H220.355C220.725 47.1947 221.063 47.1799 221.367 47.1478C221.671 47.1157 221.95 47.0663 222.202 46.9971V53.7141H223.16V53.9586H219.068V53.7141H220.026V47.4392H220.024ZM219.92 45.2907C219.92 44.9549 220.036 44.6758 220.268 44.4511C220.498 44.2288 220.787 44.1152 221.13 44.1152C221.473 44.1152 221.757 44.2288 221.994 44.456C222.231 44.6807 222.347 44.9598 222.347 45.2907C222.347 45.6216 222.229 45.9155 221.994 46.1501C221.757 46.3872 221.471 46.5057 221.13 46.5057C220.789 46.5057 220.493 46.3896 220.266 46.1575C220.036 45.9254 219.922 45.6364 219.922 45.2907H219.92Z" fill="#712732"/>
<path d="M223.585 46.9996H223.617C224.331 46.9996 224.931 46.7231 225.417 46.1724C225.904 45.6192 226.227 44.8413 226.388 43.8313H226.63V46.9996H228.121V47.2441H226.63V52.3288C226.63 52.7017 226.672 52.9684 226.756 53.124C226.839 53.282 226.975 53.361 227.163 53.361C227.333 53.361 227.499 53.3067 227.659 53.1931C227.817 53.0795 227.956 52.9215 228.074 52.7165L228.284 52.8424C228.096 53.1906 227.822 53.4623 227.467 53.6623C227.109 53.8623 226.711 53.9611 226.272 53.9611C225.617 53.9611 225.15 53.7907 224.874 53.4499C224.597 53.1092 224.459 52.5041 224.459 51.6373V47.2441H223.59V46.9996H223.585Z" fill="#712732"/>
<path d="M179.379 43.1917H174.706V43.4213H176.277C176.808 43.4312 177.171 43.525 177.361 43.6979C177.551 43.8732 177.645 44.3004 177.645 44.982V49.3629C177.645 50.3507 177.586 51.0545 177.47 51.4718C177.351 51.8892 177.154 52.2448 176.874 52.5362C176.628 52.793 176.319 52.9906 175.951 53.1338C175.583 53.2746 175.193 53.3462 174.78 53.3462C174.314 53.3462 173.889 53.2523 173.509 53.0696C173.128 52.8844 172.817 52.6251 172.583 52.2942C172.417 52.0596 172.296 51.778 172.227 51.4521C172.155 51.1261 172.123 50.5878 172.123 49.8346V43.4312H173.427V43.1941H168.375V43.4312H169.681V49.8642C169.681 50.7606 169.794 51.4471 170.019 51.9237C170.244 52.4004 170.632 52.8202 171.18 53.1857C171.565 53.4425 171.995 53.6351 172.469 53.766C172.941 53.8969 173.452 53.9611 174 53.9611C174.667 53.9611 175.277 53.8574 175.832 53.6499C176.388 53.4425 176.835 53.1511 177.173 52.7782C177.475 52.4448 177.689 52.0596 177.818 51.62C177.946 51.1804 178.013 50.4297 178.013 49.3654V44.9845C178.013 44.3177 178.107 43.8955 178.299 43.7152C178.49 43.5349 178.85 43.4386 179.383 43.4238H179.89V43.1941H179.383L179.379 43.1917Z" fill="#712732"/>
<path d="M233.841 46.9799V47.2243H233.969C234.285 47.2243 234.525 47.2762 234.685 47.3799C234.846 47.4812 234.927 47.6343 234.927 47.8318C234.927 47.9059 234.905 48.017 234.858 48.1627C234.811 48.3109 234.747 48.4813 234.66 48.6764L233.475 51.3089L231.712 47.2243H232.752V46.9799H228.44V47.2243H229.383L232.361 54.1191C232.361 54.1191 231.7 56.1268 230.536 56.8084C230.536 56.8084 230.598 56.6207 230.598 56.4898C230.598 56.1762 230.494 55.912 230.285 55.707C230.075 55.4996 229.813 55.3959 229.494 55.3959C229.176 55.3959 228.916 55.502 228.714 55.712C228.509 55.9219 228.408 56.1935 228.408 56.5244C228.408 56.9072 228.529 57.2085 228.768 57.4258C229.005 57.6456 229.339 57.7542 229.763 57.7542C230.139 57.7542 231.193 57.6135 232.687 54.1488C234.179 50.6866 234.996 48.6937 234.996 48.6937C235.265 48.0936 235.505 47.7009 235.717 47.5108C235.93 47.3206 236.196 47.2268 236.518 47.2268V46.9823H233.843L233.841 46.9799Z" fill="#712732"/>
</svg>
