<svg xmlns="http://www.w3.org/2000/svg" width="115" height="30" viewBox="0 0 115 30" fill="none">
  <path d="M10.2264 8.85819L9.21313 8.14623L9.34555 8.04644L9.83873 8.40146C9.97307 8.49933 10.094 8.58761 10.2033 8.67972H10.2053C10.1496 8.54923 10.0997 8.40146 10.0517 8.24602L9.86368 7.66072L9.99418 7.56285L10.3607 8.7584L10.2264 8.85819Z" fill="#77222D"/>
  <path d="M11.0459 7.67032L10.6525 7.89868L10.8655 8.26521L11.3068 8.00807L11.3702 8.11937L10.7964 8.45328L10.2053 7.4362L10.7561 7.11572L10.8194 7.22511L10.4011 7.46882L10.5872 7.7893L10.9806 7.56093L11.0439 7.67032H11.0459Z" fill="#77222D"/>
  <path d="M11.0669 6.97562C11.1321 6.93149 11.23 6.87775 11.324 6.83554C11.4737 6.77029 11.5831 6.75686 11.6752 6.78756C11.7481 6.81251 11.8134 6.872 11.8499 6.95643C11.9113 7.09652 11.8633 7.23085 11.7693 7.31913V7.32297C11.8652 7.31529 11.9496 7.37094 12.0245 7.47265C12.1262 7.60698 12.1972 7.69909 12.2375 7.73172L12.0936 7.79505C12.0609 7.7701 11.9976 7.6895 11.9093 7.5686C11.8115 7.43427 11.729 7.40357 11.6004 7.45538L11.4699 7.51295L11.6752 7.97927L11.5371 8.04068L11.0707 6.97754L11.0669 6.97562ZM11.4219 7.40548L11.5639 7.34216C11.7136 7.27691 11.7712 7.15409 11.7174 7.03128C11.656 6.89311 11.5294 6.87584 11.3816 6.94108C11.3144 6.96987 11.2703 6.99482 11.2492 7.01209L11.4219 7.40548Z" fill="#77222D"/>
  <path d="M12.1646 6.5189L12.5426 7.63193L12.3968 7.68183L12.0187 6.56688L12.1646 6.51698V6.5189Z" fill="#77222D"/>
  <path d="M12.7518 6.48052L12.4045 6.56687L12.3738 6.44214L13.2181 6.22913L13.2489 6.35386L12.8996 6.44214L13.1548 7.4573L13.0051 7.49568L12.7499 6.48052H12.7518Z" fill="#77222D"/>
  <path d="M13.6308 6.98331L13.5617 7.36711L13.4062 7.39014L13.6385 6.16772L13.8188 6.14278L14.3811 7.25197L14.2199 7.275L14.0434 6.92574L13.6308 6.98523V6.98331ZM13.9973 6.8106L13.8342 6.49204C13.7977 6.41912 13.7709 6.35195 13.744 6.2867H13.7402C13.7325 6.35771 13.7248 6.43255 13.7114 6.50739L13.6442 6.86049L13.9973 6.8106Z" fill="#77222D"/>
  <path d="M14.5174 7.0639C14.5864 7.10612 14.6843 7.13682 14.7899 7.13491C14.9453 7.13107 15.0336 7.04855 15.0317 6.92957C15.0297 6.82019 14.9645 6.75686 14.8052 6.70121C14.6114 6.63596 14.4905 6.53617 14.4867 6.37306C14.4828 6.18883 14.6325 6.05066 14.8609 6.0449C14.9798 6.04298 15.07 6.06793 15.1199 6.09672L15.0815 6.22145C15.0451 6.20034 14.9645 6.16772 14.8589 6.16964C14.6977 6.17348 14.6383 6.27135 14.6421 6.35003C14.644 6.45941 14.7169 6.51314 14.8801 6.57263C15.0815 6.64556 15.1813 6.73959 15.1852 6.9123C15.189 7.09461 15.0585 7.2558 14.7822 7.26156C14.669 7.26348 14.5442 7.23086 14.4809 7.19056L14.5174 7.06198V7.0639Z" fill="#77222D"/>
  <path d="M15.8952 6.8912C15.8702 7.09845 15.9892 7.20016 16.1427 7.21935C16.2521 7.2347 16.3212 7.22511 16.3807 7.20783L16.3941 7.32106C16.3366 7.33833 16.2406 7.3556 16.1063 7.33641C15.8491 7.30187 15.7167 7.10996 15.7513 6.85665C15.7858 6.60334 15.9604 6.42679 16.2041 6.45942C16.4786 6.49588 16.5189 6.74535 16.4978 6.89887C16.4939 6.92958 16.4882 6.9526 16.4824 6.96988L15.8933 6.8912H15.8952ZM16.3577 6.8413C16.373 6.74727 16.3519 6.58991 16.1792 6.56688C16.0238 6.54577 15.9393 6.67627 15.9125 6.78181L16.3577 6.8413Z" fill="#77222D"/>
  <path d="M17.0293 6.42296L16.9833 6.62062L17.1982 6.67051L17.1714 6.78373L16.9564 6.73384L16.8547 7.17905C16.8317 7.28076 16.847 7.34601 16.9315 7.3652C16.9718 7.37479 16.9967 7.37671 17.0198 7.37479L17.0006 7.48993C16.9699 7.49377 16.9219 7.49377 16.8624 7.48034C16.7933 7.46498 16.7415 7.4266 16.7146 7.38055C16.6839 7.3249 16.6839 7.24814 16.707 7.15218L16.8106 6.70313L16.682 6.67435L16.7089 6.55921L16.8355 6.58799L16.872 6.43447L17.0274 6.42296H17.0293Z" fill="#77222D"/>
  <path d="M17.9505 6.54768L18.0944 6.60334L17.7221 7.58395L18.1922 7.76242L18.1462 7.8814L17.5321 7.6492L17.9485 6.54768H17.9505Z" fill="#77222D"/>
  <path d="M18.908 6.94108L18.5876 7.56092C18.4667 7.79312 18.5204 7.94664 18.6605 8.01957C18.814 8.09825 18.9675 8.04835 19.0865 7.81807L19.407 7.19823L19.5432 7.26923L19.2285 7.8814C19.0635 8.20187 18.8255 8.24601 18.5991 8.12895C18.3841 8.01765 18.2863 7.81423 18.4552 7.488L18.7737 6.87199L18.91 6.943L18.908 6.94108Z" fill="#77222D"/>
  <path d="M19.739 8.81406L19.7639 8.51277C19.7716 8.39571 19.7773 8.32279 19.7869 8.24603H19.785C19.7178 8.28057 19.6545 8.31319 19.5451 8.36309L19.2822 8.49358L19.1383 8.39379L19.7735 8.1117L19.8234 7.4362L19.9673 7.53791L19.9366 7.85263C19.9289 7.9409 19.9213 8.00807 19.9117 8.07715L19.9155 8.08099C19.9827 8.04261 20.0383 8.01575 20.117 7.97929L20.4049 7.84495L20.5488 7.94666L19.927 8.21149L19.881 8.91768L19.737 8.81598L19.739 8.81406Z" fill="#77222D"/>
  <path d="M14.999 30C10.9921 30 7.2251 28.4398 4.39263 25.6074C1.56016 22.773 0 19.0059 0 14.999C0 10.9921 1.56016 7.22702 4.39263 4.39263C7.22702 1.56016 10.9941 0 14.999 0C19.004 0 22.773 1.56016 25.6054 4.39263C28.4379 7.2251 29.9981 10.9921 29.9981 14.999C29.9981 19.0059 28.4379 22.773 25.6054 25.6054C22.773 28.4379 19.0059 29.9981 14.999 29.9981V30ZM14.999 0.460564C6.9833 0.460564 0.460564 6.9833 0.460564 14.999C0.460564 23.0148 6.9833 29.5375 14.999 29.5375C23.0148 29.5375 29.5375 23.0148 29.5375 14.999C29.5375 6.9833 23.0167 0.460564 14.999 0.460564Z" fill="#77222D"/>
  <path d="M14.999 24.8589C9.56247 24.8589 5.14105 20.4356 5.14105 14.999C5.14105 9.56245 9.56439 5.14104 14.999 5.14104C20.4337 5.14104 24.859 9.56437 24.859 14.999C24.859 20.4337 20.4356 24.8589 14.999 24.8589ZM14.999 5.42889C9.72175 5.42889 5.4289 9.72173 5.4289 14.999C5.4289 20.2763 9.72175 24.5692 14.999 24.5692C20.2763 24.5692 24.5692 20.2763 24.5692 14.999C24.5692 9.72173 20.2763 5.42889 14.999 5.42889Z" fill="#77222D"/>
  <path d="M3.82267 19.6699C4.23526 19.5126 4.61715 19.2209 4.51736 18.9561C4.41757 18.6951 3.957 18.72 3.5022 18.8946C3.0589 19.0635 2.7154 19.3571 2.81135 19.6066C2.9073 19.858 3.35251 19.8484 3.82267 19.6699Z" fill="#77222D"/>
  <path d="M18.8333 25.5959C18.8582 25.7263 18.8851 25.8607 18.9062 25.9969L18.9983 26.6475L19.3936 26.5016L19.0443 25.949C18.9657 25.8242 18.9004 25.7072 18.8371 25.5939H18.8333V25.5959Z" fill="#77222D"/>
  <path d="M23.7978 22.2145L23.7939 22.2184C23.863 22.3316 23.911 22.416 23.9628 22.5082L24.3063 23.2297L24.3121 23.2335L24.5961 22.8958L24.0492 22.4352C23.9628 22.3623 23.8784 22.2894 23.7959 22.2145H23.7978Z" fill="#77222D"/>
  <path d="M10.971 3.24506C11.1706 3.16254 11.28 2.97256 11.2013 2.7845C11.1226 2.5926 10.9096 2.54078 10.71 2.6233C10.5124 2.70582 10.4011 2.8958 10.4797 3.08578C10.5584 3.27385 10.7714 3.32758 10.971 3.24314V3.24506Z" fill="#77222D"/>
  <path d="M22.8229 24.0069C22.5888 23.7248 22.3451 23.5636 22.1992 23.6864C22.0802 23.7862 22.134 24.0242 22.3278 24.2564C22.4986 24.4617 22.6963 24.5423 22.8172 24.4406C22.9112 24.3619 22.9246 24.2276 22.8786 24.099C22.8709 24.0722 22.8536 24.0434 22.8248 24.0069H22.8229Z" fill="#77222D"/>
  <path d="M9.61036 25.3099C9.74853 25.0585 9.70248 24.8897 9.54703 24.8014C9.47603 24.7611 9.41846 24.7457 9.38776 24.7438L8.99628 25.4538L9.14788 25.5383C9.30524 25.6266 9.48755 25.5344 9.61036 25.3118V25.3099Z" fill="#77222D"/>
  <path d="M8.28824 6.0948C8.46862 5.9432 8.52236 5.711 8.3957 5.5594C8.26713 5.40971 8.03109 5.42315 7.8507 5.57667C7.67031 5.72827 7.61658 5.96047 7.74324 6.11208C7.86989 6.26368 8.10977 6.24833 8.28824 6.09672V6.0948Z" fill="#77222D"/>
  <path d="M25.7436 10.1996L26.3826 10.0499L26.2041 9.66801L25.6841 10.0633C25.567 10.1535 25.4557 10.2284 25.3483 10.3013V10.3051C25.4788 10.2667 25.6093 10.2303 25.7436 10.1977V10.1996Z" fill="#77222D"/>
  <path d="M26.3347 11.9209C26.0564 11.9881 25.9643 12.1455 26.0065 12.3316C26.0276 12.416 26.0545 12.4736 26.0737 12.4986L26.8605 12.3086L26.8183 12.1282C26.7722 11.9401 26.5803 11.8614 26.3347 11.9209Z" fill="#77222D"/>
  <path d="M26.2042 13.4753C26.2407 13.7728 26.6936 13.8668 27.1791 13.8073C27.6492 13.7498 28.0522 13.5368 28.0177 13.2547C27.9831 12.9706 27.5475 12.8613 27.0467 12.9227C26.6091 12.9764 26.1678 13.1779 26.2061 13.4753H26.2042Z" fill="#77222D"/>
  <path d="M25.0681 4.93188C22.3796 2.24141 18.8025 0.759933 14.9991 0.759933C11.1956 0.759933 7.62043 2.24141 4.92997 4.92996C2.24143 7.62042 0.759949 11.1955 0.759949 14.999C0.759949 18.8025 2.24143 22.3777 4.92997 25.0681C7.61852 27.7567 11.1956 29.2381 14.9991 29.2381C18.8025 29.2381 22.3796 27.7567 25.0681 25.0681C27.7567 22.3796 29.2382 18.8025 29.2382 14.999C29.2382 11.1955 27.7567 7.62042 25.0681 4.92996V4.93188ZM28.3017 14.2487L27.2194 14.7285L27.465 14.857L28.3113 14.8417V15.0221L26.0929 15.0604L26.0891 14.8801L27.1599 14.8609V14.8551C27.0735 14.8187 26.9929 14.7822 26.92 14.7496L26.0795 14.337L26.0756 14.1125L27.0275 14.6037L28.2959 14.0357L28.2998 14.2487H28.3017ZM28.2479 13.2355C28.294 13.602 27.8737 13.9148 27.2059 13.9973C26.5055 14.0837 26.0142 13.8668 25.9682 13.4945C25.9221 13.1146 26.352 12.8133 27.0063 12.7327C27.7644 12.6386 28.2038 12.8804 28.246 13.2335L28.2479 13.2355ZM27.8795 11.5045C27.8238 11.541 27.6454 11.6158 27.3863 11.7194C27.0985 11.8307 27.0044 11.9305 27.0332 12.0936L27.0735 12.2587L28.0081 12.0342L28.0503 12.2088L25.9202 12.7231C25.8703 12.6406 25.8242 12.5178 25.7935 12.3969C25.7494 12.2088 25.7743 12.0745 25.8741 11.9612C25.9528 11.8691 26.091 11.7962 26.2579 11.7559C26.5419 11.6868 26.7588 11.7559 26.8701 11.8787H26.8797C26.9123 11.7578 27.0505 11.658 27.2673 11.5717C27.5571 11.4546 27.7586 11.3721 27.8354 11.3241L27.8795 11.5064V11.5045ZM27.7317 10.9941L25.6342 11.7233L25.3867 11.0094L25.6131 10.9307L25.8012 11.4738L26.4633 11.2435L26.2848 10.7292L26.5093 10.6505L26.6878 11.1648L27.4439 10.9019L27.2443 10.3301L27.4707 10.2514L27.7298 10.9941H27.7317ZM26.9603 9.10574L26.3923 9.53752L26.6033 9.98657L27.298 9.82153L27.3767 9.99041L25.1641 10.5047L25.072 10.307L26.8778 8.93111L26.9603 9.10574ZM25.1391 14.999C25.1391 20.5891 20.5911 25.1391 14.9991 25.1391C9.40704 25.1391 4.85897 20.5911 4.85897 14.999C4.85897 9.40703 9.40704 4.85895 14.9991 4.85895C20.5911 4.85895 25.1391 9.40703 25.1391 14.999ZM24.7995 7.48225C24.9722 7.48225 25.1123 7.62234 25.1123 7.79505C25.1123 7.96776 24.9722 8.10785 24.7995 8.10785C24.6268 8.10785 24.4867 7.96776 24.4867 7.79505C24.4867 7.62234 24.6268 7.48225 24.7995 7.48225ZM21.4124 5.24276L21.6945 5.49031L22.2817 4.81674L22.5868 5.08156L21.9996 5.75513L22.2299 5.95663L22.8171 5.28306L23.1223 5.5498L22.535 6.22337L22.8344 6.48436L23.7325 5.45385L22.4679 4.3485L22.6483 4.14124L24.1086 5.41355C24.1816 5.47688 24.1892 5.58818 24.1259 5.65918L23.1606 6.76646L23.2911 6.87968L23.1088 7.08885L21.2282 5.44809L21.4105 5.23892L21.4124 5.24276ZM18.3535 2.75379C18.4072 2.63289 18.5128 2.54846 18.649 2.5024L18.4322 2.40645L18.5396 2.16273L19.1403 2.42756L19.2171 2.25293L19.5702 2.40837L19.4934 2.583L20.094 2.84974L19.9866 3.09346L19.7678 2.99751C19.8254 3.128 19.8369 3.26425 19.7832 3.38515C19.6565 3.67108 19.2458 3.75936 18.8428 3.58281C18.4341 3.40242 18.2288 3.04164 18.3535 2.75571V2.75379ZM18.1731 3.44848L19.7563 4.14508L20.3224 2.86318L20.7081 3.03205L20.4855 3.53483L20.7926 3.66916L20.6813 3.92055L20.3761 3.7843L20.1075 4.39263L19.7659 5.16792L19.3821 4.99712L19.6508 4.38879L18.0676 3.69027L18.175 3.44848H18.1731ZM13.9609 1.79045H15.1219V2.06487H14.3715V2.95337H15.3138V1.7156H15.6861V2.34312H15.901V1.7156H16.2752V4.04721H15.901V2.61562H15.6861V4.04721H15.3138V3.23163H14.195C14.0261 3.23163 13.9609 3.11841 13.9609 3.0071V1.79045ZM12.5561 4.19497L10.7868 4.93763C10.6314 5.0048 10.5277 4.9242 10.4836 4.82249L10.2706 4.31203L10.6486 4.15467L10.8482 4.62867L12.4544 3.9551L12.5561 4.19497ZM10.6103 2.38918C11.044 2.20879 11.4604 2.27788 11.6043 2.61754C11.7463 2.95337 11.5026 3.30071 11.0708 3.48302C10.6371 3.66533 10.2188 3.59432 10.0787 3.25849C9.93669 2.91883 10.1785 2.57149 10.6122 2.38918H10.6103ZM12.2357 3.06275L12.3374 3.30647L11.3702 3.71138L11.5256 4.07983L11.1438 4.24103L10.9883 3.87258L10.0499 4.2679L9.9482 4.02418L12.2357 3.06275ZM7.6473 3.88025L7.95051 4.23911L8.23068 4.00307L8.40723 4.21225L8.12705 4.4502L8.43218 4.81098L8.11554 5.07772L7.33066 4.15084L7.64922 3.88217L7.6473 3.88025ZM7.04089 4.49242C7.11381 4.43101 7.22512 4.44061 7.28653 4.51353L7.75285 5.06429L7.86031 4.97409L8.02919 5.17367C8.30552 5.06429 8.57994 5.08732 8.7373 5.27346C8.95799 5.53445 8.82558 5.98158 8.45905 6.29246C8.09251 6.60142 7.63579 6.65323 7.4151 6.39225C7.26158 6.20994 7.27885 5.93936 7.42661 5.68797L6.68587 6.31549L6.51508 6.11399L6.82596 5.85109L6.55922 5.53829L6.83748 5.30225L7.1023 5.61697L7.4554 5.31952L7.05432 4.84552L6.20036 5.56707L6.02189 5.3579L7.04281 4.49626L7.04089 4.49242ZM5.427 7.48225C5.59971 7.48225 5.7398 7.62234 5.7398 7.79505C5.7398 7.96776 5.59971 8.10785 5.427 8.10785C5.25429 8.10785 5.1142 7.96776 5.1142 7.79505C5.1142 7.62234 5.25429 7.48225 5.427 7.48225ZM2.34698 11.0516L3.49839 11.255C3.78048 11.3049 3.99541 11.3472 4.21418 11.4009V11.397C4.01268 11.3069 3.81502 11.2109 3.55788 11.0746L2.51777 10.5373L2.57342 10.3685L4.78029 10.7446L4.13934 9.94243L2.7634 9.87335L2.84784 9.69104L4.01844 9.75437L3.84957 9.53944L3.08004 9.18634L3.15104 9.03282L5.16985 9.9597L5.09885 10.1132L4.1259 9.66609V9.67185C4.18731 9.73901 4.24488 9.80426 4.2967 9.86375L4.88775 10.5757L4.79948 10.7676L4.78797 10.7542L4.73423 10.9173L3.61737 10.7139C3.34295 10.664 3.06853 10.6122 2.85743 10.5661V10.5699C3.05893 10.6601 3.29689 10.781 3.55596 10.9115L4.56536 11.4277L4.50971 11.5966L3.389 11.3951C3.1261 11.3472 2.86511 11.2992 2.63675 11.2435V11.2474C2.85935 11.3491 3.08196 11.4623 3.33143 11.587L4.34083 12.1013L4.2871 12.2664L2.29324 11.2205L2.34889 11.0516H2.34698ZM1.97085 12.5734L2.6828 12.583L2.78067 12.1282L2.12629 11.848L2.16275 11.6772L4.24105 12.5772L4.19883 12.7768L1.93439 12.748L1.97277 12.5715L1.97085 12.5734ZM1.7943 13.8918L2.95914 13.6001C3.21437 13.5367 3.47728 13.4773 3.72291 13.437V13.4312C3.44082 13.4101 3.17407 13.3851 2.80754 13.3448L1.86338 13.2431L1.88065 13.0839L4.08752 13.3237L4.06833 13.508L2.90541 13.8035C2.63675 13.8726 2.39495 13.9225 2.16275 13.9589L2.16659 13.9628C2.46212 13.98 2.7327 14.005 3.0762 14.0414L3.99925 14.1412L3.98198 14.3005L1.77511 14.0606L1.7943 13.8898V13.8918ZM2.02074 14.6152C2.20497 14.502 2.50242 14.4329 2.84784 14.4329C3.5099 14.4348 3.99541 14.7035 3.99541 15.143C3.99541 15.2946 3.93976 15.4135 3.8937 15.4692L3.65958 15.4289C3.71332 15.3598 3.75553 15.2715 3.75553 15.1391C3.75553 14.8206 3.41971 14.6133 2.86319 14.6133C2.30668 14.6133 1.96701 14.8129 1.96701 15.118C1.96701 15.2293 1.99388 15.3042 2.0265 15.3445H2.68856V15.0777H2.91884V15.5095H1.85187C1.80581 15.4347 1.72905 15.285 1.72905 15.1065C1.72905 14.9088 1.81541 14.7457 2.02266 14.6172L2.02074 14.6152ZM1.88641 16.8701L3.01287 16.5611C3.28921 16.4844 3.50222 16.4306 3.72099 16.3846V16.3807C3.49839 16.3846 3.27962 16.3846 2.98793 16.3711L1.81733 16.3308L1.7943 16.1562L3.95703 15.5479L3.98006 15.7263L2.8843 16.0219C2.61372 16.0948 2.34506 16.1658 2.13396 16.2138V16.2176C2.35657 16.2119 2.62331 16.2176 2.91309 16.2272L4.04722 16.2598L4.07025 16.4345L2.97258 16.7338C2.71543 16.8029 2.45828 16.872 2.228 16.92V16.9238C2.47363 16.92 2.7231 16.9257 3.00328 16.9315L4.13742 16.9622L4.15853 17.1349L1.90944 17.0447L1.88641 16.8682V16.8701ZM2.13205 18.2556C2.04569 17.9198 2.42374 17.5705 3.07428 17.4016C3.75745 17.2232 4.26791 17.3575 4.35619 17.6972C4.44638 18.0426 4.0549 18.3842 3.41779 18.5511C2.67705 18.743 2.21648 18.5799 2.13205 18.2575V18.2556ZM2.58877 19.6814C2.46404 19.359 2.8037 18.9695 3.43122 18.7277C4.08944 18.4763 4.61333 18.5511 4.73807 18.8793C4.86664 19.2132 4.51547 19.5951 3.89946 19.8311C3.18559 20.1036 2.70967 19.9942 2.58877 19.6814ZM3.34678 21.2819L4.17004 20.4087C4.35043 20.2168 4.53849 20.0249 4.72464 19.8599L4.71888 19.8561C4.47133 19.9904 4.23529 20.1113 3.90522 20.2763L3.05509 20.6985L2.98409 20.5565L4.97219 19.5682L5.05471 19.7333L4.23529 20.6083C4.04531 20.8117 3.86876 20.9845 3.69413 21.1399H3.69796C3.95703 20.996 4.19691 20.8731 4.50587 20.7177L5.33872 20.3051L5.40973 20.4471L3.42163 21.4354L3.34486 21.2819H3.34678ZM4.43103 23.0052C4.26791 22.7922 4.35235 22.4736 4.89927 22.0553L5.93746 21.2589L6.04108 21.3951L4.99714 22.1954C4.60182 22.4986 4.51355 22.7288 4.62101 22.8689C4.73999 23.0224 4.98754 22.9898 5.3771 22.6905L6.42105 21.8902L6.52468 22.0265L5.49608 22.8133C4.95492 23.2278 4.60374 23.2297 4.43103 23.0052ZM5.60163 24.3005L6.13703 23.2259C6.25409 22.9898 6.37883 22.7519 6.50932 22.5389H6.50357C6.30591 22.7365 6.11401 22.9227 5.84534 23.1741L5.1545 23.8246L5.04511 23.7075L6.66285 22.1858L6.7895 22.3201L6.25793 23.3967C6.13512 23.6461 6.01614 23.8611 5.89332 24.0626H5.89908C6.10441 23.8476 6.29823 23.6615 6.54962 23.4235L7.22704 22.7864L7.33642 22.9035L5.71869 24.4253L5.60163 24.3005ZM6.01038 24.6939L7.51489 23.0608L7.63963 23.176L6.13512 24.8091L6.01038 24.6939ZM6.64365 25.2504L7.70679 23.2547L7.8488 23.3698L7.31915 24.3485C7.17522 24.6172 7.04281 24.8589 6.90656 25.0835H6.9104C7.10038 24.9088 7.31915 24.7246 7.54751 24.5366L8.40915 23.8227L8.54924 23.9359L6.7895 25.3675L6.64365 25.2504ZM7.98313 26.2234L7.37288 25.8127L8.61257 23.9704L9.19979 24.3658L9.06545 24.5653L8.61832 24.2641L8.22684 24.8455L8.64903 25.1295L8.51662 25.3272L8.09443 25.0432L7.6473 25.7072L8.11746 26.0238L7.98313 26.2234ZM9.02516 26.8144L8.87163 26.73C8.88315 26.6647 8.95031 26.4844 9.05202 26.2234C9.16716 25.9355 9.16141 25.8012 9.03091 25.7187L8.89082 25.6419L8.4245 26.4844L8.27674 26.4018L9.33795 24.4847C9.42623 24.5001 9.54137 24.5442 9.645 24.6018C9.80428 24.6901 9.87912 24.7956 9.88871 24.9434C9.89831 25.0624 9.85801 25.212 9.77549 25.3617C9.63348 25.6189 9.4435 25.7359 9.28614 25.7379L9.28038 25.7455C9.33987 25.8472 9.31685 26.0142 9.23241 26.231C9.11919 26.5227 9.04434 26.7262 9.02516 26.8125V26.8144ZM9.54329 27.0888C9.42815 27.037 9.32644 26.9238 9.29574 26.824L9.43199 26.6225C9.46845 26.7262 9.54329 26.8298 9.65075 26.8778C9.80811 26.9488 9.96355 26.847 10.0557 26.6417C10.1401 26.4517 10.1248 26.3155 10.0096 26.1389C9.86568 25.9355 9.82155 25.7091 9.9482 25.4231C10.0883 25.1065 10.3474 24.9395 10.5796 25.0432C10.7024 25.0969 10.7695 25.1852 10.8002 25.26L10.6621 25.4558C10.639 25.402 10.5853 25.3061 10.4779 25.2581C10.3147 25.1852 10.1785 25.3234 10.1171 25.4634C10.0326 25.6534 10.0653 25.7782 10.1823 25.9605C10.3262 26.1831 10.355 26.3942 10.2245 26.6916C10.0864 27.0044 9.82922 27.2155 9.54521 27.0908L9.54329 27.0888ZM10.2744 27.3556L11.0478 25.2735L11.2071 25.3329L10.4337 27.4151L10.2744 27.3556ZM11.7674 25.7743L11.1936 27.6665L11.0305 27.6166L11.6043 25.7244L11.2224 25.6093L11.2934 25.3752L12.2222 25.6573L12.1512 25.8895L11.7674 25.7743ZM12.5408 27.0274L12.347 27.9524L12.18 27.9179L12.3738 26.9948L12.2299 25.6592L12.418 25.6995L12.4736 26.3366C12.489 26.5112 12.4986 26.6513 12.5063 26.8106H12.5101C12.5753 26.6782 12.6502 26.5438 12.7327 26.3903L13.0436 25.83L13.2316 25.8703L12.5408 27.0274ZM15.0355 27.3076C14.8628 27.3076 14.7227 27.1675 14.7227 26.9948C14.7227 26.8221 14.8628 26.682 15.0355 26.682C15.2082 26.682 15.3483 26.8221 15.3483 26.9948C15.3483 27.1675 15.2082 27.3076 15.0355 27.3076ZM18.4955 27.7816L18.2345 26.8413C18.152 26.5419 18.0541 26.1831 17.9908 25.9144H17.985C17.9985 26.1792 18.0081 26.4632 18.01 26.778L18.0215 27.8833L17.8891 27.914L17.4228 26.9392C17.2846 26.6494 17.1637 26.3846 17.0639 26.137H17.0601C17.1196 26.4076 17.1963 26.7722 17.2616 27.0984L17.4477 28.033L17.2808 28.0733L16.8586 25.8914L17.0831 25.8376L17.5648 26.8259C17.6857 27.0792 17.7874 27.3038 17.8757 27.5206H17.8814C17.8641 27.2923 17.8546 27.0447 17.8507 26.7569L17.843 25.6553L18.0676 25.6016L18.6701 27.7413L18.4993 27.7816H18.4955ZM19.8849 27.3057L19.5049 26.7012L19.0386 26.872L19.1422 27.5782L18.9657 27.6415L18.649 25.3924L18.8544 25.3176L20.0653 27.2385L19.883 27.3057H19.8849ZM20.4951 27.0389L20.0979 26.185L19.1576 25.212L19.3437 25.1257L19.7812 25.5978C19.9002 25.7263 19.9962 25.8319 20.0998 25.9547H20.1036C20.0787 25.805 20.0595 25.6534 20.0384 25.4788L19.9636 24.8378L20.1497 24.7515L20.261 26.1044L20.6602 26.9622L20.4951 27.0389ZM22.4602 25.9336L21.4028 24.3907H21.399L21.3203 24.692L21.1668 24.5308L21.2685 24.1585L21.3971 24.0702L22.608 25.8376L22.4621 25.9374L22.4602 25.9336ZM23.3314 25.3099C23.2911 25.3656 23.2489 25.4039 23.2124 25.4289L23.0608 25.2466C23.0954 25.2274 23.1261 25.1929 23.1683 25.1449C23.2355 25.0604 23.2681 24.9434 23.2527 24.8052C23.2393 24.6498 23.1683 24.4636 23.0263 24.2525L23.0225 24.2564C23.057 24.4157 23.0282 24.55 22.9246 24.6363C22.7385 24.7918 22.4333 24.667 22.1992 24.385C21.9401 24.0722 21.8557 23.6807 22.0687 23.5041C22.2817 23.3276 22.6387 23.4945 22.9879 23.9148C23.2892 24.2775 23.4216 24.596 23.4504 24.8378C23.4734 25.0278 23.4274 25.1967 23.3314 25.308V25.3099ZM24.289 24.4828C24.1816 24.5903 24.0338 24.6287 23.9378 24.6267L23.815 24.4329C23.8899 24.4329 24.0319 24.408 24.1221 24.3178C24.289 24.1528 24.1739 23.9321 24.0453 23.8073C23.8323 23.5962 23.6212 23.625 23.4965 23.7498L23.4235 23.8208L23.27 23.6672L23.3429 23.5962C23.437 23.5022 23.4792 23.3065 23.3007 23.1261C23.1798 23.0052 23.0244 22.9457 22.9054 23.0647C22.8286 23.1414 22.8075 23.2681 22.8133 23.3544L22.631 23.2393C22.6233 23.1318 22.6617 22.9764 22.7653 22.8728C22.9534 22.6847 23.2163 22.7787 23.3986 22.963C23.554 23.1203 23.627 23.3122 23.5771 23.4964L23.5828 23.5003C23.7383 23.4216 23.9724 23.4657 24.1835 23.6788C24.4253 23.9225 24.5174 24.2525 24.2871 24.4809L24.289 24.4828ZM25.2178 23.4197L24.7726 23.0436L24.3677 23.5233L24.2219 23.4005L23.5655 22.0591L23.6922 21.9075L24.7093 22.7653L24.8302 22.6214L25.0048 22.7672L24.8839 22.9111L25.3291 23.2873L25.2178 23.4197ZM26.375 21.8634C26.304 21.9785 26.1735 22.0706 26.0679 22.0936L25.8876 21.9286C25.9969 21.9017 26.1159 21.8346 26.1812 21.729C26.2771 21.5717 26.2023 21.399 26.0123 21.28C25.8357 21.1706 25.6957 21.1725 25.498 21.2723C25.2696 21.399 25.0355 21.4201 24.7688 21.257C24.4732 21.0746 24.3504 20.7868 24.4924 20.5546C24.5673 20.4318 24.6671 20.3723 24.7477 20.3473L24.9204 20.5124C24.8628 20.5296 24.7573 20.5757 24.6901 20.6832C24.5903 20.8463 24.7054 21.0017 24.8359 21.0823C25.0125 21.1917 25.1449 21.1725 25.3464 21.0708C25.5939 20.9461 25.8108 20.9384 26.0891 21.1092C26.3807 21.2896 26.5496 21.5813 26.3769 21.8614L26.375 21.8634ZM26.7761 21.1226L24.8072 20.0979L25.1564 19.4281L25.3694 19.5394L25.1046 20.0499L25.7264 20.3742L25.9777 19.8925L26.1888 20.0019L25.9375 20.4836L26.6475 20.854L26.9277 20.3166L27.1407 20.4279L26.778 21.1265L26.7761 21.1226ZM27.5494 19.5394C27.4247 19.8868 26.9104 19.9789 26.2771 19.7544C25.6131 19.5183 25.2716 19.1038 25.3963 18.7507C25.5249 18.3899 26.0449 18.3132 26.6648 18.5358C27.3844 18.7929 27.6684 19.2036 27.5494 19.5414V19.5394ZM27.9812 18.0464C27.9179 18.3266 27.6147 18.4782 26.943 18.3247L25.6669 18.033L25.7072 17.8545L26.9891 18.1481C27.4746 18.2594 27.7106 18.1712 27.7528 17.9889C27.7989 17.7874 27.6166 17.6089 27.1388 17.4995L25.8569 17.2059L25.8972 17.0274L27.1599 17.3153C27.8238 17.4669 28.0464 17.7509 27.9793 18.0464H27.9812ZM28.1347 17.0889L25.9355 16.7876L25.9605 16.6091L27.9217 16.8778L28.0023 16.2848L28.2403 16.3174L28.1347 17.0889Z" fill="#77222D"/>
  <path d="M3.36021 18.3784C3.78815 18.2671 4.20074 18.0196 4.12974 17.7471C4.05873 17.4765 3.60009 17.4515 3.12801 17.5744C2.66937 17.6933 2.29516 17.9466 2.36232 18.2057C2.42949 18.4648 2.87278 18.507 3.36021 18.3803V18.3784Z" fill="#77222D"/>
  <path d="M18.9407 3.35445C19.1192 3.43313 19.3207 3.37172 19.3936 3.21053C19.4627 3.05125 19.3744 2.85551 19.1959 2.77683C19.0136 2.69623 18.8083 2.7634 18.7373 2.92267C18.6663 3.08387 18.7603 3.27577 18.9426 3.35637L18.9407 3.35445Z" fill="#77222D"/>
  <path d="M26.6129 18.7181C26.1965 18.5703 25.7129 18.5531 25.6131 18.8352C25.5133 19.1172 25.876 19.4051 26.3346 19.5682C26.7818 19.7275 27.2366 19.7179 27.3325 19.4492C27.4285 19.1787 27.0888 18.887 26.6148 18.7181H26.6129Z" fill="#77222D"/>
  <path d="M2.99176 12.2088L2.90924 12.5945L3.56171 12.6022C3.70947 12.6022 3.84188 12.6118 3.97238 12.6214V12.6175C3.84764 12.5715 3.72098 12.5216 3.59433 12.4679L2.99368 12.2069L2.99176 12.2088Z" fill="#77222D"/>
  <path d="M21.825 10.6237C21.7905 10.5047 21.6907 10.4203 21.5678 10.4068C21.5487 10.4068 21.5295 10.4068 21.5103 10.4087L20.2783 10.6525V9.9808C20.2783 9.78314 20.1132 9.62386 19.9117 9.62386H16.0276C15.9643 9.62386 15.9144 9.57589 15.9144 9.51448V8.54154C15.9144 8.34388 15.7494 8.1846 15.5479 8.1846H14.4694C14.2679 8.1846 14.1029 8.34388 14.1029 8.54154V9.51064L14.101 9.51256C14.101 9.57397 14.0491 9.62194 13.9877 9.62194H10.1036C9.90214 9.62194 9.7371 9.78314 9.7371 9.97888V10.6505L8.50509 10.4068C8.4859 10.403 8.46671 10.403 8.44752 10.4049C8.32471 10.4183 8.22492 10.5028 8.19038 10.6218C8.18462 10.6448 8.1827 10.6678 8.18462 10.6908L9.2727 20.3972L9.30916 20.7484C9.36289 21.0401 9.5452 21.3011 9.8177 21.4661L14.6018 24.0414C14.7304 24.0933 14.8666 24.1201 15.0029 24.1201C15.1391 24.1201 15.2754 24.0933 15.4059 24.0414L20.19 21.4661C20.4625 21.3011 20.6467 21.0401 20.7005 20.7484L20.7388 20.3972L21.8269 10.6908C21.8288 10.6678 21.8269 10.6429 21.8212 10.6218L21.825 10.6237ZM10.1094 9.98656H14.099C14.3063 9.98656 14.4752 9.82152 14.4752 9.62003V8.78333C14.4752 8.65668 14.5788 8.55305 14.7074 8.54729H15.308C15.4385 8.55305 15.5402 8.65668 15.5402 8.78333V9.62003C15.5402 9.82152 15.7072 9.98656 15.9163 9.98656H19.906V10.7273L19.3207 10.8444V10.5834C19.3207 10.38 19.1518 10.213 18.9426 10.213H17.4362C17.227 10.213 17.0582 10.378 17.0582 10.5834V11.2934L16.5055 11.4028V10.5834C16.5055 10.3896 16.3443 10.2341 16.1466 10.2341H13.8687C13.6711 10.2341 13.5099 10.3915 13.5099 10.5834V11.4028L12.9572 11.2934V10.5834C12.9572 10.38 12.7883 10.213 12.5792 10.213H11.0727C10.8636 10.213 10.6947 10.378 10.6947 10.5834V10.8444L10.1113 10.7273V9.98656H10.1094ZM18.9254 10.9211L17.4554 11.2128V10.5987H18.9254V10.9211ZM16.1485 11.4719L15.3042 11.6388C15.2639 11.6484 15.0739 11.6734 15.0086 11.6734C14.9434 11.6734 14.7534 11.6484 14.7131 11.6388L13.8668 11.4719V10.5815H16.1466V11.4738L16.1485 11.4719ZM12.56 11.2128L11.09 10.9211V10.5987H12.56V11.2128ZM20.3262 20.6851C20.2975 20.8597 20.1689 21.0478 19.9904 21.1495L15.2466 23.7037C15.1814 23.7286 15.0969 23.7421 15.0086 23.7421C14.9204 23.7421 14.8359 23.7286 14.7707 23.7037L10.0288 21.1495C9.85033 21.0478 9.72175 20.8597 9.69297 20.6851L8.6068 10.9883C8.6068 10.9211 8.63175 10.8156 8.82941 10.8578L14.6268 12.0073C14.6671 12.0188 14.7093 12.0265 14.7515 12.0322C14.8359 12.0457 14.9223 12.0514 15.0067 12.0514C15.0912 12.0514 15.1794 12.0457 15.2639 12.0322C15.3061 12.0265 15.3483 12.0188 15.3886 12.0073L21.1879 10.8578C21.3855 10.8156 21.4124 10.9211 21.4105 10.9883L20.3243 20.6851H20.3262Z" fill="#77222D"/>
  <path d="M17.6166 13.934C18.2883 13.934 18.8026 13.6097 18.8026 13.08C18.8026 12.5504 18.2883 12.228 17.6166 12.228C16.945 12.228 16.4288 12.5523 16.4288 13.08C16.4288 13.6078 16.9431 13.934 17.6166 13.934ZM17.6166 12.5945C17.9256 12.5945 18.177 12.7826 18.177 13.08C18.177 13.3775 17.9256 13.5655 17.6166 13.5655C17.3077 13.5655 17.0563 13.3775 17.0563 13.08C17.0563 12.7826 17.3077 12.5945 17.6166 12.5945Z" fill="#77222D"/>
  <path d="M15.832 14.0261V14.4061H17.2943V14.9779H17.8872V14.4061H19.3994V14.0261H15.832Z" fill="#77222D"/>
  <path d="M16.6859 14.5884H16.0967V15.3809C16.0967 15.5402 16.1889 15.7014 16.4326 15.7014H19.1921V15.3253H16.6859V14.5864V14.5884Z" fill="#77222D"/>
  <path d="M13.1665 14.17V13.7997H12.9669V12.7595C12.9669 12.6233 12.8537 12.5101 12.7174 12.5101H10.7926V12.9054H12.4046V13.7997H11.7425V13.2048H11.211V13.7997H10.6295V14.1777H12.017C11.6255 14.3178 11.3587 14.598 11.3587 14.9376C11.3587 15.4289 11.9172 15.7954 12.6061 15.7954C13.295 15.7954 13.8535 15.4289 13.8535 14.9376C13.8535 14.5903 13.5752 14.3063 13.1703 14.17H13.1665ZM12.6023 15.4231C12.2645 15.4231 11.9901 15.2197 11.9901 14.9357C11.9901 14.6517 12.2645 14.4483 12.6023 14.4483C12.94 14.4483 13.2144 14.6517 13.2144 14.9357C13.2144 15.2197 12.94 15.4231 12.6023 15.4231Z" fill="#77222D"/>
  <path d="M14.4733 13.0762H13.9475V12.4007H13.3526V14.1489H13.9475V13.4734H14.4733V13.0762Z" fill="#77222D"/>
  <path d="M20.4298 15.9931L19.6258 16.1696C19.572 16.185 19.4838 16.1965 19.4281 16.1965H17.6204C16.6571 16.1965 15.5997 16.7799 15.5997 18.72V21.0708C15.5997 21.2435 15.4289 21.2435 15.3732 21.2435C15.3176 21.2435 15.1468 21.2512 15.1468 21.0708V18.72C15.1468 17.5743 14.3101 16.1965 12.9188 16.1965H10.0288C9.97312 16.1965 9.92706 16.2426 9.92706 16.2982V18.5281C9.92706 18.5838 9.95969 18.6605 9.99807 18.7008L10.5891 19.2919C10.6275 19.3302 10.6601 19.4089 10.6601 19.4646V20.3243C10.662 20.9998 11.587 20.9998 11.6734 20.9998C11.7597 20.9998 12.702 21.0056 12.702 20.3243C12.702 20.3243 12.6904 19.2113 12.6904 18.9253C12.6904 18.6394 12.4813 18.4341 12.3642 18.4341C12.2472 18.4341 12.2433 18.5492 12.2433 18.6394V20.3224C12.2433 20.7734 11.7463 20.7638 11.6714 20.7638C11.5966 20.7638 11.0996 20.7676 11.0996 20.3224V19.4819C11.0996 19.4262 11.067 19.3494 11.0286 19.3091L10.5661 18.8467C10.5277 18.8083 10.4951 18.7296 10.4951 18.6739V16.6283C10.4951 16.5726 10.5411 16.5266 10.5968 16.5266H12.9169C13.6749 16.5266 14.1873 17.7931 14.1873 18.3017V21.4009C14.1873 21.4565 14.2333 21.5026 14.289 21.5026H15.9451C16.4843 21.5026 16.4882 20.9691 16.4882 20.9691V18.3036C16.4882 17.5321 17.1119 16.5285 17.6185 16.5285H19.3072C19.3629 16.5285 19.3936 16.5707 19.3763 16.6244C19.3763 16.6244 19.0059 17.9889 18.956 18.0925C18.9061 18.1942 18.7968 18.2287 18.7411 18.2287H18.1174C18.0618 18.2287 17.9332 18.2345 18.0157 18.3266C18.0982 18.4187 18.3112 18.4245 18.3669 18.4245H18.7411C18.7968 18.4245 18.839 18.4686 18.8179 18.5204C18.8179 18.5204 18.6816 19.1019 18.5742 19.3283C18.4667 19.5548 18.3688 19.5548 18.3132 19.5548H17.724C17.6358 19.5548 17.534 19.597 17.6223 19.691C17.7125 19.787 17.8603 19.7678 17.9562 19.7678H18.3611C18.4168 19.7678 18.4417 19.8254 18.4149 19.8753C18.4149 19.8753 18.3247 20.1612 18.2537 20.3627C18.1827 20.5642 17.8507 20.5949 17.797 20.5949H17.346C17.2903 20.5949 17.204 20.6122 17.2443 20.6928C17.2865 20.7734 17.5033 20.7906 17.559 20.7906H18.1059C18.3611 20.7906 18.5972 20.5872 18.7622 20.2802C18.9273 19.9731 18.9177 19.8829 18.9368 19.8081C18.9541 19.7332 18.9407 19.7275 18.91 19.7371C18.8025 19.7678 18.6413 19.7639 18.6413 19.7639C18.6413 19.7639 19.027 19.6162 19.2305 19.1345C19.359 18.8294 19.4396 18.5492 19.455 18.4916C19.4703 18.4321 19.455 18.4264 19.432 18.4321C19.313 18.4744 19.1998 18.4629 19.1998 18.4629C19.1998 18.4629 19.5375 18.3208 19.8541 17.5763C20.1689 16.8336 20.4874 16.0583 20.4874 16.0583C20.5085 16.0084 20.4836 15.9777 20.4298 15.9931Z" fill="#77222D"/>
  <path d="M11.5506 17.5475C11.4949 17.5475 11.4316 17.5897 11.4105 17.6415L11.2032 18.1443C11.1821 18.1961 11.2109 18.2383 11.2666 18.2383H11.564C11.6196 18.2383 11.683 18.1961 11.7041 18.1443L11.9113 17.6415C11.9324 17.5897 11.9037 17.5475 11.848 17.5475H11.5506Z" fill="#77222D"/>
  <path fill-rule="evenodd" clip-rule="evenodd" d="M73.0065 12.1918C72.9738 12.1836 72.9362 12.1918 72.9011 12.1926C72.4735 11.9163 72.0297 11.9367 71.5793 12.1264C71.4681 12.173 71.3585 12.2253 71.2408 12.1517C70.9662 11.9793 70.6711 12.0242 70.3768 12.0708C70.085 12.1174 69.7989 12.1934 69.4997 12.2016C69.2659 12.2081 69.1572 12.1436 69.1694 11.8771C69.194 11.3555 69.2316 10.8365 69.3051 10.3207C69.4351 9.40759 69.6346 8.50105 69.5512 7.56835C69.5708 7.51359 69.6011 7.46045 69.6084 7.40487C69.7596 6.26127 69.7016 6.23511 71.043 6.05855C71.0553 6.05691 71.0667 6.05773 71.0782 6.05528C71.5302 5.97108 72.0019 5.93675 72.3714 5.6204C72.5749 5.44628 72.6534 5.2174 72.5594 4.94928C72.4719 4.69751 72.2872 4.64438 72.0509 4.69424H72.0485C71.5899 4.5937 71.1313 4.58552 70.6727 4.69588C70.179 4.77271 69.682 4.80296 69.1842 4.7531C68.5433 4.68852 67.9384 4.87735 67.3261 5.01059C67.1553 5.04737 66.9983 5.14874 66.8684 5.27462C66.7212 5.41849 66.5863 5.57299 66.6558 5.8035C66.722 6.02176 66.8487 6.15909 67.0931 6.21141C67.4749 6.29397 67.9694 6.90378 67.9964 7.25773C68.0863 8.44138 67.9793 9.59805 67.5419 10.7122C67.4839 10.8594 67.4471 11.031 67.5051 11.1659C67.734 11.6997 67.5542 12.1509 67.2705 12.594C67.2272 12.661 67.2149 12.7476 67.188 12.8253C67.0482 12.9806 66.9861 13.1801 66.955 13.3705C66.9051 13.6771 67.0057 13.9534 67.2746 14.1397C67.5419 14.3245 67.8019 14.4994 68.146 14.2648C68.4174 14.0793 68.7354 14.0441 69.0648 14.0809C69.3836 14.1169 69.7122 14.1128 70.009 13.9959C70.4013 13.8406 70.8011 13.7866 71.2163 13.7482C71.8155 13.6926 72.4253 13.7449 73.0147 13.5814C73.4487 13.4613 73.8215 13.1417 73.819 12.8784C73.8174 12.5956 73.4733 12.3038 73.004 12.191L73.0065 12.1918ZM69.44 13.8267C69.4474 13.8267 69.4531 13.8258 69.4596 13.825C69.458 13.8275 69.4564 13.8308 69.4539 13.8332C69.449 13.8308 69.4441 13.8291 69.44 13.8267Z" fill="#7D1B2C"/>
  <path fill-rule="evenodd" clip-rule="evenodd" d="M80.4166 12.9111C80.2973 12.3021 80.3128 11.6891 80.3071 11.0735C80.3014 10.5103 80.455 9.94955 80.3267 9.38552C80.2744 9.20323 80.2212 9.02094 80.1681 8.83865C80.1665 8.76836 80.1673 8.69724 80.1616 8.62612C80.0717 7.52912 79.9384 6.43293 80.0962 5.33021C80.1411 5.01304 80.1485 4.69015 80.0986 4.37135C80.0283 3.92258 79.6499 3.45746 79.3417 3.42394C79.0212 3.38879 78.5512 3.75827 78.3926 4.16945C78.3885 4.18007 78.391 4.19315 78.3902 4.2046C78.2864 4.31495 78.2766 4.46127 78.2463 4.5986C78.1147 5.18634 78.1981 5.78143 78.1842 6.37326C78.1801 6.54247 78.1507 6.72966 77.9806 6.73866C77.5441 6.76073 77.1346 6.97244 76.6891 6.90868C76.5853 6.41577 76.6033 5.9204 76.6507 5.42258C76.7218 4.66808 76.6114 3.98634 75.9444 3.49015C75.6894 3.30051 75.4768 3.42067 75.2471 3.48607C75.0321 3.54737 75.0362 3.72394 75.0166 3.91032C74.9692 4.35991 75.1932 4.7768 75.1809 5.20187C75.1474 6.37571 75.3379 7.53729 75.2717 8.71767C75.2242 9.55064 75.324 10.3959 75.1703 11.2297C75.082 11.3899 75.0689 11.5599 75.0787 11.7414C75.1368 12.8081 75.1376 13.8741 75.0477 14.9417C75.0044 15.4575 74.9242 15.9823 75.0469 16.4997C75.1286 16.8446 75.5169 17.0956 75.9215 17.0842C76.3817 17.0711 76.6147 16.8904 76.6776 16.4523C76.7618 15.8686 76.815 15.2817 76.815 14.6907C76.8207 14.5942 76.8232 14.497 76.8133 14.3981C76.9474 13.6656 77.1755 12.9504 77.1812 12.1959C77.1861 11.5664 76.9678 10.9615 77.0046 10.3248C77.0324 9.84165 77.052 9.35282 76.9907 8.86727C76.9801 8.78634 76.9719 8.70214 77.0332 8.63184C77.2572 8.37762 78.1417 8.48143 78.2291 8.79615C78.3166 9.11086 78.4556 9.41168 78.4768 9.74846C78.5234 10.4817 78.579 11.2141 78.6534 11.9449C78.7564 12.9504 78.8226 13.9403 78.4499 14.9229C78.2651 15.41 78.4441 15.8997 78.7319 16.3313C78.946 16.7245 79.3466 16.8389 79.7267 16.8921C80.2744 16.9689 80.4272 16.7866 80.3921 16.2406C80.3537 15.6487 80.3913 15.0594 80.433 14.4684C80.4697 13.9501 80.5196 13.4261 80.4182 12.9095L80.4166 12.9111ZM79.9809 4.9689C79.9809 4.94193 79.9785 4.91577 79.9776 4.88879C79.9809 4.91577 79.9809 4.94193 79.9809 4.9689Z" fill="#7D1B2C"/>
  <path fill-rule="evenodd" clip-rule="evenodd" d="M55.2927 8.2313C56.4363 8.58852 58.4006 8.82885 59.5352 7.36073C60.0592 6.68307 60.2864 5.95391 59.979 5.11604C59.3782 4.06481 58.4104 3.61686 57.2619 3.49588C56.5801 3.42394 55.9139 3.49424 55.3352 3.92094C54.8488 4.13757 54.4989 4.48416 54.3551 5.00405C54.2341 5.43975 54.2136 5.89179 54.181 6.34138C54.1384 6.9234 54.7434 8.05964 55.2935 8.2313H55.2927ZM60.0068 5.64574C60.0052 5.65146 60.0019 5.65637 60.0003 5.66209C59.9987 5.6392 59.9954 5.61713 59.9913 5.59506C60.0068 5.6065 60.015 5.62203 60.0068 5.64656V5.64574ZM55.8395 5.92694C55.8526 5.70051 56.0145 5.60405 56.1959 5.52885C56.6872 5.32449 57.2136 5.25174 57.7295 5.27135C58.1357 5.28689 58.5387 5.45446 58.6826 5.9253C58.6654 6.22694 58.5812 6.49261 58.3589 6.72067C58.1545 6.92994 57.9453 7.06154 57.6436 7.00024C57.5635 6.98389 57.4752 6.97326 57.3976 6.99043C56.7191 7.14411 56.2491 6.81386 55.8371 6.33402C55.7137 6.18934 55.7496 6.06182 55.8395 5.92694Z" fill="#7D1B2C"/>
  <path fill-rule="evenodd" clip-rule="evenodd" d="M63.3984 9.27681C63.2733 9.21878 63.1556 9.08145 63.0085 9.15583C62.4493 9.43785 61.8665 9.30869 61.2992 9.24003C60.9215 9.19425 60.5316 9.29725 60.1752 9.16728C59.9128 9.07082 59.67 9.05365 59.4166 9.13458C59.0954 9.23758 58.7676 9.25229 58.4349 9.2572C57.6771 9.26782 56.9243 9.16237 56.164 9.19098C55.4398 9.21796 54.7131 9.16564 53.988 9.13703C53.5442 9.11987 53.0692 8.91224 52.6679 9.17627C52.2502 9.45175 51.8234 9.51142 51.3551 9.46809C50.6504 9.32668 50.3815 9.473 50.1444 10.1253C50.124 10.1809 50.1052 10.2398 50.07 10.2864C49.8542 10.5765 49.9523 10.8373 50.1215 11.1071C50.2981 11.3899 50.5638 11.3523 50.8188 11.309C51.0502 11.2697 51.2749 11.1872 51.5014 11.1185C51.6959 11.0596 51.8888 10.9959 52.0932 11.0662C52.5477 11.224 53.0096 11.179 53.4583 11.0686C54.3551 10.8479 55.2371 10.8438 56.1199 11.1259C56.3324 11.1937 56.4191 11.3139 56.415 11.5428C56.406 12.0283 56.3815 12.5163 56.4567 12.9994C56.491 13.2201 56.5123 13.4891 56.724 13.5888C57.2472 13.8357 57.6117 13.8602 57.982 13.3035C58.0858 13.1474 58.1496 12.9643 58.2289 12.7918C58.448 12.3161 58.4243 12.2 58.0442 11.8362C58.0229 11.788 58.0008 11.7389 57.9788 11.6907C58.0801 11.2199 58.2624 11.0319 58.6908 11.0891C59.3169 11.1733 59.9373 11.1447 60.5627 11.1193C61.0957 11.0981 61.6311 11.1291 62.164 11.1193C62.6897 11.1087 63.2055 11.0245 63.673 10.767C63.8749 10.6558 64.1112 10.5455 64.1112 10.2602C64.112 9.7779 63.8758 9.45992 63.3992 9.27681H63.3984Z" fill="#7D1B2C"/>
  <path fill-rule="evenodd" clip-rule="evenodd" d="M62.4452 14.9744C62.1853 14.9507 61.9319 14.909 61.6834 14.828C61.4962 14.8043 61.309 14.77 61.121 14.7569C60.2692 14.6964 59.415 14.6948 58.564 14.7602C57.4621 14.8444 56.3602 14.7022 55.2599 14.7831C54.7139 14.8231 54.1744 14.8289 53.643 14.676C53.5139 14.5648 53.5531 14.4267 53.567 14.2836C53.6071 13.8855 53.7027 13.4932 53.6823 13.0869C53.6635 12.7101 53.4264 12.5041 53.1305 12.3716C52.8182 12.2319 52.4986 12.2261 52.1994 12.4648C51.8529 12.7419 51.7752 13.1155 51.8038 13.5136C51.8471 14.1144 51.7638 14.6645 51.3281 15.119C51.2978 15.1509 51.2856 15.2008 51.2643 15.2417C51.1049 15.4583 51.0477 15.7141 51.1646 15.9447C51.4662 16.5381 52.4095 16.8937 53.0684 16.7073C53.2597 16.6534 53.464 16.6297 53.6635 16.619C54.2913 16.5831 54.9199 16.5594 55.5477 16.5308C56.2507 16.4008 56.9651 16.4932 57.6722 16.4188C59.0733 16.2708 60.4703 16.1417 61.864 16.5308C62.7706 16.7842 63.0559 16.5103 62.9872 15.5449C62.9602 15.1648 62.8221 15.0079 62.4428 14.9735L62.4452 14.9744Z" fill="#7D1B2C"/>
  <path fill-rule="evenodd" clip-rule="evenodd" d="M47.8155 6.47708C47.4403 6.44356 47.0855 6.52204 46.7528 6.69697C46.5485 6.79179 46.394 6.72313 46.2697 6.55228C46.1291 6.17953 46.0973 5.7937 46.1112 5.39806C46.1218 5.06618 46.1234 4.73267 46.1022 4.4016C46.0776 4.02231 45.8283 3.74438 45.5112 3.70269C44.6815 3.59234 44.0545 4.37054 44.3774 5.12667C44.5073 5.43076 44.5384 5.72667 44.5114 6.05692C44.4428 6.89806 44.4632 7.75228 44.5997 8.57544C44.7092 9.23839 44.6978 9.86127 44.5752 10.5054C44.518 10.8079 44.5122 11.1169 44.536 11.4267C44.5556 11.6784 44.7011 11.7814 44.9144 11.8231C45.7801 11.9932 46.4414 11.4594 46.4864 10.5847C46.5199 9.94057 46.3932 9.30623 46.4022 8.66536C46.4087 8.21822 46.4201 8.20106 46.8689 8.26073C47.1992 8.30405 47.5253 8.367 47.8597 8.31305C48.3035 8.24111 48.5349 7.86918 48.5201 7.25201C48.5095 6.78362 48.27 6.51713 47.8147 6.47708H47.8155ZM47.0349 7.16128C47.0389 7.16781 47.043 7.17517 47.0479 7.18171C47.0422 7.17926 47.0365 7.17762 47.03 7.17354C47.0324 7.16945 47.0332 7.16536 47.0357 7.16046L47.0349 7.16128Z" fill="#7D1B2C"/>
  <path fill-rule="evenodd" clip-rule="evenodd" d="M41.2776 10.8177C41.7951 10.9084 42.3248 10.6787 42.8643 10.7188C43.1626 10.7408 43.2787 10.5397 43.1921 10.2397C43.1447 10.0754 43.1373 9.9144 43.1373 9.74846C43.1365 9.30786 43.009 9.155 42.5586 9.0471H42.552C42.297 8.94737 42.0338 8.96863 41.7697 8.9907C41.7002 8.98579 41.6308 8.98089 41.5621 8.97598C41.4468 8.86563 41.2294 8.93675 41.1485 8.74301C41.1983 8.70296 41.2433 8.66699 41.2899 8.63021C42.0092 8.06618 42.4752 7.40895 42.1458 6.43048C42.0787 6.23184 42.0828 6.0095 42.0444 5.80024C41.9651 5.36781 41.8654 4.94111 41.6512 4.55201C41.4027 4.10078 41.1272 3.9847 40.6564 4.21522C40.3278 4.37626 40.0269 4.38361 39.7 4.26345C39.5561 4.21113 39.4073 4.16536 39.2577 4.13184C38.334 3.92667 37.4111 4.1956 36.4874 4.13511C36.2332 4.09588 35.9937 4.13266 35.7746 4.27326H35.7738C35.3602 4.40814 34.9441 4.57081 34.8526 5.05146C34.7349 5.66863 35.1419 6.11495 35.8188 6.11086C36.3092 6.10841 36.8005 6.03893 37.291 5.99887C37.4316 6.01686 37.5844 6.00541 37.7103 6.05773C38.1828 6.25555 38.6128 6.13538 39.0436 5.92939C39.3002 5.80677 39.561 5.69152 39.8275 5.59342C40.2812 5.42503 40.4774 5.53457 40.7291 5.94901C40.9686 6.34383 40.8656 6.72476 40.7782 7.11549C40.6744 7.57816 40.5354 8.03675 40.6858 8.51413C40.7398 8.68579 40.631 8.68089 40.5158 8.68825C40.0981 8.71522 39.6885 8.62857 39.2741 8.61222C39.1294 8.55664 39.0362 8.45037 39.0272 8.29915C39.0174 8.13647 39.0468 7.97135 39.0395 7.80786C39.0158 7.28062 38.7444 6.89724 38.3005 6.64301C37.9408 6.4362 37.6212 6.57435 37.3335 6.82285C36.6182 7.2283 36.4923 7.44819 36.7915 7.98443C37.0351 8.42176 37.0507 8.82639 36.8373 9.26045C36.5438 9.50241 36.1588 9.33974 35.8441 9.48607C35.5891 9.48934 35.3479 9.54492 35.1338 9.69124H35.1329C34.8231 9.75419 34.6163 9.96509 34.425 10.1923C34.2084 10.449 34.2002 10.8863 34.3981 11.1855C34.618 11.519 34.837 11.5951 35.2539 11.4741C35.6291 11.3662 36.0068 11.291 36.3975 11.2501C37.1986 11.1651 38.0095 11.2738 38.8049 11.107C39.6199 10.9362 40.4128 10.664 41.2809 10.816L41.2776 10.8177ZM35.1493 10.1032C35.1517 10.1163 35.1542 10.1294 35.1575 10.1433C35.1526 10.1294 35.1493 10.1155 35.1493 10.1032Z" fill="#7D1B2C"/>
  <path fill-rule="evenodd" clip-rule="evenodd" d="M44.3397 13.2479C43.9809 12.7705 43.4561 12.4755 43.0351 12.0643C42.6951 11.7324 42.2749 11.6678 41.8212 11.8763C41.3912 12.0741 40.9384 12.2229 40.5166 12.4362C40.0899 12.6528 39.6346 12.8433 39.3346 13.2512C39.2095 13.3411 39.1768 13.4858 39.1392 13.6174C39.0158 14.0523 39.0395 14.5068 38.9757 14.9498C38.8842 15.5834 39.1416 16.0951 39.5479 16.552C39.937 17.0188 40.4602 17.2117 41.0422 17.2501C41.5498 17.2836 42.0566 17.2387 42.5651 17.1962C43.2607 17.1389 43.7569 16.7842 44.1959 16.297C44.6487 15.7943 44.9422 15.2441 44.7468 14.5329C44.6275 14.0989 44.688 13.6092 44.3389 13.2479H44.3397ZM40.9997 13.9583C41.5858 13.7024 42.1629 13.8406 42.6607 14.1414C42.897 14.2844 43.076 14.6081 43.1888 14.9065C43.2362 15.0324 43.1806 15.1616 43.0948 15.2703C42.7752 15.6741 42.3885 15.9308 41.8416 15.858C41.6316 15.8261 41.4198 15.8041 41.213 15.7591C40.707 15.6496 40.4553 15.2899 40.4389 14.7651C40.4267 14.3384 40.6498 14.1103 40.9989 13.9583H40.9997Z" fill="#7D1B2C"/>
  <path fill-rule="evenodd" clip-rule="evenodd" d="M114.003 13.0338C113.585 12.6986 113.092 12.7779 112.616 12.7894C111.507 12.8171 110.398 12.9349 109.291 12.7583C108.752 12.4894 108.797 11.9915 108.775 11.5019C108.739 10.6983 108.664 9.8948 108.362 9.13867C108.172 8.65965 107.86 8.52069 107.336 8.63104C106.968 8.7087 106.826 8.92532 106.821 9.44521C106.811 10.324 106.833 11.2019 106.882 12.079C106.902 12.4338 106.782 12.5874 106.425 12.6161C106.155 12.6373 105.88 12.6193 105.607 12.6103C105.235 12.5973 104.961 12.2809 105.079 11.9376C105.286 11.3343 105.125 10.7981 104.872 10.2635C104.817 9.97328 104.789 9.67573 104.701 9.39616C104.616 9.12314 104.466 8.8632 104.131 8.83295C103.609 8.78554 103.02 9.44358 103.111 9.95775C103.271 10.8651 103.282 11.7741 103.142 12.6847C103.093 12.8098 103.011 12.8932 102.87 12.9046C102.074 13.1082 101.258 13.2005 100.448 13.324C100.243 13.3558 100.09 13.4351 100.079 13.6697C99.8643 14.2387 100.079 15.0357 100.923 14.9229C101.086 14.9008 101.255 14.9098 101.42 14.918C102.461 14.9719 103.468 14.6384 104.525 14.7308C106.259 14.8828 107.999 14.6376 109.746 14.7479C110.989 14.8264 112.25 14.6163 113.502 14.5395C113.659 14.5297 113.764 14.4659 113.858 14.3433C114.099 14.027 114.168 13.6607 114.193 13.279C114.202 13.14 114.15 13.0493 114.002 13.0329L114.003 13.0338Z" fill="#7D1B2C"/>
  <path fill-rule="evenodd" clip-rule="evenodd" d="M101.327 6.52448C102.934 6.56208 104.546 6.33565 106.148 6.61767C107.247 6.8629 108.297 6.50241 109.364 6.34873L109.362 6.35118C109.741 6.36998 110.121 6.38878 110.501 6.40758L110.523 6.42557L110.552 6.42393C110.628 6.54246 110.704 6.66181 110.781 6.78115C110.882 7.12039 110.98 7.45799 111.017 7.81521C111.119 8.79941 111.049 9.77216 110.915 10.7506C110.779 11.7577 111.238 12.2089 112.24 12.1239C112.599 12.0937 112.816 11.855 112.755 11.51C112.688 11.1316 112.716 10.7547 112.716 10.3754C112.716 10.0215 112.774 9.65854 112.649 9.31685C112.499 8.90568 112.492 8.48388 112.492 8.05554C112.492 7.53565 112.565 7.01821 112.505 6.49505C112.405 5.61058 111.761 4.75636 110.988 4.62966C110.254 4.50949 109.507 4.552 108.765 4.62066C107.556 4.68851 106.35 4.6975 105.139 4.6272C104.349 4.58143 103.547 4.54301 102.763 4.70404C102.108 4.83892 101.428 4.946 100.945 5.49124C100.696 5.72993 100.565 6.03974 100.685 6.352C100.786 6.61194 101.1 6.51957 101.325 6.5253L101.327 6.52448ZM100.822 5.98415C100.817 5.98415 100.813 5.98415 100.808 5.98415C100.812 5.98088 100.815 5.97679 100.819 5.97352C100.82 5.97679 100.821 5.98006 100.822 5.98333L100.822 5.98415Z" fill="#7D1B2C"/>
  <path d="M95.3921 12.9275C94.8836 12.7861 94.4046 12.5547 93.8569 12.5327C93.4237 12.5155 92.9782 12.6054 92.5556 12.4526C92.0169 12.2572 91.4602 12.1648 90.8921 12.128C90.2071 12.0201 89.5131 12.0651 88.8019 12.034C88.837 12.0005 88.8493 11.9809 88.8665 11.9735C88.9646 11.931 89.0594 11.8803 89.1607 11.8509C90.1449 11.5632 90.7408 10.8921 91.022 9.93239C91.1144 9.61686 91.2959 9.24247 91.0376 8.95473C90.5218 8.37762 90.2929 7.5422 89.4844 7.22094C89.4035 7.18906 89.1705 7.12367 89.3226 6.91604C89.8907 6.66754 90.4842 6.63402 91.0915 6.70841C91.4537 6.75255 91.7733 6.62176 92.0561 6.4174C92.4166 6.15664 92.3937 5.42994 92.0324 5.20759C91.5951 5.04738 91.1422 5.14792 90.6967 5.12994C90.2586 5.11277 89.818 5.14547 89.3864 5.04411C89.1746 4.99424 89.0087 4.92476 89.0062 4.62721C89.0038 4.36481 89.0242 4.07544 88.8967 3.82857C88.6768 3.40269 87.8234 3.39206 87.543 3.9471C87.4041 4.22176 87.2823 4.50541 87.1547 4.78498C87.0616 4.98852 86.9438 5.15773 86.6847 5.14138C86.6569 5.16672 86.621 5.1659 86.5883 5.17653C86.5629 5.1847 86.5368 5.19043 86.5114 5.19615C86.5678 5.17163 86.625 5.15119 86.6847 5.14138C85.8223 5.16917 84.9624 5.20759 84.1196 5.42667C83.8776 5.48961 83.7583 5.60896 83.7182 5.85092C83.6136 6.48198 84.5414 7.25691 85.2305 7.10405C85.9204 6.95037 86.5964 6.70678 87.3215 6.77708C87.4065 6.87517 87.5945 6.78361 87.6501 6.97735C86.9422 7.1531 86.4428 7.62476 85.9523 8.13402C85.309 8.80269 85.219 9.52449 85.6041 10.3387C85.6629 10.8291 85.967 11.1389 86.3643 11.3858C86.7885 11.649 87.2447 11.8354 87.7147 11.9981C87.7964 12.0258 87.9836 11.9825 87.9477 12.182C87.5872 12.2506 87.2242 12.2621 86.858 12.2678C86.2735 12.2768 85.6842 12.2629 85.1111 12.4149C84.5152 12.4607 84.0591 12.7346 83.7509 13.2504C83.4673 13.7343 83.6471 14.112 84.1834 14.1741C84.6844 14.2321 85.1618 14.1291 85.6343 13.9828C85.7169 13.9763 85.8019 13.9779 85.882 13.9607C87.5398 13.6051 89.2261 13.6256 90.906 13.6002C91.8207 13.5863 92.724 13.7466 93.6141 13.9624C93.8438 14.0188 94.1062 14.0719 94.1545 14.3547C94.2289 14.7929 94.3515 15.2278 94.3114 15.6798C94.2158 15.8 94.2313 15.9512 94.2076 16.0877C94.0139 17.21 94.3229 17.4455 95.4411 17.2068C95.7477 17.1414 95.8711 16.946 95.8719 16.6444C95.8735 16.2299 95.8834 15.8155 95.8899 15.4011C96.037 14.6073 95.8237 13.8594 95.5915 13.1155C95.5605 13.0166 95.4804 12.952 95.3913 12.9275H95.3921ZM94.9637 14.0768C94.9654 14.0882 94.9662 14.0997 94.967 14.1103C94.9605 14.0989 94.9596 14.0874 94.9637 14.0768ZM93.8038 12.8744C93.7515 12.9046 93.7114 12.8809 93.6787 12.8351C93.7196 12.84 93.7613 12.8523 93.8038 12.8744ZM87.7539 8.76672C88.0041 8.68988 88.2534 8.6204 88.5804 8.63184C89.0798 8.58688 89.4436 8.93103 89.8032 9.28171C89.9046 9.38062 89.8915 9.464 89.7967 9.58498C89.2997 10.2177 88.4577 10.4179 87.7229 10.0705C87.3738 9.90623 87.3771 9.58661 87.3616 9.28334C87.3485 9.01767 87.4932 8.84601 87.7539 8.7659V8.76672Z" fill="#7D1B2C"/>
  <path d="M97.7455 7.25283C97.6057 6.89724 97.3507 6.69697 96.9698 6.62667C96.6003 6.55882 96.2496 6.57681 95.9153 6.75092C95.7387 6.84329 95.6112 6.81959 95.5376 6.62258C95.4591 6.18934 95.4534 5.75201 95.4502 5.31386C95.4485 5.06618 95.4788 4.81686 95.4125 4.57081C95.2957 4.13512 95.039 3.91931 94.6425 3.92912C94.2649 3.93811 93.9681 4.23403 93.8831 4.64847C93.7834 5.12994 93.9289 5.58444 94.0033 6.04792C93.9967 5.967 94.0057 5.88689 94.0221 5.80596C94.0139 5.9204 94.009 6.03566 94.0188 6.14847C93.9142 7.06727 93.8218 7.98607 93.9542 8.90978C93.8823 9.44929 93.8014 9.98798 93.7425 10.5283C93.7106 10.8193 93.6126 11.1193 93.7245 11.4071C93.8496 11.7291 94.0752 11.9351 94.4561 11.9081C94.9 11.8771 95.2123 11.6735 95.3006 11.2812C95.4591 10.5774 95.3561 9.84983 95.46 9.13866C95.6831 8.40378 95.6831 8.40869 96.4948 8.39724C96.8128 8.39315 97.1341 8.44792 97.4488 8.35147C97.9948 8.18471 98.1264 7.69997 97.7455 7.25201V7.25283ZM94.8992 4.17517C94.8951 4.17435 94.8894 4.17435 94.8845 4.17354C94.8894 4.16781 94.8951 4.16291 94.9 4.15801C94.9 4.16373 94.9 4.16945 94.8984 4.17517H94.8992ZM95.0316 10.8814C95.0316 10.8814 95.0292 10.8823 95.0284 10.8831C95.0406 10.8422 95.0537 10.8021 95.0676 10.7645C95.1215 10.7932 95.097 10.8577 95.0316 10.8814Z" fill="#7D1B2C"/>
  <path d="M36.3926 21.9152V24.5057H37.0572V24.6299H34.4847V24.5057H35.1452V19.27H34.4847V19.1457H37.0441V19.27H36.3918V21.6945L38.254 19.9076C38.3774 19.7956 38.4608 19.7065 38.5065 19.6427C38.5515 19.5782 38.5744 19.5226 38.5744 19.4743C38.5744 19.4016 38.5409 19.3501 38.4738 19.3174C38.4068 19.2863 38.3005 19.27 38.1559 19.27H38.0447V19.1457H40.0875V19.27C40.0711 19.27 40.0466 19.2684 40.0155 19.2659C39.9845 19.2634 39.9599 19.2618 39.9436 19.2618C39.6812 19.2618 39.4253 19.3239 39.1768 19.4482C38.9275 19.5724 38.6594 19.7727 38.3725 20.049L37.4414 20.9441L39.7752 24.5057H40.3458V24.6299H37.7079V24.5057H38.2777L36.5381 21.7754L36.3902 21.9152H36.3926Z" fill="#7D1B2C"/>
  <path d="M41.437 24.6299H41.2196L39.7752 21.3095H39.3035V21.1852H41.3962V21.3095H40.9163L41.8515 23.4618L42.7915 21.3095H43.1357L44.034 23.4782L44.6496 22.0885C44.6823 22.0141 44.7076 21.9422 44.7231 21.8743C44.7395 21.8057 44.7477 21.7468 44.7477 21.6953C44.7477 21.5506 44.7092 21.4509 44.6308 21.3945C44.5531 21.3381 44.4101 21.3095 44.2024 21.3095V21.1852H45.6681L45.6632 21.3095C45.5455 21.3283 45.2553 21.3896 45.1621 21.4926C45.0689 21.5956 44.9569 21.7942 44.8253 22.0885L43.6319 24.6299H43.4152L42.4466 22.458L41.4379 24.6299H41.437Z" fill="#7D1B2C"/>
  <path d="M50.9521 24.5057H51.4197V24.6299H49.3646V24.5057H49.8404V21.3095H49.3646V21.1852H50.0169C50.2139 21.1852 50.3807 21.1771 50.5172 21.1615C50.6537 21.1452 50.7812 21.1199 50.899 21.0855V21.8523C51.0526 21.6005 51.239 21.41 51.4589 21.2801C51.6788 21.1501 51.9273 21.0855 52.2036 21.0855C52.5649 21.0855 52.8477 21.1771 53.0521 21.3602C53.2564 21.5433 53.3603 21.7942 53.3603 22.113V24.5057H53.8319V24.6299H51.7891V24.5057H52.2526V21.9397C52.2526 21.7125 52.2208 21.5555 52.1578 21.4697C52.0949 21.3839 51.987 21.3414 51.8341 21.3414C51.5799 21.3414 51.369 21.4411 51.2022 21.6406C51.0355 21.84 50.9521 22.0959 50.9521 22.409V24.5049V24.5057Z" fill="#7D1B2C"/>
  <path d="M64.7144 22.8111C64.7144 22.5675 64.7667 22.3338 64.8705 22.1081C64.9744 21.8833 65.1248 21.679 65.3218 21.4942C65.5106 21.3226 65.7117 21.1951 65.925 21.1109C66.1384 21.0267 66.3705 20.9842 66.6223 20.9842C66.8741 20.9842 67.112 21.0275 67.3278 21.1125C67.5444 21.1983 67.7422 21.325 67.9229 21.4942C68.1199 21.679 68.2703 21.8842 68.3741 22.1081C68.4779 22.3329 68.5302 22.5675 68.5302 22.8111C68.5302 23.0547 68.4795 23.2869 68.3765 23.5076C68.2744 23.7283 68.1231 23.9327 67.9237 24.1199C67.7406 24.2907 67.5411 24.419 67.3269 24.5032C67.1128 24.5874 66.8774 24.6291 66.6231 24.6291C66.0926 24.6291 65.6422 24.4517 65.2711 24.0978C64.9008 23.743 64.7152 23.3147 64.7152 22.8103L64.7144 22.8111ZM67.3433 23.2648V22.3493C67.3433 21.8539 67.2902 21.5237 67.1855 21.3577C67.0801 21.1918 66.8921 21.1084 66.6215 21.1084C66.3509 21.1084 66.1629 21.1918 66.0575 21.3577C65.952 21.5237 65.8997 21.8539 65.8997 22.3493V23.2648C65.8997 23.7594 65.9528 24.0904 66.0575 24.2564C66.1629 24.4223 66.3509 24.5049 66.6215 24.5049C66.8921 24.5049 67.0801 24.4215 67.1855 24.2564C67.2902 24.0904 67.3433 23.7602 67.3433 23.2648Z" fill="#7D1B2C"/>
  <path d="M68.9144 22.8111C68.9144 22.5675 68.9667 22.3338 69.0706 22.1081C69.1744 21.8833 69.3248 21.679 69.5218 21.4942C69.7106 21.3226 69.9117 21.1951 70.1251 21.1109C70.3384 21.0267 70.5714 20.9842 70.8223 20.9842C71.0733 20.9842 71.312 21.0275 71.5278 21.1125C71.7444 21.1983 71.9422 21.325 72.1229 21.4942C72.3199 21.679 72.4703 21.8842 72.5741 22.1081C72.6779 22.3329 72.7302 22.5675 72.7302 22.8111C72.7302 23.0547 72.6787 23.2869 72.5766 23.5076C72.4744 23.7283 72.3231 23.9327 72.1237 24.1199C71.9398 24.2907 71.7411 24.419 71.527 24.5032C71.312 24.5874 71.0774 24.6291 70.8231 24.6291C70.2926 24.6291 69.8422 24.4517 69.4719 24.0978C69.1016 23.743 68.9161 23.3147 68.9161 22.8103L68.9144 22.8111ZM71.5441 23.2648V22.3493C71.5441 21.8539 71.491 21.5237 71.3864 21.3577C71.2809 21.1918 71.0929 21.1084 70.8223 21.1084C70.5518 21.1084 70.3637 21.1918 70.2583 21.3577C70.1528 21.5237 70.1005 21.8539 70.1005 22.3493V23.2648C70.1005 23.7594 70.1528 24.0904 70.2583 24.2564C70.3637 24.4223 70.5509 24.5049 70.8223 24.5049C71.0937 24.5049 71.2809 24.4215 71.3864 24.2564C71.4918 24.0904 71.5441 23.7602 71.5441 23.2648Z" fill="#7D1B2C"/>
  <path d="M74.612 24.5057H75.0796V24.6299H73.0245V24.5057H73.5003V21.3095H73.0245V21.1852H73.6769C73.8739 21.1852 74.0406 21.1771 74.1771 21.1615C74.3136 21.1452 74.4403 21.1199 74.5581 21.0855V21.8523C74.7109 21.6005 74.8981 21.41 75.118 21.2801C75.3379 21.1501 75.5864 21.0855 75.8627 21.0855C76.2232 21.0855 76.506 21.1771 76.7112 21.3602C76.9164 21.5433 77.0194 21.7942 77.0194 22.113V24.5057H77.491V24.6299H75.4482V24.5057H75.9117V21.9397C75.9117 21.7125 75.8798 21.5555 75.8169 21.4697C75.754 21.3839 75.6461 21.3414 75.4932 21.3414C75.239 21.3414 75.0281 21.4411 74.8613 21.6406C74.6937 21.84 74.6104 22.0959 74.6104 22.409V24.5049L74.612 24.5057Z" fill="#7D1B2C"/>
  <path d="M49.2248 23.8632C49.1929 23.9915 49.1512 24.088 49.1021 24.1517C49.0531 24.2163 48.9967 24.2482 48.9338 24.2482C48.8438 24.2482 48.7801 24.2073 48.7433 24.1264C48.7065 24.0447 48.6877 23.8942 48.6877 23.6744V22.2447C48.6877 21.9635 48.6542 21.7566 48.5872 21.6242C48.5201 21.4918 48.4032 21.3749 48.2357 21.2727C48.0771 21.1771 47.8964 21.1043 47.6921 21.0561C47.4885 21.0079 47.2637 20.9833 47.0177 20.9833C46.5828 20.9833 46.2362 21.0618 45.9779 21.2179C45.7237 21.3724 45.5945 21.5727 45.5904 21.8196C45.5904 21.8196 45.5904 21.8212 45.5904 21.822C45.5904 21.822 45.5904 21.822 45.5904 21.8229C45.5904 21.8261 45.5904 21.8278 45.5904 21.831C45.5904 21.8523 45.5937 21.8727 45.5986 21.8932C45.6338 22.1392 45.8471 22.3288 46.1079 22.3288C46.3932 22.3288 46.6245 22.1024 46.6245 21.8229C46.6245 21.576 46.443 21.3708 46.2035 21.3267C46.2256 21.2801 46.2853 21.2359 46.3883 21.1951C46.5182 21.1427 46.6719 21.1166 46.8493 21.1166C47.1583 21.1166 47.3651 21.1705 47.4705 21.2793C47.5752 21.388 47.6283 21.6373 47.6283 22.028V22.5136C46.8215 22.5136 46.2199 22.606 45.8234 22.7907C45.4269 22.9746 45.2291 23.2558 45.2291 23.6335C45.2291 23.9515 45.3542 24.1975 45.6043 24.37C45.8545 24.5425 46.2133 24.6283 46.6809 24.6283C46.9212 24.6283 47.1248 24.5825 47.2899 24.4918C47.4558 24.4011 47.5793 24.267 47.661 24.0904C47.7215 24.2703 47.8196 24.4035 47.9545 24.4902C48.0893 24.5776 48.2667 24.6209 48.4858 24.6209C48.7049 24.6209 48.9019 24.5498 49.0621 24.4084C49.2223 24.2662 49.313 24.0847 49.3351 23.8624H49.2239L49.2248 23.8632ZM47.6299 23.4863C47.6299 23.7994 47.5727 24.0332 47.4599 24.1885C47.3463 24.3438 47.1763 24.4215 46.949 24.4215C46.7463 24.4215 46.6008 24.3504 46.5125 24.209C46.4234 24.0675 46.3793 23.8288 46.3793 23.4945C46.3793 23.1602 46.4553 22.9248 46.6073 22.8136C46.7594 22.7024 47.0757 22.6468 47.5564 22.6468H47.6308V23.4863H47.6299Z" fill="#7D1B2C"/>
  <path d="M63.8398 19.1457V19.27H64.2747C64.4447 19.27 64.5665 19.2986 64.6425 19.3566C64.7177 19.4139 64.7553 19.5087 64.7553 19.6395C64.7553 19.6844 64.7431 19.7564 64.7185 19.852C64.694 19.9485 64.6613 20.0506 64.6205 20.1577L63.5292 23.0923L62.115 19.27H61.9785L60.5807 23.0441L59.1698 19.27H59.6537V19.1457H57.3608V19.27H57.8987L59.966 24.6299H60.1343L61.5126 21.0765L62.9316 24.6299H63.1082L64.9131 19.8921C64.9924 19.6812 65.079 19.5324 65.1739 19.4466C65.2679 19.3607 65.4011 19.2863 65.5777 19.27C65.5957 19.2684 65.6504 19.27 65.6504 19.27H66.1343V19.1457H63.8414H63.8398Z" fill="#7D1B2C"/>
  <path d="M57.1123 21.5278C57.1287 21.5547 57.1483 21.5801 57.1728 21.6021C57.2039 21.6299 57.2382 21.6455 57.2766 21.6561C57.2783 21.6561 57.2799 21.6569 57.2815 21.6577C57.2881 21.6594 57.2946 21.6626 57.302 21.6643C57.3428 21.6782 57.3862 21.6872 57.4328 21.6872C57.6535 21.6872 57.8325 21.5122 57.8325 21.2964C57.8325 21.0986 57.6821 20.9367 57.4875 20.9106C57.4311 20.8967 57.3698 20.8885 57.302 20.8885C57.1736 20.8885 57.0576 20.9155 56.9529 20.9703C56.8491 21.0258 56.7477 21.1158 56.6488 21.2417C56.4903 21.1427 56.3284 21.0684 56.1633 21.0185C55.9982 20.9686 55.8232 20.9441 55.6401 20.9441C55.2518 20.9441 54.9298 21.0545 54.6723 21.2752C54.4148 21.4959 54.2864 21.7697 54.2864 22.0967C54.2864 22.297 54.3412 22.4752 54.4499 22.6305C54.5595 22.7858 54.7295 22.9264 54.9592 23.0523C54.6747 23.1087 54.4663 23.2051 54.3339 23.3433C54.2014 23.4806 54.1352 23.6662 54.1352 23.8991C54.1352 24.0446 54.1646 24.3487 54.4491 24.4534C54.3134 24.5637 54.2063 24.6823 54.1303 24.809C54.0388 24.9626 53.993 25.1237 53.993 25.2929C53.993 25.4621 54.0388 25.6248 54.1328 25.7809C54.226 25.937 54.3608 26.0793 54.5366 26.2076C54.6976 26.3245 54.8758 26.4128 55.0695 26.4724C55.2633 26.5321 55.4742 26.5615 55.7022 26.5615C55.9303 26.5615 56.1363 26.5329 56.3268 26.4741C56.518 26.416 56.6979 26.3269 56.8671 26.2084C56.9693 26.1332 57.0567 26.0539 57.1311 25.9697C57.1319 25.9689 57.1336 25.9673 57.1352 25.9664C57.2627 25.8381 57.3608 25.6959 57.4279 25.5406C57.4949 25.3844 57.5112 25.2218 57.5112 25.0526C57.5112 24.7035 57.4091 24.406 57.1687 24.1591C57.0052 23.9915 56.7003 23.7765 56.33 23.7765H54.8161C54.6935 23.7765 54.6012 23.7569 54.539 23.7185C54.4777 23.6801 54.4467 23.6212 54.4467 23.5436C54.4467 23.4496 54.5031 23.3686 54.6167 23.2983C54.7303 23.2288 54.8979 23.1741 55.1194 23.134C55.1987 23.1602 55.2796 23.1814 55.363 23.1961C55.4464 23.2109 55.533 23.2182 55.6238 23.2182C56.0611 23.2182 56.4118 23.116 56.6775 22.9109C56.9431 22.7065 57.0755 22.4351 57.0755 22.0983C57.0755 21.9561 57.0502 21.8253 56.9995 21.7043C56.9497 21.5858 56.8687 21.464 56.7592 21.3397C56.796 21.2776 56.89 21.1558 57.0755 21.1239C57.0486 21.1763 57.0322 21.2351 57.0322 21.2981C57.0322 21.3855 57.0625 21.4648 57.1115 21.5302L57.1123 21.5278ZM54.9878 24.9218C54.9878 24.6185 55.0442 24.4158 55.1554 24.3136C55.2666 24.2122 55.4668 24.1607 55.7546 24.1607C56.0423 24.1607 56.2409 24.2114 56.3529 24.3136C56.4649 24.4158 56.5205 24.6177 56.5205 24.9218V25.4833C56.5205 25.7866 56.4641 25.9902 56.3529 26.0915C56.2409 26.1929 56.0415 26.2444 55.7546 26.2444C55.4676 26.2444 55.2666 26.1937 55.1554 26.0915C55.0434 25.9902 54.9878 25.7874 54.9878 25.4833V24.9218ZM56.187 22.4016C56.187 22.6771 56.1518 22.861 56.0815 22.9534C56.0121 23.0457 55.8813 23.0915 55.69 23.0915C55.4987 23.0915 55.363 23.0449 55.2919 22.9509C55.2208 22.8569 55.1848 22.6738 55.1848 22.4008V21.7583C55.1848 21.4852 55.2208 21.3021 55.2919 21.2081C55.363 21.1141 55.4954 21.0675 55.69 21.0675C55.8845 21.0675 56.0121 21.1133 56.0815 21.2065C56.151 21.2989 56.187 21.4828 56.187 21.7583V22.4008V22.4016Z" fill="#7D1B2C"/>
  <path d="M85.6351 24.5057H86.1035V24.6299H84.0477V24.5057H84.5242V21.3095H84.0477V21.1852H84.7C84.897 21.1852 85.0637 21.1771 85.2003 21.1615C85.3368 21.1452 85.4643 21.1199 85.582 21.0855V21.8523C85.7349 21.6013 85.9221 21.41 86.1419 21.2801C86.3627 21.1501 86.6103 21.0855 86.8866 21.0855C87.2479 21.0855 87.5308 21.1771 87.736 21.3602C87.9411 21.5433 88.0441 21.7951 88.0441 22.113V24.5057H88.5158V24.6299H86.4722V24.5057H86.9357V21.9397C86.9357 21.7125 86.9038 21.5555 86.8409 21.4705C86.7779 21.3847 86.67 21.3422 86.5171 21.3422C86.2629 21.3422 86.052 21.4419 85.8853 21.6414C85.7185 21.8408 85.6351 22.0975 85.6351 22.4098V24.5057Z" fill="#7D1B2C"/>
  <path d="M89.2417 21.3095H88.7537V21.1852H89.4101C89.5989 21.1852 89.7706 21.1771 89.9251 21.1615C90.0795 21.1452 90.221 21.1198 90.3493 21.0855V24.5065H90.8373V24.6307H88.7537V24.5065H89.2417V21.3103V21.3095ZM89.1885 20.2149C89.1885 20.0441 89.2474 19.901 89.3651 19.7874C89.4828 19.6738 89.6291 19.6166 89.8041 19.6166C89.979 19.6166 90.1229 19.6746 90.243 19.7891C90.3632 19.9043 90.4237 20.0457 90.4237 20.2149C90.4237 20.3842 90.3632 20.5321 90.243 20.6523C90.1229 20.7724 89.9766 20.8329 89.8041 20.8329C89.6316 20.8329 89.4795 20.7741 89.3635 20.6564C89.2474 20.5386 89.1894 20.3915 89.1894 20.2149H89.1885Z" fill="#7D1B2C"/>
  <path d="M92.9013 24.6299H92.6348L91.2027 21.209H90.6819V21.0847H92.8433V21.209H92.3806L93.2789 23.3694L93.8945 21.8842C93.9215 21.8196 93.9419 21.7599 93.9558 21.7051C93.9697 21.6504 93.977 21.5981 93.977 21.5474C93.977 21.4264 93.9329 21.3406 93.8463 21.2882C93.7588 21.2359 93.6116 21.2098 93.4065 21.2098V21.0855H94.8264V21.2098H94.7928C94.6318 21.2098 94.4969 21.2629 94.389 21.3692C94.2811 21.4746 94.1544 21.6978 94.0097 22.037L92.9021 24.6307L92.9013 24.6299Z" fill="#7D1B2C"/>
  <path d="M97.8149 22.6386H95.6487V23.2207C95.6487 23.6514 95.7174 23.9637 95.8539 24.1583C95.9904 24.3528 96.2111 24.4493 96.5144 24.4493C96.8176 24.4493 97.0678 24.3463 97.2877 24.1395C97.5084 23.9335 97.6678 23.6465 97.7659 23.2803H97.8926C97.8076 23.7029 97.6285 24.034 97.3531 24.2719C97.0776 24.5098 96.7392 24.6291 96.3378 24.6291C95.7967 24.6291 95.3511 24.4574 95.0021 24.1133C94.6531 23.7692 94.4789 23.3302 94.4789 22.7948C94.4789 22.2994 94.6506 21.8743 94.9956 21.5179C95.3397 21.1623 95.7533 20.9841 96.2348 20.9841C96.677 20.9841 97.0482 21.1386 97.3465 21.4476C97.6441 21.7566 97.8002 22.1539 97.8141 22.6378L97.8149 22.6386ZM96.6582 22.5136V21.9397C96.6582 21.6103 96.6206 21.3896 96.5471 21.2776C96.4735 21.1656 96.3394 21.1092 96.1449 21.1092C95.9503 21.1092 95.8302 21.1713 95.7574 21.2956C95.6847 21.4198 95.6487 21.6585 95.6487 22.0125V22.5144H96.6582V22.5136Z" fill="#7D1B2C"/>
  <path d="M98.397 21.3095H97.9212V21.1852H98.5735C98.7623 21.1852 98.9316 21.1771 99.0803 21.1615C99.2299 21.1452 99.3697 21.1199 99.5013 21.0855V21.7926C99.5994 21.5703 99.7318 21.397 99.897 21.2727C100.063 21.1485 100.244 21.0855 100.441 21.0855C100.656 21.0855 100.826 21.1411 100.947 21.2523C101.069 21.3634 101.13 21.5163 101.13 21.7117C101.13 21.8801 101.078 22.0182 100.974 22.1253C100.871 22.2324 100.737 22.2855 100.576 22.2855C100.415 22.2855 100.28 22.2324 100.173 22.1269C100.067 22.0215 100.013 21.8882 100.013 21.7272C100.013 21.6602 100.024 21.594 100.047 21.5269C100.068 21.4599 100.104 21.3904 100.153 21.3185C99.9615 21.3643 99.8054 21.4836 99.6869 21.6782C99.5683 21.8727 99.5087 22.1057 99.5087 22.3787V24.5065H100.153V24.6307H97.9212V24.5065H98.397V21.3103V21.3095Z" fill="#7D1B2C"/>
  <path d="M101.483 24.6217V23.3367H101.61C101.793 23.7389 101.995 24.0332 102.214 24.222C102.432 24.4108 102.681 24.5049 102.961 24.5049C103.182 24.5049 103.359 24.4452 103.492 24.3242C103.625 24.204 103.692 24.0422 103.692 23.8386C103.692 23.5738 103.421 23.4005 102.879 23.3204C102.765 23.3049 102.675 23.291 102.613 23.2803C102.205 23.21 101.912 23.0931 101.734 22.9272C101.556 22.7613 101.467 22.5258 101.467 22.2209C101.467 21.8776 101.585 21.5866 101.82 21.3455C102.056 21.1043 102.344 20.9841 102.686 20.9841C102.855 20.9841 103.039 21.016 103.236 21.0782C103.433 21.1411 103.541 21.173 103.561 21.173C103.612 21.173 103.657 21.1599 103.694 21.1329C103.731 21.1059 103.762 21.0651 103.786 21.0087H103.922V22.113H103.786C103.677 21.7787 103.527 21.5294 103.337 21.3643C103.146 21.1991 102.915 21.1174 102.641 21.1174C102.433 21.1174 102.26 21.1746 102.12 21.2899C101.981 21.4051 101.911 21.5482 101.911 21.719C101.911 21.7967 101.932 21.8694 101.973 21.9356C102.014 22.0027 102.073 22.0591 102.149 22.104C102.226 22.1523 102.389 22.1866 102.641 22.2062C102.893 22.2258 103.087 22.252 103.224 22.2847C103.563 22.3599 103.807 22.4809 103.956 22.6476C104.104 22.8152 104.179 23.0474 104.179 23.3449C104.179 23.7299 104.059 24.0405 103.818 24.276C103.578 24.5114 103.262 24.6291 102.87 24.6291C102.739 24.6291 102.575 24.5989 102.378 24.5392C102.181 24.4787 102.043 24.4493 101.963 24.4493C101.87 24.4493 101.795 24.4623 101.738 24.4893C101.68 24.5155 101.638 24.5596 101.61 24.6217H101.483Z" fill="#7D1B2C"/>
  <path d="M105.056 21.3095H104.568V21.1852H105.224C105.413 21.1852 105.585 21.1771 105.739 21.1615C105.894 21.1452 106.035 21.1198 106.163 21.0855V24.5065H106.651V24.6307H104.568V24.5065H105.056V21.3103V21.3095ZM105.002 20.2149C105.002 20.0441 105.061 19.901 105.179 19.7874C105.296 19.6738 105.443 19.6166 105.617 19.6166C105.792 19.6166 105.936 19.6746 106.057 19.7891C106.177 19.9043 106.237 20.0457 106.237 20.2149C106.237 20.3842 106.177 20.5321 106.057 20.6523C105.936 20.7724 105.791 20.8329 105.617 20.8329C105.444 20.8329 105.293 20.7741 105.177 20.6564C105.061 20.5386 105.002 20.3915 105.002 20.2149Z" fill="#7D1B2C"/>
  <path d="M106.869 21.0847H106.885C107.249 21.0847 107.555 20.9441 107.802 20.6629C108.049 20.3817 108.214 19.9844 108.296 19.4703H108.419V21.0847H109.178V21.2089H108.419V23.7986C108.419 23.9891 108.44 24.1239 108.482 24.204C108.526 24.2841 108.594 24.3242 108.69 24.3242C108.778 24.3242 108.862 24.2956 108.943 24.2384C109.023 24.1812 109.094 24.1002 109.154 23.9956L109.26 24.0594C109.164 24.2359 109.025 24.3757 108.844 24.4771C108.662 24.5784 108.458 24.6291 108.235 24.6291C107.901 24.6291 107.663 24.5425 107.523 24.3683C107.381 24.1942 107.311 23.8869 107.311 23.4446V21.2081H106.868V21.0839L106.869 21.0847Z" fill="#7D1B2C"/>
  <path d="M84.3567 19.1457H81.9771V19.2626H82.7774C83.0479 19.2684 83.2319 19.3149 83.3291 19.404C83.4264 19.4931 83.4746 19.7106 83.4746 20.058V22.2896C83.4746 22.7931 83.4452 23.1512 83.3847 23.3645C83.3242 23.5771 83.2237 23.7577 83.0815 23.9065C82.9556 24.0373 82.7994 24.1378 82.6114 24.2106C82.4242 24.2825 82.2248 24.3185 82.0147 24.3185C81.7768 24.3185 81.5602 24.2711 81.3665 24.1779C81.1719 24.0839 81.015 23.9523 80.8948 23.7822C80.8098 23.6621 80.7493 23.5199 80.7141 23.3539C80.6782 23.188 80.661 22.9133 80.661 22.5299V19.2692H81.3256V19.1474H78.7531V19.2692H79.4177V22.5455C79.4177 23.0024 79.4757 23.3523 79.5902 23.5951C79.7054 23.8378 79.9024 24.052 80.1812 24.2376C80.3782 24.3684 80.5964 24.4664 80.8376 24.5327C81.0779 24.5989 81.3379 24.6324 81.6174 24.6324C81.9567 24.6324 82.2673 24.5793 82.5509 24.4738C82.8338 24.3684 83.0618 24.2204 83.2343 24.0291C83.3872 23.8591 83.4967 23.6629 83.5629 23.4397C83.6283 23.2166 83.6618 22.834 83.6618 22.2912V20.0596C83.6618 19.7204 83.7101 19.5054 83.8073 19.4139C83.9046 19.3223 84.0885 19.2733 84.3591 19.2651H84.6174V19.1482H84.3591L84.3567 19.1457Z" fill="#7D1B2C"/>
  <path d="M112.092 21.0757V21.2H112.158C112.32 21.2 112.441 21.2261 112.523 21.2784C112.606 21.3307 112.646 21.4076 112.646 21.5089C112.646 21.5465 112.634 21.6029 112.611 21.6773C112.589 21.7525 112.555 21.8392 112.511 21.9381L111.908 23.2787L111.009 21.1983H111.538V21.0741H109.343V21.1983H109.824L111.34 24.71C111.34 24.71 111.004 25.7318 110.411 26.0792C110.411 26.0792 110.442 25.9836 110.442 25.9166C110.442 25.7564 110.389 25.6231 110.282 25.5177C110.175 25.4114 110.041 25.3591 109.88 25.3591C109.718 25.3591 109.585 25.4122 109.481 25.5193C109.378 25.6264 109.325 25.7645 109.325 25.9329C109.325 26.1283 109.387 26.2811 109.508 26.3923C109.63 26.5035 109.799 26.5591 110.015 26.5591C110.207 26.5591 110.744 26.4871 111.504 24.7239C112.263 22.9607 112.68 21.9463 112.68 21.9463C112.817 21.6414 112.939 21.4411 113.047 21.3438C113.154 21.2474 113.291 21.1991 113.455 21.1991V21.0749H112.093L112.092 21.0757Z" fill="#7D1B2C"/>
</svg>