<svg width="53" height="52" viewBox="0 0 53 52" fill="none" xmlns="http://www.w3.org/2000/svg">
<path d="M26.1665 52C40.5259 52 52.1665 40.3594 52.1665 26C52.1665 11.6406 40.5259 0 26.1665 0C11.8071 0 0.166504 11.6406 0.166504 26C0.166504 40.3594 11.8071 52 26.1665 52Z" fill="white"/>
<path fill-rule="evenodd" clip-rule="evenodd" d="M26.1192 15.815C20.7303 15.815 16.3618 20.1835 16.3618 25.5722C16.3618 30.961 20.7303 35.3295 26.1192 35.3295C31.5081 35.3295 35.8767 30.961 35.8767 25.5722C35.8767 20.1835 31.5081 15.815 26.1192 15.815ZM14.9696 25.5722C14.9696 19.4146 19.9615 14.4229 26.1192 14.4229C32.277 14.4229 37.2689 19.4146 37.2689 25.5722C37.2689 31.7299 32.277 36.7216 26.1192 36.7216C19.9615 36.7216 14.9696 31.7299 14.9696 25.5722Z" fill="#C6C6C6"/>
<path d="M21.867 17.4536L18.8601 12.9995H25.4959V32.4222H35.0864L33.7385 37.2909H19.2749L20.5027 34.9373L21.8151 32.4222L21.867 17.4536Z" fill="#C6C6C6"/>
<path d="M20.4731 34.9186L21.843 32.4014L21.8965 17.421L20.4731 15.3716V34.9186Z" fill="#989898"/>
</svg>
