<svg width="53" height="52" viewBox="0 0 53 52" fill="none" xmlns="http://www.w3.org/2000/svg">
<path d="M26.1665 52C40.5259 52 52.1665 40.3594 52.1665 26C52.1665 11.6406 40.5259 0 26.1665 0C11.8071 0 0.166504 11.6406 0.166504 26C0.166504 40.3594 11.8071 52 26.1665 52Z" fill="#C6C6C6"/>
<path fill-rule="evenodd" clip-rule="evenodd" d="M26.1192 15.8152C20.7303 15.8152 16.3618 20.1837 16.3618 25.5725C16.3618 30.9613 20.7303 35.3297 26.1192 35.3297C31.5081 35.3297 35.8767 30.9613 35.8767 25.5725C35.8767 20.1837 31.5081 15.8152 26.1192 15.8152ZM14.9696 25.5725C14.9696 19.4148 19.9615 14.4231 26.1192 14.4231C32.277 14.4231 37.2689 19.4148 37.2689 25.5725C37.2689 31.7301 32.277 36.7219 26.1192 36.7219C19.9615 36.7219 14.9696 31.7301 14.9696 25.5725Z" fill="white"/>
<path d="M21.867 17.4539L18.8601 12.9998H25.4959V32.4224H35.0864L33.7385 37.2912H19.2749L20.5027 34.9376L21.8151 32.4224L21.867 17.4539Z" fill="white"/>
<path d="M20.4731 34.9188L21.843 32.4017L21.8965 17.4212L20.4731 15.3718V34.9188Z" fill="#F6F6F6"/>
</svg>
