<svg width="53" height="52" viewBox="0 0 53 52" fill="none" xmlns="http://www.w3.org/2000/svg">
<path d="M26.9443 52C41.3037 52 52.9443 40.3594 52.9443 26C52.9443 11.6406 41.3037 0 26.9443 0C12.5849 0 0.944336 11.6406 0.944336 26C0.944336 40.3594 12.5849 52 26.9443 52Z" fill="white"/>
<path d="M28.3761 28.4715C28.2969 27.6994 28.219 26.9381 28.1409 26.177C28.0998 25.7757 28.0498 25.3752 28.0211 24.973C28.0096 24.8129 27.9346 24.7696 27.8023 24.748C26.1982 24.4832 24.5953 24.2098 22.9905 23.9511C22.1495 23.8157 21.5851 23.1057 21.7011 22.2964C21.8225 21.4504 22.5611 20.922 23.4163 21.0649C24.7212 21.2831 26.0259 21.5015 27.3324 21.7085C27.4632 21.7294 27.6208 21.7038 27.7405 21.6447C28.796 21.1226 29.8445 20.5864 30.897 20.058C31.2976 19.857 31.7162 19.8323 32.1262 20.0066C34.0989 20.8445 36.071 21.683 38.0362 22.5392C38.7738 22.8606 39.078 23.7119 38.7657 24.4601C38.4577 25.1984 37.6683 25.5306 36.9297 25.2131C35.7319 24.6985 34.5398 24.1701 33.3452 23.6478C33.2448 23.6039 33.1438 23.5617 33.0176 23.5079C33.2461 25.1765 33.4703 26.8126 33.6975 28.4718H28.3755L28.3761 28.4715Z" fill="#C6C6C6"/>
<path d="M30.9059 31.2928C30.5184 31.5462 30.1782 31.7599 29.8499 31.9911C29.7822 32.0385 29.7422 32.1473 29.7161 32.2362C29.2358 33.8731 28.7619 35.5118 28.2818 37.1487C28.092 37.7963 27.5652 38.224 26.9543 38.2431C26.3355 38.2623 25.7848 37.9173 25.5998 37.3183C25.5141 37.0416 25.4722 36.6999 25.5474 36.4285C26.0543 34.6028 26.597 32.7876 27.1353 30.9714C27.1536 30.9098 27.2489 30.8307 27.3088 30.8304C29.4364 30.8232 31.564 30.8243 33.7318 30.8243C33.7318 31.1598 33.741 31.4857 33.7284 31.8107C33.7211 31.9983 33.777 32.1282 33.9125 32.2581C35.0236 33.3214 36.1306 34.3894 37.2318 35.4638C38.0646 36.2761 37.7857 37.6278 36.7208 37.9606C36.2257 38.1154 35.762 38.0261 35.3818 37.6666C34.0347 36.3941 32.6965 35.1115 31.3607 33.8259C31.0565 33.5331 30.9037 33.1587 30.9056 32.7221C30.9078 32.2639 30.9061 31.8054 30.9061 31.2931L30.9059 31.2928Z" fill="#C6C6C6"/>
<path d="M21.153 21.471C21.0714 21.7341 21.001 21.9597 20.9259 22.2017C20.6654 22.1321 20.3996 22.061 20.1263 21.988C19.7721 22.7163 19.2319 23.194 18.4884 23.4191C16.7671 23.9406 14.8972 22.5764 14.8894 20.7937C14.8846 19.6586 15.6482 18.6994 16.8006 18.3932C18.2497 18.0083 19.7963 18.8676 20.2106 20.303C20.2823 20.5512 20.2766 20.8223 20.3244 21.0793C20.3381 21.1526 20.402 21.2506 20.4646 21.2731C20.6877 21.3536 20.9202 21.4066 21.1527 21.471H21.153Z" fill="#C6C6C6"/>
<path d="M27.9685 14.937C29.3784 14.9403 30.5257 16.1246 30.5265 17.5779C30.5273 19.0361 29.3577 20.2401 27.9494 20.2312C26.55 20.2223 25.3946 19.0003 25.4053 17.5401C25.4158 16.0988 26.5629 14.9337 27.9685 14.937Z" fill="#C6C6C6"/>
<path d="M16.3603 29.2494C16.3603 28.8172 16.3542 28.3995 16.3628 27.9818C16.3673 27.7501 16.5174 27.6024 16.7191 27.5996C16.9159 27.5971 17.077 27.7484 17.0995 27.9654C17.1089 28.0551 17.1049 28.1464 17.1052 28.2372C17.1057 28.5661 17.1052 28.895 17.1052 29.2455H36.7831C36.7831 29.0568 36.7823 28.8636 36.7831 28.6704C36.7841 28.4314 36.7755 28.1919 36.7917 27.9541C36.8062 27.7392 36.9831 27.5921 37.1807 27.6007C37.3738 27.6091 37.518 27.7506 37.5247 27.9696C37.5351 28.3154 37.5292 28.6615 37.53 29.0076C37.53 29.0959 37.53 29.1844 37.53 29.3016C37.8342 29.3016 38.1111 29.3016 38.3879 29.3016C38.4676 29.3016 38.5479 29.2974 38.6269 29.306C38.8583 29.3315 39.0097 29.485 38.9995 29.6765C38.9893 29.8686 38.8255 30.0248 38.6126 30.0404C38.5331 30.0462 38.4534 30.0432 38.3737 30.0432C30.7533 30.0432 23.1333 30.0432 15.513 30.0432C15.4254 30.0432 15.3371 30.047 15.2501 30.0382C15.0425 30.0173 14.8755 29.8439 14.89 29.6513C14.9064 29.4353 15.0297 29.293 15.2383 29.2796C15.532 29.2608 15.8276 29.271 16.1225 29.2671C16.192 29.2663 16.2615 29.2574 16.3598 29.2499L16.3603 29.2494Z" fill="#C6C6C6"/>
</svg>
