<svg width="704" height="657" viewBox="0 0 704 657" fill="none" xmlns="http://www.w3.org/2000/svg">
<path d="M0 1H7.5V105H0" stroke="#C6C6C6"/>
<path d="M7.5 53H16" stroke="#C6C6C6"/>
<path d="M0 303H7.5V407H0" stroke="#C6C6C6"/>
<path d="M7.5 355H16" stroke="#C6C6C6"/>
<path d="M704 105L696.5 105L696.5 0.999999L704 1" stroke="#C6C6C6"/>
<path d="M696.5 53L688 53" stroke="#C6C6C6"/>
<path d="M704 404L696.5 404L696.5 300L704 300" stroke="#C6C6C6"/>
<path d="M696.5 352L688 352" stroke="#C6C6C6"/>
<path d="M564 97V128H500V162" stroke="#C6C6C6"/>
<path d="M140 97V128H202.5V162" stroke="#C6C6C6"/>
<path d="M202 249V280H140V314" stroke="#C6C6C6"/>
<path d="M500 249V280H562V314" stroke="#C6C6C6"/>
<path d="M326 205H376" stroke="#C6C6C6"/>
<path d="M352 205L352 436" stroke="#C6C6C6" stroke-width="0.983739"/>
<path d="M352 556L352 657" stroke="#C6C6C6" stroke-width="0.921443"/>
</svg>
