<svg width="705" height="1450" viewBox="0 0 705 1450" fill="none" xmlns="http://www.w3.org/2000/svg">
<path d="M1 1H8.5V105H1" stroke="#C6C6C6"/>
<path d="M8.5 53H17" stroke="#C6C6C6"/>
<path d="M1 303H8.5V407H1" stroke="#C6C6C6"/>
<path d="M8.5 355H17" stroke="#C6C6C6"/>
<path d="M705 105L697.5 105L697.5 0.999999L705 1" stroke="#C6C6C6"/>
<path d="M697.5 53L689 53" stroke="#C6C6C6"/>
<path d="M705 404L697.5 404L697.5 300L705 300" stroke="#C6C6C6"/>
<path d="M697.5 352L689 352" stroke="#C6C6C6"/>
<path d="M565 97V128H501V162" stroke="#C6C6C6"/>
<path d="M141 97V128H203.5V162" stroke="#C6C6C6"/>
<path d="M203 249V280H141V314" stroke="#C6C6C6"/>
<path d="M501 249V280H563V314" stroke="#C6C6C6"/>
<path d="M327 205H377" stroke="#C6C6C6"/>
<path d="M353 205L353 436" stroke="#C6C6C6" stroke-width="0.983739"/>
<path d="M353 556L353 657" stroke="#C6C6C6" stroke-width="0.921443"/>
<path d="M353 796L353 897" stroke="#C6C6C6" stroke-width="0.921443"/>
<path d="M0 1043H7.5V1147H0" stroke="#C6C6C6"/>
<path d="M7.5 1095H16" stroke="#C6C6C6"/>
<path d="M0 1345H7.5V1449H0" stroke="#C6C6C6"/>
<path d="M7.5 1397H16" stroke="#C6C6C6"/>
<path d="M704 1147L696.5 1147L696.5 1043L704 1043" stroke="#C6C6C6"/>
<path d="M696.5 1095L688 1095" stroke="#C6C6C6"/>
<path d="M704 1446L696.5 1446L696.5 1342L704 1342" stroke="#C6C6C6"/>
<path d="M696.5 1394L688 1394" stroke="#C6C6C6"/>
<path d="M564 1139V1170H500V1204" stroke="#C6C6C6"/>
<path d="M140 1139V1170H202.5V1204" stroke="#C6C6C6"/>
<path d="M202 1291V1322H140V1356" stroke="#C6C6C6"/>
<path d="M500 1291V1322H562V1356" stroke="#C6C6C6"/>
<path d="M326 1247H376" stroke="#C6C6C6"/>
<path d="M352 1017L352 1248" stroke="#C6C6C6" stroke-width="0.983739"/>
</svg>
