<svg width="53" height="52" viewBox="0 0 53 52" fill="none" xmlns="http://www.w3.org/2000/svg">
<path d="M26.5 52C40.8594 52 52.5 40.3594 52.5 26C52.5 11.6406 40.8594 0 26.5 0C12.1406 0 0.5 11.6406 0.5 26C0.5 40.3594 12.1406 52 26.5 52Z" fill="#C6C6C6"/>
<path d="M23.7641 17.9306C25.1045 17.9306 26.2175 16.8296 26.2294 15.4773C26.2294 14.113 25.1524 13.012 23.7881 13C22.4118 13 21.3228 14.0651 21.3228 15.4294C21.3228 16.8176 22.3998 17.9186 23.7641 17.9186V17.9306Z" fill="white"/>
<path d="M36.1862 23.7943H32.0814C32.0694 23.4832 31.7582 23.2678 31.7582 23.2678L27.2226 20.4674L25.0086 19.0552C25.0086 19.0552 24.7333 18.8757 24.6376 18.8398C23.8477 18.5645 22.1483 18.4927 21.3106 18.5406C20.8439 18.5645 20.1378 18.8039 20.1019 19.9887L20.0181 28.2582C20.0181 28.2582 19.9703 28.8686 20.0301 29.06C20.0899 29.2635 20.4968 29.7781 20.4968 29.7781L23.5007 33.6556C23.6443 33.8351 23.6921 34.0624 23.6203 34.2898L22.5792 37.6647C22.5792 37.6647 22.0765 38.9093 23.2733 39.2324C23.2733 39.2324 24.5777 39.7949 25.0325 38.2511L26.684 33.5837C26.684 33.5837 26.8994 32.9734 26.1694 32.0639L24.2786 29.5507L28.2278 32.1476C28.3714 32.2434 28.4911 32.375 28.5629 32.5306L30.9205 37.7006C30.9205 37.7006 31.2197 38.3707 31.842 38.4545C31.842 38.4545 33.4337 38.6939 33.4576 37.174C33.4576 37.174 33.5294 36.8628 33.1824 36.2166L31.1 30.8911C31.1 30.8911 30.9564 29.9696 29.628 29.2874L25.212 26.3075V25.769C25.212 25.769 25.6069 26.1998 26.1455 26.1998L30.3939 26.2955C30.3939 26.2955 31.1838 26.1519 31.1599 25.4698V25.4459H36.1623C36.629 25.4459 37 25.0749 37 24.6081C37 24.1414 36.629 23.7704 36.1623 23.7704L36.1862 23.7943ZM28.527 23.8901L26.7678 23.8542C26.7678 23.8542 26.6601 23.8183 26.6362 23.7584L26.2412 22.4181L28.527 23.8542V23.902V23.8901Z" fill="white"/>
</svg>
